<svg height="24" width="24" xmlns="http://www.w3.org/2000/svg"><path d="M16.96 3.248c1.626.367 4.406.914 3.667 3.39-.938 3.146-3.586 6.01-5.776 8.2l-.006.007-.006.006c-2.191 2.19-5.054 4.838-8.2 5.775-2.475.74-3.023-2.04-3.391-3.667l5.253-2.31 2.059 1.11c.763-.485 2.076-1.705 2.89-2.518.813-.814 2.033-2.129 2.519-2.891L14.65 8.5l2.31-5.254z" style="stroke-width:1;marker:none" color="#000" overflow="visible" fill="gray"/><path style="font-weight:400;line-height:normal;font-variant-ligatures:none;font-variant-position:normal;font-variant-caps:normal;font-variant-numeric:normal;font-variant-alternates:normal;font-feature-settings:normal;text-indent:0;text-align:start;text-decoration:none;text-decoration-line:none;text-decoration-style:solid;text-decoration-color:#000;text-transform:none;shape-padding:0;isolation:auto;mix-blend-mode:normal;fill:gray;stroke-width:.999999;marker:none" d="M11.192 11.192a65.832 65.832 0 0 0-.83-3.162 53.835 53.835 0 0 0-1.013-3.098L7.583 6.7 2.883 2 2 2.884l4.7 4.7L4.932 9.35c.979.365 2.01.707 3.086 1.023 1.07.31 2.127.583 3.174.818z"/></svg>