<svg height="24" width="24" xmlns="http://www.w3.org/2000/svg"><path d="M16.96 3.248c1.626.367 4.406.914 3.667 3.39-.938 3.146-3.586 6.01-5.776 8.2l-.006.007-.006.006c-2.191 2.19-5.054 4.838-8.2 5.775-2.475.74-3.023-2.04-3.391-3.667l5.253-2.31 2.059 1.11c.763-.485 2.076-1.705 2.89-2.518.813-.814 2.033-2.129 2.519-2.891L14.65 8.5l2.31-5.254z" style="stroke-width:1;marker:none" color="#000" overflow="visible" fill="gray"/><path style="font-weight:400;line-height:normal;font-variant-ligatures:none;font-variant-position:normal;font-variant-caps:normal;font-variant-numeric:normal;font-variant-alternates:normal;font-feature-settings:normal;text-indent:0;text-align:start;text-decoration:none;text-decoration-line:none;text-decoration-style:solid;text-decoration-color:#000;text-transform:none;shape-padding:0;isolation:auto;mix-blend-mode:normal;fill:gray;stroke-width:.999999;marker:none" d="M2 2c.244 1.038.522 2.091.83 3.162A53.835 53.835 0 0 0 3.843 8.26l1.765-1.768 4.7 4.7.884-.884-4.7-4.7L8.26 3.841a45.746 45.746 0 0 0-3.086-1.023A54.127 54.127 0 0 0 2 2z"/></svg>