<svg height="24" width="24" xmlns="http://www.w3.org/2000/svg"><path style="fill:gray;stroke-width:.5;stroke-linecap:square;fill-opacity:1" d="M6 4v1h.129c-1.247.01-2.14.072-2.852.428A2.097 2.097 0 0 0 2.25 6.592C2.059 7.109 2 7.722 2 8.5v7c0 .778.059 1.391.25 1.908.191.517.553.927 1.027 1.164.95.475 2.223.428 4.223.428h9c2 0 3.274.047 4.223-.428a2.097 2.097 0 0 0 1.027-1.164c.191-.517.25-1.13.25-1.908v-7c0-.778-.059-1.391-.25-1.908a2.097 2.097 0 0 0-1.027-1.164C19.773 4.953 18.5 5 16.5 5H8V4H6zm1.5 2h9c2 0 3.226.047 3.777.322.276.138.414.29.535.617.122.327.188.839.188 1.561v7c0 .722-.066 1.234-.188 1.56-.12.327-.259.48-.535.618-.55.275-1.777.322-3.777.322h-9c-2 0-3.226-.047-3.777-.322-.276-.138-.414-.29-.535-.617C3.066 16.734 3 16.222 3 15.5v-7c0-.722.066-1.234.188-1.56.12-.327.259-.48.535-.618C4.273 6.047 5.5 6 7.5 6zM12 7a5 5 0 0 0-5 5 5 5 0 0 0 5 5 5 5 0 0 0 5-5 5 5 0 0 0-5-5zm6.5 0a.5.5 0 0 0-.5.5.5.5 0 0 0 .5.5.5.5 0 0 0 .5-.5.5.5 0 0 0-.5-.5zM12 8a4 4 0 0 1 4 4 4 4 0 0 1-4 4 4 4 0 0 1-4-4 4 4 0 0 1 4-4zm.049 1.002A1 1 0 0 1 13 10a1 1 0 0 1-1 1 1 1 0 0 1-1-1 1 1 0 0 1 .854-.99A3 3 0 0 0 9 12a3 3 0 0 0 3 3 3 3 0 0 0 3-3 3 3 0 0 0-2.951-2.998z"/></svg>