<?xml version="1.0" encoding="UTF-8" standalone="no"?>
<svg viewBox="0 0 24 24" height="24" width="24" version="1.1" id="svg8" sodipodi:docname="video-filed.svg" inkscape:version="1.1 (ce6663b3b7, 2021-05-25)"
   xmlns:inkscape="http://www.inkscape.org/namespaces/inkscape"
   xmlns:sodipodi="http://sodipodi.sourceforge.net/DTD/sodipodi-0.dtd"
   xmlns="http://www.w3.org/2000/svg"
   xmlns:svg="http://www.w3.org/2000/svg">
   <defs id="defs12" />
   <sodipodi:namedview id="namedview10" pagecolor="#ffffff" bordercolor="#666666" borderopacity="1.0" inkscape:pageshadow="2" inkscape:pageopacity="0.0" inkscape:pagecheckerboard="0" showgrid="false" inkscape:zoom="28" inkscape:cx="10.303571" inkscape:cy="12.910714" inkscape:window-width="1920" inkscape:window-height="1016" inkscape:window-x="0" inkscape:window-y="27" inkscape:window-maximized="1" inkscape:current-layer="svg8" inkscape:snap-page="true" />
   <path style="color:#000000;fill:#808080;fill-opacity:1;-inkscape-stroke:none" d="m 5.4550779,6.0000001 c -0.9685809,0.00898 -1.717819,0.073269 -2.3378906,0.4453125 -0.4133811,0.2480287 -0.7199379,0.6559075 -0.8886719,1.1621094 -0.1687339,0.5062019 -0.2285156,1.1148011 -0.2285156,1.8925779 v 5.0000001 c 0,0.777777 0.059782,1.386376 0.2285156,1.892578 0.168734,0.506202 0.4752908,0.914081 0.8886719,1.16211 0.8267622,0.496058 1.882814,0.445312 3.3828125,0.445312 h 6.0000002 c 1.499999,0 2.556049,0.05074 3.382812,-0.445312 0.413382,-0.248029 0.719938,-0.655908 0.888672,-1.16211 0.168734,-0.506202 0.228516,-1.114801 0.228516,-1.892578 v -1.226562 l 5,2.726562 v -7.9999999 l -5,2.7265619 v -1.2265621 c 0,-0.7777768 -0.05978,-1.386376 -0.228516,-1.8925779 -0.168734,-0.5062019 -0.47529,-0.9140807 -0.888672,-1.1621094 -0.826762,-0.4960573 -1.882814,-0.4453125 -3.382812,-0.4453125 h -6.0000002 c -0.3749996,0 -0.7220616,-0.00299 -1.0449219,0 z" id="path858" />
</svg>
