<svg height="24" width="24" xmlns="http://www.w3.org/2000/svg"><path style="color:#000;fill:gray;-inkscape-stroke:none;fill-opacity:1" d="M5.455 6c-.969.009-1.718.073-2.338.445-.413.248-.72.656-.888 1.162C2.059 8.114 2 8.722 2 9.5v5c0 .778.06 1.386.229 1.893.168.506.475.914.888 1.162C3.944 18.05 5 18 6.5 18h6c1.5 0 2.556.05 3.383-.445.413-.248.72-.656.888-1.162.17-.507.229-1.115.229-1.893v-1.227L22 16V8l-5 2.727V9.5c0-.778-.06-1.386-.229-1.893-.168-.506-.475-.914-.888-1.162C15.056 5.95 14 6 12.5 6h-6c-.375 0-.722-.003-1.045 0zM6.5 7h6c1.5 0 2.444.05 2.867.305.212.127.343.281.455.619.113.337.178.854.178 1.576v5c0 .722-.065 1.239-.178 1.576-.112.338-.243.492-.455.62C14.944 16.948 14 17 12.5 17h-6c-1.5 0-2.444-.05-2.867-.305-.212-.127-.343-.281-.455-.619C3.065 15.74 3 15.222 3 14.5v-5c0-.722.065-1.239.178-1.576.112-.338.243-.492.455-.62C4.056 7.052 5 7 6.5 7z"/></svg>