<svg height="24" width="24" xmlns="http://www.w3.org/2000/svg"><path style="opacity:1;fill:gray;stroke:none;stroke-width:2;stroke-linejoin:round" d="M12 3a8 8 0 0 0-8 8 8 8 0 0 0 6 7.73V20h4v-1.27A8 8 0 0 0 20 11a8 8 0 0 0-8-8zm0 1a7 7 0 0 1 7 7 7 7 0 0 1-7 7 7 7 0 0 1-7-7 7 7 0 0 1 7-7z"/><path style="fill:gray;fill-opacity:1;stroke-width:.5;stroke-linecap:square" d="M12 6a5 5 0 1 0 0 10 5 5 0 0 0 0-10zm0 1a4 4 0 1 1 0 8 4 4 0 0 1 0-8zm.049 1.002a1 1 0 1 1-.195.008A3 3 0 0 0 9 11a3 3 0 1 0 3.049-2.998zM3 21v1h18.5v-1z"/></svg>