<svg height="24" width="24" xmlns="http://www.w3.org/2000/svg"><path style="color:#000;fill:gray;fill-opacity:1;stroke-linecap:round" d="M5.455 2.002c-.968.009-1.718.073-2.338.445-.413.248-.72.656-.888 1.162C2.059 4.116 2 4.724 2 5.502v3.393c.163-.132.34-.246.527-.34.87-.435 1.931-.553 2.973-.553h4.793L13.5 4.795l-2.646-2.647a.5.5 0 0 0-.124-.087.5.5 0 0 0-.23-.059h-4c-.375 0-.722-.003-1.045 0zm9.252 3-4 4H5.5c-.958 0-1.897.132-2.527.447-.631.316-.973.72-.973 1.553v3.5c0 .778.059 1.391.25 1.908.191.517.553.927 1.027 1.164.95.475 2.223.428 4.223.428H11V19h2v-.998h4.5c1.5 0 2.556.05 3.383-.445.413-.248.72-.656.888-1.162.17-.507.229-1.115.229-1.893v-6c0-.778-.06-1.386-.229-1.893-.168-.506-.475-.914-.888-1.162-.827-.496-1.883-.445-3.383-.445h-2.793z"/><path style="fill:gray;stroke-width:.5;stroke-linecap:square;fill-opacity:1" d="M3 21h18v1H3z"/></svg>