<svg height="24" width="24" xmlns="http://www.w3.org/2000/svg"><path style="color:#000;fill:gray;fill-opacity:1;-inkscape-stroke:none" d="m3.363 2.656-.726.688 1.408 1.49A4.75 4.75 0 0 0 4 5.502v13c0 .542.064.984.23 1.36.167.375.458.667.797.837.68.34 1.473.303 2.473.303h8c1 0 1.794.037 2.473-.303a1.71 1.71 0 0 0 .59-.492l1.074 1.137.726-.688-1.406-1.488v-.002l-3.793-4.016-3.508-3.714L9.412 9.06l-.533-.565-4.441-4.701-1.075-1.139zM16.213 3c-.226-.002-.463.002-.713.002h-8c-.25 0-.487-.002-.713 0-.576.005-1.078.037-1.53.203l4.536 4.8L11.5 7.09 16 9.506v5.074l3 3.176V5.502c0-.542-.064-.984-.23-1.36a1.72 1.72 0 0 0-.797-.837c-.51-.255-1.083-.3-1.76-.305zM11.5 7.94l-1.174.63 2.242 2.375 2.264-1.216-3.332-1.79zM7.967 8.985l.533.567-.332.177 1.016.545 5.066 5.366-2.75 1.476L7 14.701V9.506l.967-.52z"/></svg>