<?xml version="1.0" encoding="UTF-8" standalone="no"?>
<svg
   height="24"
   width="24"
   version="1.1"
   id="svg4"
   sodipodi:docname="fit-best.svg"
   inkscape:version="1.1 (ce6663b3b7, 2021-05-25)"
   xmlns:inkscape="http://www.inkscape.org/namespaces/inkscape"
   xmlns:sodipodi="http://sodipodi.sourceforge.net/DTD/sodipodi-0.dtd"
   xmlns="http://www.w3.org/2000/svg"
   xmlns:svg="http://www.w3.org/2000/svg">
  <defs
     id="defs8" />
  <sodipodi:namedview
     id="namedview6"
     pagecolor="#ffffff"
     bordercolor="#666666"
     borderopacity="1.0"
     inkscape:pageshadow="2"
     inkscape:pageopacity="0.0"
     inkscape:pagecheckerboard="0"
     showgrid="false"
     inkscape:snap-page="true"
     inkscape:zoom="28"
     inkscape:cx="12.839286"
     inkscape:cy="13.196429"
     inkscape:window-width="1920"
     inkscape:window-height="1016"
     inkscape:window-x="0"
     inkscape:window-y="27"
     inkscape:window-maximized="1"
     inkscape:current-layer="svg4" />
  <path
     d="m 9.4925,4.5 c -1.5725,0.01875 -2.72375,-0.0375 -3.665,0.48125 a 2.35,2.35 0 0 0 -1.04625,1.2475 c -0.20625,0.54625 -0.28125,1.2 -0.28125,2.02125 v 2.5 h 1.25 v -2.5 c 0,-0.74 0.07875,-1.2575 0.2,-1.5825 0.1225,-0.325 0.25125,-0.46375 0.48125,-0.59 0.45625,-0.2525 1.49375,-0.30875 3.06875,-0.3275 h 1.25 v -1.25 h -1.2525 z m 3.7575,0 v 1.25 h 1.25 c 1.5725,0.01875 2.60875,0.075 3.06625,0.3275 0.22875,0.125 0.3625,0.265 0.48375,0.59 0.12125,0.325 0.2,0.8425 0.2,1.5825 v 2.5 h 1.25 v -2.5 c 0,-0.8225 -0.075,-1.47375 -0.28125,-2.02125 a 2.35,2.35 0 0 0 -1.0475,-1.2475 c -0.94,-0.52 -2.09125,-0.4625 -3.66375,-0.48125 h -0.005 z m -8.75,8.75 v 2.5 c 0,0.8225 0.075,1.47375 0.28125,2.02125 0.205,0.54875 0.57625,0.9875 1.04625,1.2475 0.94125,0.52 2.0925,0.4625 3.665,0.48125 h 1.2575 v -1.25 h -1.25 c -1.57375,-0.01875 -2.6125,-0.075 -3.06875,-0.3275 -0.23,-0.125 -0.35875,-0.265 -0.48125,-0.59 -0.12125,-0.325 -0.2,-0.8425 -0.2,-1.5825 v -2.5 z m 13.75,0 v 2.5 c 0,0.74 -0.07875,1.2575 -0.2,1.5825 -0.1225,0.325 -0.2525,0.46375 -0.48125,0.59 -0.4575,0.2525 -1.49625,0.30875 -3.06875,0.3275 h -1.25 v 1.25 h 1.2575 c 1.5725,-0.01875 2.72375,0.0375 3.665,-0.48125 a 2.35,2.35 0 0 0 1.04625,-1.2475 c 0.20625,-0.5475 0.28125,-1.2 0.28125,-2.02125 v -2.5 z"
     style="line-height:normal;font-variant-ligatures:normal;font-variant-position:normal;font-variant-caps:normal;font-variant-numeric:normal;font-variant-alternates:normal;font-feature-settings:normal;text-indent:0;text-align:start;text-decoration-line:none;text-decoration-style:solid;text-decoration-color:#000000;text-transform:none;text-orientation:mixed;shape-padding:0;isolation:auto;mix-blend-mode:normal;stroke-width:1;marker:none"
     color="#000000"
     font-weight="400"
     font-family="sans-serif"
     white-space="normal"
     overflow="visible"
     fill="#808080"
     id="path2" />
</svg>
