<?xml version="1.0" encoding="UTF-8" standalone="no"?>
<svg
   height="24"
   width="24"
   version="1.1"
   id="svg8"
   sodipodi:docname="out.svg"
   inkscape:version="1.1 (ce6663b3b7, 2021-05-25)"
   xmlns:inkscape="http://www.inkscape.org/namespaces/inkscape"
   xmlns:sodipodi="http://sodipodi.sourceforge.net/DTD/sodipodi-0.dtd"
   xmlns="http://www.w3.org/2000/svg"
   xmlns:svg="http://www.w3.org/2000/svg">
  <defs
     id="defs12" />
  <sodipodi:namedview
     id="namedview10"
     pagecolor="#ffffff"
     bordercolor="#666666"
     borderopacity="1.0"
     inkscape:pageshadow="2"
     inkscape:pageopacity="0.0"
     inkscape:pagecheckerboard="0"
     showgrid="true"
     inkscape:snap-page="true"
     inkscape:zoom="28"
     inkscape:cx="17.946429"
     inkscape:cy="11.071429"
     inkscape:window-width="1920"
     inkscape:window-height="1043"
     inkscape:window-x="1920"
     inkscape:window-y="0"
     inkscape:window-maximized="1"
     inkscape:current-layer="svg8">
    <inkscape:grid
       type="xygrid"
       id="grid823" />
  </sodipodi:namedview>
  <path
     id="path998"
     style="fill:#808080;fill-rule:evenodd;stroke-linecap:round;fill-opacity:1"
     d="M 10.5 3 A 7.5 7.5 0 0 0 3 10.5 A 7.5 7.5 0 0 0 10.5 18 A 7.5 7.5 0 0 0 15.4375 16.144531 L 20.646484 21.353516 L 21.353516 20.646484 L 16.144531 15.4375 A 7.5 7.5 0 0 0 18 10.5 A 7.5 7.5 0 0 0 10.5 3 z M 10.5 4 A 6.5 6.5 0 0 1 17 10.5 A 6.5 6.5 0 0 1 10.5 17 A 6.5 6.5 0 0 1 4 10.5 A 6.5 6.5 0 0 1 10.5 4 z M 7 10 L 7 11 L 14 11 L 14 10 L 7 10 z " />
</svg>
