<?xml version="1.0" encoding="UTF-8" standalone="no"?>
<svg
   width="24"
   height="24"
   version="1.1"
   id="svg22"
   sodipodi:docname="right.svg"
   inkscape:version="1.1 (ce6663b3b7, 2021-05-25)"
   xmlns:inkscape="http://www.inkscape.org/namespaces/inkscape"
   xmlns:sodipodi="http://sodipodi.sourceforge.net/DTD/sodipodi-0.dtd"
   xmlns="http://www.w3.org/2000/svg"
   xmlns:svg="http://www.w3.org/2000/svg"
   xmlns:rdf="http://www.w3.org/1999/02/22-rdf-syntax-ns#"
   xmlns:cc="http://creativecommons.org/ns#"
   xmlns:dc="http://purl.org/dc/elements/1.1/">
  <metadata
     id="metadata28">
    <rdf:RDF>
      <cc:Work
         rdf:about="">
        <dc:format>image/svg+xml</dc:format>
        <dc:type
           rdf:resource="http://purl.org/dc/dcmitype/StillImage" />
      </cc:Work>
    </rdf:RDF>
  </metadata>
  <defs
     id="defs26" />
  <sodipodi:namedview
     pagecolor="#ffffff"
     bordercolor="#666666"
     borderopacity="1"
     objecttolerance="10"
     gridtolerance="10"
     guidetolerance="10"
     inkscape:pageopacity="0"
     inkscape:pageshadow="2"
     inkscape:window-width="1920"
     inkscape:window-height="1016"
     id="namedview24"
     showgrid="true"
     inkscape:zoom="27.5"
     inkscape:cx="25.436364"
     inkscape:cy="11.945455"
     inkscape:window-x="0"
     inkscape:window-y="27"
     inkscape:window-maximized="1"
     inkscape:current-layer="g6"
     inkscape:pagecheckerboard="0"
     inkscape:snap-page="true">
    <inkscape:grid
       type="xygrid"
       id="grid1448" />
  </sodipodi:namedview>
  <g
     color="#000000"
     fill="#808080"
     id="g6">
    <path
       id="path859"
       style="color:#000000;fill:#808080;fill-opacity:1;-inkscape-stroke:none"
       d="m 18.544922,3 c 0.968581,0.00898 1.717819,0.073269 2.33789,0.4453125 0.413382,0.2480287 0.719938,0.6559075 0.888672,1.1621094 0.168734,0.5062019 0.228516,1.1148011 0.228516,1.8925781 v 11 c 0,0.777777 -0.05978,1.386376 -0.228516,1.892578 -0.168734,0.506202 -0.47529,0.914081 -0.888672,1.16211 -0.826762,0.496058 -1.882814,0.445312 -3.382812,0.445312 h -11 c -1.499998,0 -2.55605,0.05074 -3.382812,-0.445312 -0.413382,-0.248029 -0.719938,-0.655908 -0.888672,-1.16211 -0.168734,-0.506202 -0.228516,-1.114801 -0.228516,-1.892578 v -11 c 0,-0.777777 0.05978,-1.3863762 0.228516,-1.8925781 0.168734,-0.5062019 0.47529,-0.9140807 0.888672,-1.1621094 0.826761,-0.4960573 1.882814,-0.4453125 3.382812,-0.4453125 h 11 c 0.375,0 0.722062,-0.00299 1.044922,0 z m 2.455078,4 h -5 v 13 h 1.5 c 1.499998,0 2.443951,-0.05075 2.867187,-0.304688 0.211619,-0.12697 0.342563,-0.281593 0.455079,-0.61914 0.112515,-0.337547 0.177734,-0.853951 0.177734,-1.576172 z m -6,0 h -12 v 10.5 c 0,0.722221 0.06522,1.238625 0.177734,1.576172 0.112516,0.337547 0.243459,0.49217 0.455078,0.61914 0.423236,0.253942 1.367189,0.304688 2.867188,0.304688 h 8.5 z"
       sodipodi:nodetypes="sssssssssssssssssscccsssscccsssscc" />
  </g>
</svg>
