<?xml version="1.0" encoding="UTF-8" standalone="no"?>
<svg
   width="24"
   height="24"
   version="1.1"
   id="svg22"
   sodipodi:docname="right.svg"
   inkscape:version="1.1 (ce6663b3b7, 2021-05-25)"
   xmlns:inkscape="http://www.inkscape.org/namespaces/inkscape"
   xmlns:sodipodi="http://sodipodi.sourceforge.net/DTD/sodipodi-0.dtd"
   xmlns="http://www.w3.org/2000/svg"
   xmlns:svg="http://www.w3.org/2000/svg"
   xmlns:rdf="http://www.w3.org/1999/02/22-rdf-syntax-ns#"
   xmlns:cc="http://creativecommons.org/ns#"
   xmlns:dc="http://purl.org/dc/elements/1.1/">
  <metadata
     id="metadata28">
    <rdf:RDF>
      <cc:Work
         rdf:about="">
        <dc:format>image/svg+xml</dc:format>
        <dc:type
           rdf:resource="http://purl.org/dc/dcmitype/StillImage" />
      </cc:Work>
    </rdf:RDF>
  </metadata>
  <defs
     id="defs26" />
  <sodipodi:namedview
     pagecolor="#ffffff"
     bordercolor="#666666"
     borderopacity="1"
     objecttolerance="10"
     gridtolerance="10"
     guidetolerance="10"
     inkscape:pageopacity="0"
     inkscape:pageshadow="2"
     inkscape:window-width="1920"
     inkscape:window-height="1016"
     id="namedview24"
     showgrid="true"
     inkscape:zoom="27.5"
     inkscape:cx="5.5818182"
     inkscape:cy="9.0727273"
     inkscape:window-x="0"
     inkscape:window-y="27"
     inkscape:window-maximized="1"
     inkscape:current-layer="g6"
     inkscape:pagecheckerboard="0"
     inkscape:snap-page="true">
    <inkscape:grid
       type="xygrid"
       id="grid1448" />
  </sodipodi:namedview>
  <g
     color="#000000"
     fill="#808080"
     id="g6">
    <path
       id="path5525-3"
       style="color:#000000;font-style:normal;font-variant:normal;font-weight:normal;font-stretch:normal;font-size:medium;line-height:normal;font-family:sans-serif;text-indent:0;text-align:start;text-decoration:none;text-decoration-line:none;text-decoration-style:solid;text-decoration-color:#000000;letter-spacing:normal;word-spacing:normal;text-transform:none;writing-mode:lr-tb;direction:ltr;baseline-shift:baseline;text-anchor:start;white-space:normal;clip-rule:nonzero;display:inline;overflow:visible;visibility:visible;isolation:auto;mix-blend-mode:normal;color-interpolation:sRGB;color-interpolation-filters:linearRGB;solid-color:#000000;solid-opacity:1;fill:#808080;fill-opacity:1;fill-rule:nonzero;stroke:none;stroke-width:4.00079;stroke-linecap:butt;stroke-linejoin:miter;stroke-miterlimit:4;stroke-dasharray:none;stroke-dashoffset:0;stroke-opacity:1;marker:none;color-rendering:auto;image-rendering:auto;shape-rendering:auto;text-rendering:auto;enable-background:accumulate"
       d="m 17.063489,2.6249985 c 1.555208,0.018212 2.692598,-0.038193 3.623048,0.4809571 0.465219,0.2595626 0.831614,0.6992375 1.035157,1.2475588 0.203596,0.5483264 0.27832,1.1994721 0.27832,2.0214847 v 5.0000009 6.25 c 0,0.822013 -0.07477,1.473142 -0.27832,2.021486 -0.20353,0.548319 -0.569938,0.987982 -1.035157,1.247557 -0.93045,0.519208 -2.067828,0.462833 -3.623048,0.480958 h -0.0049 -2.475586 -1.333008 -2.5 -1.3330081 -2.4755867 -0.00489 c -1.5552202,-0.01813 -2.6925979,0.03825 -3.623048,-0.480958 -0.4652188,-0.259575 -0.8316264,-0.69924 -1.0351564,-1.247557 -0.203545,-0.548344 -0.2783201,-1.199473 -0.2783201,-2.021486 v -6.25 -5.0000009 c 0,-0.8220126 0.074725,-1.4731583 0.2783201,-2.0214847 0.2035425,-0.5483213 0.5699376,-0.9879962 1.0351564,-1.2475588 0.9304501,-0.5191499 2.0678403,-0.4627446 3.623048,-0.4809571 h 0.00489 2.4755867 1.3330081 2.5 1.333008 2.475586 z m 3.544923,3.7500006 h -6.025392 -0.08301 v 13.7500019 h 0.08301 c 2.472134,0 4.307213,0.01953 5.224611,-0.28076 1.215648,-0.559013 0.957031,-2.21924 0.957031,-3.46924 -0.0011,-2.653965 -0.04649,-7.0962026 -0.15625,-10.0000019 z m -7.3584,0 h -2.5 -1.3330076 -6.0253922 c -0.1097625,2.9037993 -0.1551988,7.3460359 -0.1562501,10.0000009 0,1.250001 -0.2586162,2.910228 0.9570315,3.469241 0.9173976,0.300286 2.7524766,0.28076 5.2246108,0.28076 h 1.3330076 2.5 z" />
  </g>
</svg>
