<svg height="24" width="24" xmlns="http://www.w3.org/2000/svg"><path style="fill:gray;stroke:none;stroke-width:2;stroke-linecap:round;stroke-linejoin:round;stroke-dasharray:2,4" d="M16.5 11a5.5 5.5 0 0 0-5.5 5.5 5.5 5.5 0 0 0 5.5 5.5 5.5 5.5 0 0 0 5.5-5.5 5.5 5.5 0 0 0-5.5-5.5zm-.5 2h1v3.793l1.354 1.353.353.354-.707.707-.354-.353L16 17.207V13.5z"/><path style="line-height:normal;font-variant-ligatures:normal;font-variant-position:normal;font-variant-caps:normal;font-variant-numeric:normal;font-variant-alternates:normal;font-feature-settings:normal;text-indent:0;text-align:start;text-decoration-line:none;text-decoration-style:solid;text-decoration-color:#000;text-transform:none;text-orientation:mixed;shape-padding:0;isolation:auto;mix-blend-mode:normal;fill:gray" d="M14.309 2.041a2.756 2.756 0 0 0-.205.016l-7.21 1.125c-.812.082-.901.462-.894.935v9.52c-.413-.272-.856-.465-1.445-.465-.76 0-1.213.29-1.487.674-.274.383-.365.865-.365 1.238 0 .45.155.93.488 1.295.334.366.846.623 1.582.623.832 0 1.416-.232 1.747-.686.26-.357.405-.835.457-1.423.007-.072.01-.146.015-.221.004-.06.003-.102.004-.172H7V6.797a.723.723 0 0 1 .584-.711l5.854-.914c.56-.172.562.523.562.523v4.819a6.5 6.5 0 0 1 1-.323v-7.26c.012-.685-.14-.866-.486-.89a2.741 2.741 0 0 0-.205 0z"/></svg>