<svg height="24" width="24" xmlns="http://www.w3.org/2000/svg"><path style="color:#000;fill:gray;fill-opacity:1;-inkscape-stroke:none" d="M16 2c1.042 0 1.998.115 2.758.57a2.428 2.428 0 0 1 .906.963 2.932 2.932 0 0 1 .248.676A3.298 3.298 0 0 1 20 5v12a3.298 3.298 0 0 1-.193 1.143 2.54 2.54 0 0 1-.535.873 2.394 2.394 0 0 1-.514.414c-.76.455-1.716.57-2.758.57H7c-1.042 0-1.998-.115-2.758-.57a2.427 2.427 0 0 1-.906-.963 2.933 2.933 0 0 1-.248-.676A3.298 3.298 0 0 1 3 17V5a3.298 3.298 0 0 1 .193-1.143 2.539 2.539 0 0 1 .535-.873 2.393 2.393 0 0 1 .514-.414C5.002 2.115 5.958 2 7 2h6zm0 1H7c-.958 0-1.752.135-2.242.43C4.268 3.724 4 4.125 4 5v12c0 .875.267 1.276.758 1.57.49.295 1.284.43 2.242.43h9c.958 0 1.752-.135 2.242-.43.49-.294.758-.695.758-1.57V5c0-.875-.267-1.276-.758-1.57C17.752 3.135 16.958 3 16 3z"/><path style="color:#000;fill:gray;fill-opacity:1;-inkscape-stroke:none" d="M21 4.74c.01.007.02.012.03.02a2.393 2.393 0 0 1 .454.482 2.539 2.539 0 0 1 .323.615A3.298 3.298 0 0 1 22 7v12a3.298 3.298 0 0 1-.193 1.143 2.54 2.54 0 0 1-.535.873 2.394 2.394 0 0 1-.514.414c-.76.455-1.716.57-2.758.57H9c-1.042 0-1.998-.115-2.758-.57a2.427 2.427 0 0 1-.513-.414L5.715 21H19v-.059c.51-.065.935-.187 1.242-.37.49-.295.758-.696.758-1.571V7z"/><path d="M8 6v10s4.96-2.36 8.571-5C12.961 8.36 8 6 8 6z" color="#000" fill="gray" overflow="visible"/></svg>