<svg height="24" width="24" xmlns="http://www.w3.org/2000/svg"><path style="fill:gray;stroke-width:1" class="cls-1" d="M2 2v20h20V2H2zm13.188 3.207a2.094 2.094 0 0 1 2.093 2.094 2.094 2.094 0 0 1-2.093 2.094A2.094 2.094 0 0 1 13.094 7.3a2.094 2.094 0 0 1 2.094-2.094zm-3.038.219a6.875 6.875 0 0 1 .643.017 2.894 2.894 0 0 0-.574 1.22 4.013 4.013 0 0 0-.063.468 5.075 5.075 0 0 0-4.113 2.201 3.025 3.025 0 0 0-.95-.395 2.906 2.906 0 0 0-.624-.062h-.157a6.875 6.875 0 0 1 5.838-3.45zM17.97 8.5a6.875 6.875 0 0 1-.344 8.02 2.862 2.862 0 0 0-1-1.551 5.05 5.05 0 0 0 .656-1.625 5.138 5.138 0 0 0-.488-3.469A3.031 3.031 0 0 0 17.969 8.5zM6.489 9.793a2.094 2.094 0 0 1 2.093 2.094 2.094 2.094 0 0 1-2.094 2.093 2.094 2.094 0 0 1-2.093-2.093 2.094 2.094 0 0 1 2.093-2.094zm1.25 4.812a5.05 5.05 0 0 0 3.468 2.657 1.806 1.806 0 0 0 .512.082 2.944 2.944 0 0 0 .625 1.75 6.875 6.875 0 0 1-1.48-.157 6.794 6.794 0 0 1-4.907-4.113 3.019 3.019 0 0 0 1.781-.219zm6.98.582a2.094 2.094 0 0 1 2.094 2.094 2.094 2.094 0 0 1-2.094 2.094 2.094 2.094 0 0 1-2.094-2.094 2.094 2.094 0 0 1 2.094-2.093z"/></svg>