<svg height="24" width="24" xmlns="http://www.w3.org/2000/svg"><path style="fill:gray;stroke-width:1;fill-opacity:1" class="st0" d="M5 2v20h14.063V2H5zm9.219 7.938a1.469 1.469 0 0 1 1.469 1.468 1.469 1.469 0 0 1-1.47 1.469 1.469 1.469 0 0 1-1.468-1.469 1.469 1.469 0 0 1 1.469-1.469zm-2.035.142c.115 0 .231.005.347.014-.203.25-.344.547-.406.86a1.19 1.19 0 0 0-.047.327 3.571 3.571 0 0 0-2.89 1.547 2.083 2.083 0 0 0-.672-.265 2.232 2.232 0 0 0-.454-.047h-.109a4.863 4.863 0 0 1 4.23-2.436zm4.004 2.154a4.86 4.86 0 0 1-.25 5.672 2.095 2.095 0 0 0-.704-1.11 3.642 3.642 0 0 0 .125-3.593c.375-.234.657-.562.829-.969zm-8.125.938A1.469 1.469 0 0 1 9.53 14.64a1.469 1.469 0 0 1-1.469 1.468 1.469 1.469 0 0 1-1.468-1.468 1.469 1.469 0 0 1 1.468-1.47zm.874 3.39a3.56 3.56 0 0 0 2.454 1.875c.125.016.25.047.343.063.016.453.172.875.438 1.234a4.818 4.818 0 0 1-4.5-3.016c.422.079.875.032 1.266-.155zm4.938.407a1.469 1.469 0 0 1 1.469 1.468 1.469 1.469 0 0 1-1.469 1.47 1.469 1.469 0 0 1-1.469-1.47 1.469 1.469 0 0 1 1.469-1.468z"/></svg>