<svg height="24" width="24" xmlns="http://www.w3.org/2000/svg"><path style="fill:gray;stroke-width:1" d="M15.984 3.508a2.617 2.617 0 0 0-2.617 2.617 2.617 2.617 0 0 0 2.617 2.617 2.617 2.617 0 0 0 2.618-2.617 2.617 2.617 0 0 0-2.618-2.617zm-3.796.273A8.594 8.594 0 0 0 4.89 8.094h.195a3.633 3.633 0 0 1 .781.078 3.781 3.781 0 0 1 1.186.492 6.344 6.344 0 0 1 5.142-2.75 5.016 5.016 0 0 1 .078-.586 3.617 3.617 0 0 1 .72-1.523 8.594 8.594 0 0 0-.806-.024zm7.273 3.844a3.79 3.79 0 0 1-1.469 1.719 6.422 6.422 0 0 1 .61 4.336 6.313 6.313 0 0 1-.82 2.03 3.578 3.578 0 0 1 1.25 1.938 8.594 8.594 0 0 0 .429-10.023zM5.109 9.242a2.617 2.617 0 0 0-2.617 2.617 2.617 2.617 0 0 0 2.617 2.618 2.617 2.617 0 0 0 2.618-2.618 2.617 2.617 0 0 0-2.618-2.617zm1.563 6.016a3.773 3.773 0 0 1-2.227.271 8.492 8.492 0 0 0 6.133 5.143 8.594 8.594 0 0 0 1.852.195 3.68 3.68 0 0 1-.782-2.187 2.258 2.258 0 0 1-.64-.102 6.313 6.313 0 0 1-4.336-3.32zm8.726.726a2.617 2.617 0 0 0-2.617 2.618 2.617 2.617 0 0 0 2.617 2.617 2.617 2.617 0 0 0 2.618-2.617 2.617 2.617 0 0 0-2.618-2.618z"/></svg>