<?xml version="1.0" encoding="UTF-8" standalone="no"?>
<svg viewBox="0 1 24 24" height="24" width="24" version="1.1" id="svg4" sodipodi:docname="2g.svg" inkscape:version="1.1.1 (eb90963e84, 2021-10-02)"
   xmlns:inkscape="http://www.inkscape.org/namespaces/inkscape"
   xmlns:sodipodi="http://sodipodi.sourceforge.net/DTD/sodipodi-0.dtd"
   xmlns="http://www.w3.org/2000/svg"
   xmlns:svg="http://www.w3.org/2000/svg"
   xmlns:rdf="http://www.w3.org/1999/02/22-rdf-syntax-ns#"
   xmlns:cc="http://creativecommons.org/ns#"
   xmlns:dc="http://purl.org/dc/elements/1.1/">
   <metadata id="metadata10">
      <rdf:RDF>
         <cc:Work rdf:about="">
            <dc:format>image/svg+xml</dc:format>
            <dc:type rdf:resource="http://purl.org/dc/dcmitype/StillImage" />
         </cc:Work>
      </rdf:RDF>
   </metadata>
   <defs id="defs8" />
   <sodipodi:namedview pagecolor="#ffffff" bordercolor="#666666" borderopacity="1" objecttolerance="10" gridtolerance="10" guidetolerance="10" inkscape:pageopacity="0" inkscape:pageshadow="2" inkscape:window-width="1920" inkscape:window-height="1016" id="namedview6" showgrid="false" inkscape:zoom="19.445436" inkscape:cx="17.20198" inkscape:cy="10.208051" inkscape:window-x="0" inkscape:window-y="27" inkscape:window-maximized="1" inkscape:current-layer="svg4" inkscape:pagecheckerboard="0" />
   <path id="path2" style="line-height:125%;-inkscape-font-specification:Ubuntu;text-align:center;fill:#808080;fill-opacity:1;stroke-width:1" d="m 5.3911133,4.0006346 c -1.3225,-0.01625 -2.2097656,0.2801368 -2.6660156,0.8276368 -0.47875,0.57 -0.7250977,1.5051757 -0.7250977,2.8051757 v 7.7343739 c 0,1.3 0.2463477,2.235177 0.7250977,2.805177 0.4562499,0.5475 1.3435156,0.827636 2.6660156,0.827636 h 13.2177727 c 1.3225,0 2.212208,-0.280136 2.668458,-0.827636 0.47875,-0.57 0.722656,-1.505177 0.722656,-2.805177 v -7.7343739 c 0,-1.3 -0.243906,-2.2351757 -0.722656,-2.8051757 -0.45625,-0.5475 -1.345958,-0.8276368 -2.668458,-0.8276368 z m 2.4438477,3.2788086 c 0.4744443,0 0.8833638,0.054685 1.2255859,0.1635742 0.3422221,0.1088887 0.622066,0.2640865 0.8398437,0.4663086 0.2255554,0.1944444 0.3896114,0.4348786 0.4907224,0.7226562 0.108889,0.2799999 0.161133,0.5992537 0.161133,0.9570312 0,0.295556 -0.05667,0.5798286 -0.17334,0.8520506 -0.116666,0.272222 -0.269876,0.53679 -0.4565428,0.793457 -0.1866666,0.248889 -0.3965495,0.489323 -0.6298827,0.722656 -0.2333333,0.233333 -0.4629211,0.456504 -0.6884766,0.666504 -0.1166663,0.108889 -0.2433008,0.231094 -0.3833008,0.371094 -0.1322221,0.132222 -0.2612977,0.270156 -0.3857421,0.410156 -0.124445,0.14 -0.2382445,0.271063 -0.3393555,0.395508 -0.093334,0.116666 -0.1500065,0.215191 -0.1733399,0.292969 h 3.4765624 v 1.457518 h -5.3906249 c -0.015555,-0.08555 -0.024414,-0.194926 -0.024414,-0.327147 v -0.278321 c 0,-0.373333 0.059115,-0.71672 0.1757812,-1.027832 0.124445,-0.311111 0.2840713,-0.599813 0.4785158,-0.864258 0.1944443,-0.272222 0.4131857,-0.523502 0.6542967,-0.756836 0.2488889,-0.233333 0.4937524,-0.46735 0.7348634,-0.700683 0.1866666,-0.178889 0.361569,-0.344933 0.5249024,-0.500488 0.1633332,-0.163333 0.3076845,-0.320972 0.4321288,-0.46875 0.124445,-0.155556 0.2205274,-0.306324 0.2905274,-0.454102 0.07,-0.155555 0.10498,-0.3107526 0.10498,-0.4663076 0,-0.3422225 -0.096082,-0.5826567 -0.2905274,-0.7226567 -0.1944443,-0.1399998 -0.4373198,-0.2099608 -0.7250976,-0.2099608 -0.2099999,0 -0.4065951,0.03498 -0.5932616,0.10498 -0.1788889,0.062223 -0.3473743,0.1386002 -0.5029298,0.2319335 -0.1477777,0.085555 -0.2768533,0.1752213 -0.3857422,0.2685547 -0.1088888,0.085555 -0.1896961,0.1555163 -0.2441405,0.2099613 l -0.8642579,-1.2133793 c 0.3422221,-0.3188887 0.7402953,-0.5790279 1.1914063,-0.78125 0.4588887,-0.2099999 0.9486156,-0.3149414 1.4697269,-0.3149409 z m 8.190918,0 c 0.381111,0 0.722057,0.026122 1.025391,0.080566 0.31111,0.046666 0.575679,0.1057812 0.793456,0.1757812 0.225556,0.062222 0.409316,0.1277539 0.549316,0.1977539 0.147779,0.07 0.25272,0.124685 0.314943,0.1635743 l -0.524902,1.4599608 c -0.248889,-0.1322221 -0.537592,-0.2460221 -0.864259,-0.3393553 -0.318889,-0.1011113 -0.668694,-0.1513673 -1.049804,-0.1513673 -0.847777,0 -1.462151,0.236005 -1.843262,0.7104496 -0.373333,0.4666656 -0.559082,1.1096026 -0.559082,1.9262686 0,0.396667 0.04583,0.757318 0.13916,1.083985 0.09333,0.318888 0.233255,0.594303 0.419922,0.827636 0.186667,0.233334 0.420683,0.417095 0.700683,0.549317 0.28,0.124445 0.605672,0.187988 0.979004,0.187988 0.202223,0 0.372696,-0.0044 0.512695,-0.01225 0.147779,-0.0077 0.276854,-0.02305 0.385743,-0.04639 v -2.8125 h 1.82129 v 4.001465 c -0.217779,0.08555 -0.570025,0.175221 -1.052247,0.268554 -0.482222,0.101112 -1.076891,0.151367 -1.784668,0.151367 -0.606667,0 -1.157495,-0.0941 -1.655274,-0.280761 -0.489999,-0.186668 -0.909765,-0.457653 -1.259765,-0.81543 -0.35,-0.357778 -0.623427,-0.797249 -0.817871,-1.31836 -0.186667,-0.52111 -0.280762,-1.115779 -0.280762,-1.784668 0,-0.676666 0.104941,-1.275764 0.314941,-1.7968746 0.21,-0.5211105 0.498703,-0.9605813 0.864258,-1.318359 0.365556,-0.3655553 0.79418,-0.6409701 1.28418,-0.8276367 0.497778,-0.1866665 1.026914,-0.2807616 1.586914,-0.2807616 z" />
</svg>
