<?xml version="1.0" encoding="UTF-8" standalone="no"?>
<svg
   height="24"
   width="24"
   version="1.1"
   id="svg4"
   sodipodi:docname="gprs.svg"
   inkscape:version="1.1.1 (eb90963e84, 2021-10-02)"
   xmlns:inkscape="http://www.inkscape.org/namespaces/inkscape"
   xmlns:sodipodi="http://sodipodi.sourceforge.net/DTD/sodipodi-0.dtd"
   xmlns="http://www.w3.org/2000/svg"
   xmlns:svg="http://www.w3.org/2000/svg">
  <defs
     id="defs8" />
  <sodipodi:namedview
     id="namedview6"
     pagecolor="#ffffff"
     bordercolor="#666666"
     borderopacity="1.0"
     inkscape:pageshadow="2"
     inkscape:pageopacity="0.0"
     inkscape:pagecheckerboard="0"
     showgrid="false"
     inkscape:zoom="56"
     inkscape:cx="7.9910714"
     inkscape:cy="8.0089286"
     inkscape:window-width="1920"
     inkscape:window-height="1016"
     inkscape:window-x="0"
     inkscape:window-y="27"
     inkscape:window-maximized="1"
     inkscape:current-layer="svg4" />
  <path
     d="m 5.39125,4.0006348 c -1.3225,-0.01625 -2.21,0.28 -2.66625,0.8275 -0.47875,0.57 -0.725,1.505 -0.725,2.805 v 7.7350002 c 0,1.3 0.24625,2.235 0.725,2.805 0.45625,0.5475 1.34375,0.8275 2.66625,0.8275 h 13.2175 c 1.3225,0 2.2125,-0.28 2.66875,-0.8275 0.47875,-0.57 0.7225,-1.505 0.7225,-2.805 v -7.7350002 c 0,-1.3 -0.24375,-2.235 -0.7225,-2.805 -0.45625,-0.5475 -1.34625,-0.8275 -2.66875,-0.8275 z m 7.23375,3.2875 c 0.38125,0 0.7225,0.0275 1.025,0.08125 0.3125,0.0475 0.575,0.10625 0.79375,0.175 0.225,0.0625 0.41,0.12875 0.55,0.2 0.1475,0.06875 0.2525,0.12375 0.31375,0.1625 l -0.525,1.46 a 4.45,4.45 0 0 0 -0.8625,-0.34 3.4575,3.4575 0 0 0 -1.05,-0.15 c -0.84875,0 -1.4625,0.235 -1.84375,0.71 -0.37375,0.4662502 -0.56,1.1087502 -0.56,1.9250002 0,0.3975 0.04625,0.75875 0.14,1.085 0.0925,0.31875 0.2325,0.59375 0.42,0.8275 0.1875,0.23375 0.42,0.4175 0.7,0.55 0.28,0.12375 0.60625,0.1875 0.97875,0.1875 0.2025,0 0.37375,-0.005 0.5125,-0.0125 0.14875,-0.0075 0.2775,-0.0225 0.3875,-0.04625 v -2.8125 h 1.82 v 4.00125 c -0.2175,0.085 -0.57,0.175 -1.0525,0.26875 -0.48125,0.1 -1.07625,0.15 -1.78375,0.15 -0.6075,0 -1.1575,-0.0925 -1.65625,-0.28 a 3.4575,3.4575 0 0 1 -1.25875,-0.815 3.7125,3.7125 0 0 1 -0.81875,-1.31875 5.2725,5.2725 0 0 1 -0.28,-1.78375 c 0,-0.6775 0.105,-1.27625 0.315,-1.7975002 0.21,-0.52125 0.49875,-0.96 0.86375,-1.31875 a 3.6125,3.6125 0 0 1 1.28375,-0.8275 c 0.49875,-0.1875 1.0275,-0.28 1.5875,-0.28 z"
     style="line-height:125%;-inkscape-font-specification:Ubuntu;text-align:center;stroke-width:1"
     font-weight="400"
     font-size="15px"
     font-family="Ubuntu"
     letter-spacing="0"
     word-spacing="0"
     text-anchor="middle"
     fill="#808080"
     id="path2" />
</svg>
