<?xml version="1.0" encoding="UTF-8" standalone="no"?>
<svg
   height="24"
   width="24"
   version="1.1"
   id="svg8"
   sodipodi:docname="signal-ok-secure.svg"
   inkscape:version="1.1.1 (eb90963e84, 2021-10-02)"
   xmlns:inkscape="http://www.inkscape.org/namespaces/inkscape"
   xmlns:sodipodi="http://sodipodi.sourceforge.net/DTD/sodipodi-0.dtd"
   xmlns="http://www.w3.org/2000/svg"
   xmlns:svg="http://www.w3.org/2000/svg">
  <defs
     id="defs12" />
  <sodipodi:namedview
     id="namedview10"
     pagecolor="#ffffff"
     bordercolor="#666666"
     borderopacity="1.0"
     inkscape:pageshadow="2"
     inkscape:pageopacity="0.0"
     inkscape:pagecheckerboard="0"
     showgrid="true"
     inkscape:zoom="28"
     inkscape:cx="13.553571"
     inkscape:cy="13.821429"
     inkscape:window-width="1920"
     inkscape:window-height="1043"
     inkscape:window-x="1920"
     inkscape:window-y="0"
     inkscape:window-maximized="1"
     inkscape:current-layer="svg8">
    <inkscape:grid
       type="xygrid"
       id="grid829" />
    <inkscape:grid
       type="xygrid"
       id="grid831"
       dotted="true"
       spacingx="0.5"
       spacingy="0.5"
       empspacing="10" />
  </sodipodi:namedview>
  <path
     id="path862"
     style="color:#000000;fill:#808080;-inkscape-stroke:none"
     d="M 21 2.2929688 L 20.146484 3.1464844 L 2.2929688 21 L 14 21 L 14 20 L 14 17 L 14 10.707031 L 20 4.7070312 L 20 12.275391 C 20.382432 12.426863 20.72004 12.634737 21 12.884766 L 21 2.2929688 z " />
  <path
     id="rect872"
     style="fill:#808080;fill-opacity:1;fill-rule:evenodd;stroke:none;stroke-width:0.5;stroke-linecap:round;stroke-linejoin:round"
     d="m 18.5,13 c -0.86111,0 -1.509235,0.302204 -1.916016,0.708984 -0.40678,0.406781 -0.583984,0.87435 -0.583984,1.291016 v 2 h -1 v 5 h 7 v -5 h -1 v -2 c 0,-0.416666 -0.177204,-0.884235 -0.583984,-1.291016 -0.406781,-0.40678 -1.054906,-0.708984 -1.916016,-0.708984 z m 0,1 c 0.638888,0 0.990765,0.197797 1.208984,0.416016 0.218219,0.218219 0.291016,0.500651 0.291016,0.583984 v 2 h -3 v -2 c 0,-0.08333 0.0728,-0.365765 0.291016,-0.583984 0.218219,-0.218219 0.570096,-0.416016 1.208984,-0.416016 z" />
</svg>
