<?xml version="1.0" encoding="UTF-8" standalone="no"?>
<svg
   viewBox="0 0 24 24"
   version="1.1"
   id="svg10"
   sodipodi:docname="idle.svg"
   inkscape:version="1.2 (1:1.2.1+202207142221+cd75a1ee6d)"
   width="24"
   height="24"
   xmlns:inkscape="http://www.inkscape.org/namespaces/inkscape"
   xmlns:sodipodi="http://sodipodi.sourceforge.net/DTD/sodipodi-0.dtd"
   xmlns="http://www.w3.org/2000/svg"
   xmlns:svg="http://www.w3.org/2000/svg"
   xmlns:rdf="http://www.w3.org/1999/02/22-rdf-syntax-ns#"
   xmlns:cc="http://creativecommons.org/ns#"
   xmlns:dc="http://purl.org/dc/elements/1.1/">
  <metadata
     id="metadata16">
    <rdf:RDF>
      <cc:Work
         rdf:about="">
        <dc:format>image/svg+xml</dc:format>
        <dc:type
           rdf:resource="http://purl.org/dc/dcmitype/StillImage" />
      </cc:Work>
    </rdf:RDF>
  </metadata>
  <defs
     id="defs14" />
  <sodipodi:namedview
     pagecolor="#ffffff"
     bordercolor="#666666"
     borderopacity="1"
     objecttolerance="10"
     gridtolerance="10"
     guidetolerance="10"
     inkscape:pageopacity="0"
     inkscape:pageshadow="2"
     inkscape:window-width="1850"
     inkscape:window-height="1016"
     id="namedview12"
     showgrid="true"
     inkscape:zoom="25.673828"
     inkscape:cx="4.1676683"
     inkscape:cy="12.132978"
     inkscape:window-x="0"
     inkscape:window-y="0"
     inkscape:window-maximized="1"
     inkscape:current-layer="svg10"
     inkscape:pagecheckerboard="0"
     inkscape:showpageshadow="2"
     inkscape:deskcolor="#d1d1d1">
    <inkscape:grid
       type="xygrid"
       id="grid841" />
    <inkscape:grid
       type="xygrid"
       id="grid829"
       dotted="true"
       spacingx="0.5"
       spacingy="0.5"
       empspacing="10" />
  </sodipodi:namedview>
  <path
     id="path864"
     style="color:#000000;fill:#808080;fill-opacity:1;-inkscape-stroke:none"
     d="m 4.7871094,3.0000001 c -0.6769451,0.0056 -1.2506027,0.04815 -1.7597656,0.302734 c -0.3394421,0.169721 -0.6300056,0.462434 -0.796875,0.837891 c -0.1668698,0.375456 -0.2304688,0.817709 -0.2304688,1.359375 v 9.9999999 c 0,0.541665 0.063599,0.983918 0.2304688,1.359375 c 0.1668694,0.375457 0.4574329,0.668169 0.796875,0.837891 c 0.6788839,0.339441 1.4726582,0.302734 2.4726562,0.302734 h 6.769531 l 3.230469,3.767578 l 3.257812,-3.798828 c 0.858282,0.0028 1.606734,0.03257 2.214844,-0.271484 c 0.339443,-0.169722 0.630005,-0.462434 0.796875,-0.837891 c 0.16687,-0.375457 0.230469,-0.81771 0.230469,-1.359375 v -9.9999999 c 0,-0.541666 -0.0636,-0.983919 -0.230469,-1.359375 c -0.16687,-0.375457 -0.457432,-0.66817 -0.796875,-0.837891 c -0.678884,-0.339442 -1.472658,-0.302734 -2.472656,-0.302734 h -13 c -0.2499995,0 -0.4872423,-0.0019 -0.7128906,0 z m 0.7128906,1 h 13 c 0.999998,0 1.70623,0.03671 2.027344,0.197265 c 0.160557,0.08028 0.244995,0.162568 0.328125,0.34961 c 0.08313,0.187042 0.144531,0.494792 0.144531,0.953125 v 9.9999999 c 0,0.458333 -0.0614,0.766083 -0.144531,0.953125 c -0.08313,0.187042 -0.167568,0.269331 -0.328125,0.349609 c -0.321114,0.160557 -1.027346,0.197266 -2.027344,0.197266 h -0.230469 l -2.769531,3.232422 l -2.769531,-3.232422 h -7.230469 c -0.999998,0 -1.7062299,-0.03671 -2.0273438,-0.197266 c -0.1605569,-0.08028 -0.2449951,-0.162567 -0.328125,-0.349609 c -0.08313,-0.187042 -0.1445312,-0.494792 -0.1445312,-0.953125 v -9.9999999 c 0,-0.458333 0.061401,-0.766083 0.1445312,-0.953125 c 0.08313,-0.187042 0.1675681,-0.269331 0.328125,-0.34961 c 0.3211139,-0.160557 1.0273458,-0.197265 2.0273438,-0.197265 z" />
  <path
     id="path342"
     style="fill:#808080;stroke-width:1.81818;stroke-linejoin:round;stroke-dasharray:2.72727, 2.72727"
     d="m 14.056641,5.4433594 a 5,5 0 0 1 0.443359,2.0566406 a 5,5 0 0 1 -5,5 a 5,5 0 0 1 -2.0566406,-0.443359 a 5,5 0 0 0 4.5566406,2.943359 a 5,5 0 0 0 5,-5 a 5,5 0 0 0 -2.943359,-4.5566406 z" />
</svg>
