<?xml version="1.0" encoding="UTF-8" standalone="no"?>
<svg
   viewBox="0 0 24 24"
   version="1.1"
   id="svg10"
   sodipodi:docname="text-filled.svg"
   inkscape:version="1.2 (1:1.2.1+202207142221+cd75a1ee6d)"
   width="24"
   height="24"
   xmlns:inkscape="http://www.inkscape.org/namespaces/inkscape"
   xmlns:sodipodi="http://sodipodi.sourceforge.net/DTD/sodipodi-0.dtd"
   xmlns="http://www.w3.org/2000/svg"
   xmlns:svg="http://www.w3.org/2000/svg"
   xmlns:rdf="http://www.w3.org/1999/02/22-rdf-syntax-ns#"
   xmlns:cc="http://creativecommons.org/ns#"
   xmlns:dc="http://purl.org/dc/elements/1.1/">
  <metadata
     id="metadata16">
    <rdf:RDF>
      <cc:Work
         rdf:about="">
        <dc:format>image/svg+xml</dc:format>
        <dc:type
           rdf:resource="http://purl.org/dc/dcmitype/StillImage" />
      </cc:Work>
    </rdf:RDF>
  </metadata>
  <defs
     id="defs14" />
  <sodipodi:namedview
     pagecolor="#ffffff"
     bordercolor="#666666"
     borderopacity="1"
     objecttolerance="10"
     gridtolerance="10"
     guidetolerance="10"
     inkscape:pageopacity="0"
     inkscape:pageshadow="2"
     inkscape:window-width="1920"
     inkscape:window-height="1016"
     id="namedview12"
     showgrid="true"
     inkscape:zoom="19.445436"
     inkscape:cx="-2.1084639"
     inkscape:cy="9.3852357"
     inkscape:window-x="0"
     inkscape:window-y="0"
     inkscape:window-maximized="1"
     inkscape:current-layer="svg10"
     inkscape:pagecheckerboard="0"
     inkscape:showpageshadow="2"
     inkscape:deskcolor="#d1d1d1">
    <inkscape:grid
       type="xygrid"
       id="grid841" />
  </sodipodi:namedview>
  <path
     id="path864"
     style="color:#000000;fill:#808080;fill-opacity:1;-inkscape-stroke:none"
     d="m 19.212891,3 c -0.225649,-0.00186 -0.462891,0.00195 -0.712891,0.00195 h -13 c -0.2499995,0 -0.4872423,-0.0019 -0.7128906,0 -0.6769451,0.0056 -1.2506028,0.04815 -1.7597656,0.3027344 -0.3394421,0.1697218 -0.6300056,0.462434 -0.796875,0.8378906 -0.1668699,0.3754566 -0.2304688,0.8177095 -0.2304688,1.359375 v 10 c 0,0.541666 0.063599,0.983919 0.2304688,1.359375 0.1668694,0.375457 0.4574329,0.668169 0.796875,0.837891 0.6788838,0.339441 1.4726582,0.302734 2.4726562,0.302734 h 6.769531 l 3.230469,3.767578 3.257812,-3.798828 c 0.858282,0.0028 1.606734,0.03257 2.214844,-0.271484 0.339443,-0.169722 0.630005,-0.462434 0.796875,-0.837891 0.16687,-0.375456 0.230469,-0.817709 0.230469,-1.359375 v -10 c 0,-0.5416655 -0.0636,-0.9839184 -0.230469,-1.359375 -0.16687,-0.3754566 -0.457432,-0.6681688 -0.796875,-0.8378906 -0.509162,-0.2545812 -1.082821,-0.2991003 -1.759765,-0.3046875 z m -13.212891,4 h 12 v 1 h -12 z m 0,2 h 12 v 1 h -12 z m 0,2 h 5 v 1 h -5 z"
     sodipodi:nodetypes="cssccsssssscccssssssscccccccccccccccc" />
</svg>
