<svg height="24" width="24" xmlns="http://www.w3.org/2000/svg"><path d="M22 10h-1.863c-.656.5-1.328 1.045-2.03 1.525a40.964 40.964 0 0 1-2.726 1.715 49.138 49.138 0 0 1-3.127 1.606l-.254.12-.254-.12A49.01 49.01 0 0 1 8.62 13.24a41.051 41.051 0 0 1-2.725-1.714C5.19 11.045 4.519 10.5 3.862 10H2c1.093.863 2.196 1.746 3.32 2.51 1.25.85 2.465 1.61 3.64 2.283 1.085.62 2.217 1.087 3.04 1.457.823-.371 1.955-.838 3.04-1.458a55.996 55.996 0 0 0 3.64-2.282c1.125-.762 2.227-1.646 3.32-2.51z" fill="gray" style="stroke-width:1"/><circle style="fill:gray;stroke:none;stroke-width:4;stroke-linejoin:round" cx="12" cy="20" r="1"/></svg>