<svg height="24" width="24" xmlns="http://www.w3.org/2000/svg"><path d="M22 10c-1.093.863-2.196 1.746-3.32 2.51a56.146 56.146 0 0 1-3.64 2.281c-1.085.621-2.217 1.088-3.04 1.459-.822-.371-1.955-.838-3.04-1.459a56.024 56.024 0 0 1-3.64-2.281C4.195 11.748 3.092 10.864 2 10h1.863c.654.5 1.327 1.046 2.03 1.528A41.449 41.449 0 0 0 8.62 13.24c.944.541 2.24 1.188 3.125 1.606h.001l.255.12.254-.12a48.473 48.473 0 0 0 3.126-1.606 41.475 41.475 0 0 0 2.726-1.713c.703-.48 1.375-1.027 2.031-1.527z" fill="gray" style="stroke-width:1"/></svg>