<svg height="24" width="24" xmlns="http://www.w3.org/2000/svg"><path d="M14 2.069c-.863 1.092-1.746 2.196-2.51 3.32a55.645 55.645 0 0 0-2.283 3.64c-.62 1.085-1.087 2.217-1.457 3.04.371.822.838 1.955 1.458 3.04a56.525 56.525 0 0 0 2.282 3.64c.762 1.125 1.646 2.227 2.51 3.32v-1.863c-.5-.656-1.045-1.328-1.525-2.031a41.05 41.05 0 0 1-1.715-2.725 49.007 49.007 0 0 1-1.606-3.127l-.12-.254.12-.254a49.138 49.138 0 0 1 1.606-3.127 40.947 40.947 0 0 1 1.714-2.726C12.955 5.26 13.5 4.588 14 3.933z" fill="gray" style="stroke-width:1"/><circle style="fill:gray;stroke-width:4;stroke-linejoin:round" cx="4" cy="12" r="1"/></svg>