<svg height="24" width="24" xmlns="http://www.w3.org/2000/svg"><path d="M10 2v1.863c.5.656 1.045 1.328 1.525 2.03A40.458 40.458 0 0 1 13.24 8.62c.541.942 1.188 2.24 1.606 3.127l.12.254-.12.254a49.138 49.138 0 0 1-1.606 3.127 41.05 41.05 0 0 1-1.714 2.725c-.481.703-1.026 1.375-1.526 2.031V22c.863-1.093 1.746-2.196 2.51-3.32.85-1.25 1.61-2.465 2.283-3.64.62-1.085 1.087-2.217 1.457-3.04-.371-.822-.838-1.955-1.457-3.04a55.995 55.995 0 0 0-2.283-3.64C11.748 4.195 10.864 3.092 10 2z" fill="gray" style="stroke-width:1"/><circle style="fill:gray;stroke-width:4;stroke-linejoin:round" cx="20" cy="12" r="1"/></svg>