<svg height="24" width="24" xmlns="http://www.w3.org/2000/svg"><path d="M10 2c.863 1.093 1.746 2.196 2.51 3.32a56.146 56.146 0 0 1 2.281 3.64c.621 1.085 1.088 2.217 1.459 3.04-.371.823-.838 1.955-1.459 3.04a56.02 56.02 0 0 1-2.281 3.64c-.762 1.125-1.646 2.227-2.51 3.32v-1.863c.5-.655 1.046-1.327 1.528-2.03a41.449 41.449 0 0 0 1.712-2.726c.541-.944 1.188-2.24 1.606-3.125v-.001l.12-.255-.12-.254A48.885 48.885 0 0 0 13.24 8.62a41.091 41.091 0 0 0-1.713-2.726C11.047 5.19 10.5 4.519 10 3.863z" fill="gray" style="stroke-width:1"/></svg>