<svg height="24" width="24" xmlns="http://www.w3.org/2000/svg"><path d="M22 14c-1.093-.863-2.196-1.746-3.32-2.51a55.645 55.645 0 0 0-3.64-2.283C13.955 8.588 12.823 8.12 12 7.75c-.822.371-1.955.838-3.04 1.457a56.048 56.048 0 0 0-3.64 2.283C4.195 12.252 3.092 13.136 2 14h1.862c.657-.5 1.33-1.045 2.032-1.525a40.458 40.458 0 0 1 2.725-1.715 49.138 49.138 0 0 1 3.127-1.606l.254-.12.254.12c.887.418 2.185 1.065 3.127 1.606a40.947 40.947 0 0 1 2.725 1.714c.703.481 1.375 1.025 2.031 1.526z" fill="gray" style="stroke-width:1"/><circle style="fill:gray;stroke-width:4;stroke-linejoin:round" cx="12" cy="4" r="1"/></svg>