<svg height="24" width="24" xmlns="http://www.w3.org/2000/svg"><path d="M22 14c-1.093-.863-2.196-1.746-3.32-2.51a56.146 56.146 0 0 0-3.64-2.281C13.955 8.588 12.823 8.12 12 7.75c-.822.371-1.955.838-3.04 1.459a56.024 56.024 0 0 0-3.64 2.281C4.195 12.252 3.092 13.136 2 14h1.862c.655-.5 1.328-1.046 2.032-1.527a41.449 41.449 0 0 1 2.725-1.713 49.001 49.001 0 0 1 3.125-1.606h.001l.255-.12.254.12a48.473 48.473 0 0 1 3.126 1.606c.93.535 1.837 1.105 2.726 1.712.703.482 1.375 1.028 2.031 1.528z" fill="gray" style="stroke-width:1"/></svg>