<svg height="24" width="24" xmlns="http://www.w3.org/2000/svg"><path style="fill:gray;fill-opacity:1;stroke-width:.5;stroke-linecap:round;stroke-linejoin:round" d="M6 2v4h12V2H6zm0 5v.008c-1.067.03-1.98.171-2.705.633C2.459 8.173 2 9.15 2 10.5v4c0 1.35.459 2.327 1.295 2.86.725.461 1.638.602 2.705.632V18h5v1h2v-1h5v-.008c1.067-.03 1.98-.171 2.705-.633C21.541 16.827 22 15.85 22 14.5v-4c0-1.35-.459-2.327-1.295-2.86-.725-.461-1.638-.602-2.705-.632V7H6zm12 3a1 1 0 0 1 1 1 1 1 0 0 1-1 1 1 1 0 0 1-1-1 1 1 0 0 1 1-1zM7 15h10v1H7v-1zm-2 6v1h14v-1z"/></svg>