<svg height="24" width="24" xmlns="http://www.w3.org/2000/svg"><path style="fill:gray;fill-opacity:1;stroke-width:.5;stroke-linecap:round;stroke-linejoin:round" d="M6 2v5.008c-1.067.03-1.98.171-2.705.633C2.459 8.173 2 9.15 2 10.5v4c0 1.35.459 2.327 1.295 2.86.725.461 1.638.602 2.705.632V22h12v-4.008c1.067-.03 1.98-.17 2.705-.633C21.541 16.827 22 15.85 22 14.5v-4c0-1.35-.459-2.327-1.295-2.86-.725-.461-1.638-.602-2.705-.632V2zm1 1h10v4H7zm-.5 5h11c1.217 0 2.131.142 2.67.484.539.343.83.866.83 2.016v4c0 1.15-.291 1.673-.83 2.016-.462.293-1.202.439-2.17.474V15h-1v6H7v-6H6v1.99c-.968-.035-1.708-.18-2.17-.474C3.291 16.173 3 15.65 3 14.5v-4c0-1.15.291-1.673.83-2.016C4.37 8.142 5.283 8 6.5 8zM18 10a1 1 0 1 0 0 2 1 1 0 0 0 0-2z"/><path style="fill:gray;fill-opacity:1" d="M11 13v3H9.5l2.5 4 2.5-4H13v-3z"/></svg>