<svg height="24" width="24" xmlns="http://www.w3.org/2000/svg"><path style="color:#000;fill:gray;stroke-width:1px;stroke-linejoin:round;-inkscape-stroke:none;fill-opacity:1" d="M17.5 14a.5.5 0 0 0-.434.252l-4 7A.5.5 0 0 0 13.5 22h8a.5.5 0 0 0 .434-.748l-4-7A.5.5 0 0 0 17.5 14zm-.5 2h1v2l-.2 1h-.6l-.2-1v-2zm.5 4a.5.5 0 0 1 .5.5.5.5 0 0 1-.5.5.5.5 0 0 1-.5-.5.5.5 0 0 1 .5-.5z"/><path style="fill:gray;fill-opacity:1;stroke-width:.5;stroke-linecap:round;stroke-linejoin:round" d="M6 2v4h12V2zm0 5v.008c-1.067.03-1.98.171-2.705.633C2.459 8.173 2 9.15 2 10.5v4c0 1.35.459 2.327 1.295 2.86.487.31 1.06.472 1.705.556V14h11.059l.138-.244A1.504 1.504 0 0 1 17.502 13a1.5 1.5 0 0 1 1.3.756l.14.244H19v.102l1.814 3.175C21.578 16.731 22 15.787 22 14.5v-4c0-1.35-.459-2.327-1.295-2.86-.725-.461-1.638-.602-2.705-.632V7zm12 3a1 1 0 1 1 0 2 1 1 0 0 1 0-2zM6 15v7h6.12a1.446 1.446 0 0 1 .077-1.244L12.63 20H8v-1h5.201l.57-1H8v-1h6.344l1.142-2z"/></svg>