<svg height="24" width="24" xmlns="http://www.w3.org/2000/svg"><path style="fill:gray;fill-opacity:1;stroke-width:1.5;stroke-linecap:square;stroke-linejoin:round" d="M6.5 2c-.277 0-.5.223-.5.5v17c0 .542.064.984.23 1.36.167.375.458.668.797.837.68.34 1.473.303 2.473.303h4c1 0 1.794.037 2.473-.303.34-.17.63-.462.797-.838.166-.375.23-.817.23-1.359v-12c0-.542-.064-.984-.23-1.36a1.72 1.72 0 0 0-.797-.837C15.293 4.963 14.5 5 13.5 5H7V2.5c0-.277-.223-.5-.5-.5zm3 4h4c1 0 1.706.037 2.027.197.16.08.245.163.328.35.084.187.145.495.145.953v12c0 .458-.061.766-.145.953a.615.615 0 0 1-.328.35c-.32.16-1.027.197-2.027.197h-4c-1 0-1.706-.037-2.027-.197a.615.615 0 0 1-.328-.35C7.06 20.266 7 19.958 7 19.5v-12c0-.458.061-.766.145-.953a.615.615 0 0 1 .328-.35C7.793 6.037 8.5 6 9.5 6zM8 7v5h7V7zm0 6v1h1v-1zm2 0v1h1v-1zm2 0v1h1v-1zm2 0v1h1v-1zm-6 2v1h1v-1zm2 0v1h1v-1zm2 0v1h1v-1zm2 0v1h1v-1zm-6 2v1h1v-1zm2 0v1h1v-1zm2 0v1h1v-1zm2 0v1h1v-1zm-6 2v1h1v-1zm2 0v1h1v-1zm2 0v1h1v-1zm2 0v1h1v-1z"/></svg>