<svg height="24" width="24" xmlns="http://www.w3.org/2000/svg"><path d="M14 2.069c-.863 1.092-1.746 2.196-2.51 3.32a56.146 56.146 0 0 0-2.281 3.64c-.621 1.085-1.088 2.217-1.459 3.04.371.822.838 1.955 1.459 3.04a56.487 56.487 0 0 0 2.281 3.64c.762 1.125 1.646 2.227 2.51 3.32v-1.863c-.5-.655-1.046-1.327-1.528-2.031a41.056 41.056 0 0 1-1.712-2.725 48.995 48.995 0 0 1-1.606-3.125v-.001l-.12-.255.12-.254a48.473 48.473 0 0 1 1.606-3.126 41.475 41.475 0 0 1 1.712-2.726C12.954 5.26 13.5 4.588 14 3.93z" fill="gray" style="stroke-width:1"/></svg>