<svg width="24" height="24" fill="gray" xmlns="http://www.w3.org/2000/svg"><path d="m2 2 10 3.75V12zm10.375 12.125L4.5 22l5.25-10.5zm.875-7.192v6.317l4.594-4.594zm0-1.183h7.5L22 9.031z" style="stroke-width:1.25"/><path style="color:#000;fill:gray;fill-opacity:1;stroke-width:1px;stroke-linejoin:round;-inkscape-stroke:none" d="M17.5 14a.5.5 0 0 0-.433.252l-4 7a.5.5 0 0 0 .434.748h8a.5.5 0 0 0 .433-.748l-4-7a.5.5 0 0 0-.433-.252zm-.5 2h1v2l-.199 1H17.2l-.2-1zm.5 4a.5.5 0 0 1 .5.5.5.5 0 0 1-.5.5.5.5 0 0 1-.5-.5.5.5 0 0 1 .5-.5z"/></svg>