<svg height="24" width="24" xmlns="http://www.w3.org/2000/svg"><path style="color:#000;fill:gray;fill-opacity:1" d="M4.787 3c-.677.006-1.25.048-1.76.303-.34.17-.63.462-.797.838C2.064 4.516 2 4.958 2 5.5v10c0 .542.064.984.23 1.36.167.375.458.668.797.837.51.255 1.083.297 1.76.303.226.002.463 0 .713 0h6.396a1 1 0 0 1 .043-1.354l.707-.707a1 1 0 0 1 1.415 0L16 17.88l3.94-3.94a1 1 0 0 1 1.414 0l.646.647V5.5c0-.542-.064-.984-.23-1.36a1.72 1.72 0 0 0-.797-.837C20.293 2.963 19.5 3 18.5 3h-13c-.25 0-.487-.002-.713 0zm.229 3L12 10.217 18.988 6l.356.527L12 11.822 4.658 6.547z"/><path style="color:#000;fill:gray;-inkscape-stroke:none" d="M20.646 14.646 16 19.293l-2.646-2.647-.708.708L16 20.707l5.354-5.353z"/></svg>