<svg height="24" width="24" xmlns="http://www.w3.org/2000/svg"><path style="color:#000;fill:gray;fill-opacity:1" d="M7 3c-1.108 0-2 .892-2 2v5.893l7 4.215 7-4.215V5c0-1.108-.892-2-2-2zm1 3h8v1H8zm12 .041v4.884c-2.644 1.96-5.33 3.865-8 5.79-2.637-1.97-5.407-3.763-8-5.79V6.043c-.35.039-.674.11-.973.26-.34.17-.63.462-.797.838C2.064 7.516 2 7.958 2 8.5v10c0 .542.064.984.23 1.36.167.375.458.668.797.837.51.255 1.083.297 1.76.303.226.002.463 0 .713 0h13c1 0 1.794.037 2.473-.303.34-.17.63-.462.797-.838.166-.375.23-.817.23-1.359v-10c0-.542-.064-.984-.23-1.36a1.72 1.72 0 0 0-.797-.837A2.833 2.833 0 0 0 20 6.04zM8 8h8v1H8zm0 2h5v1H8z"/></svg>