<svg height="24" width="24" xmlns="http://www.w3.org/2000/svg"><path style="color:#000;fill:gray;fill-opacity:1" d="M4.787 5c-.677.006-1.25.048-1.76.303-.34.17-.63.462-.797.838C2.064 6.516 2 6.958 2 7.5v10c0 .542.064.984.23 1.36.167.375.458.668.797.837.51.255 1.083.297 1.76.303.226.002.463 0 .713 0h13c1 0 1.794.037 2.473-.303.34-.17.63-.462.797-.838.166-.375.23-.817.23-1.359V7.937A3.5 3.5 0 0 1 19.5 9a3.5 3.5 0 0 1-.701-.08L12 13.822 4.658 8.547 5.016 8 12 12.217l5.945-3.588A3.5 3.5 0 0 1 16 5.5a3.5 3.5 0 0 1 .035-.5H5.5c-.25 0-.487-.002-.713 0z"/><circle style="fill:gray;stroke-width:2;stroke-linecap:square;stroke-linejoin:round" cx="19.5" cy="5.5" r="2.5"/></svg>