<svg height="24" width="24" xmlns="http://www.w3.org/2000/svg"><path style="color:#000;fill:gray;fill-opacity:1" d="M8 2v1h1V2zm1 1v1H8V3H7c-1.042 0-1.998.115-2.758.57C3.482 4.026 3 4.875 3 6v2.283c.18-.198.381-.371.605-.515C4.635 7.106 5.972 7 7.5 7h9c1.539 0 2.89.163 3.914.848.216.144.411.313.586.506V6c0-1.125-.483-1.974-1.242-2.43C18.998 3.115 18.042 3 17 3h-1v1h-1V3zm6 0h1V2h-1zM7.5 8c-1.472 0-2.634.144-3.355.607C3.423 9.071 3 9.845 3 11.5V18a3.299 3.299 0 0 0 .193 1.143 2.54 2.54 0 0 0 .535.873 2.394 2.394 0 0 0 .514.414c.76.455 1.716.57 2.758.57h6.268A5.5 5.5 0 0 1 12 17.5a5.5 5.5 0 0 1 5.5-5.5 5.5 5.5 0 0 1 3.5 1.258v-1.762c.013-1.547-.41-2.328-1.143-2.818C19.124 8.188 17.961 8 16.5 8z"/><path style="fill:gray;fill-opacity:1;stroke-width:.5;stroke-linecap:round;stroke-linejoin:round" d="M17.5 13a4.5 4.5 0 1 0 0 9 4.5 4.5 0 0 0 0-9zm-.5 2h1v2l-.2 1h-.6l-.2-1v-2zm.5 4a.5.5 0 0 1 .5.5.5.5 0 0 1-.5.5.5.5 0 0 1-.5-.5.5.5 0 0 1 .5-.5z"/></svg>