<svg height="24" width="24" xmlns="http://www.w3.org/2000/svg"><path style="color:#000;fill:gray;-inkscape-stroke:none;fill-opacity:1" d="M8 2v1h1V2zm1 1v1H8V3H7c-1.042 0-1.998.115-2.758.57C3.482 4.026 3 4.875 3 6v12a3.299 3.299 0 0 0 .193 1.143 2.54 2.54 0 0 0 .535.873 2.394 2.394 0 0 0 .514.414c.76.455 1.716.57 2.758.57h10c1.042 0 1.998-.115 2.758-.57a2.426 2.426 0 0 0 .906-.963 2.932 2.932 0 0 0 .248-.676A3.3 3.3 0 0 0 21 18V6c0-1.125-.483-1.974-1.242-2.43C18.998 3.115 18.042 3 17 3h-1v1h-1V3zm6 0h1V2h-1zM7 8h10c.958 0 1.752.135 2.242.43.49.294.758.695.758 1.57v8c0 .875-.267 1.276-.758 1.57-.49.295-1.284.43-2.242.43H7c-.958 0-1.752-.135-2.242-.43C4.268 19.276 4 18.875 4 18v-8c0-.875.267-1.276.758-1.57C5.248 8.135 6.042 8 7 8z"/><path style="fill:gray;stroke:none;stroke-linecap:round;stroke-linejoin:round" d="M8 10h2v2H8zm3 0h2v2h-2zm3 0h2v2h-2zm-6 3h2v2H8zm3 0h2v2h-2zm3 0h2v2h-2zm-6 3h2v2H8zm3 0h2v2h-2z"/></svg>