<svg height="24" width="24" xmlns="http://www.w3.org/2000/svg"><path style="color:#000;fill:gray;fill-opacity:1" d="M8 2v1h1V2zm1 1v1H8V3H7c-1.042 0-1.998.115-2.758.57C3.482 4.026 3 4.875 3 6v2.283c.18-.198.381-.371.605-.515C4.635 7.106 5.972 7 7.5 7h9c1.539 0 2.89.163 3.914.848.216.144.411.313.586.506V6c0-1.125-.483-1.974-1.242-2.43C18.998 3.115 18.042 3 17 3h-1v1h-1V3zm6 0h1V2h-1zM7.5 8c-1.472 0-2.634.144-3.355.607C3.423 9.071 3 9.845 3 11.5V18a3.299 3.299 0 0 0 .193 1.143 2.54 2.54 0 0 0 .535.873 2.394 2.394 0 0 0 .514.414c.76.455 1.716.57 2.758.57h5.09a1.38 1.38 0 0 1 .107-.244l4-7A1.504 1.504 0 0 1 17.498 13h.002a1.5 1.5 0 0 1 1.3.756l2.2 3.85v-6.11c.013-1.547-.41-2.328-1.143-2.818C19.124 8.188 17.961 8 16.5 8z"/><path style="color:#000;fill:gray;fill-opacity:1;stroke-width:1px;stroke-linejoin:round;-inkscape-stroke:none" d="M17.5 14a.5.5 0 0 0-.434.252l-4 7a.5.5 0 0 0 .433.748h8a.5.5 0 0 0 .434-.748l-4-7a.5.5 0 0 0-.434-.252zm-.5 2h1v2l-.2 1h-.6l-.2-1zm.5 4a.5.5 0 0 1 .5.5.5.5 0 0 1-.5.5.5.5 0 0 1-.5-.5.5.5 0 0 1 .5-.5z"/></svg>