<svg height="24" width="24" xmlns="http://www.w3.org/2000/svg"><g color="#000" fill="gray"><path style="color:#000;fill:gray;fill-opacity:1" d="M5.455 3.002c-.968.009-1.718.073-2.338.445-.413.248-.72.656-.888 1.162C2.059 5.116 2 5.724 2 6.502v.5h20v-.5c0-.778-.06-1.386-.229-1.893-.168-.506-.475-.914-.888-1.162-.827-.496-1.883-.445-3.383-.445h-11c-.375 0-.722-.003-1.045 0zM2 8.002v9.5c0 .778.06 1.386.229 1.893.168.506.475.914.888 1.162.827.496 1.883.445 3.383.445H14V14h8V8.002H2z"/><path style="fill:gray;stroke-linecap:round;fill-opacity:1" d="M18 15v3h-3v1h3v3h1v-3h3v-1h-3v-3h-1z"/></g></svg>