<?xml version="1.0" encoding="UTF-8" standalone="no"?>
<svg
   viewBox="0 0 24 24"
   height="24"
   width="24"
   version="1.1"
   id="svg8"
   sodipodi:docname="new-filled.svg"
   inkscape:version="1.2 (1:1.2.1+202207142221+cd75a1ee6d)"
   xmlns:inkscape="http://www.inkscape.org/namespaces/inkscape"
   xmlns:sodipodi="http://sodipodi.sourceforge.net/DTD/sodipodi-0.dtd"
   xmlns="http://www.w3.org/2000/svg"
   xmlns:svg="http://www.w3.org/2000/svg"
   xmlns:rdf="http://www.w3.org/1999/02/22-rdf-syntax-ns#"
   xmlns:cc="http://creativecommons.org/ns#"
   xmlns:dc="http://purl.org/dc/elements/1.1/">
  <metadata
     id="metadata14">
    <rdf:RDF>
      <cc:Work
         rdf:about="">
        <dc:format>image/svg+xml</dc:format>
        <dc:type
           rdf:resource="http://purl.org/dc/dcmitype/StillImage" />
      </cc:Work>
    </rdf:RDF>
  </metadata>
  <defs
     id="defs12" />
  <sodipodi:namedview
     pagecolor="#ffffff"
     bordercolor="#666666"
     borderopacity="1"
     objecttolerance="10"
     gridtolerance="10"
     guidetolerance="10"
     inkscape:pageopacity="0"
     inkscape:pageshadow="2"
     inkscape:window-width="1920"
     inkscape:window-height="1043"
     id="namedview10"
     showgrid="true"
     inkscape:snap-global="true"
     showguides="true"
     inkscape:guide-bbox="true"
     inkscape:zoom="32.000001"
     inkscape:cx="8.4999997"
     inkscape:cy="12.3125"
     inkscape:window-x="0"
     inkscape:window-y="0"
     inkscape:window-maximized="1"
     inkscape:current-layer="g6"
     showborder="true"
     inkscape:document-rotation="0"
     inkscape:pagecheckerboard="0"
     inkscape:snap-page="true"
     inkscape:showpageshadow="2"
     inkscape:deskcolor="#d1d1d1">
    <inkscape:grid
       type="xygrid"
       id="grid3353" />
  </sodipodi:namedview>
  <g
     color="#000000"
     fill="#808080"
     id="g6">
    <path
       id="path347"
       style="color:#000000;fill:#808080;fill-opacity:1"
       d="M 5.4550781 3.0019531 C 4.4865002 3.0109331 3.7372573 3.0752235 3.1171875 3.4472656 C 2.7038076 3.6952937 2.3972493 4.1031746 2.2285156 4.609375 C 2.0597823 5.1155754 2 5.7241785 2 6.5019531 L 2 7.0019531 L 22 7.0019531 L 22 6.5019531 C 22 5.7241785 21.94022 5.1155754 21.771484 4.609375 C 21.602753 4.1031746 21.296194 3.6952937 20.882812 3.4472656 C 20.056054 2.9512098 18.999995 3.0019531 17.5 3.0019531 L 6.5 3.0019531 C 6.1250016 3.0019531 5.7779375 2.9989631 5.4550781 3.0019531 z M 2 8.0019531 L 2 17.501953 C 2 18.279727 2.0597822 18.888332 2.2285156 19.394531 C 2.3972493 19.900733 2.7038076 20.308612 3.1171875 20.556641 C 3.9439473 21.052696 5.000006 21.001953 6.5 21.001953 L 14 21.001953 L 14 14 L 22 14 L 22 8.0019531 L 2 8.0019531 z " />
    <g
       transform="matrix(1.2496949,0,0,1.2496949,-87.9741,-223.56578)"
       style="display:inline;stroke-width:0.800195;fill:#ffff00"
       id="g3340" />
    <path
       id="rect961"
       style="fill:#808080;fill-rule:evenodd;stroke-linecap:round;fill-opacity:1"
       d="M 18 15 L 18 18 L 15 18 L 15 19 L 18 19 L 18 22 L 19 22 L 19 19 L 22 19 L 22 18 L 19 18 L 19 15 L 18 15 z " />
  </g>
</svg>
