<svg height="24" width="24" xmlns="http://www.w3.org/2000/svg"><g color="#000" fill="gray"><path style="color:#000;fill:gray;fill-opacity:1;-inkscape-stroke:none" d="M5.455 3c-.969.009-1.718.073-2.338.445-.413.248-.72.656-.888 1.162C2.059 5.114 2 5.722 2 6.5v11c0 .778.06 1.386.229 1.893.168.506.475.914.888 1.162C3.944 21.05 5 21 6.5 21H14v-1H6.5c-1.5 0-2.444-.05-2.867-.305-.212-.127-.343-.281-.455-.619C3.065 18.74 3 18.222 3 17.5V7h18v7h1V6.5c0-.778-.06-1.386-.229-1.893-.168-.506-.475-.914-.888-1.162C20.056 2.95 19 3 17.5 3h-11c-.375 0-.722-.003-1.045 0z"/><path style="fill:gray;stroke-linecap:round;fill-opacity:1" d="M18 15v3h-3v1h3v3h1v-3h3v-1h-3v-3h-1z"/></g></svg>