<svg height="24" width="24" xmlns="http://www.w3.org/2000/svg"><path style="color:#000;fill:gray;stroke-width:.8;marker:none" d="M9.002 3.4V6H5.5c-.375 0 .278-.003-.045 0-.968.009-1.718.073-2.338.445-.413.248-.72.656-.888 1.162C2.059 8.114 2 8.722 2 9.5v8c0 .778.06 1.386.229 1.893.168.506.475.914.888 1.162C3.944 21.05 5 21 6.5 21h11c1.5 0 2.556.05 3.383-.445.413-.248.72-.656.888-1.162.17-.507.229-1.115.229-1.893v-8c0-.778-.06-1.386-.229-1.893-.168-.506-.475-.914-.888-1.162C20.056 5.95 19 6 17.5 6H16v1h1.5c1.5 0 2.444.05 2.867.305.212.127.343.281.455.619.113.337.178.854.178 1.576v8c0 .722-.065 1.239-.178 1.576-.112.338-.243.492-.455.62C19.944 19.948 19 20 17.5 20h-11c-1.5 0-2.444-.05-2.867-.305-.212-.127-.343-.281-.455-.619C3.065 18.74 3 18.222 3 17.5v-8c0-.722.065-1.239.178-1.576.112-.338.243-.492.455-.62C4.056 7.052 4 7 5.5 7H9v2.65h.002a53.855 53.855 0 0 0 2.904-1.474 65.913 65.913 0 0 0 2.824-1.65 56.02 56.02 0 0 0-2.824-1.669A47.045 47.045 0 0 0 9.002 3.4z"/><path style="fill:gray;stroke:none;stroke-width:2;stroke-linecap:round;stroke-linejoin:round" d="M5 8c-.554 0-1 .446-1 1v9c0 .554.446 1 1 1h14c.554 0 1-.446 1-1V9c0-.554-.446-1-1-1h-4.78a67.26 67.26 0 0 1-1.831 1.05 1 1 0 0 1-.004.003 54.82 54.82 0 0 1-2.957 1.502 1 1 0 0 1-.426.095H9a1 1 0 0 1-1-1V8H5z"/></svg>