<svg height="24" width="24" xmlns="http://www.w3.org/2000/svg"><path style="fill:gray;stroke-width:.5;stroke-linecap:round;stroke-linejoin:round;fill-opacity:1" d="M11.5 2A3.492 3.492 0 0 0 8 5.5v7c0 1.939 1.561 3.5 3.5 3.5s3.5-1.561 3.5-3.5v-7C15 3.561 13.439 2 11.5 2zm0 1A2.5 2.5 0 0 1 14 5.5v7a2.5 2.5 0 0 1-2.5 2.5A2.5 2.5 0 0 1 9 12.5v-7A2.5 2.5 0 0 1 11.5 3zM6 11v1.5a5.5 5.5 0 0 0 5 5.467v3.045c-1.744.071-3 .488-3 .488v.5h7v-.5s-1.256-.417-3-.488v-3.045a5.5 5.5 0 0 0 5-5.467V11h-1v1.5a4.5 4.5 0 0 1-4 4.465V16.5h-1v.465A4.5 4.5 0 0 1 7 12.5V11H6z"/></svg>