<?xml version="1.0" encoding="UTF-8" standalone="no"?>
<svg viewBox="0 0 24 24" height="24" width="24" version="1.1" id="svg10" sodipodi:docname="filled.svg" inkscape:version="1.1 (ce6663b3b7, 2021-05-25)"
   xmlns:inkscape="http://www.inkscape.org/namespaces/inkscape"
   xmlns:sodipodi="http://sodipodi.sourceforge.net/DTD/sodipodi-0.dtd"
   xmlns="http://www.w3.org/2000/svg"
   xmlns:svg="http://www.w3.org/2000/svg">
   <defs id="defs14" />
   <sodipodi:namedview id="namedview12" pagecolor="#ffffff" bordercolor="#666666" borderopacity="1.0" inkscape:pageshadow="2" inkscape:pageopacity="0.0" inkscape:pagecheckerboard="0" showgrid="true" width="24px" inkscape:zoom="19.79899" inkscape:cx="9.2176419" inkscape:cy="12.551145" inkscape:window-width="1920" inkscape:window-height="1016" inkscape:window-x="0" inkscape:window-y="27" inkscape:window-maximized="1" inkscape:current-layer="svg10">
      <inkscape:grid type="xygrid" id="grid831" />
   </sodipodi:namedview>
   <path id="rect864" style="fill:#808080;fill-opacity:1;fill-rule:evenodd;stroke-width:0.5;stroke-linecap:round;stroke-linejoin:round" d="m 11.5,2 c -1.939,0 -3.5,1.561 -3.5,3.5 v 7 c 0,1.939 1.561,3.5 3.5,3.5 1.939,0 3.5,-1.561 3.5,-3.5 v -7 c 0,-1.939 -1.561,-3.5 -3.5,-3.5 z m -5.5,9 v 1.5 c 0.00539,2.839827 2.1719266,5.208636 5,5.466797 v 3.044922 c -1.744098,0.07151 -3,0.488281 -3,0.488281 v 0.5 h 7 v -0.5 c 0,0 -1.255902,-0.416771 -3,-0.488281 v -3.044922 c 2.828073,-0.258161 4.994615,-2.62697 5,-5.466797 v -1.5 h -1 v 1.5 c -0.0037,2.28901 -1.72516,4.210512 -4,4.464844 v -0.464844 h -1 v 0.464844 c -2.27484,-0.254332 -3.9962905,-2.175834 -4,-4.464844 v -1.5 z" sodipodi:nodetypes="sssssssccccccccccccccccccccc" />
</svg>
