<svg height="24" width="24" xmlns="http://www.w3.org/2000/svg"><path style="fill:gray;fill-opacity:1;stroke-width:.5;stroke-linecap:round;stroke-linejoin:round" d="M7.5 2A3.492 3.492 0 0 0 4 5.5v7C4 14.439 5.561 16 7.5 16s3.5-1.561 3.5-3.5v-7C11 3.561 9.439 2 7.5 2zM2 11v1.5a5.5 5.5 0 0 0 5 5.467v3.045c-1.744.071-3 .488-3 .488v.5h7v-.5s-1.256-.417-3-.488v-3.045a5.5 5.5 0 0 0 5-5.467V11h-1v1.5a4.5 4.5 0 0 1-4 4.465V16.5H7v.465A4.5 4.5 0 0 1 3 12.5V11z"/><path style="fill:gray;stroke-width:.5;stroke-linecap:round;stroke-linejoin:round" d="M18.646 5.658A9 9 0 0 0 16 12a9 9 0 0 0 2.783 6.475l.71-.707A8 8 0 0 1 17 12a8 8 0 0 1 2.338-5.65z"/><path style="fill:gray;fill-opacity:1;stroke-width:.5;stroke-linecap:round;stroke-linejoin:round" d="M21.012 8.012A5 5 0 0 0 19 12a5 5 0 0 0 2.012 3.988l.709-.709A4 4 0 0 1 20 12a4 4 0 0 1 1.72-3.28z"/></svg>