<svg height="24" width="24" xmlns="http://www.w3.org/2000/svg"><path style="color:#000;line-height:normal;font-variant-ligatures:normal;font-variant-position:normal;font-variant-caps:normal;font-variant-numeric:normal;font-variant-alternates:normal;font-feature-settings:normal;text-indent:0;text-align:start;text-decoration-line:none;text-decoration-style:solid;text-decoration-color:#000;text-transform:none;text-orientation:mixed;shape-padding:0;isolation:auto;mix-blend-mode:normal;fill:gray;stroke-width:.666666" d="M21.322 8.322c-2.088 2.089-2.088 5.267 0 7.356l.356-.356c-1.912-1.911-1.912-4.733 0-6.644zm-2.5-2.5c-2.03 2.03-3.072 4.097-3.072 6.24 0 2.144 1.038 4.327 3.063 6.604l.375-.332c-1.976-2.223-2.938-4.29-2.938-6.272 0-1.981.957-3.914 2.928-5.884z"/><path style="fill:gray;fill-opacity:1;stroke-width:.5;stroke-linecap:round;stroke-linejoin:round" d="M7.5 2A3.492 3.492 0 0 0 4 5.5v7C4 14.439 5.561 16 7.5 16s3.5-1.561 3.5-3.5v-7C11 3.561 9.439 2 7.5 2zm0 1A2.5 2.5 0 0 1 10 5.5v7A2.5 2.5 0 0 1 7.5 15 2.5 2.5 0 0 1 5 12.5v-7A2.5 2.5 0 0 1 7.5 3zM2 11v1.5a5.5 5.5 0 0 0 5 5.467v3.045c-1.744.071-3 .488-3 .488v.5h7v-.5s-1.256-.417-3-.488v-3.045a5.5 5.5 0 0 0 5-5.467V11h-1v1.5a4.5 4.5 0 0 1-4 4.465V16.5H7v.465A4.5 4.5 0 0 1 3 12.5V11z"/></svg>