<svg height="24" width="24" xmlns="http://www.w3.org/2000/svg"><path style="fill:gray;fill-opacity:1;stroke-width:.5;stroke-linecap:round;stroke-linejoin:round" d="M11.5 2A3.492 3.492 0 0 0 8 5.5v7c0 .413.075.807.205 1.174l.84-.84A2.5 2.5 0 0 1 9 12.5v-7A2.5 2.5 0 0 1 11.5 3 2.5 2.5 0 0 1 14 5.5v2.379l1-1V5.5C15 3.561 13.439 2 11.5 2zm7.146 2.646L15 8.293l-1 1-4.574 4.574-.729.729-.699.699-.71.71-3.642 3.641.708.708L8 16.707a5.5 5.5 0 0 0 3 1.26v3.045c-1.744.071-3 .488-3 .488v.5h7v-.5s-1.256-.417-3-.488v-3.045a5.5 5.5 0 0 0 5-5.467V11h-1v1.5a4.5 4.5 0 0 1-4 4.465V16.5h-1v.465a4.5 4.5 0 0 1-2.291-.967l.7-.7A3.492 3.492 0 0 0 15 12.5l-.001-2.792 4.354-4.353-.708-.708zM14 10.707V12.5a2.5 2.5 0 0 1-2.5 2.5 2.5 2.5 0 0 1-1.357-.436L14 10.707zM6 11v1.5a5.5 5.5 0 0 0 .705 2.674l.75-.75A4.5 4.5 0 0 1 7 12.5V11H6z"/></svg>