<?xml version="1.0" encoding="UTF-8" standalone="no"?>
<svg viewBox="0 0 24 24" height="24" width="24" version="1.1" id="svg4" sodipodi:docname="muted.svg" inkscape:version="1.1 (ce6663b3b7, 2021-05-25)"
   xmlns:inkscape="http://www.inkscape.org/namespaces/inkscape"
   xmlns:sodipodi="http://sodipodi.sourceforge.net/DTD/sodipodi-0.dtd"
   xmlns="http://www.w3.org/2000/svg"
   xmlns:svg="http://www.w3.org/2000/svg">
   <defs id="defs8" />
   <sodipodi:namedview id="namedview6" pagecolor="#ffffff" bordercolor="#666666" borderopacity="1.0" inkscape:pageshadow="2" inkscape:pageopacity="0.0" inkscape:pagecheckerboard="0" showgrid="true" inkscape:zoom="39.59798" inkscape:cx="8.9524769" inkscape:cy="10.581348" inkscape:window-width="1920" inkscape:window-height="1043" inkscape:window-x="1920" inkscape:window-y="0" inkscape:window-maximized="1" inkscape:current-layer="svg4" inkscape:snap-grids="false">
      <inkscape:grid type="xygrid" id="grid821" />
   </sodipodi:namedview>
   <path id="rect864" style="fill:#808080;fill-opacity:1;fill-rule:evenodd;stroke-width:0.5;stroke-linecap:round;stroke-linejoin:round" d="M 11.5 2 C 9.561 2 8 3.561 8 5.5 L 8 12.5 C 8 12.912922 8.0749193 13.306616 8.2050781 13.673828 L 9.0449219 12.833984 A 2.5 2.5 0 0 1 9 12.5 L 9 5.5 A 2.5 2.5 0 0 1 11.5 3 A 2.5 2.5 0 0 1 14 5.5 L 14 7.8789062 L 15 6.8789062 L 15 5.5 C 15 3.561 13.439 2 11.5 2 z M 18.646484 4.6464844 L 15 8.2929688 L 14 9.2929688 L 9.4257812 13.867188 L 8.6972656 14.595703 L 7.9980469 15.294922 L 7.2871094 16.005859 L 3.6464844 19.646484 L 4.3535156 20.353516 L 8 16.707031 A 5.5 5.5 0 0 0 11 17.966797 L 11 21.011719 C 9.255902 21.083229 8 21.5 8 21.5 L 8 22 L 15 22 L 15 21.5 C 15 21.5 13.744098 21.083229 12 21.011719 L 12 17.966797 A 5.5 5.5 0 0 0 17 12.5 L 17 11 L 16 11 L 16 12.5 A 4.5 4.5 0 0 1 12 16.964844 L 12 16.5 L 11 16.5 L 11 16.964844 A 4.5 4.5 0 0 1 8.7089844 15.998047 L 9.4082031 15.298828 C 9.991207 15.73579 10.712055 16 11.5 16 C 13.439 16 15 14.439 15 12.5 L 15 9.7070312 L 19.353516 5.3535156 L 18.646484 4.6464844 z M 14 10.707031 L 14 12.5 A 2.5 2.5 0 0 1 11.5 15 A 2.5 2.5 0 0 1 10.142578 14.564453 L 14 10.707031 z M 6 11 L 6 12.5 A 5.5 5.5 0 0 0 6.7050781 15.173828 L 7.4550781 14.423828 A 4.5 4.5 0 0 1 7 12.5 L 7 11 L 6 11 z " />
</svg>
