<?xml version="1.0" encoding="UTF-8" standalone="no"?>
<svg
   height="24"
   width="24"
   version="1.1"
   id="svg10"
   sodipodi:docname="_.svg"
   inkscape:version="1.1 (ce6663b3b7, 2021-05-25)"
   xmlns:inkscape="http://www.inkscape.org/namespaces/inkscape"
   xmlns:sodipodi="http://sodipodi.sourceforge.net/DTD/sodipodi-0.dtd"
   xmlns="http://www.w3.org/2000/svg"
   xmlns:svg="http://www.w3.org/2000/svg">
  <defs
     id="defs14" />
  <sodipodi:namedview
     id="namedview12"
     pagecolor="#ffffff"
     bordercolor="#666666"
     borderopacity="1.0"
     inkscape:pageshadow="2"
     inkscape:pageopacity="0.0"
     inkscape:pagecheckerboard="0"
     showgrid="true"
     width="24px"
     inkscape:zoom="19.79899"
     inkscape:cx="5.7326157"
     inkscape:cy="13.813836"
     inkscape:window-width="1920"
     inkscape:window-height="1016"
     inkscape:window-x="0"
     inkscape:window-y="27"
     inkscape:window-maximized="1"
     inkscape:current-layer="svg10">
    <inkscape:grid
       type="xygrid"
       id="grid831" />
  </sodipodi:namedview>
  <path
     d="m 11.995,2 c -1.76125,0 -3.12,1.0525 -3.12,3.17125 v 7.405 c 0,2.11875 1.35875,3.17375 3.12,3.17375 1.7625,0 3.1175,-1.0575 3.1175,-3.175 v -7.4025 c 0,-2.11625 -1.35625,-3.1725 -3.1175,-3.1725 z m 0,1.2475 c 0.63125,0 1.07,0.1775 1.36,0.45125 0.29,0.275 0.51,0.68125 0.51,1.4725 v 7.405 c 0,0.79125 -0.22,1.1975 -0.51,1.4725 -0.29,0.27375 -0.72875,0.45375 -1.36,0.45375 -0.63125,0 -1.0725,-0.17875 -1.3625,-0.45125 -0.28875,-0.275 -0.51,-0.6825 -0.51,-1.475 v -7.405 c 0,-0.7925 0.22125,-1.19875 0.51,-1.4725 0.29,-0.2725 0.73125,-0.45 1.3625,-0.45 z m -5.62,7.5025 v 1.875 c 0,2.90125 2.185,5.24875 5,5.5625 v 2.59125 a 9.47,9.47 0 0 0 -2.5,0.545 v 0.67625 h 6.25 v -0.67625 a 9.82,9.82 0 0 0 -2.5,-0.5425 v -2.59375 c 2.815,-0.3125 5,-2.66 5,-5.56125 v -1.87625 h -1.25 v 1.875 a 4.3525,4.3525 0 0 1 -3.75,4.31375 v -0.56375 h -1.25 v 0.56375 a 4.3525,4.3525 0 0 1 -3.75,-4.31375 v -1.875 z"
     style="color:#000000;fill:#808080;stroke-width:0.8;marker:none"
     overflow="visible"
     id="path6" />
</svg>
