<svg height="24" width="24" xmlns="http://www.w3.org/2000/svg"><path style="color:#000;fill:gray;-inkscape-stroke:none;fill-opacity:1" d="M6 3c-1.042 0-1.998.115-2.758.57C2.482 4.026 2 4.875 2 6v12c0 1.125.483 1.974 1.242 2.43.76.455 1.716.57 2.758.57h12c1.042 0 1.998-.115 2.758-.57C21.518 19.974 22 19.125 22 18V6c0-1.125-.483-1.974-1.242-2.43C19.998 3.115 19.042 3 18 3zm0 1h12c.958 0 1.752.135 2.242.43.49.294.758.695.758 1.57v11H3V6c0-.875.267-1.276.758-1.57C4.248 4.135 5.042 4 6 4z"/><path style="fill:gray;stroke:none;stroke-width:1px;stroke-linecap:butt;stroke-linejoin:miter;fill-opacity:1" d="m9.5 8-3.938 7h9.825L12.5 10l-1 1.465L9.5 8z"/><circle style="fill:gray;stroke:none;stroke-width:2;stroke-linecap:square;stroke-linejoin:round;fill-opacity:1" cx="17.5" cy="7.5" r="1.5"/></svg>