<svg height="24" width="24" xmlns="http://www.w3.org/2000/svg"><g style="display:inline"><path style="color:#000;display:inline;overflow:visible;visibility:visible;fill:gray;fill-opacity:1;fill-rule:nonzero;stroke:none;stroke-width:5.99881;marker:none;enable-background:accumulate" d="M5.994 3c-1.258.014-2.179-.03-2.931.385a1.88 1.88 0 0 0-.838.998C2.06 4.82 2.04 5.063 2 6v8c0 .658.06 1.179.225 1.617.164.439.461.79.837.998.626.345 1.38.371 2.334.38.035 0 .069.005.104.005h4.535a6.5 6.5 0 0 1-.035-.5 6.5 6.5 0 0 1 .521-2.5H5l3-5.5L9.5 11l1-1.5 1.363 2.453A6.5 6.5 0 0 1 16.5 10a6.5 6.5 0 0 1 1.5.178V6c0-.658-.06-1.179-.225-1.617a1.88 1.88 0 0 0-.837-.998c-.753-.416-1.674-.37-2.932-.385H5.994zM13.5 6a1.5 1.5 0 1 1 0 3 1.5 1.5 0 0 1 0-3z"/></g><path style="fill:gray;stroke:none;stroke-width:2;stroke-linecap:round;stroke-linejoin:round;stroke-dasharray:2,4" d="M16.5 11a5.5 5.5 0 0 0-5.5 5.5 5.5 5.5 0 0 0 5.5 5.5 5.5 5.5 0 0 0 5.5-5.5 5.5 5.5 0 0 0-5.5-5.5zm-.5 2h1v3.793l1.354 1.353.353.354-.707.707-.354-.353L16 17.207V13.5z"/></svg>