<svg height="24" width="24" xmlns="http://www.w3.org/2000/svg"><path style="color:#000;fill:gray;stroke-linecap:square;-inkscape-stroke:none" d="M16 13v4.207l1.646 1.647.354.353.707-.707-.353-.354L17 16.793V13z"/><path style="line-height:125%;-inkscape-font-specification:Ubuntu;text-align:center;fill:gray;stroke-width:1" d="M16.5 11a5.5 5.5 0 0 0-3.74 1.486l-.008-.007-.752-.752a25.313 25.313 0 0 0-.863 2.939c.49-.11.986-.238 1.488-.383.506-.149.99-.309 1.45-.48l-.602-.604A4.5 4.5 0 0 1 16.5 12a4.5 4.5 0 0 1 4.5 4.5 4.5 4.5 0 0 1-4.5 4.5 4.5 4.5 0 0 1-4.46-4h-1.003a5.5 5.5 0 0 0 5.463 5 5.5 5.5 0 0 0 5.5-5.5 5.5 5.5 0 0 0-5.5-5.5z"/><g style="display:inline"><path style="color:#000;display:inline;overflow:visible;visibility:visible;fill:gray;fill-opacity:1;fill-rule:nonzero;stroke:none;stroke-width:5.99881;marker:none;enable-background:accumulate" d="M5.994 3c-1.258.014-2.179-.03-2.931.385a1.88 1.88 0 0 0-.838.998C2.06 4.82 2.159 5.362 2 6v8c0 .658.06 1.179.225 1.617.164.439.461.79.837.998.753.416 1.674.37 2.932.385H10v-3H3.125A193.585 193.585 0 0 1 3 7c0-1-.21-2.328.773-2.775C4.516 3.985 6 4 8 4h4.125c2 0 3.484-.016 4.227.225.983.447.773 1.775.773 2.775 0 .933-.008 1.956-.023 3h1.023V6c0-.658-.06-1.179-.225-1.617a1.88 1.88 0 0 0-.837-.998c-.753-.416-1.674-.37-2.932-.385H5.994zM13.5 5a1.5 1.5 0 1 0 0 3 1.5 1.5 0 0 0 0-3zM8 7.5 5 13h5c0-1.132.622-2.112 1.543-2.623L10.5 8.5l-1 1.5L8 7.5z"/></g></svg>