<?xml version="1.0" encoding="UTF-8" standalone="no"?>
<svg
   viewBox="0 1 24 24"
   height="24"
   id="svg7384"
   version="1.1"
   width="24"
   sodipodi:docname="image-loading-filled.svg"
   inkscape:version="1.2 (1:1.2.1+202207142221+cd75a1ee6d)"
   xmlns:inkscape="http://www.inkscape.org/namespaces/inkscape"
   xmlns:sodipodi="http://sodipodi.sourceforge.net/DTD/sodipodi-0.dtd"
   xmlns="http://www.w3.org/2000/svg"
   xmlns:svg="http://www.w3.org/2000/svg"
   xmlns:rdf="http://www.w3.org/1999/02/22-rdf-syntax-ns#"
   xmlns:cc="http://creativecommons.org/ns#"
   xmlns:dc="http://purl.org/dc/elements/1.1/">
  <sodipodi:namedview
     id="namedview23"
     pagecolor="#ffffff"
     bordercolor="#666666"
     borderopacity="1.0"
     inkscape:pageshadow="2"
     inkscape:pageopacity="0.0"
     inkscape:pagecheckerboard="0"
     showgrid="true"
     inkscape:zoom="28"
     inkscape:cx="19.785714"
     inkscape:cy="9.75"
     inkscape:window-width="1920"
     inkscape:window-height="1043"
     inkscape:window-x="0"
     inkscape:window-y="0"
     inkscape:window-maximized="1"
     inkscape:current-layer="svg7384"
     inkscape:showpageshadow="2"
     inkscape:deskcolor="#d1d1d1">
    <inkscape:grid
       type="xygrid"
       id="grid24" />
    <inkscape:grid
       type="xygrid"
       id="grid841"
       dotted="true"
       spacingx="0.5"
       spacingy="0.5"
       empspacing="10" />
  </sodipodi:namedview>
  <metadata
     id="metadata20854">
    <rdf:RDF>
      <cc:Work
         rdf:about="">
        <dc:format>image/svg+xml</dc:format>
        <dc:type
           rdf:resource="http://purl.org/dc/dcmitype/StillImage" />
      </cc:Work>
    </rdf:RDF>
  </metadata>
  <defs
     id="defs7386">
    <linearGradient
       id="linearGradient5606"
       inkscape:swatch="solid">
      <stop
         id="stop5608"
         offset="0"
         style="stop-color:#000000;stop-opacity:1;" />
    </linearGradient>
    <linearGradient
       id="linearGradient4526"
       inkscape:swatch="solid">
      <stop
         id="stop4528"
         offset="0"
         style="stop-color:#ffffff;stop-opacity:1;" />
    </linearGradient>
    <linearGradient
       id="linearGradient3600-4"
       inkscape:swatch="gradient">
      <stop
         id="stop3602-7"
         offset="0"
         style="stop-color:#f4f4f4;stop-opacity:1" />
      <stop
         id="stop3604-6"
         offset="1"
         style="stop-color:#dbdbdb;stop-opacity:1" />
    </linearGradient>
  </defs>
  <path
     id="path3446"
     style="color:#000000;fill:#808080;fill-opacity:1"
     d="m 6,3 c -1.0416646,0 -1.9983054,0.1146082 -2.7578125,0.5703125 -0.7595071,0.4557043 -1.2421875,1.3046897 -1.2421875,2.4296875 v 12 c 0,1.124998 0.4826804,1.973984 1.2421875,2.429688 0.7595071,0.455704 1.7161479,0.570312 2.7578125,0.570312 h 12 c 1.041665,0 1.998306,-0.114608 2.757812,-0.570312 0.759508,-0.455704 1.242188,-1.30469 1.242188,-2.429688 v -12 c 0,-1.1249978 -0.48268,-1.9739832 -1.242188,-2.4296875 -0.759506,-0.4557043 -1.716147,-0.5703125 -2.757812,-0.5703125 z m 1.5,7.5 c 0.8284271,0 1.5,0.671573 1.5,1.5 0,0.828427 -0.6715729,1.5 -1.5,1.5 -0.8284271,0 -1.5,-0.671573 -1.5,-1.5 0,-0.828427 0.6715729,-1.5 1.5,-1.5 z m 4.5,0 c 0.828427,0 1.5,0.671573 1.5,1.5 0,0.828427 -0.671573,1.5 -1.5,1.5 -0.828427,0 -1.5,-0.671573 -1.5,-1.5 0,-0.828427 0.671573,-1.5 1.5,-1.5 z m 4.5,0 c 0.828427,0 1.5,0.671573 1.5,1.5 0,0.828427 -0.671573,1.5 -1.5,1.5 -0.828427,0 -1.5,-0.671573 -1.5,-1.5 0,-0.828427 0.671573,-1.5 1.5,-1.5 z"
     sodipodi:nodetypes="ssssssssssssssssssssssssssss" />
  <g
     id="layer9"
     label="status"
     style="display:inline;stroke-width:0.809017;fill:#808080;fill-opacity:1"
     transform="matrix(1.2360674,0,0,1.2360674,-681.5449,257.97741)" />
  <g
     id="layer2"
     style="display:inline;stroke-width:0.809017;fill:#808080;fill-opacity:1"
     transform="matrix(1.2360674,0,0,1.2360674,-383.65241,-195.65932)" />
  <g
     id="g1812"
     style="display:inline;stroke-width:0.809017;fill:#808080;fill-opacity:1"
     transform="matrix(1.2360674,0,0,1.2360674,-383.65241,-195.65932)" />
  <g
     id="g6217"
     style="display:inline;stroke-width:0.809017;fill:#808080;fill-opacity:1"
     transform="matrix(1.2360674,0,0,1.2360674,-383.65241,-195.65932)" />
  <g
     id="layer3"
     style="display:inline;stroke-width:0.809017;fill:#808080;fill-opacity:1"
     transform="matrix(1.2360674,0,0,1.2360674,-383.65241,-195.65932)" />
  <g
     id="g1833"
     style="display:inline;stroke-width:0.809017;fill:#808080;fill-opacity:1"
     transform="matrix(1.2360674,0,0,1.2360674,-383.65241,-195.65932)" />
  <g
     id="layer1"
     style="display:inline;stroke-width:0.809017;fill:#808080;fill-opacity:1"
     transform="matrix(1.2360674,0,0,1.2360674,-383.65241,-195.65932)" />
</svg>
