<svg height="24" width="24" xmlns="http://www.w3.org/2000/svg"><path style="color:#000;fill:gray;-inkscape-stroke:none;fill-opacity:1" d="M6 3c-1.042 0-1.998.115-2.758.57C2.482 4.026 2 4.875 2 6v12c0 1.125.483 1.974 1.242 2.43.76.455 1.716.57 2.758.57h5.98c-.647 0-1.337-.268-1.767-.746a2.54 2.54 0 0 1-.633-1.65c-.008-.589.2-1.158.582-1.604H3V6c0-.875.267-1.276.758-1.57C4.248 4.135 5.042 4 6 4h2.22l.028-.02.063-.033a8.803 8.803 0 0 1 1.755-.67l.006-.002h.002A9.075 9.075 0 0 1 12.332 3H6zm5.98 18H18c1.042 0 1.998-.115 2.758-.57C21.518 19.974 22 19.125 22 18V6c0-1.125-.483-1.974-1.242-2.43C19.998 3.115 19.042 3 18 3h-5.658c.926 0 1.726.126 2.424.432l-.004-.008c.005.002.007.006.011.008.006.002.016 0 .022.004l.629.28v.151c.076.046.154.09.232.133H18c.958 0 1.752.135 2.242.43.49.294.758.695.758 1.57v11h-7.195c.364.437.584 1.027.584 1.594 0 .594-.238 1.216-.639 1.66-.431.48-1.124.746-1.77.746z"/><path d="M12.34 4.058c-.706 0-1.373.081-2.002.243a7.748 7.748 0 0 0-1.545.59l-.87.606.748 1.16.599-.445c.91-.463 1.845-.715 2.8-.715.804 0 1.443.212 1.881.65.433.418.653.976.653 1.636 0 .412-.097.798-.287 1.15a4.472 4.472 0 0 1-.673.973c-.271.3-.556.603-.857.903v.001a8.461 8.461 0 0 0-.838.927l-.002.003a4.845 4.845 0 0 0-.65 1.04 3.148 3.148 0 0 0-.235 1.238c0 .275.032.533.074.786h1.44c-.001-.03-.013-.058-.013-.09v-.248c0-.512.102-.98.307-1.39a5.11 5.11 0 0 1 .737-1.131l.003-.003c.288-.35.606-.682.954-1a9.57 9.57 0 0 0 .927-.97c.278-.336.508-.692.697-1.069.183-.381.277-.811.277-1.3a4.05 4.05 0 0 0-.195-1.21v-.005a2.7 2.7 0 0 0-.639-1.148c-.31-.337-.73-.617-1.267-.834v-.002c-.51-.228-1.184-.346-2.022-.346zm-.358 13.188c-.432 0-.744.133-.984.397a1.357 1.357 0 0 0-.364.95c0 .37.118.678.364.951.239.265.552.397.983.397.43 0 .743-.13.983-.397.246-.273.364-.582.364-.95a1.35 1.35 0 0 0-.364-.95c-.238-.265-.553-.398-.983-.398z" font-family="Ubuntu" font-size="72.036" font-weight="500" letter-spacing="0" style="line-height:125%;-inkscape-font-specification:'Ubuntu Medium';text-align:center;fill:gray;fill-opacity:1;stroke-width:1" text-anchor="middle" word-spacing="0"/></svg>