<svg height="24" width="24" xmlns="http://www.w3.org/2000/svg"><path style="color:#000;fill:gray;fill-opacity:1;-inkscape-stroke:none" d="M6 3c-1.042 0-1.998.115-2.758.57C2.482 4.026 2 4.875 2 6v12c0 1.125.483 1.974 1.242 2.43.76.455 1.716.57 2.758.57h12c1.042 0 1.998-.115 2.758-.57C21.518 19.974 22 19.125 22 18V6c0-1.125-.483-1.974-1.242-2.43C19.998 3.115 19.042 3 18 3H6zm6.129 2h.002c.738 0 1.334.104 1.783.305v.002c.473.191.842.436 1.115.734a2.38 2.38 0 0 1 .563 1.012v.004l.002.002a3.57 3.57 0 0 1 .172 1.066c0 .43-.084.809-.245 1.145-.166.332-.37.646-.615.94a8.436 8.436 0 0 1-.816.858c-.307.28-.588.573-.842.881l-.002.002a4.468 4.468 0 0 0-.65.998 2.71 2.71 0 0 0-.27 1.225v.219c0 .028.01.053.012.08h-1.27a4.146 4.146 0 0 1-.066-.694 2.775 2.775 0 0 1 .207-1.091 4.27 4.27 0 0 1 .574-.917l.002-.003a7.458 7.458 0 0 1 .738-.817c.266-.265.517-.532.756-.797a3.93 3.93 0 0 0 .592-.857 2.1 2.1 0 0 0 .254-1.014c0-.582-.195-1.073-.576-1.441-.386-.386-.95-.574-1.658-.574-.843 0-1.666.222-2.47.63l-.526.393-.66-1.023.767-.534a6.83 6.83 0 0 1 1.361-.521A7.08 7.08 0 0 1 12.13 5zm-.316 11.625c.379 0 .657.116.867.35.217.24.32.51.32.837 0 .325-.103.598-.32.838-.211.235-.488.35-.867.35-.38 0-.656-.116-.866-.35a1.196 1.196 0 0 1-.322-.837 1.196 1.196 0 0 1 .322-.838c.211-.234.485-.35.866-.35z"/></svg>