<svg height="24" width="24" xmlns="http://www.w3.org/2000/svg"><path style="color:#000;fill:gray;-inkscape-stroke:none;fill-opacity:1" d="m3.363 2.656-.726.688 1.406 1.49A4.768 4.768 0 0 0 4 5.5v13c0 .542.064.984.23 1.36.167.375.458.668.797.837.68.34 1.473.303 2.473.303h8c1 0 1.794.037 2.473-.303a1.71 1.71 0 0 0 .59-.492l1.074 1.139.726-.688-1.406-1.488v-.002L18 18.154l-1.193-1.263-.842-.891L12 11.8l-1-1.058-5.854-6.199-.708-.748-1.075-1.139zM6.787 3c-.577.005-1.078.038-1.53.205l.806.852C6.428 4.013 6.912 4 7.5 4H11v5.285l1 1.059V4h3.5c1 0 1.706.037 2.027.197.16.08.245.163.328.35.084.187.145.495.145.953v11.197l1 1.059V5.5c0-.542-.064-.984-.23-1.36a1.72 1.72 0 0 0-.797-.837C17.293 2.963 16.5 3 15.5 3h-8c-.25 0-.487-.002-.713 0zM5 5.846l6 6.353V20H7.5c-1 0-1.706-.037-2.027-.197a.615.615 0 0 1-.328-.35C5.06 19.266 5 18.958 5 18.5V5.846zm7 7.412L14.59 16H13.5a.499.499 0 1 0 0 1h2.035l.944 1H13.5a.499.499 0 1 0 0 1h3a.498.498 0 0 0 .496-.453l.858.91a.614.614 0 0 1-.327.346c-.32.16-1.027.197-2.027.197H12v-6.742zM6.5 15c-.277 0-.5.223-.5.5v3c0 .277.223.5.5.5h3c.277 0 .5-.223.5-.5v-3c0-.277-.223-.5-.5-.5h-3z"/></svg>