<svg height="24" width="24" xmlns="http://www.w3.org/2000/svg"><path style="color:#000;fill:gray;fill-opacity:1;-inkscape-stroke:none" d="M6.787 3c-.577.005-1.078.038-1.53.205l3.544 3.752a1.66 1.66 0 0 0 .119-.125l.016.104c.491-.461 1.366-.77 1.859-.99-.13.143.29-.016.592-.034-.096.053-.19.096-.28.158.363-.086.346.036.717-.013l.074-.016c.018-.025-.104-.04-.21-.059.354.01.327.033.21.059l-.005.01-.069.006c-.13.018-.289.07-.263.09.414.047.477-.128.86 0l-.023-.114c.533.192.644.16 1.223.467.203.01.223-.125.53 0 .053.095-.013.112.365.336.041-.017-.076-.122-.168-.207.758.405 1.582 1.27 1.834 2.193-.236-.433-.025.22-.106.186.105.283.191.575.244.877-.07-.248-.222-.845-.488-1.23-.022.248-.342-.171-.166.376.134.194.026-.198.191.147.003.164.066.327.102.54-.056-.008-.127-.236-.168-.173.057.268.152.409.188.43-.019.045-.066-.042-.069.14.022.42.117.244.162.264-.046.207-.23.45-.138.807-.027-.108-.079-.219-.118-.32-.036.303.069.363-.072.732.101-.332.09-.633-.006-.489.043.472-.373.835-.328 1.133l-.12-.166c-.328.474-.009.262-.231.621.081-.14-.042-.059.064-.218-.07.004-.315.3-.539.474-.023.019-.047.035-.07.053L19 17.756V5.5c0-.542-.064-.984-.23-1.36a1.72 1.72 0 0 0-.797-.837C17.293 2.963 16.5 3 15.5 3h-8c-.25 0-.487-.002-.713 0zm-2.35.795a1.72 1.72 0 0 0-.207.346C4.064 4.516 4 4.958 4 5.5v13c0 .542.064.984.23 1.36.167.375.458.668.797.837.68.34 1.473.303 2.473.303h8c1 0 1.794.037 2.473-.303.34-.17.63-.462.797-.838a2.6 2.6 0 0 0 .187-.693l-5.373-5.687c-.626.182-1.293.136-1.945-.108-.04.032.18.205.343.29.387.142.826.149 1.17.136-.744.311-2.165-.318-2.63-1.15.104.022.464.586.734.677a2.046 2.046 0 0 1-.397-.457c.216.248.478.448.764.582-.009-.035.01-.054.016-.078.005-.023-.005-.05-.073-.096-.861-.66-1.37-1.22-1.193-2.52.076-.057.121-.262.203-.462L8.758 8.369c-.405.334-.82.828-.947 1.049l.105.018c-.176.44-.406.724-.437.988-.046.65-.275 1.835.04 2.199l-.029.305c.043.086.076.174.13.256l-.071.004c.331 1.046.357.02.795 1.107-.064-.022-.128-.045-.221-.17-.011.095.136.38.309.604l-.075.084c.097.175.185.214.252.275-.36-.197.336.648.399.756l.055-.1c-.009.142.1.327.306.58l.172-.008c.07.14.33.393.486.405l-.105.134c.393.125.19.165.674.336l-.098-.171c.246.213.324.4.672.564.482.168.544.103 1.039.244-.42-.012-.91-.008-1.242-.127-2.263-.612-4.333-3.266-4.182-6-.035-.553.055-1.245-.037-1.383.13-.42.279-.935.58-1.547.018.016.088.056.203-.14.093-.204.168-.429.285-.627l.061-.014c.017-.101.096-.22.201-.342l-3.64-3.853zm7.749 2.035c-.142.028-.33.01-.46.057l-.081-.012c.178-.023.36-.03.54-.045zm-.327 1.18c-.3.009-.568.059-.755.15.068-.06.342-.088.26-.135-.782.078-.609.273-1.208.426-.164.159.481-.127.135.078-.264.073-.415-.006-.725.237l1.63 1.726c.256-.205.603-.351.966-.357.6-.033 1.109.32 1.363.654-.463-.432-1.222-.562-1.869-.242-.094.042-.18.095-.263.154l2.836 3.002c.182-.147.396-.341.53-.46.101-.218-.054-.118.087-.391l.172-.086c.095-.277.201-.433.189-.754l-.1.213c.148-.447.064-.935.084-1.356l-.04-.01c-.037-1.058-.952-2.183-1.766-2.564-.439-.203-1.026-.3-1.526-.285zM7.008 8.416c.02.073.189-.117.053.19-.085.059-.12.089-.127.093.003-.011.085-.115.074-.283zm-.223.89c-.024.111-.035.227-.098.419.019-.15-.074-.198.098-.418zm3.988 1.198c-.095.25-.136.523-.115.795.025-.036.047-.014.059-.104-.02 1.379 1.45 2.394 2.553 1.951l-.89-.94c-.002-.003-.001-.005-.003-.007l-1.604-1.695zm3.098.133c.025 0 .043.06.031.24-.035.144-.066-.09-.103-.11.016-.068.047-.13.072-.13zm2.176.603a3.49 3.49 0 0 1-.377 1.18c.177-.35.294-.725.348-1.106l.029-.074zm-2.31.168a1.29 1.29 0 0 1-.23.494c.015-.14-.328.06.071-.443-.035.142-.372.515 0 .281.062-.11.127-.214.158-.332zm-3.313.76c.046.092.087.183.156.26l.06.181c-.083-.14-.172-.28-.216-.441zm-.154.273c.164.317.253.413.373.647-.167-.139-.27-.33-.4-.508l.027-.139z"/><path style="color:#000;fill:gray;-inkscape-stroke:none" d="m3.363 2.656-.726.688 17 18 .726-.688z"/></svg>