<?xml version="1.0" encoding="UTF-8" standalone="no"?>
<svg
   viewBox="0 1 24 24"
   height="24"
   id="svg7384"
   version="1.1"
   width="24"
   sodipodi:docname="deb-filled.svg"
   inkscape:version="1.2 (1:1.2.1+202207142221+cd75a1ee6d)"
   xmlns:inkscape="http://www.inkscape.org/namespaces/inkscape"
   xmlns:sodipodi="http://sodipodi.sourceforge.net/DTD/sodipodi-0.dtd"
   xmlns="http://www.w3.org/2000/svg"
   xmlns:svg="http://www.w3.org/2000/svg"
   xmlns:rdf="http://www.w3.org/1999/02/22-rdf-syntax-ns#"
   xmlns:cc="http://creativecommons.org/ns#"
   xmlns:dc="http://purl.org/dc/elements/1.1/">
  <sodipodi:namedview
     id="namedview25"
     pagecolor="#ffffff"
     bordercolor="#666666"
     borderopacity="1.0"
     inkscape:pageshadow="2"
     inkscape:pageopacity="0.0"
     inkscape:pagecheckerboard="0"
     showgrid="false"
     inkscape:zoom="22.627417"
     inkscape:cx="10.871767"
     inkscape:cy="11.733553"
     inkscape:window-width="1920"
     inkscape:window-height="1016"
     inkscape:window-x="0"
     inkscape:window-y="0"
     inkscape:window-maximized="1"
     inkscape:current-layer="svg7384"
     inkscape:snap-page="true"
     inkscape:showpageshadow="2"
     inkscape:deskcolor="#d1d1d1">
    <inkscape:grid
       type="xygrid"
       id="grid829" />
    <inkscape:grid
       type="xygrid"
       id="grid831"
       dotted="true"
       spacingx="0.5"
       spacingy="0.5"
       empspacing="10" />
  </sodipodi:namedview>
  <metadata
     id="metadata20854">
    <rdf:RDF>
      <cc:Work
         rdf:about="">
        <dc:format>image/svg+xml</dc:format>
        <dc:type
           rdf:resource="http://purl.org/dc/dcmitype/StillImage" />
      </cc:Work>
    </rdf:RDF>
  </metadata>
  <defs
     id="defs7386">
    <linearGradient
       id="linearGradient5606"
       inkscape:swatch="solid">
      <stop
         id="stop5608"
         offset="0"
         style="stop-color:#000000;stop-opacity:1;" />
    </linearGradient>
    <linearGradient
       id="linearGradient4526"
       inkscape:swatch="solid">
      <stop
         id="stop4528"
         offset="0"
         style="stop-color:#ffffff;stop-opacity:1;" />
    </linearGradient>
    <linearGradient
       id="linearGradient3600-4"
       inkscape:swatch="gradient">
      <stop
         id="stop3602-7"
         offset="0"
         style="stop-color:#f4f4f4;stop-opacity:1" />
      <stop
         id="stop3604-6"
         offset="1"
         style="stop-color:#dbdbdb;stop-opacity:1" />
    </linearGradient>
  </defs>
  <path
     id="path866"
     style="color:#000000;fill:#808080;fill-opacity:1;-inkscape-stroke:none"
     d="M 6.7871094 3 C 6.2102774 3.0047633 5.7086532 3.0383209 5.2578125 3.2050781 L 8.8007812 6.9570312 C 8.8478358 6.9116767 8.8893846 6.8686868 8.9199219 6.8320312 L 8.9355469 6.9355469 C 9.4269854 6.4747152 10.301886 6.1654152 10.794922 5.9453125 C 10.665442 6.088765 11.08451 5.9304734 11.386719 5.9121094 C 11.291439 5.9653385 11.196712 6.0076356 11.107422 6.0703125 C 11.470179 5.9836826 11.453478 6.1056116 11.824219 6.0566406 L 11.898438 6.0410156 C 11.916135 6.0155987 11.793692 6.0013179 11.6875 5.9824219 C 12.042006 5.9925349 12.015007 6.0153327 11.898438 6.0410156 L 11.892578 6.0507812 L 11.824219 6.0566406 C 11.694074 6.0754036 11.535397 6.1269224 11.560547 6.1464844 C 11.974802 6.1943902 12.038491 6.0187343 12.421875 6.1464844 L 12.398438 6.0332031 C 12.931127 6.2253605 13.042226 6.1928676 13.621094 6.5 C 13.824031 6.5099808 13.843658 6.3750445 14.150391 6.5 C 14.204419 6.594748 14.138496 6.6117095 14.515625 6.8359375 C 14.55741 6.8191703 14.440146 6.7136743 14.347656 6.6289062 C 15.105506 7.0339803 15.930266 7.8980739 16.181641 8.8222656 C 15.946101 8.388714 16.157212 9.0420125 16.076172 9.0078125 C 16.181166 9.2905926 16.267084 9.5830892 16.320312 9.8847656 C 16.250449 9.637383 16.097911 9.0395431 15.832031 8.6542969 C 15.810207 8.9028771 15.49036 8.4837878 15.666016 9.03125 C 15.79962 9.2252701 15.692411 8.8330754 15.857422 9.1777344 C 15.860083 9.3415472 15.922654 9.505434 15.958984 9.71875 C 15.902561 9.7095679 15.832136 9.4817119 15.791016 9.5449219 C 15.848104 9.81333 15.942856 9.9539834 15.978516 9.9746094 C 15.960286 10.019588 15.913456 9.9326591 15.910156 10.115234 C 15.932246 10.535479 16.026756 10.358946 16.072266 10.378906 C 16.026222 10.585835 15.842044 10.829577 15.933594 11.185547 C 15.907375 11.077625 15.855126 10.967434 15.816406 10.865234 C 15.780476 11.169173 15.884532 11.229444 15.744141 11.597656 C 15.845267 11.265773 15.833691 10.965124 15.738281 11.109375 C 15.780598 11.581253 15.364906 11.943571 15.410156 12.242188 L 15.289062 12.076172 C 14.961837 12.550444 15.281092 12.337836 15.058594 12.697266 C 15.140304 12.556079 15.016722 12.638469 15.123047 12.478516 C 15.052385 12.482509 14.807813 12.778799 14.583984 12.953125 C 14.560747 12.97175 14.537144 12.988086 14.513672 13.005859 L 19 17.755859 L 19 5.5 C 19 4.9583344 18.9364 4.5160816 18.769531 4.140625 C 18.602661 3.7651684 18.312099 3.4724554 17.972656 3.3027344 C 17.293772 2.9632923 16.499998 3 15.5 3 L 7.5 3 C 7.2500005 3 7.0127577 2.99814 6.7871094 3 z M 4.4375 3.7949219 C 4.3569259 3.9003879 4.2862194 4.015186 4.2304688 4.140625 C 4.0635991 4.5160816 4 4.9583344 4 5.5 L 4 18.5 C 4 19.041665 4.0635991 19.483918 4.2304688 19.859375 C 4.3973383 20.234832 4.6879018 20.527544 5.0273438 20.697266 C 5.7062278 21.036707 6.500002 21 7.5 21 L 15.5 21 C 16.499998 21 17.293772 21.036709 17.972656 20.697266 C 18.312099 20.527544 18.602661 20.234832 18.769531 19.859375 C 18.861968 19.651394 18.921229 19.420534 18.957031 19.166016 L 13.583984 13.478516 C 12.957589 13.661452 12.291377 13.61479 11.638672 13.371094 C 11.59915 13.403431 11.819407 13.576456 11.982422 13.660156 C 12.369397 13.803257 12.807685 13.809645 13.152344 13.796875 C 12.407534 14.108399 10.986575 13.479255 10.521484 12.646484 C 10.626479 12.669372 10.985855 13.233059 11.255859 13.324219 C 11.096306 13.196468 10.973818 13.034458 10.859375 12.867188 C 11.074953 13.114836 11.33694 13.315347 11.623047 13.449219 C 11.613997 13.414487 11.633549 13.394681 11.638672 13.371094 C 11.643795 13.347507 11.634007 13.321036 11.566406 13.275391 C 10.705024 12.615215 10.196193 12.054651 10.373047 10.755859 C 10.449127 10.698297 10.494314 10.492995 10.576172 10.292969 L 8.7578125 8.3691406 C 8.3528324 8.7030175 7.9371722 9.1972367 7.8105469 9.4179688 L 7.9160156 9.4355469 C 7.7399601 9.8769499 7.5097876 10.159545 7.4785156 10.423828 C 7.4328717 11.073889 7.2044145 12.258959 7.5195312 12.623047 L 7.4902344 12.927734 C 7.5333495 13.014098 7.5655117 13.102284 7.6191406 13.183594 L 7.5488281 13.1875 C 7.8803128 14.233586 7.9058069 13.208515 8.34375 14.294922 C 8.2801412 14.273498 8.2155328 14.249823 8.1230469 14.125 C 8.1118687 14.220281 8.2585127 14.505353 8.4316406 14.728516 L 8.3574219 14.8125 C 8.4538998 14.988029 8.5424391 15.026941 8.609375 15.087891 C 8.2490134 14.891209 8.9451346 15.736094 9.0078125 15.84375 L 9.0625 15.744141 C 9.0543825 15.886129 9.1634098 16.070582 9.3691406 16.324219 L 9.5410156 16.316406 C 9.6115443 16.456266 9.870716 16.708723 10.027344 16.720703 L 9.921875 16.855469 C 10.314973 16.979892 10.112648 17.020407 10.595703 17.191406 L 10.498047 17.019531 C 10.744498 17.233379 10.822202 17.420039 11.169922 17.583984 C 11.652178 17.752055 11.714219 17.686536 12.208984 17.828125 C 11.789539 17.816415 11.298415 17.820006 10.966797 17.701172 C 8.7042898 17.088504 6.6339853 14.435023 6.7851562 11.701172 C 6.7504225 11.147721 6.8401338 10.45609 6.7480469 10.318359 C 6.8772606 9.897051 7.0267147 9.3825555 7.328125 8.7714844 C 7.3461959 8.7871225 7.4163748 8.826776 7.53125 8.6308594 C 7.6241349 8.4268585 7.6994352 8.2023182 7.8164062 8.0039062 L 7.8769531 7.9902344 C 7.8944373 7.8886104 7.9733343 7.7704636 8.078125 7.6484375 L 4.4375 3.7949219 z M 12.185547 5.8300781 C 12.043987 5.8582281 11.856639 5.8391493 11.726562 5.8867188 L 11.644531 5.875 C 11.822778 5.8522818 12.0041 5.8449815 12.185547 5.8300781 z M 11.859375 7.0097656 C 11.559385 7.0187897 11.290649 7.0685355 11.103516 7.1601562 C 11.172182 7.0993422 11.445781 7.0722326 11.363281 7.0253906 C 10.581744 7.1029721 10.755478 7.298271 10.15625 7.4511719 C 9.9920388 7.6099277 10.637404 7.3236991 10.291016 7.5292969 C 10.026576 7.6023324 9.8759427 7.5233476 9.5664062 7.765625 L 11.195312 9.4921875 C 11.452095 9.2868009 11.799478 9.1406706 12.162109 9.1347656 C 12.762402 9.1020297 13.270955 9.4555816 13.525391 9.7890625 C 13.062164 9.3567084 12.303383 9.2267014 11.65625 9.546875 C 11.561919 9.5893541 11.475483 9.6424421 11.392578 9.7011719 L 14.228516 12.703125 C 14.411005 12.555787 14.625355 12.361545 14.759766 12.242188 C 14.860496 12.024877 14.705045 12.124894 14.845703 11.851562 L 15.017578 11.765625 C 15.113254 11.489365 15.219011 11.333222 15.207031 11.011719 L 15.107422 11.224609 C 15.255272 10.777751 15.170646 10.289918 15.191406 9.8691406 L 15.150391 9.859375 C 15.114195 8.8010458 14.198774 7.6756436 13.384766 7.2949219 C 12.945958 7.0924015 12.359359 6.9947255 11.859375 7.0097656 z M 7.0078125 8.4160156 C 7.0278807 8.4890392 7.1965307 8.2993176 7.0605469 8.6054688 C 6.9761287 8.664603 6.94133 8.6949721 6.9335938 8.6992188 C 6.937031 8.6880082 7.019269 8.584014 7.0078125 8.4160156 z M 6.7851562 9.3066406 C 6.7613355 9.4174904 6.7499109 9.5333836 6.6875 9.7246094 C 6.705598 9.5749023 6.6130929 9.5267433 6.7851562 9.3066406 z M 10.773438 10.503906 C 10.677736 10.753953 10.636746 11.02681 10.658203 11.298828 C 10.682683 11.262899 10.705087 11.284744 10.716797 11.195312 C 10.697023 12.573736 12.167924 13.588828 13.269531 13.146484 L 12.380859 12.205078 C 12.378423 12.203291 12.378767 12.200919 12.376953 12.199219 L 10.773438 10.503906 z M 13.871094 10.636719 C 13.895695 10.636087 13.914454 10.697903 13.902344 10.876953 C 13.866544 11.021204 13.835828 10.787008 13.798828 10.767578 C 13.814733 10.699378 13.846493 10.637351 13.871094 10.636719 z M 16.046875 11.240234 C 15.993247 11.648369 15.865806 12.051708 15.669922 12.419922 C 15.847175 12.070871 15.964088 11.694776 16.017578 11.314453 L 16.046875 11.240234 z M 13.736328 11.408203 C 13.70131 11.580863 13.619219 11.749018 13.507812 11.902344 C 13.522454 11.761686 13.17864 11.9624 13.578125 11.458984 C 13.543261 11.600973 13.206452 11.974309 13.578125 11.740234 C 13.639927 11.630258 13.705224 11.525986 13.736328 11.408203 z M 10.423828 12.167969 C 10.469872 12.259523 10.510878 12.351084 10.580078 12.427734 L 10.640625 12.609375 C 10.557188 12.468317 10.467748 12.32912 10.423828 12.167969 z M 10.269531 12.441406 C 10.433744 12.758386 10.522546 12.853816 10.642578 13.087891 C 10.475837 12.949495 10.372997 12.75773 10.242188 12.580078 L 10.269531 12.441406 z " />
  <path
     style="color:#000000;fill:#808080;-inkscape-stroke:none"
     d="m 3.3632813,2.65625 -0.7265625,0.6875 17.0000002,18 0.726562,-0.6875 z"
     id="path1023" />
</svg>
