<svg height="24" width="24" xmlns="http://www.w3.org/2000/svg"><path style="color:#000;fill:gray;fill-opacity:1" d="m3.363 2.656-.726.688 1.406 1.49A4.768 4.768 0 0 0 4 5.5v13c0 .542.064.984.23 1.36.167.375.458.668.797.837.68.34 1.473.303 2.473.303h8c1 0 1.794.037 2.473-.303a1.71 1.71 0 0 0 .59-.492l1.074 1.139.726-.688-1.406-1.488v-.002L18 18.154l-4.416-4.675-.314-.333-2.497-2.642v-.002l-.197-.209-1.818-1.924-.68-.72-2.932-3.106-.705-.746-1.078-1.14zM6.787 3c-.577.005-1.078.038-1.53.205l.806.852C6.428 4.013 6.912 4 7.5 4h8c1 0 1.706.037 2.027.197.16.08.245.163.328.35.084.187.145.495.145.953v11.197l1 1.059V5.5c0-.542-.064-.984-.23-1.36a1.72 1.72 0 0 0-.797-.837C17.293 2.963 16.5 3 15.5 3h-8c-.25 0-.487-.002-.713 0zm5.399 2.83c-.182.015-.363.022-.541.045l.082.012c.13-.048.317-.029.459-.057zM5 5.846l2.563 2.713-.032.072c-.115.196-.185.156-.203.14-.301.612-.45 1.126-.58 1.547.092.138.002.83.037 1.383-.151 2.734 1.92 5.388 4.182 6 .331.119.823.115 1.242.127-.495-.141-.557-.076-1.04-.244-.347-.164-.425-.35-.671-.564l.098.171c-.483-.17-.281-.211-.674-.336l.105-.134c-.156-.012-.415-.265-.486-.405l-.172.008c-.206-.253-.315-.438-.306-.58l-.055.1c-.063-.108-.759-.953-.399-.756-.067-.061-.155-.1-.252-.275l.075-.084c-.173-.224-.32-.509-.309-.604.093.125.157.148.22.17-.437-1.086-.463-.061-.794-1.107l.07-.004c-.053-.082-.086-.17-.129-.256l.03-.305c-.316-.364-.087-1.55-.041-2.2.03-.263.261-.546.437-.987l-.105-.018c.046-.08.138-.202.246-.334l2.297 2.432c.085.79.541 1.245 1.212 1.76.068.045.078.072.073.095.209.078.419.133.629.17l.218.232a2.222 2.222 0 0 1-.504-.113c-.163-.084-.383-.257-.343-.289-.005.024-.025.043-.016.078a2.331 2.331 0 0 1-.764-.582c.115.167.237.33.397.457-.27-.09-.63-.655-.735-.678.363.65 1.306 1.173 2.057 1.225l5.276 5.586a.614.614 0 0 1-.327.346c-.32.16-1.027.197-2.027.197h-8c-1 0-1.706-.037-2.027-.197a.615.615 0 0 1-.328-.35C5.06 19.266 5 18.958 5 18.5V5.846zm6.387.066c-.302.018-.722.177-.592.033-.493.22-1.368.53-1.86.99l-.015-.103a1.66 1.66 0 0 1-.12.125l.766.809c.31-.243.46-.164.725-.237.346-.205-.299.08-.135-.078.6-.153.426-.348 1.207-.426.083.047-.19.074-.26.135.5-.244 1.58-.19 2.282.135.814.38 1.73 1.506 1.765 2.564l.041.01c-.02.42.064.909-.084 1.356l.1-.213c.012.321-.094.477-.19.754l-.171.086c-.141.273.014.173-.086.39-.135.12-.349.314-.531.461l.285.303c.023-.018.047-.034.07-.053.224-.174.468-.47.539-.474-.106.16.017.077-.064.218.222-.36-.097-.147.23-.62l.121.165c-.045-.298.37-.66.328-1.133.096-.144.107.157.006.489.14-.369.036-.429.072-.733.04.102.091.213.118.32-.092-.355.092-.6.138-.806-.045-.02-.14.156-.162-.264.003-.182.05-.095.069-.14-.036-.021-.13-.162-.188-.43.041-.063.112.165.168.174-.036-.214-.099-.377-.102-.541-.165-.345-.057.047-.191-.147-.176-.547.144-.128.166-.377.266.386.418.983.488 1.23a5.038 5.038 0 0 0-.244-.876c.081.034-.13-.62.106-.186-.252-.924-1.076-1.788-1.834-2.193.092.085.21.19.168.207-.378-.224-.312-.241-.366-.336-.306-.125-.326.01-.529 0-.579-.307-.69-.275-1.223-.467l.024.113c-.384-.127-.447.048-.861 0-.026-.02.133-.07.263-.09-.37.05-.354-.072-.717.014.09-.062.184-.105.28-.158zm.437.145.069-.006.005-.01-.074.016zm.074-.016c.117-.026.144-.048-.21-.059.106.02.228.034.21.059zM7.006 8.396l.002.014-.002-.014zm.002.02c.011.168-.071.272-.074.283.007-.004.042-.034.127-.094.136-.306-.033-.116-.053-.189zm5.154.719c-.363.006-.71.152-.967.357l.198.21c.082-.06.169-.113.263-.155.647-.32 1.406-.19 1.87.242-.255-.333-.764-.687-1.364-.654zm-5.377.172c-.172.22-.08.268-.098.418.063-.192.074-.308.098-.418zm7.086 1.33c-.025 0-.056.062-.072.13.037.02.068.254.103.11.012-.18-.006-.24-.03-.24zm2.176.603-.03.074c-.053.38-.17.757-.347 1.106a3.49 3.49 0 0 0 .377-1.18zm-2.31.168c-.032.118-.097.222-.159.332-.372.234-.035-.139 0-.281-.4.503-.056.303-.07.443a1.29 1.29 0 0 0 .228-.494zm-2.776.75.732.776a2.17 2.17 0 0 1-.732-.776zm-.537.01c.044.161.133.3.217.441l-.06-.181c-.07-.077-.111-.168-.157-.26zm-.154.273-.028.14c.131.177.234.368.4.507-.12-.234-.208-.33-.372-.647z"/></svg>