<svg height="24" width="24" xmlns="http://www.w3.org/2000/svg"><path style="color:#000;fill:gray;fill-opacity:1;-inkscape-stroke:none" d="M6.787 3c-.577.005-1.078.038-1.53.205L11 9.285V4h1v6.344l7 7.412V5.5c0-.542-.064-.984-.23-1.36a1.72 1.72 0 0 0-.797-.837C17.293 2.963 16.5 3 15.5 3h-8c-.25 0-.487-.002-.713 0zm-2.35.795a1.72 1.72 0 0 0-.207.346C4.064 4.516 4 4.958 4 5.5v13c0 .542.064.984.23 1.36.167.375.458.668.797.837.68.34 1.473.303 2.473.303h8c1 0 1.794.037 2.473-.303.34-.17.63-.462.797-.838a2.6 2.6 0 0 0 .187-.693l-2.15-2.275A.494.494 0 0 1 16.5 17h-3a.499.499 0 1 1 0-1h2.465L12 11.8V20h-1v-9.258L4.437 3.795zM6.5 15h3c.277 0 .5.223.5.5v3c0 .277-.223.5-.5.5h-3a.499.499 0 0 1-.5-.5v-3c0-.277.223-.5.5-.5zm7 3h3a.499.499 0 1 1 0 1h-3a.499.499 0 1 1 0-1z"/><path style="color:#000;fill:gray;-inkscape-stroke:none" d="m3.363 2.656-.726.688 17 18 .726-.688z"/></svg>