<svg height="24" width="24" xmlns="http://www.w3.org/2000/svg"><path style="color:#000;fill:gray;fill-opacity:1" d="m3.363 2.656-.726.688 1.408 1.49A4.75 4.75 0 0 0 4 5.502v13c0 .542.064.984.23 1.36.167.375.458.667.797.837.68.34 1.473.303 2.473.303h8c1 0 1.794.037 2.473-.303a1.71 1.71 0 0 0 .59-.492l1.074 1.137.726-.688-1.406-1.488v-.002L18 18.154l-2.836-3.004-3.51-3.714L9.412 9.06l-.533-.565-3.733-3.951-.294-.313-.413-.437-1.076-1.139zM16.213 3c-.226-.002-.463.002-.713.002h-8c-.25 0-.487-.002-.713 0-.576.005-1.078.037-1.53.203l.807.854c.367-.043.849-.057 1.436-.057h8c1 0 1.706.037 2.027.197.16.08.245.163.328.35.084.187.145.495.145.953v11.195l1 1.059V5.502c0-.542-.064-.984-.23-1.36a1.72 1.72 0 0 0-.797-.837c-.51-.255-1.083-.3-1.76-.305zM5 5.846l2.967 3.14-.967.52V14.7l4.5 2.416 2.75-1.476 3.605 3.816a.615.615 0 0 1-.328.348c-.32.16-1.027.197-2.027.197h-8c-1 0-1.706-.037-2.027-.197a.615.615 0 0 1-.328-.35C5.06 19.268 5 18.96 5 18.502V5.846zm6.5 1.242-1.709.918.533.564 1.176-.63 3.332 1.789-2.266 1.216L16 14.58V9.506l-4.5-2.418zM8.498 9.55l.682.72-1.012-.542.33-.178z"/></svg>