<svg height="24" width="24" xmlns="http://www.w3.org/2000/svg"><path style="color:#000;fill:gray;fill-opacity:1;-inkscape-stroke:none" d="m3.363 2.656-.726.688 1.406 1.49A4.768 4.768 0 0 0 4 5.5v13c0 .542.064.984.23 1.36.167.375.458.668.797.837.68.34 1.473.303 2.473.303h8c1 0 1.794.037 2.473-.303a1.71 1.71 0 0 0 .59-.492l1.074 1.139.726-.688-1.406-1.488v-.002l-6.28-6.646L12 11.8l-.758-.802-1.674-1.771-5.13-5.432-1.075-1.139zM6.787 3c-.577.005-1.078.038-1.53.205L12 10.344v-.334l2.064.941-.72.815L19 17.756V5.5c0-.542-.064-.984-.23-1.36a1.72 1.72 0 0 0-.797-.837C17.293 2.963 16.5 3 15.5 3h-8c-.25 0-.487-.002-.713 0zm-.621 5 1.316.475 3.76 3.98v1.004L6.166 8zm6.055 1H16l.873 2-4.652-2zm-2.465 4.168 1.232 1.234L7.5 17.891l2.256-4.723zm2.244.09.012.013-.012.014v-.027z"/></svg>