<svg height="24" width="24" xmlns="http://www.w3.org/2000/svg"><path style="color:#000;fill:gray;fill-opacity:1" d="m3.363 2.656-.726.688 1.406 1.49A4.768 4.768 0 0 0 4 5.5v13c0 .542.064.984.23 1.36.167.375.458.668.797.837.68.34 1.473.303 2.473.303h8c1 0 1.794.037 2.473-.303a1.71 1.71 0 0 0 .59-.492l1.074 1.139.726-.688-1.406-1.488v-.002L18 18.154l-5.322-5.634-.543-.575-.135-.144-.758-.803-1.674-1.771-4.422-4.684-.705-.746-1.078-1.14zM6.787 3c-.577.005-1.078.038-1.53.205l.806.852C6.428 4.013 6.912 4 7.5 4h8c1 0 1.706.037 2.027.197.16.08.245.163.328.35.084.187.145.495.145.953v11.197l1 1.059V5.5c0-.542-.064-.984-.23-1.36a1.72 1.72 0 0 0-.797-.837C17.293 2.963 16.5 3 15.5 3h-8c-.25 0-.487-.002-.713 0zM5 5.846l2.482 2.629L6.166 8l5.076 5.459v-1.004l.758.803v.027l.012-.014 5.842 6.186a.614.614 0 0 1-.327.346c-.32.16-1.027.197-2.027.197h-8c-1 0-1.706-.037-2.027-.197a.615.615 0 0 1-.328-.35C5.06 19.266 5 18.958 5 18.5V5.846zM12.22 9l4.653 2L16 9h-3.78zM12 10.01v.334l1.344 1.422.72-.815L12 10.01zm-2.244 3.158L7.5 17.891l3.488-3.489-1.232-1.234z"/></svg>