<svg height="24" width="24" xmlns="http://www.w3.org/2000/svg"><path style="color:#000;font-style:normal;font-variant:normal;font-weight:400;font-stretch:normal;font-size:medium;line-height:normal;font-family:sans-serif;font-variant-ligatures:normal;font-variant-position:normal;font-variant-caps:normal;font-variant-numeric:normal;font-variant-alternates:normal;font-feature-settings:normal;text-indent:0;text-align:start;text-decoration:none;text-decoration-line:none;text-decoration-style:solid;text-decoration-color:#000;letter-spacing:normal;word-spacing:normal;text-transform:none;writing-mode:lr-tb;direction:ltr;text-orientation:mixed;dominant-baseline:auto;baseline-shift:baseline;text-anchor:start;white-space:normal;shape-padding:0;clip-rule:nonzero;display:inline;overflow:visible;visibility:visible;opacity:1;isolation:auto;mix-blend-mode:normal;color-interpolation:sRGB;color-interpolation-filters:linearRGB;solid-color:#000;solid-opacity:1;vector-effect:none;fill:gray;fill-opacity:1;stroke:none;stroke-width:1;stroke-linecap:butt;stroke-linejoin:miter;stroke-miterlimit:4;stroke-dasharray:none;stroke-dashoffset:0;stroke-opacity:1;color-rendering:auto;image-rendering:auto;shape-rendering:auto;text-rendering:auto;enable-background:accumulate" d="M8.584 4.041a8.687 8.687 0 0 0-1.142.596 41.573 41.573 0 0 0-.07 4.475c.263-.143.56-.232.878-.232.127 0 .251.015.371.039a39.87 39.87 0 0 1 .103-4.866zm-.339.073a8.75 8.75 0 0 0-.359.178c.118-.062.238-.12.36-.178zm7.876.257a20.465 20.465 0 0 1-.251 2.714c.162-.046.329-.08.505-.08.268 0 .52.06.752.163.102-.657.167-1.323.212-1.994a8.687 8.687 0 0 0-1.218-.803zM4.55 7.588a8.687 8.687 0 0 0-.564 1.136c.736.51 1.484 1.017 2.263 1.516a21.772 21.772 0 0 0-2.913 1.496 8.687 8.687 0 0 0-.022.264 8.687 8.687 0 0 0 .09 1.14A20.487 20.487 0 0 1 6.54 11.5a1.833 1.833 0 0 1-.164-.75c0-.597.29-1.126.732-1.47A86.062 86.062 0 0 1 4.55 7.588zm11.826.042a1.25 1.245 0 0 0-1.25 1.245 1.25 1.245 0 0 0 1.25 1.245 1.25 1.245 0 0 0 1.25-1.245 1.25 1.245 0 0 0-1.25-1.245zm-12.06.217a8.75 8.75 0 0 0-.137.25c.043-.085.09-.167.136-.25zm15.314.032c-.545.023-1.101.036-1.638.068.16.275.26.59.259.928 0 .106-.014.209-.032.31.638-.036 1.303-.053 1.956-.078a8.687 8.687 0 0 0-.545-1.228zm-5.007.354c-1.834.209-3.608.518-5.312.979.373.258.645.647.756 1.099a35.472 35.472 0 0 1 4.551-.811 1.824 1.824 0 0 1-.117-.625c0-.226.047-.44.122-.642zM8.25 9.505A1.25 1.245 0 0 0 7 10.75a1.25 1.245 0 0 0 1.25 1.245A1.25 1.245 0 0 0 9.5 10.75a1.25 1.245 0 0 0-1.25-1.245zm6.873.75a23.35 23.35 0 0 1-.64 1.747L14.5 12c.439 0 .84.158 1.162.415.224-.551.43-1.11.615-1.68a1.863 1.863 0 0 1-1.154-.48zm-5.027.783c-.07.436-.29.821-.608 1.104a38.099 38.099 0 0 0 3.157 1.535c.046-.44.24-.838.542-1.135a36.95 36.95 0 0 1-3.091-1.504zm-1.114 1.428a1.847 1.847 0 0 1-.732.154c-.196 0-.38-.04-.56-.098a21.15 21.15 0 0 0 .709 2.974c.31-.228.69-.366 1.101-.366.033 0 .065.007.098.01-.268-.85-.459-1.75-.616-2.674zm5.518.159a1.25 1.245 0 0 0-1.25 1.245 1.25 1.245 0 0 0 1.25 1.245 1.25 1.245 0 0 0 1.25-1.245 1.25 1.245 0 0 0-1.25-1.245zm1.858 1.082c.005.054.017.107.017.163 0 .39-.123.754-.332 1.055 1.234.359 2.5.62 3.796.776a8.687 8.687 0 0 0 .467-1.199 22.51 22.51 0 0 1-3.948-.795zm-3.694.54a9.985 9.985 0 0 1-1.963 1.332c.324.274.556.649.637 1.08a11.19 11.19 0 0 0 1.995-1.341 1.87 1.87 0 0 1-.669-1.072zm7.683.353a8.757 8.757 0 0 1-.088.259 8.75 8.75 0 0 0 .088-.259zM9.5 15.755A1.25 1.245 0 0 0 8.25 17a1.25 1.245 0 0 0 1.25 1.245A1.25 1.245 0 0 0 10.75 17a1.25 1.245 0 0 0-1.25-1.245zm-1.84.925c-.182.046-.367.11-.545.147-.78.16-1.49.232-2.144.273a8.687 8.687 0 0 0 1.026 1.162c.441-.052.891-.111 1.37-.21.166-.034.342-.096.512-.136A1.831 1.831 0 0 1 7.625 17c0-.11.016-.216.034-.32zm3.27 1.509a1.875 1.875 0 0 1-1.09.647c.183.314.614 1.095 1.003 1.76a8.687 8.687 0 0 0 1.157.09 8.687 8.687 0 0 0 .347-.026c-.365-.526-1.17-2.033-1.416-2.471z"/><path style="fill:gray;stroke:none;stroke-width:2;stroke-linecap:square;stroke-linejoin:round" d="M12 2A10 10 0 0 0 2 12a10 10 0 0 0 10 10 10 10 0 0 0 10-10A10 10 0 0 0 12 2zm0 1a9 9 0 0 1 9 9 9 9 0 0 1-9 9 9 9 0 0 1-9-9 9 9 0 0 1 9-9z"/></svg>