<svg height="24" width="24" xmlns="http://www.w3.org/2000/svg"><path style="color:#000;font-style:normal;font-variant:normal;font-weight:400;font-stretch:normal;font-size:medium;line-height:normal;font-family:sans-serif;font-variant-ligatures:normal;font-variant-position:normal;font-variant-caps:normal;font-variant-numeric:normal;font-variant-alternates:normal;font-feature-settings:normal;text-indent:0;text-align:start;text-decoration:none;text-decoration-line:none;text-decoration-style:solid;text-decoration-color:#000;letter-spacing:normal;word-spacing:normal;text-transform:none;writing-mode:lr-tb;direction:ltr;text-orientation:mixed;dominant-baseline:auto;baseline-shift:baseline;text-anchor:start;white-space:normal;shape-padding:0;clip-rule:nonzero;display:inline;overflow:visible;visibility:visible;opacity:1;isolation:auto;mix-blend-mode:normal;color-interpolation:sRGB;color-interpolation-filters:linearRGB;solid-color:#000;solid-opacity:1;fill:gray;fill-opacity:1;stroke:none;stroke-width:1;stroke-linecap:butt;stroke-linejoin:miter;stroke-miterlimit:4;stroke-dasharray:none;stroke-dashoffset:0;stroke-opacity:1;color-rendering:auto;image-rendering:auto;shape-rendering:auto;text-rendering:auto;enable-background:accumulate" d="M12 2A10 10 0 0 0 2 12a10 10 0 0 0 10 10 10 10 0 0 0 2.043-.236 5.5 5.5 0 0 1-.846-.858A9 9 0 0 1 12 21a9 9 0 0 1-9-9 9 9 0 0 1 9-9 9 9 0 0 1 9 9 9 9 0 0 1-.094 1.184 5.5 5.5 0 0 1 .86.847A10 10 0 0 0 22 12 10 10 0 0 0 12 2zM8.584 4.041a8.687 8.687 0 0 0-1.143.596 41.563 41.563 0 0 0-.07 4.474c.264-.142.56-.232.879-.232.127 0 .251.017.371.04a39.889 39.889 0 0 1 .102-4.866l-.139-.012zm-.338.074a8.75 8.75 0 0 0-.36.178c.119-.063.24-.12.36-.178zm7.875.256a20.466 20.466 0 0 1-.252 2.715c.162-.046.33-.08.506-.08.268 0 .52.06.752.162.102-.657.168-1.323.213-1.994a8.687 8.687 0 0 0-1.219-.803zM4.55 7.588a8.687 8.687 0 0 0-.565 1.137 76.763 76.763 0 0 0 2.264 1.515 21.763 21.763 0 0 0-2.912 1.496 8.687 8.687 0 0 0-.022.264 8.687 8.687 0 0 0 .09 1.14A20.487 20.487 0 0 1 6.54 11.5a1.835 1.835 0 0 1-.164-.75c0-.597.29-1.125.732-1.469A86.085 86.085 0 0 1 4.55 7.588zm11.826.043a1.25 1.245 0 0 0-1.25 1.244 1.25 1.245 0 0 0 1.25 1.246 1.25 1.245 0 0 0 1.25-1.246 1.25 1.245 0 0 0-1.25-1.244zm-12.06.217a8.75 8.75 0 0 0-.137.248c.043-.085.09-.165.136-.248zm15.314.03c-.545.024-1.1.037-1.637.07.16.274.258.588.258.927 0 .106-.014.21-.031.31.638-.036 1.302-.053 1.955-.078a8.687 8.687 0 0 0-.545-1.228zm-5.008.354c-1.833.21-3.608.52-5.312.98.373.259.646.647.757 1.099a35.472 35.472 0 0 1 4.551-.811 1.824 1.824 0 0 1-.117-.625c0-.226.046-.441.121-.643zM8.25 9.506A1.25 1.245 0 0 0 7 10.75a1.25 1.245 0 0 0 1.25 1.246A1.25 1.245 0 0 0 9.5 10.75a1.25 1.245 0 0 0-1.25-1.244zm6.873.748c-.19.592-.404 1.174-.64 1.748L14.5 12c.404 0 .774.138 1.082.36a5.5 5.5 0 0 1 .117-.044c.21-.52.404-1.045.578-1.582a1.861 1.861 0 0 1-1.154-.48zm-5.027.785c-.07.436-.29.821-.608 1.104a38.084 38.084 0 0 0 3.157 1.535 1.86 1.86 0 0 1 .543-1.135 36.969 36.969 0 0 1-3.092-1.504zm-1.114 1.428a1.848 1.848 0 0 1-.732.154 1.83 1.83 0 0 1-.559-.1 21.3 21.3 0 0 0 .707 2.975A1.86 1.86 0 0 1 9.5 15.13c.033 0 .065.009.098.012-.268-.85-.459-1.75-.616-2.674zm5.518.158a1.25 1.245 0 0 0-1.25 1.246 1.25 1.245 0 0 0 .023.121 5.5 5.5 0 0 1 1.598-1.308 1.25 1.245 0 0 0-.371-.059zm-1.836 1.621a9.99 9.99 0 0 1-1.963 1.334c.324.274.556.648.637 1.078.284-.15.563-.316.838-.492a5.5 5.5 0 0 1 .629-1.512 1.776 1.776 0 0 1-.14-.408zM9.5 15.756A1.25 1.245 0 0 0 8.25 17a1.25 1.245 0 0 0 1.25 1.246A1.25 1.245 0 0 0 10.75 17a1.25 1.245 0 0 0-1.25-1.244zm-1.84.924c-.18.045-.367.11-.545.146-.78.16-1.49.233-2.144.274a8.687 8.687 0 0 0 1.025 1.162c.442-.053.893-.111 1.371-.21.167-.034.342-.096.512-.136A1.833 1.833 0 0 1 7.625 17c0-.11.017-.216.035-.32zm3.27 1.51a1.87 1.87 0 0 1-1.09.646c.184.314.615 1.095 1.004 1.76a8.687 8.687 0 0 0 1.156.091 8.687 8.687 0 0 0 .348-.027c-.365-.526-1.171-2.032-1.418-2.47z"/><path style="fill:gray;fill-opacity:1;stroke-width:.5;stroke-linecap:round;stroke-linejoin:round" d="M17.5 13a4.5 4.5 0 1 0 0 9 4.5 4.5 0 0 0 0-9zm-1.646 2.146 1.646 1.647 1.646-1.647.708.708-1.647 1.646 1.647 1.646-.708.708-1.646-1.647-1.646 1.647-.708-.708 1.647-1.646-1.647-1.646z"/></svg>