<svg height="24" width="24" xmlns="http://www.w3.org/2000/svg"><path style="fill:gray;stroke:none;stroke-width:2;stroke-linecap:square;stroke-linejoin:round" d="M12 2A10 10 0 0 0 2 12a10 10 0 0 0 10 10 10 10 0 0 0 2.043-.236A5.5 5.5 0 0 1 12 17.5a5.5 5.5 0 0 1 .176-1.334c-.275.176-.554.342-.838.492a1.866 1.866 0 0 0-.637-1.08 9.98 9.98 0 0 0 1.963-1.332c.03.143.079.28.14.408a5.5 5.5 0 0 1 .471-.664 1.25 1.245 0 0 1-.025-.12 1.25 1.245 0 0 1 1.25-1.245 1.25 1.245 0 0 1 .354.068 5.5 5.5 0 0 1 .728-.334A1.843 1.843 0 0 0 14.5 12l-.018.002c.237-.574.45-1.156.641-1.748.31.28.712.457 1.154.48a24.391 24.391 0 0 1-.578 1.582A5.5 5.5 0 0 1 17.5 12a5.5 5.5 0 0 1 4.266 2.031A10 10 0 0 0 22 12 10 10 0 0 0 12 2zM8.584 4.041l.14.012a39.866 39.866 0 0 0-.103 4.865 1.875 1.875 0 0 0-.371-.04c-.319 0-.615.09-.879.233a41.98 41.98 0 0 1 .07-4.474 8.687 8.687 0 0 1 1.143-.596zm7.537.33a8.687 8.687 0 0 1 1.219.803 23.203 23.203 0 0 1-.213 1.994 1.846 1.846 0 0 0-.752-.164c-.176 0-.344.036-.506.082.144-.892.228-1.797.252-2.715zM4.55 7.588a86.053 86.053 0 0 0 2.558 1.691 1.865 1.865 0 0 0-.732 1.471c0 .267.061.52.164.75a20.487 20.487 0 0 0-3.135 1.64 8.687 8.687 0 0 1-.09-1.14 8.687 8.687 0 0 1 .022-.264c.946-.57 1.91-1.081 2.912-1.496a76.142 76.142 0 0 1-2.264-1.517 8.687 8.687 0 0 1 .565-1.135zm11.826.04a1.25 1.245 0 0 1 1.25 1.247 1.25 1.245 0 0 1-1.25 1.244 1.25 1.245 0 0 1-1.25-1.244 1.25 1.245 0 0 1 1.25-1.246zm3.254.25a8.687 8.687 0 0 1 .545 1.23c-.653.024-1.317.041-1.955.078.017-.102.031-.205.031-.311 0-.339-.097-.653-.258-.928.537-.032 1.092-.045 1.637-.068zm-5.008.354a1.83 1.83 0 0 0-.121.643c0 .22.046.428.117.625a35.472 35.472 0 0 0-4.55.81 1.883 1.883 0 0 0-.756-1.1c1.704-.46 3.477-.769 5.31-.978zM8.25 9.504A1.25 1.245 0 0 1 9.5 10.75a1.25 1.245 0 0 1-1.25 1.244A1.25 1.245 0 0 1 7 10.75a1.25 1.245 0 0 1 1.25-1.246zm1.846 1.533a36.969 36.969 0 0 0 3.091 1.504 1.865 1.865 0 0 0-.542 1.137 38.102 38.102 0 0 1-3.157-1.537c.319-.283.539-.668.608-1.104zm-1.114 1.43c.157.924.348 1.825.616 2.674-.033-.003-.065-.012-.098-.012-.411 0-.79.14-1.102.367a21.162 21.162 0 0 1-.707-2.975c.179.057.363.098.559.098.26 0 .506-.055.732-.152zm.518 3.287A1.25 1.245 0 0 1 10.75 17a1.25 1.245 0 0 1-1.25 1.244A1.25 1.245 0 0 1 8.25 17a1.25 1.245 0 0 1 1.25-1.246zm-1.84.926a1.852 1.852 0 0 0-.035.32c0 .334.098.644.254.916-.17.04-.347.102-.514.137-.478.098-.927.156-1.369.209A8.687 8.687 0 0 1 4.971 17.1a15.222 15.222 0 0 0 2.144-.274c.178-.036.364-.1.545-.146zm3.27 1.51c.247.438 1.053 1.944 1.418 2.47a8.687 8.687 0 0 1-.348.027 8.687 8.687 0 0 1-1.156-.091c-.389-.665-.82-1.446-1.004-1.76a1.87 1.87 0 0 0 1.09-.647z"/><path style="fill:gray;fill-opacity:1;stroke-width:.5;stroke-linecap:round;stroke-linejoin:round" d="M17.5 13a4.5 4.5 0 1 0 0 9 4.5 4.5 0 0 0 0-9zm-1.646 2.146 1.646 1.647 1.646-1.647.708.708-1.647 1.646 1.647 1.646-.708.708-1.646-1.647-1.646 1.647-.708-.708 1.647-1.646-1.647-1.646z"/></svg>