<svg height="24" width="24" xmlns="http://www.w3.org/2000/svg"><path style="fill:gray;stroke-width:.5;stroke-linecap:round;stroke-linejoin:round;fill-opacity:1" d="M11.5 11a1.5 1.5 0 0 0-1.5 1.5 1.5 1.5 0 0 0 1 1.41V22h1v-8.09a1.5 1.5 0 0 0 1-1.41 1.5 1.5 0 0 0-1.5-1.5z"/><path style="color:#000;fill:gray;stroke-linejoin:round;-inkscape-stroke:none" d="M11.5 8a4.736 4.736 0 0 0-3.36 1.389 4.755 4.755 0 0 0 0 6.718l.354-.353a4.248 4.248 0 0 1 0-6.012 4.248 4.248 0 0 1 6.012 0 4.248 4.248 0 0 1 0 6.012l.353.353a4.755 4.755 0 0 0 0-6.718A4.736 4.736 0 0 0 11.5 8z"/><path style="color:#000;fill:gray;stroke-linejoin:round;-inkscape-stroke:none" d="M11.5 6a6.73 6.73 0 0 0-4.774 1.975 6.755 6.755 0 0 0 0 9.546l.354-.353a6.247 6.247 0 0 1 0-8.84 6.247 6.247 0 0 1 8.84 0 6.247 6.247 0 0 1 0 8.84l.353.353a6.755 6.755 0 0 0 0-9.546A6.73 6.73 0 0 0 11.5 6z"/><path style="color:#000;fill:gray;stroke-linejoin:round;-inkscape-stroke:none" d="M11.5 4c-2.24 0-4.48.853-6.188 2.56-3.415 3.416-3.415 8.96 0 12.376l.354-.354a8.247 8.247 0 0 1 0-11.668 8.247 8.247 0 0 1 11.668 0 8.247 8.247 0 0 1 0 11.668l.353.354c3.415-3.415 3.415-8.96 0-12.375A8.723 8.723 0 0 0 11.5 4z"/></svg>