<?xml version="1.0" encoding="UTF-8" standalone="no"?>
<svg
   viewBox="0 1 24 24"
   height="24"
   width="24"
   version="1.1"
   id="svg10"
   sodipodi:docname="hotspot.svg"
   inkscape:version="1.2.2 (1:1.2.2+202212051551+b0a8486541)"
   xmlns:inkscape="http://www.inkscape.org/namespaces/inkscape"
   xmlns:sodipodi="http://sodipodi.sourceforge.net/DTD/sodipodi-0.dtd"
   xmlns="http://www.w3.org/2000/svg"
   xmlns:svg="http://www.w3.org/2000/svg">
  <defs
     id="defs14" />
  <sodipodi:namedview
     id="namedview12"
     pagecolor="#ffffff"
     bordercolor="#666666"
     borderopacity="1.0"
     inkscape:pageshadow="2"
     inkscape:pageopacity="0.0"
     inkscape:pagecheckerboard="0"
     showgrid="true"
     inkscape:snap-page="true"
     inkscape:zoom="19.113101"
     inkscape:cx="0.81096207"
     inkscape:cy="9.7577049"
     inkscape:window-width="1850"
     inkscape:window-height="1016"
     inkscape:window-x="0"
     inkscape:window-y="0"
     inkscape:window-maximized="1"
     inkscape:current-layer="svg10"
     inkscape:showpageshadow="2"
     inkscape:deskcolor="#d1d1d1">
    <inkscape:grid
       type="xygrid"
       id="grid1017" />
  </sodipodi:namedview>
  <path
     style="fill:#808080;fill-rule:evenodd;stroke-width:0.5;stroke-linecap:round;stroke-linejoin:round;fill-opacity:1"
     d="m 11.5,11 a 1.5,1.5 0 0 0 -1.5,1.5 a 1.5,1.5 0 0 0 1,1.410156 v 8.089844 h 1 v -8.089844 a 1.5,1.5 0 0 0 1,-1.410156 a 1.5,1.5 0 0 0 -1.5,-1.5 z"
     id="path439" />
  <path
     style="color:#000000;fill:#808080;stroke-linejoin:round;-inkscape-stroke:none"
     d="m 11.499743,8 c -1.216153,0 -2.4329275,0.4622246 -3.3593755,1.3886719 c -1.852894,1.8528951 -1.852894,4.8658551 0,6.7187501 l 0.353516,-0.353516 c -1.661821,-1.66182 -1.661821,-4.349898 0,-6.011719 c 1.6618205,-1.6618199 4.3498985,-1.6618199 6.0117185,0 c 1.661821,1.661821 1.661821,4.349899 0,6.011719 l 0.353515,0.353516 c 1.852896,-1.852895 1.852896,-4.865855 0,-6.7187501 c -0.926446,-0.9264473 -2.143221,-1.3886719 -3.359374,-1.3886719 z"
     id="path1243" />
  <path
     style="color:#000000;fill:#808080;stroke-linejoin:round;-inkscape-stroke:none"
     d="m 11.499743,6 c -1.727997,0 -3.4564665,0.6576382 -4.7734375,1.9746094 c -2.6339428,2.6339426 -2.6339427,6.9129326 0,9.5468746 l 0.353515,-0.353515 c -2.4428679,-2.442868 -2.4428679,-6.396976 0,-8.839844 c 2.442868,-2.4428682 6.3969765,-2.4428682 8.8398435,0 c 2.442869,2.442868 2.442869,6.396976 0,8.839844 l 0.353516,0.353515 c 2.633942,-2.633942 2.633942,-6.912932 0,-9.5468746 c -1.316972,-1.3169712 -3.04544,-1.9746094 -4.773437,-1.9746094 z"
     id="path1245" />
  <path
     style="color:#000000;fill:#808080;stroke-linejoin:round;-inkscape-stroke:none"
     d="m 11.499743,4 c -2.2398415,0 -4.4800055,0.8530518 -6.1875003,2.5605469 c -3.4149903,3.4149901 -3.4149902,8.9600101 0,12.3750001 l 0.3535156,-0.353516 c -3.223916,-3.223916 -3.223916,-8.444052 0,-11.6679685 c 3.2239162,-3.223916 8.4440527,-3.223916 11.6679687,0 c 3.223916,3.2239165 3.223916,8.4440525 0,11.6679685 l 0.353515,0.353516 c 3.41499,-3.41499 3.41499,-8.96001 0,-12.3750001 c -1.707495,-1.7074951 -3.947659,-2.5605469 -6.187499,-2.5605469 z"
     id="path1247" />
</svg>
