<svg height="24" width="24" xmlns="http://www.w3.org/2000/svg"><path style="color:#000;fill:gray;-inkscape-stroke:none" d="m14.398 2-.197.25s-.786 1.003-4.254 5.691l-.295.399h2.598v7.41h1.898c-2.738 3.696-3.682 4.933-3.75 5.02a481.187 481.187 0 0 1-3.752-5.02H8.75V10h-.5v5.25H5.652l.295.398c3.468 4.689 4.254 5.692 4.254 5.692l.197.25.196-.25s.784-1.003 4.252-5.692l.295-.398H12.75V7.84h-2.104a466.676 466.676 0 0 1 3.752-5.02c.068.087 1.012 1.324 3.75 5.02H16.25v5.75h.5V8.34h2.39l-.294-.399c-3.468-4.688-4.252-5.691-4.252-5.691z"/></svg>