<?xml version="1.0" encoding="UTF-8" standalone="no"?>
<svg
   viewBox="0 1 24 24"
   height="24"
   id="svg7384"
   version="1.1"
   width="24"
   sodipodi:docname="idle.svg"
   inkscape:version="1.2 (1:1.2.1+202207142221+cd75a1ee6d)"
   xmlns:inkscape="http://www.inkscape.org/namespaces/inkscape"
   xmlns:sodipodi="http://sodipodi.sourceforge.net/DTD/sodipodi-0.dtd"
   xmlns="http://www.w3.org/2000/svg"
   xmlns:svg="http://www.w3.org/2000/svg"
   xmlns:rdf="http://www.w3.org/1999/02/22-rdf-syntax-ns#"
   xmlns:cc="http://creativecommons.org/ns#"
   xmlns:dc="http://purl.org/dc/elements/1.1/">
  <sodipodi:namedview
     id="namedview22"
     pagecolor="#ffffff"
     bordercolor="#666666"
     borderopacity="1.0"
     inkscape:pageshadow="2"
     inkscape:pageopacity="0.0"
     inkscape:pagecheckerboard="0"
     showgrid="true"
     inkscape:zoom="45.254834"
     inkscape:cx="11.512582"
     inkscape:cy="9.7669124"
     inkscape:window-width="1920"
     inkscape:window-height="1043"
     inkscape:window-x="0"
     inkscape:window-y="0"
     inkscape:window-maximized="1"
     inkscape:current-layer="svg7384"
     inkscape:showpageshadow="2"
     inkscape:deskcolor="#d1d1d1">
    <inkscape:grid
       type="xygrid"
       id="grid463" />
  </sodipodi:namedview>
  <metadata
     id="metadata20854">
    <rdf:RDF>
      <cc:Work
         rdf:about="">
        <dc:format>image/svg+xml</dc:format>
        <dc:type
           rdf:resource="http://purl.org/dc/dcmitype/StillImage" />
      </cc:Work>
    </rdf:RDF>
  </metadata>
  <defs
     id="defs7386">
    <linearGradient
       id="linearGradient5606"
       inkscape:swatch="solid">
      <stop
         id="stop5608"
         offset="0"
         style="stop-color:#000000;stop-opacity:1;" />
    </linearGradient>
    <linearGradient
       id="linearGradient4526"
       inkscape:swatch="solid">
      <stop
         id="stop4528"
         offset="0"
         style="stop-color:#ffffff;stop-opacity:1;" />
    </linearGradient>
    <linearGradient
       id="linearGradient3600-4"
       inkscape:swatch="gradient">
      <stop
         id="stop3602-7"
         offset="0"
         style="stop-color:#f4f4f4;stop-opacity:1" />
      <stop
         id="stop3604-6"
         offset="1"
         style="stop-color:#dbdbdb;stop-opacity:1" />
    </linearGradient>
  </defs>
  <path
     id="path571"
     style="color:#000000;fill:#808080;-inkscape-stroke:none"
     d="m 14.398438,2 -0.197266,0.25 c 0,0 -0.786136,1.0031169 -4.2539064,5.6914062 l -0.2949218,0.3984376 h 2.5976562 v 7.4101562 h 1.898438 c -2.738633,3.695827 -3.682888,4.933321 -3.75,5.019531 -0.06693,-0.0859 -1.012748,-1.323032 -3.7519536,-5.019531 h 2.1035156 v -5.75 h -0.5 v 5.25 h -2.5976562 l 0.2949218,0.398438 c 3.4677706,4.688289 4.2539064,5.691406 4.2539064,5.691406 l 0.197266,0.25 0.195312,-0.25 c 0,0 0.784192,-1.00313 4.251953,-5.691406 l 0.294922,-0.398438 h -2.390625 v -7.4101562 h -2.103516 c 2.739207,-3.6964994 3.685024,-4.9336314 3.751954,-5.0195313 0.06711,0.08621 1.011367,1.3237039 3.75,5.0195313 h -1.898438 v 5.7500002 h 0.5 v -5.2500002 h 2.390625 l -0.294922,-0.3984376 c -3.467761,-4.6882763 -4.251953,-5.6914062 -4.251953,-5.6914062 z"
     sodipodi:nodetypes="ccccccccccccccccccccccccccccccccc" />
</svg>
