<svg height="24" width="24" xmlns="http://www.w3.org/2000/svg"><path style="fill:gray;stroke-width:.5;stroke-linecap:round;stroke-linejoin:round;fill-opacity:1" d="M9 3c-.554 0-1 .446-1 1v3c0 .554.446 1 1 1h2v3H7.5c-.806 0-1.462.13-1.916.584C5.13 12.038 5 12.694 5 13.5V15H3c-.554 0-1 .446-1 1v3c0 .554.446 1 1 1h5c.554 0 1-.446 1-1v-3c0-.554-.446-1-1-1H6v-1.5c0-.694.12-1.038.291-1.209C6.462 12.12 6.806 12 7.5 12h8c.694 0 1.038.12 1.209.291.171.171.291.515.291 1.209v.5h1v-.5c0-.806-.13-1.462-.584-1.916-.454-.454-1.11-.584-1.916-.584H12V8h2c.554 0 1-.446 1-1V4c0-.554-.446-1-1-1H9z"/><path style="color:#000;fill:gray" d="m14.853 15.146-.707.707 2.646 2.647-2.646 2.646.707.707 2.647-2.646 2.646 2.646.707-.707-2.646-2.646 2.646-2.647-.707-.707-2.646 2.646z"/></svg>