<svg height="24" width="24" xmlns="http://www.w3.org/2000/svg"><path style="color:#000;fill:gray;-inkscape-stroke:none" d="m14.602 2.004-.393.502s-.788 1.008-4.256 5.697L9.363 9H12v4h.25v2.75h1.898c-2.738 3.696-3.682 4.933-3.75 5.02a466.676 466.676 0 0 1-3.752-5.02H8.75V10h-.5v5.25H5.652l.295.398c3.468 4.689 4.254 5.692 4.254 5.692l.197.25.196-.25s.784-1.003 4.252-5.692l.295-.398H12.75V13H13V8h-1.648a544.267 544.267 0 0 1 3.25-4.35A511.12 511.12 0 0 1 17.854 8H16v6h1V9h2.844l-.59-.797c-3.468-4.689-4.258-5.697-4.258-5.697l-.394-.502z"/></svg>