<svg height="24" width="24" xmlns="http://www.w3.org/2000/svg"><path style="color:#000;fill:gray;-inkscape-stroke:none" d="m14.602 2.004-.393.502s-.788 1.008-4.256 5.697L9.363 9H12v7h1.648a544.288 544.288 0 0 1-3.25 4.35A511.064 511.064 0 0 1 7.146 16H9v-6H8v5H5.156l.59.797c3.468 4.689 4.258 5.697 4.258 5.697l.394.502.393-.502s.788-1.008 4.256-5.697l.59-.797H13V8h-1.648a544.267 544.267 0 0 1 3.25-4.35A511.12 511.12 0 0 1 17.854 8H16v6h1V9h2.844l-.59-.797c-3.468-4.689-4.258-5.697-4.258-5.697z"/></svg>