<svg height="24" width="24" xmlns="http://www.w3.org/2000/svg"><path style="color:#000;fill:gray;-inkscape-stroke:none" d="M12 2a5 5.5 0 0 0-5 5.5 5 5.5 0 0 0 5 5.5 5 5.5 0 0 0 5-5.5A5 5.5 0 0 0 12 2zm0 1a4 4.5 0 0 1 4 4.5 4 4.5 0 0 1-4 4.5 4 4.5 0 0 1-4-4.5A4 4.5 0 0 1 12 3zm0 12c-4.39.002-6.683 1.023-7.86 2.357C2.965 18.692 3 20.264 3 21h1c0-.764-.026-1.94.89-2.98.917-1.04 2.874-2.018 7.11-2.02 4.236-.002 6.193.975 7.11 2.016.916 1.04.89 2.22.89 2.984h1c0-.736.036-2.31-1.14-3.645C18.682 16.02 16.39 14.998 12 15z"/></svg>