<?xml version="1.0" encoding="UTF-8" standalone="no"?>
<svg
   viewBox="0 1 24 24"
   height="24"
   id="svg7384"
   version="1.1"
   width="24"
   sodipodi:docname="new-filled.svg"
   inkscape:version="1.2 (1:1.2.1+202207142221+cd75a1ee6d)"
   xmlns:inkscape="http://www.inkscape.org/namespaces/inkscape"
   xmlns:sodipodi="http://sodipodi.sourceforge.net/DTD/sodipodi-0.dtd"
   xmlns="http://www.w3.org/2000/svg"
   xmlns:svg="http://www.w3.org/2000/svg"
   xmlns:rdf="http://www.w3.org/1999/02/22-rdf-syntax-ns#"
   xmlns:cc="http://creativecommons.org/ns#"
   xmlns:dc="http://purl.org/dc/elements/1.1/">
  <sodipodi:namedview
     id="namedview21"
     pagecolor="#ffffff"
     bordercolor="#666666"
     borderopacity="1.0"
     inkscape:pageshadow="2"
     inkscape:pageopacity="0.0"
     inkscape:pagecheckerboard="0"
     showgrid="true"
     inkscape:snap-page="true"
     inkscape:zoom="9.8990007"
     inkscape:cx="-10.809172"
     inkscape:cy="1.3132639"
     inkscape:window-width="1920"
     inkscape:window-height="1043"
     inkscape:window-x="0"
     inkscape:window-y="0"
     inkscape:window-maximized="1"
     inkscape:current-layer="svg7384"
     inkscape:showpageshadow="2"
     inkscape:deskcolor="#d1d1d1">
    <inkscape:grid
       type="xygrid"
       id="grid1044"
       dotted="false" />
    <inkscape:grid
       type="xygrid"
       id="grid892"
       dotted="true"
       spacingx="0.5"
       spacingy="0.5"
       empspacing="10" />
  </sodipodi:namedview>
  <metadata
     id="metadata20854">
    <rdf:RDF>
      <cc:Work
         rdf:about="">
        <dc:format>image/svg+xml</dc:format>
        <dc:type
           rdf:resource="http://purl.org/dc/dcmitype/StillImage" />
      </cc:Work>
    </rdf:RDF>
  </metadata>
  <defs
     id="defs7386">
    <linearGradient
       id="linearGradient5606"
       inkscape:swatch="solid">
      <stop
         id="stop5608"
         offset="0"
         style="stop-color:#000000;stop-opacity:1;" />
    </linearGradient>
    <linearGradient
       id="linearGradient4526"
       inkscape:swatch="solid">
      <stop
         id="stop4528"
         offset="0"
         style="stop-color:#ffffff;stop-opacity:1;" />
    </linearGradient>
    <linearGradient
       id="linearGradient3600-4"
       inkscape:swatch="gradient">
      <stop
         id="stop3602-7"
         offset="0"
         style="stop-color:#f4f4f4;stop-opacity:1" />
      <stop
         id="stop3604-6"
         offset="1"
         style="stop-color:#dbdbdb;stop-opacity:1" />
    </linearGradient>
  </defs>
  <g
     id="layer2"
     style="display:inline;stroke-width:0.80002"
     transform="matrix(1.25,0,0,1.2499376,-937.99998,-522.97378)" />
  <g
     id="layer4"
     style="display:inline;stroke-width:0.80002"
     transform="matrix(1.25,0,0,1.2499376,-937.99998,-522.97378)" />
  <g
     id="g1812"
     style="display:inline;stroke-width:0.80002"
     transform="matrix(1.25,0,0,1.2499376,-937.99998,-522.97378)" />
  <g
     id="g6217"
     style="display:inline;stroke-width:0.80002"
     transform="matrix(1.25,0,0,1.2499376,-937.99998,-522.97378)" />
  <g
     id="layer3"
     style="display:inline;stroke-width:0.80002"
     transform="matrix(1.25,0,0,1.2499376,-937.99998,-522.97378)" />
  <g
     id="g1833"
     style="display:inline;stroke-width:0.80002"
     transform="matrix(1.25,0,0,1.2499376,-937.99998,-522.97378)" />
  <g
     id="layer1"
     style="display:inline;stroke-width:0.80002"
     transform="matrix(1.25,0,0,1.2499376,-937.99998,-522.97378)" />
  <path
     id="rect961"
     style="fill:#808080;fill-opacity:1;fill-rule:evenodd;stroke-linecap:round"
     d="m 18,15 v 3 h -3 v 1 h 3 v 3 h 1 v -3 h 3 v -1 h -3 v -3 z" />
  <path
     id="path308"
     style="color:#000000;fill:#808080"
     d="M 12 2 C 9.2385791 2 7 4.4624369 7 7.5 C 7 10.537563 9.2385791 13 12 13 C 14.761421 13 17 10.537563 17 7.5 C 17 4.4624369 14.761421 2 12 2 z M 12 15 C 7.6094455 15.002 5.3171823 16.023093 4.140625 17.357422 C 2.9640677 18.691751 3 20.264083 3 21 L 14 21 L 14 15.080078 C 13.385963 15.027955 12.723647 14.999673 12 15 z " />
</svg>
