<?xml version="1.0" encoding="UTF-8" standalone="no"?>
<svg viewBox="0 0 24 24" height="24" width="24" version="1.1" id="svg4" sodipodi:docname="_.svg" inkscape:version="1.1.2 (76b9e6a115, 2022-02-25)"
   xmlns:inkscape="http://www.inkscape.org/namespaces/inkscape"
   xmlns:sodipodi="http://sodipodi.sourceforge.net/DTD/sodipodi-0.dtd"
   xmlns="http://www.w3.org/2000/svg"
   xmlns:svg="http://www.w3.org/2000/svg">
   <defs id="defs8" />
   <sodipodi:namedview id="namedview6" pagecolor="#ffffff" bordercolor="#666666" borderopacity="1.0" inkscape:pageshadow="2" inkscape:pageopacity="0.0" inkscape:pagecheckerboard="0" showgrid="false" inkscape:snap-page="true" inkscape:zoom="16" inkscape:cx="-0.15625" inkscape:cy="14.34375" inkscape:window-width="1920" inkscape:window-height="1016" inkscape:window-x="0" inkscape:window-y="27" inkscape:window-maximized="1" inkscape:current-layer="svg4">
      <inkscape:grid type="xygrid" id="grid821" />
      <inkscape:grid type="xygrid" id="grid995" dotted="true" spacingx="0.5" spacingy="0.5" empspacing="10" />
   </sodipodi:namedview>
   <path id="rect714" style="fill:#808080;fill-rule:evenodd;stroke-width:0.5;stroke-linecap:square;stroke-linejoin:round" d="m 11,15 c 1.5,0 2,0.5 2,2 v 4 c 0,0.5 0,1 1,1 h -4 c 1,0 1,-0.5 1,-1 z" sodipodi:nodetypes="ccccccc" />
   <path style="color:#000000;fill:#808080;fill-rule:evenodd;-inkscape-stroke:none" d="m 12,3 c -2.4793561,-10e-8 -4.5000001,2.0206439 -4.5,4.5 v 0.00195 0.00195 c 0.001,0.1179822 0.022947,0.2341254 0.033203,0.3515625 -2.0793518,0.7321468 -3.5290506,2.6585423 -3.5332031,4.8945313 0,2.89357 2.3564308,5.25 5.25,5.25 h 0.75 v -1 h -0.75 c -2.3531308,0 -4.25,-1.896869 -4.25,-4.25 0.0036,-1.93686 1.3103924,-3.62046 3.1855469,-4.1054687 l 0.4472656,-0.1152344 -0.080078,-0.4550781 c -0.033387,-0.1894711 -0.050887,-0.381847 -0.052734,-0.5742188 v -0.00195 c -5.9e-6,-6.489e-4 5.5e-6,-0.0013 0,-0.00195 0.00215,-1.9370641 1.562416,-3.4960938 3.5,-3.4960937 1.938251,-10e-8 3.498927,1.5600559 3.5,3.4980469 -0.0028,0.616595 -0.16873,1.2219141 -0.480469,1.7539062 l -0.488281,0.8339849 0.962891,-0.08399 c 0.0032,-2.74e-4 0.0066,2.65e-4 0.0098,0 1.936879,0.0024 3.496094,1.560596 3.496094,3.498047 0,1.938918 -1.561082,3.5 -3.5,3.5 h -1.5 v 1 h 1.5 c 2.479356,0 4.5,-2.020644 4.5,-4.5 0,-2.281475 -1.736464,-4.0990766 -3.941406,-4.3867187 0.208733,-0.5226216 0.438799,-1.0446045 0.441406,-1.6113282 v -0.00195 c 0,-2.479356 -2.020644,-4.5000001 -4.5,-4.5 z" id="path1098" />
</svg>
