<?xml version="1.0" encoding="UTF-8" standalone="no"?>
<svg
   height="24"
   width="24"
   version="1.1"
   id="svg4"
   sodipodi:docname="photo.svg"
   inkscape:version="1.1 (ce6663b3b7, 2021-05-25)"
   xmlns:inkscape="http://www.inkscape.org/namespaces/inkscape"
   xmlns:sodipodi="http://sodipodi.sourceforge.net/DTD/sodipodi-0.dtd"
   xmlns="http://www.w3.org/2000/svg"
   xmlns:svg="http://www.w3.org/2000/svg">
  <defs
     id="defs8" />
  <sodipodi:namedview
     id="namedview6"
     pagecolor="#ffffff"
     bordercolor="#666666"
     borderopacity="1.0"
     inkscape:pageshadow="2"
     inkscape:pageopacity="0.0"
     inkscape:pagecheckerboard="0"
     showgrid="true"
     inkscape:zoom="28"
     inkscape:cx="5.9821429"
     inkscape:cy="7.625"
     inkscape:window-width="1920"
     inkscape:window-height="1016"
     inkscape:window-x="0"
     inkscape:window-y="27"
     inkscape:window-maximized="1"
     inkscape:current-layer="svg4">
    <inkscape:grid
       type="xygrid"
       id="grid845" />
  </sodipodi:namedview>
  <path
     id="path2"
     style="line-height:normal;font-variant-ligatures:normal;font-variant-position:normal;font-variant-caps:normal;font-variant-numeric:normal;font-variant-alternates:normal;font-feature-settings:normal;text-indent:0;text-align:start;text-decoration-line:none;text-decoration-style:solid;text-decoration-color:#000000;text-transform:none;text-orientation:mixed;shape-padding:0;isolation:auto;mix-blend-mode:normal;fill:#808080;fill-opacity:1;stroke-width:1;marker:none"
     d="m 5.75,3.25 v 1.25 0.014649 c -0.9649794,0.02058 -1.7497114,0.095368 -2.421875,0.4663086 a 2.35,2.35 0 0 0 -1.0473633,1.2475586 c -0.20625,0.54875 -0.2807617,1.2002343 -0.2807617,2.0214843 v 7.4999995 c 0,0.8225 0.074512,1.473985 0.2807617,2.021485 0.205,0.54875 0.5761133,0.987558 1.0473633,1.247558 0.94,0.52 2.0920507,0.462207 3.6645507,0.480957 h 10.0146483 c 1.5725,-0.0175 2.723301,0.03779 3.664551,-0.480957 a 2.35,2.35 0 0 0 1.047364,-1.247558 c 0.205,-0.547501 0.280761,-1.200235 0.280761,-2.021485 v -7.4999995 c 0,-0.8225 -0.07451,-1.4727343 -0.280761,-2.0214843 a 2.35,2.35 0 0 0 -1.047364,-1.2475587 c -0.94125,-0.52 -2.092051,-0.462207 -3.664551,-0.480957 h -8.757324 v -1.25 z m 1.25,2.5 h 1.25 8.75 c 1.57375,0.01875 2.608906,0.074649 3.066406,0.3271485 0.23,0.1262499 0.362149,0.2670703 0.483399,0.5908202 0.12125,0.325 0.200195,0.8420313 0.200195,1.5820313 v 7.5 c 0,0.74 -0.07895,1.257031 -0.200195,1.582031 -0.1225,0.325 -0.253399,0.46457 -0.483399,0.59082 -0.4575,0.2525 -1.492656,0.308399 -3.066406,0.327149 h -10 c -1.57375,-0.01875 -2.6125976,-0.07465 -3.0688476,-0.327149 -0.22875,-0.125 -0.358457,-0.26582 -0.4809572,-0.59082 -0.12125,-0.325 -0.2001952,-0.842031 -0.2001952,-1.582031 v -7.5 c 0,-0.74 0.078945,-1.2570313 0.2001952,-1.5820313 0.1225,-0.3249999 0.2522072,-0.4645702 0.4809572,-0.5908202 0.45625,-0.2525 1.4938476,-0.3083985 3.0688476,-0.3271485 z m 5,1.25 a 5,5 0 0 0 -5,5 5,5 0 0 0 5,5 5,5 0 0 0 5,-5 5,5 0 0 0 -5,-5 z m 6.875,0 a 0.625,0.625 0 0 0 -0.625,0.625 0.625,0.625 0 0 0 0.625,0.625 0.625,0.625 0 0 0 0.625,-0.625 0.625,0.625 0 0 0 -0.625,-0.625 z m -6.875,1.25 a 3.75,3.75 0 0 1 3.75,3.75 3.75,3.75 0 0 1 -3.75,3.75 3.75,3.75 0 0 1 -3.75,-3.75 3.75,3.75 0 0 1 3.75,-3.75 z m -0.10498,1.2548827 a 2.5,2.5 0 0 0 -2.3950195,2.4951173 2.5,2.5 0 0 0 2.5000005,2.5 2.5,2.5 0 0 0 2.5,-2.5 2.5,2.5 0 0 0 -2.375489,-2.4926758 1.25,1.25 0 0 1 1.125489,1.2426758 1.25,1.25 0 0 1 -1.25,1.25 1.25,1.25 0 0 1 -1.25,-1.25 1.25,1.25 0 0 1 1.145019,-1.2451173 z" />
</svg>
