<?xml version="1.0" encoding="UTF-8" standalone="no"?>
<svg
   height="24"
   width="24"
   version="1.1"
   id="svg8"
   sodipodi:docname="video.svg"
   inkscape:version="1.1 (ce6663b3b7, 2021-05-25)"
   xmlns:inkscape="http://www.inkscape.org/namespaces/inkscape"
   xmlns:sodipodi="http://sodipodi.sourceforge.net/DTD/sodipodi-0.dtd"
   xmlns="http://www.w3.org/2000/svg"
   xmlns:svg="http://www.w3.org/2000/svg">
  <defs
     id="defs12" />
  <sodipodi:namedview
     id="namedview10"
     pagecolor="#ffffff"
     bordercolor="#666666"
     borderopacity="1.0"
     inkscape:pageshadow="2"
     inkscape:pageopacity="0.0"
     inkscape:pagecheckerboard="0"
     showgrid="false"
     inkscape:zoom="14"
     inkscape:cx="1.4642857"
     inkscape:cy="7.6071428"
     inkscape:window-width="1920"
     inkscape:window-height="1016"
     inkscape:window-x="0"
     inkscape:window-y="27"
     inkscape:window-maximized="1"
     inkscape:current-layer="svg8"
     inkscape:snap-page="true" />
  <path
     id="path2"
     style="color:#000000;line-height:normal;font-variant-ligatures:normal;font-variant-position:normal;font-variant-caps:normal;font-variant-numeric:normal;font-variant-alternates:normal;font-feature-settings:normal;text-indent:0;text-align:start;text-decoration-line:none;text-decoration-style:solid;text-decoration-color:#000000;text-transform:none;text-orientation:mixed;shape-padding:0;isolation:auto;mix-blend-mode:normal;fill:#808080;stroke-width:1;marker:none"
     d="m 5.75,5.75 c -0.8225,0 -1.4727344,0.074511 -2.0214844,0.2807617 a 2.35,2.35 0 0 0 -1.2475586,1.0473633 c -0.51875,0.94 -0.462207,2.0920507 -0.480957,3.664551 v 2.514648 c 0.01875,1.5725 -0.037793,2.723301 0.480957,3.664551 0.26,0.47 0.7000586,0.841114 1.2475586,1.047364 0.54875,0.205 1.2002344,0.280761 2.0214844,0.280761 h 7.5 c 0.8225,0 1.473985,-0.07451 2.021485,-0.280761 a 2.35,2.35 0 0 0 1.247558,-1.047364 c 0.499291,-0.903765 0.465348,-2.010789 0.478516,-3.488769 1.967459,1.121649 3.690288,2.047074 5.002441,2.668457 v -8.2031255 c -1.287404,0.6094406 -3.010699,1.5398134 -5.002441,2.6733395 -0.01238,-1.4805615 0.02015,-2.588846 -0.478517,-3.493652 a 2.35,2.35 0 0 0 -1.247557,-1.0473633 c -0.54625,-0.2049999 -1.200235,-0.2807617 -2.021485,-0.2807617 z m 0,1.25 h 7.5 c 0.74,0 1.257031,0.078945 1.582031,0.2001952 0.325,0.1225001 0.46457,0.2522072 0.59082,0.4809572 0.2525,0.4575 0.308399,1.4963476 0.327149,3.0688476 v 0.537109 1.428223 0.527344 c -0.01875,1.58 -0.07465,2.61373 -0.327149,3.07373 -0.125,0.22875 -0.26582,0.360899 -0.59082,0.483399 -0.325,0.12125 -0.842031,0.200195 -1.582031,0.200195 h -7.5 c -0.74,0 -1.2570312,-0.07895 -1.5820312,-0.200195 -0.3250001,-0.1225 -0.4645704,-0.253399 -0.5908203,-0.483399 -0.2525,-0.4575 -0.3083985,-1.491406 -0.3271485,-3.066406 v -2.5 c 0.01875,-1.5725 0.074649,-2.6125976 0.3271485,-3.0688476 0.1262499,-0.22875 0.2670702,-0.3584571 0.5908203,-0.4809572 0.325,-0.12125 0.8420312,-0.2001952 1.5820312,-0.2001952 z" />
</svg>
