<svg height="24" width="24" xmlns="http://www.w3.org/2000/svg"><path style="fill:gray;fill-opacity:1;stroke-width:.5;stroke-linecap:round;stroke-linejoin:round" d="M11.5 2A3.492 3.492 0 0 0 8 5.5v7c0 .413.075.807.205 1.174L15 6.879V5.5C15 3.561 13.439 2 11.5 2zm7.146 2.646L15 8.293l-6.303 6.303-.707.707-.709.709-3.635 3.634.708.708 3.636-3.637a5.463 5.463 0 0 0 3.01 1.25v3.045c-1.744.071-3 .488-3 .488v.5h7v-.5s-1.256-.417-3-.488v-3.045a5.5 5.5 0 0 0 5-5.467V11h-1v1.5a4.5 4.5 0 0 1-4 4.465V16.5h-1v.465a4.46 4.46 0 0 1-2.299-.96l.707-.706A3.492 3.492 0 0 0 15 12.5V9.707l4.354-4.353-.708-.708zM6 11v1.5c.002.969.26 1.88.705 2.674l.738-.738A4.479 4.479 0 0 1 7 12.5V11H6z"/></svg>