<?xml version="1.0" encoding="UTF-8" standalone="no"?>
<svg viewBox="0 1 24 24" height="24" width="24" version="1.1" id="svg8" sodipodi:docname="cut.svg" inkscape:version="1.1 (ce6663b3b7, 2021-05-25)"
   xmlns:inkscape="http://www.inkscape.org/namespaces/inkscape"
   xmlns:sodipodi="http://sodipodi.sourceforge.net/DTD/sodipodi-0.dtd"
   xmlns="http://www.w3.org/2000/svg"
   xmlns:svg="http://www.w3.org/2000/svg">
   <defs id="defs12" />
   <sodipodi:namedview id="namedview10" pagecolor="#ffffff" bordercolor="#666666" borderopacity="1.0" inkscape:pageshadow="2" inkscape:pageopacity="0.0" inkscape:pagecheckerboard="0" showgrid="true" inkscape:zoom="28.045574" inkscape:cx="13.353266" inkscape:cy="12.461859" inkscape:window-width="1920" inkscape:window-height="1016" inkscape:window-x="0" inkscape:window-y="27" inkscape:window-maximized="1" inkscape:current-layer="svg8">
      <inkscape:grid type="xygrid" id="grid829" />
   </sodipodi:namedview>
   <g font-weight="500" font-size="33.109px" font-family="Ubuntu" letter-spacing="0" word-spacing="0" text-anchor="middle" fill="#808080" id="g6" transform="matrix(1.25,0,0,1.25,2,2)" style="stroke-width:0.8">
      <path d="m 6.156,0.487 -0.004,0.002 c -0.054,0 -0.125,0.005 -0.213,0.014 a 1.78,1.78 0 0 0 -0.295,0.056 0.632,0.632 0 0 0 -0.233,0.108 0.373,0.373 0 0 0 -0.123,0.158 0.447,0.447 0 0 0 -0.036,0.2 c 0.003,0.074 0.022,0.151 0.038,0.237 0.369,2.056 0.71,4.119 1.053,6.18 l 0.838,-3.128 z m 1.344,5.015 -0.913,3.406 0.038,0.23 1.35,2.165 0.654,2.443 c 0.088,0.329 0.216,0.616 0.384,0.861 0.168,0.245 0.365,0.44 0.591,0.584 0.227,0.144 0.479,0.236 0.757,0.275 0.272,0.041 0.557,0.021 0.855,-0.058 0.297,-0.08 0.553,-0.206 0.769,-0.377 a 1.9,1.9 0 0 0 0.51,-0.615 c 0.123,-0.238 0.2,-0.505 0.228,-0.803 0.023,-0.296 -0.01,-0.609 -0.098,-0.938 a 2.712,2.712 0 0 0 -0.383,-0.853 2.164,2.164 0 0 0 -0.599,-0.582 1.888,1.888 0 0 0 -0.754,-0.267 1.945,1.945 0 0 0 -0.847,0.056 c -0.214,0.064 -0.42,0.163 -0.666,0.14 a 0.52,0.52 0 0 1 -0.236,-0.08 0.588,0.588 0 0 1 -0.167,-0.187 1.656,1.656 0 0 1 -0.107,-0.301 z m 0,2.485 a 0.525,0.525 0 0 1 0.525,0.524 0.525,0.525 0 0 1 -0.525,0.525 0.525,0.525 0 0 1 -0.525,-0.525 0.525,0.525 0 0 1 0.525,-0.524 z m 2.998,3.84 a 0.888,0.888 0 0 1 0.615,0.204 c 0.239,0.192 0.414,0.495 0.525,0.909 0.112,0.419 0.113,0.774 0.004,1.065 a 0.91,0.91 0 0 1 -0.65,0.567 c -0.319,0.085 -0.598,0.03 -0.839,-0.168 -0.246,-0.196 -0.425,-0.503 -0.537,-0.923 -0.11,-0.414 -0.108,-0.764 0.008,-1.051 0.11,-0.291 0.324,-0.48 0.642,-0.565 0.08,-0.021 0.157,-0.034 0.232,-0.038 z" style="line-height:125%;-inkscape-font-specification:'Ubuntu Medium';text-align:center;stroke-width:0.8" id="path2" />
      <path d="m 8.844,0.487 v 0.002 h -10e-4 l -0.323,1.199 h 0.001 l -2.387,8.912 a 1.66,1.66 0 0 1 -0.107,0.301 0.588,0.588 0 0 1 -0.167,0.187 0.514,0.514 0 0 1 -0.236,0.08 c -0.245,0.023 -0.452,-0.077 -0.667,-0.14 a 1.945,1.945 0 0 0 -0.846,-0.056 1.887,1.887 0 0 0 -0.754,0.267 2.164,2.164 0 0 0 -0.6,0.582 c -0.166,0.24 -0.294,0.524 -0.382,0.853 a 2.784,2.784 0 0 0 -0.098,0.938 c 0.029,0.298 0.105,0.565 0.229,0.803 a 1.9,1.9 0 0 0 0.51,0.615 c 0.215,0.171 0.471,0.297 0.768,0.376 0.298,0.08 0.583,0.1 0.855,0.059 0.278,-0.04 0.53,-0.131 0.757,-0.276 0.226,-0.144 0.423,-0.338 0.59,-0.583 0.169,-0.245 0.297,-0.532 0.385,-0.861 l 0.655,-2.443 1.349,-2.166 c 0.479,-2.618 0.825,-5.262 1.33,-7.875 0.016,-0.085 0.034,-0.163 0.037,-0.237 a 0.515,0.515 0 0 0 -0.035,-0.2 0.375,0.375 0 0 0 -0.123,-0.158 0.63,0.63 0 0 0 -0.234,-0.106 1.802,1.802 0 0 0 -0.296,-0.056 2.842,2.842 0 0 0 -0.204,-0.015 z m -1.344,7.5 a 0.525,0.525 0 0 1 0.525,0.524 0.525,0.525 0 0 1 -0.525,0.525 0.525,0.525 0 0 1 -0.525,-0.525 0.525,0.525 0 0 1 0.525,-0.524 z m -2.998,3.84 c 0.075,0.004 0.152,0.017 0.232,0.038 0.318,0.085 0.532,0.274 0.642,0.565 0.116,0.287 0.119,0.637 0.008,1.051 -0.112,0.42 -0.291,0.727 -0.537,0.923 -0.24,0.197 -0.52,0.253 -0.839,0.168 a 0.91,0.91 0 0 1 -0.65,-0.567 c -0.11,-0.29 -0.108,-0.646 0.004,-1.065 0.111,-0.414 0.286,-0.717 0.525,-0.91 a 0.888,0.888 0 0 1 0.615,-0.203 z" style="line-height:125%;-inkscape-font-specification:'Ubuntu Medium';text-align:center;stroke-width:0.8" id="path4" />
   </g>
</svg>
