<?xml version="1.0" encoding="UTF-8" standalone="no"?>
<svg
   height="24"
   width="24"
   version="1.1"
   id="svg4"
   sodipodi:docname="paste.svg"
   inkscape:version="1.1 (ce6663b3b7, 2021-05-25)"
   xmlns:inkscape="http://www.inkscape.org/namespaces/inkscape"
   xmlns:sodipodi="http://sodipodi.sourceforge.net/DTD/sodipodi-0.dtd"
   xmlns="http://www.w3.org/2000/svg"
   xmlns:svg="http://www.w3.org/2000/svg">
  <defs
     id="defs8" />
  <sodipodi:namedview
     id="namedview6"
     pagecolor="#ffffff"
     bordercolor="#666666"
     borderopacity="1.0"
     inkscape:pageshadow="2"
     inkscape:pageopacity="0.0"
     inkscape:pagecheckerboard="0"
     showgrid="false"
     inkscape:snap-page="true"
     inkscape:zoom="39.59798"
     inkscape:cx="8.4979083"
     inkscape:cy="8.2074894"
     inkscape:window-width="1920"
     inkscape:window-height="1043"
     inkscape:window-x="1920"
     inkscape:window-y="0"
     inkscape:window-maximized="1"
     inkscape:current-layer="svg4" />
  <path
     d="m 10.75,2 c -1.37375,0 -2.5,1.1275 -2.5,2.5 h -1.25 v 0.03125 c -0.9375,0.02375 -1.7625,0.08875 -2.4225,0.4525 a 2.3475,2.3475 0 0 0 -1.05,1.245 c -0.205,0.5475 -0.2775,1.2 -0.2775,2.02125 v 8.75 c 0,0.8225 0.0725,1.47375 0.27875,2.02125 0.205,0.54875 0.57875,0.9875 1.05,1.2475 0.65875,0.36375 1.4775,0.4275 2.42125,0.45 v 1.28125 h 12.5 v -13.75 h -1.25 c 0,-0.8225 -0.075,-1.47375 -0.28125,-2.02125 a 2.34375,2.34375 0 0 0 -1.04625,-1.245 c -0.65875,-0.36375 -1.48625,-0.42875 -2.4225,-0.4525 v -0.03125 h -1.25 c 0,-1.3725 -1.12625,-2.5 -2.5,-2.5 z m 0,1.25 c 0.6975,0 1.25,0.5525 1.25,1.25 a 1.2375,1.2375 0 0 1 -1.25,1.25 1.2275,1.2275 0 0 1 -1.1525,-0.7625 1.25875,1.25875 0 0 1 -0.0975,-0.4875 c 0,-0.6975 0.5525,-1.25 1.25,-1.25 z m -3.75,2.55 v 1.2 h 7.5 v -1.2 c 0.8325,0.03875 1.505,0.105 1.81625,0.2775 0.23,0.125 0.3625,0.265 0.48375,0.59 0.12125,0.325 0.2,0.8425 0.2,1.5825 h -10 v 11.2 c -0.84,-0.0375 -1.505,-0.105 -1.81625,-0.2775 -0.23,-0.125 -0.3625,-0.265 -0.48375,-0.59 -0.12125,-0.325 -0.2,-0.8425 -0.2,-1.5825 v -8.75 c 0,-0.74 0.07875,-1.2575 0.2,-1.5825 0.1225,-0.325 0.2525,-0.46375 0.48125,-0.59 0.31125,-0.1725 0.985,-0.23875 1.81875,-0.27875 z m 1.25,3.7 h 10 v 11.25 h -10 z m 1.26,1.25 v 1.25 h 7.515 v -1.25 z m 0,2.5 v 1.25 h 7.515 v -1.25 z m -0.01,2.5 v 1.25 h 3.75 v -1.25 z"
     fill="#808080"
     font-family="sans-serif"
     font-weight="400"
     overflow="visible"
     style="line-height:normal;text-indent:0;text-align:start;text-decoration-line:none;text-decoration-style:solid;text-decoration-color:#000000;text-transform:none;isolation:auto;mix-blend-mode:normal;stroke-width:1;marker:none"
     white-space="normal"
     color="#000000"
     id="path2" />
</svg>
