<svg height="24" width="24" xmlns="http://www.w3.org/2000/svg"><path style="color:#000;fill:gray;fill-opacity:1;-inkscape-stroke:none" d="M12 5C5.806 5 2.621 8.674 2.621 8.674l-.273.318L4 11.012V9.434l-.295-.362C4.103 8.64 6.638 6 12 6s7.897 2.639 8.295 3.072L19 10.654v1.58l2.652-3.242-.273-.318S18.194 5 12 5zm-5.5 5A1.5 1.5 0 0 0 5 11.5 1.5 1.5 0 0 0 6.5 13 1.5 1.5 0 0 0 8 11.5 1.5 1.5 0 0 0 6.5 10zm5 0a1.5 1.5 0 0 0-1.5 1.5 1.5 1.5 0 0 0 1.5 1.5 1.5 1.5 0 0 0 1.5-1.5 1.5 1.5 0 0 0-1.5-1.5zm5 0a1.5 1.5 0 0 0-1.5 1.5 1.5 1.5 0 0 0 1.5 1.5 1.5 1.5 0 0 0 1.5-1.5 1.5 1.5 0 0 0-1.5-1.5zM6.445 14 12 20.79l.387-.474L17.555 14h-1.291L12 19.21 7.736 14h-1.29z"/></svg>