<svg height="24" width="24" xmlns="http://www.w3.org/2000/svg"><path style="color:#000;fill:gray;-inkscape-stroke:none;fill-opacity:1" d="M14.557 5.799c.003.003.004.008.007.012.001 0 .003 0 .004.002l-.011-.014zm2.324.3c.049.124.092.25.127.38.02.067.038.135.056.203 2.29.918 3.452 2.204 3.584 2.353l-6.656 8.137c.09.17.158.351.205.537l7.13-8.713-.138-.158S19.744 7.16 16.881 6.1zm-9.776.006C4.252 7.167 2.811 8.838 2.811 8.838l-.137.158.133.162L9.8 17.707a2.26 2.26 0 0 1 .207-.537L3.352 9.035c.14-.158 1.443-1.597 4.021-2.517l-.268-.413z"/><path d="M12.339 4.546a7.54 7.54 0 0 0-1.89.229 7.316 7.316 0 0 0-1.459.557l-.823.573L8.875 7l.565-.42c.86-.438 1.742-.675 2.645-.675.759 0 1.362.2 1.776.614.409.395.616.921.616 1.545 0 .388-.09.753-.27 1.085a4.223 4.223 0 0 1-.636.92c-.256.283-.525.568-.81.852v.001a7.99 7.99 0 0 0-.791.875v.003a4.575 4.575 0 0 0-.615.982 2.973 2.973 0 0 0-.221 1.17c0 .26.03.503.07.742h1.36c-.002-.03-.013-.055-.013-.085v-.234c0-.484.096-.925.29-1.313.188-.392.42-.748.696-1.068v-.003c.273-.33.573-.644.902-.944a9.037 9.037 0 0 0 .875-.917c.262-.316.48-.653.658-1.009a2.79 2.79 0 0 0 .262-1.227c0-.365-.06-.747-.184-1.143l-.001-.002v-.003a2.55 2.55 0 0 0-.603-1.084c-.292-.318-.69-.582-1.196-.787v-.003c-.481-.215-1.119-.326-1.91-.326zM12 17c-.407 0-.702.125-.929.375a1.281 1.281 0 0 0-.343.897c0 .35.111.64.343.898.225.25.522.375.928.375s.702-.124.929-.375c.232-.258.343-.55.343-.897 0-.35-.11-.64-.343-.898-.225-.25-.523-.375-.929-.375z" fill="gray" font-family="Ubuntu" font-size="72.036" font-weight="500" letter-spacing="0" style="line-height:125%;-inkscape-font-specification:'Ubuntu Medium';text-align:center;stroke-width:.8" text-anchor="middle" word-spacing="0"/></svg>