<svg height="24" width="24" xmlns="http://www.w3.org/2000/svg"><path style="color:#000;fill:gray;fill-opacity:1;-inkscape-stroke:none" d="M12 5C5.806 5 2.621 8.674 2.621 8.674l-.273.318L12 20.79l.387-.473L14 18.344V16h1v-1c0-.7.302-1.423.877-1.998C16.484 12.395 17.405 12 18.5 12c.224 0 .44.02.648.05l2.504-3.058-.273-.318S18.194 5 12 5z"/><path style="fill:gray;stroke:none;stroke-width:.5;stroke-linecap:round;stroke-linejoin:round;fill-opacity:1" d="M18.5 13c-.861 0-1.51.302-1.916.709-.407.407-.584.874-.584 1.291v2h-1v5h7v-5h-1v-2c0-.417-.177-.884-.584-1.291-.407-.407-1.055-.709-1.916-.709zm0 1c.639 0 .99.198 1.209.416.218.218.291.5.291.584v2h-3v-2c0-.083.073-.366.291-.584.218-.218.57-.416 1.209-.416z"/></svg>