<svg width="24" height="24" xmlns="http://www.w3.org/2000/svg"><path style="display:inline;fill:gray;fill-opacity:1;stroke:none;stroke-width:1" d="M6.375 14.5v.781c0 .108.044.307.112.537 2.264 1.508 8.453 1.532 10.896.076.128-.338.2-.615.208-.73l.034-.664c-2.293 1.63-9.007 1.63-11.25 0zm8.75-5c.698 0 1.25.59 1.25 1.289v1.21a1.24 1.24 0 0 1-1.25 1.25 1.24 1.24 0 0 1-1.25-1.25v-1.21c0-.698.552-1.29 1.25-1.29zm-6.289-.02c.698 0 1.289.591 1.289 1.29v1.21c0 .698-.591 1.25-1.29 1.25a1.24 1.24 0 0 1-1.25-1.25v-1.21c0-.699.553-1.29 1.25-1.29z"/><path style="fill:gray;fill-opacity:1;stroke:none;stroke-width:.75;stroke-linecap:square;stroke-linejoin:round;stroke-opacity:1" d="M20.455 8.575a9.79 9.79 0 0 1-1.194.407 8.125 8.125 0 0 1 .864 3.643A8.125 8.125 0 0 1 12 20.75a8.125 8.125 0 0 1-8.125-8.125 8.125 8.125 0 0 1 .864-3.643 9.816 9.816 0 0 1-1.194-.405 9.375 9.375 0 0 0-.92 4.048A9.375 9.375 0 0 0 12 22a9.375 9.375 0 0 0 9.375-9.375 9.375 9.375 0 0 0-.92-4.05z"/><path style="fill:gray;stroke-width:1;stroke-linecap:square" d="M11.375 2c-4.155 0-7.5 1.394-7.5 3.125s3.345 3.125 7.5 3.125h1.25c4.155 0 7.5-1.394 7.5-3.125S16.78 2 12.625 2zM12 3.25c3.809 0 6.875.836 6.875 1.875C18.875 6.164 15.809 7 12 7s-6.875-.836-6.875-1.875C5.125 4.086 8.191 3.25 12 3.25z"/></svg>