<svg width="24" height="24" xmlns="http://www.w3.org/2000/svg"><path d="M17.625 7.82v2.344c0 .695-.834 1.25-1.875 1.25s-1.875-.555-1.875-1.25V8.875h2.149c.97-.006 1.601-1.055 1.601-1.055zm-11.25 0s.592 1.049 1.562 1.055h2.188v1.289c0 .695-.834 1.25-1.875 1.25s-1.875-.555-1.875-1.25z" style="fill:gray;fill-opacity:1;stroke-width:1"/><path style="fill:gray;fill-opacity:1;stroke:none;stroke-width:.75;stroke-linecap:square;stroke-linejoin:round;stroke-opacity:1" d="M11.954 2.625A9.375 9.375 0 0 0 2.625 12 9.375 9.375 0 0 0 12 21.375 9.375 9.375 0 0 0 21.375 12 9.375 9.375 0 0 0 12 2.625a9.375 9.375 0 0 0-.046 0zM12 3.875A8.125 8.125 0 0 1 20.125 12 8.125 8.125 0 0 1 12 20.125 8.125 8.125 0 0 1 3.875 12 8.125 8.125 0 0 1 12 3.875z"/><rect style="opacity:1;fill:gray;stroke-width:1;stroke-linecap:round" width="6.25" height="1.25" x="8.875" y="13.875" ry=".5" rx=".5"/></svg>