<svg width="24" height="24" xmlns="http://www.w3.org/2000/svg"><path style="fill:gray;fill-opacity:1;stroke:none;stroke-width:.75;stroke-linecap:square;stroke-linejoin:round;stroke-opacity:1" d="M11.953 2.625A9.375 9.375 0 0 0 2.625 12 9.375 9.375 0 0 0 12 21.375 9.375 9.375 0 0 0 21.375 12 9.375 9.375 0 0 0 12 2.625a9.375 9.375 0 0 0-.047 0zM6.375 7.82s.593 1.049 1.563 1.055h2.187v1.29c0 .694-.834 1.25-1.875 1.25s-1.875-.556-1.875-1.25V7.82zm11.25 0v2.344c0 .695-.834 1.25-1.875 1.25s-1.875-.555-1.875-1.25V8.875h2.148c.97-.006 1.602-1.055 1.602-1.055zm-8.25 6.055h5.25c.277 0 .5.223.5.5v.25c0 .277-.223.5-.5.5h-5.25a.499.499 0 0 1-.5-.5v-.25c0-.277.223-.5.5-.5z"/></svg>