<svg width="24" height="24" xmlns="http://www.w3.org/2000/svg"><path style="display:inline;fill:gray;fill-opacity:1;stroke:none;stroke-width:1" d="M11.953 2.625A9.375 9.375 0 0 0 2.625 12 9.375 9.375 0 0 0 12 21.375 9.375 9.375 0 0 0 21.375 12 9.375 9.375 0 0 0 12 2.625a9.375 9.375 0 0 0-.047 0zm-3.117 4.98c.698 0 1.289.592 1.289 1.29v1.21c0 .698-.591 1.25-1.29 1.25a1.24 1.24 0 0 1-1.25-1.25v-1.21c0-.698.553-1.29 1.25-1.29zm6.289.02c.698 0 1.25.591 1.25 1.29v1.21a1.24 1.24 0 0 1-1.25 1.25 1.24 1.24 0 0 1-1.25-1.25v-1.21c0-.699.552-1.29 1.25-1.29zM7 13.875c1.604 0 2.614.155 3.346.43.732.274 1.158.691 1.47 1.004.313.312.512.52 1.03.714.518.195 1.383.352 2.904.352a.625.625 0 0 1 .625.625.625.625 0 0 1-.625.625c-1.604 0-2.612-.155-3.344-.43-.732-.274-1.16-.691-1.472-1.004-.313-.312-.51-.52-1.028-.714-.518-.195-1.385-.352-2.906-.352a.625.625 0 0 1-.625-.625.625.625 0 0 1 .625-.625z"/></svg>