<svg width="24" height="24" xmlns="http://www.w3.org/2000/svg"><path style="opacity:1;fill:gray;stroke:none;stroke-width:1;stroke-linecap:round" d="M12 2.625A9.375 9.375 0 0 0 2.625 12 9.375 9.375 0 0 0 12 21.375 9.375 9.375 0 0 0 21.375 12 9.375 9.375 0 0 0 12 2.625zm-6.875 6.25h13.75a3.125 3.75 0 0 1-3.125 3.75 3.125 3.75 0 0 1-2.947-2.5h-1.606a3.125 3.75 0 0 1-2.947 2.5 3.125 3.75 0 0 1-3.125-3.75zm1.25 5c2.243 1.63 8.957 1.63 11.25 0l-.035.664c-.009.115-.08.393-.207.73-2.444 1.456-8.63 1.432-10.895-.076-.068-.23-.113-.429-.113-.537v-.781z"/></svg>