<svg width="24" height="24" xmlns="http://www.w3.org/2000/svg"><path d="M16.625 10.476c1.51.562 2.557 1.172 2.774 1.954a1.241 1.241 0 0 1-1.173 1.563c-.649.008-.96-.27-1.171-1.094-.209-.825.104-1.616-.43-2.423z" style="fill:gray;fill-opacity:1;stroke-width:1"/><path style="display:inline;fill:gray;fill-opacity:1;stroke:none;stroke-width:1" d="M6.375 16.343v-.782c0-.107.044-.307.112-.537 2.264-1.507 8.453-1.531 10.896-.075.128.337.2.614.208.73l.034.664c-2.293-1.63-9.007-1.63-11.25 0zm8.75-8.718c.698 0 1.25.591 1.25 1.29v1.21a1.24 1.24 0 0 1-1.25 1.25 1.24 1.24 0 0 1-1.25-1.25v-1.21c0-.699.552-1.29 1.25-1.29zm-6.289-.02c.698 0 1.289.592 1.289 1.29v1.21c0 .698-.591 1.25-1.29 1.25a1.24 1.24 0 0 1-1.25-1.25v-1.21c0-.698.553-1.29 1.25-1.29z"/><path style="fill:gray;fill-opacity:1;stroke:none;stroke-width:.75;stroke-linecap:square;stroke-linejoin:round;stroke-opacity:1" d="M11.954 2.625A9.375 9.375 0 0 0 2.625 12 9.375 9.375 0 0 0 12 21.375 9.375 9.375 0 0 0 21.375 12 9.375 9.375 0 0 0 12 2.625a9.375 9.375 0 0 0-.046 0zM12 3.875A8.125 8.125 0 0 1 20.125 12 8.125 8.125 0 0 1 12 20.125 8.125 8.125 0 0 1 3.875 12 8.125 8.125 0 0 1 12 3.875z"/></svg>