<svg height="24" width="24" xmlns="http://www.w3.org/2000/svg"><path style="display:inline;fill:gray;fill-opacity:1;stroke:none;stroke-width:1" d="M11.953 2.625a9.375 9.375 0 0 0-6.137 2.332C4.671 4.661 3.848 3.809 3 3c-.248 1.331-.141 2.673 1.049 4.045A9.375 9.375 0 0 0 2.625 12 9.375 9.375 0 0 0 12 21.375 9.375 9.375 0 0 0 21.375 12a9.375 9.375 0 0 0-1.426-4.953C21.141 5.674 21.248 4.332 21 3c-.849.81-1.672 1.662-2.818 1.957A9.375 9.375 0 0 0 12 2.625a9.375 9.375 0 0 0-.047 0zm-3.117 4.98c.698 0 1.289.592 1.289 1.29v1.21c0 .698-.591 1.25-1.29 1.25a1.24 1.24 0 0 1-1.25-1.25v-1.21c0-.698.553-1.29 1.25-1.29zm6.289.02c.698 0 1.25.591 1.25 1.29v1.21a1.24 1.24 0 0 1-1.25 1.25 1.24 1.24 0 0 1-1.25-1.25v-1.21c0-.699.552-1.29 1.25-1.29zm-8.75 5c2.243 1.63 8.957 1.63 11.25 0l-.035.664c-.041.537-1.122 4.219-5.608 4.258-4.486.039-5.607-3.475-5.607-4.14v-.782z"/></svg>