<svg width="24" height="24" xmlns="http://www.w3.org/2000/svg"><path style="fill:gray;fill-opacity:1;stroke:none;stroke-width:.75;stroke-linecap:square;stroke-linejoin:round;stroke-opacity:1" d="M11.953 2.625A9.375 9.375 0 0 0 2.625 12 9.375 9.375 0 0 0 12 21.375 9.375 9.375 0 0 0 21.375 12 9.375 9.375 0 0 0 12 2.625a9.375 9.375 0 0 0-.047 0zM8.922 9.109v.002c.919 0 1.836.558 1.836 1.639-1.875-.422-3.906 2.166-3.75 0 .079-1.082.996-1.64 1.914-1.64zm6.164 0c.917 0 1.836.559 1.914 1.641.156 2.166-1.875-.422-3.75 0 0-1.082.917-1.64 1.836-1.64zM7 12.313a.938.938 0 0 1 .938.937.938.938 0 0 1-.938.938.938.938 0 0 1-.938-.938.938.938 0 0 1 .938-.938zm10 0a.938.938 0 0 1 .938.937.938.938 0 0 1-.938.938.938.938 0 0 1-.938-.938.938.938 0 0 1 .938-.938zm-5.75 2.812h1.5c.277 0 .5.223.5.5v.25c0 .277-.223.5-.5.5h-1.5a.499.499 0 0 1-.5-.5v-.25c0-.277.223-.5.5-.5z"/></svg>