<svg width="24" height="24" xmlns="http://www.w3.org/2000/svg"><path style="fill:gray;fill-opacity:1;stroke:none;stroke-width:.75;stroke-linecap:square;stroke-linejoin:round;stroke-opacity:1" d="M11.954 2.625A9.375 9.375 0 0 0 2.625 12 9.375 9.375 0 0 0 12 21.375 9.375 9.375 0 0 0 21.375 12 9.375 9.375 0 0 0 12 2.625a9.375 9.375 0 0 0-.046 0zM12 3.875A8.125 8.125 0 0 1 20.125 12 8.125 8.125 0 0 1 12 20.125 8.125 8.125 0 0 1 3.875 12 8.125 8.125 0 0 1 12 3.875z"/><path d="M15.086 9.11c.918 0 1.836.558 1.914 1.64.156 2.166-1.875-.422-3.75 0 0-1.082.917-1.64 1.836-1.64zm-6.164.001c.919 0 1.836.558 1.836 1.639-1.875-.422-3.906 2.166-3.75 0 .08-1.082.997-1.64 1.914-1.64z" style="fill:gray;fill-opacity:1;stroke-width:1"/><rect style="fill:gray;stroke-width:1" width="2.5" height="1.25" x="10.75" y="15.125" ry=".5" rx=".5"/><circle style="fill:gray;stroke-width:1" cx="7" cy="13.25" r=".938"/><circle style="fill:gray;stroke-width:1" cx="17" cy="13.25" r=".938"/></svg>