<svg width="24" height="24" xmlns="http://www.w3.org/2000/svg"><path style="fill:gray;stroke-width:1" d="M11.953 2.625a9.375 9.375 0 0 0-8.219 5h2.973a2.494 2.494 0 0 1 2.168-1.25c.93 0 1.737.501 2.168 1.25h1.914a2.494 2.494 0 0 1 2.168-1.25c.93 0 1.737.501 2.168 1.25h2.998a9.375 9.375 0 0 0-8.291-5 9.375 9.375 0 0 0-.047 0zm-3.117 4.98c-.59 0-1.075.424-1.211.977v.293h-.04v1.23c0 .698.553 1.25 1.25 1.25.699 0 1.29-.552 1.29-1.25v-1.23a1.308 1.308 0 0 0-1.29-1.27zm6.289.02c-.698 0-1.25.591-1.25 1.29v1.21c0 .698.552 1.25 1.25 1.25a1.24 1.24 0 0 0 1.25-1.25v-1.21c0-.699-.552-1.29-1.25-1.29zm-11.94 1.25A9.375 9.375 0 0 0 2.626 12 9.375 9.375 0 0 0 12 21.375 9.375 9.375 0 0 0 21.375 12a9.375 9.375 0 0 0-.537-3.125h-3.213v1.25c0 1.385-1.115 2.5-2.5 2.5a2.495 2.495 0 0 1-2.5-2.5v-1.25h-1.25v1.25c0 1.385-1.115 2.5-2.5 2.5a2.495 2.495 0 0 1-2.5-2.5v-1.25h-3.19zm3.19 5c2.243 1.63 8.957 1.63 11.25 0l-.033.664c-.009.115-.081.393-.21.73-2.443 1.456-8.63 1.432-10.894-.076-.068-.23-.113-.429-.113-.537v-.781z"/></svg>