<svg width="24" height="24" xmlns="http://www.w3.org/2000/svg"><path style="fill:gray;stroke-width:1" d="M11.954 2.625A9.375 9.375 0 0 0 2.625 12 9.375 9.375 0 0 0 12 21.375 9.375 9.375 0 0 0 21.375 12 9.375 9.375 0 0 0 12 2.625a9.375 9.375 0 0 0-.046 0zM12 3.875a8.125 8.125 0 0 1 6.846 3.75h-1.553a2.494 2.494 0 0 0-2.168-1.25c-.93 0-1.737.501-2.168 1.25h-1.914a2.494 2.494 0 0 0-2.168-1.25c-.93 0-1.737.501-2.168 1.25H5.181A8.125 8.125 0 0 1 12 3.875zm-3.164 3.73c.691 0 1.278.58 1.289 1.27v1.23c0 .698-.591 1.25-1.29 1.25a1.24 1.24 0 0 1-1.25-1.25v-1.23h.04v-.293c.136-.553.62-.977 1.21-.977zm6.289.02c.698 0 1.25.591 1.25 1.29v1.21a1.24 1.24 0 0 1-1.25 1.25 1.24 1.24 0 0 1-1.25-1.25v-1.21c0-.699.552-1.29 1.25-1.29zM4.527 8.875h1.848v1.25c0 1.385 1.115 2.5 2.5 2.5s2.5-1.115 2.5-2.5v-1.25h1.25v1.25c0 1.385 1.115 2.5 2.5 2.5s2.5-1.115 2.5-2.5v-1.25h1.873A8.125 8.125 0 0 1 20.125 12 8.125 8.125 0 0 1 12 20.125 8.125 8.125 0 0 1 3.875 12a8.125 8.125 0 0 1 .652-3.125zm1.848 5v.781c0 .108.044.307.112.537 2.264 1.508 8.453 1.532 10.896.076.128-.338.2-.615.208-.73l.034-.664c-2.293 1.63-9.007 1.63-11.25 0z"/></svg>