<svg width="24" height="24" xmlns="http://www.w3.org/2000/svg"><path style="fill:gray;fill-opacity:1;stroke-width:1" d="M10.866 12.234c-.538.013-1.143.414-1.143 1.337 0 .697-.383.878-1.16.985.775.2 1.18 1.551 1.18 2.017-.003 1.124 1.026 1.407 2.266 1.411 1.241.007 2.311-.318 2.306-1.428-.004-.619.398-1.847 1.122-2.018-.6-.072-1.142-.06-1.142-.947 0-.488-.313-1.334-1.034-1.357a1.944 1.944 0 0 0-1.216.393 1.855 1.855 0 0 0-1.179-.393zm1.19 2.284a2.39 2.39 0 0 1 1.096.314c-.195.092-.364.183-.366.31-.02.31-.43.55-.77.55-.341-.001-.679-.24-.679-.55 0-.127-.126-.216-.31-.31.303-.225.66-.322 1.029-.314zm2.994-5.643c.917 0 2.127.576 1.91 1.64-.395 1.946-.66-1.196-3.75-.275 0-1.084.92-1.365 1.84-1.365zm-6.175 0c.919 0 1.836.281 1.836 1.365-3.2-.755-3.023 2.11-3.75.276-.4-1.01.996-1.641 1.914-1.641z"/><path style="fill:gray;fill-opacity:1;stroke:none;stroke-width:.75;stroke-linecap:square;stroke-linejoin:round;stroke-opacity:1" d="M11.954 2.625A9.375 9.375 0 0 0 2.625 12 9.375 9.375 0 0 0 12 21.375 9.375 9.375 0 0 0 21.375 12 9.375 9.375 0 0 0 12 2.625a9.375 9.375 0 0 0-.046 0zM12 3.875A8.125 8.125 0 0 1 20.125 12 8.125 8.125 0 0 1 12 20.125 8.125 8.125 0 0 1 3.875 12 8.125 8.125 0 0 1 12 3.875z"/></svg>