<svg width="24" height="24" xmlns="http://www.w3.org/2000/svg"><path style="fill:gray;fill-opacity:1;stroke-width:1" d="M15.71 7.86c.918 0 1.838.558 1.915 1.64.156 2.167-1.875-.422-3.75 0 0-1.082.917-1.64 1.837-1.64zm-7.42 0c.917 0 1.835.56 1.835 1.64-1.875-.422-3.907 2.167-3.75 0 .078-1.082.996-1.64 1.913-1.64zm3.663-5.235A9.375 9.375 0 0 0 2.625 12 9.375 9.375 0 0 0 12 21.375 9.375 9.375 0 0 0 21.375 12 9.375 9.375 0 0 0 12 2.625a9.375 9.375 0 0 0-.047 0zM12 3.875A8.125 8.125 0 0 1 20.125 12 8.125 8.125 0 0 1 12 20.125 8.125 8.125 0 0 1 3.875 12 8.125 8.125 0 0 1 12 3.875zm-5.625 8.75c2.242 1.63 8.957 1.63 11.25 0l-.035.664c-.042.538-1.122 4.219-5.608 4.258-4.486.038-5.607-3.475-5.607-4.14z"/></svg>