<svg width="24" height="24" xmlns="http://www.w3.org/2000/svg"><path style="fill:gray;fill-opacity:1;stroke:none;stroke-width:.75;stroke-linecap:square;stroke-linejoin:round;stroke-opacity:1" d="M11.953 2.625A9.375 9.375 0 0 0 2.625 12 9.375 9.375 0 0 0 12 21.375 9.375 9.375 0 0 0 21.375 12 9.375 9.375 0 0 0 12 2.625a9.375 9.375 0 0 0-.047 0zM8.29 7.859v.002c.919 0 1.836.558 1.836 1.639-1.875-.422-3.906 2.166-3.75 0 .079-1.082.997-1.64 1.914-1.64zm7.422 0c.917 0 1.836.559 1.914 1.641.156 2.166-1.875-.422-3.75 0 0-1.082.917-1.64 1.836-1.64zm-9.336 4.766c2.243 1.63 8.957 1.63 11.25 0l-.035.664c-.041.537-1.122 4.219-5.608 4.258-4.486.039-5.607-3.475-5.607-4.14v-.782z"/></svg>