<?xml version="1.0" encoding="UTF-8" standalone="no"?>
<svg
   width="24"
   height="24"
   version="1.1"
   id="svg4"
   sodipodi:docname="monkey.svg"
   inkscape:version="1.2 (1:1.2.1+202207142221+cd75a1ee6d)"
   xmlns:inkscape="http://www.inkscape.org/namespaces/inkscape"
   xmlns:sodipodi="http://sodipodi.sourceforge.net/DTD/sodipodi-0.dtd"
   xmlns="http://www.w3.org/2000/svg"
   xmlns:svg="http://www.w3.org/2000/svg">
  <defs
     id="defs8" />
  <sodipodi:namedview
     id="namedview6"
     pagecolor="#ffffff"
     bordercolor="#666666"
     borderopacity="1.0"
     inkscape:showpageshadow="2"
     inkscape:pageopacity="0.0"
     inkscape:pagecheckerboard="0"
     inkscape:deskcolor="#d1d1d1"
     showgrid="false"
     inkscape:zoom="22.627417"
     inkscape:cx="10.275145"
     inkscape:cy="7.1594561"
     inkscape:window-width="1920"
     inkscape:window-height="1011"
     inkscape:window-x="0"
     inkscape:window-y="0"
     inkscape:window-maximized="1"
     inkscape:current-layer="svg4" />
  <path
     style="fill:#808080;fill-opacity:1;stroke-width:1;marker:none"
     d="m 11.805,2.04 c -1.36,0.812 -1.346,1.763 -1.19,2.32 0.12419,-0.020881 0.248898,-0.038553 0.374,-0.053 -2.628,0.316 -4.772,2.013 -5.55,4.265 l 0.016,-0.044 c -0.339,-0.24 -0.698,-0.395 -1.111,-0.395 -1.294,0 -2.344,1.355 -2.344,2.969 0,1.616 1.051,2.93 2.344,2.93 0.584,0 1.107,-0.265 1.523,-0.704 0.01,-0.005 0.024,-0.007 0.034,-0.012 0,0 -0.034,0.012 0,0 0.174,0.302 0.373,0.592 0.601,0.867 -2.014,0.801 -3.33,2.02 -3.33,3.403 0,2.416 3.939,4.375 8.789,4.375 4.85,0 8.789,-1.959 8.789,-4.375 0,-1.413 -1.37,-2.657 -3.46,-3.457 0.61,-0.735 0.606,-0.899 0.606,-0.899 0.102,0.05 0.216,0.084 0.315,0.137 0.4,0.403 0.888,0.664 1.445,0.664 1.293,0 2.344,-1.313 2.344,-2.93 0,-1.614 -1.051,-2.968 -2.344,-2.968 -0.493,0 -0.936,0.211 -1.31,0.544 -0.7,-2.159 -2.647,-3.824 -5.076,-4.292 l 0.178,0.037 c -0.17,-0.838 -0.122,-2.147 2.068,-1.992 -0.296688,-0.1130927 -0.609006,-0.1798736 -0.926,-0.198 -1.699,-0.075 -2.276,1.574 -2.407,2.024 -0.102621,-0.00379 -0.20531,-0.00545 -0.308,-0.005 h -0.07 c -0.345,-0.32 -0.673,-0.99 0,-2.212 z m 5.571,8.398 c 0,1.21 -0.496,2.377 -1.392,3.28 -1.314259,-0.337951 -2.665987,-0.508303 -4.023,-0.507 -1.512,0 -2.914,0.209 -4.158,0.544 -0.918,-0.908 -1.428,-2.09 -1.428,-3.317 0,-2.712 2.436,-4.916 5.487,-4.9265 3.051,-0.0105 5.513,2.1995 5.514,4.9265 z m -7.29,-2.11 c -0.475,0 -0.82,0.809 -0.82,1.836 0,1.029 0.345,1.875 0.82,1.875 0.475,0 0.898,-0.846 0.898,-1.875 0,-1.027 -0.423,-1.836 -0.898,-1.836 z m 3.75,0 c -0.475,0 -0.82,0.809 -0.82,1.836 0,1.029 0.345,1.875 0.82,1.875 0.475,0 0.898,-0.846 0.898,-1.875 0,-1.027 -0.423,-1.836 -0.898,-1.836 z m 4.517,0.379 c 0,0 -0.008,-0.03 0,0 z m -6.393,5.753 c 4.16,0 7.539,1.399 7.539,3.125 0,1.726 -3.379,3.125 -7.54,3.125 -4.16,0 -7.538,-1.4 -7.538,-3.125 0,-1.726 3.379,-3.125 7.539,-3.125 z m -5,1.65 c 0,0 -0.177,2.91 4.939,2.95 5.022,0.04 5.06,-2.92 5.06,-2.92 0,0 -0.702,1.987 -5.06,1.987 -4.573,0 -4.94,-2.017 -4.94,-2.017 z"
     id="path2"
     sodipodi:nodetypes="cccccsssccccssscccsssccccccccccccccsccssssssssssccssssscccscc" />
</svg>
