<svg width="24" height="24" xmlns="http://www.w3.org/2000/svg"><path style="fill:gray;fill-opacity:1;stroke-width:1;marker:none" d="M11.805 2.04c-1.36.812-1.346 1.763-1.19 2.32a7.32 7.32 0 0 1 .374-.053c-2.628.316-4.772 2.013-5.55 4.265l.016-.044c-.339-.24-.698-.395-1.111-.395C3.05 8.133 2 9.488 2 11.102c0 1.616 1.051 2.93 2.344 2.93.584 0 1.107-.265 1.523-.704.01-.005.024-.007.034-.012 0 0-.034.012 0 0 .174.302.373.592.601.867-2.014.801-3.33 2.02-3.33 3.403 0 2.416 3.939 4.375 8.789 4.375s8.789-1.959 8.789-4.375c0-1.413-1.37-2.657-3.46-3.457.61-.735.606-.899.606-.899.102.05.216.084.315.137.4.403.888.664 1.445.664 1.293 0 2.344-1.313 2.344-2.93 0-1.614-1.051-2.968-2.344-2.968-.493 0-.936.211-1.31.544-.7-2.159-2.647-3.824-5.076-4.292l.178.037c-.17-.838-.122-2.147 2.068-1.992a3.096 3.096 0 0 0-.926-.198c-1.699-.075-2.276 1.574-2.407 2.024a7.455 7.455 0 0 0-.308-.005h-.07c-.345-.32-.673-.99 0-2.212zm-.096 2.213zm.882.032zm-.76 1.216h.044c3.038 0 5.5 2.21 5.501 4.937 0 1.21-.496 2.377-1.392 3.28a16.092 16.092 0 0 0-4.023-.507c-1.512 0-2.914.209-4.158.544-.918-.908-1.428-2.09-1.428-3.317 0-2.712 2.436-4.916 5.457-4.937zm-1.745 2.827c-.475 0-.82.809-.82 1.836 0 1.029.345 1.875.82 1.875s.898-.846.898-1.875c0-1.027-.423-1.836-.898-1.836zm3.75 0c-.475 0-.82.809-.82 1.836 0 1.029.345 1.875.82 1.875s.898-.846.898-1.875c0-1.027-.423-1.836-.898-1.836zm4.517.379s-.008-.03 0 0zM11.96 14.46c4.16 0 7.539 1.399 7.539 3.125s-3.379 3.125-7.54 3.125c-4.16 0-7.538-1.4-7.538-3.125 0-1.726 3.379-3.125 7.539-3.125zm-5 1.65s-.177 2.91 4.939 2.95c5.022.04 5.06-2.92 5.06-2.92s-.702 1.987-5.06 1.987c-4.573 0-4.94-2.017-4.94-2.017z"/></svg>