<svg width="24" height="24" xmlns="http://www.w3.org/2000/svg"><path style="fill:gray;fill-opacity:1;stroke:none;stroke-width:.75;stroke-linecap:square;stroke-linejoin:round;stroke-opacity:1" d="M11.953 2.625A9.375 9.375 0 0 0 2.625 12 9.375 9.375 0 0 0 12 21.375 9.375 9.375 0 0 0 21.375 12 9.375 9.375 0 0 0 12 2.625a9.375 9.375 0 0 0-.047 0zm-3.117 4.98c.698 0 1.289.592 1.289 1.29v1.21c0 .698-.591 1.25-1.29 1.25a1.24 1.24 0 0 1-1.25-1.25v-1.21c0-.698.553-1.29 1.25-1.29zm6.289.02c.698 0 1.25.591 1.25 1.29v1.21a1.24 1.24 0 0 1-1.25 1.25 1.24 1.24 0 0 1-1.25-1.25v-1.21c0-.699.552-1.29 1.25-1.29zm-8.75 5c2.243 1.63 8.957 1.63 11.25 0l-.035.664c-.009.115-.08.393-.207.73-.622.37-1.485.644-2.465.823l.414.719c.346.6.021 1.432-.728 1.865-.75.433-1.633.297-1.979-.303l-1.176-2.037c-1.989-.057-3.905-.438-4.963-1.143-.068-.23-.111-.429-.111-.537v-.781z"/></svg>