<?xml version="1.0" encoding="UTF-8" standalone="no"?>
<svg viewBox="0 1 24 24" width="24" height="24" version="1.1" id="svg4" sodipodi:docname="raspberry.svg" inkscape:version="1.1 (ce6663b3b7, 2021-05-25)"
   xmlns:inkscape="http://www.inkscape.org/namespaces/inkscape"
   xmlns:sodipodi="http://sodipodi.sourceforge.net/DTD/sodipodi-0.dtd"
   xmlns="http://www.w3.org/2000/svg"
   xmlns:svg="http://www.w3.org/2000/svg"
   xmlns:rdf="http://www.w3.org/1999/02/22-rdf-syntax-ns#"
   xmlns:cc="http://creativecommons.org/ns#"
   xmlns:dc="http://purl.org/dc/elements/1.1/">
   <metadata id="metadata10">
      <rdf:RDF>
         <cc:Work rdf:about="">
            <dc:format>image/svg+xml</dc:format>
            <dc:type rdf:resource="http://purl.org/dc/dcmitype/StillImage" />
         </cc:Work>
      </rdf:RDF>
   </metadata>
   <defs id="defs8" />
   <sodipodi:namedview pagecolor="#ffffff" bordercolor="#666666" borderopacity="1" objecttolerance="10" gridtolerance="10" guidetolerance="10" inkscape:pageopacity="0" inkscape:pageshadow="2" inkscape:window-width="1920" inkscape:window-height="1016" id="namedview6" showgrid="true" inkscape:zoom="22.627417" inkscape:cx="12.573242" inkscape:cy="2.4969708" inkscape:window-x="0" inkscape:window-y="27" inkscape:window-maximized="1" inkscape:current-layer="svg4" inkscape:pagecheckerboard="0" width="24px">
      <inkscape:grid type="xygrid" id="grid1436" />
   </sodipodi:namedview>
   <path id="path987" style="display:inline;fill:#808080;fill-opacity:1;stroke:none;stroke-width:1" d="m 6.3749997,12.625014 v 0.78125 c 0,0.1078 0.04395,0.307096 0.1123,0.53711 2.2640448,1.507263 8.4523183,1.531236 10.8959953,0.07569 0.12784,-0.337685 0.19876,-0.614741 0.207519,-0.72998 l 0.03417,-0.664062 c -2.29255,1.629312 -9.0070082,1.629312 -11.2499993,0 z" />
   <path style="display:inline;fill:#808080;fill-opacity:1;stroke:none;stroke-width:1" d="m 15.125025,7.625015 c 0.697913,0 1.25,0.59115 1.25,1.2890624 v 1.2109376 c 0,0.697912 -0.552087,1.25 -1.25,1.25 -0.697913,0 -1.25,-0.552088 -1.25,-1.25 v -1.2109376 c 0,-0.6979124 0.552087,-1.2890624 1.25,-1.2890624 z" id="path985" />
   <path style="display:inline;fill:#808080;fill-opacity:1;stroke:none;stroke-width:1" d="m 8.835937,7.6054838 c 0.6979124,0 1.289062,0.5911499 1.289062,1.2890624 v 1.2109378 c 0,0.697912 -0.5911496,1.249999 -1.289062,1.249999 -0.6979124,0 -1.2499999,-0.552087 -1.2499999,-1.249999 v -1.2109378 c 0,-0.6979125 0.5520875,-1.2890624 1.2499999,-1.2890624 z" id="path983" />
   <path id="path993" style="fill:#808080;fill-opacity:1;fill-rule:evenodd;stroke:none;stroke-width:0.75;stroke-linecap:square;stroke-linejoin:round;stroke-opacity:1" d="m 11.953614,2.6250154 a 9.3749993,9.3749993 0 0 0 -9.328614,9.3749986 9.3749993,9.3749993 0 0 0 9.375,9.374999 9.3749993,9.3749993 0 0 0 9.375,-9.374999 9.3749993,9.3749993 0 0 0 -9.375,-9.3749986 9.3749993,9.3749993 0 0 0 -0.04639,0 z m 0.04639,1.2499999 a 8.1249994,8.1249994 0 0 1 8.124999,8.1249987 8.1249994,8.1249994 0 0 1 -8.124999,8.124999 8.1249994,8.1249994 0 0 1 -8.1250004,-8.124999 8.1249994,8.1249994 0 0 1 8.1250004,-8.1249987 z" />
   <path id="rect1438" style="fill:#808080;fill-rule:evenodd;stroke-width:1;stroke-linecap:square" d="m 14.635947,14.353529 c -0.006,5.5e-5 -0.011,0.0025 -0.01709,0.0025 h -3.361816 c -0.01319,0.20975 0.01078,0.416282 0.117187,0.600585 l 1.25,2.165527 c 0.34625,0.599722 1.230327,0.735547 1.97998,0.302735 0.749654,-0.432813 1.073789,-1.265512 0.727539,-1.865235 z" />
</svg>
