<svg width="24" height="24" xmlns="http://www.w3.org/2000/svg"><path style="fill:gray;fill-opacity:1;stroke:none;stroke-width:.75;stroke-linecap:square;stroke-linejoin:round;stroke-opacity:1" d="M11.953 2.625A9.375 9.375 0 0 0 2.625 12 9.375 9.375 0 0 0 12 21.375 9.375 9.375 0 0 0 21.375 12 9.375 9.375 0 0 0 12 2.625a9.375 9.375 0 0 0-.047 0zm-1.441 5.379c.137.004.26.094.316.246a.54.54 0 0 1-.234.625l-.9.508.9.508a.47.47 0 0 1 .195.586c-.086.22-.303.273-.508.156l-1.406-.781-1.445.78c-.207.116-.426.067-.508-.155a.54.54 0 0 1 .234-.625l.86-.508-.86-.469c-.206-.117-.32-.405-.234-.625a.379.379 0 0 1 .39-.234.337.337 0 0 1 .157.039l1.406.82 1.445-.82a.37.37 0 0 1 .192-.051zm6.25 0c.137.004.26.094.316.246a.54.54 0 0 1-.234.625l-.899.508.899.508c.205.117.32.364.234.586-.085.22-.342.273-.547.156l-1.406-.82-1.445.82c-.208.115-.424.066-.508-.156a.54.54 0 0 1 .234-.625l.899-.508-.9-.508c-.204-.118-.318-.367-.233-.588a.379.379 0 0 1 .39-.232.337.337 0 0 1 .157.039l1.406.82 1.445-.82a.37.37 0 0 1 .192-.051zm-7.55 6.027a3.094 3.094 0 0 1 1.663.604c.394.247.465.31 1.125.388.18.063.683-.046 1.125-.388.315-.23.63-.331.95-.42 1.472-.414 2.895.49 3.55 1.406v.563c-.575-.322-1.193-.672-1.828-.88l.527 1.055c.37.728.15 1.575-.492 1.899-.641.325-1.46-.01-1.828-.738l-.668-1.301c-.057-.114-.076-.235-.106-.352a.668.668 0 0 1-.105.033c-.609.354-1.755.222-2.25 0-1.032-.491-1.023-.749-1.723-.771-.96.021-2.073.447-2.777 1.053v-.563c.297-.763 1.259-1.479 2.39-1.58v-.002a3.094 3.094 0 0 1 .448-.006z"/></svg>