<?xml version="1.0" encoding="UTF-8" standalone="no"?>
<svg viewBox="0 1 24 24" width="24" height="24" version="1.1" id="svg837" sodipodi:docname="sick.svg" inkscape:version="1.1 (ce6663b3b7, 2021-05-25)"
   xmlns:inkscape="http://www.inkscape.org/namespaces/inkscape"
   xmlns:sodipodi="http://sodipodi.sourceforge.net/DTD/sodipodi-0.dtd"
   xmlns="http://www.w3.org/2000/svg"
   xmlns:svg="http://www.w3.org/2000/svg"
   xmlns:rdf="http://www.w3.org/1999/02/22-rdf-syntax-ns#"
   xmlns:cc="http://creativecommons.org/ns#"
   xmlns:dc="http://purl.org/dc/elements/1.1/">
   <metadata id="metadata843">
      <rdf:RDF>
         <cc:Work rdf:about="">
            <dc:format>image/svg+xml</dc:format>
            <dc:type rdf:resource="http://purl.org/dc/dcmitype/StillImage" />
         </cc:Work>
      </rdf:RDF>
   </metadata>
   <defs id="defs841" />
   <sodipodi:namedview pagecolor="#ffffff" bordercolor="#666666" borderopacity="1" objecttolerance="10" gridtolerance="10" guidetolerance="10" inkscape:pageopacity="0" inkscape:pageshadow="2" inkscape:window-width="1920" inkscape:window-height="1016" id="namedview839" showgrid="true" inkscape:zoom="27.5" inkscape:cx="3.2909091" inkscape:cy="6.4909091" inkscape:window-x="0" inkscape:window-y="27" inkscape:window-maximized="1" inkscape:current-layer="svg837" inkscape:pagecheckerboard="0">
      <inkscape:grid type="xygrid" id="grid2015" />
   </sodipodi:namedview>
   <path d="m 8.7656196,14.037022 a 3.0937498,3.0937498 0 0 1 2.1093754,0.5985 c 0.393749,0.2475 0.464624,0.30825 1.124999,0.387 0.18,0.063 0.682875,-0.045 1.125,-0.387 0.315,-0.2295 0.631125,-0.331875 0.9495,-0.42075 1.472625,-0.413999 2.89575,0.4905 3.5505,1.40625 v 0.5625 c -0.574875,-0.32175 -1.1925,-0.67275 -1.828125,-0.87975 l 0.527625,1.05525 c 0.369,0.727875 0.1485,1.573875 -0.49275,1.897875 -0.64125,0.325125 -1.459125,-0.01012 -1.828125,-0.738 l -0.667125,-1.3005 c -0.05738,-0.113625 -0.0765,-0.235125 -0.10575,-0.352125 a 0.66824995,0.66824995 0 0 1 -0.10575,0.03487 c -0.608625,0.35325 -1.755,0.221625 -2.249999,0 -1.0316255,-0.491625 -1.0226255,-0.750375 -1.7223754,-0.772875 -0.9596249,0.02137 -2.0733748,0.448875 -2.7776248,1.054125 v -0.5625 c 0.297,-0.76275 1.2588749,-1.4805 2.3906248,-1.58175 z" id="path2013" style="fill:#808080;fill-opacity:1;stroke-width:0.999999" />
   <path d="m 13.562499,8.0162643 a 0.33749997,0.33749997 0 0 1 0.15625,0.0375 l 1.40625,0.82125 1.445,-0.82 c 0.20625,-0.115 0.425,-0.02625 0.5075,0.195 a 0.53999996,0.53999996 0 0 1 -0.23375,0.625 l -0.89875,0.5074999 0.89875,0.5075 c 0.205,0.1174998 0.31875,0.3662498 0.23375,0.5874998 -0.085,0.22 -0.34125,0.2725 -0.54625,0.155 l -1.40625,-0.8199998 -1.445,0.8199998 c -0.2075,0.115 -0.425,0.06625 -0.50875,-0.15625 a 0.53999996,0.53999996 0 0 1 0.235,-0.6249998 l 0.89875,-0.5075 -0.9,-0.5074999 c -0.20375,-0.1175 -0.31875,-0.36625 -0.23375,-0.5875 a 0.37874997,0.37874997 0 0 1 0.39125,-0.23375 z" id="path2011" style="fill:#808080;fill-opacity:1;stroke-width:1" />
   <path d="m 7.3124996,8.0162643 a 0.33749997,0.33749997 0 0 1 0.15625,0.0375 l 1.4062499,0.82125 1.4449995,-0.82 c 0.20625,-0.115 0.425,-0.02625 0.5075,0.195 a 0.53999996,0.53999996 0 0 1 -0.23375,0.625 l -0.8999996,0.5074999 0.8999996,0.5075 a 0.46999996,0.46999996 0 0 1 0.195,0.5874998 c -0.08625,0.22 -0.3025,0.2725 -0.5075,0.155 l -1.4062495,-0.7812498 -1.4462499,0.7812498 c -0.20625,0.115 -0.425,0.06625 -0.5074999,-0.15625 a 0.53999996,0.53999996 0 0 1 0.2349999,-0.6249998 l 0.85875,-0.5075 -0.85875,-0.4687499 c -0.2062499,-0.1175 -0.3199999,-0.405 -0.2349999,-0.625 a 0.37874997,0.37874997 0 0 1 0.3912499,-0.235 z" id="path2009" style="fill:#808080;fill-opacity:1;stroke-width:1" />
   <path id="path993" style="fill:#808080;fill-opacity:1;fill-rule:evenodd;stroke:none;stroke-width:0.75;stroke-linecap:square;stroke-linejoin:round;stroke-opacity:1" d="m 11.953614,2.6250155 a 9.3749993,9.3749993 0 0 0 -9.328614,9.3749995 9.3749993,9.3749993 0 0 0 9.375,9.374998 9.3749993,9.3749993 0 0 0 9.375,-9.374998 9.3749993,9.3749993 0 0 0 -9.375,-9.3749995 9.3749993,9.3749993 0 0 0 -0.04639,0 z m 0.04639,1.2499999 a 8.1249994,8.1249994 0 0 1 8.125,8.1249996 8.1249994,8.1249994 0 0 1 -8.125,8.124998 8.1249994,8.1249994 0 0 1 -8.1250003,-8.124998 8.1249994,8.1249994 0 0 1 8.1250003,-8.1249996 z" />
</svg>
