<svg width="24" height="24" xmlns="http://www.w3.org/2000/svg"><path style="fill:gray;fill-opacity:1;stroke:none;stroke-width:.75;stroke-linecap:square;stroke-linejoin:round;stroke-opacity:1" d="M11.953 2.625A9.375 9.375 0 0 0 2.625 12 9.375 9.375 0 0 0 12 21.375 9.375 9.375 0 0 0 21.375 12 9.375 9.375 0 0 0 12 2.625a9.375 9.375 0 0 0-.047 0zm-3.117 4.98c.698 0 1.289.592 1.289 1.29v1.21c0 .698-.591 1.25-1.29 1.25a1.24 1.24 0 0 1-1.25-1.25v-1.21c0-.698.553-1.29 1.25-1.29zm6.289.02c.698 0 1.25.591 1.25 1.29v1.21a1.24 1.24 0 0 1-1.25 1.25 1.24 1.24 0 0 1-1.25-1.25v-1.21c0-.699.552-1.29 1.25-1.29zm-6.006 6.41a3.08 3.08 0 0 1 1.756.606c.394.247.481.3 1.143.379.18.061.665-.038 1.107-.38 1.78-1.296 3.704-.133 4.5.98v.562c-.862-.482-1.813-1.034-2.785-1.057-.734.023-1.394.735-1.715.783-.61.353-1.755.22-2.25 0-1.032-.491-1.037-.764-1.736-.787-.96.021-2.06.454-2.764 1.06v-.562c.326-.84 1.47-1.612 2.744-1.584z"/></svg>