<svg width="24" height="24" xmlns="http://www.w3.org/2000/svg"><path d="M17.625 16.182c-.862-.481-1.814-1.035-2.786-1.057-.733.022-1.393.736-1.714.784-.61.353-1.755.22-2.25 0-1.032-.492-1.036-.765-1.736-.787-.96.02-2.06.454-2.764 1.06v-.562c.475-1.222 2.677-2.3 4.5-.98.394.248.48.3 1.142.38.18.061.666-.04 1.108-.38 1.78-1.297 3.703-.134 4.5.979z" style="fill:gray;fill-opacity:1;stroke-width:.999999"/><path style="display:inline;fill:gray;fill-opacity:1;stroke:none;stroke-width:1" d="M15.125 7.625c.698 0 1.25.591 1.25 1.29v1.21a1.24 1.24 0 0 1-1.25 1.25 1.24 1.24 0 0 1-1.25-1.25v-1.21c0-.699.552-1.29 1.25-1.29zm-6.289-.02c.698 0 1.289.592 1.289 1.29v1.21c0 .698-.591 1.25-1.29 1.25a1.24 1.24 0 0 1-1.25-1.25v-1.21c0-.698.553-1.29 1.25-1.29z"/><path style="fill:gray;fill-opacity:1;stroke:none;stroke-width:.75;stroke-linecap:square;stroke-linejoin:round;stroke-opacity:1" d="M11.954 2.625A9.375 9.375 0 0 0 2.625 12 9.375 9.375 0 0 0 12 21.375 9.375 9.375 0 0 0 21.375 12 9.375 9.375 0 0 0 12 2.625a9.375 9.375 0 0 0-.046 0zM12 3.875A8.125 8.125 0 0 1 20.125 12 8.125 8.125 0 0 1 12 20.125 8.125 8.125 0 0 1 3.875 12 8.125 8.125 0 0 1 12 3.875z"/></svg>