<svg height="24" width="24" xmlns="http://www.w3.org/2000/svg"><path style="color:#000;fill:gray;fill-opacity:1" d="m2.354 1.646-.708.708L4.543 5.25 2 7.793v8.414L7.793 22h8.414l2.543-2.543 2.896 2.897.708-.708-2.897-2.896-.707-.707-5.902-5.902L11 10.293 5.957 5.25l-.707-.707-2.896-2.897zM7.793 2l-.147.146-1.689 1.69.707.707L8.207 3h7.586L21 8.207v7.586l-1.543 1.543.707.707L22 16.207V7.793L16.207 2H7.793zM5.25 5.957l5.86 5.86L11.4 14h1.2l.082-.611 5.361 5.361-2.25 2.25H8.207L3 15.793V8.207l2.25-2.25zM11 6v2.879l2 2V6h-2zm1 10a1 1 0 0 0-1 1 1 1 0 0 0 1 1 1 1 0 0 0 1-1 1 1 0 0 0-1-1z"/></svg>