<svg height="24" width="24" xmlns="http://www.w3.org/2000/svg"><path style="color:#000;fill:gray;fill-opacity:1;-inkscape-stroke:none" d="m2.354 1.646-.708.708L4.543 5.25 2 7.793v8.414L7.793 22h8.414l2.543-2.543 2.896 2.897.708-.708-2.897-2.896-6.61-6.61L11 10.294l-5.75-5.75-2.896-2.897zM7.793 2l-.147.146-1.689 1.69L11 8.879V6h2v4.879l7.164 7.164L22 16.207V7.793L16.207 2H7.793zm3.316 9.816 1.573 1.573L12.6 14h-1.2l-.29-2.184zM12 16a1 1 0 0 1 1 1 1 1 0 0 1-1 1 1 1 0 0 1-1-1 1 1 0 0 1 1-1z"/></svg>