<svg height="24" width="24" xmlns="http://www.w3.org/2000/svg"><path style="line-height:125%;-inkscape-font-specification:Ubuntu;text-align:center;fill:gray;fill-opacity:1;stroke-width:1" d="M5.391 4c-1.322-.016-2.21.28-2.666.828C2.246 5.398 2 6.333 2 7.633v7.735c0 1.3.246 2.235.725 2.805.456.547 1.344.828 2.666.828H18.61c1.322 0 2.212-.28 2.668-.828.48-.57.723-1.505.723-2.805V7.633c0-1.3-.244-2.235-.723-2.805-.456-.547-1.346-.827-2.668-.827zm2.444 3.28c.474 0 .883.054 1.226.163.342.109.622.264.84.466.225.195.389.435.49.723.109.28.161.6.161.957 0 .296-.056.58-.173.852-.117.272-.27.537-.457.794a6.656 6.656 0 0 1-.63.722 26.95 26.95 0 0 1-.688.667c-.117.109-.243.23-.383.37a11.927 11.927 0 0 0-.725.806.94.94 0 0 0-.174.293H10.8v1.458H5.41a1.873 1.873 0 0 1-.025-.327v-.279c0-.373.059-.716.176-1.027.124-.311.284-.6.478-.865.195-.272.413-.523.654-.756.25-.234.494-.468.735-.701l.525-.5c.163-.164.308-.322.432-.47.125-.155.22-.306.29-.453.07-.156.106-.311.106-.467 0-.342-.096-.582-.29-.722-.195-.14-.438-.21-.726-.21-.21 0-.406.035-.593.105a2.696 2.696 0 0 0-.503.231 2.575 2.575 0 0 0-.386.27c-.109.085-.19.155-.244.209l-.864-1.213a4.33 4.33 0 0 1 1.191-.782 3.49 3.49 0 0 1 1.47-.315zm8.19 0c.382 0 .723.026 1.026.08a5.1 5.1 0 0 1 .794.176c.225.062.409.128.549.198.148.07.253.124.315.163l-.525 1.46a4.449 4.449 0 0 0-.864-.34 3.458 3.458 0 0 0-1.05-.15c-.848 0-1.462.235-1.843.71-.374.466-.56 1.11-.56 1.926 0 .397.047.757.14 1.084.093.319.233.594.42.828.186.233.42.417.7.549a2.4 2.4 0 0 0 .98.188c.202 0 .372-.004.512-.012.148-.008.277-.023.386-.047v-2.812h1.821v4.001c-.218.086-.57.176-1.052.269-.482.101-1.077.151-1.785.151a4.678 4.678 0 0 1-1.655-.28 3.457 3.457 0 0 1-1.26-.816 3.714 3.714 0 0 1-.818-1.318c-.186-.521-.28-1.116-.28-1.785 0-.677.105-1.276.315-1.797.21-.521.498-.96.864-1.318a3.613 3.613 0 0 1 1.284-.828 4.483 4.483 0 0 1 1.587-.28z"/></svg>