<?xml version="1.0" encoding="UTF-8" standalone="no"?>
<svg viewBox="0 0 24 24" height="24" width="24" version="1.1" id="svg4" sodipodi:docname="3g.svg" inkscape:version="1.1.1 (eb90963e84, 2021-10-02)"
   xmlns:inkscape="http://www.inkscape.org/namespaces/inkscape"
   xmlns:sodipodi="http://sodipodi.sourceforge.net/DTD/sodipodi-0.dtd"
   xmlns="http://www.w3.org/2000/svg"
   xmlns:svg="http://www.w3.org/2000/svg">
   <defs id="defs8" />
   <sodipodi:namedview id="namedview6" pagecolor="#ffffff" bordercolor="#666666" borderopacity="1.0" inkscape:pageshadow="2" inkscape:pageopacity="0.0" inkscape:pagecheckerboard="0" showgrid="false" inkscape:zoom="28" inkscape:cx="11.803571" inkscape:cy="8.6964286" inkscape:window-width="1920" inkscape:window-height="1016" inkscape:window-x="0" inkscape:window-y="27" inkscape:window-maximized="1" inkscape:current-layer="svg4" />
   <path d="m 5.39125,4.0006348 c -1.3225,-0.01625 -2.21,0.28 -2.66625,0.8275 -0.47875,0.57 -0.725,1.505 -0.725,2.805 v 7.7349992 c 0,1.3 0.24625,2.235 0.725,2.805 0.45625,0.5475 1.34375,0.8275 2.66625,0.8275 h 13.2175 c 1.3225,0 2.2125,-0.28 2.66875,-0.8275 0.47875,-0.57 0.7225,-1.505 0.7225,-2.805 v -7.7349992 c 0,-1.3 -0.24375,-2.235 -0.7225,-2.805 -0.45625,-0.5475 -1.34625,-0.8275 -2.66875,-0.8275 z m 2.24375,3.27625 c 0.475,0 0.88375,0.05875 1.225,0.175 0.35,0.11 0.63875,0.27 0.865,0.48 0.225,0.20125 0.39125,0.4425 0.5,0.7225 0.10875,0.27125 0.16375,0.57125 0.16375,0.8974996 0,0.32 -0.09,0.6299996 -0.26875,0.9337496 a 1.77875,1.77875 0 0 1 -0.7225,0.675 c 0.42,0.17125 0.74125,0.43 0.96625,0.7725 0.23375,0.33375 0.3525,0.7375 0.3525,1.2125 0,0.375 -0.06375,0.71875 -0.1875,1.0375 -0.125,0.3125 -0.32,0.585 -0.585,0.81875 -0.26375,0.225 -0.6,0.4025 -1.0125,0.535 -0.405,0.125 -0.8875,0.1875 -1.4475,0.1875 -0.21,0 -0.43125,-0.015 -0.665,-0.04625 a 6.13,6.13 0 0 1 -0.675,-0.105 7.3125,7.3125 0 0 1 -0.59625,-0.15125 3.4075,3.4075 0 0 1 -0.42,-0.15125 l 0.3375,-1.44875 c 0.20125,0.08625 0.46,0.18 0.77125,0.28125 0.31875,0.09375 0.71,0.13875 1.17625,0.13875 0.5375,0 0.93,-0.1 1.17875,-0.3025 a 1,1 0 0 0 0.375,-0.8175 0.92625,0.92625 0 0 0 -0.14,-0.525 0.91875,0.91875 0 0 0 -0.3625,-0.35 1.495,1.495 0 0 0 -0.56,-0.1875 3.7125,3.7125 0 0 0 -0.67625,-0.05875 h -0.6775 v -1.39875 h 0.76875 a 2.5,2.5 0 0 0 0.49,-0.04625 c 0.16375,-0.03125 0.30875,-0.08125 0.4325,-0.15 a 0.8325,0.8325 0 0 0 0.29125,-0.30375 0.955,0.955 0 0 0 0.11625,-0.4912496 0.765,0.765 0 0 0 -0.33875,-0.6537496 0.89375,0.89375 0 0 0 -0.3375,-0.15125 1.28875,1.28875 0 0 0 -0.385,-0.05875 c -0.335,0 -0.645,0.05 -0.9325,0.15125 -0.28,0.1 -0.5375,0.225 -0.7725,0.37375 l -0.6175,-1.2725 a 4.655,4.655 0 0 1 1.63375,-0.65125 c 0.23375,-0.0475 0.4775,-0.07125 0.735,-0.07125 z m 8.4525,0 c 0.38,0 0.72125,0.02875 1.025,0.08375 0.31125,0.04625 0.575,0.1025 0.79375,0.1725 0.225,0.0625 0.40875,0.13 0.55,0.2 0.14625,0.07 0.25125,0.125 0.31375,0.16375 l -0.525,1.4575 a 4.45,4.45 0 0 0 -0.86375,-0.33875 3.4575,3.4575 0 0 0 -1.05,-0.15125 c -0.8475,0 -1.4625,0.2375 -1.84375,0.7124996 -0.3725,0.4662496 -0.55875,1.1074996 -0.55875,1.9237496 0,0.39625 0.04625,0.7575 0.13875,1.08375 0.09375,0.31875 0.23375,0.5975 0.42,0.83 0.1875,0.23375 0.42125,0.415 0.7,0.5475 0.28125,0.125 0.60625,0.1875 0.98,0.1875 0.2025,0 0.3725,-0.005 0.5125,-0.0125 0.1475,-0.0075 0.2775,-0.0225 0.38625,-0.04625 v -2.8125 h 1.82125 v 4.00125 a 6.55,6.55 0 0 1 -1.05,0.26875 c -0.4825,0.10125 -1.08,0.15375 -1.7875,0.15375 -0.60625,0 -1.1575,-0.09375 -1.655,-0.28 a 3.4625,3.4625 0 0 1 -1.26,-0.81875 3.7125,3.7125 0 0 1 -0.8175,-1.3175 5.275,5.275 0 0 1 -0.28,-1.785 c 0,-0.6775 0.105,-1.275 0.315,-1.7974996 0.21,-0.5212496 0.49625,-0.9599996 0.8625,-1.3174996 a 3.6125,3.6125 0 0 1 1.285,-0.8275 c 0.4975,-0.1875 1.0275,-0.28125 1.5875,-0.28125 z" style="line-height:125%;-inkscape-font-specification:Ubuntu;text-align:center;stroke-width:1" font-weight="400" font-size="15px" font-family="Ubuntu" letter-spacing="0" word-spacing="0" text-anchor="middle" fill="#808080" id="path2" />
</svg>
