<svg height="24" width="24" xmlns="http://www.w3.org/2000/svg"><path d="M5.391 4c-1.322-.016-2.21.28-2.666.828C2.246 5.398 2 6.333 2 7.633v7.735c0 1.3.246 2.235.725 2.805.456.548 1.344.828 2.666.828H18.61c1.322 0 2.212-.28 2.668-.828.48-.57.723-1.505.723-2.805V7.633c0-1.3-.244-2.235-.723-2.805-.456-.547-1.346-.827-2.668-.827zm2.244 3.277c.475 0 .884.059 1.225.175.35.11.639.27.865.48.225.201.391.442.5.722.109.272.164.572.164.898 0 .32-.09.63-.269.934a1.779 1.779 0 0 1-.723.675c.42.17.742.43.967.772.233.334.352.738.352 1.213 0 .375-.064.718-.187 1.037-.125.313-.32.585-.585.819-.264.225-.6.402-1.013.535-.405.125-.887.187-1.447.187a5.05 5.05 0 0 1-.665-.046 6.13 6.13 0 0 1-.675-.105 7.313 7.313 0 0 1-.597-.151 3.408 3.408 0 0 1-.42-.151l.338-1.45c.201.087.46.18.771.282.319.094.71.139 1.177.139.537 0 .93-.1 1.178-.303a1 1 0 0 0 .375-.817.926.926 0 0 0-.14-.525.919.919 0 0 0-.362-.35 1.495 1.495 0 0 0-.56-.188 3.712 3.712 0 0 0-.677-.058H6.55v-1.4h.769a2.5 2.5 0 0 0 .49-.045c.163-.032.308-.082.432-.15a.833.833 0 0 0 .291-.304.955.955 0 0 0 .117-.491.765.765 0 0 0-.339-.654.894.894 0 0 0-.338-.151 1.289 1.289 0 0 0-.385-.06c-.335 0-.645.05-.932.152-.28.1-.538.225-.773.374l-.617-1.273a4.655 4.655 0 0 1 1.634-.65c.233-.048.477-.072.735-.072zm8.453 0c.38 0 .72.029 1.024.084.312.046.575.102.794.172a3.648 3.648 0 0 1 .864.364l-.525 1.457a4.45 4.45 0 0 0-.864-.338 3.458 3.458 0 0 0-1.05-.152c-.847 0-1.462.238-1.844.713-.372.466-.558 1.107-.558 1.924 0 .396.046.757.138 1.083.094.32.234.598.42.83.188.234.422.415.7.548.282.125.607.187.98.187.203 0 .373-.005.513-.012.147-.008.277-.023.386-.046v-2.813h1.821v4.001a6.55 6.55 0 0 1-1.05.27c-.482.1-1.08.153-1.787.153a4.687 4.687 0 0 1-1.655-.28 3.462 3.462 0 0 1-1.26-.819 3.712 3.712 0 0 1-.818-1.317 5.275 5.275 0 0 1-.28-1.785c0-.678.105-1.275.315-1.798.21-.521.497-.96.863-1.317a3.612 3.612 0 0 1 1.285-.828 4.467 4.467 0 0 1 1.587-.281z" style="line-height:125%;-inkscape-font-specification:Ubuntu;text-align:center;stroke-width:1" font-weight="400" font-size="15" font-family="Ubuntu" letter-spacing="0" word-spacing="0" text-anchor="middle" fill="gray"/></svg>