<?xml version="1.0" encoding="UTF-8" standalone="no"?>
<svg viewBox="0 0 24 24" height="24" width="24" version="1.1" id="svg4" sodipodi:docname="4g.svg" inkscape:version="1.1.1 (eb90963e84, 2021-10-02)"
   xmlns:inkscape="http://www.inkscape.org/namespaces/inkscape"
   xmlns:sodipodi="http://sodipodi.sourceforge.net/DTD/sodipodi-0.dtd"
   xmlns="http://www.w3.org/2000/svg"
   xmlns:svg="http://www.w3.org/2000/svg">
   <defs id="defs8" />
   <sodipodi:namedview id="namedview6" pagecolor="#ffffff" bordercolor="#666666" borderopacity="1.0" inkscape:pageshadow="2" inkscape:pageopacity="0.0" inkscape:pagecheckerboard="0" showgrid="false" inkscape:zoom="19.79899" inkscape:cx="4.2173868" inkscape:cy="8.9651038" inkscape:window-width="1920" inkscape:window-height="1016" inkscape:window-x="0" inkscape:window-y="27" inkscape:window-maximized="1" inkscape:current-layer="svg4" />
   <path d="m 5.39125,4.0006348 c -1.3225,-0.01625 -2.21,0.28 -2.66625,0.8275 -0.47875,0.57 -0.725,1.505 -0.725,2.805 v 7.7349992 c 0,1.3 0.24625,2.235 0.725,2.805 0.45625,0.5475 1.34375,0.8275 2.66625,0.8275 h 13.2175 c 1.3225,0 2.2125,-0.28 2.66875,-0.8275 0.47875,-0.57 0.7225,-1.505 0.7225,-2.805 v -7.7349992 c 0,-1.3 -0.24375,-2.235 -0.7225,-2.805 -0.45625,-0.5475 -1.34625,-0.8275 -2.66875,-0.8275 z m 10.7225,3.2875 c 0.38125,0 0.725,0.03 1.0275,0.08375 0.3125,0.0475 0.575,0.10375 0.79375,0.17375 a 3.44,3.44 0 0 1 0.8625,0.3625 l -0.525,1.45875 a 4.42375,4.42375 0 0 0 -0.8625,-0.33875 3.4575,3.4575 0 0 0 -1.05,-0.1525 c -0.8475,0 -1.4625,0.2375 -1.8425,0.7112496 -0.37375,0.4662496 -0.5625,1.1087496 -0.5625,1.9249996 0,0.3975 0.05,0.75875 0.1425,1.085 a 2.375,2.375 0 0 0 0.42,0.8275 c 0.18625,0.23375 0.4175,0.4175 0.6975,0.55 0.28,0.125 0.60875,0.1875 0.98125,0.1875 0.2025,0 0.37375,-0.005 0.5125,-0.0125 0.14875,-0.0075 0.2775,-0.0225 0.3875,-0.04625 v -2.8125 h 1.8175 v 4.00125 c -0.2175,0.08625 -0.5675,0.175 -1.05,0.26875 -0.48125,0.1 -1.07625,0.15125 -1.78375,0.15125 -0.6075,0 -1.16,-0.09125 -1.6575,-0.27875 a 3.4625,3.4625 0 0 1 -1.26,-0.8175 3.70875,3.70875 0 0 1 -0.81625,-1.31875 5.27375,5.27375 0 0 1 -0.28,-1.78375 c 0,-0.6775 0.105,-1.27625 0.315,-1.7974996 0.21,-0.5212496 0.49875,-0.9599996 0.86375,-1.3187496 a 3.60375,3.60375 0 0 1 1.28125,-0.8275 c 0.49875,-0.18625 1.0275,-0.28 1.5875,-0.28 z m -7.48,0.1875 h 1.64125 v 4.8524992 h 0.865 v 1.42375 h -0.865 v 1.80875 h -1.7 v -1.80875 h -3.48875 v -1.2725 c 0.17125,-0.3425 0.385,-0.72625 0.64125,-1.155 a 22.1025,22.1025 0 0 1 1.85375,-2.6699992 c 0.35,-0.43625 0.7025,-0.83 1.0525,-1.18 z m -0.05875,2.1224996 c -0.30375,0.39625 -0.6275,0.8287496 -0.97,1.2962496 a 8.88375,8.88375 0 0 0 -0.86375,1.4325 h 1.83375 z" style="line-height:125%;-inkscape-font-specification:Ubuntu;text-align:center;stroke-width:1" font-weight="400" font-size="15px" font-family="Ubuntu" letter-spacing="0" word-spacing="0" text-anchor="middle" fill="#808080" id="path2" />
</svg>
