<svg height="24" width="24" xmlns="http://www.w3.org/2000/svg"><path d="M5.391 4c-1.322-.016-2.21.28-2.666.828C2.246 5.398 2 6.333 2 7.633v7.735c0 1.3.246 2.235.725 2.805.456.548 1.344.828 2.666.828H18.61c1.322 0 2.212-.28 2.668-.828.48-.57.723-1.505.723-2.805V7.633c0-1.3-.244-2.235-.723-2.805-.456-.547-1.346-.827-2.668-.827zm10.723 3.288c.381 0 .725.03 1.027.084.313.047.575.104.794.174a3.44 3.44 0 0 1 .863.362l-.525 1.459a4.424 4.424 0 0 0-.863-.339 3.458 3.458 0 0 0-1.05-.152c-.848 0-1.462.237-1.843.71-.373.467-.562 1.11-.562 1.926 0 .397.05.759.142 1.085a2.375 2.375 0 0 0 .42.827c.187.234.418.418.698.55.28.125.609.188.981.188.203 0 .374-.005.513-.013.148-.007.277-.022.387-.046v-2.812h1.818v4c-.218.087-.568.176-1.05.27-.482.1-1.077.15-1.784.15a4.66 4.66 0 0 1-1.658-.278 3.462 3.462 0 0 1-1.26-.817 3.709 3.709 0 0 1-.816-1.32 5.274 5.274 0 0 1-.28-1.783c0-.677.105-1.276.315-1.797.21-.522.499-.96.864-1.32a3.604 3.604 0 0 1 1.281-.827 4.5 4.5 0 0 1 1.588-.28zm-7.48.188h1.641v4.852h.865v1.424h-.865v1.809h-1.7v-1.81H5.086V12.48c.171-.342.385-.726.641-1.155a22.102 22.102 0 0 1 1.854-2.67c.35-.436.703-.83 1.053-1.18zm-.059 2.122a74.81 74.81 0 0 0-.97 1.296 8.884 8.884 0 0 0-.864 1.433h1.834z" style="line-height:125%;-inkscape-font-specification:Ubuntu;text-align:center;stroke-width:1" font-weight="400" font-size="15" font-family="Ubuntu" letter-spacing="0" word-spacing="0" text-anchor="middle" fill="gray"/></svg>