<?xml version="1.0" encoding="UTF-8" standalone="no"?>
<svg viewBox="0 1 24 24" height="24" width="24" version="1.1" id="svg4" sodipodi:docname="5g.svg" inkscape:version="1.1.1 (eb90963e84, 2021-10-02)"
   xmlns:inkscape="http://www.inkscape.org/namespaces/inkscape"
   xmlns:sodipodi="http://sodipodi.sourceforge.net/DTD/sodipodi-0.dtd"
   xmlns="http://www.w3.org/2000/svg"
   xmlns:svg="http://www.w3.org/2000/svg"
   xmlns:rdf="http://www.w3.org/1999/02/22-rdf-syntax-ns#"
   xmlns:cc="http://creativecommons.org/ns#"
   xmlns:dc="http://purl.org/dc/elements/1.1/">
   <metadata id="metadata10">
      <rdf:RDF>
         <cc:Work rdf:about="">
            <dc:format>image/svg+xml</dc:format>
            <dc:type rdf:resource="http://purl.org/dc/dcmitype/StillImage" />
         </cc:Work>
      </rdf:RDF>
   </metadata>
   <defs id="defs8" />
   <sodipodi:namedview pagecolor="#ffffff" bordercolor="#666666" borderopacity="1" objecttolerance="10" gridtolerance="10" guidetolerance="10" inkscape:pageopacity="0" inkscape:pageshadow="2" inkscape:window-width="1920" inkscape:window-height="1016" id="namedview6" showgrid="false" inkscape:zoom="19.843184" inkscape:cx="12.926353" inkscape:cy="4.1575989" inkscape:window-x="0" inkscape:window-y="27" inkscape:window-maximized="1" inkscape:current-layer="svg4" inkscape:pagecheckerboard="0" />
   <path id="path2" style="line-height:125%;-inkscape-font-specification:Ubuntu;text-align:center;fill:#808080;fill-opacity:1;stroke-width:1" d="m 5.3911133,4.0006346 c -1.3225,-0.01625 -2.2097656,0.2801368 -2.6660156,0.8276368 -0.47875,0.57 -0.7250977,1.5051757 -0.7250977,2.8051757 v 7.7343739 c 0,1.3 0.2463477,2.235177 0.7250977,2.805177 0.4562499,0.5475 1.3435156,0.827636 2.6660156,0.827636 h 13.2177727 c 1.3225,0 2.212208,-0.280136 2.668458,-0.827636 0.47875,-0.57 0.722656,-1.505177 0.722656,-2.805177 v -7.7343739 c 0,-1.3 -0.243906,-2.2351757 -0.722656,-2.8051757 -0.45625,-0.5475 -1.345958,-0.8276368 -2.668458,-0.8276368 z m 10.6152347,3.2763673 c 0.381111,0 0.724498,0.026122 1.027832,0.080566 0.311111,0.046666 0.575679,0.1057813 0.793456,0.1757813 0.225557,0.062223 0.409318,0.1277538 0.549317,0.1977538 0.147778,0.07 0.25272,0.124685 0.314942,0.1635743 l -0.524902,1.4599609 c -0.248889,-0.1322222 -0.537592,-0.2460222 -0.864258,-0.3393554 -0.31889,-0.1011113 -0.668694,-0.1513673 -1.049805,-0.1513673 -0.847777,0 -1.462151,0.2360049 -1.843262,0.7104489 -0.373333,0.4666666 -0.561523,1.1096036 -0.561523,1.9262696 0,0.396666 0.04827,0.757318 0.141601,1.083984 0.09333,0.318889 0.233255,0.596745 0.419922,0.830078 0.186667,0.233334 0.420683,0.414653 0.700683,0.546875 0.28,0.124445 0.605672,0.187989 0.979004,0.187989 0.202223,0 0.372696,-0.0044 0.512696,-0.01225 0.147778,-0.0077 0.276853,-0.02305 0.385742,-0.04639 v -2.812501 h 1.818847 v 4.001466 c -0.217777,0.08555 -0.567582,0.175221 -1.049804,0.268553 -0.482222,0.101113 -1.076891,0.151368 -1.784668,0.151368 -0.606667,0 -1.157495,-0.09165 -1.655273,-0.27832 -0.49,-0.186668 -0.912208,-0.460094 -1.262207,-0.817871 -0.35,-0.357778 -0.620986,-0.797249 -0.81543,-1.31836 -0.186667,-0.521111 -0.280762,-1.115779 -0.280762,-1.784668 0,-0.676666 0.104941,-1.275764 0.314942,-1.7968746 0.209999,-0.5211107 0.498702,-0.9605816 0.864257,-1.3183592 0.365556,-0.3655554 0.79418,-0.6409702 1.28418,-0.8276368 0.497778,-0.1866666 1.024473,-0.2807616 1.584473,-0.2807616 z m -9.9853519,0.1855467 h 4.3749999 v 1.459961 h -2.9174804 c -0.015555,0.2799999 -0.03526,0.5509854 -0.058594,0.8154298 -0.015555,0.256667 -0.03526,0.4818246 -0.058594,0.6762696 1.1355551,0.07778 1.9730991,0.346775 2.5097656,0.805664 0.5444448,0.451111 0.8154298,1.080759 0.8154298,1.889648 0,0.373333 -0.06553,0.72115 -0.197754,1.040039 -0.132222,0.318889 -0.331259,0.594303 -0.5957031,0.827636 -0.2644444,0.233334 -0.5989737,0.417094 -1.0034179,0.549317 -0.3966666,0.132222 -0.8622594,0.197753 -1.3989259,0.197753 -0.2099999,0 -0.4307292,-0.01527 -0.6640625,-0.04639 -0.2255555,-0.02334 -0.4487261,-0.05831 -0.6665039,-0.104988 -0.2099998,-0.03889 -0.400178,-0.08272 -0.571289,-0.129393 -0.1711111,-0.04666 -0.3021746,-0.0925 -0.3955078,-0.13916 l 0.3149413,-1.435548 c 0.1944444,0.08556 0.4501543,0.170793 0.769043,0.256348 0.3188888,0.07777 0.699245,0.117187 1.1425782,0.117187 0.5366665,0 0.9258811,-0.104937 1.1669921,-0.314941 0.2411111,-0.217777 0.3613283,-0.471499 0.3613283,-0.759277 0,-0.225556 -0.050256,-0.422151 -0.1513673,-0.593262 -0.1011112,-0.178889 -0.2760135,-0.327669 -0.5249024,-0.444336 -0.2488887,-0.116666 -0.5834181,-0.206332 -1.0034178,-0.268554 -0.4199999,-0.06222 -0.9491367,-0.09277 -1.5869142,-0.09277 0.085555,-0.723333 0.1555165,-1.457924 0.2099609,-2.2045896 0.054445,-0.7466666 0.098284,-1.4487178 0.1293946,-2.102051 z" />
</svg>
