<svg height="24" width="24" xmlns="http://www.w3.org/2000/svg"><path style="fill:gray;stroke:none;stroke-width:2;stroke-linecap:round;stroke-linejoin:round" d="M10.822 2.023a9.5 9.5 0 0 0-6.039 2.76 9.5 9.5 0 0 0 0 13.434l.707-.707a8.5 8.5 0 0 1 0-12.02 8.5 8.5 0 0 1 12.02 0 8.5 8.5 0 0 1 0 12.02l.707.707a9.5 9.5 0 0 0 0-13.434 9.5 9.5 0 0 0-7.395-2.76zM11.5 6a5.5 5.5 0 0 0-5.082 3.395 5.5 5.5 0 0 0 1.193 5.994l.707-.707a4.5 4.5 0 0 1-.976-4.905A4.5 4.5 0 0 1 11.5 7a4.5 4.5 0 0 1 4.158 2.777 4.5 4.5 0 0 1-.976 4.905l.707.707a5.5 5.5 0 0 0 1.193-5.994A5.5 5.5 0 0 0 11.5 6zm0 4a1.5 1.5 0 0 0-1.5 1.5 1.5 1.5 0 0 0 1 1.41V22h1v-9.09a1.5 1.5 0 0 0 1-1.41 1.5 1.5 0 0 0-1.5-1.5z"/></svg>