<svg height="24" width="24" xmlns="http://www.w3.org/2000/svg"><path d="M5.391 4c-1.322-.016-2.21.28-2.666.828C2.246 5.398 2 6.333 2 7.633v7.735c0 1.3.246 2.235.725 2.805.456.548 1.344.828 2.666.828H18.61c1.322 0 2.212-.28 2.668-.828.48-.57.723-1.505.723-2.805V7.633c0-1.3-.244-2.235-.723-2.805-.456-.547-1.346-.827-2.668-.827zm3.745 3.458h5.459v1.528h-3.64v1.587h3.232v1.494h-3.232v1.949h3.909v1.527H9.136z" style="line-height:125%;-inkscape-font-specification:Ubuntu;text-align:center;stroke-width:1" font-weight="400" font-size="15" font-family="Ubuntu" letter-spacing="0" word-spacing="0" text-anchor="middle" fill="gray"/></svg>