<?xml version="1.0" encoding="UTF-8" standalone="no"?>
<svg viewBox="0 0 24 24" height="24" width="24" version="1.1" id="svg4" sodipodi:docname="edge.svg" inkscape:version="1.1.1 (eb90963e84, 2021-10-02)"
   xmlns:inkscape="http://www.inkscape.org/namespaces/inkscape"
   xmlns:sodipodi="http://sodipodi.sourceforge.net/DTD/sodipodi-0.dtd"
   xmlns="http://www.w3.org/2000/svg"
   xmlns:svg="http://www.w3.org/2000/svg">
   <defs id="defs8" />
   <sodipodi:namedview id="namedview6" pagecolor="#ffffff" bordercolor="#666666" borderopacity="1.0" inkscape:pageshadow="2" inkscape:pageopacity="0.0" inkscape:pagecheckerboard="0" showgrid="false" inkscape:zoom="56" inkscape:cx="9.5625" inkscape:cy="8.7946429" inkscape:window-width="1920" inkscape:window-height="1016" inkscape:window-x="0" inkscape:window-y="27" inkscape:window-maximized="1" inkscape:current-layer="svg4" />
   <path d="m 5.39125,4.0006348 c -1.3225,-0.01625 -2.21,0.28 -2.66625,0.8275 -0.47875,0.57 -0.725,1.505 -0.725,2.805 v 7.7349992 c 0,1.3 0.24625,2.235 0.725,2.805 0.45625,0.5475 1.34375,0.8275 2.66625,0.8275 h 13.2175 c 1.3225,0 2.2125,-0.28 2.66875,-0.8275 0.47875,-0.57 0.7225,-1.505 0.7225,-2.805 v -7.7349992 c 0,-1.3 -0.24375,-2.235 -0.7225,-2.805 -0.45625,-0.5475 -1.34625,-0.8275 -2.66875,-0.8275 z m 3.745,3.4575 h 5.45875 v 1.5275 h -3.64 v 1.5874992 h 3.2325 v 1.49375 h -3.2325 v 1.94875 h 3.90875 v 1.5275 h -5.7275 z" style="line-height:125%;-inkscape-font-specification:Ubuntu;text-align:center;stroke-width:1" font-weight="400" font-size="15px" font-family="Ubuntu" letter-spacing="0" word-spacing="0" text-anchor="middle" fill="#808080" id="path2" />
</svg>
