<svg height="24" width="24" xmlns="http://www.w3.org/2000/svg"><path d="M5.391 4c-1.322-.016-2.21.28-2.666.828C2.246 5.398 2 6.333 2 7.633v7.735c0 1.3.246 2.235.725 2.805.456.548 1.344.828 2.666.828H18.61c1.322 0 2.212-.28 2.668-.828.48-.57.723-1.505.723-2.805V7.633c0-1.3-.244-2.235-.723-2.805-.456-.547-1.346-.827-2.668-.827zm7.234 3.288c.381 0 .723.028 1.025.081.313.048.575.107.794.175.225.063.41.13.55.2.147.07.252.124.314.163l-.525 1.46a4.45 4.45 0 0 0-.863-.34 3.458 3.458 0 0 0-1.05-.15c-.849 0-1.462.235-1.844.71-.374.466-.56 1.109-.56 1.925 0 .397.046.759.14 1.085.093.319.233.594.42.827.188.234.42.418.7.55.28.124.606.188.979.188.202 0 .374-.005.512-.013.15-.007.278-.022.388-.046v-2.812h1.82v4c-.218.086-.57.176-1.053.27-.48.1-1.076.15-1.783.15a4.666 4.666 0 0 1-1.657-.28 3.458 3.458 0 0 1-1.258-.815 3.712 3.712 0 0 1-.819-1.32 5.272 5.272 0 0 1-.28-1.783c0-.677.105-1.276.315-1.797.21-.522.499-.96.864-1.32a3.612 3.612 0 0 1 1.283-.827 4.471 4.471 0 0 1 1.588-.28z" style="line-height:125%;-inkscape-font-specification:Ubuntu;text-align:center;stroke-width:1" font-weight="400" font-size="15" font-family="Ubuntu" letter-spacing="0" word-spacing="0" text-anchor="middle" fill="gray"/></svg>