<svg height="24" width="24" xmlns="http://www.w3.org/2000/svg"><path d="M11.98 3.63c-.713 0-1.389.082-2.025.245a7.843 7.843 0 0 0-1.564.598l-.881.613.758 1.174.606-.45c.922-.469 1.868-.724 2.835-.724.813 0 1.46.215 1.904.658.438.424.66.988.66 1.657 0 .416-.097.808-.29 1.163a4.53 4.53 0 0 1-.68.986c-.276.304-.564.61-.87.914v.001a8.565 8.565 0 0 0-.847.938l-.002.003a4.904 4.904 0 0 0-.659 1.053 3.186 3.186 0 0 0-.237 1.253c0 .279.032.54.075.796h1.458c-.001-.031-.014-.06-.014-.091v-.25c0-.52.104-.992.311-1.408.201-.42.45-.803.747-1.146l.002-.002c.292-.354.614-.69.966-1.012a9.688 9.688 0 0 0 .938-.983c.282-.34.515-.7.707-1.082a3 3 0 0 0 .28-1.316 4.1 4.1 0 0 0-.197-1.224l-.002-.003v-.003a2.733 2.734 0 0 0-.646-1.162c-.313-.341-.74-.624-1.282-.844V3.98c-.516-.23-1.2-.35-2.047-.35zm-.36 13.35c-.438 0-.754.134-.996.402a1.373 1.373 0 0 0-.369.962c0 .374.12.686.369.962.24.268.558.402.994.402.435 0 .753-.132.995-.402.25-.276.369-.59.369-.962 0-.375-.12-.686-.369-.962-.24-.268-.56-.402-.995-.402z" font-family="Ubuntu" font-size="72.036" font-weight="500" letter-spacing="0" style="line-height:125%;-inkscape-font-specification:'Ubuntu Medium';text-align:center;fill:gray;stroke-width:1;stroke:none" text-anchor="middle" word-spacing="0"/><path style="color:#000;fill:gray;-inkscape-stroke:none" d="m20.75 2.896-.428.426-3.217 3.219c.032.217.05.436.053.656l3.092-3.092V20.25h-7.205a2.48 2.48 0 0 1-1.428.459c-.5 0-1.02-.164-1.426-.459H4.105l5.66-5.66a5.941 5.941 0 0 1-.068-.64l-6.8 6.8H20.75V2.896z"/></svg>