<?xml version="1.0" encoding="UTF-8" standalone="no"?>
<svg viewBox="0 0 24 24" height="24" width="24" version="1.1" id="svg8" sodipodi:docname="no-route.svg" inkscape:version="1.1.1 (eb90963e84, 2021-10-02)"
   xmlns:inkscape="http://www.inkscape.org/namespaces/inkscape"
   xmlns:sodipodi="http://sodipodi.sourceforge.net/DTD/sodipodi-0.dtd"
   xmlns="http://www.w3.org/2000/svg"
   xmlns:svg="http://www.w3.org/2000/svg">
   <defs id="defs12" />
   <sodipodi:namedview id="namedview10" pagecolor="#ffffff" bordercolor="#666666" borderopacity="1.0" inkscape:pageshadow="2" inkscape:pageopacity="0.0" inkscape:pagecheckerboard="0" showgrid="true" inkscape:zoom="7" inkscape:cx="48.357143" inkscape:cy="-20.142857" inkscape:window-width="1920" inkscape:window-height="1043" inkscape:window-x="1920" inkscape:window-y="0" inkscape:window-maximized="1" inkscape:current-layer="svg8">
      <inkscape:grid type="xygrid" id="grid829" />
      <inkscape:grid type="xygrid" id="grid831" dotted="true" spacingx="0.5" spacingy="0.5" empspacing="10" />
   </sodipodi:namedview>
   <path d="m 11.980945,3.629915 c -0.714182,0 -1.389505,0.081738 -2.0259712,0.2452153 a 7.842598,7.842869 0 0 0 -1.5636959,0.5976285 l -0.8816725,0.6137082 0.7583992,1.1738174 0.6056474,-0.4502314 c 0.9218704,-0.4689909 1.867859,-0.723586 2.835287,-0.723586 0.813337,0 1.460522,0.2143958 1.904038,0.6579273 0.438156,0.4234319 0.660584,0.987561 0.660584,1.6562081 0,0.416732 -0.09781,0.8080045 -0.290764,1.1630976 -0.174191,0.3457134 -0.400638,0.674007 -0.680683,0.986221 -0.274686,0.3041742 -0.56277,0.609688 -0.868274,0.913862 v 0.0013 a 8.5648191,8.5651151 0 0 0 -0.848174,0.937982 l -0.0013,0.0027 a 4.9041361,4.9043056 0 0 0 -0.659244,1.05322 3.1863485,3.1864586 0 0 0 -0.237168,1.252876 c 0,0.278715 0.03216,0.540009 0.07504,0.795945 h 1.457842 c -0.0013,-0.03082 -0.0134,-0.05896 -0.0134,-0.09112 v -0.250575 c 0,-0.51857 0.103174,-0.991581 0.310863,-1.406973 0.200989,-0.420752 0.450216,-0.802644 0.74634,-1.145678 l 0.0027,-0.0027 c 0.292104,-0.353753 0.613687,-0.690086 0.966088,-1.01168 a 9.6876787,9.6880135 0 0 0 0.937949,-0.9835412 c 0.281385,-0.3390135 0.514532,-0.6994666 0.706142,-1.0813592 0.18491,-0.3859126 0.280045,-0.8214042 0.280045,-1.3158547 a 4.1001794,4.1003211 0 0 0 -0.196969,-1.2247364 l -0.0013,-0.00268 v -0.00268 a 2.7334529,2.7335474 0 0 0 -0.645846,-1.1617576 c -0.313543,-0.3416934 -0.73964,-0.624428 -1.282311,-0.8441838 v -0.00268 c -0.515872,-0.2304756 -1.199235,-0.3497333 -2.047409,-0.3497333 z m -0.361781,13.350163 c -0.436816,0 -0.753039,0.133997 -0.995566,0.401992 a 1.3734261,1.3734736 0 0 0 -0.36848,0.962102 c 0,0.373853 0.119253,0.686066 0.36848,0.962101 0.241187,0.267995 0.55875,0.401992 0.994226,0.401992 0.435477,0 0.75304,-0.132657 0.995567,-0.401992 0.249226,-0.276035 0.36848,-0.589588 0.36848,-0.962101 0,-0.375193 -0.119254,-0.686067 -0.36848,-0.962102 -0.241187,-0.267995 -0.56009,-0.401992 -0.995567,-0.401992 z" font-family="Ubuntu" font-size="72.036px" font-weight="500" letter-spacing="0" style="line-height:125%;-inkscape-font-specification:'Ubuntu Medium';text-align:center;fill:#808080;stroke-width:1;stroke:none" text-anchor="middle" word-spacing="0" id="path4" />
   <path id="path862" style="color:#000000;fill:#808080;-inkscape-stroke:none" d="M 20.75 2.8964844 L 20.322266 3.3222656 L 17.105469 6.5410156 C 17.136882 6.75802 17.155896 6.9774137 17.158203 7.1972656 L 20.25 4.1054688 L 20.25 20.25 L 13.044922 20.25 C 12.637826 20.545476 12.116645 20.708984 11.617188 20.708984 C 11.116223 20.708984 10.596711 20.545091 10.191406 20.25 L 4.1054688 20.25 L 9.765625 14.589844 C 9.7343819 14.391791 9.7086109 14.180159 9.6972656 13.949219 L 2.8964844 20.75 L 20.75 20.75 L 20.75 2.8964844 z " />
</svg>
