<svg height="24" width="24" xmlns="http://www.w3.org/2000/svg"><path style="fill:gray;fill-opacity:1;stroke:none;stroke-width:.5;stroke-linecap:round;stroke-linejoin:round" d="M18.5 13c-.861 0-1.51.302-1.916.709-.407.407-.584.874-.584 1.291v2h-1v5h7v-5h-1v-2c0-.417-.177-.884-.584-1.291-.407-.407-1.055-.709-1.916-.709zm0 1c.639 0 .99.198 1.209.416.218.218.291.5.291.584v2h-3v-2c0-.083.073-.366.291-.584.218-.218.57-.416 1.209-.416z"/><path style="color:#000;fill:gray;-inkscape-stroke:none" d="m21 2.293-.854.853L2.293 21H14v-4a1 1 0 0 1 1-1v-1c0-.7.302-1.423.877-1.998C16.484 12.395 17.405 12 18.5 12c1.023 0 1.895.344 2.5.885V2.293z"/></svg>