<?xml version="1.0" encoding="UTF-8" standalone="no"?>
<svg
   height="24"
   id="svg7384"
   version="1.1"
   width="24"
   sodipodi:docname="history.svg"
   inkscape:version="1.1.2 (76b9e6a115, 2022-02-25)"
   xmlns:inkscape="http://www.inkscape.org/namespaces/inkscape"
   xmlns:sodipodi="http://sodipodi.sourceforge.net/DTD/sodipodi-0.dtd"
   xmlns="http://www.w3.org/2000/svg"
   xmlns:svg="http://www.w3.org/2000/svg"
   xmlns:rdf="http://www.w3.org/1999/02/22-rdf-syntax-ns#"
   xmlns:cc="http://creativecommons.org/ns#"
   xmlns:dc="http://purl.org/dc/elements/1.1/">
  <sodipodi:namedview
     id="namedview21"
     pagecolor="#ffffff"
     bordercolor="#666666"
     borderopacity="1.0"
     inkscape:pageshadow="2"
     inkscape:pageopacity="0.0"
     inkscape:pagecheckerboard="0"
     showgrid="false"
     width="24px"
     inkscape:zoom="22.627417"
     inkscape:cx="15.048116"
     inkscape:cy="15.158602"
     inkscape:window-width="1920"
     inkscape:window-height="1043"
     inkscape:window-x="1920"
     inkscape:window-y="0"
     inkscape:window-maximized="1"
     inkscape:current-layer="svg7384">
    <inkscape:grid
       type="xygrid"
       id="grid837"
       dotted="false" />
    <inkscape:grid
       type="xygrid"
       id="grid839"
       dotted="true"
       spacingx="0.5"
       spacingy="0.5"
       empspacing="10" />
  </sodipodi:namedview>
  <metadata
     id="metadata20854">
    <rdf:RDF>
      <cc:Work
         rdf:about="">
        <dc:format>image/svg+xml</dc:format>
        <dc:type
           rdf:resource="http://purl.org/dc/dcmitype/StillImage" />
      </cc:Work>
    </rdf:RDF>
  </metadata>
  <defs
     id="defs7386">
    <linearGradient
       id="linearGradient5606"
       inkscape:swatch="solid">
      <stop
         id="stop5608"
         offset="0"
         style="stop-color:#000000;stop-opacity:1;" />
    </linearGradient>
    <linearGradient
       id="linearGradient4526"
       inkscape:swatch="solid">
      <stop
         id="stop4528"
         offset="0"
         style="stop-color:#ffffff;stop-opacity:1;" />
    </linearGradient>
    <linearGradient
       id="linearGradient3600-4"
       inkscape:swatch="gradient">
      <stop
         id="stop3602-7"
         offset="0"
         style="stop-color:#f4f4f4;stop-opacity:1" />
      <stop
         id="stop3604-6"
         offset="1"
         style="stop-color:#dbdbdb;stop-opacity:1" />
    </linearGradient>
  </defs>
  <path
     style="color:#000000;fill:#808080;stroke-linecap:square;-inkscape-stroke:none"
     d="m 16,13 v 0.5 3.707031 l 1.646484,1.646485 0.353516,0.353515 0.707031,-0.707031 -0.353515,-0.353516 -1.353516,-1.353515 v -3.292969 -0.5 z"
     id="path179" />
  <path
     id="path2"
     style="line-height:125%;-inkscape-font-specification:Ubuntu;text-align:center;fill:#808080;stroke-width:1"
     d="M 16.5 11 A 5.5 5.5 0 0 0 12.759766 12.486328 L 12.751953 12.478516 L 12 11.726562 C 11.827441 12.206454 11.668613 12.692191 11.525391 13.181641 C 11.383126 13.673341 11.254039 14.167775 11.136719 14.666016 C 11.627368 14.556005 12.122616 14.428417 12.625 14.283203 C 13.13105 14.134321 13.615106 13.974351 14.074219 13.802734 L 13.472656 13.199219 A 4.5 4.5 0 0 1 16.5 12 A 4.5 4.5 0 0 1 21 16.5 A 4.5 4.5 0 0 1 16.5 21 A 4.5 4.5 0 0 1 12.039062 17 L 11.037109 17 A 5.5 5.5 0 0 0 16.5 22 A 5.5 5.5 0 0 0 22 16.5 A 5.5 5.5 0 0 0 16.5 11 z " />
  <g
     transform="translate(-352,-39)"
     id="g4">
    <path
       id="path2-36"
       d="m 6,3 v 5.9980469 h -2.2753906 c 0,-3e-6 1.6326906,2.9646781 4.7753906,7.3300781 0.5524416,-0.767426 1.0415771,-1.472256 1.5,-2.144531 v -1.183594 c 0,-0.328494 0.05368,-0.644103 0.150391,-0.939453 l -1.650391,2.457031 -3.0351562,-4.5195311 h 1.5351562 v -5.9980469 h 3 v 6 h 1.535156 l -0.480468,0.716797 c 0.447468,-0.381268 1.008086,-0.634274 1.626953,-0.699219 0.384496,-0.6428314 0.591797,-1.017578 0.591797,-1.017578 h -2.273438 v -6 z m -2,13.998047 v 1 h 6 v -1 z"
       transform="translate(352,39)"
       style="fill:#808080"
       sodipodi:nodetypes="cccccsccccccccccccccccccc" />
  </g>
</svg>
