<svg height="24" width="24" xmlns="http://www.w3.org/2000/svg"><path style="color:#000;fill:gray;fill-opacity:1;-inkscape-stroke:none" d="M4.787 3.001c-.677.006-1.25.048-1.76.303-.34.17-.63.462-.797.838-.166.375-.23.817-.23 1.36v10c0 .54.064.983.23 1.359.167.375.458.668.797.837.68.34 1.473.303 2.473.303h13c1 0 1.794.037 2.473-.303.34-.17.63-.462.797-.837.166-.376.23-.818.23-1.36v-10c0-.542-.064-.984-.23-1.36a1.72 1.72 0 0 0-.797-.837C20.293 2.964 19.5 3 18.5 3h-13c-.25 0-.487-.002-.713 0zm-.437 1h15.3c.748 0 1.35.58 1.35 1.3v10.4c0 .72-.602 1.3-1.35 1.3H4.35c-.748 0-1.35-.58-1.35-1.3V5.3C3 4.58 3.602 4 4.35 4zm.85 1c-.666 0-1.2.49-1.2 1.1v8.8c0 .61.534 1.1 1.2 1.1h13.6c.666 0 1.2-.49 1.2-1.1v-8.8c0-.61-.534-1.1-1.2-1.1z"/><path style="color:#000;fill:gray;fill-opacity:1" d="M9 19v.125C9 21 8.375 21 7.125 21H6v1h12v-1h-1.125C15.625 21 15 21 15 19.125V19z"/></svg>