<svg height="24" width="24" xmlns="http://www.w3.org/2000/svg"><path style="color:#000;fill:gray;fill-opacity:1" d="M5.455 3c-.968.009-1.718.073-2.338.445-.413.248-.72.656-.888 1.162C2.059 5.114 2 5.722 2 6.5v8c0 .778.06 1.386.229 1.893.168.506.475.914.888 1.162C3.944 18.05 5 18 6.5 18h11c1.5 0 2.556.05 3.383-.445.413-.248.72-.656.888-1.162.17-.507.229-1.115.229-1.893v-8c0-.778-.06-1.386-.229-1.893-.168-.506-.475-.914-.888-1.162C20.056 2.95 19 3 17.5 3h-11c-.375 0-.722-.003-1.045 0zM4.35 4h15.3c.748 0 1.35.58 1.35 1.3v10.4c0 .72-.602 1.3-1.35 1.3H4.35C3.602 17 3 16.42 3 15.7V5.3C3 4.58 3.602 4 4.35 4zm.85 1C4.533 5 4 5.49 4 6.1v8.8c0 .61.534 1.1 1.2 1.1h13.6c.666 0 1.2-.49 1.2-1.1V6.1c0-.61-.534-1.1-1.2-1.1zM12 6a3 3 0 0 1 3 3h1v6H8V9h1a3 3 0 0 1 3-3zm0 1a2 2 0 0 0-2 2h4a2 2 0 0 0-2-2zm-3 3v4h6v-4zm2 1h2v2h-2zm-2 8v.125C9 21 8.375 21 7.125 21H6v1h12v-1h-1.125C15.625 21 15 21 15 19.125V19z"/></svg>