<svg height="24" width="24" xmlns="http://www.w3.org/2000/svg"><path d="M3 3v13h1v-1h1v1h5v-1H6v-5h9V9h1v1h1V3h-1v1h-1V3H5v1H4V3H3zm3 1h8v5H6V4zM4 5h1v1H4V5zm11 0h1v1h-1V5zM4 7h1v1H4V7zm11 0h1v1h-1V7zM4 9h1v1H4V9zm0 2h1v1H4v-1zm0 2h1v1H4v-1zm11.99 0v4.207l1.647 1.647.353.353.707-.707-.353-.354-1.354-1.353V13z" style="fill:gray"/><path d="M16.49 11a5.5 5.5 0 0 0-3.74 1.486l-.008-.007-.752-.752a25.313 25.313 0 0 0-.863 2.939c.49-.11.986-.238 1.488-.383.506-.149.99-.309 1.45-.48l-.602-.604A4.5 4.5 0 0 1 16.49 12a4.5 4.5 0 0 1 4.5 4.5 4.5 4.5 0 0 1-4.5 4.5 4.5 4.5 0 0 1-4.461-4h-1.002a5.5 5.5 0 0 0 5.463 5 5.5 5.5 0 0 0 5.5-5.5 5.5 5.5 0 0 0-5.5-5.5z" style="fill:gray"/></svg>