<?xml version="1.0" encoding="UTF-8" standalone="no"?>
<svg
   height="24"
   width="24"
   version="1.1"
   id="svg4"
   sodipodi:docname="accessibility.svg"
   inkscape:version="1.1 (ce6663b3b7, 2021-05-25)"
   xmlns:inkscape="http://www.inkscape.org/namespaces/inkscape"
   xmlns:sodipodi="http://sodipodi.sourceforge.net/DTD/sodipodi-0.dtd"
   xmlns="http://www.w3.org/2000/svg"
   xmlns:svg="http://www.w3.org/2000/svg">
  <defs
     id="defs8" />
  <sodipodi:namedview
     id="namedview6"
     pagecolor="#ffffff"
     bordercolor="#666666"
     borderopacity="1.0"
     inkscape:pageshadow="2"
     inkscape:pageopacity="0.0"
     inkscape:pagecheckerboard="0"
     showgrid="false"
     inkscape:snap-page="true"
     inkscape:zoom="28"
     inkscape:cx="7.7321429"
     inkscape:cy="9.5892857"
     inkscape:window-width="1920"
     inkscape:window-height="1016"
     inkscape:window-x="0"
     inkscape:window-y="27"
     inkscape:window-maximized="1"
     inkscape:current-layer="svg4" />
  <path
     d="m 12,3.25 a 2.5,2.5 0 1 1 0,5 2.5,2.5 0 0 1 0,-5 z m -7.5,6.25 h 15 v 1.2525 h -1.50875 c -0.55875,0 -1.205,0.09375 -1.66,0.2925 a 2.55875,2.55875 0 0 0 -1.08375,0.81875 3.00875,3.00875 0 0 0 -0.57625,1.235 6.985,6.985 0 0 0 -0.15875,1.53125 l -0.03,6.12 h -1.25 l 0.0175,-3.75 a 1.2475,1.2475 0 0 0 -1.25,-1.25 c -0.69,0 -1.245,0.56 -1.25,1.25 l -0.0175,3.75 h -1.2325 l 0.03,-6.1275 v -0.01 c -0.03375,-0.53375 -0.05,-1.0375 -0.15875,-1.51375 -0.10875,-0.475 -0.3,-0.88875 -0.57625,-1.23375 a 2.5575,2.5575 0 0 0 -1.08375,-0.82 c -0.45625,-0.2 -1.00875,-0.2925 -1.66,-0.2925 h -1.55125 z"
     style="line-height:normal;font-variant-ligatures:normal;font-variant-position:normal;font-variant-caps:normal;font-variant-numeric:normal;font-variant-alternates:normal;font-feature-settings:normal;text-indent:0;text-align:start;text-decoration-line:none;text-decoration-style:solid;text-decoration-color:#000000;text-transform:none;text-orientation:mixed;shape-padding:0;isolation:auto;mix-blend-mode:normal;stroke-width:1"
     color="#000000"
     font-weight="400"
     font-family="sans-serif"
     white-space="normal"
     overflow="visible"
     fill="#808080"
     id="path2" />
</svg>
