<?xml version="1.0" encoding="UTF-8" standalone="no"?>
<svg
   height="24"
   id="svg7384"
   version="1.1"
   width="24"
   sodipodi:docname="addon-filled.svg"
   inkscape:version="1.1 (ce6663b3b7, 2021-05-25)"
   xmlns:inkscape="http://www.inkscape.org/namespaces/inkscape"
   xmlns:sodipodi="http://sodipodi.sourceforge.net/DTD/sodipodi-0.dtd"
   xmlns="http://www.w3.org/2000/svg"
   xmlns:svg="http://www.w3.org/2000/svg"
   xmlns:rdf="http://www.w3.org/1999/02/22-rdf-syntax-ns#"
   xmlns:cc="http://creativecommons.org/ns#">
  <sodipodi:namedview
     id="namedview21"
     pagecolor="#ffffff"
     bordercolor="#666666"
     borderopacity="1.0"
     inkscape:pageshadow="2"
     inkscape:pageopacity="0.0"
     inkscape:pagecheckerboard="0"
     showgrid="false"
     inkscape:snap-page="true"
     inkscape:zoom="13.999987"
     inkscape:cx="6.1785774"
     inkscape:cy="15.178586"
     inkscape:window-width="1920"
     inkscape:window-height="1016"
     inkscape:window-x="0"
     inkscape:window-y="27"
     inkscape:window-maximized="1"
     inkscape:current-layer="svg7384" />
  <metadata
     id="metadata20854">
    <rdf:RDF>
      <cc:Work
         rdf:about="" />
    </rdf:RDF>
  </metadata>
  <defs
     id="defs7386">
    <linearGradient
       id="linearGradient5606"
       inkscape:swatch="solid">
      <stop
         id="stop5608"
         offset="0"
         style="stop-color:#000000;stop-opacity:1;" />
    </linearGradient>
    <linearGradient
       id="linearGradient4526"
       inkscape:swatch="solid">
      <stop
         id="stop4528"
         offset="0"
         style="stop-color:#ffffff;stop-opacity:1;" />
    </linearGradient>
    <linearGradient
       id="linearGradient3600-4"
       inkscape:swatch="gradient">
      <stop
         id="stop3602-7"
         offset="0"
         style="stop-color:#f4f4f4;stop-opacity:1" />
      <stop
         id="stop3604-6"
         offset="1"
         style="stop-color:#dbdbdb;stop-opacity:1" />
    </linearGradient>
  </defs>
  <g
     id="layer9"
     label="status"
     style="display:inline;stroke-width:0.8"
     transform="matrix(1.25,0,0,1.25,-764.25025,260.74999)" />
  <g
     id="layer2"
     style="display:inline;stroke-width:0.8"
     transform="matrix(1.25,0,0,1.25,-463,-198.00001)" />
  <path
     id="rect9178"
     style="vector-effect:none;fill:#808080;fill-opacity:1;stroke:none;stroke-width:1;stroke-linecap:round;stroke-linejoin:round;stroke-miterlimit:4;stroke-dasharray:none;stroke-dashoffset:0;stroke-opacity:0.880597"
     d="M 10.75 2 C 8.546475 2 8.25 3.25 8.25 3.875 C 8.25 4.5 8.25 5.125 8.5625 5.75 L 8.25 5.75 L 3.25 5.75 L 3.25 11.0625 C 3.875 10.75 4.5 10.75 5.125 10.75 C 5.75 10.75 7 11.046475 7 13.25 C 7 15.459137 5.80765 15.75 5.125 15.75 C 4.5 15.75 3.875 15.75 3.25 15.4375 L 3.25 20.75 L 8.25 20.75 L 8.5625 20.75 C 8.25 20.125 8.25 19.5 8.25 18.875 C 8.25 18.25 8.546475 17 10.75 17 C 12.959137 17 13.25 18.19235 13.25 18.875 C 13.25 19.5 13.25 20.125 12.9375 20.75 L 18.25 20.75 L 18.25 15.4375 C 18.875 15.75 19.5 15.75 20.125 15.75 C 20.80765 15.75 22 15.459137 22 13.25 C 22 11.046475 20.75 10.75 20.125 10.75 C 19.5 10.75 18.875 10.75 18.25 11.0625 L 18.25 5.75 L 13.25 5.75 L 12.9375 5.75 C 13.25 5.125 13.25 4.5 13.25 3.875 C 13.25 3.19235 12.959137 2 10.75 2 z " />
  <g
     id="g1812"
     style="display:inline;stroke-width:0.8"
     transform="matrix(1.25,0,0,1.25,-463,-198.00001)" />
  <g
     id="g6217"
     style="display:inline;stroke-width:0.8"
     transform="matrix(1.25,0,0,1.25,-463,-198.00001)" />
  <g
     id="layer3"
     style="display:inline;stroke-width:0.8"
     transform="matrix(1.25,0,0,1.25,-463,-198.00001)" />
  <g
     id="g1833"
     style="display:inline;stroke-width:0.8"
     transform="matrix(1.25,0,0,1.25,-463,-198.00001)" />
  <g
     id="layer1"
     style="display:inline;stroke-width:0.8"
     transform="matrix(1.25,0,0,1.25,-463,-198.00001)" />
</svg>
