<?xml version="1.0" encoding="UTF-8" standalone="no"?>
<svg viewBox="0 1 24 24" height="24" id="svg7384" version="1.1" width="24" sodipodi:docname="addon.svg" inkscape:version="1.1 (ce6663b3b7, 2021-05-25)"
   xmlns:inkscape="http://www.inkscape.org/namespaces/inkscape"
   xmlns:sodipodi="http://sodipodi.sourceforge.net/DTD/sodipodi-0.dtd"
   xmlns="http://www.w3.org/2000/svg"
   xmlns:svg="http://www.w3.org/2000/svg"
   xmlns:rdf="http://www.w3.org/1999/02/22-rdf-syntax-ns#"
   xmlns:cc="http://creativecommons.org/ns#">
   <sodipodi:namedview id="namedview21" pagecolor="#ffffff" bordercolor="#666666" borderopacity="1.0" inkscape:pageshadow="2" inkscape:pageopacity="0.0" inkscape:pagecheckerboard="0" showgrid="true" inkscape:snap-page="true" inkscape:zoom="11.313709" inkscape:cx="7.7339804" inkscape:cy="9.7227182" inkscape:window-width="1920" inkscape:window-height="1043" inkscape:window-x="1920" inkscape:window-y="0" inkscape:window-maximized="1" inkscape:current-layer="svg7384">
      <inkscape:grid type="xygrid" id="grid22" />
      <inkscape:grid type="xygrid" id="grid839" dotted="true" spacingx="0.25" spacingy="0.25" empspacing="20" />
   </sodipodi:namedview>
   <metadata id="metadata20854">
      <rdf:RDF>
         <cc:Work rdf:about="" />
      </rdf:RDF>
   </metadata>
   <defs id="defs7386">
      <linearGradient id="linearGradient5606" inkscape:swatch="solid">
         <stop id="stop5608" offset="0" style="stop-color:#000000;stop-opacity:1;" />
      </linearGradient>
      <linearGradient id="linearGradient4526" inkscape:swatch="solid">
         <stop id="stop4528" offset="0" style="stop-color:#ffffff;stop-opacity:1;" />
      </linearGradient>
      <linearGradient id="linearGradient3600-4" inkscape:swatch="gradient">
         <stop id="stop3602-7" offset="0" style="stop-color:#f4f4f4;stop-opacity:1" />
         <stop id="stop3604-6" offset="1" style="stop-color:#dbdbdb;stop-opacity:1" />
      </linearGradient>
   </defs>
   <path id="path874" style="color:#000000;fill:#808080;stroke-linecap:square;-inkscape-stroke:none;fill-opacity:1" d="m 11,2 c -0.808711,0 -1.4369349,0.3484522 -1.7460938,0.8691406 -0.3091584,0.5206885 -0.3353791,1.1211904 -0.2832031,1.6777344 0.050454,0.5381741 0.1845646,1.0581169 0.3105469,1.453125 h -5.28125 -1 v 5.671875 0.431641 0.646484 l 0.7011719,-0.291016 c 0,0 0.9587931,-0.409039 1.8457031,-0.492187 0.443455,-0.04157 0.8429548,0.01033 1.0722656,0.146484 0.2293108,0.136154 0.3808594,0.320432 0.3808594,0.886719 0,0.566287 -0.1515486,0.750565 -0.3808594,0.886719 -0.2293108,0.136153 -0.6288106,0.188058 -1.0722656,0.146484 -0.88691,-0.08315 -1.8457031,-0.492187 -1.8457031,-0.492187 l -0.7011719,-0.291016 v 0.646484 0.431641 6.671875 h 1 3 2.671875 0.431641 0.646484 l -0.291016,-0.701172 c 0,0 -0.409039,-0.958793 -0.4921871,-1.845703 -0.041574,-0.443455 0.010332,-0.842955 0.1464841,-1.072266 0.136154,-0.22931 0.320432,-0.380859 0.886719,-0.380859 0.566287,0 0.750565,0.151549 0.886719,0.380859 0.136153,0.229311 0.188058,0.628811 0.146484,1.072266 -0.08315,0.88691 -0.492187,1.845703 -0.492187,1.845703 l -0.291016,0.701172 h 0.646484 0.431641 1.671875 4 v -1 -5.28125 c 0.395008,0.125982 0.914951,0.260093 1.453125,0.310547 0.556544,0.05218 1.157046,0.02596 1.677734,-0.283203 0.520689,-0.309159 0.869141,-0.937383 0.869141,-1.746094 0,-0.808711 -0.348452,-1.436935 -0.869141,-1.746094 -0.520688,-0.309159 -1.12119,-0.335379 -1.677734,-0.283203 -0.538174,0.05045 -1.058117,0.184565 -1.453125,0.310547 v -5.28125 h -5.28125 c 0.125982,-0.3950081 0.260093,-0.9149509 0.310547,-1.453125 0.05218,-0.556544 0.02596,-1.1570459 -0.283203,-1.6777344 -0.309159,-0.5206884 -0.937383,-0.8691406 -1.746094,-0.8691406 z m 0,1 c 0.566287,0 0.750565,0.1515486 0.886719,0.3808594 0.136153,0.2293108 0.188058,0.6288106 0.146484,1.0722656 -0.08315,0.88691 -0.492187,1.8457031 -0.492187,1.8457031 l -0.291016,0.7011719 h 0.646484 0.431641 1.671875 3 v 3 1.671875 0.431641 0.646484 l 0.701172,-0.291016 c 0,0 0.958793,-0.409039 1.845703,-0.492187 0.443455,-0.04157 0.842955,0.01033 1.072266,0.146484 0.22931,0.136154 0.380859,0.320432 0.380859,0.886719 0,0.566287 -0.151549,0.750565 -0.380859,0.886719 -0.229311,0.136153 -0.628811,0.188058 -1.072266,0.146484 -0.88691,-0.08315 -1.845703,-0.492187 -1.845703,-0.492187 l -0.701172,-0.291016 v 0.646484 0.431641 2.671875 3 h -4.28125 c 0.125982,-0.395008 0.260093,-0.914951 0.310547,-1.453125 0.05218,-0.556544 0.02596,-1.157046 -0.283203,-1.677734 -0.309159,-0.520689 -0.937383,-0.869141 -1.746094,-0.869141 -0.808711,0 -1.4369349,0.348452 -1.7460938,0.869141 -0.3091584,0.520688 -0.3353791,1.12119 -0.2832031,1.677734 0.050454,0.538174 0.1845646,1.058117 0.3105469,1.453125 h -5.28125 v -5.28125 c 0.3950081,0.125982 0.9149509,0.260093 1.453125,0.310547 0.556544,0.05218 1.1570459,0.02596 1.6777344,-0.283203 0.5206884,-0.309159 0.8691406,-0.937383 0.8691406,-1.746094 0,-0.808711 -0.3484522,-1.436935 -0.8691406,-1.746094 -0.5206885,-0.309159 -1.1211904,-0.335379 -1.6777344,-0.283203 -0.5381741,0.05045 -1.0581169,0.184565 -1.453125,0.310547 v -4.28125 h 3 2.671875 0.431641 0.646484 l -0.291016,-0.7011719 c 0,0 -0.409039,-0.9587931 -0.4921871,-1.8457031 -0.041574,-0.443455 0.010332,-0.8429548 0.1464841,-1.0722656 0.136154,-0.2293108 0.320432,-0.3808594 0.886719,-0.3808594 z" sodipodi:nodetypes="sssccccccccsssscccccccccccsssssccccccccssssscccccsssscccccccccccssssscccccccssssscccccssscccccccsss" />
</svg>
