<?xml version="1.0" encoding="UTF-8" standalone="no"?>
<svg
   height="24"
   id="svg7384"
   version="1.1"
   width="24"
   sodipodi:docname="addon.svg"
   inkscape:version="1.1 (ce6663b3b7, 2021-05-25)"
   xmlns:inkscape="http://www.inkscape.org/namespaces/inkscape"
   xmlns:sodipodi="http://sodipodi.sourceforge.net/DTD/sodipodi-0.dtd"
   xmlns="http://www.w3.org/2000/svg"
   xmlns:svg="http://www.w3.org/2000/svg"
   xmlns:rdf="http://www.w3.org/1999/02/22-rdf-syntax-ns#"
   xmlns:cc="http://creativecommons.org/ns#">
  <sodipodi:namedview
     id="namedview21"
     pagecolor="#ffffff"
     bordercolor="#666666"
     borderopacity="1.0"
     inkscape:pageshadow="2"
     inkscape:pageopacity="0.0"
     inkscape:pagecheckerboard="0"
     showgrid="false"
     inkscape:snap-page="true"
     inkscape:zoom="27.999973"
     inkscape:cx="9.1964373"
     inkscape:cy="9.4464376"
     inkscape:window-width="1920"
     inkscape:window-height="1016"
     inkscape:window-x="0"
     inkscape:window-y="27"
     inkscape:window-maximized="1"
     inkscape:current-layer="svg7384" />
  <metadata
     id="metadata20854">
    <rdf:RDF>
      <cc:Work
         rdf:about="" />
    </rdf:RDF>
  </metadata>
  <defs
     id="defs7386">
    <linearGradient
       id="linearGradient5606"
       inkscape:swatch="solid">
      <stop
         id="stop5608"
         offset="0"
         style="stop-color:#000000;stop-opacity:1;" />
    </linearGradient>
    <linearGradient
       id="linearGradient4526"
       inkscape:swatch="solid">
      <stop
         id="stop4528"
         offset="0"
         style="stop-color:#ffffff;stop-opacity:1;" />
    </linearGradient>
    <linearGradient
       id="linearGradient3600-4"
       inkscape:swatch="gradient">
      <stop
         id="stop3602-7"
         offset="0"
         style="stop-color:#f4f4f4;stop-opacity:1" />
      <stop
         id="stop3604-6"
         offset="1"
         style="stop-color:#dbdbdb;stop-opacity:1" />
    </linearGradient>
  </defs>
  <g
     id="layer9"
     label="status"
     style="display:inline;stroke-width:0.8"
     transform="matrix(1.25,0,0,1.25,-764.25025,260.74999)" />
  <g
     id="layer2"
     style="display:inline;stroke-width:0.8"
     transform="matrix(1.25,0,0,1.25,-463,-198.00001)" />
  <g
     id="layer4"
     style="display:inline;stroke-width:0.8"
     transform="matrix(1.25,0,0,1.25,-463,-198.00001)">
    <path
       d="m 379,160 c -1.76282,0 -2,1 -2,1.5 0,0.5 0,1 0.25,1.5 h -0.25 -4 v 4 1 0.5 c 0,0 1,-0.5 2,-0.5 0.5,0 1,0.5 1,1 0,0.5 -0.5,1 -1,1 -1,0 -2,-0.5 -2,-0.5 v 0.5 1 4 h 4 1 0.5 c 0,0 -0.5,-1 -0.5,-2 0,-0.5 0.5,-1 1,-1 0.5,0 1,0.5 1,1 0,1 -0.5,2 -0.5,2 h 0.5 1 4 v -4.25 c 0.5,0.25 1,0.25 1.5,0.25 0.54612,0 1.5,-0.23269 1.5,-2 0,-1.76282 -1,-2 -1.5,-2 -0.5,0 -1,0 -1.5,0.25 v -4.25 h -4 -0.25 c 0.25,-0.5 0.25,-1 0.25,-1.5 0,-0.54612 -0.23269,-1.5 -2,-1.5 z m 0,1 c 0.5,0 1,0.5 1,1 0,1 -0.5,2 -0.5,2 h 0.5 v 0.0312 l 4,-0.002 v 4.4708 c 0,0 1,-0.5 2,-0.5 0.5,0 1,0.5 1,1 0,0.5 -0.5,1 -1,1 -1,0 -2,-0.5 -2,-0.5 v 4.46484 h -3.23633 c 0.23281,-0.48826 0.23633,-0.97657 0.23633,-1.46484 0,-0.54612 -0.23269,-1.5 -2,-1.5 -1.76282,0 -2,1 -2,1.5 0,0.48827 0.004,0.97658 0.23633,1.46484 h -3.21289 v -3.20507 c 0.4921,0.23834 0.98445,0.24023 1.47656,0.24023 0.54612,0 1.5,-0.23269 1.5,-2 0,-1.76282 -1,-2 -1.5,-2 -0.49211,0 -0.98446,0.002 -1.47656,0.24023 v -3.20703 l 3.97656,-0.002 v -0.0312 h 0.5 c 0,0 -0.5,-1 -0.5,-2 0,-0.5 0.5,-1 1,-1 z"
       id="rect9178"
       style="opacity:1;vector-effect:none;fill:#808080;fill-opacity:1;stroke:none;stroke-width:0.8;stroke-linecap:round;stroke-linejoin:round;stroke-miterlimit:4;stroke-dasharray:none;stroke-dashoffset:0;stroke-opacity:0.880597" />
  </g>
  <g
     id="g1812"
     style="display:inline;stroke-width:0.8"
     transform="matrix(1.25,0,0,1.25,-463,-198.00001)" />
  <g
     id="g6217"
     style="display:inline;stroke-width:0.8"
     transform="matrix(1.25,0,0,1.25,-463,-198.00001)" />
  <g
     id="layer3"
     style="display:inline;stroke-width:0.8"
     transform="matrix(1.25,0,0,1.25,-463,-198.00001)" />
  <g
     id="g1833"
     style="display:inline;stroke-width:0.8"
     transform="matrix(1.25,0,0,1.25,-463,-198.00001)" />
  <g
     id="layer1"
     style="display:inline;stroke-width:0.8"
     transform="matrix(1.25,0,0,1.25,-463,-198.00001)" />
</svg>
