<?xml version="1.0" encoding="UTF-8" standalone="no"?>
<svg
   height="16"
   id="svg7384"
   version="1.1"
   width="16"
   sodipodi:docname="address-book.svg"
   inkscape:version="1.1 (ce6663b3b7, 2021-05-25)"
   xmlns:inkscape="http://www.inkscape.org/namespaces/inkscape"
   xmlns:sodipodi="http://sodipodi.sourceforge.net/DTD/sodipodi-0.dtd"
   xmlns="http://www.w3.org/2000/svg"
   xmlns:svg="http://www.w3.org/2000/svg"
   xmlns:rdf="http://www.w3.org/1999/02/22-rdf-syntax-ns#"
   xmlns:cc="http://creativecommons.org/ns#"
   xmlns:dc="http://purl.org/dc/elements/1.1/">
  <sodipodi:namedview
     id="namedview24"
     pagecolor="#ffffff"
     bordercolor="#666666"
     borderopacity="1.0"
     inkscape:pageshadow="2"
     inkscape:pageopacity="0.0"
     inkscape:pagecheckerboard="0"
     showgrid="false"
     inkscape:zoom="56"
     inkscape:cx="7.9910714"
     inkscape:cy="8.0089286"
     inkscape:window-width="1920"
     inkscape:window-height="1016"
     inkscape:window-x="0"
     inkscape:window-y="27"
     inkscape:window-maximized="1"
     inkscape:current-layer="svg7384" />
  <metadata
     id="metadata20854">
    <rdf:RDF>
      <cc:Work
         rdf:about="">
        <dc:format>image/svg+xml</dc:format>
        <dc:type
           rdf:resource="http://purl.org/dc/dcmitype/StillImage" />
      </cc:Work>
    </rdf:RDF>
  </metadata>
  <defs
     id="defs7386">
    <linearGradient
       id="linearGradient5606"
       inkscape:swatch="solid">
      <stop
         id="stop5608"
         offset="0"
         style="stop-color:#000000;stop-opacity:1;" />
    </linearGradient>
    <linearGradient
       id="linearGradient4526"
       inkscape:swatch="solid">
      <stop
         id="stop4528"
         offset="0"
         style="stop-color:#ffffff;stop-opacity:1;" />
    </linearGradient>
    <linearGradient
       id="linearGradient3600-4"
       inkscape:swatch="gradient">
      <stop
         id="stop3602-7"
         offset="0"
         style="stop-color:#f4f4f4;stop-opacity:1" />
      <stop
         id="stop3604-6"
         offset="1"
         style="stop-color:#dbdbdb;stop-opacity:1" />
    </linearGradient>
  </defs>
  <path
     id="path2732-8-1-7"
     style="color:#000000;font-style:normal;font-variant:normal;font-weight:normal;font-stretch:normal;font-size:medium;line-height:normal;font-family:sans-serif;font-variant-ligatures:normal;font-variant-position:normal;font-variant-caps:normal;font-variant-numeric:normal;font-variant-alternates:normal;font-feature-settings:normal;text-indent:0;text-align:start;text-decoration:none;text-decoration-line:none;text-decoration-style:solid;text-decoration-color:#000000;letter-spacing:normal;word-spacing:normal;text-transform:none;writing-mode:lr-tb;direction:ltr;text-orientation:mixed;dominant-baseline:auto;baseline-shift:baseline;text-anchor:start;white-space:normal;shape-padding:0;clip-rule:nonzero;display:inline;overflow:visible;visibility:visible;isolation:auto;mix-blend-mode:normal;color-interpolation:sRGB;color-interpolation-filters:linearRGB;solid-color:#000000;solid-opacity:1;vector-effect:none;fill:#808080;fill-opacity:1;fill-rule:nonzero;stroke:none;stroke-width:1;stroke-linecap:butt;stroke-linejoin:miter;stroke-miterlimit:4;stroke-dasharray:none;stroke-dashoffset:0;stroke-opacity:1;marker:none;color-rendering:auto;image-rendering:auto;shape-rendering:auto;text-rendering:auto;enable-background:accumulate"
     d="M 4.9941406 0 C 3.7359406 0.0145 2.81525 -0.030604375 2.0625 0.38476562 C 1.68613 0.59242563 1.3892694 0.9441525 1.2246094 1.3828125 C 1.0599394 1.8214825 1 2.34239 1 3 L 1 13 C 1 13.65761 1.0598994 14.178577 1.2246094 14.617188 C 1.3892894 15.055798 1.68614 15.405711 2.0625 15.613281 C 2.81522 16.028411 3.7360406 15.98493 4.9941406 16 L 4.9960938 16 L 10.001953 16 L 10.005859 16 C 11.264049 15.9855 12.18475 16.030604 12.9375 15.615234 C 13.31387 15.407574 13.610721 15.055848 13.775391 14.617188 C 13.939921 14.178517 14 13.65761 14 13 L 14 3 C 14 2.34239 13.940101 1.8214225 13.775391 1.3828125 C 13.610711 0.9442025 13.31386 0.59428875 12.9375 0.38671875 C 12.18478 -0.02841125 11.263949 0.01507 10.005859 0 L 10.003906 0 L 4.9980469 0 L 4.9941406 0 z M 5 1 L 10 1 C 10.376174 1.004543 10.701286 1.0141232 11 1.0273438 L 11 14.972656 C 10.701287 14.985856 10.376144 14.995603 10 15 L 5.0058594 15 L 5 15 C 3.74137 14.9848 2.9109019 14.940101 2.5449219 14.738281 C 2.3615019 14.637121 2.2576963 14.525425 2.1601562 14.265625 C 2.0625563 14.005835 2 13.59239 2 13 L 2 3 C 2 2.40761 2.0625963 1.994275 2.1601562 1.734375 C 2.2577562 1.474465 2.363465 1.3629088 2.546875 1.2617188 C 2.912825 1.0598087 3.74148 1.0147 5 1 z M 12 1.1210938 C 12.190626 1.1567091 12.346005 1.2015704 12.455078 1.2617188 C 12.638498 1.3628787 12.742304 1.474575 12.839844 1.734375 C 12.937244 1.994165 13 2.40761 13 3 L 13 13 C 13 13.59239 12.937404 14.005725 12.839844 14.265625 C 12.742244 14.525535 12.638488 14.637091 12.455078 14.738281 C 12.346011 14.798459 12.190635 14.843241 12 14.878906 L 12 1.1210938 z M 7 4 C 6.7173 4 6.4485119 4.0549956 6.2011719 4.1660156 C 5.9552819 4.2716556 5.7360575 4.4261131 5.5546875 4.6269531 L 5.5546875 4.6289062 L 5.5527344 4.6308594 C 5.3760244 4.8326494 5.2404513 5.0743394 5.1445312 5.3496094 C 5.0468313 5.6250094 5 5.92722 5 6.25 C 5 6.57721 5.0466013 6.8821731 5.1445312 7.1582031 C 5.2407312 7.4293031 5.3764544 7.6678406 5.5527344 7.8691406 L 5.5546875 7.8710938 C 5.7356375 8.0714838 5.9524856 8.2294137 6.1972656 8.3398438 L 6.1992188 8.3417969 L 6.2011719 8.3417969 C 6.4479819 8.4474569 6.71774 8.5 7 8.5 C 7.2822 8.5 7.549845 8.4474969 7.796875 8.3417969 L 7.796875 8.3398438 C 8.041435 8.2295138 8.2549906 8.0722037 8.4316406 7.8710938 C 8.6131706 7.6697637 8.7530994 7.4303931 8.8496094 7.1582031 C 8.9479094 6.8821731 8.9941406 6.57719 8.9941406 6.25 L 9 6.25 C 9 5.92758 8.9529988 5.6267825 8.8554688 5.3515625 C 8.7593688 5.0751125 8.6194 4.8308362 8.4375 4.6289062 C 8.26042 4.4271563 8.0445081 4.2716656 7.7988281 4.1660156 C 7.5507581 4.0556456 7.2829 4 7 4 z M 7 5 C 7.55228 5 8 5.55964 8 6.25 C 8 6.94036 7.55228 7.5 7 7.5 C 6.44772 7.5 6 6.94036 6 6.25 C 6 5.55964 6.44772 5 7 5 z M 7 9 L 7 9.0019531 C 4.00214 9.0099531 4 11 4 11 C 3.99984 11.99805 4.001 11.446597 4 11.998047 C 4.5 11.999047 5.74992 12 7 12 C 8.25008 12 9.5 11.997094 10 11.996094 C 9.999 11.444644 10.00016 11.996097 10 10.998047 C 10 10.998047 9.998 9.008 7 9 z M 7 10.001953 C 8.99718 10.005953 8.8925781 10.992187 8.8925781 10.992188 C 8.8935781 10.994188 8.8935312 10.998 8.8945312 11 L 7 11 L 5.1054688 11 C 5.1061287 10.998 5.1063719 10.996141 5.1074219 10.994141 C 5.1074219 10.994141 5.00282 10.007836 7 10.003906 L 7 10.001953 z " />
</svg>
