<?xml version="1.0" encoding="UTF-8" standalone="no"?>
<svg
   height="24"
   id="svg7384"
   version="1.1"
   width="24"
   sodipodi:docname="address-book.svg"
   inkscape:version="1.1 (ce6663b3b7, 2021-05-25)"
   xmlns:inkscape="http://www.inkscape.org/namespaces/inkscape"
   xmlns:sodipodi="http://sodipodi.sourceforge.net/DTD/sodipodi-0.dtd"
   xmlns="http://www.w3.org/2000/svg"
   xmlns:svg="http://www.w3.org/2000/svg"
   xmlns:rdf="http://www.w3.org/1999/02/22-rdf-syntax-ns#"
   xmlns:cc="http://creativecommons.org/ns#"
   xmlns:dc="http://purl.org/dc/elements/1.1/">
  <sodipodi:namedview
     id="namedview24"
     pagecolor="#ffffff"
     bordercolor="#666666"
     borderopacity="1.0"
     inkscape:pageshadow="2"
     inkscape:pageopacity="0.0"
     inkscape:pagecheckerboard="0"
     showgrid="false"
     inkscape:zoom="14"
     inkscape:cx="1.25"
     inkscape:cy="15.607143"
     inkscape:window-width="1920"
     inkscape:window-height="1016"
     inkscape:window-x="0"
     inkscape:window-y="27"
     inkscape:window-maximized="1"
     inkscape:current-layer="svg7384"
     width="24px" />
  <metadata
     id="metadata20854">
    <rdf:RDF>
      <cc:Work
         rdf:about="">
        <dc:format>image/svg+xml</dc:format>
        <dc:type
           rdf:resource="http://purl.org/dc/dcmitype/StillImage" />
      </cc:Work>
    </rdf:RDF>
  </metadata>
  <defs
     id="defs7386">
    <linearGradient
       id="linearGradient5606"
       inkscape:swatch="solid">
      <stop
         id="stop5608"
         offset="0"
         style="stop-color:#000000;stop-opacity:1;" />
    </linearGradient>
    <linearGradient
       id="linearGradient4526"
       inkscape:swatch="solid">
      <stop
         id="stop4528"
         offset="0"
         style="stop-color:#ffffff;stop-opacity:1;" />
    </linearGradient>
    <linearGradient
       id="linearGradient3600-4"
       inkscape:swatch="gradient">
      <stop
         id="stop3602-7"
         offset="0"
         style="stop-color:#f4f4f4;stop-opacity:1" />
      <stop
         id="stop3604-6"
         offset="1"
         style="stop-color:#dbdbdb;stop-opacity:1" />
    </linearGradient>
  </defs>
  <path
     id="path2732-8-1-7"
     style="color:#000000;font-style:normal;font-variant:normal;font-weight:normal;font-stretch:normal;font-size:medium;line-height:normal;font-family:sans-serif;font-variant-ligatures:normal;font-variant-position:normal;font-variant-caps:normal;font-variant-numeric:normal;font-variant-alternates:normal;font-feature-settings:normal;text-indent:0;text-align:start;text-decoration:none;text-decoration-line:none;text-decoration-style:solid;text-decoration-color:#000000;letter-spacing:normal;word-spacing:normal;text-transform:none;writing-mode:lr-tb;direction:ltr;text-orientation:mixed;dominant-baseline:auto;baseline-shift:baseline;text-anchor:start;white-space:normal;shape-padding:0;clip-rule:nonzero;display:inline;overflow:visible;visibility:visible;isolation:auto;mix-blend-mode:normal;color-interpolation:sRGB;color-interpolation-filters:linearRGB;solid-color:#000000;solid-opacity:1;vector-effect:none;fill:#808080;fill-opacity:1;fill-rule:nonzero;stroke:none;stroke-width:1;stroke-linecap:butt;stroke-linejoin:miter;stroke-miterlimit:4;stroke-dasharray:none;stroke-dashoffset:0;stroke-opacity:1;marker:none;color-rendering:auto;image-rendering:auto;shape-rendering:auto;text-rendering:auto;enable-background:accumulate"
     d="m 8.8676677,2 c -1.57275,0.018125 -2.7236132,-0.038256 -3.6645507,0.480957 -0.4704625,0.259575 -0.8415383,0.6992336 -1.0473633,1.2475586 -0.2058375,0.5483375 -0.2807617,1.1994719 -0.2807617,2.0214844 v 12.5 c 0,0.822012 0.074874,1.473221 0.2807617,2.021485 0.20585,0.548263 0.5769133,0.985654 1.0473633,1.245116 0.9409,0.518913 2.0919257,0.464561 3.6645507,0.483399 h 0.00244 6.2573253 0.0049 c 1.572737,-0.01813 2.723613,0.03825 3.66455,-0.480958 0.470462,-0.259575 0.841526,-0.699232 1.047364,-1.247557 0.205662,-0.548339 0.280761,-1.199473 0.280761,-2.021485 v -12.5 c 0,-0.8220125 -0.07487,-1.4732219 -0.280761,-2.0214844 -0.205851,-0.5482625 -0.576914,-0.9856547 -1.047364,-1.2451172 -0.940899,-0.5189125 -2.091939,-0.4645609 -3.66455,-0.4833984 h -0.0025 -6.2573251 z m 0.00732,1.25 h 6.2500003 c 0.470218,0.00568 0.876608,0.017654 1.25,0.03418 v 17.43164 c -0.373391,0.0165 -0.77982,0.02869 -1.25,0.03417 h -6.242676 -0.00732 c -1.5732875,-0.019 -2.6113726,-0.07487 -3.0688476,-0.327149 -0.229275,-0.12645 -0.359032,-0.26607 -0.4809571,-0.59082 -0.122,-0.324737 -0.2001953,-0.841544 -0.2001953,-1.582031 v -12.4999997 c 0,-0.7404875 0.078245,-1.2571563 0.2001953,-1.5820313 0.122,-0.3248875 0.254136,-0.4643328 0.4833985,-0.5908203 0.4574375,-0.2523876 1.4932562,-0.3087735 3.0664062,-0.3271485 z m 8.7500003,0.1513672 c 0.238283,0.044519 0.432507,0.1005963 0.568848,0.1757813 0.229275,0.1264499 0.359032,0.2660702 0.480957,0.5908203 0.12175,0.3247375 0.200195,0.8415437 0.200195,1.5820312 v 12.5 c 0,0.740487 -0.07825,1.257156 -0.200195,1.582031 -0.122,0.324888 -0.251695,0.464333 -0.480957,0.59082 -0.136334,0.07522 -0.330554,0.1312 -0.568848,0.175781 z m -6.25,3.5986328 c -0.353375,0 -0.68936,0.068745 -0.998535,0.2075195 -0.307363,0.13205 -0.5813934,0.3251219 -0.8081059,0.5761719 v 0.00244 l -0.00244,0.00244 c -0.2208875,0.2522375 -0.3903538,0.55435 -0.510254,0.8984375 -0.122125,0.34425 -0.180664,0.7220132 -0.180664,1.1254882 0,0.4090129 0.058251,0.7902169 0.180664,1.1352539 0.12025,0.338875 0.289904,0.637047 0.510254,0.888672 l 0.00244,0.0024 c 0.2261875,0.250488 0.4972479,0.4479 0.8032229,0.585938 l 0.0024,0.0024 h 0.0024 c 0.308512,0.132075 0.64571,0.197753 0.998535,0.197753 0.35275,0 0.687306,-0.06563 0.996094,-0.197753 v -0.0024 c 0.3057,-0.137913 0.572644,-0.33455 0.793457,-0.585938 0.226912,-0.251663 0.401823,-0.550876 0.522461,-0.891113 0.122875,-0.345038 0.180664,-0.726267 0.180664,-1.1352544 h 0.0073 c 0,-0.403025 -0.05875,-0.7790219 -0.180664,-1.1230469 -0.120125,-0.3455625 -0.295086,-0.6509078 -0.522461,-0.9033203 -0.22135,-0.2521874 -0.49124,-0.4465508 -0.79834,-0.5786133 -0.310088,-0.1379625 -0.64491,-0.2075195 -0.998535,-0.2075195 z m 0,1.25 c 0.69035,0 1.25,0.69955 1.25,1.5625 0,0.86295 -0.55965,1.5625 -1.25,1.5625 -0.69035,0 -1.25,-0.69955 -1.25,-1.5625 0,-0.86295 0.55965,-1.5625 1.25,-1.5625 z m 0,5 v 0.0024 c -3.7473252,0.01 -3.7500002,2.497558 -3.7500002,2.497558 -2e-4,1.247563 0.00125,0.558247 0,1.247559 0.625,0.0013 2.1874,0.0025 3.7500002,0.0025 1.5626,0 3.125,-0.0036 3.75,-0.0049 -0.0012,-0.689312 2e-4,4e-6 0,-1.247559 0,0 -0.0025,-2.487559 -3.75,-2.497559 z m 0,1.252441 c 2.496475,0.005 2.365722,1.237793 2.365722,1.237794 0.0013,0.0025 0.0012,0.0072 0.0024,0.0098 h -2.368164 -2.3681641 c 8.249e-4,-0.0025 0.00113,-0.0049 0.00244,-0.0074 0,0 -0.1307524,-1.232881 2.3657231,-1.237794 z" />
</svg>
