<?xml version="1.0" encoding="UTF-8" standalone="no"?>
<svg
   height="24"
   id="svg7384"
   version="1.1"
   width="24"
   sodipodi:docname="address-book.svg"
   inkscape:version="1.1 (ce6663b3b7, 2021-05-25)"
   xmlns:inkscape="http://www.inkscape.org/namespaces/inkscape"
   xmlns:sodipodi="http://sodipodi.sourceforge.net/DTD/sodipodi-0.dtd"
   xmlns="http://www.w3.org/2000/svg"
   xmlns:svg="http://www.w3.org/2000/svg"
   xmlns:rdf="http://www.w3.org/1999/02/22-rdf-syntax-ns#"
   xmlns:cc="http://creativecommons.org/ns#"
   xmlns:dc="http://purl.org/dc/elements/1.1/">
  <sodipodi:namedview
     id="namedview24"
     pagecolor="#ffffff"
     bordercolor="#666666"
     borderopacity="1.0"
     inkscape:pageshadow="2"
     inkscape:pageopacity="0.0"
     inkscape:pagecheckerboard="0"
     showgrid="true"
     inkscape:zoom="28"
     inkscape:cx="11.482143"
     inkscape:cy="12.785714"
     inkscape:window-width="1920"
     inkscape:window-height="1043"
     inkscape:window-x="1920"
     inkscape:window-y="0"
     inkscape:window-maximized="1"
     inkscape:current-layer="svg7384"
     width="24px">
    <inkscape:grid
       type="xygrid"
       id="grid14" />
    <inkscape:grid
       type="xygrid"
       id="grid831"
       dotted="true"
       spacingx="0.5"
       spacingy="0.5"
       empspacing="10" />
  </sodipodi:namedview>
  <metadata
     id="metadata20854">
    <rdf:RDF>
      <cc:Work
         rdf:about="">
        <dc:format>image/svg+xml</dc:format>
        <dc:type
           rdf:resource="http://purl.org/dc/dcmitype/StillImage" />
      </cc:Work>
    </rdf:RDF>
  </metadata>
  <defs
     id="defs7386">
    <linearGradient
       id="linearGradient5606"
       inkscape:swatch="solid">
      <stop
         id="stop5608"
         offset="0"
         style="stop-color:#000000;stop-opacity:1;" />
    </linearGradient>
    <linearGradient
       id="linearGradient4526"
       inkscape:swatch="solid">
      <stop
         id="stop4528"
         offset="0"
         style="stop-color:#ffffff;stop-opacity:1;" />
    </linearGradient>
    <linearGradient
       id="linearGradient3600-4"
       inkscape:swatch="gradient">
      <stop
         id="stop3602-7"
         offset="0"
         style="stop-color:#f4f4f4;stop-opacity:1" />
      <stop
         id="stop3604-6"
         offset="1"
         style="stop-color:#dbdbdb;stop-opacity:1" />
    </linearGradient>
  </defs>
  <path
     id="path866"
     style="color:#000000;fill:#808080;-inkscape-stroke:none;fill-opacity:1"
     d="M 6.7871094 2 C 6.1101636 2.0055872 5.5365074 2.0481526 5.0273438 2.3027344 C 4.6879015 2.4724556 4.3973385 2.765168 4.2304688 3.140625 C 4.063599 3.516082 4 3.9583339 4 4.5 L 4 19.5 C 4 20.041666 4.0635991 20.483918 4.2304688 20.859375 C 4.3973385 21.234832 4.6879015 21.527544 5.0273438 21.697266 C 5.7062285 22.036708 6.500001 22 7.5 22 L 16.5 22 C 17.499999 22 18.293771 22.03671 18.972656 21.697266 C 19.312099 21.527544 19.602661 21.234832 19.769531 20.859375 C 19.936401 20.483918 20 20.041666 20 19.5 L 20 4.5 C 20 3.9583339 19.9364 3.516082 19.769531 3.140625 C 19.602661 2.765168 19.312099 2.4724556 18.972656 2.3027344 C 18.293771 1.963292 17.499999 2 16.5 2 L 7.5 2 C 7.2500003 2 7.012758 1.9981376 6.7871094 2 z M 7.5 3 L 16 3 L 16 21 L 7.5 21 C 6.500001 21 5.7937706 20.96329 5.4726562 20.802734 C 5.3120991 20.722454 5.2276612 20.640167 5.1445312 20.453125 C 5.0614013 20.266083 5 19.958333 5 19.5 L 5 4.5 C 5 4.0416671 5.061401 3.7339174 5.1445312 3.546875 C 5.2276612 3.3598326 5.3120991 3.2775442 5.4726562 3.1972656 C 5.7937705 3.0367085 6.500001 3 7.5 3 z M 17 3.0058594 C 17.730456 3.0190307 18.264121 3.0656546 18.527344 3.1972656 C 18.687901 3.2775446 18.772339 3.3598326 18.855469 3.546875 C 18.938599 3.7339174 19 4.0416671 19 4.5 L 19 19.5 C 19 19.958333 18.9386 20.266083 18.855469 20.453125 C 18.772339 20.640167 18.687901 20.722456 18.527344 20.802734 C 18.264121 20.934346 17.730456 20.980969 17 20.994141 L 17 3.0058594 z M 11 7 A 2 2.5 0 0 0 9 9.5 A 2 2.5 0 0 0 11 12 A 2 2.5 0 0 0 13 9.5 A 2 2.5 0 0 0 11 7 z M 11 8 A 1 1.5 0 0 1 12 9.5 A 1 1.5 0 0 1 11 11 A 1 1.5 0 0 1 10 9.5 A 1 1.5 0 0 1 11 8 z M 11 13 C 9.1071448 13 8.0164593 13.872733 7.5058594 14.748047 C 6.9952594 15.623361 7 16.5 7 16.5 A 0.50005 0.50005 0 0 0 7.5 17 L 14.5 17 A 0.50005 0.50005 0 0 0 15 16.5 C 15 16.5 15.0047 15.623361 14.494141 14.748047 C 13.983541 13.872733 12.892855 13 11 13 z M 11 14 C 12.607141 14 13.26646 14.627269 13.630859 15.251953 C 13.849227 15.626298 13.815057 15.76046 13.851562 16 L 8.1484375 16 C 8.1849435 15.76046 8.1507775 15.626298 8.3691406 15.251953 C 8.7335398 14.627269 9.3928587 14 11 14 z " />
</svg>
