<?xml version="1.0" encoding="UTF-8" standalone="no"?>
<svg
   height="24"
   width="24"
   version="1.1"
   id="svg4"
   sodipodi:docname="app-grid.svg"
   inkscape:version="1.1 (ce6663b3b7, 2021-05-25)"
   xmlns:inkscape="http://www.inkscape.org/namespaces/inkscape"
   xmlns:sodipodi="http://sodipodi.sourceforge.net/DTD/sodipodi-0.dtd"
   xmlns="http://www.w3.org/2000/svg"
   xmlns:svg="http://www.w3.org/2000/svg">
  <defs
     id="defs8" />
  <sodipodi:namedview
     id="namedview6"
     pagecolor="#ffffff"
     bordercolor="#666666"
     borderopacity="1.0"
     inkscape:pageshadow="2"
     inkscape:pageopacity="0.0"
     inkscape:pagecheckerboard="0"
     showgrid="false"
     inkscape:snap-page="true"
     inkscape:zoom="28"
     inkscape:cx="3.1964286"
     inkscape:cy="10.017857"
     inkscape:window-width="1920"
     inkscape:window-height="1016"
     inkscape:window-x="0"
     inkscape:window-y="27"
     inkscape:window-maximized="1"
     inkscape:current-layer="svg4" />
  <path
     d="m 6.75625,5.75 c -0.67125,0 -1.00625,0 -1.00625,0.78125 v 0.9375 c 0,0.78125 0.335,0.78125 1.00625,0.78125 h 0.4875 c 0.67125,0 1.00625,0 1.00625,-0.78125 v -0.9375 c 0,-0.75375 -0.335,-0.78125 -1.00625,-0.78125 z m 5,0 c -0.67125,0 -1.00625,0 -1.00625,0.78125 v 0.9375 c 0,0.78125 0.335,0.78125 1.00625,0.78125 h 0.4875 c 0.67125,0 1.00625,0 1.00625,-0.78125 v -0.9375 c 0,-0.75375 -0.335,-0.78125 -1.00625,-0.78125 z m 5,0 c -0.67125,0 -1.00625,0 -1.00625,0.78125 v 0.9375 c 0,0.78125 0.335,0.78125 1.00625,0.78125 h 0.4875 c 0.67125,0 1.00625,0 1.00625,-0.78125 v -0.9375 c 0,-0.75375 -0.335,-0.78125 -1.00625,-0.78125 z m -10,5 c -0.67125,0 -1.00625,0 -1.00625,0.78125 v 0.9375 c 0,0.78125 0.335,0.78125 1.00625,0.78125 h 0.4875 c 0.67125,0 1.00625,0 1.00625,-0.78125 v -0.9375 c 0,-0.75375 -0.335,-0.78125 -1.00625,-0.78125 z m 5,0 c -0.67125,0 -1.00625,0 -1.00625,0.78125 v 0.9375 c 0,0.78125 0.335,0.78125 1.00625,0.78125 h 0.4875 c 0.67125,0 1.00625,0 1.00625,-0.78125 v -0.9375 c 0,-0.75375 -0.335,-0.78125 -1.00625,-0.78125 z m 5,0 c -0.67125,0 -1.00625,0 -1.00625,0.78125 v 0.9375 c 0,0.78125 0.335,0.78125 1.00625,0.78125 h 0.4875 c 0.67125,0 1.00625,0 1.00625,-0.78125 v -0.9375 c 0,-0.75375 -0.335,-0.78125 -1.00625,-0.78125 z m -10,5 c -0.67125,0 -1.00625,0 -1.00625,0.78125 v 0.9375 c 0,0.78125 0.335,0.78125 1.00625,0.78125 h 0.4875 c 0.67125,0 1.00625,0 1.00625,-0.78125 v -0.9375 c 0,-0.75375 -0.335,-0.78125 -1.00625,-0.78125 z m 5,0 c -0.67125,0 -1.00625,0 -1.00625,0.78125 v 0.9375 c 0,0.78125 0.335,0.78125 1.00625,0.78125 h 0.4875 c 0.67125,0 1.00625,0 1.00625,-0.78125 v -0.9375 c 0,-0.75375 -0.335,-0.78125 -1.00625,-0.78125 z m 5,0 c -0.67125,0 -1.00625,0 -1.00625,0.78125 v 0.9375 c 0,0.78125 0.335,0.78125 1.00625,0.78125 h 0.4875 c 0.67125,0 1.00625,0 1.00625,-0.78125 v -0.9375 c 0,-0.75375 -0.335,-0.78125 -1.00625,-0.78125 z"
     style="stroke-width:1;marker:none"
     color="#000000"
     overflow="visible"
     fill="#808080"
     id="path2" />
</svg>
