<?xml version="1.0" encoding="UTF-8" standalone="no"?>
<svg
   height="24"
   width="24"
   version="1.1"
   id="svg4"
   sodipodi:docname="audio.svg"
   inkscape:version="1.1 (ce6663b3b7, 2021-05-25)"
   xmlns:inkscape="http://www.inkscape.org/namespaces/inkscape"
   xmlns:sodipodi="http://sodipodi.sourceforge.net/DTD/sodipodi-0.dtd"
   xmlns="http://www.w3.org/2000/svg"
   xmlns:svg="http://www.w3.org/2000/svg">
  <defs
     id="defs8" />
  <sodipodi:namedview
     id="namedview6"
     pagecolor="#ffffff"
     bordercolor="#666666"
     borderopacity="1.0"
     inkscape:pageshadow="2"
     inkscape:pageopacity="0.0"
     inkscape:pagecheckerboard="0"
     showgrid="false"
     inkscape:snap-page="true"
     inkscape:zoom="28"
     inkscape:cx="5.6964286"
     inkscape:cy="8.7321429"
     inkscape:window-width="1920"
     inkscape:window-height="1016"
     inkscape:window-x="0"
     inkscape:window-y="27"
     inkscape:window-maximized="1"
     inkscape:current-layer="svg4" />
  <path
     d="m 18.8925,2.05125 a 3.50875,3.50875 0 0 0 -0.5125,0.02 l -9.0125,1.40625 c -1.01625,0.1025 -1.12625,0.5775 -1.1175,1.16875 v 11.9 c -0.51625,-0.34 -1.07,-0.58125 -1.80625,-0.58125 -0.95,0 -1.51625,0.3625 -1.85875,0.8425 -0.3425,0.47875 -0.45625,1.08125 -0.45625,1.5475 0,0.5625 0.19375,1.16125 0.61,1.61875 0.4175,0.4575 1.0575,0.77875 1.9775,0.77875 1.04,0 1.77,-0.29 2.18375,-0.8575 0.325,-0.44625 0.50625,-1.04375 0.57125,-1.77875 0.00875,-0.09 0.0125,-0.1825 0.01875,-0.27625 0.005,-0.075 0.00375,-0.1275 0.005,-0.215 h 0.005 v -9.62875 c 0.0275,-0.775 0.73,-0.88875 0.73,-0.88875 l 7.3175,-1.1425 c 0.70125,-0.215 0.7025,0.65375 0.7025,0.65375 v 8.6775 c -0.51625,-0.34 -1.07,-0.58125 -1.80625,-0.58125 -0.95,0 -1.51625,0.3625 -1.85875,0.8425 -0.3425,0.47875 -0.45625,1.08125 -0.45625,1.5475 0,0.5625 0.19375,1.16125 0.61,1.61875 0.4175,0.4575 1.0575,0.77875 1.9775,0.77875 1.04,0 1.77,-0.29 2.18375,-0.8575 0.325,-0.44625 0.50625,-1.04375 0.57125,-1.77875 0.0087,-0.09 0.0125,-0.1825 0.01875,-0.27625 0.005,-0.075 0.0038,-0.1275 0.005,-0.215 h 0.005 v -13.21 c 0.015,-0.8575 -0.175,-1.08375 -0.6075,-1.11375 z"
     style="line-height:normal;font-variant-ligatures:normal;font-variant-position:normal;font-variant-caps:normal;font-variant-numeric:normal;font-variant-alternates:normal;font-feature-settings:normal;text-indent:0;text-align:start;text-decoration-line:none;text-decoration-style:solid;text-decoration-color:#000000;text-transform:none;text-orientation:mixed;shape-padding:0;isolation:auto;mix-blend-mode:normal;stroke-width:1"
     color="#000000"
     font-weight="400"
     font-family="sans-serif"
     white-space="normal"
     overflow="visible"
     fill="#808080"
     fill-rule="evenodd"
     id="path2" />
</svg>
