<?xml version="1.0" encoding="UTF-8" standalone="no"?>
<svg
   height="24"
   width="24"
   version="1.1"
   id="svg4"
   sodipodi:docname="bluetooth.svg"
   inkscape:version="1.1 (ce6663b3b7, 2021-05-25)"
   xmlns:inkscape="http://www.inkscape.org/namespaces/inkscape"
   xmlns:sodipodi="http://sodipodi.sourceforge.net/DTD/sodipodi-0.dtd"
   xmlns="http://www.w3.org/2000/svg"
   xmlns:svg="http://www.w3.org/2000/svg">
  <defs
     id="defs8" />
  <sodipodi:namedview
     id="namedview6"
     pagecolor="#ffffff"
     bordercolor="#666666"
     borderopacity="1.0"
     inkscape:pageshadow="2"
     inkscape:pageopacity="0.0"
     inkscape:pagecheckerboard="0"
     showgrid="false"
     width="24px"
     inkscape:zoom="28"
     inkscape:cx="3.0535714"
     inkscape:cy="8.0535714"
     inkscape:window-width="1920"
     inkscape:window-height="1016"
     inkscape:window-x="0"
     inkscape:window-y="27"
     inkscape:window-maximized="1"
     inkscape:current-layer="svg4" />
  <path
     d="m 8.4525,2 c -1.04875,0.0125 -1.81375,-0.025 -2.44,0.3225 -0.31375,0.1725 -0.5625,0.46375 -0.7,0.83 -0.14,0.365 -0.1875,0.8 -0.1875,1.3475 v 15 c 0,0.5475 0.04875,0.9825 0.185,1.3475 0.1375,0.36625 0.3875,0.66 0.7,0.8325 0.62875,0.34625 1.39375,0.3075 2.4425,0.32 h 7.095 c 1.04875,-0.0125 1.81375,0.02625 2.44125,-0.32 0.31375,-0.1725 0.5625,-0.46625 0.7,-0.8325 0.1375,-0.365 0.18625,-0.8 0.18625,-1.3475 v -15 c 0,-0.5475 -0.04875,-0.9825 -0.185,-1.3475 a 1.56625,1.56625 0 0 0 -0.70125,-0.83 c -0.6275,-0.3475 -1.3925,-0.31 -2.44125,-0.3225 h -7.0925 z m 2.9225,1.62875 5.3,5.2975 -3.675,3.08625 3.675,3.08625 -5.3,5.2975 v -7.01625 l -3.035,2.54875 -0.805,-0.9575 3.5225,-2.95875 -3.5225,-2.95875 0.805,-0.9575 3.035,2.54875 z m 1.25,3.0175 v 4.05 l 2.2,-1.85 z m 0,6.68125 v 4.05 l 2.2,-2.19875 z"
     style="line-height:normal;text-indent:0;text-align:start;text-decoration-line:none;text-decoration-style:solid;text-decoration-color:#000000;text-transform:none;shape-padding:0;isolation:auto;mix-blend-mode:normal;stroke-width:1;marker:none"
     color="#000000"
     font-weight="400"
     font-family="sans-serif"
     white-space="normal"
     overflow="visible"
     fill="#808080"
     id="path2" />
</svg>
