<?xml version="1.0" encoding="UTF-8" standalone="no"?>
<svg
   height="24"
   width="24"
   version="1.1"
   id="svg4"
   sodipodi:docname="bluetooth.svg"
   inkscape:version="1.1 (ce6663b3b7, 2021-05-25)"
   xmlns:inkscape="http://www.inkscape.org/namespaces/inkscape"
   xmlns:sodipodi="http://sodipodi.sourceforge.net/DTD/sodipodi-0.dtd"
   xmlns="http://www.w3.org/2000/svg"
   xmlns:svg="http://www.w3.org/2000/svg">
  <defs
     id="defs8" />
  <sodipodi:namedview
     id="namedview6"
     pagecolor="#ffffff"
     bordercolor="#666666"
     borderopacity="1.0"
     inkscape:pageshadow="2"
     inkscape:pageopacity="0.0"
     inkscape:pagecheckerboard="0"
     showgrid="true"
     width="24px"
     inkscape:zoom="28"
     inkscape:cx="6.625"
     inkscape:cy="10.464286"
     inkscape:window-width="1920"
     inkscape:window-height="1043"
     inkscape:window-x="1920"
     inkscape:window-y="0"
     inkscape:window-maximized="1"
     inkscape:current-layer="svg4">
    <inkscape:grid
       type="xygrid"
       id="grid821"
       dotted="false" />
    <inkscape:grid
       type="xygrid"
       id="grid823"
       dotted="true"
       spacingx="0.5"
       spacingy="0.5"
       empspacing="10" />
  </sodipodi:namedview>
  <path
     id="rect882"
     style="fill:#808080;fill-rule:evenodd;stroke-linecap:square;stroke-linejoin:round;fill-opacity:1"
     d="M 7 2 C 5.892 2 5 2.892 5 4 L 5 20 C 5 21.108 5.892 22 7 22 L 17 22 C 18.108 22 19 21.108 19 20 L 19 4 C 19 2.892 18.108 2 17 2 L 7 2 z M 11 3.2929688 L 16.207031 8.5 L 12.707031 12 L 16.207031 15.5 L 11 20.707031 L 11 13.707031 L 8.8535156 15.853516 L 8.1464844 15.146484 L 11 12.292969 L 11 11.707031 L 8.1464844 8.8535156 L 8.8535156 8.1464844 L 11 10.292969 L 11 3.2929688 z M 12 5.7070312 L 12 11.292969 L 14.792969 8.5 L 12 5.7070312 z M 12 12.707031 L 12 18.292969 L 14.792969 15.5 L 12 12.707031 z " />
</svg>
