<?xml version="1.0" encoding="UTF-8" standalone="no"?>
<svg
   height="24"
   width="24"
   version="1.1"
   id="svg4"
   sodipodi:docname="bookmarks.svg"
   inkscape:version="1.1 (ce6663b3b7, 2021-05-25)"
   xmlns:inkscape="http://www.inkscape.org/namespaces/inkscape"
   xmlns:sodipodi="http://sodipodi.sourceforge.net/DTD/sodipodi-0.dtd"
   xmlns="http://www.w3.org/2000/svg"
   xmlns:svg="http://www.w3.org/2000/svg">
  <defs
     id="defs8" />
  <sodipodi:namedview
     id="namedview6"
     pagecolor="#ffffff"
     bordercolor="#666666"
     borderopacity="1.0"
     inkscape:pageshadow="2"
     inkscape:pageopacity="0.0"
     inkscape:pagecheckerboard="0"
     showgrid="false"
     width="24px"
     inkscape:zoom="28"
     inkscape:cx="3.0535714"
     inkscape:cy="7.7321429"
     inkscape:window-width="1920"
     inkscape:window-height="1016"
     inkscape:window-x="0"
     inkscape:window-y="27"
     inkscape:window-maximized="1"
     inkscape:current-layer="svg4" />
  <path
     d="m 2,5.55125 v 11.25 c 0,2.5 1.25,2.5 3.75,2.5 h 3.75 c 1.21875,0 2.0025,1 2.0025,1 l 0.4875,0.6475 0.5,-0.6375 c 0,0 0.815,-0.99125 2.015,-1.01 h 3.745 c 2.5,0 3.75,0 3.75,-2.5 v -11.25 c 0,-2.5 -1.25,-2.5 -2.5,-2.5 v 1.25 c 0,0 1.25,0 1.25,1.25 v 11.25 c 0,1.25 -1.25,1.25 -2.5,1.25 h -3.76 c -1.28125,0.01875 -2.03,0.5975 -2.485,1.03 a 3.49,3.49 0 0 0 -2.505,-1.03 h -3.75 c -1.25,0 -2.5,0 -2.5,-1.25 v -11.25 c 0,-1.25 1.25,-1.25 2.5,-1.25 h 3.75 c 1.22875,0 2,0.99875 2,0.99875 l 0.5,0.66875 0.5,-0.66875 c 0,0 0.77125,-0.99875 2,-0.99875 v 8.75 l 3.75,-1.25 v -8.75 h -3.75 c -1.295,0 -2.04375,0.58125 -2.5,1.025 -0.45625,-0.44375 -1.205,-1.025 -2.5,-1.025 h -3.75 c -2.5,0 -3.75,0 -3.75,2.5 z m 3.75,1.25 v 1.25 h 3.75 v -1.25 z m 0,2.5 v 1.25 h 3.75 v -1.25 z m 0,2.5 v 1.25 h 3.75 v -1.25 z m 0,2.5 v 1.25 h 3.75 v -1.25 z"
     style="line-height:normal;font-variant-ligatures:none;font-variant-position:normal;font-variant-caps:normal;font-variant-numeric:normal;font-variant-alternates:normal;font-feature-settings:normal;text-indent:0;text-align:start;text-decoration-line:none;text-decoration-style:solid;text-decoration-color:#000000;text-transform:none;white-space:normal;shape-padding:0;isolation:auto;mix-blend-mode:normal;solid-color:#000000;solid-opacity:1;stroke-width:1;marker:none"
     color="#000000"
     font-weight="400"
     font-family="sans-serif"
     overflow="visible"
     fill="#808080"
     id="path2" />
</svg>
