<?xml version="1.0" encoding="UTF-8" standalone="no"?>
<svg
   height="24"
   width="24"
   version="1.1"
   id="svg4"
   sodipodi:docname="chip.svg"
   inkscape:version="1.1 (ce6663b3b7, 2021-05-25)"
   xmlns:inkscape="http://www.inkscape.org/namespaces/inkscape"
   xmlns:sodipodi="http://sodipodi.sourceforge.net/DTD/sodipodi-0.dtd"
   xmlns="http://www.w3.org/2000/svg"
   xmlns:svg="http://www.w3.org/2000/svg"
   xmlns:rdf="http://www.w3.org/1999/02/22-rdf-syntax-ns#"
   xmlns:cc="http://creativecommons.org/ns#"
   xmlns:dc="http://purl.org/dc/elements/1.1/">
  <path
     id="rect5102"
     style="fill:#808080;fill-opacity:1;stroke:none;stroke-width:8;stroke-linecap:round;stroke-linejoin:round;stroke-miterlimit:4;stroke-dasharray:none;stroke-dashoffset:0;stroke-opacity:1"
     d="m 7.625,2 c -0.34625,0 -0.625,0.27875 -0.625,0.625 v 1.875 c -1.385,0 -2.5,1.115 -2.5,2.5 h -1.875 c -0.34625,0 -0.625,0.27875 -0.625,0.625 v 1.25 c 0,0.34625 0.27875,0.625 0.625,0.625 h 1.875 v 1.25 h -1.875 c -0.34625,0 -0.625,0.27875 -0.625,0.625 v 1.25 c 0,0.34625 0.27875,0.625 0.625,0.625 h 1.875 v 1.25 h -1.875 c -0.34625,0 -0.625,0.27875 -0.625,0.625 v 1.25 c 0,0.34625 0.27875,0.625 0.625,0.625 h 1.875 c 0,1.385 1.115,2.5 2.5,2.5 v 1.875 c 0,0.34625 0.27875,0.625 0.625,0.625 h 1.25 c 0.34625,0 0.625,-0.27875 0.625,-0.625 v -1.875 h 1.25 v 1.875 c 0,0.34625 0.27875,0.625 0.625,0.625 h 1.25 c 0.34625,0 0.625,-0.27875 0.625,-0.625 v -1.875 h 1.25 v 1.875 c 0,0.34625 0.27875,0.625 0.625,0.625 h 1.25 c 0.34625,0 0.625,-0.27875 0.625,-0.625 v -1.875 c 1.385,0 2.5,-1.115 2.5,-2.5 h 1.875 c 0.34625,0 0.625,-0.27875 0.625,-0.625 v -1.25 c 0,-0.34625 -0.27875,-0.625 -0.625,-0.625 h -1.875 v -1.25 h 1.875 c 0.34625,0 0.625,-0.27875 0.625,-0.625 v -1.25 c 0,-0.34625 -0.27875,-0.625 -0.625,-0.625 h -1.875 v -1.25 h 1.875 c 0.34625,0 0.625,-0.27875 0.625,-0.625 v -1.25 c 0,-0.34625 -0.27875,-0.625 -0.625,-0.625 h -1.875 c 0,-1.385 -1.115,-2.5 -2.5,-2.5 v -1.875 c 0,-0.34625 -0.27875,-0.625 -0.625,-0.625 h -1.25 c -0.34625,0 -0.625,0.27875 -0.625,0.625 v 1.875 h -1.25 v -1.875 c 0,-0.34625 -0.27875,-0.625 -0.625,-0.625 h -1.25 c -0.34625,0 -0.625,0.27875 -0.625,0.625 v 1.875 h -1.25 v -1.875 c 0,-0.34625 -0.27875,-0.625 -0.625,-0.625 z m 0,3.75 h 8.75 c 1.03875,0 1.875,0.83625 1.875,1.875 v 1.25 7.5 c 0,1.03875 -0.83625,1.875 -1.875,1.875 h -8.75 c -1.03875,0 -1.875,-0.83625 -1.875,-1.875 v -3.75 -1.25 -2.5 -1.25 c 0,-1.03875 0.83625,-1.875 1.875,-1.875 z m 0,1.25 c -0.34625,0 -0.625,0.27875 -0.625,0.625 v 8.75 c 0,0.34625 0.27875,0.625 0.625,0.625 h 8.75 c 0.34625,0 0.625,-0.27875 0.625,-0.625 v -8.75 c 0,-0.34625 -0.27875,-0.625 -0.625,-0.625 z m 0.625,1.25 h 7.5 v 7.5 h -7.5 z" />
  <metadata
     id="metadata10">
    <rdf:RDF>
      <cc:Work
         rdf:about="">
        <dc:format>image/svg+xml</dc:format>
        <dc:type
           rdf:resource="http://purl.org/dc/dcmitype/StillImage" />
      </cc:Work>
    </rdf:RDF>
  </metadata>
  <defs
     id="defs8" />
  <sodipodi:namedview
     pagecolor="#ffffff"
     bordercolor="#666666"
     borderopacity="1"
     objecttolerance="10"
     gridtolerance="10"
     guidetolerance="10"
     inkscape:pageopacity="0"
     inkscape:pageshadow="2"
     inkscape:window-width="1920"
     inkscape:window-height="1016"
     id="namedview6"
     showgrid="true"
     inkscape:zoom="21.566757"
     inkscape:cx="7.7665827"
     inkscape:cy="7.3029061"
     inkscape:window-x="0"
     inkscape:window-y="27"
     inkscape:window-maximized="1"
     inkscape:current-layer="svg4"
     inkscape:document-rotation="0"
     inkscape:pagecheckerboard="0"
     width="24px">
    <inkscape:grid
       type="xygrid"
       id="grid886" />
  </sodipodi:namedview>
</svg>
