<?xml version="1.0" encoding="UTF-8" standalone="no"?>
<svg
   height="24"
   width="24"
   version="1.1"
   id="svg4"
   sodipodi:docname="chip-filled.svg"
   inkscape:version="1.1 (ce6663b3b7, 2021-05-25)"
   xmlns:inkscape="http://www.inkscape.org/namespaces/inkscape"
   xmlns:sodipodi="http://sodipodi.sourceforge.net/DTD/sodipodi-0.dtd"
   xmlns="http://www.w3.org/2000/svg"
   xmlns:svg="http://www.w3.org/2000/svg"
   xmlns:rdf="http://www.w3.org/1999/02/22-rdf-syntax-ns#"
   xmlns:cc="http://creativecommons.org/ns#"
   xmlns:dc="http://purl.org/dc/elements/1.1/">
  <metadata
     id="metadata10">
    <rdf:RDF>
      <cc:Work
         rdf:about="">
        <dc:format>image/svg+xml</dc:format>
        <dc:type
           rdf:resource="http://purl.org/dc/dcmitype/StillImage" />
      </cc:Work>
    </rdf:RDF>
  </metadata>
  <defs
     id="defs8" />
  <sodipodi:namedview
     pagecolor="#ffffff"
     bordercolor="#666666"
     borderopacity="1"
     objecttolerance="10"
     gridtolerance="10"
     guidetolerance="10"
     inkscape:pageopacity="0"
     inkscape:pageshadow="2"
     inkscape:window-width="1920"
     inkscape:window-height="1043"
     id="namedview6"
     showgrid="true"
     inkscape:zoom="15.25"
     inkscape:cx="6"
     inkscape:cy="8.1967213"
     inkscape:window-x="1920"
     inkscape:window-y="0"
     inkscape:window-maximized="1"
     inkscape:current-layer="svg4"
     inkscape:document-rotation="0"
     inkscape:pagecheckerboard="0"
     width="24px">
    <inkscape:grid
       type="xygrid"
       id="grid886" />
  </sodipodi:namedview>
  <path
     id="rect54"
     style="color:#000000;fill:#808080;fill-opacity:1;fill-rule:evenodd;stroke-linecap:square;stroke-linejoin:round;-inkscape-stroke:none"
     d="M 8 2 C 7.446 2 7 2.223 7 2.5 L 7 5.0214844 C 6.421018 5.0726544 5.9397934 5.2281764 5.5839844 5.5839844 C 5.2281764 5.9397934 5.0726544 6.421018 5.0214844 7 L 2.5 7 C 2.223 7 2 7.446 2 8 C 2 8.554 2.223 9 2.5 9 L 5 9 L 5 11 L 2.5 11 C 2.223 11 2 11.446 2 12 C 2 12.554 2.223 13 2.5 13 L 5 13 L 5 15 L 2.5 15 C 2.223 15 2 15.446 2 16 C 2 16.554 2.223 17 2.5 17 L 5.0214844 17 C 5.0726544 17.578982 5.2281764 18.060207 5.5839844 18.416016 C 5.9397934 18.771824 6.421018 18.927347 7 18.978516 L 7 21.5 C 7 21.777 7.446 22 8 22 C 8.554 22 9 21.777 9 21.5 L 9 19 L 11 19 L 11 21.5 C 11 21.777 11.446 22 12 22 C 12.554 22 13 21.777 13 21.5 L 13 19 L 15 19 L 15 21.5 C 15 21.777 15.446 22 16 22 C 16.554 22 17 21.777 17 21.5 L 17 18.978516 C 17.578982 18.927346 18.060207 18.771824 18.416016 18.416016 C 18.771824 18.060207 18.927347 17.578982 18.978516 17 L 21.5 17 C 21.777 17 22 16.554 22 16 C 22 15.446 21.777 15 21.5 15 L 19 15 L 19 13 L 21.5 13 C 21.777 13 22 12.554 22 12 C 22 11.446 21.777 11 21.5 11 L 19 11 L 19 9 L 21.5 9 C 21.777 9 22 8.554 22 8 C 22 7.446 21.777 7 21.5 7 L 18.978516 7 C 18.927346 6.421018 18.771824 5.9397934 18.416016 5.5839844 C 18.060207 5.2281764 17.578982 5.0726534 17 5.0214844 L 17 2.5 C 17 2.223 16.554 2 16 2 C 15.446 2 15 2.223 15 2.5 L 15 5 L 13 5 L 13 2.5 C 13 2.223 12.554 2 12 2 C 11.446 2 11 2.223 11 2.5 L 11 5 L 9 5 L 9 2.5 C 9 2.223 8.554 2 8 2 z M 9.5 7 L 14.5 7 C 15 7 15.381206 6.9985162 15.710938 7.0351562 C 16.040668 7.0717932 16.360665 7.1536334 16.603516 7.3964844 C 16.846367 7.6393354 16.928204 7.9593305 16.964844 8.2890625 C 17.001504 8.6187945 17 9 17 9.5 L 17 14.5 C 17 15 17.001484 15.381206 16.964844 15.710938 C 16.928207 16.040668 16.846367 16.360665 16.603516 16.603516 C 16.360665 16.846367 16.040669 16.928204 15.710938 16.964844 C 15.381205 17.001504 15 17 14.5 17 L 9.5 17 C 9 17 8.6187945 17.001484 8.2890625 16.964844 C 7.9593315 16.928207 7.6393354 16.846367 7.3964844 16.603516 C 7.1536344 16.360665 7.0717963 16.040669 7.0351562 15.710938 C 6.9984963 15.381205 7 15 7 14.5 L 7 9.5 C 7 9 6.9985162 8.6187945 7.0351562 8.2890625 C 7.0717933 7.9593305 7.1536344 7.6393354 7.3964844 7.3964844 C 7.6393354 7.1536334 7.9593315 7.0717963 8.2890625 7.0351562 C 8.6187945 6.9984962 9 7 9.5 7 z M 9.5 8 C 9 8 8.6312055 8.0014838 8.3984375 8.0273438 C 8.1656665 8.0532038 8.1106156 8.0964156 8.1035156 8.1035156 C 8.0963656 8.1106646 8.0532037 8.1656695 8.0273438 8.3984375 C 8.0015037 8.6312045 8 9.000001 8 9.5 L 8 14.5 C 8 15 8.0014838 15.368794 8.0273438 15.601562 C 8.0532038 15.834334 8.0964156 15.889384 8.1035156 15.896484 C 8.1106636 15.903634 8.1656705 15.946796 8.3984375 15.972656 C 8.6312055 15.998496 9 16 9.5 16 L 14.5 16 C 15 16 15.368794 15.998516 15.601562 15.972656 C 15.834333 15.946796 15.889384 15.903584 15.896484 15.896484 C 15.903634 15.889336 15.946796 15.83433 15.972656 15.601562 C 15.998496 15.368794 16 15 16 14.5 L 16 9.5 C 16 9.000001 15.998516 8.6312045 15.972656 8.3984375 C 15.946796 8.1656655 15.903584 8.1106156 15.896484 8.1035156 C 15.889336 8.0963656 15.83433 8.0532037 15.601562 8.0273438 C 15.368794 8.0015037 15 8 14.5 8 L 9.5 8 z " />
</svg>
