<?xml version="1.0" encoding="UTF-8" standalone="no"?>
<svg
   height="24"
   width="24"
   version="1.1"
   id="svg4"
   sodipodi:docname="chip.svg"
   inkscape:version="1.1 (ce6663b3b7, 2021-05-25)"
   xmlns:inkscape="http://www.inkscape.org/namespaces/inkscape"
   xmlns:sodipodi="http://sodipodi.sourceforge.net/DTD/sodipodi-0.dtd"
   xmlns="http://www.w3.org/2000/svg"
   xmlns:svg="http://www.w3.org/2000/svg"
   xmlns:rdf="http://www.w3.org/1999/02/22-rdf-syntax-ns#"
   xmlns:cc="http://creativecommons.org/ns#"
   xmlns:dc="http://purl.org/dc/elements/1.1/">
  <metadata
     id="metadata10">
    <rdf:RDF>
      <cc:Work
         rdf:about="">
        <dc:format>image/svg+xml</dc:format>
        <dc:type
           rdf:resource="http://purl.org/dc/dcmitype/StillImage" />
      </cc:Work>
    </rdf:RDF>
  </metadata>
  <defs
     id="defs8" />
  <sodipodi:namedview
     pagecolor="#ffffff"
     bordercolor="#666666"
     borderopacity="1"
     objecttolerance="10"
     gridtolerance="10"
     guidetolerance="10"
     inkscape:pageopacity="0"
     inkscape:pageshadow="2"
     inkscape:window-width="1920"
     inkscape:window-height="1016"
     id="namedview6"
     showgrid="true"
     inkscape:zoom="30.500002"
     inkscape:cx="16.606556"
     inkscape:cy="13.983606"
     inkscape:window-x="0"
     inkscape:window-y="27"
     inkscape:window-maximized="1"
     inkscape:current-layer="svg4"
     inkscape:document-rotation="0"
     inkscape:pagecheckerboard="0"
     width="24px">
    <inkscape:grid
       type="xygrid"
       id="grid886" />
    <inkscape:grid
       type="xygrid"
       id="grid1088"
       dotted="true"
       spacingx="0.5"
       spacingy="0.5"
       empspacing="10" />
  </sodipodi:namedview>
  <path
     id="path1050"
     style="fill:#808080;fill-rule:evenodd;stroke:#ffffff;stroke-width:0;stroke-linecap:square;stroke-linejoin:round"
     d="M 6.5 2 C 6.223 2 6 2.223 6 2.5 L 6 4.3066406 C 5.7491253 4.3933554 5.5128816 4.5019234 5.2949219 4.640625 C 4.8107178 4.9487548 4.4535552 5.4076281 4.2382812 6 L 2.5 6 C 2.223 6 2 6.223 2 6.5 L 2 7.5 C 2 7.777 2.223 8 2.5 8 L 4 8 L 4 9 L 2.5 9 C 2.223 9 2 9.223 2 9.5 L 2 10.5 C 2 10.777 2.223 11 2.5 11 L 4 11 L 4 12 L 2.5 12 C 2.223 12 2 12.223 2 12.5 L 2 13.5 C 2 13.777 2.223 14 2.5 14 L 4 14 L 4 15 L 2.5 15 C 2.223 15 2 15.223 2 15.5 L 2 16.5 C 2 16.777 2.223 17 2.5 17 L 4.2382812 17 C 4.4535552 17.592372 4.8107178 18.051245 5.2949219 18.359375 C 5.5128816 18.498077 5.7491252 18.606645 6 18.693359 L 6 20.5 C 6 20.777 6.223 21 6.5 21 L 7.5 21 C 7.777 21 8 20.777 8 20.5 L 8 18.992188 C 8.1630716 18.996733 8.3298495 19 8.5 19 L 9 19 L 9 20.5 C 9 20.777 9.223 21 9.5 21 L 10.5 21 C 10.777 21 11 20.777 11 20.5 L 11 19 L 12 19 L 12 20.5 C 12 20.777 12.223 21 12.5 21 L 13.5 21 C 13.777 21 14 20.777 14 20.5 L 14 19 L 14.5 19 C 14.670151 19 14.836928 18.996733 15 18.992188 L 15 20.5 C 15 20.777 15.223 21 15.5 21 L 16.5 21 C 16.777 21 17 20.777 17 20.5 L 17 18.693359 C 17.250875 18.606645 17.487119 18.498077 17.705078 18.359375 C 18.189282 18.051245 18.546445 17.592372 18.761719 17 L 20.5 17 C 20.777 17 21 16.777 21 16.5 L 21 15.5 C 21 15.223 20.777 15 20.5 15 L 19 15 L 19 14 L 20.5 14 C 20.777 14 21 13.777 21 13.5 L 21 12.5 C 21 12.223 20.777 12 20.5 12 L 19 12 L 19 11 L 20.5 11 C 20.777 11 21 10.777 21 10.5 L 21 9.5 C 21 9.223 20.777 9 20.5 9 L 19 9 L 19 8 L 20.5 8 C 20.777 8 21 7.777 21 7.5 L 21 6.5 C 21 6.223 20.777 6 20.5 6 L 18.761719 6 C 18.546445 5.4076281 18.189282 4.9487548 17.705078 4.640625 C 17.487119 4.5019234 17.250875 4.3933554 17 4.3066406 L 17 2.5 C 17 2.223 16.777 2 16.5 2 L 15.5 2 C 15.223 2 15 2.223 15 2.5 L 15 4.0078125 C 14.836928 4.0032668 14.670151 4 14.5 4 L 14 4 L 14 2.5 C 14 2.223 13.777 2 13.5 2 L 12.5 2 C 12.223 2 12 2.223 12 2.5 L 12 4 L 11 4 L 11 2.5 C 11 2.223 10.777 2 10.5 2 L 9.5 2 C 9.223 2 9 2.223 9 2.5 L 9 4 L 8.5 4 C 8.3298495 4 8.1630716 4.0032668 8 4.0078125 L 8 2.5 C 8 2.223 7.777 2 7.5 2 L 6.5 2 z M 8.5 5 L 14.5 5 C 15.716665 5 16.631304 5.1416181 17.169922 5.484375 C 17.70854 5.8271319 18 6.3500012 18 7.5 L 18 15.5 C 18 16.649999 17.70854 17.172868 17.169922 17.515625 C 16.631304 17.858382 15.716665 18 14.5 18 L 8.5 18 C 7.2833345 18 6.3686961 17.858382 5.8300781 17.515625 C 5.2914601 17.172868 5 16.649999 5 15.5 L 5 7.5 C 5 6.3500011 5.2914601 5.8271319 5.8300781 5.484375 C 6.3686961 5.1416181 7.2833345 5 8.5 5 z M 8.7871094 6 C 8.1101636 6.00559 7.5365074 6.048153 7.0273438 6.3027344 C 6.6879015 6.4724556 6.3973384 6.765168 6.2304688 7.140625 C 6.063599 7.516082 6 7.9583339 6 8.5 L 6 14.5 C 6 15.041666 6.0635989 15.483918 6.2304688 15.859375 C 6.3973385 16.234832 6.6879015 16.527544 7.0273438 16.697266 C 7.7062285 17.036708 8.500001 17 9.5 17 L 13.5 17 C 14.499999 17 15.293771 17.03671 15.972656 16.697266 C 16.312099 16.527544 16.602661 16.234832 16.769531 15.859375 C 16.936401 15.483918 17 15.041666 17 14.5 L 17 8.5 C 17 7.9583339 16.9364 7.516082 16.769531 7.140625 C 16.602661 6.765168 16.312099 6.4724556 15.972656 6.3027344 C 15.293771 5.963292 14.499999 6 13.5 6 L 9.5 6 C 9.2500002 6 9.012758 5.99814 8.7871094 6 z M 9.5 7 L 13.5 7 C 14.499999 7 15.20623 7.036708 15.527344 7.1972656 C 15.687901 7.2775446 15.772339 7.3598326 15.855469 7.546875 C 15.938599 7.7339174 16 8.0416671 16 8.5 L 16 14.5 C 16 14.958333 15.9386 15.266083 15.855469 15.453125 C 15.772339 15.640167 15.687901 15.722456 15.527344 15.802734 C 15.20623 15.963291 14.499999 16 13.5 16 L 9.5 16 C 8.500001 16 7.7937708 15.96329 7.4726562 15.802734 C 7.3120991 15.722454 7.2276613 15.640167 7.1445312 15.453125 C 7.0614013 15.266083 7 14.958333 7 14.5 L 7 8.5 C 7 8.0416671 7.0614011 7.7339174 7.1445312 7.546875 C 7.2276612 7.3598326 7.3120991 7.2775442 7.4726562 7.1972656 C 7.7937705 7.0367085 8.500001 7 9.5 7 z " />
</svg>
