<?xml version="1.0" encoding="UTF-8" standalone="no"?>
<svg
   height="24"
   width="24"
   version="1.1"
   id="svg4"
   sodipodi:docname="chip.svg"
   inkscape:version="1.1 (ce6663b3b7, 2021-05-25)"
   xmlns:inkscape="http://www.inkscape.org/namespaces/inkscape"
   xmlns:sodipodi="http://sodipodi.sourceforge.net/DTD/sodipodi-0.dtd"
   xmlns="http://www.w3.org/2000/svg"
   xmlns:svg="http://www.w3.org/2000/svg"
   xmlns:rdf="http://www.w3.org/1999/02/22-rdf-syntax-ns#"
   xmlns:cc="http://creativecommons.org/ns#"
   xmlns:dc="http://purl.org/dc/elements/1.1/">
  <metadata
     id="metadata10">
    <rdf:RDF>
      <cc:Work
         rdf:about="">
        <dc:format>image/svg+xml</dc:format>
        <dc:type
           rdf:resource="http://purl.org/dc/dcmitype/StillImage" />
      </cc:Work>
    </rdf:RDF>
  </metadata>
  <defs
     id="defs8" />
  <sodipodi:namedview
     pagecolor="#ffffff"
     bordercolor="#666666"
     borderopacity="1"
     objecttolerance="10"
     gridtolerance="10"
     guidetolerance="10"
     inkscape:pageopacity="0"
     inkscape:pageshadow="2"
     inkscape:window-width="1920"
     inkscape:window-height="1043"
     id="namedview6"
     showgrid="true"
     inkscape:zoom="43.133514"
     inkscape:cx="14.455117"
     inkscape:cy="9.8994949"
     inkscape:window-x="1920"
     inkscape:window-y="0"
     inkscape:window-maximized="1"
     inkscape:current-layer="svg4"
     inkscape:document-rotation="0"
     inkscape:pagecheckerboard="0"
     width="24px">
    <inkscape:grid
       type="xygrid"
       id="grid886" />
    <inkscape:grid
       type="xygrid"
       id="grid1088"
       dotted="true"
       spacingx="0.5"
       spacingy="0.5"
       empspacing="10" />
  </sodipodi:namedview>
  <path
     id="rect54"
     style="color:#000000;fill:#808080;fill-rule:evenodd;stroke-linecap:square;stroke-linejoin:round;-inkscape-stroke:none;fill-opacity:1"
     d="M 8 2 C 7.446 2 7 2.223 7 2.5 L 7 5.0214844 C 6.4210184 5.0726535 5.9397928 5.228176 5.5839844 5.5839844 C 5.228176 5.9397928 5.0726535 6.4210184 5.0214844 7 L 2.5 7 C 2.223 7 2 7.446 2 8 C 2 8.554 2.223 9 2.5 9 L 5 9 L 5 11 L 2.5 11 C 2.223 11 2 11.446 2 12 C 2 12.554 2.223 13 2.5 13 L 5 13 L 5 15 L 2.5 15 C 2.223 15 2 15.446 2 16 C 2 16.554 2.223 17 2.5 17 L 5.0214844 17 C 5.0726535 17.578982 5.228176 18.060207 5.5839844 18.416016 C 5.9397928 18.771824 6.4210184 18.927347 7 18.978516 L 7 21.5 C 7 21.777 7.446 22 8 22 C 8.554 22 9 21.777 9 21.5 L 9 19 L 11 19 L 11 21.5 C 11 21.777 11.446 22 12 22 C 12.554 22 13 21.777 13 21.5 L 13 19 L 15 19 L 15 21.5 C 15 21.777 15.446 22 16 22 C 16.554 22 17 21.777 17 21.5 L 17 18.978516 C 17.578982 18.927347 18.060207 18.771824 18.416016 18.416016 C 18.771824 18.060207 18.927347 17.578982 18.978516 17 L 21.5 17 C 21.777 17 22 16.554 22 16 C 22 15.446 21.777 15 21.5 15 L 19 15 L 19 13 L 21.5 13 C 21.777 13 22 12.554 22 12 C 22 11.446 21.777 11 21.5 11 L 19 11 L 19 9 L 21.5 9 C 21.777 9 22 8.554 22 8 C 22 7.446 21.777 7 21.5 7 L 18.978516 7 C 18.927347 6.4210184 18.771824 5.9397928 18.416016 5.5839844 C 18.060207 5.228176 17.578982 5.0726535 17 5.0214844 L 17 2.5 C 17 2.223 16.554 2 16 2 C 15.446 2 15 2.223 15 2.5 L 15 5 L 13 5 L 13 2.5 C 13 2.223 12.554 2 12 2 C 11.446 2 11 2.223 11 2.5 L 11 5 L 9 5 L 9 2.5 C 9 2.223 8.554 2 8 2 z M 7.5 6 L 9 6 L 11 6 L 13 6 L 15 6 L 16.5 6 C 17.194444 6 17.537906 6.1199372 17.708984 6.2910156 C 17.880063 6.4620941 18 6.8055563 18 7.5 L 18 9 L 18 11 L 18 13 L 18 15 L 18 16.5 C 18 17.194444 17.880063 17.537906 17.708984 17.708984 C 17.537906 17.880063 17.194444 18 16.5 18 L 15 18 L 13 18 L 11 18 L 9 18 L 7.5 18 C 6.8055563 18 6.4620941 17.880063 6.2910156 17.708984 C 6.1199372 17.537906 6 17.194444 6 16.5 L 6 15 L 6 13 L 6 11 L 6 9 L 6 7.5 C 6 6.8055563 6.1199372 6.4620941 6.2910156 6.2910156 C 6.4620941 6.1199372 6.8055563 6 7.5 6 z " />
  <path
     style="color:#000000;fill:#808080;-inkscape-stroke:none;fill-opacity:1"
     d="m 9.5,7 c -0.4999995,0 -0.8812057,-0.00148 -1.2109375,0.035156 -0.3297318,0.036637 -0.6497272,0.1184773 -0.8925781,0.3613282 -0.2428509,0.2428509 -0.3246913,0.5628463 -0.3613282,0.8925781 -0.036637,0.3297318 -0.035156,0.710938 -0.035156,1.2109375 v 5 c 0,0.5 -0.00148,0.881206 0.035156,1.210938 0.036637,0.329731 0.1184773,0.649727 0.3613282,0.892578 0.2428509,0.242851 0.5628463,0.324691 0.8925781,0.361328 0.3297318,0.03664 0.710938,0.03516 1.2109375,0.03516 h 5 c 0.5,0 0.881206,0.0015 1.210938,-0.03516 0.329731,-0.03664 0.649727,-0.118477 0.892578,-0.361328 0.242851,-0.242851 0.324691,-0.562847 0.361328,-0.892578 0.03664,-0.329732 0.03516,-0.710938 0.03516,-1.210938 v -5 c 0,-0.4999995 0.0015,-0.8812057 -0.03516,-1.2109375 -0.03664,-0.3297318 -0.118477,-0.6497272 -0.361328,-0.8925781 -0.242851,-0.2428509 -0.562847,-0.3246913 -0.892578,-0.3613282 -0.329732,-0.036637 -0.710938,-0.035156 -1.210938,-0.035156 z m 0,1 h 5 c 0.5,0 0.868795,0.00148 1.101563,0.027344 0.232767,0.025863 0.287773,0.069023 0.294921,0.076172 0.0071,0.00715 0.05031,0.062154 0.07617,0.2949219 0.02586,0.2327676 0.02734,0.601563 0.02734,1.1015625 v 5 c 0,0.5 -0.0015,0.868795 -0.02734,1.101563 -0.02586,0.232767 -0.06902,0.287773 -0.07617,0.294921 -0.0071,0.0071 -0.06215,0.05031 -0.294921,0.07617 -0.232768,0.02586 -0.601563,0.02734 -1.101563,0.02734 h -5 c -0.4999995,0 -0.8687949,-0.0015 -1.1015625,-0.02734 -0.2327676,-0.02586 -0.287773,-0.06902 -0.2949219,-0.07617 -0.00715,-0.0071 -0.050309,-0.06215 -0.076172,-0.294921 -0.025863,-0.232768 -0.027344,-0.601563 -0.027344,-1.101563 v -5 c 0,-0.4999995 0.00148,-0.8687949 0.027344,-1.1015625 0.025863,-0.2327676 0.069023,-0.287773 0.076172,-0.2949219 0.00715,-0.00715 0.062154,-0.050309 0.2949219,-0.076172 0.2327676,-0.025863 0.601563,-0.027344 1.1015625,-0.027344 z"
     id="path3526" />
</svg>
