<?xml version="1.0" encoding="UTF-8" standalone="no"?>
<svg
   viewBox="0 0 16 16"
   version="1.1"
   id="svg4"
   sodipodi:docname="colors.svg"
   inkscape:version="1.1 (ce6663b3b7, 2021-05-25)"
   xmlns:inkscape="http://www.inkscape.org/namespaces/inkscape"
   xmlns:sodipodi="http://sodipodi.sourceforge.net/DTD/sodipodi-0.dtd"
   xmlns="http://www.w3.org/2000/svg"
   xmlns:svg="http://www.w3.org/2000/svg"
   xmlns:rdf="http://www.w3.org/1999/02/22-rdf-syntax-ns#"
   xmlns:cc="http://creativecommons.org/ns#"
   xmlns:dc="http://purl.org/dc/elements/1.1/">
  <metadata
     id="metadata10">
    <rdf:RDF>
      <cc:Work
         rdf:about="">
        <dc:format>image/svg+xml</dc:format>
        <dc:type
           rdf:resource="http://purl.org/dc/dcmitype/StillImage" />
      </cc:Work>
    </rdf:RDF>
  </metadata>
  <defs
     id="defs8" />
  <sodipodi:namedview
     pagecolor="#ffffff"
     bordercolor="#666666"
     borderopacity="1"
     objecttolerance="10"
     gridtolerance="10"
     guidetolerance="10"
     inkscape:pageopacity="0"
     inkscape:pageshadow="2"
     inkscape:window-width="1920"
     inkscape:window-height="1016"
     id="namedview6"
     showgrid="true"
     inkscape:zoom="27.5"
     inkscape:cx="4.8545455"
     inkscape:cy="7.2181818"
     inkscape:window-x="0"
     inkscape:window-y="27"
     inkscape:window-maximized="1"
     inkscape:current-layer="svg4"
     inkscape:pagecheckerboard="0">
    <inkscape:grid
       type="xygrid"
       id="grid835" />
  </sodipodi:namedview>
  <path
     id="path837"
     style="fill:#808080;fill-rule:evenodd;stroke-width:1;stroke-linecap:square;fill-opacity:1"
     d="M 8 0 A 5.5 5.5 0 0 0 2.5 5.5 A 5.5 5.5 0 0 0 2.5273438 5.8730469 A 5.5 5.5 0 0 0 0 10.5 A 5.5 5.5 0 0 0 5.5 16 A 5.5 5.5 0 0 0 8 15.386719 A 5.5 5.5 0 0 0 10.5 16 A 5.5 5.5 0 0 0 16 10.5 A 5.5 5.5 0 0 0 13.472656 5.875 A 5.5 5.5 0 0 0 13.5 5.5 A 5.5 5.5 0 0 0 8 0 z M 8 1 A 4.5 4.5 0 0 1 12.496094 5.3769531 A 5.5 5.5 0 0 0 10.5 5 A 5.5 5.5 0 0 0 8.0097656 5.609375 A 5.5 5.5 0 0 0 5.5 5 A 5.5 5.5 0 0 0 3.5097656 5.3867188 A 4.5 4.5 0 0 1 8 1 z M 5.5 6 A 4.5 4.5 0 0 1 7.0078125 6.2617188 A 5.5 5.5 0 0 0 5.2089844 9.015625 A 4.5 4.5 0 0 1 3.609375 6.4277344 A 4.5 4.5 0 0 1 5.5 6 z M 10.5 6 A 4.5 4.5 0 0 1 12.392578 6.4179688 A 4.5 4.5 0 0 1 10.792969 9.0136719 A 5.5 5.5 0 0 0 9.0058594 6.2636719 A 4.5 4.5 0 0 1 10.5 6 z M 7.8691406 6.8515625 C 7.8581162 6.8595295 7.8468864 6.8669357 7.8359375 6.875 A 4.5 4.5 0 0 1 7.8691406 6.8515625 z M 8.1757812 6.8847656 A 4.5 4.5 0 0 1 8.2617188 6.9492188 C 8.2333808 6.9271286 8.2046572 6.9061854 8.1757812 6.8847656 z M 13.292969 6.9746094 A 4.5 4.5 0 0 1 15 10.5 A 4.5 4.5 0 0 1 10.5 15 A 4.5 4.5 0 0 1 8.9980469 14.734375 A 5.5 5.5 0 0 0 11 10.5 A 5.5 5.5 0 0 0 10.984375 10.117188 A 5.5 5.5 0 0 0 13.292969 6.9746094 z M 2.7089844 6.984375 A 5.5 5.5 0 0 0 5.0273438 10.126953 A 5.5 5.5 0 0 0 5 10.5 A 5.5 5.5 0 0 0 7.0019531 14.734375 A 4.5 4.5 0 0 1 5.5 15 A 4.5 4.5 0 0 1 1 10.5 A 4.5 4.5 0 0 1 2.7089844 6.984375 z M 8.3457031 7.0175781 A 4.5 4.5 0 0 1 8.4296875 7.0859375 C 8.4024604 7.0625417 8.3734915 7.040327 8.3457031 7.0175781 z M 8.5175781 7.1640625 A 4.5 4.5 0 0 1 8.6660156 7.3046875 C 8.6176785 7.2567451 8.5680422 7.2097835 8.5175781 7.1640625 z M 8.7421875 7.3808594 A 4.5 4.5 0 0 1 9.0058594 7.6816406 C 8.9222555 7.5776721 8.8345491 7.476933 8.7421875 7.3808594 z M 6.8769531 7.8339844 C 6.8661341 7.848674 6.8563471 7.8640811 6.8457031 7.8789062 A 4.5 4.5 0 0 1 6.8769531 7.8339844 z M 9.1542969 7.8789062 A 4.5 4.5 0 0 1 9.2695312 8.0449219 C 9.2327271 7.9884895 9.1935265 7.933546 9.1542969 7.8789062 z M 9.3339844 8.1484375 A 4.5 4.5 0 0 1 9.3808594 8.2246094 C 9.3657028 8.1987903 9.3496376 8.1739241 9.3339844 8.1484375 z M 9.4433594 8.3359375 A 4.5 4.5 0 0 1 9.5371094 8.515625 C 9.5070449 8.4545077 9.4760746 8.3954539 9.4433594 8.3359375 z M 6.5058594 8.4316406 C 6.4966411 8.4494153 6.4875029 8.4664628 6.4785156 8.484375 A 4.5 4.5 0 0 1 6.5058594 8.4316406 z M 9.5488281 8.5390625 A 4.5 4.5 0 0 1 9.5898438 8.6269531 C 9.5765002 8.597851 9.5627696 8.5678271 9.5488281 8.5390625 z M 9.6757812 8.828125 A 4.5 4.5 0 0 1 9.7148438 8.9296875 C 9.7020765 8.895419 9.6893529 8.8619932 9.6757812 8.828125 z M 9.7519531 9.0332031 A 4.5 4.5 0 0 1 9.78125 9.1191406 C 9.7718944 9.0900968 9.7618789 9.0619864 9.7519531 9.0332031 z M 6.2285156 9.0898438 C 6.2246177 9.1016621 6.2205994 9.1131387 6.2167969 9.125 A 4.5 4.5 0 0 1 6.2285156 9.0898438 z M 9.8847656 9.4960938 A 4.5 4.5 0 0 1 9.9023438 9.5683594 A 4.5 4.5 0 0 1 9.8203125 9.6015625 C 9.8469845 9.5896432 9.87397 9.5787841 9.9003906 9.5664062 C 9.8954339 9.5429527 9.8900855 9.5194113 9.8847656 9.4960938 z M 6.109375 9.5703125 C 6.1249701 9.5775781 6.1405674 9.5846904 6.15625 9.5917969 A 4.5 4.5 0 0 1 6.109375 9.5722656 A 4.5 4.5 0 0 1 6.109375 9.5703125 z M 9.5488281 9.7148438 A 4.5 4.5 0 0 1 9.2695312 9.8085938 C 9.3638076 9.7799272 9.4571285 9.7492381 9.5488281 9.7148438 z M 6.4570312 9.7167969 C 6.5468559 9.7503534 6.638176 9.7805303 6.7304688 9.8085938 A 4.5 4.5 0 0 1 6.4570312 9.7167969 z M 7.2519531 9.9335938 C 7.2845865 9.9393508 7.3167298 9.9441913 7.3496094 9.9492188 A 4.5 4.5 0 0 1 7.2519531 9.9335938 z M 8.7480469 9.9335938 A 4.5 4.5 0 0 1 8.6503906 9.9492188 C 8.6832702 9.9441913 8.7154135 9.9393508 8.7480469 9.9335938 z M 6.0097656 10.613281 A 5.5 5.5 0 0 0 8 11 A 5.5 5.5 0 0 0 9.9902344 10.613281 A 4.5 4.5 0 0 1 8 14.228516 A 4.5 4.5 0 0 1 6.0097656 10.613281 z " />
</svg>
