<?xml version="1.0" encoding="UTF-8" standalone="no"?>
<svg
   viewBox="0 0 24 24"
   version="1.1"
   id="svg4"
   sodipodi:docname="colors.svg"
   inkscape:version="1.1 (ce6663b3b7, 2021-05-25)"
   width="24"
   height="24"
   xmlns:inkscape="http://www.inkscape.org/namespaces/inkscape"
   xmlns:sodipodi="http://sodipodi.sourceforge.net/DTD/sodipodi-0.dtd"
   xmlns="http://www.w3.org/2000/svg"
   xmlns:svg="http://www.w3.org/2000/svg"
   xmlns:rdf="http://www.w3.org/1999/02/22-rdf-syntax-ns#"
   xmlns:cc="http://creativecommons.org/ns#"
   xmlns:dc="http://purl.org/dc/elements/1.1/">
  <metadata
     id="metadata10">
    <rdf:RDF>
      <cc:Work
         rdf:about="">
        <dc:format>image/svg+xml</dc:format>
        <dc:type
           rdf:resource="http://purl.org/dc/dcmitype/StillImage" />
      </cc:Work>
    </rdf:RDF>
  </metadata>
  <defs
     id="defs8" />
  <sodipodi:namedview
     pagecolor="#ffffff"
     bordercolor="#666666"
     borderopacity="1"
     objecttolerance="10"
     gridtolerance="10"
     guidetolerance="10"
     inkscape:pageopacity="0"
     inkscape:pageshadow="2"
     inkscape:window-width="1920"
     inkscape:window-height="1016"
     id="namedview6"
     showgrid="true"
     inkscape:zoom="27.5"
     inkscape:cx="4.8545455"
     inkscape:cy="7.2181818"
     inkscape:window-x="0"
     inkscape:window-y="27"
     inkscape:window-maximized="1"
     inkscape:current-layer="svg4"
     inkscape:pagecheckerboard="0">
    <inkscape:grid
       type="xygrid"
       id="grid835" />
  </sodipodi:namedview>
  <path
     id="path837"
     style="fill:#808080;fill-opacity:1;fill-rule:evenodd;stroke-width:1;stroke-linecap:square"
     d="m 12,2 a 6.875,6.875 0 0 0 -6.8750001,6.875 6.875,6.875 0 0 0 0.03418,0.4663086 6.875,6.875 0 0 0 -3.1591798,5.7836914 6.875,6.875 0 0 0 6.875,6.875 6.875,6.875 0 0 0 3.1249999,-0.766601 6.875,6.875 0 0 0 3.125,0.766601 6.875,6.875 0 0 0 6.875,-6.875 6.875,6.875 0 0 0 -3.15918,-5.78125 6.875,6.875 0 0 0 0.03417,-0.46875 6.875,6.875 0 0 0 -6.875,-6.875 z m 0,1.25 a 5.625,5.625 0 0 1 5.620117,5.4711914 6.875,6.875 0 0 0 -2.495117,-0.4711914 6.875,6.875 0 0 0 -3.112793,0.7617187 6.875,6.875 0 0 0 -3.1372071,-0.7617187 6.875,6.875 0 0 0 -2.487793,0.4833985 5.625,5.625 0 0 1 5.6127931,-5.4833985 z m -3.1250001,6.25 a 5.625,5.625 0 0 1 1.8847651,0.3271485 6.875,6.875 0 0 0 -2.2485346,3.4423825 5.625,5.625 0 0 1 -1.9995118,-3.234863 5.625,5.625 0 0 1 2.3632813,-0.534668 z m 6.2500001,0 a 5.625,5.625 0 0 1 2.365723,0.522461 5.625,5.625 0 0 1 -1.999512,3.244629 6.875,6.875 0 0 0 -2.233887,-3.4375001 5.625,5.625 0 0 1 1.867676,-0.3295899 z m -3.288574,1.064453 c -0.01378,0.01 -0.02782,0.01922 -0.0415,0.0293 a 5.625,5.625 0 0 1 0.0415,-0.0293 z m 0.383301,0.0415 a 5.625,5.625 0 0 1 0.107422,0.08057 c -0.03542,-0.02761 -0.07133,-0.05379 -0.107422,-0.08057 z m 6.396484,0.112305 a 5.625,5.625 0 0 1 2.133789,4.406738 5.625,5.625 0 0 1 -5.625,5.625 5.625,5.625 0 0 1 -1.877441,-0.332031 6.875,6.875 0 0 0 2.502441,-5.292969 6.875,6.875 0 0 0 -0.01954,-0.478515 6.875,6.875 0 0 0 2.885742,-3.928223 z m -13.2299806,0.01221 a 6.875,6.875 0 0 0 2.8979492,3.928223 6.875,6.875 0 0 0 -0.03418,0.466309 6.875,6.875 0 0 0 2.5024414,5.292968 5.625,5.625 0 0 1 -1.8774414,0.332032 5.625,5.625 0 0 1 -5.625,-5.625 5.625,5.625 0 0 1 2.1362308,-4.394532 z m 7.0458986,0.0415 a 5.625,5.625 0 0 1 0.10498,0.08545 c -0.03403,-0.02925 -0.07024,-0.05701 -0.10498,-0.08545 z m 0.214844,0.183106 a 5.625,5.625 0 0 1 0.185546,0.175781 c -0.06042,-0.05993 -0.122466,-0.11863 -0.185546,-0.175781 z m 0.280761,0.270996 a 5.625,5.625 0 0 1 0.32959,0.375976 c -0.104505,-0.12996 -0.214138,-0.255884 -0.32959,-0.375976 z m -2.331543,0.566406 c -0.01352,0.01836 -0.02576,0.03762 -0.03906,0.05615 a 5.625,5.625 0 0 1 0.03906,-0.05615 z m 2.84668,0.05615 a 5.625,5.625 0 0 1 0.144043,0.207519 c -0.04601,-0.07054 -0.09501,-0.139219 -0.144043,-0.207519 z m 0.224609,0.336914 a 5.625,5.625 0 0 1 0.05859,0.09521 c -0.01895,-0.03227 -0.03903,-0.06336 -0.05859,-0.09521 z m 0.136719,0.234375 a 5.625,5.625 0 0 1 0.117188,0.224609 c -0.03758,-0.0764 -0.07629,-0.150214 -0.117188,-0.224609 z m -3.671875,0.119629 c -0.01153,0.02222 -0.02295,0.04353 -0.03418,0.06592 a 5.625,5.625 0 0 1 0.03418,-0.06592 z m 3.803711,0.134278 a 5.625,5.625 0 0 1 0.05127,0.109864 c -0.01668,-0.03638 -0.03384,-0.07391 -0.05127,-0.109864 z m 0.158691,0.361328 a 5.625,5.625 0 0 1 0.04883,0.126953 c -0.01596,-0.04284 -0.03186,-0.08462 -0.04883,-0.126953 z m 0.09521,0.256348 a 5.625,5.625 0 0 1 0.03662,0.107421 c -0.0117,-0.0363 -0.02421,-0.07144 -0.03662,-0.107421 z m -4.4042965,0.0708 c -0.00488,0.01477 -0.0099,0.02912 -0.014649,0.04395 a 5.625,5.625 0 0 1 0.014649,-0.04395 z m 4.5703125,0.507812 a 5.625,5.625 0 0 1 0.02197,0.09033 5.625,5.625 0 0 1 -0.102539,0.0415 c 0.03334,-0.0149 0.06707,-0.02847 0.100097,-0.04395 -0.0062,-0.02932 -0.01288,-0.05874 -0.01953,-0.08789 z m -4.7192382,0.09277 c 0.019494,0.0091 0.03899,0.01797 0.058594,0.02685 a 5.625,5.625 0 0 1 -0.058594,-0.02441 5.625,5.625 0 0 1 0,-0.0024 z m 4.2993162,0.180664 a 5.625,5.625 0 0 1 -0.349121,0.117188 c 0.117845,-0.03583 0.234497,-0.0742 0.349121,-0.117188 z m -3.864746,0.0024 c 0.112281,0.04195 0.226431,0.07967 0.341797,0.114746 a 5.625,5.625 0 0 1 -0.341797,-0.114746 z m 0.993652,0.270996 c 0.04079,0.0072 0.08097,0.01325 0.12207,0.01953 a 5.625,5.625 0 0 1 -0.12207,-0.01953 z m 1.870118,0 a 5.625,5.625 0 0 1 -0.12207,0.01953 c 0.0411,-0.0063 0.08128,-0.01234 0.12207,-0.01953 z m -3.422852,0.849609 a 6.875,6.875 0 0 0 2.487793,0.483399 6.875,6.875 0 0 0 2.487793,-0.483399 5.625,5.625 0 0 1 -2.487793,4.519043 5.625,5.625 0 0 1 -2.487793,-4.519043 z" />
</svg>
