<?xml version="1.0" encoding="UTF-8" standalone="no"?>
<svg
   height="24"
   id="svg7384"
   version="1.1"
   width="24"
   sodipodi:docname="debian.svg"
   inkscape:version="1.1.2 (08b2f3d93c, 2022-04-05)"
   xmlns:inkscape="http://www.inkscape.org/namespaces/inkscape"
   xmlns:sodipodi="http://sodipodi.sourceforge.net/DTD/sodipodi-0.dtd"
   xmlns="http://www.w3.org/2000/svg"
   xmlns:svg="http://www.w3.org/2000/svg"
   xmlns:rdf="http://www.w3.org/1999/02/22-rdf-syntax-ns#"
   xmlns:cc="http://creativecommons.org/ns#"
   xmlns:dc="http://purl.org/dc/elements/1.1/">
  <sodipodi:namedview
     id="namedview25"
     pagecolor="#ffffff"
     bordercolor="#666666"
     borderopacity="1.0"
     inkscape:pageshadow="2"
     inkscape:pageopacity="0.0"
     inkscape:pagecheckerboard="0"
     showgrid="false"
     inkscape:zoom="16"
     inkscape:cx="2.34375"
     inkscape:cy="13.34375"
     inkscape:window-width="1920"
     inkscape:window-height="1016"
     inkscape:window-x="0"
     inkscape:window-y="27"
     inkscape:window-maximized="1"
     inkscape:current-layer="svg7384"
     inkscape:snap-page="true">
    <inkscape:grid
       type="xygrid"
       id="grid829" />
    <inkscape:grid
       type="xygrid"
       id="grid831"
       dotted="true"
       spacingx="0.5"
       spacingy="0.5"
       empspacing="10" />
  </sodipodi:namedview>
  <metadata
     id="metadata20854">
    <rdf:RDF>
      <cc:Work
         rdf:about="">
        <dc:format>image/svg+xml</dc:format>
        <dc:type
           rdf:resource="http://purl.org/dc/dcmitype/StillImage" />
      </cc:Work>
    </rdf:RDF>
  </metadata>
  <defs
     id="defs7386">
    <linearGradient
       id="linearGradient5606"
       inkscape:swatch="solid">
      <stop
         id="stop5608"
         offset="0"
         style="stop-color:#000000;stop-opacity:1;" />
    </linearGradient>
    <linearGradient
       id="linearGradient4526"
       inkscape:swatch="solid">
      <stop
         id="stop4528"
         offset="0"
         style="stop-color:#ffffff;stop-opacity:1;" />
    </linearGradient>
    <linearGradient
       id="linearGradient3600-4"
       inkscape:swatch="gradient">
      <stop
         id="stop3602-7"
         offset="0"
         style="stop-color:#f4f4f4;stop-opacity:1" />
      <stop
         id="stop3604-6"
         offset="1"
         style="stop-color:#dbdbdb;stop-opacity:1" />
    </linearGradient>
  </defs>
  <path
     id="path9"
     style="fill:#808080;stroke-width:0.221824"
     d="m 13.143677,2.0000005 c -0.302461,0.024843 -0.604713,0.037012 -0.90184,0.074882 l 0.13674,0.019534 c 0.216829,-0.079295 0.529128,-0.047492 0.7651,-0.094417 z m -1.331597,0.1367411 c -0.503763,0.030612 -1.202324,0.2944741 -0.986489,0.055347 -0.82186,0.3668979 -2.2802645,0.8824808 -3.0994635,1.6506593 l -0.02605,-0.1725542 c -0.375327,0.4505258 -1.6380771,1.3465886 -1.7385638,1.9306529 l -0.1009279,0.02279 c -0.1949838,0.3307405 -0.3205042,0.7050358 -0.4753377,1.0450928 -0.19149,0.326581 -0.3084737,0.260481 -0.3385968,0.234413 -0.5024328,1.018619 -0.7515627,1.876248 -0.9669542,2.5785441 0.1535033,0.229589 0.00396,1.3824945 0.061859,2.3050625 -0.2519929,4.557165 3.1990734,8.980349 6.9705359,10.001628 0.552787,0.198089 1.371459,0.192103 2.070649,0.211623 -0.824744,-0.23602 -0.928159,-0.126804 -1.732052,-0.406968 -0.579628,-0.273288 -0.709155,-0.584437 -1.119974,-0.940908 l 0.162787,0.286504 c -0.8052255,-0.285045 -0.46796,-0.352581 -1.1232305,-0.559985 l 0.17581,-0.224648 c -0.261088,-0.01997 -0.693112,-0.440799 -0.810679,-0.673938 l -0.286505,0.01302 c -0.342941,-0.422797 -0.524682,-0.730268 -0.511151,-0.966955 l -0.09116,0.166043 c -0.104481,-0.179456 -1.2648719,-1.587828 -0.6641708,-1.25997 -0.1115782,-0.1016 -0.2591674,-0.166464 -0.4199902,-0.45906 l 0.123718,-0.139996 c -0.2885939,-0.371999 -0.53304,-0.847196 -0.5144066,-1.006024 0.1541684,0.208072 0.2618663,0.247537 0.3678984,0.283249 -0.7300247,-1.810974 -0.7725206,-0.102242 -1.3250855,-1.846004 l 0.1172065,-0.0065 c -0.089396,-0.135539 -0.1430082,-0.282539 -0.2148786,-0.426503 l 0.048836,-0.507894 c -0.5252807,-0.606912 -0.1444562,-2.582348 -0.068371,-3.6659605 0.052129,-0.440543 0.4358114,-0.911612 0.7292854,-1.647404 l -0.1758098,-0.0293 c 0.3420535,-0.596264 1.9495332,-2.3940861 2.6957512,-2.3018071 0.361353,-0.453853 -0.06924,-0.00318 -0.139996,-0.1172066 0.79391,-0.8214165 1.043326,-0.5813284 1.579033,-0.7292854 0.5774095,-0.3427191 -0.498376,0.1344069 -0.224646,-0.1302295 0.9988775,-0.2548765 0.7092705,-0.5804273 2.0120465,-0.709751 0.137522,0.078083 -0.318551,0.1232726 -0.433013,0.2246459 0.831842,-0.40727 2.632357,-0.3154969 3.802703,0.2246461 1.356902,0.6346401 2.882851,2.5106136 2.943187,4.2747846 l 0.06837,0.01628 c -0.03461,0.701409 0.106461,1.5145945 -0.139996,2.2594815 l 0.166042,-0.354875 c 0.01997,0.535927 -0.15632,0.796206 -0.315806,1.256715 l -0.286505,0.143251 c -0.234468,0.455627 0.02466,0.288906 -0.143252,0.651149 -0.366454,0.325416 -1.109635,1.017462 -1.347876,1.080904 -0.174131,-0.0038 0.114864,-0.204502 0.15302,-0.28325 -0.49001,0.336287 -0.393219,0.505008 -1.142764,0.709751 l -0.01954,-0.04884 c -1.847799,0.869552 -4.41594,-0.853192 -4.382223,-3.203648 -0.01952,0.149076 -0.05687,0.112664 -0.09767,0.172555 -0.09538,-1.2091665 0.56077,-2.4237315 1.663683,-2.9203965 1.078732,-0.53371 2.343571,-0.316997 3.115742,0.403712 -0.424129,-0.555893 -1.271856,-1.145242 -2.272507,-1.090673 -0.980686,0.01597 -1.898015,0.641787 -2.204133,1.318574 -0.502212,0.316101 -0.559403,1.2182055 -0.778122,1.3836875 -0.2948055,2.165007 0.553383,3.099431 1.989255,4.199903 0.112687,0.07609 0.129003,0.120213 0.120463,0.159532 1.693854,0.632422 3.444279,0.477833 4.909653,-0.69673 0.373109,-0.29059 0.780795,-0.784486 0.898584,-0.791143 -0.177237,0.266633 0.02877,0.129292 -0.107439,0.364642 0.37089,-0.599147 -0.161291,-0.244741 0.384176,-1.035325 l 0.201856,0.276739 c -0.07543,-0.497775 0.617504,-1.101738 0.546964,-1.888329 0.159043,-0.240458 0.178339,0.260704 0.0098,0.813934 0.234025,-0.613789 0.06057,-0.714255 0.120462,-1.220902 0.06454,0.170361 0.151639,0.354042 0.195345,0.533942 -0.152608,-0.59338 0.154405,-0.9996825 0.231157,-1.3446205 -0.07586,-0.03327 -0.233404,0.260998 -0.270227,-0.439525 0.0055,-0.304343 0.08356,-0.159436 0.113952,-0.234412 -0.05944,-0.03438 -0.217389,-0.268843 -0.312551,-0.716263 0.06855,-0.105367 0.185939,0.274455 0.279992,0.289761 -0.06056,-0.355585 -0.164861,-0.628773 -0.169297,-0.901839 -0.275063,-0.574526 -0.09635,0.07924 -0.319062,-0.244181 -0.292808,-0.912586 0.240357,-0.213989 0.276737,-0.628357 0.443205,0.642182 0.697475,1.638743 0.813934,2.051115 -0.08873,-0.502877 -0.231948,-0.990449 -0.406966,-1.461827 0.135088,0.05701 -0.216821,-1.031999 0.17581,-0.309295 -0.419027,-1.5405712 -1.793849,-2.9809594 -3.057139,-3.6561935 0.154175,0.1413032 0.349646,0.3171584 0.279993,0.3451083 -0.62865,-0.3737745 -0.518761,-0.4020477 -0.608822,-0.5599869 -0.511305,-0.2082933 -0.544022,0.016637 -0.882305,0 -0.964937,-0.5119712 -1.150129,-0.4578067 -2.038092,-0.7781215 l 0.03907,0.1888329 c -0.639077,-0.2129517 -0.745241,0.079856 -1.43578,0 -0.04192,-0.032609 0.222581,-0.1184873 0.439525,-0.1497641 -0.618003,0.081632 -0.590163,-0.1216166 -1.194857,0.02279 0.148841,-0.1044786 0.306745,-0.1749849 0.465571,-0.2637147 z m 0.729286,0.2409245 0.11395,-0.00977 0.0098,-0.016279 z m 0.123718,-0.026046 c 0.194317,-0.042812 0.239319,-0.080814 -0.35162,-0.097672 0.177015,0.031498 0.381123,0.055303 0.35162,0.097672 z m -0.433014,12.2187859 c -0.0085,0.03932 -0.04113,0.07233 -0.02605,0.130229 -0.476922,-0.223156 -0.913638,-0.557394 -1.272993,-0.970209 0.190769,0.278832 0.394947,0.548889 0.660914,0.761842 -0.450082,-0.151958 -1.049138,-1.091589 -1.224158,-1.129742 0.775278,1.388178 3.143929,2.436922 4.385481,1.91763 -0.574526,0.02129 -1.305123,0.01064 -1.950188,-0.227902 -0.271736,-0.139522 -0.63889,-0.427944 -0.57301,-0.481848 z m -7.7226115,-8.2923656 c -1.382e-4,0.0088 0.00213,0.0162 0.00326,0.02279 -5.867e-4,-0.0073 -0.00245,-0.01532 -0.00326,-0.02279 z m 0.00326,0.03256 c 0.019097,0.280043 -0.1179882,0.453394 -0.1237179,0.472082 0.012896,-0.0071 0.070903,-0.0577 0.2116229,-0.156276 0.2266769,-0.5103352 -0.054453,-0.194081 -0.087905,-0.315806 z m -0.3711542,1.484616 c -0.2868192,0.3668981 -0.1326186,0.4471761 -0.1627868,0.6967281 0.1040352,-0.318762 0.1230788,-0.5119481 0.1627868,-0.6967281 z m 11.8118187,2.2171576 c -0.04101,0.0011 -0.09395,0.104449 -0.120463,0.218134 0.06168,0.03239 0.112879,0.422779 0.172555,0.182322 0.02019,-0.298466 -0.01108,-0.401509 -0.05209,-0.400456 z m 3.626892,1.006022 -0.04884,0.123719 c -0.08916,0.633975 -0.284051,1.260902 -0.579521,1.842748 0.326526,-0.61379 0.538963,-1.286131 0.628357,-1.966467 z m -3.851538,0.279994 c -0.05185,0.196337 -0.160695,0.370152 -0.263715,0.553475 -0.619556,0.390189 -0.05812,-0.232139 0,-0.468826 -0.665917,0.839163 -0.0928,0.504586 -0.117207,0.739054 0.185708,-0.255585 0.322549,-0.535889 0.380922,-0.823703 z m -1.341364,1.224158 c -0.269073,0.06588 -0.540798,0.06738 -0.817191,0.04233 -0.331406,0.0045 0.06209,0.1709 0.494872,0.237669 0.120003,-0.09361 0.225604,-0.188157 0.322319,-0.279994 z m -4.180368,0.04233 c 0.07321,0.268629 0.222303,0.500662 0.361387,0.735797 l -0.100928,-0.302785 c -0.115352,-0.127771 -0.183707,-0.280397 -0.260459,-0.433012 z m -0.2572045,0.455803 -0.04558,0.231157 c 0.2180525,0.296135 0.3894785,0.615795 0.6674255,0.846493 -0.200086,-0.390188 -0.348113,-0.549264 -0.6218455,-1.07765 z" />
</svg>
