<?xml version="1.0" encoding="UTF-8" standalone="no"?>
<svg viewBox="0 1 24 24" height="24" id="svg7384" version="1.1" width="24" sodipodi:docname="education.svg" inkscape:version="1.1.2 (08b2f3d93c, 2022-04-05)"
   xmlns:inkscape="http://www.inkscape.org/namespaces/inkscape"
   xmlns:sodipodi="http://sodipodi.sourceforge.net/DTD/sodipodi-0.dtd"
   xmlns="http://www.w3.org/2000/svg"
   xmlns:svg="http://www.w3.org/2000/svg"
   xmlns:rdf="http://www.w3.org/1999/02/22-rdf-syntax-ns#"
   xmlns:cc="http://creativecommons.org/ns#"
   xmlns:dc="http://purl.org/dc/elements/1.1/">
   <sodipodi:namedview id="namedview21" pagecolor="#ffffff" bordercolor="#666666" borderopacity="1.0" inkscape:pageshadow="2" inkscape:pageopacity="0.0" inkscape:pagecheckerboard="0" showgrid="true" inkscape:zoom="45.254834" inkscape:cx="16.031437" inkscape:cy="12.750019" inkscape:window-width="1920" inkscape:window-height="1043" inkscape:window-x="0" inkscape:window-y="0" inkscape:window-maximized="1" inkscape:current-layer="svg7384" inkscape:snap-grids="false">
      <inkscape:grid type="xygrid" id="grid23" />
   </sodipodi:namedview>
   <metadata id="metadata20854">
      <rdf:RDF>
         <cc:Work rdf:about="">
            <dc:format>image/svg+xml</dc:format>
            <dc:type rdf:resource="http://purl.org/dc/dcmitype/StillImage" />
         </cc:Work>
      </rdf:RDF>
   </metadata>
   <defs id="defs7386">
      <linearGradient id="linearGradient5606" inkscape:swatch="solid">
         <stop id="stop5608" offset="0" style="stop-color:#000000;stop-opacity:1;" />
      </linearGradient>
      <linearGradient id="linearGradient4526" inkscape:swatch="solid">
         <stop id="stop4528" offset="0" style="stop-color:#ffffff;stop-opacity:1;" />
      </linearGradient>
      <linearGradient id="linearGradient3600-4" inkscape:swatch="gradient">
         <stop id="stop3602-7" offset="0" style="stop-color:#f4f4f4;stop-opacity:1" />
         <stop id="stop3604-6" offset="1" style="stop-color:#dbdbdb;stop-opacity:1" />
      </linearGradient>
   </defs>
   <path id="path163" style="color:#000000;fill:#808080;stroke-linecap:round;-inkscape-stroke:none" d="M 6 12.582031 L 6 17.1875 L 6.1132812 17.326172 C 6.1132812 17.326172 6.6039538 17.912475 7.5664062 18.457031 C 8.5288588 19.001588 9.995713 19.535156 12 19.535156 C 14.004287 19.535156 15.471141 19.001588 16.433594 18.457031 C 17.396046 17.912475 17.886719 17.326172 17.886719 17.326172 L 18 17.1875 L 18 12.582031 L 17 12.916016 L 17 16.775391 C 16.93898 16.846531 16.690965 17.161838 15.941406 17.585938 C 15.11191 18.055266 13.827907 18.535156 12 18.535156 C 10.172093 18.535156 8.8880899 18.055265 8.0585938 17.585938 C 7.309035 17.161838 7.0610189 16.84653 7 16.775391 L 7 12.916016 L 6 12.582031 z " />
   <path style="color:#000000;fill:#808080;stroke-linecap:round;-inkscape-stroke:none" d="m 12,5.453125 -10.3808594,4.613281 2.3808594,0.794922 v 4.638672 c 0,0.276142 0.2238576,0.5 0.5,0.5 0.2761424,0 0.5,-0.223858 0.5,-0.5 v -4.900391 c -2.282e-4,-0.01894 -0.00153,-0.03785 -0.00391,-0.05664 0.02027,-0.229819 -0.1193383,-0.443669 -0.3378907,-0.517578 l -0.2773437,-0.091797 7.6191404,-3.3867188 7.619141,3.3867188 -7.619141,2.539062 -5.3417967,-1.78125 c -0.2621314,-0.08754 -0.5455668,0.05418 -0.6328125,0.316406 -0.087542,0.262132 0.054176,0.545567 0.3164063,0.632813 l 5.6582029,1.886719 10.380859,-3.460938 z" id="path6097" />
</svg>
