<?xml version="1.0" encoding="UTF-8" standalone="no"?>
<svg
   height="24"
   width="24"
   version="1.1"
   id="svg4"
   sodipodi:docname="error.svg"
   inkscape:version="1.1 (ce6663b3b7, 2021-05-25)"
   xmlns:inkscape="http://www.inkscape.org/namespaces/inkscape"
   xmlns:sodipodi="http://sodipodi.sourceforge.net/DTD/sodipodi-0.dtd"
   xmlns="http://www.w3.org/2000/svg"
   xmlns:svg="http://www.w3.org/2000/svg">
  <defs
     id="defs8" />
  <sodipodi:namedview
     id="namedview6"
     pagecolor="#ffffff"
     bordercolor="#666666"
     borderopacity="1.0"
     inkscape:pageshadow="2"
     inkscape:pageopacity="0.0"
     inkscape:pagecheckerboard="0"
     showgrid="false"
     width="24px"
     inkscape:zoom="28"
     inkscape:cx="5.875"
     inkscape:cy="6.8035714"
     inkscape:window-width="1920"
     inkscape:window-height="1016"
     inkscape:window-x="0"
     inkscape:window-y="27"
     inkscape:window-maximized="1"
     inkscape:current-layer="svg4" />
  <path
     d="m 12,2 a 10,10 0 0 1 10,10 10,10 0 0 1 -10,10 10,10 0 0 1 -10,-10 10,10 0 0 1 10,-10 z m 0,1.25 a 8.75,8.75 0 0 0 -8.75,8.75 8.75,8.75 0 0 0 8.75,8.75 8.75,8.75 0 0 0 8.75,-8.75 8.75,8.75 0 0 0 -8.75,-8.75 z m 3.93375,3.9325 0.88375,0.885 -3.93375,3.9325 3.93375,3.9325 -0.88375,0.885 -3.93375,-3.93375 -3.9325,3.93375 -0.88375,-0.885 3.9325,-3.9325 -3.9325,-3.9325 0.88375,-0.885 3.9325,3.93375 z"
     fill="#808080"
     id="path2"
     style="stroke-width:1" />
</svg>
