<?xml version="1.0" encoding="UTF-8" standalone="no"?>
<svg
   height="24"
   width="24"
   version="1.1"
   id="svg4"
   sodipodi:docname="find-location-filled.svg"
   inkscape:version="1.1 (ce6663b3b7, 2021-05-25)"
   xmlns:inkscape="http://www.inkscape.org/namespaces/inkscape"
   xmlns:sodipodi="http://sodipodi.sourceforge.net/DTD/sodipodi-0.dtd"
   xmlns="http://www.w3.org/2000/svg"
   xmlns:svg="http://www.w3.org/2000/svg">
  <defs
     id="defs8" />
  <sodipodi:namedview
     id="namedview6"
     pagecolor="#ffffff"
     bordercolor="#666666"
     borderopacity="1.0"
     inkscape:pageshadow="2"
     inkscape:pageopacity="0.0"
     inkscape:pagecheckerboard="0"
     showgrid="true"
     inkscape:zoom="9.8994949"
     inkscape:cx="-5.4043161"
     inkscape:cy="8.3337585"
     inkscape:window-width="1920"
     inkscape:window-height="1016"
     inkscape:window-x="0"
     inkscape:window-y="27"
     inkscape:window-maximized="1"
     inkscape:current-layer="svg4"
     inkscape:snap-page="true">
    <inkscape:grid
       type="xygrid"
       id="grid825" />
  </sodipodi:namedview>
  <path
     id="path2"
     style="stroke-width:1;fill:#808080;fill-opacity:1"
     d="M 11.375 2.625 L 11.375 3.90625 C 7.3841089 4.2149613 4.2117726 7.3843164 3.9003906 11.375 L 2.625 11.375 L 2.625 12.625 L 3.90625 12.625 C 4.2149612 16.615891 7.3843164 19.788226 11.375 20.099609 L 11.375 21.375 L 12.625 21.375 L 12.625 20.09375 C 16.615891 19.785039 19.788226 16.615684 20.099609 12.625 L 21.375 12.625 L 21.375 11.375 L 20.09375 11.375 C 19.785039 7.3841089 16.615684 4.2117726 12.625 3.9003906 L 12.625 2.625 L 11.375 2.625 z M 12 8.875 C 13.72589 8.875 15.125 10.27411 15.125 12 C 15.125 13.72589 13.72589 15.125 12 15.125 C 10.27411 15.125 8.875 13.72589 8.875 12 C 8.875 10.27411 10.27411 8.875 12 8.875 z " />
</svg>
