<?xml version="1.0" encoding="UTF-8" standalone="no"?>
<svg
   height="24"
   width="24"
   version="1.1"
   id="svg4"
   sodipodi:docname="find-location.svg"
   inkscape:version="1.1 (ce6663b3b7, 2021-05-25)"
   xmlns:inkscape="http://www.inkscape.org/namespaces/inkscape"
   xmlns:sodipodi="http://sodipodi.sourceforge.net/DTD/sodipodi-0.dtd"
   xmlns="http://www.w3.org/2000/svg"
   xmlns:svg="http://www.w3.org/2000/svg">
  <defs
     id="defs8" />
  <sodipodi:namedview
     id="namedview6"
     pagecolor="#ffffff"
     bordercolor="#666666"
     borderopacity="1.0"
     inkscape:pageshadow="2"
     inkscape:pageopacity="0.0"
     inkscape:pagecheckerboard="0"
     showgrid="true"
     inkscape:zoom="28"
     inkscape:cx="3.8035714"
     inkscape:cy="6.7321429"
     inkscape:window-width="1920"
     inkscape:window-height="1016"
     inkscape:window-x="0"
     inkscape:window-y="27"
     inkscape:window-maximized="1"
     inkscape:current-layer="svg4"
     inkscape:snap-page="true">
    <inkscape:grid
       type="xygrid"
       id="grid825" />
  </sodipodi:namedview>
  <path
     d="m 12.625,2.625 h -1.25 v 1.28125 c -3.9908911,0.3087113 -7.162368,3.4780664 -7.47375,7.46875 h -1.27625 v 1.25 h 1.28125 c 0.3087112,3.990891 3.4780664,7.162367 7.46875,7.47375 v 1.27625 h 1.25 v -1.28125 c 3.990891,-0.308711 7.162367,-3.478066 7.47375,-7.46875 h 1.27625 v -1.25 h -1.28125 c -0.308711,-3.9908911 -3.478066,-7.162368 -7.46875,-7.47375 z m -0.625,2.5 c 3.796958,0 6.875,3.0780424 6.875,6.875 0,3.796958 -3.078042,6.875 -6.875,6.875 -3.7969576,0 -6.875,-3.078042 -6.875,-6.875 0,-3.7969576 3.0780424,-6.875 6.875,-6.875 z m 0,3.75 c -1.72589,0 -3.125,1.39911 -3.125,3.125 0,1.72589 1.39911,3.125 3.125,3.125 1.72589,0 3.125,-1.39911 3.125,-3.125 0,-1.72589 -1.39911,-3.125 -3.125,-3.125 z"
     fill="#808080"
     id="path2"
     sodipodi:nodetypes="cccccccccccccccccssssssssss"
     style="stroke-width:1" />
</svg>
