<?xml version="1.0" encoding="UTF-8" standalone="no"?>
<svg
   height="24"
   id="svg7384"
   version="1.1"
   width="24"
   sodipodi:docname="fingerprint.svg"
   inkscape:version="1.1 (ce6663b3b7, 2021-05-25)"
   xmlns:inkscape="http://www.inkscape.org/namespaces/inkscape"
   xmlns:sodipodi="http://sodipodi.sourceforge.net/DTD/sodipodi-0.dtd"
   xmlns="http://www.w3.org/2000/svg"
   xmlns:svg="http://www.w3.org/2000/svg"
   xmlns:rdf="http://www.w3.org/1999/02/22-rdf-syntax-ns#"
   xmlns:cc="http://creativecommons.org/ns#"
   xmlns:dc="http://purl.org/dc/elements/1.1/">
  <sodipodi:namedview
     id="namedview30"
     pagecolor="#ffffff"
     bordercolor="#666666"
     borderopacity="1.0"
     inkscape:pageshadow="2"
     inkscape:pageopacity="0.0"
     inkscape:pagecheckerboard="0"
     showgrid="false"
     inkscape:zoom="14"
     inkscape:cx="-0.46428571"
     inkscape:cy="6.3928571"
     inkscape:window-width="1920"
     inkscape:window-height="1016"
     inkscape:window-x="0"
     inkscape:window-y="27"
     inkscape:window-maximized="1"
     inkscape:current-layer="svg7384"
     inkscape:snap-page="true" />
  <metadata
     id="metadata20854">
    <rdf:RDF>
      <cc:Work
         rdf:about="">
        <dc:format>image/svg+xml</dc:format>
        <dc:type
           rdf:resource="http://purl.org/dc/dcmitype/StillImage" />
      </cc:Work>
    </rdf:RDF>
  </metadata>
  <defs
     id="defs7386">
    <linearGradient
       id="linearGradient5606"
       inkscape:swatch="solid">
      <stop
         id="stop5608"
         offset="0"
         style="stop-color:#000000;stop-opacity:1;" />
    </linearGradient>
    <linearGradient
       id="linearGradient4526"
       inkscape:swatch="solid">
      <stop
         id="stop4528"
         offset="0"
         style="stop-color:#ffffff;stop-opacity:1;" />
    </linearGradient>
    <linearGradient
       id="linearGradient3600-4"
       inkscape:swatch="gradient">
      <stop
         id="stop3602-7"
         offset="0"
         style="stop-color:#f4f4f4;stop-opacity:1" />
      <stop
         id="stop3604-6"
         offset="1"
         style="stop-color:#dbdbdb;stop-opacity:1" />
    </linearGradient>
  </defs>
  <path
     id="path3882"
     style="color:#000000;font-style:normal;font-variant:normal;font-weight:normal;font-stretch:normal;font-size:medium;line-height:normal;font-family:sans-serif;font-variant-ligatures:normal;font-variant-position:normal;font-variant-caps:normal;font-variant-numeric:normal;font-variant-alternates:normal;font-feature-settings:normal;text-indent:0;text-align:start;text-decoration:none;text-decoration-line:none;text-decoration-style:solid;text-decoration-color:#000000;letter-spacing:normal;word-spacing:normal;text-transform:none;writing-mode:lr-tb;direction:ltr;text-orientation:mixed;dominant-baseline:auto;baseline-shift:baseline;text-anchor:start;white-space:normal;shape-padding:0;clip-rule:nonzero;display:inline;overflow:visible;visibility:visible;isolation:auto;mix-blend-mode:normal;color-interpolation:sRGB;color-interpolation-filters:linearRGB;solid-color:#000000;solid-opacity:1;vector-effect:none;fill:#808080;fill-opacity:1;fill-rule:nonzero;stroke:none;stroke-width:1;stroke-linecap:round;stroke-linejoin:round;stroke-miterlimit:4;stroke-dasharray:none;stroke-dashoffset:56;stroke-opacity:1;color-rendering:auto;image-rendering:auto;shape-rendering:auto;text-rendering:auto;enable-background:accumulate"
     d="m 12.708007,2.0002141 c -1.39395,-0.014263 -2.7902014,0.3293023 -4.0478513,1.0327148 a 0.62506245,0.62506245 0 1 0 0.6079101,1.0913086 c 2.1298872,-1.1912625 4.7308872,-1.1637492 6.8359372,0.070801 2.105062,1.2345999 3.395996,3.4897505 3.395996,5.9301755 v 1.25 a 0.62506245,0.62506245 0 1 0 1.249999,0 v -1.25 c 0,-0.0131 6.3e-5,-0.02597 0,-0.03906 a 0.62506245,0.62506245 0 0 0 0,-0.0073 c -0.01637,-2.8641487 -1.541111,-5.5127576 -4.013672,-6.9628902 -1.242986,-0.729 -2.634382,-1.1014601 -4.028319,-1.1157224 z m -6.4819331,3.5302733 a 0.62506245,0.62506245 0 0 0 -0.5004882,0.3027342 c -0.8016251,1.2882499 -1.2255859,2.774692 -1.2255859,4.2919914 v 6.328125 a 0.62506245,0.62506245 0 1 0 1.2499999,0 v -6.328125 c 0,-1.2839494 0.3592601,-2.5426868 1.0375975,-3.6328117 a 0.62506245,0.62506245 0 0 0 -0.5615233,-0.9619139 z m 6.3989251,0.2197265 c -2.40885,0 -4.3749995,1.9661248 -4.3749995,4.3749991 v 1.25 a 0.62506245,0.62506245 0 1 0 1.2499999,0 v -1.25 a 0.62506245,0.62506245 0 0 0 0,-0.03906 c 0.020847,-1.7150248 1.4048316,-3.0859367 3.1249996,-3.0859367 1.733288,0 3.125,1.3916624 3.125,3.1249997 v 6.249999 c 0,0 0.005,0.431204 0.187989,0.979004 0.1826,0.547812 0.546466,1.264228 1.245116,1.962891 a 0.62506245,0.62506245 0 1 0 0.88379,-0.88379 c -0.55135,-0.551338 -0.812484,-1.084921 -0.942384,-1.474609 -0.1299,-0.3897 -0.124512,-0.583496 -0.124512,-0.583496 v -6.249999 a 0.62506245,0.62506245 0 0 0 -0.0025,-0.07568 c -0.04081,-2.3741085 -1.98908,-4.2993161 -4.372559,-4.2993161 z m -0.0098,3.740234 a 0.62506245,0.62506245 0 0 0 -0.615235,0.6347651 v 6.25 c 0,0 -3.68e-4,0.684208 0.168457,1.52832 0.168813,0.8441 0.492336,1.89125 1.264649,2.663575 a 0.62506245,0.62506245 0 1 0 0.883789,-0.88379 c -0.477688,-0.477675 -0.779164,-1.305525 -0.922852,-2.023925 -0.143675,-0.718387 -0.144043,-1.28418 -0.144043,-1.28418 v -6.25 a 0.62506245,0.62506245 0 0 0 -0.634765,-0.6347651 z m 7.509765,3.7597651 a 0.62499995,0.62499995 0 0 0 -0.625,0.625 0.62499995,0.62499995 0 0 0 0.625,0.625 0.62499995,0.62499995 0 0 0 0.625,-0.625 0.62499995,0.62499995 0 0 0 -0.625,-0.625 z m -11.259765,1.240235 a 0.62506245,0.62506245 0 0 0 -0.6152344,0.634765 v 3.75 a 0.62506245,0.62506245 0 1 0 1.2499999,0 v -3.75 a 0.62506245,0.62506245 0 0 0 -0.6347655,-0.634765 z" />
</svg>
