<?xml version="1.0" encoding="UTF-8" standalone="no"?>
<svg viewBox="0 1 24 24" height="24" id="svg7384" version="1.1" width="24" sodipodi:docname="fingerprint.svg" inkscape:version="1.1 (ce6663b3b7, 2021-05-25)"
   xmlns:inkscape="http://www.inkscape.org/namespaces/inkscape"
   xmlns:sodipodi="http://sodipodi.sourceforge.net/DTD/sodipodi-0.dtd"
   xmlns="http://www.w3.org/2000/svg"
   xmlns:svg="http://www.w3.org/2000/svg"
   xmlns:rdf="http://www.w3.org/1999/02/22-rdf-syntax-ns#"
   xmlns:cc="http://creativecommons.org/ns#"
   xmlns:dc="http://purl.org/dc/elements/1.1/">
   <sodipodi:namedview id="namedview30" pagecolor="#ffffff" bordercolor="#666666" borderopacity="1.0" inkscape:pageshadow="2" inkscape:pageopacity="0.0" inkscape:pagecheckerboard="0" showgrid="true" inkscape:zoom="14" inkscape:cx="-2.6785714" inkscape:cy="6.9285714" inkscape:window-width="1920" inkscape:window-height="1043" inkscape:window-x="1920" inkscape:window-y="0" inkscape:window-maximized="1" inkscape:current-layer="svg7384" inkscape:snap-page="true" inkscape:snap-center="true">
      <inkscape:grid type="xygrid" id="grid14" />
      <inkscape:grid type="xygrid" id="grid831" dotted="true" spacingx="0.5" spacingy="0.5" empspacing="10" />
   </sodipodi:namedview>
   <metadata id="metadata20854">
      <rdf:RDF>
         <cc:Work rdf:about="">
            <dc:format>image/svg+xml</dc:format>
            <dc:type rdf:resource="http://purl.org/dc/dcmitype/StillImage" />
         </cc:Work>
      </rdf:RDF>
   </metadata>
   <defs id="defs7386">
      <linearGradient id="linearGradient5606" inkscape:swatch="solid">
         <stop id="stop5608" offset="0" style="stop-color:#000000;stop-opacity:1;" />
      </linearGradient>
      <linearGradient id="linearGradient4526" inkscape:swatch="solid">
         <stop id="stop4528" offset="0" style="stop-color:#ffffff;stop-opacity:1;" />
      </linearGradient>
      <linearGradient id="linearGradient3600-4" inkscape:swatch="gradient">
         <stop id="stop3602-7" offset="0" style="stop-color:#f4f4f4;stop-opacity:1" />
         <stop id="stop3604-6" offset="1" style="stop-color:#dbdbdb;stop-opacity:1" />
      </linearGradient>
   </defs>
   <path style="color:#000000;fill:#808080;stroke-linecap:round;-inkscape-stroke:none;fill-opacity:1" d="m 12.5,10 a 0.5,0.5 0 0 0 -0.5,0.5 v 6 c 0,2.766664 2.199219,4.400391 2.199219,4.400391 a 0.5,0.5 0 0 0 0.701172,-0.09961 0.5,0.5 0 0 0 -0.09961,-0.701172 c 0,0 -1.800781,-1.366278 -1.800781,-3.599609 v -6 a 0.5,0.5 0 0 0 -0.5,-0.5 z" id="path866" />
   <path style="color:#000000;fill:#808080;stroke-linecap:round;-inkscape-stroke:none;fill-opacity:1" d="m 8.5,14 a 0.5,0.5 0 0 0 -0.5,0.5 v 5 a 0.5,0.5 0 0 0 0.5,0.5 0.5,0.5 0 0 0 0.5,-0.5 v -5 a 0.5,0.5 0 0 0 -0.5,-0.5 z" id="path1224" />
   <path style="color:#000000;fill:#808080;stroke-linecap:round;-inkscape-stroke:none;fill-opacity:1" d="m 12.5,6 c -1.638887,0 -2.8363671,0.7281834 -3.5410156,1.7851562 -0.7046486,1.0569729 -0.9589844,2.3981788 -0.9589844,3.7148438 a 0.5,0.5 0 0 0 0.5,0.5 0.5,0.5 0 0 0 0.5,-0.5 c 0,-1.183332 0.2456654,-2.342131 0.7910156,-3.1601562 0.5453504,-0.8180253 1.3478744,-1.3398438 2.7089844,-1.3398438 1.36111,0 2.163634,0.5218185 2.708984,1.3398438 0.545351,0.8180252 0.791016,1.9768242 0.791016,3.1601562 v 4 c 0,2.766664 2.199219,4.400391 2.199219,4.400391 a 0.5,0.5 0 0 0 0.701172,-0.09961 0.5,0.5 0 0 0 -0.09961,-0.701172 c 0,0 -1.800781,-1.366278 -1.800781,-3.599609 v -4 c 0,-1.316665 -0.254336,-2.6578709 -0.958984,-3.7148438 -0.704649,-1.0569728 -1.902129,-1.7851562 -3.541016,-1.7851562 z" id="path1387" />
   <path style="color:#000000;fill:#808080;stroke-linecap:round;-inkscape-stroke:none;fill-opacity:1" d="m 12.5,2 c -1.528395,5.2e-6 -2.8932074,0.315205 -4.0585937,0.8828125 a 0.5,0.5 0 0 0 -0.2304688,0.6679688 0.5,0.5 0 0 0 0.6679688,0.2304687 c 1.0203928,-0.4969877 2.2295617,-0.7812452 3.6210937,-0.78125 2.389621,-8.3e-6 4.241554,0.822716 5.517578,2.1582031 1.276025,1.3354871 1.982422,3.2024649 1.982422,5.3417969 v 1 a 0.5,0.5 0 0 0 0.5,0.5 0.5,0.5 0 0 0 0.5,-0.5 v -1 c 0,-2.3606635 -0.788798,-4.4936887 -2.259766,-6.0332031 -1.470967,-1.5395144 -3.617838,-2.466806 -6.240234,-2.4667969 z m -6.5429688,3.5976562 a 0.5,0.5 0 0 0 -0.6875,0.1640625 c -0.831022,1.353735 -1.2695312,2.9807629 -1.2695312,4.7382813 v 6 a 0.5,0.5 0 0 0 0.5,0.5 0.5,0.5 0 0 0 0.5,-0.5 v -6 c 0,-1.5916295 0.3948736,-3.031831 1.1210937,-4.2148438 a 0.5,0.5 0 0 0 -0.1640625,-0.6875 z" id="path2109" />
   <path style="color:#000000;fill:#808080;fill-rule:evenodd;stroke-width:2;stroke-linecap:round;stroke-linejoin:round;-inkscape-stroke:none;fill-opacity:1" d="m 21,13.5 a 0.5,0.5 0 0 1 -0.5,0.5 0.5,0.5 0 0 1 -0.5,-0.5 0.5,0.5 0 0 1 0.5,-0.5 0.5,0.5 0 0 1 0.5,0.5 z" id="path2516" />
</svg>
