<?xml version="1.0" encoding="UTF-8" standalone="no"?>
<svg
   height="24"
   width="24"
   version="1.1"
   id="svg4"
   sodipodi:docname="globe.svg"
   inkscape:version="1.1 (ce6663b3b7, 2021-05-25)"
   xmlns:inkscape="http://www.inkscape.org/namespaces/inkscape"
   xmlns:sodipodi="http://sodipodi.sourceforge.net/DTD/sodipodi-0.dtd"
   xmlns="http://www.w3.org/2000/svg"
   xmlns:svg="http://www.w3.org/2000/svg">
  <defs
     id="defs8" />
  <sodipodi:namedview
     id="namedview6"
     pagecolor="#ffffff"
     bordercolor="#666666"
     borderopacity="1.0"
     inkscape:pageshadow="2"
     inkscape:pageopacity="0.0"
     inkscape:pagecheckerboard="0"
     showgrid="false"
     width="24px"
     inkscape:zoom="14"
     inkscape:cx="5.1071429"
     inkscape:cy="1.8214286"
     inkscape:window-width="1920"
     inkscape:window-height="1016"
     inkscape:window-x="0"
     inkscape:window-y="27"
     inkscape:window-maximized="1"
     inkscape:current-layer="svg4" />
  <path
     d="m 12,2 c -5.5175,0 -10,4.4825 -10,10 0,5.5175 4.4825,10 10,10 5.5175,0 10,-4.4825 10,-10 0,-5.5175 -4.4825,-10 -10,-10 z m -0.05,1.2525 -0.025,0.77125 1.14375,0.17125 0.7725,-0.7475 a 8.665,8.665 0 0 1 2.165,0.78125 l -0.26875,0.4325 0.7625,0.675 -0.7625,0.6375 0.2975,0.7625 1.695,-0.805 1.06,0.805 0.055,-0.17375 c 0.23,0.29 0.4375,0.59625 0.63,0.9125 l -1.06875,0.19375 -0.635,-0.67875 -1.9475,0.1275 -1.1875,1.865 0.80625,1.99 2.62625,0.805 0.50875,3.09375 0.63375,1.60875 0.4475,-0.25375 a 8.7525,8.7525 0 0 1 -7.65875,4.52375 c -4.8275,0 -8.75,-3.9225 -8.75,-8.75 0,-1.015 0.18125,-1.98625 0.5,-2.8925 l 0.0425,0.17 1.355,0.38125 1.77875,1.3125 0.0425,1.9075 1.145,1.5675 0.675,4.2375 1.22875,0.7625 -0.3375,-1.5675 2.075,-2.88125 0.89,-1.9475 -2.075,-1.95 -2.24625,-1.0575 -0.93125,0.54875 -1.1025,-1.6525 -0.635,0.2975 -0.55,-0.9325 0.975,-0.5075 0.93,0.55 1.61125,-1.99125 2.32875,-1.44 -0.635,-1.1875 -1.90625,0.68 -0.2375,-0.26375 a 8.68375,8.68375 0 0 1 3.78,-0.89125 z"
     fill="#808080"
     font-family="sans-serif"
     font-weight="400"
     overflow="visible"
     style="line-height:normal;font-variant-ligatures:normal;font-variant-position:normal;font-variant-caps:normal;font-variant-numeric:normal;font-variant-alternates:normal;font-feature-settings:normal;text-indent:0;text-align:start;text-decoration-line:none;text-decoration-style:solid;text-decoration-color:#000000;text-transform:none;shape-padding:0;isolation:auto;mix-blend-mode:normal;stroke-width:1;marker:none"
     white-space="normal"
     color="#000000"
     id="path2" />
</svg>
