<?xml version="1.0" encoding="UTF-8" standalone="no"?>
<svg
   height="24"
   width="24"
   version="1.1"
   id="svg4"
   sodipodi:docname="headphones.svg"
   inkscape:version="1.1 (ce6663b3b7, 2021-05-25)"
   xmlns:inkscape="http://www.inkscape.org/namespaces/inkscape"
   xmlns:sodipodi="http://sodipodi.sourceforge.net/DTD/sodipodi-0.dtd"
   xmlns="http://www.w3.org/2000/svg"
   xmlns:svg="http://www.w3.org/2000/svg">
  <defs
     id="defs8" />
  <sodipodi:namedview
     id="namedview6"
     pagecolor="#ffffff"
     bordercolor="#666666"
     borderopacity="1.0"
     inkscape:pageshadow="2"
     inkscape:pageopacity="0.0"
     inkscape:pagecheckerboard="0"
     showgrid="true"
     inkscape:snap-page="true"
     inkscape:zoom="22.627417"
     inkscape:cx="31.753514"
     inkscape:cy="17.655572"
     inkscape:window-width="1920"
     inkscape:window-height="1016"
     inkscape:window-x="0"
     inkscape:window-y="27"
     inkscape:window-maximized="1"
     inkscape:current-layer="svg4"
     inkscape:snap-grids="false">
    <inkscape:grid
       type="xygrid"
       id="grid821" />
    <inkscape:grid
       type="xygrid"
       id="grid823"
       dotted="true"
       spacingx="0.5"
       spacingy="0.5"
       empspacing="10" />
  </sodipodi:namedview>
  <path
     id="path858"
     style="color:#000000;fill:#808080;fill-opacity:1;stroke-linecap:square;-inkscape-stroke:none"
     d="m 12,3 c -4.3774466,0 -7.2761702,1.7628399 -8.4082031,4.8925781 -1.132033,3.1297379 -0.5806799,7.4771799 1.4414062,12.7851559 l 0.1777344,0.466797 2.8984375,-0.777343 c 0.5351229,-0.143386 0.8504172,-0.689487 0.7070312,-1.22461 l -1.2949218,-4.828125 c -0.1165009,-0.434787 -0.4994325,-0.725738 -0.9257813,-0.742187 -0.098388,-0.0038 -0.1984926,0.0083 -0.2988281,0.03516 l -2.0507812,0.548828 c -0.3732354,-2.3786 -0.2730924,-4.3750352 0.2871093,-5.9238281 0.9929649,-2.745256 3.344252,-4.2324219 7.4667969,-4.2324219 4.122545,0 6.473832,1.4871659 7.466797,4.2324219 0.560202,1.5487929 0.660345,3.5452281 0.287109,5.9238281 l -2.050781,-0.548828 c -0.100336,-0.02689 -0.20044,-0.03895 -0.298828,-0.03516 -0.426349,0.01645 -0.80928,0.3074 -0.925781,0.742187 l -1.294922,4.828125 c -0.143386,0.535123 0.171908,1.081224 0.707031,1.22461 l 2.898437,0.777343 0.177735,-0.466797 c 2.022086,-5.307976 2.573439,-9.655418 1.441406,-12.7851559 -1.132033,-3.1297382 -4.030756,-4.8925781 -8.408203,-4.8925781 z" />
</svg>
