<?xml version="1.0" encoding="UTF-8" standalone="no"?>
<svg
   height="24"
   width="24"
   version="1.1"
   id="svg4"
   sodipodi:docname="headset.svg"
   inkscape:version="1.1 (ce6663b3b7, 2021-05-25)"
   xmlns:inkscape="http://www.inkscape.org/namespaces/inkscape"
   xmlns:sodipodi="http://sodipodi.sourceforge.net/DTD/sodipodi-0.dtd"
   xmlns="http://www.w3.org/2000/svg"
   xmlns:svg="http://www.w3.org/2000/svg">
  <defs
     id="defs8" />
  <sodipodi:namedview
     id="namedview6"
     pagecolor="#ffffff"
     bordercolor="#666666"
     borderopacity="1.0"
     inkscape:pageshadow="2"
     inkscape:pageopacity="0.0"
     inkscape:pagecheckerboard="0"
     showgrid="false"
     inkscape:snap-page="true"
     inkscape:zoom="13.984268"
     inkscape:cx="-3.0391294"
     inkscape:cy="5.4704329"
     inkscape:window-width="1920"
     inkscape:window-height="1016"
     inkscape:window-x="0"
     inkscape:window-y="27"
     inkscape:window-maximized="1"
     inkscape:current-layer="svg4" />
  <path
     d="m 12.0225,3.28875 c -1.54375,-0.00125 -2.7875,0.2875 -3.8,0.75 a 6.65,6.65 0 0 0 -0.6,0.29875 c -0.0525,0.03125 -0.1,0.06625 -0.15125,0.0975 -0.1275,0.0775 -0.2575,0.155 -0.37875,0.24125 -0.1,0.0725 -0.19,0.15125 -0.2825,0.2275 a 5.75125,5.75125 0 0 0 -1.5,1.89 c -0.0175,0.035 -0.04125,0.06875 -0.0575,0.105 -0.01875,0.03625 -0.03,0.075 -0.0475,0.1125 -0.21875,0.47625 -0.4,0.96875 -0.5075,1.48125 -0.02,0.09625 -0.0225,0.19375 -0.03875,0.29125 -0.04875,0.2625 -0.0875,0.525 -0.11,0.78125 l -0.005,0.0675 c -0.025,0.30875 -0.0175,0.59 -0.015,0.87875 0.0025,0.1075 -0.0025,0.215 0.0025,0.3225 0.015,0.31 0.0375,0.58625 0.075,0.855 0.025,0.1875 0.055,0.37125 0.0875,0.55625 0.00375,0.025 0.00625,0.0625 0.0125,0.08625 v 0.0025 l 0.02125,0.105 c 0.0325,0.1825 0.06,0.3675 0.1,0.54625 l 0.1175,0.525 0.0075,-0.0025 1.1325,5.38125 1.2625,-0.2225 c 0.70875,-0.125 1.215,-0.2375 1.45,-0.425 a 0.56625,0.56625 0 0 0 0.22,-0.375 c 0.035,-0.1825 0.0275,-0.4475 -0.05,-0.80875 l -0.85,-4.02125 c -0.075,-0.3625 -0.17625,-0.61 -0.285,-0.76875 a 0.65,0.65 0 0 0 -0.36875,-0.28375 c -0.3025,-0.09625 -0.81375,-0.025 -1.5275,0.1 l -0.175,0.0325 c -0.1975,-1.14875 -0.235,-2.33375 -0.01125,-3.40625 0.265,-1.27 0.8625,-2.37125 1.965,-3.15875 1.0875,-0.77625 2.70375,-1.16875 4.31,-1.165 1.605,-0.00375 3.22,0.3875 4.30625,1.165 1.10375,0.7875 1.7025,1.8875 1.9675,3.15875 0.22375,1.0725 0.185,2.2575 -0.0125,3.40625 l -0.1725,-0.0325 c -0.715,-0.125 -1.2275,-0.19625 -1.53125,-0.1 a 0.65,0.65 0 0 0 -0.36875,0.28375 c -0.10875,0.15875 -0.20625,0.4075 -0.28375,0.76875 l -0.85,4.02125 c -0.075,0.3625 -0.085,0.62625 -0.05,0.8075 a 0.56625,0.56625 0 0 0 0.22,0.37625 c 0.23375,0.1875 0.74,0.3 1.45,0.425 l 0.01875,0.0025 -0.47125,2.0925 -2.9975,-0.0225 v -1.25 h -2.5 v 1.875 c 0,0 0,0.625 0.625,0.625 h 1.875 l 3.49875,0.0225 a 0.625,0.625 0 0 0 0.6075,-0.48875 l 0.59625,-2.6375 0.01,0.0038 1.1325,-5.38125 0.01,0.0025 0.1175,-0.525 c 0.04,-0.17875 0.06375,-0.36375 0.0975,-0.5475 l 0.025,-0.105 v -0.0025 c 0.0038,-0.02375 0.0063,-0.06 0.0125,-0.085 a 12.45625,12.45625 0 0 0 0.1575,-1.41125 c 0.005,-0.1075 0.0038,-0.215 0.005,-0.3225 0.0038,-0.28875 0.0125,-0.57 -0.01375,-0.87875 l -0.0075,-0.0675 a 8.77125,8.77125 0 0 0 -0.11,-0.78125 c -0.0175,-0.0975 -0.02,-0.195 -0.04,-0.29125 a 6.94375,6.94375 0 0 0 -0.5075,-1.48125 c -0.01625,-0.0375 -0.02875,-0.07625 -0.04625,-0.1125 -0.0175,-0.03625 -0.04125,-0.07 -0.05875,-0.105 a 5.75125,5.75125 0 0 0 -1.49875,-1.89 c -0.09375,-0.07625 -0.18375,-0.15625 -0.28375,-0.2275 a 5.94375,5.94375 0 0 0 -0.375,-0.24125 c -0.05125,-0.03125 -0.1,-0.0675 -0.15125,-0.0975 a 6.6825,6.6825 0 0 0 -0.60375,-0.2975 c -1.01,-0.46375 -2.255,-0.7525 -3.79875,-0.7525 z"
     style="line-height:normal;text-indent:0;text-align:start;text-decoration-line:none;text-decoration-style:solid;text-decoration-color:#000000;text-transform:none;isolation:auto;stroke-width:1;marker:none"
     color="#000000"
     font-weight="400"
     font-family="sans-serif"
     overflow="visible"
     fill="#808080"
     id="path2" />
</svg>
