<?xml version="1.0" encoding="UTF-8" standalone="no"?>
<svg
   height="24"
   width="24"
   version="1.1"
   id="svg4"
   sodipodi:docname="headphones.svg"
   inkscape:version="1.1 (ce6663b3b7, 2021-05-25)"
   xmlns:inkscape="http://www.inkscape.org/namespaces/inkscape"
   xmlns:sodipodi="http://sodipodi.sourceforge.net/DTD/sodipodi-0.dtd"
   xmlns="http://www.w3.org/2000/svg"
   xmlns:svg="http://www.w3.org/2000/svg">
  <defs
     id="defs8" />
  <sodipodi:namedview
     id="namedview6"
     pagecolor="#ffffff"
     bordercolor="#666666"
     borderopacity="1.0"
     inkscape:pageshadow="2"
     inkscape:pageopacity="0.0"
     inkscape:pagecheckerboard="0"
     showgrid="false"
     inkscape:snap-page="true"
     inkscape:zoom="14"
     inkscape:cx="-0.39285714"
     inkscape:cy="5.3928571"
     inkscape:window-width="1920"
     inkscape:window-height="1016"
     inkscape:window-x="0"
     inkscape:window-y="27"
     inkscape:window-maximized="1"
     inkscape:current-layer="svg4" />
  <path
     d="m 12,2 c -1.79625,0 -3.24375,0.335 -4.42125,0.875 -0.24125,0.105 -0.475,0.22 -0.7,0.34875 -0.0625,0.035 -0.1175,0.075 -0.17625,0.1125 -0.15,0.09 -0.3,0.17875 -0.44,0.28 -0.11625,0.0825 -0.22125,0.175 -0.33,0.2625 a 6.69375,6.69375 0 0 0 -1.7425,2.2 c -0.02125,0.0425 -0.04875,0.08125 -0.06875,0.1225 -0.02,0.0425 -0.03375,0.0875 -0.05375,0.13 a 8.07625,8.07625 0 0 0 -0.59,1.72375 c -0.02375,0.11125 -0.0275,0.22625 -0.0475,0.33875 -0.05625,0.3075 -0.1,0.61 -0.12625,0.90875 l -0.0075,0.08 c -0.03,0.36 -0.02125,0.6875 -0.0175,1.02375 0.0025,0.125 0,0.24875 0.005,0.3725 0.01625,0.36 0.04375,0.68125 0.0875,0.99375 0.0275,0.21875 0.0625,0.43375 0.09875,0.65 0.00625,0.02875 0.00875,0.07 0.01375,0.0975 v 0.0025 l 0.0275,0.1225 c 0.0375,0.2125 0.0675,0.42875 0.115,0.6375 l 0.13625,0.61 0.01,-0.0025 1.31875,6.25875 1.4675,-0.25875 c 0.825,-0.14625 1.4125,-0.275 1.6875,-0.4925 a 0.66375,0.66375 0 0 0 0.255,-0.44 c 0.04125,-0.21125 0.03,-0.51875 -0.05875,-0.94 l -0.9875,-4.675 c -0.09,-0.42 -0.205,-0.71 -0.33,-0.89625 a 0.75625,0.75625 0 0 0 -0.43,-0.32875 c -0.35375,-0.1125 -0.95,-0.03 -1.78,0.11625 l -0.2025,0.0375 c -0.2275,-1.33625 -0.2725,-2.715 -0.0125,-3.9625 0.30875,-1.47875 1.00375,-2.7575 2.2875,-3.675 1.26375,-0.9025 3.14375,-1.35875 5.0125,-1.355 1.8675,-0.00375 3.7475,0.4525 5.0125,1.355 1.28375,0.9175 1.97875,2.19625 2.2875,3.675 0.26,1.2475 0.215,2.62625 -0.0125,3.9625 l -0.2025,-0.0375 c -0.83125,-0.14625 -1.4275,-0.23 -1.78,-0.11625 a 0.7575,0.7575 0 0 0 -0.43,0.32875 c -0.125,0.18625 -0.24125,0.475 -0.33,0.89625 l -0.9875,4.675 c -0.09,0.42125 -0.1,0.72875 -0.06,0.94 a 0.665,0.665 0 0 0 0.25625,0.44 c 0.27375,0.21875 0.8625,0.34625 1.6875,0.4925 l 1.4675,0.25875 1.31875,-6.25875 0.01,0.0025 0.13625,-0.61125 c 0.0475,-0.2075 0.075,-0.425 0.115,-0.6375 l 0.02625,-0.12125 v -0.0025 c 0.0062,-0.0275 0.0087,-0.06875 0.015,-0.0975 0.03625,-0.21625 0.07125,-0.43125 0.0975,-0.65 0.045,-0.3125 0.07125,-0.63375 0.0875,-0.99375 0.0063,-0.125 0.0025,-0.2475 0.005,-0.3725 0.0038,-0.3375 0.0125,-0.66375 -0.01625,-1.02375 l -0.0075,-0.08 a 10.1775,10.1775 0 0 0 -0.1275,-0.90875 c -0.01875,-0.1125 -0.0225,-0.2275 -0.04625,-0.33875 a 8.0775,8.0775 0 0 0 -0.59125,-1.725 c -0.01875,-0.04125 -0.0325,-0.08625 -0.05375,-0.12875 -0.02,-0.04125 -0.0475,-0.08 -0.0675,-0.12125 a 6.69375,6.69375 0 0 0 -1.74375,-2.2 c -0.10875,-0.0875 -0.2125,-0.18125 -0.33,-0.26375 -0.14,-0.1 -0.29,-0.19 -0.43875,-0.28125 l -0.175,-0.1125 a 7.785,7.785 0 0 0 -0.7025,-0.3475 c -1.17625,-0.54 -2.62375,-0.875 -4.42,-0.875 z"
     style="line-height:normal;text-indent:0;text-align:start;text-decoration-line:none;text-decoration-style:solid;text-decoration-color:#000000;text-transform:none;isolation:auto;stroke-width:1;marker:none"
     color="#000000"
     font-weight="400"
     font-family="sans-serif"
     overflow="visible"
     fill="#808080"
     id="path2" />
</svg>
