<?xml version="1.0" encoding="UTF-8" standalone="no"?>
<svg
   height="24"
   id="svg7384"
   version="1.1"
   width="24"
   sodipodi:docname="health.svg"
   inkscape:version="1.1.2 (08b2f3d93c, 2022-04-05)"
   xmlns:inkscape="http://www.inkscape.org/namespaces/inkscape"
   xmlns:sodipodi="http://sodipodi.sourceforge.net/DTD/sodipodi-0.dtd"
   xmlns="http://www.w3.org/2000/svg"
   xmlns:svg="http://www.w3.org/2000/svg"
   xmlns:rdf="http://www.w3.org/1999/02/22-rdf-syntax-ns#"
   xmlns:cc="http://creativecommons.org/ns#"
   xmlns:dc="http://purl.org/dc/elements/1.1/">
  <sodipodi:namedview
     id="namedview21"
     pagecolor="#ffffff"
     bordercolor="#666666"
     borderopacity="1.0"
     inkscape:pageshadow="2"
     inkscape:pageopacity="0.0"
     inkscape:pagecheckerboard="0"
     showgrid="true"
     inkscape:zoom="4.2592135"
     inkscape:cx="133.71013"
     inkscape:cy="-19.487166"
     inkscape:window-width="1920"
     inkscape:window-height="1043"
     inkscape:window-x="1920"
     inkscape:window-y="0"
     inkscape:window-maximized="1"
     inkscape:current-layer="svg7384">
    <inkscape:grid
       type="xygrid"
       id="grid23" />
    <inkscape:grid
       type="xygrid"
       id="grid1311"
       dotted="true"
       spacingx="0.5"
       spacingy="0.5"
       empspacing="10" />
  </sodipodi:namedview>
  <metadata
     id="metadata20854">
    <rdf:RDF>
      <cc:Work
         rdf:about="">
        <dc:format>image/svg+xml</dc:format>
        <dc:type
           rdf:resource="http://purl.org/dc/dcmitype/StillImage" />
      </cc:Work>
    </rdf:RDF>
  </metadata>
  <defs
     id="defs7386">
    <linearGradient
       id="linearGradient5606"
       inkscape:swatch="solid">
      <stop
         id="stop5608"
         offset="0"
         style="stop-color:#000000;stop-opacity:1;" />
    </linearGradient>
    <linearGradient
       id="linearGradient4526"
       inkscape:swatch="solid">
      <stop
         id="stop4528"
         offset="0"
         style="stop-color:#ffffff;stop-opacity:1;" />
    </linearGradient>
    <linearGradient
       id="linearGradient3600-4"
       inkscape:swatch="gradient">
      <stop
         id="stop3602-7"
         offset="0"
         style="stop-color:#f4f4f4;stop-opacity:1" />
      <stop
         id="stop3604-6"
         offset="1"
         style="stop-color:#dbdbdb;stop-opacity:1" />
    </linearGradient>
  </defs>
  <path
     id="path4849-1"
     style="color:#000000;fill:#808080;stroke:none;stroke-width:1.25;-inkscape-stroke:none"
     d="M 7.6464844 2 C 4.5769219 2 2.0669375 4.4662924 2 7.5214844 L 2 7.5292969 L 2 7.5351562 C 2 8.9075224 2.3656049 9.9899427 2.7089844 10.914062 L 2.7148438 10.925781 L 2.71875 10.939453 C 2.72737 10.959853 2.7373938 10.97963 2.7460938 11 L 4.1210938 11 C 4.0368787 10.821694 3.9534224 10.641534 3.8769531 10.460938 C 3.546471 9.5705533 3.2535603 8.6861829 3.2519531 7.5429688 C 3.3087391 5.1582365 5.2463773 3.25 7.6464844 3.25 C 9.2810424 3.25 10.699368 4.1377031 11.458984 5.4550781 L 12 6.3945312 L 12.541016 5.4550781 C 13.300632 4.1377031 14.718958 3.25 16.353516 3.25 C 18.753636 3.25 20.691301 5.15825 20.748047 7.5429688 C 20.746747 8.686183 20.451576 9.5705533 20.121094 10.460938 C 20.044534 10.64174 19.961273 10.821493 19.876953 11 L 21.253906 11 C 21.262606 10.97964 21.27264 10.959853 21.28125 10.939453 L 21.287109 10.925781 L 21.291016 10.914062 C 21.634395 9.9899427 22 8.9075224 22 7.5351562 L 22 7.5292969 L 22 7.5214844 C 21.93317 4.4662791 19.423091 2 16.353516 2 C 14.543806 2 13.033768 2.9540558 12 4.2832031 C 10.966232 2.9540558 9.4581473 2 7.6484375 2 L 7.6464844 2 z M 8.4960938 5 A 0.50005 0.50005 0 0 0 8.0195312 5.3632812 L 6.1230469 12 L 4 12 L 4 13 L 6.5 13 A 0.50005 0.50005 0 0 0 6.9804688 12.636719 L 8.5117188 7.2773438 L 11.021484 15.644531 A 0.50005 0.50005 0 0 0 11.964844 15.685547 L 13.550781 11.71875 L 14.052734 12.722656 A 0.50005 0.50005 0 0 0 14.5 13 L 20 13 L 20 12 L 14.808594 12 L 13.947266 10.277344 A 0.50005 0.50005 0 0 0 13.035156 10.314453 L 11.566406 13.984375 L 8.9785156 5.3554688 A 0.50005 0.50005 0 0 0 8.4960938 5 z M 4.3964844 14 C 6.1657208 16.63609 8.6383043 19.077866 11.570312 21.830078 L 12 22.234375 L 12.429688 21.830078 C 15.361577 19.077977 17.834293 16.635968 19.603516 14 L 18.056641 14 C 16.500675 16.112297 14.432439 18.184345 12 20.482422 C 9.5675608 18.184345 7.4993245 16.112297 5.9433594 14 L 4.3964844 14 z " />
</svg>
