<?xml version="1.0" encoding="UTF-8" standalone="no"?>
<svg
   height="24"
   width="24"
   version="1.1"
   id="svg4"
   sodipodi:docname="heart.svg"
   inkscape:version="1.1 (ce6663b3b7, 2021-05-25)"
   xmlns:inkscape="http://www.inkscape.org/namespaces/inkscape"
   xmlns:sodipodi="http://sodipodi.sourceforge.net/DTD/sodipodi-0.dtd"
   xmlns="http://www.w3.org/2000/svg"
   xmlns:svg="http://www.w3.org/2000/svg">
  <defs
     id="defs8" />
  <sodipodi:namedview
     id="namedview6"
     pagecolor="#ffffff"
     bordercolor="#666666"
     borderopacity="1.0"
     inkscape:pageshadow="2"
     inkscape:pageopacity="0.0"
     inkscape:pagecheckerboard="0"
     showgrid="true"
     inkscape:zoom="28"
     inkscape:cx="9.6249999"
     inkscape:cy="7.1607142"
     inkscape:window-width="1920"
     inkscape:window-height="1016"
     inkscape:window-x="0"
     inkscape:window-y="27"
     inkscape:window-maximized="1"
     inkscape:current-layer="svg4"
     inkscape:snap-page="true">
    <inkscape:grid
       type="xygrid"
       id="grid825" />
    <inkscape:grid
       type="xygrid"
       id="grid827"
       dotted="true"
       spacingx="0.5"
       spacingy="0.5"
       empspacing="10" />
  </sodipodi:namedview>
  <path
     style="color:#000000;fill:#808080;fill-opacity:1;stroke-width:1;-inkscape-stroke:none"
     d="m 7.793457,3.3208007 c -1.2732874,-0.02155 -2.4451896,0.538022 -3.227539,1.5209962 -0.7823495,0.9829741 -1.1807705,2.3656371 -1.0595704,3.9819336 0.2424004,3.2325925 2.5167764,7.4187635 8.1079104,11.7944335 l 0.385742,0.300294 0.385742,-0.300294 c 7.302722,-5.715173 8.99008,-11.1450519 7.775879,-14.4604491 -0.607101,-1.6576988 -2.007491,-2.7406428 -3.647461,-2.8320313 -1.47693,-0.082303 -3.069612,0.7274214 -4.506836,2.2412109 -1.340178,-1.4170396 -2.8161292,-2.2224376 -4.213867,-2.2460938 z m -0.019531,1.25 c 1.1100325,0.018786 2.462844,0.6448989 3.742676,2.2021485 l 0.483398,0.5859375 0.483398,-0.5859375 c 1.365299,-1.6612423 2.809991,-2.263926 3.962403,-2.199707 1.152411,0.064219 2.082559,0.7543386 2.543945,2.0141602 0.902376,2.4639532 -0.334574,7.2999346 -6.999511,12.6879886 -5.0713318,-4.098927 -7.0380578,-7.900344 -7.2363284,-10.544434 -0.1020613,-1.3610626 0.2355711,-2.4124696 0.7910156,-3.1103515 0.5554445,-0.697882 1.3226265,-1.0651448 2.2290038,-1.0498048 z"
     id="path862" />
</svg>
