<?xml version="1.0" encoding="UTF-8" standalone="no"?>
<svg
   width="24"
   height="24"
   version="1.1"
   id="svg854"
   sodipodi:docname="hide.svg"
   inkscape:version="1.1 (ce6663b3b7, 2021-05-25)"
   xmlns:inkscape="http://www.inkscape.org/namespaces/inkscape"
   xmlns:sodipodi="http://sodipodi.sourceforge.net/DTD/sodipodi-0.dtd"
   xmlns="http://www.w3.org/2000/svg"
   xmlns:svg="http://www.w3.org/2000/svg"
   xmlns:rdf="http://www.w3.org/1999/02/22-rdf-syntax-ns#"
   xmlns:cc="http://creativecommons.org/ns#"
   xmlns:dc="http://purl.org/dc/elements/1.1/">
  <metadata
     id="metadata860">
    <rdf:RDF>
      <cc:Work
         rdf:about="">
        <dc:format>image/svg+xml</dc:format>
        <dc:type
           rdf:resource="http://purl.org/dc/dcmitype/StillImage" />
      </cc:Work>
    </rdf:RDF>
  </metadata>
  <defs
     id="defs858" />
  <sodipodi:namedview
     pagecolor="#ffffff"
     bordercolor="#666666"
     borderopacity="1"
     objecttolerance="10"
     gridtolerance="10"
     guidetolerance="10"
     inkscape:pageopacity="0"
     inkscape:pageshadow="2"
     inkscape:window-width="1920"
     inkscape:window-height="1016"
     id="namedview856"
     showgrid="false"
     inkscape:zoom="20.85965"
     inkscape:cx="4.0508829"
     inkscape:cy="12.584104"
     inkscape:window-x="0"
     inkscape:window-y="27"
     inkscape:window-maximized="1"
     inkscape:current-layer="svg854"
     inkscape:document-rotation="0"
     inkscape:pagecheckerboard="0"
     inkscape:snap-page="true">
    <inkscape:grid
       type="xygrid"
       id="grid1429" />
  </sodipodi:namedview>
  <path
     style="opacity:1;vector-effect:none;fill:#808080;fill-opacity:1;stroke:none;stroke-width:1.5;stroke-linecap:butt;stroke-linejoin:round;stroke-miterlimit:4;stroke-dasharray:none;stroke-dashoffset:0;stroke-opacity:1;marker:none;marker-start:none;marker-mid:none;marker-end:none;paint-order:normal"
     d="m 12,4.5 c -4.559925,0.00625 -8.5384389,3.0956321 -9.6728516,7.512207 0.6887771,2.653805 2.407735,4.819273 4.6582031,6.127929 l 0.9423829,-0.942382 c -2.0106331,-1.068179 -3.5866669,-2.940994 -4.2529296,-5.12207 0.1063075,-0.64864 0.4321295,-1.280896 0.7470702,-1.867676 1.485566,-2.6561545 4.4321356,-4.4140269 7.480469,-4.4213869 1.979909,-0.022467 3.986146,0.6559844 5.524902,1.9116212 l 0.915528,-0.9155274 c -1.742888,-1.4336578 -3.961895,-2.2811788 -6.342774,-2.2827149 z m 0.244141,2.5048827 c -0.166766,-0.00754 -0.333805,-0.00672 -0.500489,0.00244 -2.7561836,0.1419974 -4.8760885,2.4902828 -4.7363278,5.2465823 0.080391,1.575368 0.8961184,2.924684 2.0825195,3.781739 l 0.883789,-0.88379 a 3.75,3.75 0 0 1 -1.71875,-2.961425 3.75,3.75 0 0 1 3.5546873,-3.9355478 3.75,3.75 0 0 1 3.339844,1.71875 l 0.898437,-0.895996 c -0.862987,-1.1940661 -2.23457,-1.9957906 -3.80371,-2.072754 z m 7.358398,1.0180665 -0.905761,0.9057618 c 0.746575,0.8940175 1.299021,1.94822 1.650389,3.059082 -0.600468,2.022446 -1.958331,3.807973 -3.757323,4.91211 -1.461778,0.920439 -3.20421,1.361564 -4.899903,1.306152 -0.658137,-0.0087 -1.325676,-0.118325 -1.9702145,-0.297852 l -1.027832,1.025391 c 1.0416022,0.366188 2.1561235,0.565662 3.3081055,0.566406 4.559925,-0.0063 8.538439,-3.095633 9.672851,-7.512207 -0.389441,-1.50049 -1.113175,-2.8414046 -2.070312,-3.9648438 z m -7.609863,1.4770508 a 2.5,2.5 0 0 0 -0.119629,0.00244 2.5,2.5 0 0 0 -2.3706055,2.624511 2.5,2.5 0 0 0 1.3867185,2.109375 l 2.243653,-2.243652 a 1.25,1.25 0 0 1 -1.130371,-1.179199 1.25,1.25 0 0 1 0.727539,-1.2011716 2.5,2.5 0 0 0 -0.737305,-0.112305 z m 4.853515,1.279297 -1.101073,1.101074 a 3.75,3.75 0 0 1 -3.554688,3.864746 3.75,3.75 0 0 1 -0.310059,0 l -1.083984,1.083984 c 0.467587,0.11675 0.951244,0.189233 1.457519,0.163575 2.757155,-0.140698 4.878508,-2.489379 4.73877,-5.246582 v -0.0024 c -0.01694,-0.331353 -0.06844,-0.653276 -0.146485,-0.964356 z"
     id="path2314" />
  <path
     style="color:#000000;font-style:normal;font-variant:normal;font-weight:normal;font-stretch:normal;font-size:medium;line-height:normal;font-family:sans-serif;font-variant-ligatures:normal;font-variant-position:normal;font-variant-caps:normal;font-variant-numeric:normal;font-variant-alternates:normal;font-feature-settings:normal;text-indent:0;text-align:start;text-decoration:none;text-decoration-line:none;text-decoration-style:solid;text-decoration-color:#000000;letter-spacing:normal;word-spacing:normal;text-transform:none;writing-mode:lr-tb;direction:ltr;text-orientation:mixed;dominant-baseline:auto;baseline-shift:baseline;text-anchor:start;white-space:normal;shape-padding:0;clip-rule:nonzero;display:inline;overflow:visible;visibility:visible;opacity:1;isolation:auto;mix-blend-mode:normal;color-interpolation:sRGB;color-interpolation-filters:linearRGB;solid-color:#000000;solid-opacity:1;vector-effect:none;fill:#808080;fill-opacity:1;fill-rule:nonzero;stroke:none;stroke-width:1.5;stroke-linecap:butt;stroke-linejoin:miter;stroke-miterlimit:4;stroke-dasharray:none;stroke-dashoffset:0;stroke-opacity:1;color-rendering:auto;image-rendering:auto;shape-rendering:auto;text-rendering:auto;enable-background:accumulate"
     d="m 18.25,4.5 -15,15 h 2.5 l 15,-15 z"
     id="path1431-3"
     inkscape:connector-curvature="0"
     sodipodi:nodetypes="ccccc" />
</svg>
