<?xml version="1.0" encoding="UTF-8" standalone="no"?>
<svg
   height="24"
   width="24"
   version="1.1"
   id="svg12"
   sodipodi:docname="home-filled.svg"
   inkscape:version="1.1 (ce6663b3b7, 2021-05-25)"
   xmlns:inkscape="http://www.inkscape.org/namespaces/inkscape"
   xmlns:sodipodi="http://sodipodi.sourceforge.net/DTD/sodipodi-0.dtd"
   xmlns="http://www.w3.org/2000/svg"
   xmlns:svg="http://www.w3.org/2000/svg">
  <defs
     id="defs16" />
  <sodipodi:namedview
     id="namedview14"
     pagecolor="#ffffff"
     bordercolor="#666666"
     borderopacity="1.0"
     inkscape:pageshadow="2"
     inkscape:pageopacity="0.0"
     inkscape:pagecheckerboard="0"
     showgrid="false"
     inkscape:zoom="28"
     inkscape:cx="9.3749999"
     inkscape:cy="15.339286"
     inkscape:window-width="1920"
     inkscape:window-height="1016"
     inkscape:window-x="0"
     inkscape:window-y="27"
     inkscape:window-maximized="1"
     inkscape:current-layer="svg12"
     inkscape:snap-page="true" />
  <path
     id="path2"
     style="fill:#808080;stroke-width:1;marker:none"
     d="M 12 2.3652344 L 2.1835938 12.183594 L 3.0664062 13.066406 L 4.5 11.632812 L 4.5 20.75 L 12 20.75 L 12 19.5 L 12 13.232422 C 12.251312 13.172388 12.504737 13.121568 12.759766 13.080078 C 13.076016 13.026308 13.436406 13.001953 13.847656 13.001953 C 14.216406 13.001953 14.525781 13.054609 14.769531 13.162109 C 15.013281 13.262109 15.205859 13.408359 15.349609 13.599609 C 15.498357 13.783359 15.602109 14.006328 15.662109 14.267578 C 15.720859 14.530078 15.75 14.818516 15.75 15.134766 L 15.75 19.5 L 15.75 20.75 L 19.5 20.75 L 19.5 11.634766 L 20.933594 13.066406 L 21.816406 12.183594 L 12 2.3652344 z M 16.998047 5.75 L 19.5 8.25 L 19.5 5.75 L 16.998047 5.75 z " />
</svg>
