<?xml version="1.0" encoding="UTF-8" standalone="no"?>
<svg
   height="24"
   width="24"
   version="1.1"
   id="svg12"
   sodipodi:docname="home.svg"
   inkscape:version="1.1 (ce6663b3b7, 2021-05-25)"
   xmlns:inkscape="http://www.inkscape.org/namespaces/inkscape"
   xmlns:sodipodi="http://sodipodi.sourceforge.net/DTD/sodipodi-0.dtd"
   xmlns="http://www.w3.org/2000/svg"
   xmlns:svg="http://www.w3.org/2000/svg">
  <defs
     id="defs16" />
  <sodipodi:namedview
     id="namedview14"
     pagecolor="#ffffff"
     bordercolor="#666666"
     borderopacity="1.0"
     inkscape:pageshadow="2"
     inkscape:pageopacity="0.0"
     inkscape:pagecheckerboard="0"
     showgrid="false"
     inkscape:zoom="19.79899"
     inkscape:cx="10.126779"
     inkscape:cy="12.551145"
     inkscape:window-width="1920"
     inkscape:window-height="1016"
     inkscape:window-x="0"
     inkscape:window-y="27"
     inkscape:window-maximized="1"
     inkscape:current-layer="svg12"
     inkscape:snap-page="true" />
  <path
     id="path2"
     style="fill:#808080;stroke-width:1;marker:none"
     d="m 12,2.3662109 -9.8168945,9.8168951 0.883789,0.883789 1.4331055,-1.433106 v 9.116211 h 11.25 v -1.25 -4.365235 c 0,-0.31625 -0.02914,-0.604199 -0.08789,-0.866699 -0.06,-0.26125 -0.163752,-0.485195 -0.3125,-0.668945 -0.14375,-0.19125 -0.337305,-0.337012 -0.581055,-0.437012 -0.24375,-0.1075 -0.551661,-0.161132 -0.920411,-0.161132 -0.41125,0 -0.772617,0.02437 -1.088867,0.07813 a 10.5875,10.5875 0 0 0 -0.759277,0.153808 v 6.26709 h -6.2500005 v -9.116211 l 6.2500005,-6.25 6.252441,6.252441 -0.0025,10.36377 h 1.25 v -9.116211 l 1.433105,1.433106 0.88379,-0.883789 z m 4.997559,3.3837891 2.502441,2.5 v -2.5 z" />
</svg>
