<?xml version="1.0" encoding="UTF-8" standalone="no"?>
<svg
   height="24"
   id="svg7384"
   version="1.1"
   width="24"
   sodipodi:docname="hourglass.svg"
   inkscape:version="1.1 (ce6663b3b7, 2021-05-25)"
   xmlns:inkscape="http://www.inkscape.org/namespaces/inkscape"
   xmlns:sodipodi="http://sodipodi.sourceforge.net/DTD/sodipodi-0.dtd"
   xmlns="http://www.w3.org/2000/svg"
   xmlns:svg="http://www.w3.org/2000/svg"
   xmlns:rdf="http://www.w3.org/1999/02/22-rdf-syntax-ns#"
   xmlns:cc="http://creativecommons.org/ns#"
   xmlns:dc="http://purl.org/dc/elements/1.1/">
  <sodipodi:namedview
     id="namedview24"
     pagecolor="#ffffff"
     bordercolor="#666666"
     borderopacity="1.0"
     inkscape:pageshadow="2"
     inkscape:pageopacity="0.0"
     inkscape:pagecheckerboard="0"
     showgrid="false"
     inkscape:zoom="28"
     inkscape:cx="7.4821429"
     inkscape:cy="5.875"
     inkscape:window-width="1920"
     inkscape:window-height="1016"
     inkscape:window-x="0"
     inkscape:window-y="27"
     inkscape:window-maximized="1"
     inkscape:current-layer="svg7384" />
  <metadata
     id="metadata20854">
    <rdf:RDF>
      <cc:Work
         rdf:about="">
        <dc:format>image/svg+xml</dc:format>
        <dc:type
           rdf:resource="http://purl.org/dc/dcmitype/StillImage" />
      </cc:Work>
    </rdf:RDF>
  </metadata>
  <defs
     id="defs7386">
    <linearGradient
       id="linearGradient5606"
       inkscape:swatch="solid">
      <stop
         id="stop5608"
         offset="0"
         style="stop-color:#000000;stop-opacity:1;" />
    </linearGradient>
    <linearGradient
       id="linearGradient4526"
       inkscape:swatch="solid">
      <stop
         id="stop4528"
         offset="0"
         style="stop-color:#ffffff;stop-opacity:1;" />
    </linearGradient>
    <linearGradient
       id="linearGradient3600-4"
       inkscape:swatch="gradient">
      <stop
         id="stop3602-7"
         offset="0"
         style="stop-color:#f4f4f4;stop-opacity:1" />
      <stop
         id="stop3604-6"
         offset="1"
         style="stop-color:#dbdbdb;stop-opacity:1" />
    </linearGradient>
  </defs>
  <path
     id="path4876-2"
     style="fill:#808080;fill-opacity:1;stroke:none;stroke-width:1;stroke-linejoin:bevel;stroke-miterlimit:4;stroke-dasharray:none;stroke-dashoffset:0;stroke-opacity:1"
     d="m 5.75,2 c -0.34625,0 -0.625,0.27875 -0.625,0.625 0,0.34625 0.27875,0.625 0.625,0.625 h 1.1132813 c -0.3052692,0.5076091 -0.4881057,1.1327015 -0.4882813,1.8115235 v 0.6884765 l 3.5717774,6.25 -3.5717774,6.25 v 0.688476 c 1.756e-4,0.678823 0.1830121,1.303915 0.4882813,1.811524 h -1.1132813 c -0.34625,0 -0.625,0.27875 -0.625,0.625 0,0.34625 0.27875,0.625 0.625,0.625 h 3.125 6.25 3.125 c 0.34625,0 0.625,-0.27875 0.625,-0.625 0,-0.34625 -0.27875,-0.625 -0.625,-0.625 h -1.113281 c 0.305269,-0.507609 0.488105,-1.132701 0.488281,-1.811524 v -0.688476 l -3.549805,-6.25 3.549805,-6.25 v -0.6884765 c -1.76e-4,-0.678822 -0.183012,-1.3039144 -0.488281,-1.8115235 h 1.113281 c 0.34625,0 0.625,-0.27875 0.625,-0.625 0,-0.34625 -0.27875,-0.625 -0.625,-0.625 h -3.125 -6.25 z m 5.656738,1.2646485 c 1.709488,-7.5e-5 2.173766,0.017469 3.876953,0.058594 0.846025,0.2125499 1.084914,1.2724484 1.040039,2.0458984 -1.251549,2.211925 -3.69873,6.6308591 -3.69873,6.6308591 0,0 2.668868,4.35391 3.69873,6.63086 0.04488,0.773449 -0.194014,1.833347 -1.040039,2.045897 -3.406375,0.08213 -3.107646,0.0669 -6.474609,0.01465 -0.9080625,-0.16305 -1.1918515,-1.266126 -1.1572265,-2.062988 1.2038125,-2.2417 3.7231445,-6.628418 3.7231445,-6.628418 0,0 -2.678207,-4.3479425 -3.7231445,-6.6284175 -0.034625,-0.7968625 0.249164,-1.8999382 1.1572265,-2.0629882 1.683475,-0.026125 0.8881688,-0.04382 2.597656,-0.043945 z m -1.594238,3.7353515 2.182617,4.296875 2.192383,-4.296875 z m 2.1875,6.25 -0.493164,3.781739 c -1.514675,0.196612 -2.6273281,1.242036 -2.6269533,2.468261 h 6.2500003 c 0.0013,-0.04237 0.0013,-0.08462 0,-0.126952 -0.07687,-1.183489 -1.183101,-2.161222 -2.648926,-2.341309 z" />
</svg>
