<?xml version="1.0" encoding="UTF-8" standalone="no"?>
<svg
   height="24"
   id="svg7384"
   version="1.1"
   width="24"
   sodipodi:docname="hourglass-filled.svg"
   inkscape:version="1.1 (ce6663b3b7, 2021-05-25)"
   xmlns:inkscape="http://www.inkscape.org/namespaces/inkscape"
   xmlns:sodipodi="http://sodipodi.sourceforge.net/DTD/sodipodi-0.dtd"
   xmlns="http://www.w3.org/2000/svg"
   xmlns:svg="http://www.w3.org/2000/svg"
   xmlns:rdf="http://www.w3.org/1999/02/22-rdf-syntax-ns#"
   xmlns:cc="http://creativecommons.org/ns#"
   xmlns:dc="http://purl.org/dc/elements/1.1/">
  <sodipodi:namedview
     id="namedview24"
     pagecolor="#ffffff"
     bordercolor="#666666"
     borderopacity="1.0"
     inkscape:pageshadow="2"
     inkscape:pageopacity="0.0"
     inkscape:pagecheckerboard="0"
     showgrid="false"
     inkscape:zoom="28"
     inkscape:cx="7.2678571"
     inkscape:cy="10.946429"
     inkscape:window-width="1920"
     inkscape:window-height="1016"
     inkscape:window-x="0"
     inkscape:window-y="27"
     inkscape:window-maximized="1"
     inkscape:current-layer="svg7384" />
  <metadata
     id="metadata20854">
    <rdf:RDF>
      <cc:Work
         rdf:about="">
        <dc:format>image/svg+xml</dc:format>
        <dc:type
           rdf:resource="http://purl.org/dc/dcmitype/StillImage" />
      </cc:Work>
    </rdf:RDF>
  </metadata>
  <defs
     id="defs7386">
    <linearGradient
       id="linearGradient5606"
       inkscape:swatch="solid">
      <stop
         id="stop5608"
         offset="0"
         style="stop-color:#000000;stop-opacity:1;" />
    </linearGradient>
    <linearGradient
       id="linearGradient4526"
       inkscape:swatch="solid">
      <stop
         id="stop4528"
         offset="0"
         style="stop-color:#ffffff;stop-opacity:1;" />
    </linearGradient>
    <linearGradient
       id="linearGradient3600-4"
       inkscape:swatch="gradient">
      <stop
         id="stop3602-7"
         offset="0"
         style="stop-color:#f4f4f4;stop-opacity:1" />
      <stop
         id="stop3604-6"
         offset="1"
         style="stop-color:#dbdbdb;stop-opacity:1" />
    </linearGradient>
  </defs>
  <path
     id="path4876-2"
     style="fill:#808080;fill-opacity:1;stroke:none;stroke-width:1;stroke-linejoin:bevel;stroke-miterlimit:4;stroke-dasharray:none;stroke-dashoffset:0;stroke-opacity:1"
     d="M 5.75 2 C 5.40375 2 5.125 2.27875 5.125 2.625 C 5.125 2.97125 5.40375 3.25 5.75 3.25 L 6.8632812 3.25 C 6.5580121 3.7576091 6.3751756 4.383678 6.375 5.0625 L 6.375 5.75 L 9.9472656 12 L 6.375 18.25 L 6.375 18.9375 C 6.3751756 19.616323 6.5580121 20.242391 6.8632812 20.75 L 5.75 20.75 C 5.40375 20.75 5.125 21.02875 5.125 21.375 C 5.125 21.72125 5.40375 22 5.75 22 L 8.875 22 L 15.125 22 L 18.25 22 C 18.59625 22 18.875 21.72125 18.875 21.375 C 18.875 21.02875 18.59625 20.75 18.25 20.75 L 17.136719 20.75 C 17.441988 20.242391 17.624824 19.616323 17.625 18.9375 L 17.625 18.25 L 14.074219 12 L 17.625 5.75 L 17.625 5.0625 C 17.624824 4.383678 17.441988 3.7576091 17.136719 3.25 L 18.25 3.25 C 18.59625 3.25 18.875 2.97125 18.875 2.625 C 18.875 2.27875 18.59625 2 18.25 2 L 15.125 2 L 8.875 2 L 5.75 2 z M 9.8125 7 L 14.1875 7 L 11.994141 11.296875 L 9.8125 7 z M 12 13.25 L 12.480469 17.03125 C 13.946294 17.211337 15.053989 18.189558 15.130859 19.373047 C 15.132159 19.415379 15.132159 19.45763 15.130859 19.5 L 8.8789062 19.5 C 8.8785315 18.273775 9.9931375 17.227862 11.507812 17.03125 L 12 13.25 z " />
</svg>
