<?xml version="1.0" encoding="UTF-8" standalone="no"?>
<svg
   height="16"
   id="svg7384"
   version="1.1"
   width="16"
   sodipodi:docname="hourglass.svg"
   inkscape:version="1.1 (ce6663b3b7, 2021-05-25)"
   xmlns:inkscape="http://www.inkscape.org/namespaces/inkscape"
   xmlns:sodipodi="http://sodipodi.sourceforge.net/DTD/sodipodi-0.dtd"
   xmlns="http://www.w3.org/2000/svg"
   xmlns:svg="http://www.w3.org/2000/svg"
   xmlns:rdf="http://www.w3.org/1999/02/22-rdf-syntax-ns#"
   xmlns:cc="http://creativecommons.org/ns#"
   xmlns:dc="http://purl.org/dc/elements/1.1/">
  <sodipodi:namedview
     id="namedview24"
     pagecolor="#ffffff"
     bordercolor="#666666"
     borderopacity="1.0"
     inkscape:pageshadow="2"
     inkscape:pageopacity="0.0"
     inkscape:pagecheckerboard="0"
     showgrid="false"
     inkscape:zoom="56"
     inkscape:cx="7.9910714"
     inkscape:cy="8.0089286"
     inkscape:window-width="1920"
     inkscape:window-height="1016"
     inkscape:window-x="0"
     inkscape:window-y="27"
     inkscape:window-maximized="1"
     inkscape:current-layer="svg7384" />
  <metadata
     id="metadata20854">
    <rdf:RDF>
      <cc:Work
         rdf:about="">
        <dc:format>image/svg+xml</dc:format>
        <dc:type
           rdf:resource="http://purl.org/dc/dcmitype/StillImage" />
      </cc:Work>
    </rdf:RDF>
  </metadata>
  <defs
     id="defs7386">
    <linearGradient
       id="linearGradient5606"
       inkscape:swatch="solid">
      <stop
         id="stop5608"
         offset="0"
         style="stop-color:#000000;stop-opacity:1;" />
    </linearGradient>
    <linearGradient
       id="linearGradient4526"
       inkscape:swatch="solid">
      <stop
         id="stop4528"
         offset="0"
         style="stop-color:#ffffff;stop-opacity:1;" />
    </linearGradient>
    <linearGradient
       id="linearGradient3600-4"
       inkscape:swatch="gradient">
      <stop
         id="stop3602-7"
         offset="0"
         style="stop-color:#f4f4f4;stop-opacity:1" />
      <stop
         id="stop3604-6"
         offset="1"
         style="stop-color:#dbdbdb;stop-opacity:1" />
    </linearGradient>
  </defs>
  <path
     id="path4876-2"
     style="fill:#808080;fill-opacity:1;stroke:none;stroke-width:1;stroke-linejoin:bevel;stroke-miterlimit:4;stroke-dasharray:none;stroke-dashoffset:0;stroke-opacity:1"
     d="M 2.5 0 C 2.223 0 2 0.223 2 0.5 C 2 0.777 2.223 1 2.5 1 L 3.390625 1 C 3.1464097 1.4060873 3.0001405 1.9061612 3 2.4492188 L 3 3 L 5.8574219 8 L 3 13 L 3 13.550781 C 3.0001405 14.093839 3.1464097 14.593913 3.390625 15 L 2.5 15 C 2.223 15 2 15.223 2 15.5 C 2 15.777 2.223 16 2.5 16 L 5 16 L 10 16 L 12.5 16 C 12.777 16 13 15.777 13 15.5 C 13 15.223 12.777 15 12.5 15 L 11.609375 15 C 11.85359 14.593913 11.999859 14.093839 12 13.550781 L 12 13 L 9.1601562 8 L 12 3 L 12 2.4492188 C 11.999859 1.9061612 11.85359 1.4060873 11.609375 1 L 12.5 1 C 12.777 1 13 0.777 13 0.5 C 13 0.223 12.777 0 12.5 0 L 10 0 L 5 0 L 2.5 0 z M 7.0253906 1.0117188 C 8.3929806 1.0116588 8.7644031 1.0256937 10.126953 1.0585938 C 10.803773 1.2286337 10.994884 2.0765525 10.958984 2.6953125 C 9.9577444 4.4648525 8 8 8 8 C 8 8 10.135094 11.483128 10.958984 13.304688 C 10.994884 13.923447 10.803773 14.771366 10.126953 14.941406 C 7.4018531 15.007106 7.6408356 14.994925 4.9472656 14.953125 C 4.2208156 14.822685 3.9937844 13.940224 4.0214844 13.302734 C 4.9845344 11.509374 7 8 7 8 C 7 8 4.8574344 4.5216456 4.0214844 2.6972656 C 3.9937844 2.0597756 4.2208156 1.177315 4.9472656 1.046875 C 6.2940456 1.025975 5.6578006 1.0118188 7.0253906 1.0117188 z M 5.75 4 L 7.4960938 7.4375 L 9.25 4 L 5.75 4 z M 7.5 9 L 7.1054688 12.025391 C 5.8937288 12.182681 5.0036063 13.01902 5.0039062 14 L 10.003906 14 C 10.004906 13.9661 10.004906 13.932297 10.003906 13.898438 C 9.9424062 12.951647 9.0574256 12.169461 7.8847656 12.025391 L 7.5 9 z " />
</svg>
