<?xml version="1.0" encoding="UTF-8" standalone="no"?>
<svg
   height="24"
   id="svg7384"
   version="1.1"
   width="24"
   sodipodi:docname="image-filled.svg"
   inkscape:version="1.1 (ce6663b3b7, 2021-05-25)"
   xmlns:inkscape="http://www.inkscape.org/namespaces/inkscape"
   xmlns:sodipodi="http://sodipodi.sourceforge.net/DTD/sodipodi-0.dtd"
   xmlns="http://www.w3.org/2000/svg"
   xmlns:svg="http://www.w3.org/2000/svg"
   xmlns:rdf="http://www.w3.org/1999/02/22-rdf-syntax-ns#"
   xmlns:cc="http://creativecommons.org/ns#"
   xmlns:dc="http://purl.org/dc/elements/1.1/">
  <sodipodi:namedview
     id="namedview23"
     pagecolor="#ffffff"
     bordercolor="#666666"
     borderopacity="1.0"
     inkscape:pageshadow="2"
     inkscape:pageopacity="0.0"
     inkscape:pagecheckerboard="0"
     showgrid="true"
     inkscape:zoom="14"
     inkscape:cx="13.321429"
     inkscape:cy="6.75"
     inkscape:window-width="1920"
     inkscape:window-height="1016"
     inkscape:window-x="0"
     inkscape:window-y="27"
     inkscape:window-maximized="1"
     inkscape:current-layer="svg7384" />
  <metadata
     id="metadata20854">
    <rdf:RDF>
      <cc:Work
         rdf:about="">
        <dc:format>image/svg+xml</dc:format>
        <dc:type
           rdf:resource="http://purl.org/dc/dcmitype/StillImage" />
      </cc:Work>
    </rdf:RDF>
  </metadata>
  <defs
     id="defs7386">
    <linearGradient
       id="linearGradient5606"
       inkscape:swatch="solid">
      <stop
         id="stop5608"
         offset="0"
         style="stop-color:#000000;stop-opacity:1;" />
    </linearGradient>
    <linearGradient
       id="linearGradient4526"
       inkscape:swatch="solid">
      <stop
         id="stop4528"
         offset="0"
         style="stop-color:#ffffff;stop-opacity:1;" />
    </linearGradient>
    <linearGradient
       id="linearGradient3600-4"
       inkscape:swatch="gradient">
      <stop
         id="stop3602-7"
         offset="0"
         style="stop-color:#f4f4f4;stop-opacity:1" />
      <stop
         id="stop3604-6"
         offset="1"
         style="stop-color:#dbdbdb;stop-opacity:1" />
    </linearGradient>
  </defs>
  <path
     id="path3446"
     style="color:#000000;fill:#808080;fill-opacity:1;-inkscape-stroke:none"
     d="m 6,3 c -1.0416656,0 -1.9983046,0.1146077 -2.7578125,0.5703125 -0.7595079,0.4557047 -1.2421875,1.3046886 -1.2421875,2.4296875 v 12 c 0,1.124999 0.4826796,1.973983 1.2421875,2.429688 0.7595079,0.455705 1.7161469,0.570312 2.7578125,0.570312 h 12 c 1.041666,0 1.998305,-0.114608 2.757812,-0.570312 0.759509,-0.455705 1.242188,-1.304689 1.242188,-2.429688 v -12 c 0,-1.1249989 -0.482679,-1.9739827 -1.242188,-2.4296875 -0.759506,-0.4557048 -1.716146,-0.5703125 -2.757812,-0.5703125 z m 11.5,4 c 0.828427,0 1.5,0.6715729 1.5,1.5 0,0.8284271 -0.671573,1.5 -1.5,1.5 -0.828427,0 -1.5,-0.6715729 -1.5,-1.5 0,-0.8284271 0.671573,-1.5 1.5,-1.5 z m -8,3 2,3.464844 1,-1.464844 2.886719,5 h -9.824219 z"
     sodipodi:nodetypes="sssssssssssssssssscccccc" />
  <g
     id="layer9"
     label="status"
     style="display:inline;fill:#808080;fill-opacity:1;stroke-width:0.809017"
     transform="matrix(1.2360674,0,0,1.2360674,-681.5449,257.97741)" />
  <g
     id="layer2"
     style="display:inline;fill:#808080;fill-opacity:1;stroke-width:0.809017"
     transform="matrix(1.2360674,0,0,1.2360674,-383.65241,-195.65932)" />
  <g
     id="g1812"
     style="display:inline;fill:#808080;fill-opacity:1;stroke-width:0.809017"
     transform="matrix(1.2360674,0,0,1.2360674,-383.65241,-195.65932)" />
  <g
     id="g6217"
     style="display:inline;fill:#808080;fill-opacity:1;stroke-width:0.809017"
     transform="matrix(1.2360674,0,0,1.2360674,-383.65241,-195.65932)" />
  <g
     id="layer3"
     style="display:inline;fill:#808080;fill-opacity:1;stroke-width:0.809017"
     transform="matrix(1.2360674,0,0,1.2360674,-383.65241,-195.65932)" />
  <g
     id="g1833"
     style="display:inline;fill:#808080;fill-opacity:1;stroke-width:0.809017"
     transform="matrix(1.2360674,0,0,1.2360674,-383.65241,-195.65932)" />
  <g
     id="layer1"
     style="display:inline;fill:#808080;fill-opacity:1;stroke-width:0.809017"
     transform="matrix(1.2360674,0,0,1.2360674,-383.65241,-195.65932)" />
</svg>
