<?xml version="1.0" encoding="UTF-8" standalone="no"?>
<svg
   height="24"
   width="24"
   version="1.1"
   id="svg8"
   sodipodi:docname="information-filled.svg"
   inkscape:version="1.1 (ce6663b3b7, 2021-05-25)"
   xmlns:inkscape="http://www.inkscape.org/namespaces/inkscape"
   xmlns:sodipodi="http://sodipodi.sourceforge.net/DTD/sodipodi-0.dtd"
   xmlns="http://www.w3.org/2000/svg"
   xmlns:svg="http://www.w3.org/2000/svg">
  <defs
     id="defs12" />
  <sodipodi:namedview
     id="namedview10"
     pagecolor="#ffffff"
     bordercolor="#666666"
     borderopacity="1.0"
     inkscape:pageshadow="2"
     inkscape:pageopacity="0.0"
     inkscape:pagecheckerboard="0"
     showgrid="false"
     width="24px"
     inkscape:zoom="14"
     inkscape:cx="4.0357143"
     inkscape:cy="10.107143"
     inkscape:window-width="1920"
     inkscape:window-height="1016"
     inkscape:window-x="0"
     inkscape:window-y="27"
     inkscape:window-maximized="1"
     inkscape:current-layer="svg8" />
  <path
     id="path2"
     style="fill:#808080;stroke-width:1"
     d="M 12 2 C 6.4771525 2 2 6.4771525 2 12 C 2 17.522847 6.4771525 22 12 22 C 17.522847 22 22 17.522847 22 12 C 22 6.4771525 17.522847 2 12 2 z M 12 6.6875 C 12.4825 6.6875 12.862578 6.8430469 13.142578 7.1542969 A 1.5875 1.5875 0 0 1 13.5625 8.25 A 1.5875 1.5875 0 0 1 13.142578 9.3457031 C 12.862578 9.6569531 12.4825 9.8125 12 9.8125 C 11.5175 9.8125 11.137422 9.6569531 10.857422 9.3457031 C 10.577422 9.0344531 10.4375 8.67 10.4375 8.25 A 1.5875 1.5875 0 0 1 10.857422 7.1542969 C 11.137422 6.8430469 11.5175 6.6875 12 6.6875 z M 10.75 10.75 L 13.25 10.75 L 13.25 17 L 10.75 17 L 10.75 10.75 z " />
</svg>
