<?xml version="1.0" encoding="UTF-8" standalone="no"?>
<svg
   height="24"
   width="24"
   version="1.1"
   id="svg4"
   sodipodi:docname="key-filled.svg"
   inkscape:version="1.1 (ce6663b3b7, 2021-05-25)"
   xmlns:inkscape="http://www.inkscape.org/namespaces/inkscape"
   xmlns:sodipodi="http://sodipodi.sourceforge.net/DTD/sodipodi-0.dtd"
   xmlns="http://www.w3.org/2000/svg"
   xmlns:svg="http://www.w3.org/2000/svg">
  <defs
     id="defs8" />
  <sodipodi:namedview
     id="namedview6"
     pagecolor="#ffffff"
     bordercolor="#666666"
     borderopacity="1.0"
     inkscape:pageshadow="2"
     inkscape:pageopacity="0.0"
     inkscape:pagecheckerboard="0"
     showgrid="false"
     inkscape:snap-page="true"
     inkscape:zoom="28"
     inkscape:cx="12.517857"
     inkscape:cy="14.125"
     inkscape:window-width="1920"
     inkscape:window-height="1016"
     inkscape:window-x="0"
     inkscape:window-y="27"
     inkscape:window-maximized="1"
     inkscape:current-layer="svg4" />
  <path
     id="path2"
     style="line-height:normal;font-variant-ligatures:normal;font-variant-position:normal;font-variant-caps:normal;font-variant-numeric:normal;font-variant-alternates:normal;font-feature-settings:normal;text-indent:0;text-align:start;text-decoration-line:none;text-decoration-style:solid;text-decoration-color:#000000;text-transform:none;text-orientation:mixed;shape-padding:0;isolation:auto;mix-blend-mode:normal;stroke-width:1;marker:none;fill:#808080;fill-opacity:1"
     d="M 5.0566406 5.75 C 4.4066406 5.75 3.8807812 5.8095313 3.4257812 5.9882812 C 2.9707812 6.1682812 2.5992188 6.5019531 2.3867188 6.9082031 C 1.9617187 7.7182031 2.0125 8.6590625 2 9.9453125 L 2 14.054688 C 2.015 15.340938 1.9617188 16.283047 2.3867188 17.091797 C 2.5992187 17.496797 2.9707812 17.831719 3.4257812 18.011719 C 3.8807813 18.190469 4.4066406 18.25 5.0566406 18.25 L 8.9453125 18.25 C 9.5953125 18.25 10.121172 18.190469 10.576172 18.011719 C 11.031172 17.831719 11.400781 17.498047 11.613281 17.091797 C 11.983281 16.388047 11.985234 15.541797 11.990234 14.498047 L 14.421875 14.492188 L 15.125 13.875 L 15.75 14.5 L 16.375 13.875 L 17 14.5 L 17.625 13.875 L 18.875 15.125 L 22 12 L 19.5 9.5 L 11.990234 9.5019531 C 11.990234 8.4582031 11.977734 7.6119531 11.615234 6.9082031 A 2.00875 2.00875 0 0 0 10.574219 5.9902344 C 10.120469 5.8102344 9.5953125 5.75 8.9453125 5.75 L 5.0566406 5.75 z M 5.75 10.75 A 1.25 1.25 0 0 1 7 12 A 1.25 1.25 0 0 1 5.75 13.25 A 1.25 1.25 0 0 1 4.5 12 A 1.25 1.25 0 0 1 5.75 10.75 z " />
</svg>
