<?xml version="1.0" encoding="UTF-8" standalone="no"?>
<svg
   height="24"
   width="24"
   version="1.1"
   id="svg4"
   sodipodi:docname="key.svg"
   inkscape:version="1.1 (ce6663b3b7, 2021-05-25)"
   xmlns:inkscape="http://www.inkscape.org/namespaces/inkscape"
   xmlns:sodipodi="http://sodipodi.sourceforge.net/DTD/sodipodi-0.dtd"
   xmlns="http://www.w3.org/2000/svg"
   xmlns:svg="http://www.w3.org/2000/svg">
  <defs
     id="defs8" />
  <sodipodi:namedview
     id="namedview6"
     pagecolor="#ffffff"
     bordercolor="#666666"
     borderopacity="1.0"
     inkscape:pageshadow="2"
     inkscape:pageopacity="0.0"
     inkscape:pagecheckerboard="0"
     showgrid="false"
     inkscape:snap-page="true"
     inkscape:zoom="28"
     inkscape:cx="5.5178571"
     inkscape:cy="5.7678571"
     inkscape:window-width="1920"
     inkscape:window-height="1016"
     inkscape:window-x="0"
     inkscape:window-y="27"
     inkscape:window-maximized="1"
     inkscape:current-layer="svg4" />
  <path
     d="m 5.05625,5.75 c -0.65,0 -1.175,0.06 -1.63,0.23875 -0.455,0.18 -0.8275,0.5125 -1.04,0.91875 -0.425,0.81 -0.37375,1.7525 -0.38625,3.03875 v 4.1075 c 0.015,1.28625 -0.03875,2.23 0.38625,3.03875 0.2125,0.405 0.585,0.73875 1.04,0.91875 0.455,0.17875 0.98,0.23875 1.63,0.23875 h 3.89 c 0.65,0 1.175,-0.06 1.63,-0.23875 0.455,-0.18 0.825,-0.5125 1.0375,-0.91875 0.37,-0.70375 0.37125,-1.55125 0.37625,-2.595 l 2.4325,-0.005 0.7025,-0.6175 0.625,0.625 0.625,-0.625 0.625,0.625 0.625,-0.625 1.25,1.25 3.125,-3.125 -2.5,-2.5 -7.51,0.0025 c 0,-1.04375 -0.0125,-1.89125 -0.375,-2.595 a 2.00875,2.00875 0 0 0 -1.04125,-0.9175 c -0.45375,-0.18 -0.9775,-0.24 -1.6275,-0.24 z m 0,1.25 h 3.89 c 0.56375,0 0.945,0.065 1.16875,0.15375 0.225,0.0875 0.305,0.1675 0.39375,0.335 0.175,0.335 0.2275,1.18 0.24125,2.4725 v 0.79125 l 8.2325,-0.0025 1.25,1.25 -1.3575,1.3575 -1.25,-1.25 -0.625,0.625 -0.625,-0.625 -0.625,0.625 -0.56875,-0.56875 -1.23,1.07875 -3.20125,0.0075 v 0.7875 c -0.01375,1.29375 -0.06625,2.13875 -0.24125,2.475 -0.0875,0.16625 -0.16875,0.245 -0.39375,0.33375 -0.225,0.0875 -0.605,0.15375 -1.16875,0.15375 h -3.89 c -0.56375,0 -0.9475,-0.065 -1.17125,-0.15375 -0.225,-0.08875 -0.3025,-0.1675 -0.39125,-0.335 -0.175,-0.33375 -0.22875,-1.17875 -0.24375,-2.465 v -4.0925 c 0.015,-1.28625 0.06875,-2.13125 0.24375,-2.46625 0.0875,-0.1675 0.16625,-0.245 0.39125,-0.33375 0.225,-0.08875 0.6075,-0.15375 1.17125,-0.15375 z m 0.69375,3.75 a 1.25,1.25 0 0 0 -1.25,1.25 1.25,1.25 0 0 0 1.25,1.25 1.25,1.25 0 0 0 1.25,-1.25 1.25,1.25 0 0 0 -1.25,-1.25 z"
     style="line-height:normal;font-variant-ligatures:normal;font-variant-position:normal;font-variant-caps:normal;font-variant-numeric:normal;font-variant-alternates:normal;font-feature-settings:normal;text-indent:0;text-align:start;text-decoration-line:none;text-decoration-style:solid;text-decoration-color:#000000;text-transform:none;text-orientation:mixed;shape-padding:0;isolation:auto;mix-blend-mode:normal;stroke-width:1;marker:none"
     color="#000000"
     font-weight="400"
     font-family="sans-serif"
     white-space="normal"
     overflow="visible"
     fill="#808080"
     id="path2" />
</svg>
