<?xml version="1.0" encoding="UTF-8" standalone="no"?>
<svg
   height="24"
   width="24"
   version="1.1"
   id="svg10"
   sodipodi:docname="multimedia-player.svg"
   inkscape:version="1.1 (ce6663b3b7, 2021-05-25)"
   xmlns:inkscape="http://www.inkscape.org/namespaces/inkscape"
   xmlns:sodipodi="http://sodipodi.sourceforge.net/DTD/sodipodi-0.dtd"
   xmlns="http://www.w3.org/2000/svg"
   xmlns:svg="http://www.w3.org/2000/svg">
  <defs
     id="defs14" />
  <sodipodi:namedview
     id="namedview12"
     pagecolor="#ffffff"
     bordercolor="#666666"
     borderopacity="1.0"
     inkscape:pageshadow="2"
     inkscape:pageopacity="0.0"
     inkscape:pagecheckerboard="0"
     showgrid="false"
     inkscape:snap-page="true"
     inkscape:zoom="39.59798"
     inkscape:cx="7.9170706"
     inkscape:cy="7.4877557"
     inkscape:window-width="1920"
     inkscape:window-height="1016"
     inkscape:window-x="0"
     inkscape:window-y="27"
     inkscape:window-maximized="1"
     inkscape:current-layer="svg10" />
  <g
     color="#000000"
     font-weight="400"
     font-family="sans-serif"
     white-space="normal"
     fill="#808080"
     id="g8"
     transform="matrix(1.25,0,0,1.25,3.25,1.375)"
     style="stroke-width:0.8">
    <path
       d="m 4.5,1 c -0.542,0 -0.984,0.064 -1.36,0.23 a 1.72,1.72 0 0 0 -0.837,0.797 c -0.34,0.68 -0.303,1.473 -0.303,2.473 v 8 c 0,1 -0.037,1.794 0.303,2.473 0.17,0.34 0.462,0.63 0.838,0.797 0.375,0.166 0.817,0.23 1.359,0.23 h 5 c 0.542,0 0.984,-0.064 1.36,-0.23 a 1.72,1.72 0 0 0 0.837,-0.797 c 0.34,-0.68 0.303,-1.473 0.303,-2.473 v -8 c 0,-1 0.037,-1.794 -0.303,-2.473 a 1.72,1.72 0 0 0 -0.838,-0.796 c -0.375,-0.167 -0.817,-0.231 -1.359,-0.231 z m 0,1 h 5 c 0.458,0 0.766,0.061 0.953,0.145 0.187,0.083 0.27,0.167 0.35,0.328 0.16,0.32 0.197,1.027 0.197,2.027 v 8 c 0,1 -0.037,1.706 -0.197,2.027 a 0.615,0.615 0 0 1 -0.35,0.329 c -0.187,0.083 -0.495,0.144 -0.953,0.144 h -5 c -0.458,0 -0.766,-0.061 -0.953,-0.144 a 0.615,0.615 0 0 1 -0.35,-0.329 c -0.16,-0.32 -0.197,-1.027 -0.197,-2.027 v -8 c 0,-1 0.037,-1.706 0.197,-2.027 a 0.615,0.615 0 0 1 0.35,-0.328 c 0.187,-0.085 0.495,-0.145 0.953,-0.145 z"
       style="line-height:normal;font-variant-ligatures:normal;font-variant-position:normal;font-variant-caps:normal;font-variant-numeric:normal;font-variant-alternates:normal;font-feature-settings:normal;text-indent:0;text-align:start;text-decoration-line:none;text-decoration-style:solid;text-decoration-color:#000000;text-transform:none;text-orientation:mixed;shape-padding:0;isolation:auto;mix-blend-mode:normal;stroke-width:0.64;marker:none"
       overflow="visible"
       id="path2" />
    <path
       d="m 4,3 v 4 h 6 v -4 z"
       style="line-height:normal;font-variant-ligatures:normal;font-variant-position:normal;font-variant-caps:normal;font-variant-numeric:normal;font-variant-alternates:normal;font-feature-settings:normal;text-indent:0;text-align:start;text-decoration-line:none;text-decoration-style:solid;text-decoration-color:#000000;text-transform:none;text-orientation:mixed;shape-padding:0;isolation:auto;mix-blend-mode:normal;stroke-width:0.64"
       overflow="visible"
       fill-rule="evenodd"
       id="path4" />
    <path
       d="m 7,8 c -1.65,0 -3,1.35 -3,3 0,1.651 1.35,3 3,3 1.651,0 3,-1.349 3,-3 0,-1.65 -1.349,-3 -3,-3 z m 0,1 c 1.11,0 2,0.89 2,2 0,1.11 -0.89,2 -2,2 -1.11,0 -2,-0.89 -2,-2 0,-1.11 0.89,-2 2,-2 z"
       style="line-height:normal;font-variant-ligatures:normal;font-variant-position:normal;font-variant-caps:normal;font-variant-numeric:normal;font-variant-alternates:normal;font-feature-settings:normal;text-indent:0;text-align:start;text-decoration-line:none;text-decoration-style:solid;text-decoration-color:#000000;text-transform:none;text-orientation:mixed;shape-padding:0;isolation:auto;mix-blend-mode:normal;stroke-width:0.64"
       overflow="visible"
       id="path6" />
  </g>
</svg>
