<?xml version="1.0" encoding="UTF-8" standalone="no"?>
<svg viewBox="0 1 24 24" height="24" width="24" version="1.1" id="svg10" sodipodi:docname="multimedia-player-filled.svg" inkscape:version="1.1 (ce6663b3b7, 2021-05-25)"
   xmlns:inkscape="http://www.inkscape.org/namespaces/inkscape"
   xmlns:sodipodi="http://sodipodi.sourceforge.net/DTD/sodipodi-0.dtd"
   xmlns="http://www.w3.org/2000/svg"
   xmlns:svg="http://www.w3.org/2000/svg">
   <defs id="defs14" />
   <sodipodi:namedview id="namedview12" pagecolor="#ffffff" bordercolor="#666666" borderopacity="1.0" inkscape:pageshadow="2" inkscape:pageopacity="0.0" inkscape:pagecheckerboard="0" showgrid="false" inkscape:snap-page="true" inkscape:zoom="19.79899" inkscape:cx="4.2678945" inkscape:cy="10.884394" inkscape:window-width="1920" inkscape:window-height="1016" inkscape:window-x="0" inkscape:window-y="27" inkscape:window-maximized="1" inkscape:current-layer="svg10" />
   <path id="rect1000" style="fill:#808080;fill-opacity:1;fill-rule:evenodd;stroke-width:2;stroke-linecap:square;stroke-linejoin:round" d="M 8.7871094 3 C 8.1101636 3.00559 7.5365074 3.048153 7.0273438 3.3027344 C 6.6879015 3.4724556 6.3973383 3.765168 6.2304688 4.140625 C 6.063599 4.516082 6 4.9583339 6 5.5 L 6 18.5 C 6 19.041666 6.0635989 19.483918 6.2304688 19.859375 C 6.3973384 20.234832 6.6879014 20.527544 7.0273438 20.697266 C 7.7062285 21.036708 8.500001 21 9.5 21 L 14.5 21 C 15.499999 21 16.293771 21.03671 16.972656 20.697266 C 17.312099 20.527544 17.602661 20.234832 17.769531 19.859375 C 17.936401 19.483918 18 19.041666 18 18.5 L 18 5.5 C 18 4.9583339 17.9364 4.516082 17.769531 4.140625 C 17.602661 3.765168 17.312099 3.4724556 16.972656 3.3027344 C 16.293771 2.963292 15.499999 3 14.5 3 L 9.5 3 C 9.2500002 3 9.012758 2.99814 8.7871094 3 z M 9 6 L 15 6 L 15 10 L 9 10 L 9 6 z M 12 12 A 3 3 0 0 1 15 15 A 3 3 0 0 1 12 18 A 3 3 0 0 1 9 15 A 3 3 0 0 1 12 12 z " />
   <path style="fill:#808080;fill-opacity:1;fill-rule:evenodd;stroke-width:2;stroke-linecap:square;stroke-linejoin:round" d="m 12,13 a 2,2 0 0 1 2,2 2,2 0 0 1 -2,2 2,2 0 0 1 -2.0000001,-2 2,2 0 0 1 2.0000001,-2 z" id="path917" />
</svg>
