<?xml version="1.0" encoding="UTF-8" standalone="no"?>
<svg
   height="24"
   width="24"
   version="1.1"
   id="svg10"
   sodipodi:docname="multimedia-player-filled.svg"
   inkscape:version="1.1 (ce6663b3b7, 2021-05-25)"
   xmlns:inkscape="http://www.inkscape.org/namespaces/inkscape"
   xmlns:sodipodi="http://sodipodi.sourceforge.net/DTD/sodipodi-0.dtd"
   xmlns="http://www.w3.org/2000/svg"
   xmlns:svg="http://www.w3.org/2000/svg">
  <defs
     id="defs14" />
  <sodipodi:namedview
     id="namedview12"
     pagecolor="#ffffff"
     bordercolor="#666666"
     borderopacity="1.0"
     inkscape:pageshadow="2"
     inkscape:pageopacity="0.0"
     inkscape:pagecheckerboard="0"
     showgrid="false"
     inkscape:snap-page="true"
     inkscape:zoom="19.79899"
     inkscape:cx="4.2678945"
     inkscape:cy="10.884394"
     inkscape:window-width="1920"
     inkscape:window-height="1016"
     inkscape:window-x="0"
     inkscape:window-y="27"
     inkscape:window-maximized="1"
     inkscape:current-layer="svg10" />
  <path
     id="path2"
     style="color:#000000;font-weight:400;line-height:normal;font-family:sans-serif;font-variant-ligatures:normal;font-variant-position:normal;font-variant-caps:normal;font-variant-numeric:normal;font-variant-alternates:normal;font-feature-settings:normal;text-indent:0;text-align:start;text-decoration-line:none;text-decoration-style:solid;text-decoration-color:#000000;text-transform:none;text-orientation:mixed;white-space:normal;shape-padding:0;isolation:auto;mix-blend-mode:normal;fill:#808080;stroke-width:0.8;marker:none"
     d="M 8.875 2.625 C 8.1975 2.625 7.6457812 2.7046094 7.1757812 2.9121094 A 2.15 2.15 0 0 0 6.1289062 3.9082031 C 5.7039063 4.7582031 5.75 5.75 5.75 7 L 5.75 17 C 5.75 18.25 5.7039064 19.243047 6.1289062 20.091797 C 6.3414063 20.516797 6.7057813 20.879141 7.1757812 21.087891 C 7.6445312 21.295391 8.1975 21.375 8.875 21.375 L 15.125 21.375 C 15.8025 21.375 16.354219 21.295391 16.824219 21.087891 A 2.15 2.15 0 0 0 17.871094 20.091797 C 18.296094 19.241797 18.25 18.25 18.25 17 L 18.25 7 C 18.25 5.75 18.296094 4.7569531 17.871094 3.9082031 A 2.15 2.15 0 0 0 16.824219 2.9140625 C 16.355469 2.7053125 15.8025 2.625 15.125 2.625 L 8.875 2.625 z M 8.25 5.125 L 15.75 5.125 L 15.75 10.125 L 8.25 10.125 L 8.25 5.125 z M 12 11.375 C 14.06375 11.375 15.75 13.0625 15.75 15.125 C 15.75 17.18875 14.06375 18.875 12 18.875 C 9.9375 18.875 8.25 17.18875 8.25 15.125 C 8.25 13.0625 9.9375 11.375 12 11.375 z M 12 12.625 C 10.6125 12.625 9.5 13.7375 9.5 15.125 C 9.5 16.5125 10.6125 17.625 12 17.625 C 13.3875 17.625 14.5 16.5125 14.5 15.125 C 14.5 13.7375 13.3875 12.625 12 12.625 z " />
</svg>
