<?xml version="1.0" encoding="UTF-8" standalone="no"?>
<svg
   height="24"
   id="svg7384"
   version="1.1"
   width="24"
   sodipodi:docname="network.svg"
   inkscape:version="1.1 (ce6663b3b7, 2021-05-25)"
   xmlns:inkscape="http://www.inkscape.org/namespaces/inkscape"
   xmlns:sodipodi="http://sodipodi.sourceforge.net/DTD/sodipodi-0.dtd"
   xmlns="http://www.w3.org/2000/svg"
   xmlns:svg="http://www.w3.org/2000/svg"
   xmlns:rdf="http://www.w3.org/1999/02/22-rdf-syntax-ns#"
   xmlns:cc="http://creativecommons.org/ns#"
   xmlns:dc="http://purl.org/dc/elements/1.1/">
  <sodipodi:namedview
     id="namedview22"
     pagecolor="#ffffff"
     bordercolor="#666666"
     borderopacity="1.0"
     inkscape:pageshadow="2"
     inkscape:pageopacity="0.0"
     inkscape:pagecheckerboard="0"
     showgrid="false"
     inkscape:zoom="27.999893"
     inkscape:cx="4.1607302"
     inkscape:cy="7.446457"
     inkscape:window-width="1920"
     inkscape:window-height="1016"
     inkscape:window-x="0"
     inkscape:window-y="27"
     inkscape:window-maximized="1"
     inkscape:current-layer="svg7384" />
  <metadata
     id="metadata20854">
    <rdf:RDF>
      <cc:Work
         rdf:about="">
        <dc:format>image/svg+xml</dc:format>
        <dc:type
           rdf:resource="http://purl.org/dc/dcmitype/StillImage" />
      </cc:Work>
    </rdf:RDF>
  </metadata>
  <defs
     id="defs7386">
    <linearGradient
       id="linearGradient5606"
       inkscape:swatch="solid">
      <stop
         id="stop5608"
         offset="0"
         style="stop-color:#000000;stop-opacity:1;" />
    </linearGradient>
    <linearGradient
       id="linearGradient4526"
       inkscape:swatch="solid">
      <stop
         id="stop4528"
         offset="0"
         style="stop-color:#ffffff;stop-opacity:1;" />
    </linearGradient>
    <linearGradient
       id="linearGradient3600-4"
       inkscape:swatch="gradient">
      <stop
         id="stop3602-7"
         offset="0"
         style="stop-color:#f4f4f4;stop-opacity:1" />
      <stop
         id="stop3604-6"
         offset="1"
         style="stop-color:#dbdbdb;stop-opacity:1" />
    </linearGradient>
  </defs>
  <path
     id="path1302"
     style="color:#000000;font-style:normal;font-variant:normal;font-weight:normal;font-stretch:normal;font-size:medium;line-height:normal;font-family:sans-serif;font-variant-ligatures:normal;font-variant-position:normal;font-variant-caps:normal;font-variant-numeric:normal;font-variant-alternates:normal;font-feature-settings:normal;text-indent:0;text-align:start;text-decoration:none;text-decoration-line:none;text-decoration-style:solid;text-decoration-color:#000000;letter-spacing:normal;word-spacing:normal;text-transform:none;writing-mode:lr-tb;direction:ltr;text-orientation:mixed;dominant-baseline:auto;baseline-shift:baseline;text-anchor:start;white-space:normal;shape-padding:0;clip-rule:nonzero;display:inline;overflow:visible;visibility:visible;opacity:1;isolation:auto;mix-blend-mode:normal;color-interpolation:sRGB;color-interpolation-filters:linearRGB;solid-color:#000000;solid-opacity:1;vector-effect:none;fill:#808080;fill-opacity:1;fill-rule:evenodd;stroke:none;stroke-width:1;stroke-linecap:butt;stroke-linejoin:miter;stroke-miterlimit:4;stroke-dasharray:none;stroke-dashoffset:0;stroke-opacity:1;color-rendering:auto;image-rendering:auto;shape-rendering:auto;text-rendering:auto;enable-background:accumulate"
     d="m 12,2 a 10,10 0 0 0 -10,10 10,10 0 0 0 10,10 10,10 0 0 0 10,-10 10,10 0 0 0 -10,-10 z m 0,1.25 a 8.75,8.75 0 0 1 4.123535,1.0375976 8.75,8.75 0 0 1 4.626465,7.7124024 8.75,8.75 0 0 1 -0.38086,2.509765 c -1.366245,-0.141089 -2.703698,-0.420137 -4.01123,-0.803222 0.005,0.05462 0.01709,0.107749 0.01709,0.163574 1.38e-4,0.39065 -0.123387,0.753513 -0.332031,1.054688 1.254574,0.36537 2.543086,0.630804 3.862305,0.786133 a 8.75,8.75 0 0 1 -7.519531,5.009765 c -0.346944,-0.478802 -1.200747,-2.080639 -1.455079,-2.531738 -0.275712,0.328613 -0.654921,0.56586 -1.091308,0.646973 0.19007,0.324707 0.644215,1.147866 1.04248,1.826172 a 8.75,8.75 0 0 1 -4.9682613,-2.390137 8.75,8.75 0 0 1 -0.209961,-0.214844 c 0.069181,0.07203 0.1383105,0.145191 0.209961,0.214844 0.467875,-0.055 0.9448367,-0.115375 1.4526368,-0.219727 0.16665,-0.03425 0.3430827,-0.09625 0.5126952,-0.136718 -0.1563,-0.272388 -0.2540187,-0.581628 -0.2539062,-0.915528 -3.75e-5,-0.10925 0.01593,-0.215549 0.03418,-0.319824 -0.1810751,0.04563 -0.3663961,0.109875 -0.5444336,0.146484 -0.804175,0.165338 -1.5354938,0.23827 -2.2070313,0.27832 0.050245,0.0699 0.1039938,0.136726 0.15625,0.205079 a 8.75,8.75 0 0 1 -1.7211914,-4.133301 c 1.0247254,-0.661533 2.0913197,-1.213986 3.1958008,-1.677246 -0.10275,-0.23045 -0.1636618,-0.482699 -0.1635743,-0.749512 -2e-4,-0.59675 0.2908844,-1.126464 0.7324219,-1.4697265 -0.8923972,-0.5656199 -1.7612402,-1.1449307 -2.6123046,-1.7285157 a 8.75,8.75 0 0 1 2.9516601,-2.993164 c -0.105545,1.5449933 -0.1370905,3.0686725 -0.075684,4.5532226 0.2642,-0.142625 0.5603062,-0.2319335 0.8789062,-0.2319336 0.1267125,0 0.2510563,0.014813 0.3710938,0.039063 -0.061375,-1.5734375 -0.036336,-3.1954977 0.1025387,-4.8657227 l -0.2783202,-0.021972 a 8.75,8.75 0 0 1 3.5546874,-0.78125 z m 4.123535,1.0375976 c -0.02112,0.946075 -0.106112,1.8792516 -0.253906,2.7978516 0.162162,-0.04625 0.329346,-0.080566 0.505371,-0.080566 0.267563,0 0.520491,0.060749 0.751953,0.1635743 0.106124,-0.6853126 0.174577,-1.3796157 0.219727,-2.0800782 -0.384662,-0.300575 -0.793808,-0.5684437 -1.223145,-0.8007817 z m -7.8784177,-0.1733398 c -0.1208913,0.057096 -0.2407617,0.1156587 -0.3588868,0.1782227 a 8.75,8.75 0 0 1 0.3588868,-0.1782227 z m 8.1298827,3.5156249 a 1.25,1.2446897 0 0 0 -1.25,1.2451173 1.25,1.2446897 0 0 0 1.25,1.245117 1.25,1.2446897 0 0 0 1.25,-1.245117 1.25,1.2446897 0 0 0 -1.25,-1.2451173 z m -12.0605469,0.2172853 c -0.045518,0.083225 -0.093938,0.1643732 -0.1367187,0.2490234 a 8.75,8.75 0 0 1 0.1367187,-0.2490234 z m 15.3955079,0.029296 c -0.570875,0.02525 -1.155875,0.037301 -1.71875,0.070801 0.160363,0.2749875 0.258901,0.5891969 0.258789,0.9277344 3.7e-5,0.105875 -0.01449,0.2088461 -0.03174,0.3100586 0.661012,-0.03775 1.350429,-0.054066 2.026367,-0.080566 -0.146588,-0.4224001 -0.32533,-0.8329524 -0.534668,-1.2280274 z m -5.087891,0.3564452 c -1.833587,0.2087625 -3.607787,0.5177789 -5.3124998,0.9790039 0.3733127,0.257725 0.6458986,0.6475704 0.7568358,1.0986329 1.457538,-0.3679 2.976957,-0.6260594 4.550782,-0.8105469 -0.07125,-0.196575 -0.117313,-0.4051125 -0.117188,-0.625 -7.5e-5,-0.226125 0.04695,-0.4408274 0.122075,-0.6420899 z m -10.6909176,0.4541016 c 0.7530819,0.5217528 1.5195449,1.0418978 2.3168945,1.5527342 -1.0259482,0.424192 -2.0136729,0.948965 -2.980957,1.535645 a 8.75,8.75 0 0 1 0.6640625,-3.0883792 z m 4.3188476,0.817871 a 1.25,1.2446897 0 0 0 -1.25,1.2451172 1.25,1.2446897 0 0 0 1.25,1.245117 1.25,1.2446897 0 0 0 1.25,-1.245117 1.25,1.2446897 0 0 0 -1.25,-1.2451172 z m 6.872559,0.7495122 c -0.190363,0.592 -0.403361,1.174534 -0.639649,1.748047 0.0062,-5e-5 0.01121,-0.0024 0.01709,-0.0024 0.438825,0 0.840773,0.158552 1.16211,0.415039 0.224349,-0.551438 0.430534,-1.11005 0.615234,-1.679688 -0.442088,-0.0235 -0.844185,-0.199944 -1.154785,-0.480957 z m -5.026856,0.783691 c -0.06912,0.43635 -0.2894475,0.821128 -0.60791,1.103516 1.024637,0.556013 2.076138,1.07237 3.156738,1.535645 0.0465,-0.440401 0.24043,-0.838617 0.541993,-1.135254 -1.053501,-0.452325 -2.083658,-0.955532 -3.090821,-1.503907 z m -1.1132811,1.428223 c -0.226125,0.09725 -0.4725844,0.153809 -0.7324219,0.153809 -0.1958,0 -0.380907,-0.04091 -0.559082,-0.09766 0.167525,1.028413 0.4065953,2.019458 0.7080078,2.973633 0.31085,-0.227875 0.6900492,-0.366211 1.1010742,-0.366211 0.033375,0 0.064781,0.0072 0.097656,0.0098 -0.2673,-0.848838 -0.4586594,-1.749353 -0.6152344,-2.67334 z m 5.5175781,0.158691 a 1.25,1.2446897 0 0 0 -1.25,1.245118 1.25,1.2446897 0 0 0 1.25,1.245117 1.25,1.2446897 0 0 0 1.25,-1.245117 1.25,1.2446897 0 0 0 -1.25,-1.245118 z m -1.835937,1.621094 c -0.600951,0.5233 -1.261516,0.969495 -1.962891,1.333008 0.324175,0.273525 0.556082,0.648401 0.637207,1.079101 0.6989,-0.369425 1.372279,-0.814494 1.994629,-1.340331 -0.33325,-0.268413 -0.579383,-0.640065 -0.668945,-1.071778 z m 7.683104,0.354004 a 8.75,8.75 0 0 1 -0.08789,0.258789 c 0.03024,-0.08584 0.06034,-0.17202 0.08789,-0.258789 z m -10.847167,1.154785 a 1.25,1.2446897 0 0 0 -1.25,1.245117 1.25,1.2446897 0 0 0 1.25,1.245118 1.25,1.2446897 0 0 0 1.25,-1.245118 1.25,1.2446897 0 0 0 -1.25,-1.245117 z" />
</svg>
