<?xml version="1.0" encoding="UTF-8" standalone="no"?>
<svg
   height="24"
   id="svg7384"
   version="1.1"
   width="24"
   sodipodi:docname="network.svg"
   inkscape:version="1.1 (ce6663b3b7, 2021-05-25)"
   xmlns:inkscape="http://www.inkscape.org/namespaces/inkscape"
   xmlns:sodipodi="http://sodipodi.sourceforge.net/DTD/sodipodi-0.dtd"
   xmlns="http://www.w3.org/2000/svg"
   xmlns:svg="http://www.w3.org/2000/svg"
   xmlns:rdf="http://www.w3.org/1999/02/22-rdf-syntax-ns#"
   xmlns:cc="http://creativecommons.org/ns#"
   xmlns:dc="http://purl.org/dc/elements/1.1/">
  <sodipodi:namedview
     id="namedview22"
     pagecolor="#ffffff"
     bordercolor="#666666"
     borderopacity="1.0"
     inkscape:pageshadow="2"
     inkscape:pageopacity="0.0"
     inkscape:pagecheckerboard="0"
     showgrid="false"
     inkscape:zoom="8"
     inkscape:cx="62.8125"
     inkscape:cy="8.3125"
     inkscape:window-width="1920"
     inkscape:window-height="1016"
     inkscape:window-x="0"
     inkscape:window-y="27"
     inkscape:window-maximized="1"
     inkscape:current-layer="svg7384">
    <inkscape:grid
       type="xygrid"
       id="grid14" />
  </sodipodi:namedview>
  <metadata
     id="metadata20854">
    <rdf:RDF>
      <cc:Work
         rdf:about="">
        <dc:format>image/svg+xml</dc:format>
        <dc:type
           rdf:resource="http://purl.org/dc/dcmitype/StillImage" />
      </cc:Work>
    </rdf:RDF>
  </metadata>
  <defs
     id="defs7386">
    <linearGradient
       id="linearGradient5606"
       inkscape:swatch="solid">
      <stop
         id="stop5608"
         offset="0"
         style="stop-color:#000000;stop-opacity:1;" />
    </linearGradient>
    <linearGradient
       id="linearGradient4526"
       inkscape:swatch="solid">
      <stop
         id="stop4528"
         offset="0"
         style="stop-color:#ffffff;stop-opacity:1;" />
    </linearGradient>
    <linearGradient
       id="linearGradient3600-4"
       inkscape:swatch="gradient">
      <stop
         id="stop3602-7"
         offset="0"
         style="stop-color:#f4f4f4;stop-opacity:1" />
      <stop
         id="stop3604-6"
         offset="1"
         style="stop-color:#dbdbdb;stop-opacity:1" />
    </linearGradient>
  </defs>
  <path
     id="path1302"
     style="color:#000000;font-style:normal;font-variant:normal;font-weight:normal;font-stretch:normal;font-size:medium;line-height:normal;font-family:sans-serif;font-variant-ligatures:normal;font-variant-position:normal;font-variant-caps:normal;font-variant-numeric:normal;font-variant-alternates:normal;font-feature-settings:normal;text-indent:0;text-align:start;text-decoration:none;text-decoration-line:none;text-decoration-style:solid;text-decoration-color:#000000;letter-spacing:normal;word-spacing:normal;text-transform:none;writing-mode:lr-tb;direction:ltr;text-orientation:mixed;dominant-baseline:auto;baseline-shift:baseline;text-anchor:start;white-space:normal;shape-padding:0;clip-rule:nonzero;display:inline;overflow:visible;visibility:visible;opacity:1;isolation:auto;mix-blend-mode:normal;color-interpolation:sRGB;color-interpolation-filters:linearRGB;solid-color:#000000;solid-opacity:1;vector-effect:none;fill:#808080;fill-opacity:1;fill-rule:evenodd;stroke:none;stroke-width:1;stroke-linecap:butt;stroke-linejoin:miter;stroke-miterlimit:4;stroke-dasharray:none;stroke-dashoffset:0;stroke-opacity:1;color-rendering:auto;image-rendering:auto;shape-rendering:auto;text-rendering:auto;enable-background:accumulate"
     d="m 8.5844726,4.0410156 a 8.6874997,8.6874997 0 0 0 -1.1425781,0.5957031 c -0.1012925,1.5181404 -0.1311686,3.0156641 -0.070801,4.4750977 0.2642,-0.142625 0.5603063,-0.2319334 0.8789063,-0.2319336 0.1267125,0 0.2510562,0.014812 0.3710938,0.039063 -0.061375,-1.5734376 -0.036336,-3.1954977 0.1025387,-4.8657227 z m -0.3393553,0.073243 a 8.75,8.75 0 0 0 -0.3588868,0.1782228 c 0.118125,-0.062564 0.2379954,-0.1211263 0.3588868,-0.1782228 z m 7.8759767,0.2563478 c -0.02414,0.917619 -0.108,1.8231595 -0.251465,2.7148437 0.162162,-0.04625 0.329346,-0.080566 0.505371,-0.080566 0.267562,0 0.520491,0.060749 0.751952,0.1635742 0.101788,-0.6572878 0.167249,-1.3232982 0.212403,-1.9946289 a 8.6874997,8.6874997 0 0 0 -1.218261,-0.803223 z m -11.5722659,3.2177733 a 8.6874997,8.6874997 0 0 0 -0.5639648,1.1352539 c 0.7360203,0.5094228 1.4845581,1.017273 2.2631836,1.5161124 -1.0020744,0.414321 -1.9668836,0.926389 -2.9125976,1.496582 a 8.6874997,8.6874997 0 0 0 -0.021972,0.263672 8.6874997,8.6874997 0 0 0 0.090332,1.140137 c 1.0063064,-0.644435 2.0518642,-1.186416 3.1347656,-1.640625 -0.10275,-0.23045 -0.1636618,-0.482699 -0.1635743,-0.749512 -2e-4,-0.59675 0.2908844,-1.1264633 0.7324219,-1.4697256 -0.8737809,-0.5538205 -1.7245548,-1.1206624 -2.5585944,-1.6918947 z m 11.8261719,0.041504 a 1.25,1.2446897 0 0 0 -1.25,1.2451172 1.25,1.2446897 0 0 0 1.25,1.2451171 1.25,1.2446897 0 0 0 1.25,-1.2451171 1.25,1.2446897 0 0 0 -1.25,-1.2451172 z m -12.0605469,0.2172852 a 8.75,8.75 0 0 0 -0.1367187,0.2490234 c 0.042781,-0.08465 0.091201,-0.1657984 0.1367187,-0.2490234 z m 15.3149419,0.031739 c -0.545381,0.022966 -1.101613,0.036425 -1.638184,0.068359 0.160363,0.2749876 0.258901,0.5891969 0.258789,0.9277344 3.7e-5,0.105875 -0.01449,0.2088462 -0.03174,0.3100587 0.638028,-0.036437 1.302274,-0.053194 1.955566,-0.078125 a 8.6874997,8.6874997 0 0 0 -0.544433,-1.2280274 z m -5.007325,0.3540039 c -1.833588,0.2087625 -3.607787,0.5177788 -5.3124998,0.9790038 0.3733127,0.257725 0.6458988,0.6475704 0.7568358,1.0986334 1.457538,-0.3679005 2.976956,-0.6260599 4.550781,-0.8105473 -0.07125,-0.196575 -0.117312,-0.4051125 -0.117187,-0.625 -7.5e-5,-0.226125 0.04695,-0.4408274 0.122075,-0.6420899 z m -6.37207,1.2719726 a 1.25,1.2446897 0 0 0 -1.25,1.2451176 1.25,1.2446897 0 0 0 1.25,1.245117 1.25,1.2446897 0 0 0 1.25,-1.245117 1.25,1.2446897 0 0 0 -1.25,-1.2451176 z m 6.872559,0.7495116 c -0.190363,0.592 -0.403361,1.174534 -0.639649,1.748047 0.0062,-5e-5 0.01125,-0.0025 0.01709,-0.0025 0.438826,0 0.840773,0.158551 1.162111,0.415039 0.224348,-0.551438 0.430533,-1.110049 0.615233,-1.679687 -0.442087,-0.0235 -0.844185,-0.199944 -1.154785,-0.480957 z m -5.026856,0.783692 c -0.06912,0.43635 -0.2894475,0.821127 -0.60791,1.103515 1.024637,0.556013 2.076138,1.07237 3.156738,1.535645 0.0465,-0.440401 0.24043,-0.838617 0.541993,-1.135254 -1.053502,-0.452325 -2.083658,-0.955531 -3.090821,-1.503906 z m -1.1132811,1.428223 c -0.226125,0.09725 -0.4725844,0.153808 -0.7324219,0.153808 -0.1958,0 -0.380907,-0.0409 -0.559082,-0.09766 0.167525,1.028412 0.4065953,2.019457 0.7080078,2.973632 0.31085,-0.227875 0.6900492,-0.366211 1.1010742,-0.366211 0.033375,0 0.064781,0.0072 0.097656,0.0098 -0.2673,-0.848837 -0.4586594,-1.749352 -0.6152344,-2.67334 z m 5.5175781,0.158691 a 1.25,1.2446897 0 0 0 -1.25,1.245117 1.25,1.2446897 0 0 0 1.25,1.245118 1.25,1.2446897 0 0 0 1.25,-1.245118 1.25,1.2446897 0 0 0 -1.25,-1.245117 z m 1.85791,1.081542 c 0.005,0.05462 0.01709,0.10775 0.01709,0.163575 1.38e-4,0.39065 -0.123387,0.753513 -0.332031,1.054688 1.233534,0.359242 2.500305,0.620015 3.796386,0.776367 a 8.6874997,8.6874997 0 0 0 0.466309,-1.198731 c -1.344104,-0.143111 -2.660566,-0.418774 -3.947754,-0.795899 z m -3.693847,0.539552 c -0.600951,0.5233 -1.261516,0.969493 -1.962891,1.333007 0.324175,0.273525 0.556082,0.648401 0.637207,1.079101 0.6989,-0.369425 1.372279,-0.814495 1.994629,-1.340331 -0.33325,-0.268414 -0.579383,-0.640064 -0.668945,-1.071777 z m 7.683104,0.354003 c -0.02755,0.08676 -0.05765,0.172951 -0.08789,0.258789 a 8.75,8.75 0 0 0 0.08789,-0.258789 z m -10.847167,1.154785 a 1.25,1.2446897 0 0 0 -1.25,1.245118 1.25,1.2446897 0 0 0 1.25,1.245117 1.25,1.2446897 0 0 0 1.25,-1.245117 1.25,1.2446897 0 0 0 -1.25,-1.245118 z m -1.8408202,0.925294 c -0.1810752,0.04563 -0.3663962,0.109875 -0.5444337,0.146484 -0.7793911,0.160242 -1.48913,0.232602 -2.1435547,0.273437 a 8.6874997,8.6874997 0 0 0 1.0253906,1.16211 c 0.4416429,-0.05251 0.8914589,-0.1117 1.369629,-0.209961 0.16665,-0.03425 0.3430828,-0.09625 0.5126953,-0.136719 -0.1563,-0.272387 -0.2540188,-0.581627 -0.2539063,-0.915527 -3.75e-5,-0.10925 0.01593,-0.215549 0.03418,-0.319824 z m 3.2714842,1.508789 c -0.275712,0.328612 -0.654921,0.56586 -1.0913085,0.646972 0.1840225,0.314376 0.6146955,1.095235 1.0034185,1.760254 a 8.6874997,8.6874997 0 0 0 1.157226,0.09034 8.6874997,8.6874997 0 0 0 0.34668,-0.02685 c -0.364342,-0.5258 -1.168974,-2.032535 -1.416016,-2.470702 z" />
  <path
     id="path1572"
     style="fill:#808080;fill-rule:evenodd;stroke:none;stroke-width:2;stroke-linecap:square;stroke-linejoin:round"
     d="M 12 2 A 10 10 0 0 0 2 12 A 10 10 0 0 0 12 22 A 10 10 0 0 0 22 12 A 10 10 0 0 0 12 2 z M 12 3 A 9 9 0 0 1 21 12 A 9 9 0 0 1 12 21 A 9 9 0 0 1 3 12 A 9 9 0 0 1 12 3 z " />
</svg>
