<?xml version="1.0" encoding="UTF-8" standalone="no"?>
<svg
   height="24"
   id="svg7384"
   version="1.1"
   width="24"
   sodipodi:docname="network-filled.svg"
   inkscape:version="1.1 (ce6663b3b7, 2021-05-25)"
   xmlns:inkscape="http://www.inkscape.org/namespaces/inkscape"
   xmlns:sodipodi="http://sodipodi.sourceforge.net/DTD/sodipodi-0.dtd"
   xmlns="http://www.w3.org/2000/svg"
   xmlns:svg="http://www.w3.org/2000/svg"
   xmlns:rdf="http://www.w3.org/1999/02/22-rdf-syntax-ns#"
   xmlns:cc="http://creativecommons.org/ns#"
   xmlns:dc="http://purl.org/dc/elements/1.1/">
  <sodipodi:namedview
     id="namedview22"
     pagecolor="#ffffff"
     bordercolor="#666666"
     borderopacity="1.0"
     inkscape:pageshadow="2"
     inkscape:pageopacity="0.0"
     inkscape:pagecheckerboard="0"
     showgrid="false"
     inkscape:zoom="4.9497287"
     inkscape:cx="-17.879768"
     inkscape:cy="-30.001645"
     inkscape:window-width="1920"
     inkscape:window-height="1016"
     inkscape:window-x="0"
     inkscape:window-y="27"
     inkscape:window-maximized="1"
     inkscape:current-layer="svg7384" />
  <metadata
     id="metadata20854">
    <rdf:RDF>
      <cc:Work
         rdf:about="">
        <dc:format>image/svg+xml</dc:format>
        <dc:type
           rdf:resource="http://purl.org/dc/dcmitype/StillImage" />
      </cc:Work>
    </rdf:RDF>
  </metadata>
  <defs
     id="defs7386">
    <linearGradient
       id="linearGradient5606"
       inkscape:swatch="solid">
      <stop
         id="stop5608"
         offset="0"
         style="stop-color:#000000;stop-opacity:1;" />
    </linearGradient>
    <linearGradient
       id="linearGradient4526"
       inkscape:swatch="solid">
      <stop
         id="stop4528"
         offset="0"
         style="stop-color:#ffffff;stop-opacity:1;" />
    </linearGradient>
    <linearGradient
       id="linearGradient3600-4"
       inkscape:swatch="gradient">
      <stop
         id="stop3602-7"
         offset="0"
         style="stop-color:#f4f4f4;stop-opacity:1" />
      <stop
         id="stop3604-6"
         offset="1"
         style="stop-color:#dbdbdb;stop-opacity:1" />
    </linearGradient>
  </defs>
  <path
     id="circle1314"
     style="fill:#808080;fill-opacity:1;stroke:none;stroke-width:1;stroke-linecap:square;stroke-linejoin:round;stroke-miterlimit:4;stroke-dasharray:none;stroke-dashoffset:0;stroke-opacity:1"
     d="m 12,2 a 10,10 0 0 0 -10,10 10,10 0 0 0 10,10 10,10 0 0 0 10,-10 10,10 0 0 0 -10,-10 z m -3.5791015,2.0288086 0.3027342,0.024414 c -0.1388748,1.670225 -0.1639139,3.2922851 -0.1025387,4.8657226 -0.1200375,-0.02425 -0.2443812,-0.039063 -0.3710937,-0.039063 -0.3186,10e-8 -0.6147063,0.089309 -0.8789063,0.2319336 -0.0617,-1.4916375 -0.028625,-3.0226202 0.078125,-4.5751952 0.3129625,-0.1894125 0.6374921,-0.359025 0.9716795,-0.507812 z m 7.7026365,0.258789 c 0.429337,0.2323375 0.838483,0.5002063 1.223145,0.8007813 -0.04515,0.7004625 -0.1136,1.3947656 -0.219727,2.0800781 -0.231462,-0.102825 -0.48439,-0.1635743 -0.751953,-0.1635743 -0.176025,2e-7 -0.343209,0.034316 -0.505371,0.080566 0.147787,-0.9186 0.232781,-1.8517766 0.253906,-2.7978511 z m -11.6406249,3.2543947 c 0.85515,0.5865373 1.7276493,1.1698311 2.6245118,1.7382812 -0.4415375,0.3432625 -0.7326219,0.8729765 -0.7324219,1.4697265 -8.75e-5,0.266813 0.060824,0.519062 0.1635742,0.749512 -1.1051125,0.463525 -2.1729797,1.015208 -3.1982422,1.677246 -0.056625,-0.389775 -0.086583,-0.78292 -0.090333,-1.176758 0.00375,-0.0741 0.00721,-0.148168 0.012212,-0.222168 0.968775,-0.587825 1.9582399,-1.113211 2.9858399,-1.538086 -0.804375,-0.5153374 -1.5769383,-1.0410202 -2.3364258,-1.5673827 0.162875,-0.3901 0.3538015,-0.767871 0.571289,-1.130371 z m 11.8920899,0.08789 a 1.25,1.2446897 0 0 1 1.25,1.2451172 1.25,1.2446897 0 0 1 -1.25,1.2451175 1.25,1.2446897 0 0 1 -1.25,-1.2451175 1.25,1.2446897 0 0 1 1.25,-1.2451172 z m 3.334961,0.2465821 c 0.209338,0.395075 0.38808,0.8056274 0.534668,1.2280274 -0.675938,0.0265 -1.365355,0.042816 -2.026368,0.080566 0.01725,-0.1012125 0.03178,-0.2041836 0.03174,-0.3100586 1.12e-4,-0.3385375 -0.09842,-0.6527469 -0.258789,-0.9277344 0.562875,-0.0335 1.147875,-0.045551 1.71875,-0.070801 z m -5.087891,0.3564452 c -0.07513,0.2012625 -0.122145,0.4159649 -0.122075,0.6420899 -1.25e-4,0.2198875 0.04594,0.428425 0.117188,0.625 -1.573825,0.1844875 -3.093244,0.4426469 -4.550782,0.8105465 -0.1109372,-0.4510621 -0.3835231,-0.8409075 -0.7568357,-1.0986325 1.7047127,-0.461225 3.4789127,-0.7702414 5.3124997,-0.9790039 z m -6.37207,1.2719727 a 1.25,1.2446897 0 0 1 1.25,1.2451177 1.25,1.2446897 0 0 1 -1.25,1.245117 1.25,1.2446897 0 0 1 -1.25,-1.245117 1.25,1.2446897 0 0 1 1.25,-1.2451177 z m 6.872559,0.7495117 c 0.3106,0.281013 0.712697,0.457457 1.154785,0.480957 -0.1847,0.569638 -0.390885,1.12825 -0.615234,1.679688 -0.321337,-0.256488 -0.723285,-0.415039 -1.16211,-0.415039 -0.0059,0 -0.01084,0.0024 -0.01709,0.0024 0.236287,-0.573515 0.449286,-1.156049 0.639649,-1.748049 z m -5.026856,0.783692 c 1.007163,0.548374 2.03732,1.051581 3.090821,1.503906 -0.301563,0.296637 -0.495493,0.694854 -0.541993,1.135254 -1.0806,-0.463275 -2.1321,-0.979632 -3.156738,-1.535645 0.3184625,-0.282387 0.538785,-0.667166 0.60791,-1.103515 z m -1.1132811,1.428222 c 0.156575,0.923988 0.3479343,1.824502 0.6152343,2.67334 -0.032875,-0.0025 -0.064281,-0.0097 -0.097656,-0.0097 -0.411025,0 -0.7902242,0.138337 -1.1010743,0.366212 -0.3014125,-0.954175 -0.5404827,-1.945221 -0.7080077,-2.973633 0.178175,0.05675 0.363282,0.09766 0.559082,0.09766 0.2598375,0 0.5062969,-0.05656 0.7324219,-0.153809 z m 5.5175781,0.158692 a 1.25,1.2446897 0 0 1 1.25,1.245117 1.25,1.2446897 0 0 1 -1.25,1.245118 1.25,1.2446897 0 0 1 -1.25,-1.245118 1.25,1.2446897 0 0 1 1.25,-1.245117 z m 1.85791,1.081543 c 1.310613,0.383987 2.651396,0.662447 4.020996,0.803221 -0.1257,0.411314 -0.281571,0.812786 -0.466309,1.201173 -1.321737,-0.155212 -2.612766,-0.420095 -3.869628,-0.786132 0.20865,-0.301175 0.332168,-0.664038 0.332031,-1.054688 0,-0.05583 -0.01212,-0.108949 -0.01709,-0.163574 z m -3.693847,0.53955 c 0.08956,0.431713 0.335695,0.803365 0.668945,1.071778 -0.62235,0.525837 -1.295729,0.970906 -1.994629,1.340331 -0.08113,-0.4307 -0.313032,-0.805576 -0.637207,-1.079101 0.701375,-0.363513 1.36194,-0.809708 1.962891,-1.333008 z m -3.164063,1.508789 a 1.25,1.2446897 0 0 1 1.25,1.245118 1.25,1.2446897 0 0 1 -1.25,1.245117 1.25,1.2446897 0 0 1 -1.25,-1.245117 1.25,1.2446897 0 0 1 1.25,-1.245118 z m -1.8408203,0.925294 c -0.01825,0.104275 -0.034218,0.210574 -0.03418,0.319824 -1.125e-4,0.3339 0.097606,0.64314 0.2539063,0.915527 -0.1696125,0.04047 -0.3460453,0.102462 -0.5126953,0.136719 -0.5078001,0.10435 -0.9847617,0.164726 -1.4526367,0.219726 -0.36895,-0.358662 -0.7055344,-0.749168 -1.0058594,-1.166992 0.6715375,-0.04005 1.4028563,-0.112988 2.2070313,-0.27832 0.1780375,-0.03661 0.3633585,-0.100863 0.5444338,-0.146484 z m 3.2714843,1.508789 c 0.262337,0.4653 1.168212,2.165007 1.491699,2.583007 l -0.988769,0.766601 c -0.357763,-0.462275 -1.299788,-2.199611 -1.5942385,-2.702636 0.4363875,-0.08111 0.8155965,-0.31836 1.0913085,-0.646972 z" />
  <g
     id="layer9"
     label="status"
     style="display:inline;stroke-width:0.8"
     transform="matrix(1.25,0,0,1.25,-1064.2503,235.75007)" />
  <g
     id="layer2"
     style="display:inline;stroke-width:0.8"
     transform="matrix(1.25,0,0,1.25,-763,-222.99993)" />
  <g
     id="layer4"
     style="display:inline;stroke-width:0.8"
     transform="matrix(1.25,0,0,1.25,-763,-222.99993)" />
  <g
     id="g1812"
     style="display:inline;stroke-width:0.8"
     transform="matrix(1.25,0,0,1.25,-763,-222.99993)" />
  <g
     id="g6217"
     style="display:inline;stroke-width:0.8"
     transform="matrix(1.25,0,0,1.25,-763,-222.99993)" />
  <g
     id="layer3"
     style="display:inline;stroke-width:0.8"
     transform="matrix(1.25,0,0,1.25,-763,-222.99993)" />
  <g
     id="layer1"
     style="display:inline;stroke-width:0.8"
     transform="matrix(1.25,0,0,1.25,-763,-222.99993)" />
</svg>
