<?xml version="1.0" encoding="UTF-8" standalone="no"?>
<svg
   height="24"
   id="svg7384"
   version="1.1"
   width="24"
   sodipodi:docname="package.svg"
   inkscape:version="1.1 (ce6663b3b7, 2021-05-25)"
   xmlns:inkscape="http://www.inkscape.org/namespaces/inkscape"
   xmlns:sodipodi="http://sodipodi.sourceforge.net/DTD/sodipodi-0.dtd"
   xmlns="http://www.w3.org/2000/svg"
   xmlns:svg="http://www.w3.org/2000/svg"
   xmlns:rdf="http://www.w3.org/1999/02/22-rdf-syntax-ns#"
   xmlns:cc="http://creativecommons.org/ns#"
   xmlns:dc="http://purl.org/dc/elements/1.1/">
  <sodipodi:namedview
     id="namedview25"
     pagecolor="#ffffff"
     bordercolor="#666666"
     borderopacity="1.0"
     inkscape:pageshadow="2"
     inkscape:pageopacity="0.0"
     inkscape:pagecheckerboard="0"
     showgrid="false"
     inkscape:zoom="7"
     inkscape:cx="-10.928571"
     inkscape:cy="11.642857"
     inkscape:window-width="1920"
     inkscape:window-height="1016"
     inkscape:window-x="0"
     inkscape:window-y="27"
     inkscape:window-maximized="1"
     inkscape:current-layer="svg7384"
     inkscape:snap-page="true" />
  <metadata
     id="metadata20854">
    <rdf:RDF>
      <cc:Work
         rdf:about="">
        <dc:format>image/svg+xml</dc:format>
        <dc:type
           rdf:resource="http://purl.org/dc/dcmitype/StillImage" />
      </cc:Work>
    </rdf:RDF>
  </metadata>
  <defs
     id="defs7386">
    <linearGradient
       id="linearGradient5606"
       inkscape:swatch="solid">
      <stop
         id="stop5608"
         offset="0"
         style="stop-color:#000000;stop-opacity:1;" />
    </linearGradient>
    <linearGradient
       id="linearGradient4526"
       inkscape:swatch="solid">
      <stop
         id="stop4528"
         offset="0"
         style="stop-color:#ffffff;stop-opacity:1;" />
    </linearGradient>
    <linearGradient
       id="linearGradient3600-4"
       inkscape:swatch="gradient">
      <stop
         id="stop3602-7"
         offset="0"
         style="stop-color:#f4f4f4;stop-opacity:1" />
      <stop
         id="stop3604-6"
         offset="1"
         style="stop-color:#dbdbdb;stop-opacity:1" />
    </linearGradient>
  </defs>
  <path
     id="path2732-8-1-3-8"
     style="color:#000000;font-style:normal;font-variant:normal;font-weight:normal;font-stretch:normal;font-size:medium;line-height:normal;font-family:sans-serif;font-variant-ligatures:normal;font-variant-position:normal;font-variant-caps:normal;font-variant-numeric:normal;font-variant-alternates:normal;font-feature-settings:normal;text-indent:0;text-align:start;text-decoration:none;text-decoration-line:none;text-decoration-style:solid;text-decoration-color:#000000;letter-spacing:normal;word-spacing:normal;text-transform:none;writing-mode:lr-tb;direction:ltr;text-orientation:mixed;dominant-baseline:auto;baseline-shift:baseline;text-anchor:start;white-space:normal;shape-padding:0;clip-rule:nonzero;display:inline;overflow:visible;visibility:visible;isolation:auto;mix-blend-mode:normal;color-interpolation:sRGB;color-interpolation-filters:linearRGB;solid-color:#000000;solid-opacity:1;vector-effect:none;fill:#808080;fill-opacity:1;fill-rule:nonzero;stroke:none;stroke-width:1;stroke-linecap:butt;stroke-linejoin:miter;stroke-miterlimit:4;stroke-dasharray:none;stroke-dashoffset:0;stroke-opacity:1;marker:none;color-rendering:auto;image-rendering:auto;shape-rendering:auto;text-rendering:auto;enable-background:accumulate"
     d="m 8.8676682,2.625 c -1.57275,0.018125 -2.7236132,-0.038256 -3.6645507,0.480957 -0.4704625,0.259575 -0.8415383,0.6992336 -1.0473633,1.2475586 -0.2058375,0.5483375 -0.2807617,1.1994719 -0.2807617,2.0214844 v 11.25 c 0,0.822013 0.074874,1.473221 0.2807617,2.021485 0.20585,0.548263 0.5769133,0.985654 1.0473633,1.245116 0.9409,0.518913 2.0919257,0.464561 3.6645507,0.483399 h 0.00244 6.2573248 0.0049 c 1.572738,-0.01813 2.723614,0.03825 3.664549,-0.480958 0.470463,-0.259575 0.841527,-0.699233 1.047364,-1.247557 0.205664,-0.548339 0.280761,-1.199473 0.280761,-2.021485 v -11.25 c 0,-0.8220125 -0.07487,-1.4732219 -0.280761,-2.0214844 -0.20585,-0.5482625 -0.576913,-0.9856547 -1.047364,-1.2451172 -0.9409,-0.5189125 -2.091938,-0.4645609 -3.664551,-0.4833984 h -0.0025 -6.2573236 z m 0.00732,1.25 h 2.4218758 v 16.25 h -2.4145515 -0.00732 c -1.5732875,-0.019 -2.6113726,-0.07487 -3.0688476,-0.327149 -0.229275,-0.12645 -0.359032,-0.26607 -0.4809572,-0.59082 -0.122,-0.324737 -0.2001952,-0.841543 -0.2001952,-1.582031 v -11.25 c 0,-0.7404875 0.078245,-1.2571562 0.2001952,-1.5820312 0.122,-0.3248876 0.254136,-0.4643328 0.4833986,-0.5908203 0.4574374,-0.2523876 1.4932562,-0.3087735 3.0664069,-0.3271485 z m 3.7500008,0 h 2.5 c 1.573274,0.019 2.611371,0.074874 3.068847,0.3271485 0.229275,0.1264499 0.359033,0.2660702 0.480958,0.5908203 0.12175,0.3247375 0.200195,0.8415437 0.200195,1.5820312 v 11.25 c 0,0.740488 -0.07825,1.257156 -0.200195,1.582031 -0.122,0.324888 -0.251695,0.464333 -0.480958,0.59082 -0.457451,0.2524 -1.495697,0.308761 -3.068847,0.327149 h -2.5 z m -5.8325203,11.25 c -0.2308249,0 -0.4174804,0.139375 -0.4174804,0.3125 v 3.125 c 0,0.173125 0.1866555,0.3125 0.4174804,0.3125 h 2.915039 c 0.230825,0 0.4174803,-0.139375 0.4174803,-0.3125 v -3.125 c 0,-0.173125 -0.1866553,-0.3125 -0.4174803,-0.3125 z m 7.3950203,0 c -0.173125,0 -0.3125,0.139375 -0.3125,0.3125 v 0.625 c 0,0.173125 0.139375,0.3125 0.3125,0.3125 h 3.124999 c 0.173125,0 0.3125,-0.139375 0.3125,-0.3125 v -0.625 c 0,-0.173125 -0.139375,-0.3125 -0.3125,-0.3125 z m 0,2.5 c -0.173125,0 -0.3125,0.139375 -0.3125,0.3125 v 0.625 c 0,0.173125 0.139375,0.3125 0.3125,0.3125 h 3.124999 c 0.173125,0 0.3125,-0.139375 0.3125,-0.3125 v -0.625 c 0,-0.173125 -0.139375,-0.3125 -0.3125,-0.3125 z" />
</svg>
