<?xml version="1.0" encoding="UTF-8" standalone="no"?>
<svg
   height="16"
   id="svg7384"
   version="1.1"
   width="16"
   sodipodi:docname="package.svg"
   inkscape:version="1.1 (ce6663b3b7, 2021-05-25)"
   xmlns:inkscape="http://www.inkscape.org/namespaces/inkscape"
   xmlns:sodipodi="http://sodipodi.sourceforge.net/DTD/sodipodi-0.dtd"
   xmlns="http://www.w3.org/2000/svg"
   xmlns:svg="http://www.w3.org/2000/svg"
   xmlns:rdf="http://www.w3.org/1999/02/22-rdf-syntax-ns#"
   xmlns:cc="http://creativecommons.org/ns#"
   xmlns:dc="http://purl.org/dc/elements/1.1/">
  <sodipodi:namedview
     id="namedview25"
     pagecolor="#ffffff"
     bordercolor="#666666"
     borderopacity="1.0"
     inkscape:pageshadow="2"
     inkscape:pageopacity="0.0"
     inkscape:pagecheckerboard="0"
     showgrid="false"
     inkscape:zoom="56"
     inkscape:cx="7.9910714"
     inkscape:cy="8.0089286"
     inkscape:window-width="1920"
     inkscape:window-height="1016"
     inkscape:window-x="0"
     inkscape:window-y="27"
     inkscape:window-maximized="1"
     inkscape:current-layer="svg7384" />
  <metadata
     id="metadata20854">
    <rdf:RDF>
      <cc:Work
         rdf:about="">
        <dc:format>image/svg+xml</dc:format>
        <dc:type
           rdf:resource="http://purl.org/dc/dcmitype/StillImage" />
      </cc:Work>
    </rdf:RDF>
  </metadata>
  <defs
     id="defs7386">
    <linearGradient
       id="linearGradient5606"
       inkscape:swatch="solid">
      <stop
         id="stop5608"
         offset="0"
         style="stop-color:#000000;stop-opacity:1;" />
    </linearGradient>
    <linearGradient
       id="linearGradient4526"
       inkscape:swatch="solid">
      <stop
         id="stop4528"
         offset="0"
         style="stop-color:#ffffff;stop-opacity:1;" />
    </linearGradient>
    <linearGradient
       id="linearGradient3600-4"
       inkscape:swatch="gradient">
      <stop
         id="stop3602-7"
         offset="0"
         style="stop-color:#f4f4f4;stop-opacity:1" />
      <stop
         id="stop3604-6"
         offset="1"
         style="stop-color:#dbdbdb;stop-opacity:1" />
    </linearGradient>
  </defs>
  <path
     id="path2732-8-1-3-8"
     style="color:#000000;font-style:normal;font-variant:normal;font-weight:normal;font-stretch:normal;font-size:medium;line-height:normal;font-family:sans-serif;font-variant-ligatures:normal;font-variant-position:normal;font-variant-caps:normal;font-variant-numeric:normal;font-variant-alternates:normal;font-feature-settings:normal;text-indent:0;text-align:start;text-decoration:none;text-decoration-line:none;text-decoration-style:solid;text-decoration-color:#000000;letter-spacing:normal;word-spacing:normal;text-transform:none;writing-mode:lr-tb;direction:ltr;text-orientation:mixed;dominant-baseline:auto;baseline-shift:baseline;text-anchor:start;white-space:normal;shape-padding:0;clip-rule:nonzero;display:inline;overflow:visible;visibility:visible;isolation:auto;mix-blend-mode:normal;color-interpolation:sRGB;color-interpolation-filters:linearRGB;solid-color:#000000;solid-opacity:1;vector-effect:none;fill:#808080;fill-opacity:1;fill-rule:nonzero;stroke:none;stroke-width:1;stroke-linecap:butt;stroke-linejoin:miter;stroke-miterlimit:4;stroke-dasharray:none;stroke-dashoffset:0;stroke-opacity:1;marker:none;color-rendering:auto;image-rendering:auto;shape-rendering:auto;text-rendering:auto;enable-background:accumulate"
     d="M 4.9941406 0 C 3.7359406 0.0145 2.81525 -0.030604375 2.0625 0.38476562 C 1.68613 0.59242563 1.3892694 0.9441525 1.2246094 1.3828125 C 1.0599394 1.8214825 1 2.34239 1 3 L 1 12 C 1 12.65761 1.0598994 13.178577 1.2246094 13.617188 C 1.3892894 14.055798 1.68614 14.405711 2.0625 14.613281 C 2.81522 15.028411 3.7360406 14.98493 4.9941406 15 L 4.9960938 15 L 10.001953 15 L 10.005859 15 C 11.264049 14.9855 12.18475 15.030604 12.9375 14.615234 C 13.31387 14.407574 13.610721 14.055847 13.775391 13.617188 C 13.939921 13.178517 14 12.65761 14 12 L 14 3 C 14 2.34239 13.940101 1.8214225 13.775391 1.3828125 C 13.610711 0.9442025 13.31386 0.59428875 12.9375 0.38671875 C 12.18478 -0.02841125 11.263949 0.01507 10.005859 0 L 10.003906 0 L 4.9980469 0 L 4.9941406 0 z M 5 1 L 6.9375 1 L 6.9375 14 L 5.0058594 14 L 5 14 C 3.74137 13.9848 2.9109019 13.940101 2.5449219 13.738281 C 2.3615019 13.637121 2.2576963 13.525425 2.1601562 13.265625 C 2.0625563 13.005835 2 12.59239 2 12 L 2 3 C 2 2.40761 2.0625963 1.994275 2.1601562 1.734375 C 2.2577562 1.474465 2.363465 1.3629088 2.546875 1.2617188 C 2.912825 1.0598087 3.74148 1.0147 5 1 z M 8 1 L 10 1 C 11.25862 1.0152 12.089098 1.0598987 12.455078 1.2617188 C 12.638498 1.3628787 12.742304 1.474575 12.839844 1.734375 C 12.937244 1.994165 13 2.40761 13 3 L 13 12 C 13 12.59239 12.937404 13.005725 12.839844 13.265625 C 12.742244 13.525535 12.638488 13.637091 12.455078 13.738281 C 12.089118 13.940201 11.25852 13.98529 10 14 L 8 14 L 8 1 z M 3.3339844 10 C 3.1493244 10 3 10.1115 3 10.25 L 3 12.75 C 3 12.8885 3.1493244 13 3.3339844 13 L 5.6660156 13 C 5.8506756 13 6 12.8885 6 12.75 L 6 10.25 C 6 10.1115 5.8506756 10 5.6660156 10 L 3.3339844 10 z M 9.25 10 C 9.1115 10 9 10.1115 9 10.25 L 9 10.75 C 9 10.8885 9.1115 11 9.25 11 L 11.75 11 C 11.8885 11 12 10.8885 12 10.75 L 12 10.25 C 12 10.1115 11.8885 10 11.75 10 L 9.25 10 z M 9.25 12 C 9.1115 12 9 12.1115 9 12.25 L 9 12.75 C 9 12.8885 9.1115 13 9.25 13 L 11.75 13 C 11.8885 13 12 12.8885 12 12.75 L 12 12.25 C 12 12.1115 11.8885 12 11.75 12 L 9.25 12 z " />
</svg>
