<?xml version="1.0" encoding="UTF-8" standalone="no"?>
<svg
   viewBox="0 0 24 24"
   version="1.1"
   id="svg4"
   sodipodi:docname="parental-controls.svg"
   inkscape:version="1.1 (ce6663b3b7, 2021-05-25)"
   width="24"
   height="24"
   xmlns:inkscape="http://www.inkscape.org/namespaces/inkscape"
   xmlns:sodipodi="http://sodipodi.sourceforge.net/DTD/sodipodi-0.dtd"
   xmlns="http://www.w3.org/2000/svg"
   xmlns:svg="http://www.w3.org/2000/svg"
   xmlns:rdf="http://www.w3.org/1999/02/22-rdf-syntax-ns#"
   xmlns:cc="http://creativecommons.org/ns#"
   xmlns:dc="http://purl.org/dc/elements/1.1/">
  <metadata
     id="metadata10">
    <rdf:RDF>
      <cc:Work
         rdf:about="">
        <dc:format>image/svg+xml</dc:format>
        <dc:type
           rdf:resource="http://purl.org/dc/dcmitype/StillImage" />
      </cc:Work>
    </rdf:RDF>
  </metadata>
  <defs
     id="defs8" />
  <sodipodi:namedview
     pagecolor="#ffffff"
     bordercolor="#666666"
     borderopacity="1"
     objecttolerance="10"
     gridtolerance="10"
     guidetolerance="10"
     inkscape:pageopacity="0"
     inkscape:pageshadow="2"
     inkscape:window-width="1920"
     inkscape:window-height="1016"
     id="namedview6"
     showgrid="true"
     inkscape:snap-bbox="true"
     inkscape:bbox-paths="true"
     inkscape:bbox-nodes="true"
     inkscape:snap-bbox-edge-midpoints="true"
     inkscape:snap-bbox-midpoints="true"
     inkscape:object-paths="true"
     inkscape:snap-intersection-paths="true"
     inkscape:snap-smooth-nodes="true"
     inkscape:snap-midpoints="true"
     inkscape:zoom="13.75"
     inkscape:cx="-5.3454547"
     inkscape:cy="6.1454547"
     inkscape:window-x="0"
     inkscape:window-y="27"
     inkscape:window-maximized="1"
     inkscape:current-layer="svg4"
     inkscape:pagecheckerboard="0"
     width="24px">
    <inkscape:grid
       type="xygrid"
       id="grid835" />
  </sodipodi:namedview>
  <path
     d="m 9.5,2 a 2.5,2.5 0 1 1 0,5 2.5,2.5 0 0 1 0,-5 z m -7.5,6.25 h 15 v 1.2525 h -1.50875 c -0.55875,0 -1.205,0.09375 -1.66,0.2925 a 2.55875,2.55875 0 0 0 -1.08375,0.81875 3.00875,3.00875 0 0 0 -0.57625,1.235 6.985,6.985 0 0 0 -0.15875,1.53125 l -0.03,6.12 h -1.25 l 0.0175,-3.75 a 1.2475,1.2475 0 0 0 -1.25,-1.25 c -0.69,0 -1.245,0.56 -1.25,1.25 l -0.0175,3.75 h -1.2325 l 0.03,-6.1275 v -0.01 c -0.03375,-0.53375 -0.05,-1.0375 -0.15875,-1.51375 -0.10875,-0.475 -0.3,-0.88875 -0.57625,-1.23375 a 2.5575,2.5575 0 0 0 -1.08375,-0.82 c -0.45625,-0.2 -1.00875,-0.2925 -1.66,-0.2925 h -1.55125 z"
     fill="#808080"
     font-family="sans-serif"
     font-weight="400"
     overflow="visible"
     style="font-variant-ligatures:normal;font-variant-position:normal;font-variant-caps:normal;font-variant-numeric:normal;font-variant-alternates:normal;font-feature-settings:normal;text-indent:0;text-decoration:none;text-decoration-line:none;text-decoration-style:solid;text-decoration-color:#000000;text-transform:none;text-orientation:mixed;shape-padding:0;isolation:auto;mix-blend-mode:normal;stroke-width:1"
     white-space="normal"
     id="path2" />
  <circle
     style="fill:#808080;fill-rule:evenodd;stroke-width:1;stroke-linecap:square"
     id="path837"
     cx="17.625"
     cy="12.625"
     r="1.875" />
  <path
     id="rect839"
     style="fill:#808080;fill-rule:evenodd;stroke-width:1;stroke-linecap:square"
     d="m 13.25,15.75 v 1.25 c 1.385,0 2.5,1.115 2.5,2.5 v 2.5 h 1.25 v -1.875 c 0,-0.34625 0.27875,-0.625 0.625,-0.625 0.34625,0 0.625,0.27875 0.625,0.625 v 1.875 h 1.25 v -2.5 c 0,-1.385 1.115,-2.5 2.5,-2.5 v -1.25 z" />
</svg>
