<?xml version="1.0" encoding="UTF-8" standalone="no"?>
<svg viewBox="0 1 24 24" height="24" id="svg7384" version="1.1" width="24" sodipodi:docname="pen.svg" inkscape:version="1.1.1 (26b7af14f2, 2022-01-19)"
   xmlns:inkscape="http://www.inkscape.org/namespaces/inkscape"
   xmlns:sodipodi="http://sodipodi.sourceforge.net/DTD/sodipodi-0.dtd"
   xmlns="http://www.w3.org/2000/svg"
   xmlns:svg="http://www.w3.org/2000/svg"
   xmlns:rdf="http://www.w3.org/1999/02/22-rdf-syntax-ns#"
   xmlns:cc="http://creativecommons.org/ns#"
   xmlns:dc="http://purl.org/dc/elements/1.1/">
   <sodipodi:namedview id="namedview21" pagecolor="#ffffff" bordercolor="#666666" borderopacity="1.0" inkscape:pageshadow="2" inkscape:pageopacity="0.0" inkscape:pagecheckerboard="0" showgrid="false" inkscape:snap-page="true" inkscape:zoom="7" inkscape:cx="32.357143" inkscape:cy="6.0714286" inkscape:window-width="1920" inkscape:window-height="1016" inkscape:window-x="0" inkscape:window-y="27" inkscape:window-maximized="1" inkscape:current-layer="svg7384" />
   <metadata id="metadata20854">
      <rdf:RDF>
         <cc:Work rdf:about="">
            <dc:format>image/svg+xml</dc:format>
            <dc:type rdf:resource="http://purl.org/dc/dcmitype/StillImage" />
         </cc:Work>
      </rdf:RDF>
   </metadata>
   <defs id="defs7386">
      <linearGradient id="linearGradient5606" inkscape:swatch="solid">
         <stop id="stop5608" offset="0" style="stop-color:#000000;stop-opacity:1;" />
      </linearGradient>
      <linearGradient id="linearGradient4526" inkscape:swatch="solid">
         <stop id="stop4528" offset="0" style="stop-color:#ffffff;stop-opacity:1;" />
      </linearGradient>
      <linearGradient id="linearGradient3600-4" inkscape:swatch="gradient">
         <stop id="stop3602-7" offset="0" style="stop-color:#f4f4f4;stop-opacity:1" />
         <stop id="stop3604-6" offset="1" style="stop-color:#dbdbdb;stop-opacity:1" />
      </linearGradient>
   </defs>
   <g id="layer9" label="status" style="display:inline;stroke-width:0.727273" transform="matrix(1.375,0,0,1.375,-374.37527,368.125)" />
   <g id="layer2" style="display:inline;stroke-width:0.727273" transform="matrix(1.375,0,0,1.375,-43,-136.5)" />
   <g id="layer4" style="display:inline;stroke-width:0.727273" transform="matrix(1.375,0,0,1.375,-43,-136.5)" />
   <g id="g1812" style="display:inline;stroke-width:0.727273" transform="matrix(1.375,0,0,1.375,-43,-136.5)" />
   <g id="g6217" style="display:inline;stroke-width:0.727273" transform="matrix(1.375,0,0,1.375,-43,-136.5)" />
   <g id="layer3" style="display:inline;stroke-width:0.727273" transform="matrix(1.375,0,0,1.375,-43,-136.5)" />
   <g id="g1833" style="display:inline;stroke-width:0.727273" transform="matrix(1.375,0,0,1.375,-43,-136.5)" />
   <g id="layer1" style="display:inline;stroke-width:0.8" transform="matrix(1.25,0,0,1.25,-38,-123)">
      <path d="m 44.23828,101 -0.35351,0.35938 -8.96875,9.0957 -0.0293,0.0449 c -0.0618,0.0987 -0.27016,0.45 -0.58399,1.08789 -0.31382,0.63789 -0.70008,1.50961 -1.01171,2.49219 l -0.29102,0.91994 0.91992,-0.29102 c 0.9834,-0.31169 1.85436,-0.69795 2.49219,-1.01171 0.63783,-0.31377 0.98702,-0.52071 1.08789,-0.58399 l 0.0449,-0.0293 9.4551,-9.32226 z m -8.34766,9.89063 1.21876,1.21875 -0.17774,0.17578 c 0.007,-0.005 -0.37854,0.22717 -0.96094,0.51367 -0.2142,0.10537 -0.53547,0.22256 -0.83398,0.33789 l -0.27344,-0.27344 c 0.11532,-0.29849 0.23249,-0.61973 0.33789,-0.83398 0.28659,-0.58252 0.51751,-0.96589 0.51367,-0.96094 z" id="path3010" style="font-style:normal;font-variant:normal;font-weight:normal;font-stretch:normal;font-size:15px;line-height:125%;font-family:Ubuntu;-inkscape-font-specification:Ubuntu;text-align:center;letter-spacing:0px;word-spacing:0px;writing-mode:lr-tb;text-anchor:middle;fill:#808080;fill-opacity:1;stroke:none;stroke-width:0.199961" />
   </g>
</svg>
