<?xml version="1.0" encoding="UTF-8" standalone="no"?>
<svg
   height="24"
   width="24"
   version="1.1"
   id="svg8"
   sodipodi:docname="phone-old-filled.svg"
   inkscape:version="1.1 (ce6663b3b7, 2021-05-25)"
   xmlns:inkscape="http://www.inkscape.org/namespaces/inkscape"
   xmlns:sodipodi="http://sodipodi.sourceforge.net/DTD/sodipodi-0.dtd"
   xmlns="http://www.w3.org/2000/svg"
   xmlns:svg="http://www.w3.org/2000/svg"
   xmlns:rdf="http://www.w3.org/1999/02/22-rdf-syntax-ns#"
   xmlns:cc="http://creativecommons.org/ns#"
   xmlns:dc="http://purl.org/dc/elements/1.1/">
  <metadata
     id="metadata14">
    <rdf:RDF>
      <cc:Work
         rdf:about="">
        <dc:format>image/svg+xml</dc:format>
        <dc:type
           rdf:resource="http://purl.org/dc/dcmitype/StillImage" />
      </cc:Work>
    </rdf:RDF>
  </metadata>
  <defs
     id="defs12" />
  <sodipodi:namedview
     pagecolor="#ffffff"
     bordercolor="#666666"
     borderopacity="1"
     objecttolerance="10"
     gridtolerance="10"
     guidetolerance="10"
     inkscape:pageopacity="0"
     inkscape:pageshadow="2"
     inkscape:window-width="1920"
     inkscape:window-height="1016"
     id="namedview10"
     showgrid="true"
     inkscape:zoom="22.627418"
     inkscape:cx="10.496116"
     inkscape:cy="11.291611"
     inkscape:window-x="0"
     inkscape:window-y="27"
     inkscape:window-maximized="1"
     inkscape:current-layer="svg8"
     inkscape:document-rotation="0"
     inkscape:pagecheckerboard="0">
    <inkscape:grid
       type="xygrid"
       id="grid925" />
  </sodipodi:namedview>
  <path
     id="rect4180"
     style="color:#000000;display:inline;overflow:visible;visibility:visible;fill:#808080;fill-opacity:1;fill-rule:nonzero;stroke:none;stroke-width:1.291;stroke-linecap:butt;stroke-linejoin:miter;stroke-miterlimit:4;stroke-dasharray:none;stroke-dashoffset:0;stroke-opacity:1;marker:none;enable-background:accumulate"
     d="M 6.9726562 2 C 6.6409487 2 6.375 2.2787512 6.375 2.625 L 6.375 7.5742188 C 6.375 7.5892057 6.3759631 7.6024625 6.3769531 7.6171875 C 6.3773905 7.6236875 6.3763268 7.6302438 6.3769531 7.6367188 C 6.3764793 7.6899058 6.37565 7.7363194 6.375 7.7910156 L 6.375 18.669922 L 6.375 18.671875 C 6.3875 19.720621 6.3568764 20.485784 6.703125 21.113281 C 6.8756243 21.42703 7.1701575 21.676953 7.5351562 21.814453 C 7.9001556 21.951952 8.3353145 22 8.8828125 22 L 15.125 22 C 15.673748 22 16.107657 21.952652 16.472656 21.816406 C 16.838904 21.678906 17.130235 21.429686 17.302734 21.117188 C 17.648982 20.488439 17.6125 19.720621 17.625 18.671875 L 17.625 7.7910156 C 17.6125 6.7422693 17.650238 5.975154 17.302734 5.3476562 C 17.118411 5.0230787 16.823902 4.7727852 16.472656 4.6464844 C 16.107657 4.5089849 15.668748 4.5674962 15.125 4.5 L 13.875 4.5 L 10.125 4.5 L 8.8828125 4.5 C 8.3436892 4.5 8.0520866 4.4999312 7.625 4.5 L 7.625 2.625 C 7.625 2.2787512 7.3590513 2 7.0273438 2 L 6.9726562 2 z M 8.875 7 L 15.125 7 L 15.125 12 L 8.875 12 L 8.875 7 z M 8.875 13.25 L 10.125 13.25 L 10.125 14.5 L 8.875 14.5 L 8.875 13.25 z M 11.375 13.25 L 12.625 13.25 L 12.625 14.5 L 11.375 14.5 L 11.375 13.25 z M 13.875 13.25 L 15.125 13.25 L 15.125 14.5 L 13.875 14.5 L 13.875 13.25 z M 8.875 15.75 L 10.125 15.75 L 10.125 17 L 8.875 17 L 8.875 15.75 z M 11.375 15.75 L 12.625 15.75 L 12.625 17 L 11.375 17 L 11.375 15.75 z M 13.875 15.75 L 15.125 15.75 L 15.125 17 L 13.875 17 L 13.875 15.75 z M 8.875 18.25 L 10.125 18.25 L 10.125 19.5 L 8.875 19.5 L 8.875 18.25 z M 11.375 18.25 L 12.625 18.25 L 12.625 19.5 L 11.375 19.5 L 11.375 18.25 z M 13.875 18.25 L 15.125 18.25 L 15.125 19.5 L 13.875 19.5 L 13.875 18.25 z " />
</svg>
