<?xml version="1.0" encoding="UTF-8" standalone="no"?>
<svg
   height="16"
   width="16"
   version="1.1"
   id="svg8"
   sodipodi:docname="phone-old.svg"
   inkscape:version="1.1 (ce6663b3b7, 2021-05-25)"
   xmlns:inkscape="http://www.inkscape.org/namespaces/inkscape"
   xmlns:sodipodi="http://sodipodi.sourceforge.net/DTD/sodipodi-0.dtd"
   xmlns="http://www.w3.org/2000/svg"
   xmlns:svg="http://www.w3.org/2000/svg"
   xmlns:rdf="http://www.w3.org/1999/02/22-rdf-syntax-ns#"
   xmlns:cc="http://creativecommons.org/ns#"
   xmlns:dc="http://purl.org/dc/elements/1.1/">
  <metadata
     id="metadata14">
    <rdf:RDF>
      <cc:Work
         rdf:about="">
        <dc:format>image/svg+xml</dc:format>
        <dc:type
           rdf:resource="http://purl.org/dc/dcmitype/StillImage" />
      </cc:Work>
    </rdf:RDF>
  </metadata>
  <defs
     id="defs12" />
  <sodipodi:namedview
     pagecolor="#ffffff"
     bordercolor="#666666"
     borderopacity="1"
     objecttolerance="10"
     gridtolerance="10"
     guidetolerance="10"
     inkscape:pageopacity="0"
     inkscape:pageshadow="2"
     inkscape:window-width="1920"
     inkscape:window-height="1016"
     id="namedview10"
     showgrid="true"
     inkscape:zoom="16.000001"
     inkscape:cx="8.7812496"
     inkscape:cy="10.71875"
     inkscape:window-x="0"
     inkscape:window-y="27"
     inkscape:window-maximized="1"
     inkscape:current-layer="svg8"
     inkscape:document-rotation="0"
     inkscape:pagecheckerboard="0">
    <inkscape:grid
       type="xygrid"
       id="grid925" />
  </sodipodi:namedview>
  <path
     id="rect4180"
     style="color:#000000;display:inline;overflow:visible;visibility:visible;fill:#808080;fill-opacity:1;fill-rule:nonzero;stroke:none;stroke-width:1.291;stroke-linecap:butt;stroke-linejoin:miter;stroke-miterlimit:4;stroke-dasharray:none;stroke-dashoffset:0;stroke-opacity:1;marker:none;enable-background:accumulate"
     d="m 3.478516,-2.8e-5 c -0.265367,0 -0.478516,0.223 -0.478516,0.5 v 3.958984 c 0,0.01199 0.00116,0.02338 0.00195,0.03516 3.5e-4,0.0052 -5.01e-4,0.01045 0,0.01563 -3.79e-4,0.04255 -0.00143,0.07929 -0.00195,0.123047 v 8.703125 0.002 c 0.01,0.839 -0.015281,1.451125 0.261719,1.953125 0.138,0.251 0.374015,0.450547 0.666015,0.560547 0.2920004,0.11 0.6401254,0.148438 1.0781254,0.148438 h 4.9941406 c 0.439,0 0.786125,-0.03749 1.078125,-0.146485 0.293,-0.11 0.526063,-0.310547 0.664063,-0.560547 0.276999,-0.503 0.247812,-1.116078 0.257812,-1.955078 v -8.705078 c -0.01,-0.839 0.02019,-1.453078 -0.257812,-1.955078 -0.147459,-0.259663 -0.383065,-0.459506 -0.664063,-0.560547 -0.292,-0.11 -0.643125,-0.06319 -1.078125,-0.117187 h -1 -3 -0.9941406 c -0.4313002,0 -0.664189,-5.5e-5 -1.0058594,0 v -1.5 c 0,-0.277 -0.213149,-0.5 -0.478516,-0.5 z m 1.5273434,3 h 4.9941406 c 0.428,0 0.663562,0.03169 0.726563,0.05469 0.085,0.032 0.125624,0.07552 0.140625,0.103516 0.095,0.173 0.122812,0.619562 0.132812,1.476562 v 8.703125 c -0.01,0.854 -0.03781,1.298703 -0.132812,1.470703 -0.015,0.03 -0.05563,0.07347 -0.140625,0.105469 -0.123001,0.046 -0.348563,0.08594 -0.726563,0.08594 h -4.9941406 c -0.378,0 -0.6045625,-0.03994 -0.7265625,-0.08594 -0.086,-0.032 -0.1265781,-0.07552 -0.1425781,-0.103516 -0.098,-0.178 -0.1257188,-0.621328 -0.1367188,-1.486328 v -8.689453 c 0.01,-0.853 0.039719,-1.299562 0.1367188,-1.476562 0.016,-0.028 0.056578,-0.07152 0.1425781,-0.103516 0.06,-0.023 0.2985625,-0.05469 0.7265625,-0.05469 z m -0.00586,1 v 4 h 4.9999996 v -4 z m 0,5 v 1 h 1 v -1 z m 2,0 v 1 h 1 v -1 z m 2,0 v 1 h 0.9999996 v -1 z m -4,2 v 1 h 1 v -1 z m 2,0 v 1 h 1 v -1 z m 2,0 v 1 h 0.9999996 v -1 z m -4,2 v 1 h 1 v -1 z m 2,0 v 1 h 1 v -1 z m 2,0 v 1 h 0.9999996 v -1 z" />
</svg>
