<?xml version="1.0" encoding="UTF-8" standalone="no"?>
<svg
   height="24"
   width="24"
   version="1.1"
   id="svg8"
   sodipodi:docname="phone-old.svg"
   inkscape:version="1.1 (ce6663b3b7, 2021-05-25)"
   xmlns:inkscape="http://www.inkscape.org/namespaces/inkscape"
   xmlns:sodipodi="http://sodipodi.sourceforge.net/DTD/sodipodi-0.dtd"
   xmlns="http://www.w3.org/2000/svg"
   xmlns:svg="http://www.w3.org/2000/svg"
   xmlns:rdf="http://www.w3.org/1999/02/22-rdf-syntax-ns#"
   xmlns:cc="http://creativecommons.org/ns#"
   xmlns:dc="http://purl.org/dc/elements/1.1/">
  <metadata
     id="metadata14">
    <rdf:RDF>
      <cc:Work
         rdf:about="">
        <dc:format>image/svg+xml</dc:format>
        <dc:type
           rdf:resource="http://purl.org/dc/dcmitype/StillImage" />
      </cc:Work>
    </rdf:RDF>
  </metadata>
  <defs
     id="defs12" />
  <sodipodi:namedview
     pagecolor="#ffffff"
     bordercolor="#666666"
     borderopacity="1"
     objecttolerance="10"
     gridtolerance="10"
     guidetolerance="10"
     inkscape:pageopacity="0"
     inkscape:pageshadow="2"
     inkscape:window-width="1920"
     inkscape:window-height="1016"
     id="namedview10"
     showgrid="true"
     inkscape:zoom="16.000001"
     inkscape:cx="8.7812495"
     inkscape:cy="10.718749"
     inkscape:window-x="0"
     inkscape:window-y="27"
     inkscape:window-maximized="1"
     inkscape:current-layer="svg8"
     inkscape:document-rotation="0"
     inkscape:pagecheckerboard="0">
    <inkscape:grid
       type="xygrid"
       id="grid925" />
  </sodipodi:namedview>
  <path
     id="rect4180"
     style="color:#000000;display:inline;overflow:visible;visibility:visible;fill:#808080;fill-opacity:1;fill-rule:nonzero;stroke:none;stroke-width:1.291;stroke-linecap:butt;stroke-linejoin:miter;stroke-miterlimit:4;stroke-dasharray:none;stroke-dashoffset:0;stroke-opacity:1;marker:none;enable-background:accumulate"
     d="m 6.9731628,1.9999995 c -0.3317076,0 -0.5981428,0.278749 -0.5981428,0.6249978 v 4.9487126 c 0,0.014987 0.00145,0.029225 0.00244,0.04395 4.374e-4,0.0065 -6.263e-4,0.013063 0,0.019538 -4.738e-4,0.053187 -0.00179,0.099112 -0.00244,0.1538082 v 10.8788679 0.0025 c 0.0125,1.048746 -0.019101,1.8139 0.3271476,2.441397 0.1724993,0.313749 0.467517,0.563182 0.8325157,0.700682 0.3649993,0.137499 0.8001541,0.185547 1.3476521,0.185547 h 6.2426536 c 0.548748,0 0.982653,-0.04686 1.347652,-0.183106 0.366248,-0.1375 0.657576,-0.388182 0.830075,-0.700681 0.346248,-0.628748 0.309764,-1.395093 0.322264,-2.443839 v -10.8813092 c -0.0125,-1.0487463 0.02524,-1.8163411 -0.322264,-2.4438389 -0.184323,-0.3245776 -0.478829,-0.5743805 -0.830075,-0.7006813 -0.364999,-0.1374995 -0.803904,-0.078987 -1.347652,-0.1464832 h -1.249995 -3.749987 -1.2426716 c -0.5391233,0 -0.8302333,-6.88e-5 -1.2573199,0 v -1.8749934 c 0,-0.3462488 -0.2664353,-0.6249978 -0.5981429,-0.6249978 z m 1.9091726,3.7499868 h 6.2426536 c 0.534998,0 0.82945,0.039612 0.908201,0.068362 0.106249,0.04 0.157029,0.0944 0.17578,0.1293945 0.11875,0.2162492 0.153515,0.7744498 0.166015,1.845696 v 10.8788682 c -0.0125,1.067496 -0.04726,1.623373 -0.166015,1.838372 -0.01875,0.0375 -0.06954,0.09184 -0.17578,0.131836 -0.153751,0.0575 -0.435703,0.107424 -0.908201,0.107424 h -6.2426536 c -0.4724983,0 -0.7557004,-0.04992 -0.9081999,-0.107424 -0.1074996,-0.04 -0.1582221,-0.0944 -0.178222,-0.129395 -0.1224997,-0.222499 -0.1571479,-0.776657 -0.1708979,-1.857903 v -10.8617782 c 0.0125,-1.0662462 0.049649,-1.6244468 0.1708979,-1.845696 0.02,-0.035 0.070722,-0.0894 0.178222,-0.1293945 0.075,-0.02875 0.3732018,-0.068362 0.9081999,-0.068362 z m -0.00732,1.2499956 v 4.9999821 h 6.2499776 v -4.9999821 z m 0,6.2499771 v 1.249996 h 1.2499956 v -1.249996 z m 2.4999916,0 v 1.249996 h 1.249995 v -1.249996 z m 2.499991,0 v 1.249996 h 1.249995 v -1.249996 z m -4.9999826,2.499992 v 1.249995 h 1.2499956 v -1.249995 z m 2.4999916,0 v 1.249995 h 1.249995 v -1.249995 z m 2.499991,0 v 1.249995 h 1.249995 v -1.249995 z m -4.9999826,2.499991 v 1.249995 h 1.2499956 v -1.249995 z m 2.4999916,0 v 1.249995 h 1.249995 v -1.249995 z m 2.499991,0 v 1.249995 h 1.249995 v -1.249995 z" />
</svg>
