<?xml version="1.0" encoding="UTF-8" standalone="no"?>
<svg
   height="24"
   width="24"
   version="1.1"
   id="svg4"
   sodipodi:docname="private-mask.svg"
   inkscape:version="1.1 (ce6663b3b7, 2021-05-25)"
   xmlns:inkscape="http://www.inkscape.org/namespaces/inkscape"
   xmlns:sodipodi="http://sodipodi.sourceforge.net/DTD/sodipodi-0.dtd"
   xmlns="http://www.w3.org/2000/svg"
   xmlns:svg="http://www.w3.org/2000/svg">
  <defs
     id="defs8" />
  <sodipodi:namedview
     id="namedview6"
     pagecolor="#ffffff"
     bordercolor="#666666"
     borderopacity="1.0"
     inkscape:pageshadow="2"
     inkscape:pageopacity="0.0"
     inkscape:pagecheckerboard="0"
     showgrid="false"
     inkscape:snap-page="true"
     inkscape:zoom="14"
     inkscape:cx="-4.1785714"
     inkscape:cy="3.6071429"
     inkscape:window-width="1920"
     inkscape:window-height="1016"
     inkscape:window-x="0"
     inkscape:window-y="27"
     inkscape:window-maximized="1"
     inkscape:current-layer="svg4" />
  <path
     d="m 12,6.33375 c -1.95625,0 -3.7875,0.26125 -5.495,0.77875 -1.695,0.52875 -3.19625,1.2375 -4.505,2.0975 v 6.68 c 0.61125,0.53125 1.3125,0.96875 2.1025,1.29625 0.79625,0.32 1.65,0.48 2.5625,0.48 0.9125,0 1.76625,-0.16 2.55625,-0.48 a 7.5775,7.5775 0 0 0 2.1125,-1.29625 1.0125,1.0125 0 0 1 0.66625,-0.24125 c 0.13,0 0.25,0.02125 0.36375,0.065 a 1.09625,1.09625 0 0 1 0.3025,0.175 c 0.61125,0.5325 1.3125,0.97 2.1025,1.2975 0.7975,0.32 1.65,0.48 2.5625,0.48 0.9125,0 1.76625,-0.16 2.5575,-0.48 a 7.5775,7.5775 0 0 0 2.11125,-1.29625 v -6.68125 c -1.30875,-0.86 -2.81625,-1.56875 -4.525,-2.0975 -1.6925,-0.51625 -3.5175,-0.7775 -5.475,-0.7775 z m -0.0025,1.25 h 0.0025 c 1.84375,0 3.54125,0.245 5.105,0.7225 1.39,0.43125 2.5575,1.03375 3.645,1.6875 v 5.2175 c -0.4125,0.30375 -0.8225,0.60875 -1.33,0.8175 h -0.0025 a 5.45625,5.45625 0 0 1 -2.0825,0.3875 5.5375,5.5375 0 0 1 -2.0925,-0.39 6.36,6.36 0 0 1 -1.75625,-1.07875 l -0.01,-0.01 -0.0125,-0.01 a 2.3625,2.3625 0 0 0 -0.64375,-0.37875 h -0.0025 a 2.2875,2.2875 0 0 0 -1.63125,-0.0025 l -0.0075,0.0025 -0.005,0.0025 a 2.3625,2.3625 0 0 0 -0.64,0.375 l -0.01375,0.01125 -0.01,0.01 a 6.3125,6.3125 0 0 1 -1.76125,1.08125 h -0.0025 a 5.455,5.455 0 0 1 -2.0825,0.3875 5.5375,5.5375 0 0 1 -2.09125,-0.39 c -0.5025,-0.20875 -0.915,-0.51125 -1.325,-0.815 v -5.2175 c 1.0825,-0.6525 2.24375,-1.255 3.6175,-1.685 1.5825,-0.48 3.2875,-0.725 5.1325,-0.725 z m -4.6625,3.14625 c -0.6525,0 -1.265,0.11 -1.83375,0.33 -0.565,0.225 -1.065,0.52 -1.50125,0.88375 0.43625,0.36375 0.93625,0.6575 1.5,0.88125 0.57,0.22 1.1825,0.33 1.835,0.33 0.65125,0 1.25875,-0.11 1.82375,-0.33 0.56875,-0.225 1.0725,-0.5175 1.50875,-0.88125 a 5.4475,5.4475 0 0 0 -1.50875,-0.88375 4.98625,4.98625 0 0 0 -1.825,-0.33 z m 9.33,0 c -0.65125,0 -1.26125,0.11 -1.83,0.33 -0.565,0.225 -1.06625,0.52 -1.5025,0.88375 0.4375,0.36375 0.9375,0.6575 1.5025,0.88125 0.56875,0.22 1.17875,0.33 1.83,0.33 0.6525,0 1.2625,-0.11 1.82625,-0.33 0.57,-0.225 1.0725,-0.5175 1.50875,-0.88125 a 5.4475,5.4475 0 0 0 -1.50875,-0.88375 5,5 0 0 0 -1.825,-0.33 z"
     style="line-height:125%;-inkscape-font-specification:Ubuntu;text-align:center;stroke-width:1"
     font-weight="400"
     font-size="14.463px"
     font-family="Ubuntu"
     letter-spacing="0"
     word-spacing="0"
     text-anchor="middle"
     fill="#808080"
     id="path2" />
</svg>
