<?xml version="1.0" encoding="UTF-8" standalone="no"?>
<svg
   height="24"
   width="24"
   version="1.1"
   id="svg4"
   sodipodi:docname="private-mask-filled.svg"
   inkscape:version="1.1 (ce6663b3b7, 2021-05-25)"
   xmlns:inkscape="http://www.inkscape.org/namespaces/inkscape"
   xmlns:sodipodi="http://sodipodi.sourceforge.net/DTD/sodipodi-0.dtd"
   xmlns="http://www.w3.org/2000/svg"
   xmlns:svg="http://www.w3.org/2000/svg">
  <defs
     id="defs8" />
  <sodipodi:namedview
     id="namedview6"
     pagecolor="#ffffff"
     bordercolor="#666666"
     borderopacity="1.0"
     inkscape:pageshadow="2"
     inkscape:pageopacity="0.0"
     inkscape:pagecheckerboard="0"
     showgrid="false"
     inkscape:snap-page="true"
     inkscape:zoom="19.79899"
     inkscape:cx="1.085914"
     inkscape:cy="5.5810928"
     inkscape:window-width="1920"
     inkscape:window-height="1016"
     inkscape:window-x="0"
     inkscape:window-y="27"
     inkscape:window-maximized="1"
     inkscape:current-layer="svg4" />
  <path
     id="path2"
     style="line-height:125%;-inkscape-font-specification:Ubuntu;text-align:center;stroke-width:1;fill:#808080;fill-opacity:1"
     d="M 12 6.3339844 C 10.04375 6.3339844 8.2133594 6.5957813 6.5058594 7.1132812 C 4.8108594 7.6420313 3.30875 8.3509375 2 9.2109375 L 2 15.890625 C 2.61125 16.421875 3.3115625 16.858047 4.1015625 17.185547 C 4.8978125 17.505547 5.7515625 17.666016 6.6640625 17.666016 C 7.5765625 17.666016 8.4307031 17.505547 9.2207031 17.185547 A 7.5775 7.5775 0 0 0 11.333984 15.890625 A 1.0125 1.0125 0 0 1 12 15.648438 C 12.13 15.648438 12.249531 15.669141 12.363281 15.712891 A 1.09625 1.09625 0 0 1 12.666016 15.888672 C 13.277266 16.421172 13.979531 16.858047 14.769531 17.185547 C 15.567031 17.505547 16.419531 17.666016 17.332031 17.666016 C 18.244531 17.666016 19.097422 17.505547 19.888672 17.185547 A 7.5775 7.5775 0 0 0 22 15.890625 L 22 9.2089844 C 20.69125 8.3489844 19.183359 7.6400781 17.474609 7.1113281 C 15.782109 6.5950781 13.9575 6.3339844 12 6.3339844 z M 7.3339844 10.730469 L 7.3359375 10.730469 A 4.98625 4.98625 0 0 1 9.1582031 11.060547 A 5.4475 5.4475 0 0 1 10.667969 11.943359 C 10.231719 12.307109 9.7269531 12.599219 9.1582031 12.824219 C 8.5932031 13.044219 7.9871875 13.154297 7.3359375 13.154297 C 6.6834375 13.154297 6.07 13.044219 5.5 12.824219 C 4.93625 12.600469 4.43625 12.307109 4 11.943359 C 4.43625 11.579609 4.9369531 11.285547 5.5019531 11.060547 C 6.0701345 10.840767 6.6822166 10.730688 7.3339844 10.730469 z M 16.664062 10.730469 L 16.666016 10.730469 A 5 5 0 0 1 18.492188 11.060547 A 5.4475 5.4475 0 0 1 20 11.943359 C 19.56375 12.307109 19.062188 12.599219 18.492188 12.824219 C 17.928437 13.044219 17.316562 13.154297 16.664062 13.154297 C 16.012812 13.154297 15.404687 13.044219 14.835938 12.824219 C 14.270938 12.600469 13.769531 12.307109 13.332031 11.943359 C 13.768281 11.579609 14.270938 11.285547 14.835938 11.060547 C 15.404688 10.840547 16.012812 10.730469 16.664062 10.730469 z " />
</svg>
