<?xml version="1.0" encoding="UTF-8" standalone="no"?>
<svg
   height="24"
   id="svg7384"
   version="1.1"
   width="24"
   sodipodi:docname="selection.svg"
   inkscape:version="1.1 (ce6663b3b7, 2021-05-25)"
   xmlns:inkscape="http://www.inkscape.org/namespaces/inkscape"
   xmlns:sodipodi="http://sodipodi.sourceforge.net/DTD/sodipodi-0.dtd"
   xmlns="http://www.w3.org/2000/svg"
   xmlns:svg="http://www.w3.org/2000/svg"
   xmlns:rdf="http://www.w3.org/1999/02/22-rdf-syntax-ns#"
   xmlns:cc="http://creativecommons.org/ns#"
   xmlns:dc="http://purl.org/dc/elements/1.1/">
  <sodipodi:namedview
     pagecolor="#ffffff"
     bordercolor="#666666"
     borderopacity="1"
     objecttolerance="10"
     gridtolerance="10"
     guidetolerance="10"
     inkscape:pageopacity="0"
     inkscape:pageshadow="2"
     inkscape:window-width="1920"
     inkscape:window-height="1016"
     id="namedview27"
     showgrid="true"
     inkscape:zoom="35.708892"
     inkscape:cx="12.25185"
     inkscape:cy="6.5669918"
     inkscape:window-x="0"
     inkscape:window-y="27"
     inkscape:window-maximized="1"
     inkscape:current-layer="svg7384"
     inkscape:pagecheckerboard="0"
     inkscape:snap-page="true">
    <inkscape:grid
       type="xygrid"
       id="grid859" />
  </sodipodi:namedview>
  <metadata
     id="metadata20854">
    <rdf:RDF>
      <cc:Work
         rdf:about="">
        <dc:format>image/svg+xml</dc:format>
        <dc:type
           rdf:resource="http://purl.org/dc/dcmitype/StillImage" />
      </cc:Work>
    </rdf:RDF>
  </metadata>
  <defs
     id="defs7386">
    <linearGradient
       id="linearGradient5606"
       inkscape:swatch="solid">
      <stop
         id="stop5608"
         offset="0"
         style="stop-color:#000000;stop-opacity:1;" />
    </linearGradient>
    <linearGradient
       id="linearGradient4526"
       inkscape:swatch="solid">
      <stop
         id="stop4528"
         offset="0"
         style="stop-color:#ffffff;stop-opacity:1;" />
    </linearGradient>
    <linearGradient
       id="linearGradient3600-4"
       inkscape:swatch="gradient">
      <stop
         id="stop3602-7"
         offset="0"
         style="stop-color:#f4f4f4;stop-opacity:1" />
      <stop
         id="stop3604-6"
         offset="1"
         style="stop-color:#dbdbdb;stop-opacity:1" />
    </linearGradient>
  </defs>
  <path
     id="rect7774"
     style="fill:#808080;fill-opacity:1;stroke:none;stroke-width:0;stroke-linecap:butt;stroke-linejoin:round;stroke-miterlimit:4;stroke-dasharray:none;stroke-opacity:1"
     d="m 10.75,2 c -1.385,0 -2.5,0.83625 -2.5,1.875 v 1.875 h -1.25 v 1.25 h 1.25 v 6.875 c 0,1.03875 1.115,1.875 2.5,1.875 h 6.25 v 1.25 h 1.25 v -1.25 h 1.25 c 1.385,0 2.5,-0.83625 2.5,-1.875 v -10 c 0,-1.03875 -1.115,-1.875 -2.5,-1.875 z m -1.25,3.75 h 1.25 v 1.25 h -1.25 z m 2.5,0 h 1.25 v 1.25 h -1.25 z m -6.25,0.031739 c -0.9201637,0.02325 -1.7345476,0.08712 -2.3852539,0.4345704 l 0.9716797,0.9716796 c 0.3358537,-0.080875 0.8342067,-0.1215012 1.4135742,-0.1489257 z m 8.75,0 c 0.920164,0.02325 1.734547,0.08712 2.385254,0.4345704 l -0.97168,0.9716796 c -0.335854,-0.080875 -0.834206,-0.1215012 -1.413574,-0.1489257 z m -12.0336914,1.303711 c -0.071813,0.12325 -0.1336707,0.2548789 -0.1855469,0.3930664 -0.20583,0.548325 -0.2807617,1.1994719 -0.2807617,2.0214844 h 1.25 c 0,-0.6691375 0.0686,-1.1327234 0.1708985,-1.459961 z m 15.3173824,0 c 0.07181,0.12325 0.133672,0.2548789 0.185548,0.3930664 0.20583,0.548325 0.280761,1.1994719 0.280761,2.0214844 h -1.25 c 0,-0.6691375 -0.0686,-1.1327234 -0.170899,-1.459961 z m -15.783691,3.664551 v 1.249999 h 1.25 v -1.249999 z m 15,0 h 1.25 v 1.249999 h -1.25 z m -15,2.499999 v 1.25 h 1.25 v -1.25 z m 15,0 h 1.25 v 1.25 h -1.25 z m -15,2.5 v 1.25 h 1.25 v -1.25 z m 0,2.5 c 0,0.822013 0.074932,1.47316 0.2807617,2.021485 0.051876,0.138185 0.1137344,0.269817 0.1855469,0.393067 l 0.9545899,-0.95459 c -0.1022988,-0.327238 -0.1708985,-0.790824 -0.1708985,-1.459961 z m 15,0 c 0,0.669138 -0.0686,1.132724 -0.170899,1.459962 l 0.95459,0.95459 c 0.07181,-0.12325 0.133672,-0.254882 0.185548,-0.393067 0.20583,-0.548326 0.280761,-1.199472 0.280761,-2.021485 z m -12.6635743,2.312012 -0.9716796,0.97168 c 0.6507063,0.34745 1.4650901,0.41132 2.3852539,0.43457 v -1.257324 c -0.5793675,-0.02742 -1.0777205,-0.06805 -1.4135743,-0.148926 z m 11.5771483,0 c -0.335854,0.08088 -0.834207,0.1215 -1.413574,0.148926 v 1.257324 c 0.920164,-0.02325 1.734547,-0.08713 2.385254,-0.43457 z m -8.913574,0.187988 v 1.25 h 1.25 v -1.25 z m 2.5,0 v 1.25 h 1.25 v -1.25 z m 2.5,0 v 1.25 h 1.25 v -1.25 z" />
  <g
     id="layer9"
     label="status"
     style="display:inline;stroke-width:0.8"
     transform="matrix(1.25,0,0,1.25,-364.25025,285.75)" />
  <g
     id="layer2"
     style="display:inline;stroke-width:0.8"
     transform="matrix(1.25,0,0,1.25,-63,-173)" />
  <g
     id="layer4"
     style="display:inline;stroke-width:0.8"
     transform="matrix(1.25,0,0,1.25,-63,-173)" />
  <g
     id="g1812"
     style="display:inline;stroke-width:0.8"
     transform="matrix(1.25,0,0,1.25,-63,-173)" />
  <g
     id="g6217"
     style="display:inline;stroke-width:0.8"
     transform="matrix(1.25,0,0,1.25,-63,-173)" />
  <g
     id="layer3"
     style="display:inline;stroke-width:0.8"
     transform="matrix(1.25,0,0,1.25,-63,-173)" />
  <g
     id="g1833"
     style="display:inline;stroke-width:0.8"
     transform="matrix(1.25,0,0,1.25,-63,-173)" />
</svg>
