<?xml version="1.0" encoding="UTF-8" standalone="no"?>
<svg
   height="24"
   width="24"
   version="1.1"
   id="svg1199"
   sodipodi:docname="server.svg"
   inkscape:version="1.1 (ce6663b3b7, 2021-05-25)"
   xmlns:inkscape="http://www.inkscape.org/namespaces/inkscape"
   xmlns:sodipodi="http://sodipodi.sourceforge.net/DTD/sodipodi-0.dtd"
   xmlns="http://www.w3.org/2000/svg"
   xmlns:svg="http://www.w3.org/2000/svg"
   xmlns:rdf="http://www.w3.org/1999/02/22-rdf-syntax-ns#"
   xmlns:cc="http://creativecommons.org/ns#"
   xmlns:dc="http://purl.org/dc/elements/1.1/">
  <metadata
     id="metadata1205">
    <rdf:RDF>
      <cc:Work
         rdf:about="">
        <dc:format>image/svg+xml</dc:format>
        <dc:type
           rdf:resource="http://purl.org/dc/dcmitype/StillImage" />
      </cc:Work>
    </rdf:RDF>
  </metadata>
  <defs
     id="defs1203" />
  <sodipodi:namedview
     pagecolor="#ffffff"
     bordercolor="#666666"
     borderopacity="1"
     objecttolerance="10"
     gridtolerance="10"
     guidetolerance="10"
     inkscape:pageopacity="0"
     inkscape:pageshadow="2"
     inkscape:window-width="1920"
     inkscape:window-height="1016"
     id="namedview1201"
     showgrid="true"
     inkscape:zoom="16"
     inkscape:cx="-2.71875"
     inkscape:cy="8.15625"
     inkscape:window-x="0"
     inkscape:window-y="27"
     inkscape:window-maximized="1"
     inkscape:current-layer="svg1199"
     inkscape:document-rotation="0"
     inkscape:pagecheckerboard="0">
    <inkscape:grid
       type="xygrid"
       id="grid2431" />
    <inkscape:grid
       type="xygrid"
       id="grid829"
       dotted="true"
       spacingx="0.5"
       spacingy="0.5"
       empspacing="10" />
  </sodipodi:namedview>
  <g
     id="g1012"
     style="opacity:1;fill:#808080;fill-opacity:1;stroke-width:0.800295"
     transform="matrix(1.2495388,0,0,1.2495388,2.0036897,-5.2465396)" />
  <path
     style="color:#000000;opacity:1;fill:#808080;fill-opacity:1;-inkscape-stroke:none"
     d="m 6.5,15.001161 c -0.999999,0 -1.7937715,-0.03671 -2.4726563,0.302734 -0.3394423,0.169722 -0.6300052,0.462434 -0.7968749,0.837891 -0.1668698,0.375457 -0.2304688,0.817709 -0.2304688,1.359375 v 1 c 0,0.541666 0.063599,0.983918 0.2304688,1.359375 0.1668697,0.375457 0.4574326,0.668169 0.7968749,0.837891 0.6788848,0.339442 1.4726573,0.302734 2.4726563,0.302734 h 11 c 0.999999,0 1.793771,0.03671 2.472656,-0.302734 0.339443,-0.169722 0.630005,-0.462434 0.796875,-0.837891 0.16687,-0.375457 0.230469,-0.817709 0.230469,-1.359375 v -1 c 0,-0.541666 -0.0636,-0.983918 -0.230469,-1.359375 -0.16687,-0.375457 -0.457432,-0.668169 -0.796875,-0.837891 -0.678885,-0.339442 -1.472657,-0.302734 -2.472656,-0.302734 z m 0,1 h 11 c 0.999999,0 1.70623,0.03671 2.027344,0.197266 0.160557,0.08028 0.244995,0.162567 0.328125,0.349609 0.08313,0.187042 0.144531,0.494792 0.144531,0.953125 v 1 c 0,0.458333 -0.0614,0.766083 -0.144531,0.953125 -0.08313,0.187042 -0.167568,0.269331 -0.328125,0.349609 -0.321114,0.160557 -1.027345,0.197266 -2.027344,0.197266 h -11 c -0.999999,0 -1.7062295,-0.03671 -2.0273438,-0.197266 -0.1605571,-0.08028 -0.244995,-0.162567 -0.328125,-0.349609 -0.08313,-0.187042 -0.1445312,-0.494792 -0.1445312,-0.953125 v -1 c 0,-0.458333 0.061401,-0.766083 0.1445312,-0.953125 0.08313,-0.187042 0.1675679,-0.269331 0.328125,-0.349609 0.3211143,-0.160557 1.0273448,-0.197266 2.0273438,-0.197266 z"
     id="path2223" />
  <path
     id="rect2798"
     style="opacity:1;fill:#808080;fill-rule:evenodd;stroke-width:1.5;stroke-linecap:square;stroke-linejoin:round"
     d="m 15,18.001161 h 3 v 1 h -3 z" />
  <path
     id="path3040"
     style="color:#000000;opacity:1;fill:#808080;fill-opacity:1;-inkscape-stroke:none"
     d="m 5.7871094,9.0011608 c -0.6769458,0.0056 -1.250602,0.04815 -1.7597656,0.302734 -0.3394423,0.169722 -0.6300054,0.462434 -0.796875,0.8378912 -0.16687,0.375457 -0.2304688,0.817709 -0.2304688,1.359375 v 3.5 h 0.025391 c 0.03095,-0.322059 0.093074,-0.607365 0.2050782,-0.859375 0.1622596,-0.365084 0.4421481,-0.650654 0.7695312,-0.822266 v -1.818359 c 0,-0.458333 0.061401,-0.766083 0.1445312,-0.953125 0.08313,-0.187042 0.1675679,-0.269331 0.328125,-0.349609 0.3211143,-0.160557 1.0273448,-0.197266 2.0273438,-0.197266 h 10.9999996 c 0.999999,0 1.70623,0.03671 2.027344,0.197266 0.160557,0.08028 0.244995,0.162567 0.328125,0.349609 0.08313,0.187042 0.144531,0.494792 0.144531,0.953125 v 1.818359 c 0.327384,0.171612 0.607271,0.457182 0.769531,0.822266 0.112004,0.25201 0.174129,0.537316 0.205078,0.859375 h 0.02539 v -3.5 c 0,-0.541666 -0.0636,-0.983918 -0.230469,-1.359375 -0.16687,-0.3754572 -0.457432,-0.6681692 -0.796875,-0.8378912 -0.678885,-0.339442 -1.472657,-0.302734 -2.472656,-0.302734 h -10.9999996 c -0.2499997,0 -0.487242,-0.00186 -0.71289,0 z"
     sodipodi:nodetypes="ssssccscsssssssscsccssssss" />
  <path
     id="rect3042"
     style="opacity:1;fill:#808080;fill-rule:evenodd;stroke-width:1.5;stroke-linecap:square;stroke-linejoin:round"
     d="m 15,12.001161 h 3 v 1 h -3 z" />
  <path
     id="path3339"
     style="color:#000000;opacity:1;fill:#808080;fill-opacity:1;-inkscape-stroke:none"
     d="m 5.7871094,3.0011608 c -0.6769458,0.00559 -1.250602,0.048153 -1.7597656,0.3027344 -0.3394423,0.1697212 -0.6300054,0.4624336 -0.796875,0.8378906 -0.16687,0.375457 -0.2304688,0.817709 -0.2304688,1.359375 v 3.5 h 0.025391 c 0.03095,-0.322059 0.093074,-0.607365 0.2050782,-0.859375 0.1622596,-0.365084 0.4421481,-0.650654 0.7695312,-0.822266 v -1.818359 c 0,-0.458333 0.061401,-0.766083 0.1445312,-0.953125 0.08313,-0.187042 0.1675679,-0.269331 0.328125,-0.349609 0.3211143,-0.160557 1.0273448,-0.197266 2.0273438,-0.197266 h 10.9999996 c 0.999999,0 1.70623,0.03671 2.027344,0.197266 0.160557,0.08028 0.244995,0.162567 0.328125,0.349609 0.08313,0.187042 0.144531,0.494792 0.144531,0.953125 v 1.818359 c 0.327384,0.171612 0.607271,0.457182 0.769531,0.822266 0.112004,0.25201 0.174129,0.537316 0.205078,0.859375 h 0.02539 v -3.5 c 0,-0.541666 -0.0636,-0.983918 -0.230469,-1.359375 -0.16687,-0.375457 -0.457432,-0.6681694 -0.796875,-0.8378906 -0.678885,-0.3394424 -1.472657,-0.3027344 -2.472656,-0.3027344 h -10.9999996 c -0.2499997,0 -0.487242,-0.00186 -0.71289,0 z"
     sodipodi:nodetypes="csssccscsssssssscsccsssssc" />
  <path
     id="rect3341"
     style="opacity:1;fill:#808080;fill-rule:evenodd;stroke-width:1.5;stroke-linecap:square;stroke-linejoin:round"
     d="m 15,6.0011608 h 3 v 1 h -3 z" />
</svg>
