<?xml version="1.0" encoding="UTF-8" standalone="no"?>
<svg
   height="24"
   width="24"
   version="1.1"
   id="svg1199"
   sodipodi:docname="server.svg"
   inkscape:version="1.1 (ce6663b3b7, 2021-05-25)"
   xmlns:inkscape="http://www.inkscape.org/namespaces/inkscape"
   xmlns:sodipodi="http://sodipodi.sourceforge.net/DTD/sodipodi-0.dtd"
   xmlns="http://www.w3.org/2000/svg"
   xmlns:svg="http://www.w3.org/2000/svg"
   xmlns:rdf="http://www.w3.org/1999/02/22-rdf-syntax-ns#"
   xmlns:cc="http://creativecommons.org/ns#"
   xmlns:dc="http://purl.org/dc/elements/1.1/">
  <metadata
     id="metadata1205">
    <rdf:RDF>
      <cc:Work
         rdf:about="">
        <dc:format>image/svg+xml</dc:format>
        <dc:type
           rdf:resource="http://purl.org/dc/dcmitype/StillImage" />
      </cc:Work>
    </rdf:RDF>
  </metadata>
  <defs
     id="defs1203" />
  <sodipodi:namedview
     pagecolor="#ffffff"
     bordercolor="#666666"
     borderopacity="1"
     objecttolerance="10"
     gridtolerance="10"
     guidetolerance="10"
     inkscape:pageopacity="0"
     inkscape:pageshadow="2"
     inkscape:window-width="1920"
     inkscape:window-height="1016"
     id="namedview1201"
     showgrid="false"
     inkscape:zoom="22.627417"
     inkscape:cx="1.9666407"
     inkscape:cy="8.639961"
     inkscape:window-x="0"
     inkscape:window-y="27"
     inkscape:window-maximized="1"
     inkscape:current-layer="svg1199"
     inkscape:document-rotation="0"
     inkscape:pagecheckerboard="0">
    <inkscape:grid
       type="xygrid"
       id="grid2431" />
  </sodipodi:namedview>
  <path
     id="path1197"
     style="line-height:normal;text-indent:0;text-align:start;text-decoration:none;text-decoration-line:none;text-decoration-style:solid;text-decoration-color:#000000;text-transform:none;white-space:normal;isolation:auto;mix-blend-mode:normal;solid-color:#000000;solid-opacity:1;fill:#808080;stroke-width:1;marker:none"
     d="m 7.0018449,1.9999894 c -0.8221963,-6.022e-4 -1.4734405,0.074484 -2.0207385,0.2806581 -0.5272264,0.1891515 -0.9695144,0.5604657 -1.2470983,1.0469769 -0.5198081,0.9396532 -0.4620365,2.0912789 -0.4807796,3.6631987 v 1.1738832 c 0.3577801,-0.3445061 0.777241,-0.6213984 1.2495388,-0.7956049 v -0.3709568 c 0.018743,-1.5744189 0.072181,-2.6079437 0.3245872,-3.0652749 0.1249539,-0.2299151 0.2681628,-0.3620147 0.5930429,-0.4832201 0.3248801,-0.1212053 0.8417208,-0.2006632 1.5814475,-0.2001214 l 9.9963101,0.00732 c 0.739727,5.418e-4 1.256567,0.078916 1.581447,0.2001214 0.32488,0.1224548 0.466839,0.2545545 0.593044,0.4832201 0.252406,0.4573312 0.305844,1.490856 0.324587,3.0652749 v 0.3685155 c 0.472316,0.1740443 0.891925,0.4509433 1.249538,0.7956048 v -1.1714426 c -0.01874,-1.5719198 0.03777,-2.7222959 -0.48078,-3.6631987 -0.277584,-0.486511 -0.719874,-0.8578252 -1.247096,-1.0469769 -0.5473,-0.2049243 -1.199793,-0.2800568 -2.020739,-0.2806581 z"
     sodipodi:nodetypes="scccccccssscsccccccss" />
  <path
     id="path869"
     style="line-height:normal;text-indent:0;text-align:start;text-decoration:none;text-decoration-line:none;text-decoration-style:solid;text-decoration-color:#000000;text-transform:none;white-space:normal;isolation:auto;mix-blend-mode:normal;solid-color:#000000;solid-opacity:1;fill:#808080;stroke-width:1.00182;marker:none"
     d="m 6.9836491,14.495378 c -0.8251896,-6.02e-4 -1.4788039,0.07449 -2.0280955,0.280657 -0.5291436,0.189152 -0.973043,0.560466 -1.2516373,1.046978 -0.3651314,0.657649 -0.4284001,1.484248 -0.4506878,2.420981 0.022285,0.936733 0.085566,1.763332 0.4506878,2.420982 0.2785943,0.486511 0.7224924,0.857825 1.2516373,1.046977 0.5492916,0.206174 1.2029059,0.280055 2.0280955,0.280658 l 10.0327019,0.0074 c 0.823936,6.02e-4 1.478803,-0.07574 2.028095,-0.280658 0.529142,-0.189153 0.973044,-0.560467 1.251638,-1.046977 0.364986,-0.659994 0.4283,-1.4893 0.450687,-2.428354 -0.02288,-0.932543 -0.08754,-1.757134 -0.450687,-2.41366 -0.278594,-0.486511 -0.722496,-0.857825 -1.251638,-1.046976 -0.54929,-0.204975 -1.204159,-0.280057 -2.028095,-0.280659 z m 0,1.249539 10.0327019,0.0074 c 0.742419,5.42e-4 1.261142,0.07892 1.587204,0.200122 0.326064,0.122455 0.468539,0.254554 0.595202,0.483219 0.171786,0.310127 0.23724,0.979368 0.276782,1.808415 -0.03931,0.836445 -0.104049,1.511219 -0.276783,1.823057 -0.126662,0.228666 -0.269138,0.360766 -0.595201,0.483221 -0.326062,0.121205 -0.844785,0.200663 -1.587204,0.200121 l -10.0327019,-0.0074 c -0.7424198,-5.43e-4 -1.2611419,-0.07892 -1.5872048,-0.200121 -0.3260627,-0.121206 -0.4697924,-0.253306 -0.5952013,-0.483221 -0.1722614,-0.310949 -0.2373536,-0.982997 -0.2767821,-1.815736 0.039428,-0.832743 0.1045277,-1.504752 0.2767821,-1.815736 0.1254089,-0.229915 0.2691386,-0.362015 0.5952013,-0.48322 0.3260629,-0.121206 0.844785,-0.200664 1.5872048,-0.200121 z" />
  <g
     id="g1012"
     style="opacity:0.503452;stroke-width:0.800295"
     transform="matrix(1.2495388,0,0,1.2495388,2.0036897,-4.2477004)" />
  <path
     id="path1197-27"
     style="line-height:normal;text-indent:0;text-align:start;text-decoration:none;text-decoration-line:none;text-decoration-style:solid;text-decoration-color:#000000;text-transform:none;white-space:normal;isolation:auto;mix-blend-mode:normal;solid-color:#000000;solid-opacity:1;fill:#808080;stroke-width:1;marker:none"
     d="m 7.0018449,8.247687 c -0.8221963,-6.022e-4 -1.4734405,0.074484 -2.0207385,0.2806582 -0.5272264,0.1891514 -0.9695144,0.5604656 -1.2470983,1.0469768 -0.5198081,0.939653 -0.4620365,2.091279 -0.4807796,3.663199 v 1.173883 c 0.3577801,-0.344506 0.777241,-0.621398 1.2495388,-0.795605 v -0.370956 c 0.018743,-1.57442 0.072181,-2.607944 0.3245872,-3.065276 0.1249539,-0.2299148 0.2681628,-0.3620144 0.5930429,-0.4832198 0.3248801,-0.1212052 0.8417208,-0.2006632 1.5814475,-0.2001214 l 9.9963101,0.00732 c 0.739727,5.418e-4 1.256567,0.078916 1.581447,0.2001214 0.32488,0.1224548 0.466839,0.2545546 0.593044,0.4832198 0.252406,0.457332 0.305844,1.490856 0.324587,3.065276 v 0.368515 c 0.472316,0.174045 0.891925,0.450944 1.249538,0.795605 v -1.171442 c -0.01874,-1.571921 0.03777,-2.722297 -0.48078,-3.6631997 -0.277584,-0.4865111 -0.719874,-0.8578253 -1.247096,-1.046977 -0.5473,-0.2049243 -1.199793,-0.2800567 -2.020739,-0.280658 z"
     sodipodi:nodetypes="scccccccssscsccccccss" />
  <rect
     style="opacity:1;fill:#808080;stroke:none;stroke-width:2;stroke-linecap:round;stroke-linejoin:round;stroke-miterlimit:4;stroke-dasharray:none"
     id="rect1035"
     width="2.4990776"
     height="1.2495388"
     x="15.748616"
     y="5.7486057" />
  <rect
     style="opacity:1;fill:#808080;stroke:none;stroke-width:2;stroke-linecap:round;stroke-linejoin:round;stroke-miterlimit:4;stroke-dasharray:none"
     id="rect1035-0"
     width="2.4990776"
     height="1.2495388"
     x="15.748616"
     y="11.9963" />
  <rect
     style="opacity:1;fill:#808080;stroke:none;stroke-width:2;stroke-linecap:round;stroke-linejoin:round;stroke-miterlimit:4;stroke-dasharray:none"
     id="rect1035-9"
     width="2.4990776"
     height="1.2495388"
     x="15.748616"
     y="18.243994" />
</svg>
