<?xml version="1.0" encoding="UTF-8" standalone="no"?>
<svg
   height="24"
   width="24"
   version="1.1"
   id="svg4"
   sodipodi:docname="share.svg"
   inkscape:version="1.1 (ce6663b3b7, 2021-05-25)"
   xmlns:inkscape="http://www.inkscape.org/namespaces/inkscape"
   xmlns:sodipodi="http://sodipodi.sourceforge.net/DTD/sodipodi-0.dtd"
   xmlns="http://www.w3.org/2000/svg"
   xmlns:svg="http://www.w3.org/2000/svg">
  <defs
     id="defs8" />
  <sodipodi:namedview
     id="namedview6"
     pagecolor="#ffffff"
     bordercolor="#666666"
     borderopacity="1.0"
     inkscape:pageshadow="2"
     inkscape:pageopacity="0.0"
     inkscape:pagecheckerboard="0"
     showgrid="false"
     inkscape:snap-page="true"
     inkscape:zoom="14"
     inkscape:cx="6.6071429"
     inkscape:cy="1.9642857"
     inkscape:window-width="1920"
     inkscape:window-height="1016"
     inkscape:window-x="0"
     inkscape:window-y="27"
     inkscape:window-maximized="1"
     inkscape:current-layer="svg4" />
  <path
     d="m 20.75,5.75 c 0,-1.71875 -1.40625,-3.125 -3.125,-3.125 a 3.135,3.135 0 0 0 -3.125,3.125 c 0,1.71875 1.40625,3.125 3.125,3.125 1.71875,0 3.125,-1.40625 3.125,-3.125 z m 0,12.5 c 0,-1.71875 -1.40625,-3.125 -3.125,-3.125 a 3.135,3.135 0 0 0 -3.125,3.125 c 0,1.71875 1.40625,3.125 3.125,3.125 1.71875,0 3.125,-1.40625 3.125,-3.125 z m -1.25,-12.5 c 0,1.0425 -0.8325,1.875 -1.875,1.875 -1.0425,0 -1.875,-0.8325 -1.875,-1.875 0,-1.0425 0.8325,-1.875 1.875,-1.875 1.0425,0 1.875,0.8325 1.875,1.875 z m 0,12.5 c 0,1.0425 -0.8325,1.875 -1.875,1.875 -1.0425,0 -1.875,-0.8325 -1.875,-1.875 0,-1.0425 0.8325,-1.875 1.875,-1.875 1.0425,0 1.875,0.8325 1.875,1.875 z m -5.3325,-9.8625 a 4.36875,4.36875 0 0 1 -0.6175,-1.09 l -4.81625,2.67875 a 3.10875,3.10875 0 0 0 -2.35875,-1.10125 3.135,3.135 0 0 0 -3.125,3.125 c 0,1.71875 1.40625,3.125 3.125,3.125 0.94375,0 1.78375,-0.43375 2.35875,-1.1 l 4.81625,2.6775 c 0.1525,-0.395 0.3625,-0.7575 0.6175,-1.08875 l -4.82625,-2.68125 c 0.09375,-0.295 0.15875,-0.60625 0.15875,-0.9325 0,-0.32625 -0.065,-0.63625 -0.15875,-0.9325 z m -5.9175,3.6125 c 0,1.0425 -0.8325,1.875 -1.875,1.875 -1.0425,0 -1.875,-0.8325 -1.875,-1.875 0,-1.0425 0.8325,-1.875 1.875,-1.875 1.0425,0 1.875,0.8325 1.875,1.875 z"
     style="line-height:normal;font-variant-ligatures:normal;font-variant-position:normal;font-variant-caps:normal;font-variant-numeric:normal;font-variant-alternates:normal;font-feature-settings:normal;text-indent:0;text-align:start;text-decoration-line:none;text-decoration-style:solid;text-decoration-color:#000000;text-transform:none;text-orientation:mixed;shape-padding:0;isolation:auto;mix-blend-mode:normal;stroke-width:1"
     color="#000000"
     font-weight="400"
     font-family="sans-serif"
     white-space="normal"
     overflow="visible"
     fill="#808080"
     id="path2" />
</svg>
