<?xml version="1.0" encoding="UTF-8" standalone="no"?>
<svg
   height="24"
   width="24"
   version="1.1"
   id="svg4"
   sodipodi:docname="shield.svg"
   inkscape:version="1.1 (ce6663b3b7, 2021-05-25)"
   xmlns:inkscape="http://www.inkscape.org/namespaces/inkscape"
   xmlns:sodipodi="http://sodipodi.sourceforge.net/DTD/sodipodi-0.dtd"
   xmlns="http://www.w3.org/2000/svg"
   xmlns:svg="http://www.w3.org/2000/svg">
  <defs
     id="defs8" />
  <sodipodi:namedview
     id="namedview6"
     pagecolor="#ffffff"
     bordercolor="#666666"
     borderopacity="1.0"
     inkscape:pageshadow="2"
     inkscape:pageopacity="0.0"
     inkscape:pagecheckerboard="0"
     showgrid="false"
     inkscape:snap-page="true"
     inkscape:zoom="14"
     inkscape:cx="-1.6785714"
     inkscape:cy="3.9642857"
     inkscape:window-width="1920"
     inkscape:window-height="1016"
     inkscape:window-x="0"
     inkscape:window-y="27"
     inkscape:window-maximized="1"
     inkscape:current-layer="svg4" />
  <path
     d="m 12,2.3275 c 0,0 -2.045,3.4225 -7.5,3.4225 0,11.6375 7.5,15.7425 7.5,15.7425 0,0 7.5,-4.105 7.5,-15.7425 -5.455,0 -7.5,-3.4225 -7.5,-3.4225 z m 0,1.7325 c 0.34,0.39 0.32125,0.525 0.97625,0.99375 1.14,0.8175 2.9525,1.4875 5.19125,1.73875 -0.2175,4.92875 -1.79875,8.3025 -3.4125,10.44 -1.2275,1.6225 -2.175,2.3475 -2.755,2.74125 -0.57875,-0.39375 -1.5275,-1.11875 -2.75375,-2.74125 -1.615,-2.1375 -3.19625,-5.51125 -3.4125,-10.44 2.2375,-0.25 4.05,-0.92125 5.19,-1.7375 0.655,-0.47125 0.6375,-0.60375 0.97625,-0.995 z m 0,1.76125 c -0.115,0.1 -0.09125,0.135 -0.25,0.24875 -1.11,0.79625 -2.6875,1.3325 -4.47625,1.6825 0.38125,4.0375 1.6275,6.9475 2.97125,8.725 0.82,1.085 1.26875,1.37125 1.755,1.76 0.4875,-0.3875 0.9375,-0.675 1.7575,-1.76 1.34375,-1.7775 2.59,-4.68625 2.97125,-8.7225 -1.79,-0.35 -3.36875,-0.8875 -4.48,-1.685 -0.1575,-0.1125 -0.13375,-0.15 -0.24875,-0.25 z"
     style="stroke-width:1;marker:none"
     color="#000000"
     overflow="visible"
     fill="#808080"
     id="path2" />
</svg>
