<?xml version="1.0" encoding="UTF-8" standalone="no"?>
<svg
   height="24"
   width="24"
   version="1.1"
   id="svg4"
   sodipodi:docname="smartphone.svg"
   inkscape:version="1.1 (ce6663b3b7, 2021-05-25)"
   xmlns:inkscape="http://www.inkscape.org/namespaces/inkscape"
   xmlns:sodipodi="http://sodipodi.sourceforge.net/DTD/sodipodi-0.dtd"
   xmlns="http://www.w3.org/2000/svg"
   xmlns:svg="http://www.w3.org/2000/svg">
  <defs
     id="defs8" />
  <sodipodi:namedview
     id="namedview6"
     pagecolor="#ffffff"
     bordercolor="#666666"
     borderopacity="1.0"
     inkscape:pageshadow="2"
     inkscape:pageopacity="0.0"
     inkscape:pagecheckerboard="0"
     showgrid="false"
     inkscape:zoom="14"
     inkscape:cx="4.1785714"
     inkscape:cy="6.8928571"
     inkscape:window-width="1920"
     inkscape:window-height="1016"
     inkscape:window-x="0"
     inkscape:window-y="27"
     inkscape:window-maximized="1"
     inkscape:current-layer="svg4" />
  <path
     d="m 8.8749997,2 c -0.6775,0 -1.23,0.08 -1.7,0.2875 a 2.15,2.15 0 0 0 -1.04625,0.99625 c -0.425,0.85 -0.37875,1.84125 -0.37875,3.09125 v 11.25 c 0,1.25 -0.04625,2.245 0.37875,3.09375 0.2125,0.425 0.5775,0.785 1.0475,0.99375 0.46875,0.2075 1.02125,0.2875 1.69875,0.2875 h 6.2500003 c 0.6775,0 1.23,-0.08 1.7,-0.2875 0.46875,-0.20875 0.835,-0.57 1.04625,-0.99375 0.425,-0.85 0.37875,-1.84375 0.37875,-3.09375 v -11.25 c 0,-1.25 0.04625,-2.2425 -0.37875,-3.09125 a 2.15,2.15 0 0 0 -1.0475,-0.995 c -0.46875,-0.20875 -1.02125,-0.28875 -1.69875,-0.28875 z m -1.7875,2.5 h 9.8250003 c 0.0625,0.46625 0.0875,1.0875 0.0875,1.875 v 11.25 c 0,0.7875 -0.025,1.4075 -0.0875,1.875 h -9.8250003 c -0.0625,-0.4675 -0.0875,-1.0875 -0.0875,-1.875 v -11.25 c 0,-0.7875 0.025,-1.40875 0.0875,-1.875 z"
     style="line-height:normal;font-variant-ligatures:normal;font-variant-position:normal;font-variant-caps:normal;font-variant-numeric:normal;font-variant-alternates:normal;font-feature-settings:normal;text-indent:0;text-align:start;text-decoration-line:none;text-decoration-style:solid;text-decoration-color:#000000;text-transform:none;text-orientation:mixed;shape-padding:0;isolation:auto;mix-blend-mode:normal;stroke-width:1;marker:none"
     color="#000000"
     font-weight="400"
     font-family="sans-serif"
     white-space="normal"
     overflow="visible"
     fill="#808080"
     id="path2" />
</svg>
