<?xml version="1.0" encoding="UTF-8" standalone="no"?>
<svg
   height="24"
   width="24"
   version="1.1"
   id="svg4"
   sodipodi:docname="star.svg"
   inkscape:version="1.1 (ce6663b3b7, 2021-05-25)"
   xmlns:inkscape="http://www.inkscape.org/namespaces/inkscape"
   xmlns:sodipodi="http://sodipodi.sourceforge.net/DTD/sodipodi-0.dtd"
   xmlns="http://www.w3.org/2000/svg"
   xmlns:svg="http://www.w3.org/2000/svg">
  <defs
     id="defs8" />
  <sodipodi:namedview
     id="namedview6"
     pagecolor="#ffffff"
     bordercolor="#666666"
     borderopacity="1.0"
     inkscape:pageshadow="2"
     inkscape:pageopacity="0.0"
     inkscape:pagecheckerboard="0"
     showgrid="false"
     inkscape:snap-page="true"
     inkscape:zoom="28"
     inkscape:cx="5.625"
     inkscape:cy="8.0535714"
     inkscape:window-width="1920"
     inkscape:window-height="1016"
     inkscape:window-x="0"
     inkscape:window-y="27"
     inkscape:window-maximized="1"
     inkscape:current-layer="svg4" />
  <path
     d="m 11.995,3.2525 -0.0025,0.0025 -0.0025,0.0025 c -1.0525,2.2625 -1.86875,4.5675 -2.33125,5.98 -1.525,0.00125 -4.03375,0.05875 -6.425,0.36875 l 0.00125,0.0025 v 0.0025 l 0.0025,0.0025 v 0.0025 c 1.82625,1.70125 3.7675,3.1875 4.96875,4.065 -0.47,1.45 -1.1925,3.855 -1.63625,6.225 h 0.01 c 2.18375,-1.21 4.1975,-2.5975 5.40375,-3.46875 1.2325,0.895 3.3,2.325 5.41625,3.47875 v -0.0025 -0.0025 -0.0025 l 0.0025,-0.0025 c -0.47625,-2.45 -1.175,-4.795 -1.63,-6.21 1.2325,-0.8975 3.2275,-2.41875 4.98,-4.075 l -0.0025,-0.00125 h -0.0025 l -0.0025,-0.0025 v -0.0025 c -2.4775,-0.30375 -4.92125,-0.365 -6.40875,-0.36875 -0.47125,-1.44875 -1.305,-3.81625 -2.33625,-5.99375 h -0.0038 z m 0.0025,3.4275 c 0.3925,1.035 0.91625,2.2375 1.15,2.95375 l 0.28125,0.86 0.9025,0.0025 c 0.735,0.0025 2.06625,0.12875 3.1625,0.1825 -0.86375,0.69375 -1.84625,1.5625 -2.45625,2.0075 l -0.7325,0.5325 0.2775,0.8625 c 0.225,0.6975 0.51625,2.00125 0.80375,3.06 -0.92625,-0.60625 -2.0575,-1.27 -2.66875,-1.7125 l -0.7325,-0.53375 -0.7325,0.53 c -0.595,0.43 -1.745,1.10875 -2.6625,1.70875 0.29,-1.0675 0.5725,-2.34875 0.805,-3.06625 l 0.27875,-0.85875 -0.73,-0.535 c -0.59375,-0.43375 -1.595,-1.31625 -2.45,-2.00375 1.10625,-0.05375 2.4125,-0.18 3.1675,-0.18125 l 0.90375,-0.0025 0.2825,-0.85875 c 0.22875,-0.69875 0.76,-1.9225 1.15,-2.9475 z"
     style="stroke-width:1;marker:none"
     color="#000000"
     overflow="visible"
     fill="#808080"
     id="path2" />
</svg>
