<?xml version="1.0" encoding="UTF-8" standalone="no"?>
<svg
   height="24"
   width="24"
   version="1.1"
   id="svg4"
   sodipodi:docname="star.svg"
   inkscape:version="1.1 (ce6663b3b7, 2021-05-25)"
   xmlns:inkscape="http://www.inkscape.org/namespaces/inkscape"
   xmlns:sodipodi="http://sodipodi.sourceforge.net/DTD/sodipodi-0.dtd"
   xmlns="http://www.w3.org/2000/svg"
   xmlns:svg="http://www.w3.org/2000/svg">
  <defs
     id="defs8" />
  <sodipodi:namedview
     id="namedview6"
     pagecolor="#ffffff"
     bordercolor="#666666"
     borderopacity="1.0"
     inkscape:pageshadow="2"
     inkscape:pageopacity="0.0"
     inkscape:pagecheckerboard="0"
     showgrid="false"
     inkscape:snap-page="true"
     inkscape:zoom="14"
     inkscape:cx="-12.107143"
     inkscape:cy="8.25"
     inkscape:window-width="1920"
     inkscape:window-height="1016"
     inkscape:window-x="0"
     inkscape:window-y="27"
     inkscape:window-maximized="1"
     inkscape:current-layer="svg4" />
  <path
     d="m 12,3.25 -0.0025,0.00125 -0.0013,0.0025 -0.0025,0.00125 -0.0025,0.0025 c -1.05375,2.2625 -1.86875,4.5675 -2.3325,5.98 -1.52375,0 -4.0325,0.05875 -6.425,0.36875 v 0.0025 l 0.00125,0.0025 0.00125,0.0025 0.00125,0.00125 c 1.825,1.7025 3.7675,3.18875 4.96875,4.06625 -0.47,1.45 -1.19125,3.855 -1.635,6.225 h 0.01 c 2.1825,-1.21125 4.1975,-2.5975 5.4025,-3.46875 1.23375,0.895 3.29875,2.32375 5.41625,3.47875 v -0.0025 -0.0025 -0.0025 l 0.0012,-0.0025 c -0.47625,-2.45 -1.1725,-4.795 -1.62875,-6.21 1.2325,-0.89625 3.22875,-2.41875 4.98125,-4.075 l -0.0038,-0.00125 h -0.0025 l -0.0025,-0.0025 -0.0013,-0.0025 c -2.47875,-0.3025 -4.9225,-0.365 -6.41,-0.36875 -0.47,-1.45 -1.30125,-3.8175 -2.33625,-5.99625 z"
     style="stroke-width:1;marker:none"
     color="#000000"
     overflow="visible"
     fill="#808080"
     id="path2" />
</svg>
