<?xml version="1.0" encoding="UTF-8" standalone="no"?>
<svg
   height="24"
   id="svg7384"
   version="1.1"
   width="24"
   sodipodi:docname="stopwatch.svg"
   inkscape:version="1.1 (ce6663b3b7, 2021-05-25)"
   xmlns:inkscape="http://www.inkscape.org/namespaces/inkscape"
   xmlns:sodipodi="http://sodipodi.sourceforge.net/DTD/sodipodi-0.dtd"
   xmlns="http://www.w3.org/2000/svg"
   xmlns:svg="http://www.w3.org/2000/svg"
   xmlns:rdf="http://www.w3.org/1999/02/22-rdf-syntax-ns#"
   xmlns:cc="http://creativecommons.org/ns#"
   xmlns:dc="http://purl.org/dc/elements/1.1/">
  <sodipodi:namedview
     id="namedview24"
     pagecolor="#ffffff"
     bordercolor="#666666"
     borderopacity="1.0"
     inkscape:pageshadow="2"
     inkscape:pageopacity="0.0"
     inkscape:pagecheckerboard="0"
     showgrid="false"
     inkscape:zoom="27.998942"
     inkscape:cx="5.2323406"
     inkscape:cy="8.7681885"
     inkscape:window-width="1920"
     inkscape:window-height="1016"
     inkscape:window-x="0"
     inkscape:window-y="27"
     inkscape:window-maximized="1"
     inkscape:current-layer="svg7384" />
  <metadata
     id="metadata20854">
    <rdf:RDF>
      <cc:Work
         rdf:about="">
        <dc:format>image/svg+xml</dc:format>
        <dc:type
           rdf:resource="http://purl.org/dc/dcmitype/StillImage" />
      </cc:Work>
    </rdf:RDF>
  </metadata>
  <defs
     id="defs7386">
    <linearGradient
       id="linearGradient5606"
       inkscape:swatch="solid">
      <stop
         id="stop5608"
         offset="0"
         style="stop-color:#000000;stop-opacity:1;" />
    </linearGradient>
    <linearGradient
       id="linearGradient4526"
       inkscape:swatch="solid">
      <stop
         id="stop4528"
         offset="0"
         style="stop-color:#ffffff;stop-opacity:1;" />
    </linearGradient>
    <linearGradient
       id="linearGradient3600-4"
       inkscape:swatch="gradient">
      <stop
         id="stop3602-7"
         offset="0"
         style="stop-color:#f4f4f4;stop-opacity:1" />
      <stop
         id="stop3604-6"
         offset="1"
         style="stop-color:#dbdbdb;stop-opacity:1" />
    </linearGradient>
  </defs>
  <g
     id="layer9"
     label="status"
     style="display:inline;stroke-width:0.800033"
     transform="matrix(1.2499489,0,0,1.2499489,-413.60778,-214.24116)" />
  <g
     id="layer2"
     style="display:inline;stroke-width:0.800033"
     transform="matrix(1.2499489,0,0,1.2499489,-112.36985,-672.97241)" />
  <g
     id="layer4"
     style="display:inline;stroke-width:0.800033"
     transform="matrix(1.2499489,0,0,1.2499489,-112.36985,-672.97241)" />
  <g
     id="g1812"
     style="display:inline;stroke-width:0.800033"
     transform="matrix(1.2499489,0,0,1.2499489,-112.36985,-672.97241)" />
  <g
     id="g6217"
     style="display:inline;stroke-width:0.800033"
     transform="matrix(1.2499489,0,0,1.2499489,-112.36985,-672.97241)" />
  <g
     id="layer3"
     style="display:inline;stroke-width:0.800033"
     transform="matrix(1.2499489,0,0,1.2499489,-112.36985,-672.97241)" />
  <g
     id="g1833"
     style="display:inline;stroke-width:0.800033"
     transform="matrix(1.2499489,0,0,1.2499489,-112.36985,-672.97241)" />
  <g
     id="layer1"
     style="display:inline;stroke-width:0.800033"
     transform="matrix(1.2499489,0,0,1.2499489,-112.36985,-672.97241)">
    <rect
       height="2"
       id="rect5109"
       rx="0.80003268"
       ry="0.80003268"
       style="opacity:1;vector-effect:none;fill:#808080;fill-opacity:1;stroke:none;stroke-width:1.60007;stroke-linecap:round;stroke-linejoin:round;stroke-miterlimit:4;stroke-dasharray:none;stroke-dashoffset:0;stroke-opacity:1"
       width="5"
       x="97"
       y="540" />
    <path
       d="m 103.5293,543 a 1.5,1.5 0 0 0 -0.10547,0.002 1.5,1.5 0 0 0 -1.14258,0.62696 6.5,6.5 0 0 0 -3.113281,-0.6211 6.5,6.5 0 0 0 -6.160157,6.82227 6.5,6.5 0 0 0 6.822266,6.16211 6.5,6.5 0 0 0 6.162112,-6.82031 v -0.004 a 6.5,6.5 0 0 0 -1.37696,-3.66602 1.5,1.5 0 0 0 0.38282,-1.07812 1.5,1.5 0 0 0 -1.46875,-1.42379 z m -3.759769,1.00586 a 5.5,5.5 0 0 1 5.222659,5.21289 v 0.004 a 5.5,5.5 0 0 1 -5.212893,5.76953 5.5,5.5 0 0 1 -5.771485,-5.21289 5.5,5.5 0 0 1 5.210938,-5.77149 5.5,5.5 0 0 1 0.550781,-0.002 z"
       id="path5143"
       style="opacity:1;vector-effect:none;fill:#808080;fill-opacity:1;stroke:none;stroke-width:1.60007;stroke-linecap:round;stroke-linejoin:round;stroke-miterlimit:4;stroke-dasharray:none;stroke-dashoffset:0;stroke-opacity:1" />
    <path
       d="m 99.3,545 h 0.5 l 0.2,5 h -1 z"
       id="rect5159"
       style="opacity:1;vector-effect:none;fill:#808080;fill-opacity:1;stroke:none;stroke-width:1.60007;stroke-linecap:round;stroke-linejoin:round;stroke-miterlimit:4;stroke-dasharray:none;stroke-dashoffset:0;stroke-opacity:1" />
    <path
       d="m 100.49872,549.44942 a 1,1 0 0 1 -0.947983,1.04929 1,1 0 0 1 -1.049441,-0.94781 1,1 0 0 1 0.947645,-1.0496 1,1 0 0 1 1.049749,0.94748"
       id="path5161"
       style="opacity:1;vector-effect:none;fill:#808080;fill-opacity:1;stroke:none;stroke-width:1.60007;stroke-linecap:round;stroke-linejoin:round;stroke-miterlimit:4;stroke-dasharray:none;stroke-dashoffset:0;stroke-opacity:1" />
  </g>
</svg>
