<?xml version="1.0" encoding="UTF-8" standalone="no"?>
<svg
   version="1.1"
   viewBox="0 0 24 24"
   id="svg10"
   sodipodi:docname="subtitles-filled.svg"
   inkscape:version="1.1 (ce6663b3b7, 2021-05-25)"
   width="24"
   height="24"
   xmlns:inkscape="http://www.inkscape.org/namespaces/inkscape"
   xmlns:sodipodi="http://sodipodi.sourceforge.net/DTD/sodipodi-0.dtd"
   xmlns="http://www.w3.org/2000/svg"
   xmlns:svg="http://www.w3.org/2000/svg"
   xmlns:rdf="http://www.w3.org/1999/02/22-rdf-syntax-ns#"
   xmlns:cc="http://creativecommons.org/ns#"
   xmlns:dc="http://purl.org/dc/elements/1.1/">
  <metadata
     id="metadata16">
    <rdf:RDF>
      <cc:Work
         rdf:about="">
        <dc:format>image/svg+xml</dc:format>
        <dc:type
           rdf:resource="http://purl.org/dc/dcmitype/StillImage" />
      </cc:Work>
    </rdf:RDF>
  </metadata>
  <defs
     id="defs14" />
  <sodipodi:namedview
     pagecolor="#ffffff"
     bordercolor="#666666"
     borderopacity="1"
     objecttolerance="10"
     gridtolerance="10"
     guidetolerance="10"
     inkscape:pageopacity="0"
     inkscape:pageshadow="2"
     inkscape:window-width="1920"
     inkscape:window-height="1016"
     id="namedview12"
     showgrid="true"
     inkscape:zoom="27.499999"
     inkscape:cx="10.018182"
     inkscape:cy="10.418182"
     inkscape:window-x="0"
     inkscape:window-y="27"
     inkscape:window-maximized="1"
     inkscape:current-layer="svg10"
     inkscape:pagecheckerboard="0">
    <inkscape:grid
       type="xygrid"
       id="grid841" />
  </sodipodi:namedview>
  <path
     id="path2"
     style="fill:#808080;stroke-width:0.8"
     d="M 4.5 3.25 C 3.115 3.25 2 4.365 2 5.75 L 2 15.75 C 2 17.135 3.115 18.25 4.5 18.25 L 12.652344 18.25 L 15.75 22 L 18.25 18.25 L 19.5 18.25 C 20.885 18.25 22 17.135 22 15.75 L 22 5.75 C 22 4.365 20.885 3.25 19.5 3.25 L 4.5 3.25 z M 6 10.75 L 10.5 10.75 C 10.6385 10.75 10.75 10.8615 10.75 11 L 10.75 11.75 C 10.75 11.8885 10.6385 12 10.5 12 L 6 12 C 5.8615 12 5.75 11.8885 5.75 11.75 L 5.75 11 C 5.75 10.8615 5.8615 10.75 6 10.75 z M 12.25 10.75 L 18 10.75 C 18.1385 10.75 18.25 10.8615 18.25 11 L 18.25 11.75 C 18.25 11.8885 18.1385 12 18 12 L 12.25 12 C 12.1115 12 12 11.8885 12 11.75 L 12 11 C 12 10.8615 12.1115 10.75 12.25 10.75 z M 6 13.25 L 8 13.25 C 8.1385 13.25 8.25 13.3615 8.25 13.5 L 8.25 14.25 C 8.25 14.3885 8.1385 14.5 8 14.5 L 6 14.5 C 5.8615 14.5 5.75 14.3885 5.75 14.25 L 5.75 13.5 C 5.75 13.3615 5.8615 13.25 6 13.25 z M 9.75 13.25 L 14.25 13.25 C 14.3885 13.25 14.5 13.3615 14.5 13.5 L 14.5 14.25 C 14.5 14.3885 14.3885 14.5 14.25 14.5 L 9.75 14.5 C 9.6115 14.5 9.5 14.3885 9.5 14.25 L 9.5 13.5 C 9.5 13.3615 9.6115 13.25 9.75 13.25 z M 16 13.25 L 18 13.25 C 18.1385 13.25 18.25 13.3615 18.25 13.5 L 18.25 14.25 C 18.25 14.3885 18.1385 14.5 18 14.5 L 16 14.5 C 15.8615 14.5 15.75 14.3885 15.75 14.25 L 15.75 13.5 C 15.75 13.3615 15.8615 13.25 16 13.25 z " />
</svg>
