<?xml version="1.0" encoding="UTF-8" standalone="no"?>
<svg
   version="1.1"
   viewBox="0 0 24 24"
   id="svg10"
   sodipodi:docname="subtitles.svg"
   inkscape:version="1.1 (ce6663b3b7, 2021-05-25)"
   width="24"
   height="24"
   xmlns:inkscape="http://www.inkscape.org/namespaces/inkscape"
   xmlns:sodipodi="http://sodipodi.sourceforge.net/DTD/sodipodi-0.dtd"
   xmlns="http://www.w3.org/2000/svg"
   xmlns:svg="http://www.w3.org/2000/svg"
   xmlns:rdf="http://www.w3.org/1999/02/22-rdf-syntax-ns#"
   xmlns:cc="http://creativecommons.org/ns#"
   xmlns:dc="http://purl.org/dc/elements/1.1/">
  <metadata
     id="metadata16">
    <rdf:RDF>
      <cc:Work
         rdf:about="">
        <dc:format>image/svg+xml</dc:format>
        <dc:type
           rdf:resource="http://purl.org/dc/dcmitype/StillImage" />
      </cc:Work>
    </rdf:RDF>
  </metadata>
  <defs
     id="defs14" />
  <sodipodi:namedview
     pagecolor="#ffffff"
     bordercolor="#666666"
     borderopacity="1"
     objecttolerance="10"
     gridtolerance="10"
     guidetolerance="10"
     inkscape:pageopacity="0"
     inkscape:pageshadow="2"
     inkscape:window-width="1920"
     inkscape:window-height="1016"
     id="namedview12"
     showgrid="true"
     inkscape:zoom="19.445436"
     inkscape:cx="6.5053824"
     inkscape:cy="11.390847"
     inkscape:window-x="0"
     inkscape:window-y="27"
     inkscape:window-maximized="1"
     inkscape:current-layer="svg10"
     inkscape:pagecheckerboard="0">
    <inkscape:grid
       type="xygrid"
       id="grid841" />
  </sodipodi:namedview>
  <g
     transform="matrix(1.25,0,0,1.25,-788,-323)"
     fill="#808080"
     id="g8"
     style="stroke-width:0.8">
    <path
       d="m 634,261 c -1.108,0 -2,0.892 -2,2 v 8 c 0,1.108 0.892,2 2,2 h 6.52175 l 2.4785,3 2,-3 h 0.99975 c 1.108,0 2,-0.892 2,-2 v -8 c 0,-1.108 -0.892,-2 -2,-2 z m 0,1 h 12 c 0.554,0 1,0.446 1,1 v 8 c 0,0.554 -0.446,1 -1,1 h -1.43375 l -1.566,2.4 -1.966,-2.4 h -7.03425 c -0.554,0 -1,-0.446 -1,-1 v -8 c 0,-0.554 0.446,-1 1,-1 z"
       enable-background="new"
       id="path2"
       sodipodi:nodetypes="sssscccsssssssssscccssss"
       style="stroke-width:0.64" />
    <rect
       x="635"
       y="267"
       width="4"
       height="1"
       rx="0.2"
       ry="0.2"
       id="rect4"
       style="stroke-width:0.8" />
    <rect
       x="635"
       y="269"
       width="2"
       height="1"
       rx="0.2"
       ry="0.2"
       id="rect6"
       style="stroke-width:0.8" />
    <rect
       x="638"
       y="269"
       width="4"
       height="1"
       rx="0.2"
       ry="0.2"
       id="rect843"
       style="stroke-width:0.8" />
    <rect
       x="643"
       y="269"
       width="2"
       height="1"
       rx="0.2"
       ry="0.2"
       id="rect847"
       style="stroke-width:0.8" />
    <rect
       x="640"
       y="267"
       width="5"
       height="1"
       rx="0.2"
       ry="0.2"
       id="rect849"
       style="stroke-width:0.8" />
  </g>
</svg>
