<?xml version="1.0" encoding="UTF-8" standalone="no"?>
<svg
   height="24"
   width="24"
   version="1.1"
   id="svg6"
   sodipodi:docname="synchronizing.svg"
   inkscape:version="1.1.2 (08b2f3d93c, 2022-04-05)"
   xmlns:inkscape="http://www.inkscape.org/namespaces/inkscape"
   xmlns:sodipodi="http://sodipodi.sourceforge.net/DTD/sodipodi-0.dtd"
   xmlns="http://www.w3.org/2000/svg"
   xmlns:svg="http://www.w3.org/2000/svg">
  <defs
     id="defs10" />
  <sodipodi:namedview
     id="namedview8"
     pagecolor="#ffffff"
     bordercolor="#666666"
     borderopacity="1.0"
     inkscape:pageshadow="2"
     inkscape:pageopacity="0.0"
     inkscape:pagecheckerboard="0"
     showgrid="true"
     inkscape:zoom="45.254834"
     inkscape:cx="15.456912"
     inkscape:cy="13.777534"
     inkscape:window-width="1920"
     inkscape:window-height="1016"
     inkscape:window-x="0"
     inkscape:window-y="27"
     inkscape:window-maximized="1"
     inkscape:current-layer="svg6">
    <inkscape:grid
       type="xygrid"
       id="grid12" />
  </sodipodi:namedview>
  <path
     id="path2"
     style="fill:#808080;stroke-width:1.28222"
     d="M 12 3 A 9 9 0 0 0 3.9257812 8.1191406 L 2.3808594 7.1269531 C 2.2565597 8.0081267 2.1635537 8.8935146 2.1015625 9.78125 C 2.0400165 10.691623 2.0064111 11.590432 2 12.46875 C 3.6164886 11.707933 5.1846053 10.849088 6.6972656 9.8984375 L 4.7753906 8.6640625 A 8 8 0 0 1 12 4 A 8 8 0 0 1 19.466797 9.1289062 L 20.396484 8.7695312 A 9 9 0 0 0 12 3 z M 22 11.53125 C 20.383512 12.292067 18.815394 13.150913 17.302734 14.101562 L 19.224609 15.333984 A 8 8 0 0 1 12 20 A 8 8 0 0 1 4.2285156 13.792969 L 3.2519531 14.019531 A 9 9 0 0 0 12 21 A 9 9 0 0 0 20.072266 15.878906 L 21.619141 16.871094 C 21.739669 16.022267 21.834998 15.138099 21.900391 14.21875 C 21.960651 13.307095 21.993587 12.409568 22 11.53125 z " />
</svg>
