<?xml version="1.0" encoding="UTF-8" standalone="no"?>
<svg
   height="24"
   width="24"
   version="1.1"
   id="svg8"
   sodipodi:docname="tab-new-filled.svg"
   inkscape:version="1.1 (ce6663b3b7, 2021-05-25)"
   xmlns:inkscape="http://www.inkscape.org/namespaces/inkscape"
   xmlns:sodipodi="http://sodipodi.sourceforge.net/DTD/sodipodi-0.dtd"
   xmlns="http://www.w3.org/2000/svg"
   xmlns:svg="http://www.w3.org/2000/svg">
  <defs
     id="defs12" />
  <sodipodi:namedview
     id="namedview10"
     pagecolor="#ffffff"
     bordercolor="#666666"
     borderopacity="1.0"
     inkscape:pageshadow="2"
     inkscape:pageopacity="0.0"
     inkscape:pagecheckerboard="0"
     showgrid="true"
     inkscape:snap-page="true"
     inkscape:zoom="7.0000001"
     inkscape:cx="-21.357143"
     inkscape:cy="2.3571428"
     inkscape:window-width="1920"
     inkscape:window-height="1016"
     inkscape:window-x="0"
     inkscape:window-y="27"
     inkscape:window-maximized="1"
     inkscape:current-layer="svg8">
    <inkscape:grid
       type="xygrid"
       id="grid1013" />
  </sodipodi:namedview>
  <path
     id="path2"
     style="color:#000000;font-weight:400;line-height:normal;font-family:sans-serif;font-variant-ligatures:normal;font-variant-position:normal;font-variant-caps:normal;font-variant-numeric:normal;font-variant-alternates:normal;font-feature-settings:normal;text-indent:0;text-align:start;text-decoration-line:none;text-decoration-style:solid;text-decoration-color:#000000;text-transform:none;text-orientation:mixed;white-space:normal;shape-padding:0;isolation:auto;mix-blend-mode:normal;fill:#808080;stroke-width:0.666666;marker:none"
     d="M 8.8671875 5.75 C 7.2946875 5.76875 6.144375 5.7117187 5.203125 6.2304688 C 4.7168634 6.5083443 4.3452041 6.9512951 4.15625 7.4785156 C 3.95 8.0247656 3.875 8.67875 3.875 9.5 L 3.875 18.25 L 2.625 18.25 L 2.625 19.5 L 5.125 19.5 L 18.875 19.5 L 21.375 19.5 L 21.375 18.25 L 20.125 18.25 L 20.125 9.5 C 20.125 8.6775 20.05 8.0260156 19.84375 7.4785156 C 19.654482 6.9510945 19.283606 6.5081157 18.796875 6.2304688 C 17.856875 5.7104688 16.705312 5.76875 15.132812 5.75 L 8.8730469 5.75 L 8.8671875 5.75 z M 11.375 9.75 L 12.625 9.75 L 12.625 12.25 L 15.125 12.25 L 15.125 13.5 L 12.625 13.5 L 12.625 16 L 11.375 16 L 11.375 13.5 L 8.875 13.5 L 8.875 12.25 L 11.375 12.25 L 11.375 9.75 z " />
</svg>
