<?xml version="1.0" encoding="UTF-8" standalone="no"?>
<svg
   height="24"
   width="24"
   version="1.1"
   id="svg8"
   sodipodi:docname="tablet.svg"
   inkscape:version="1.1 (ce6663b3b7, 2021-05-25)"
   xmlns:inkscape="http://www.inkscape.org/namespaces/inkscape"
   xmlns:sodipodi="http://sodipodi.sourceforge.net/DTD/sodipodi-0.dtd"
   xmlns="http://www.w3.org/2000/svg"
   xmlns:svg="http://www.w3.org/2000/svg">
  <defs
     id="defs12" />
  <sodipodi:namedview
     id="namedview10"
     pagecolor="#ffffff"
     bordercolor="#666666"
     borderopacity="1.0"
     inkscape:pageshadow="2"
     inkscape:pageopacity="0.0"
     inkscape:pagecheckerboard="0"
     showgrid="false"
     inkscape:zoom="28"
     inkscape:cx="4.4821429"
     inkscape:cy="4.8392857"
     inkscape:window-width="1920"
     inkscape:window-height="1016"
     inkscape:window-x="0"
     inkscape:window-y="27"
     inkscape:window-maximized="1"
     inkscape:current-layer="svg8" />
  <path
     id="path2"
     style="line-height:normal;font-variant-ligatures:normal;font-variant-position:normal;font-variant-caps:normal;font-variant-numeric:normal;font-variant-alternates:normal;font-feature-settings:normal;text-indent:0;text-align:start;text-decoration-line:none;text-decoration-style:solid;text-decoration-color:#000000;text-transform:none;text-orientation:mixed;shape-padding:0;isolation:auto;mix-blend-mode:normal;fill:#808080;stroke-width:1;marker:none"
     d="m 6.9926757,4.5 c -1.5724999,0.01875 -2.7245507,-0.037792 -3.6645507,0.480957 a 2.35,2.35 0 0 0 -1.0473633,1.2475586 c -0.20625,0.54875 -0.2807617,1.2002344 -0.2807617,2.0214844 v 7.5 c 0,0.8225 0.074512,1.473985 0.2807617,2.021485 0.205,0.54875 0.5761133,0.987557 1.0473633,1.247557 0.94,0.52 2.0920507,0.462208 3.6645507,0.480958 h 10.0146483 c 1.5725,-0.0175 2.723301,0.03779 3.664551,-0.480958 a 2.35,2.35 0 0 0 1.047364,-1.247557 c 0.205,-0.547501 0.280761,-1.200235 0.280761,-2.021485 v -7.5 c 0,-0.8225 -0.07451,-1.4727344 -0.280761,-2.0214844 a 2.35,2.35 0 0 0 -1.047364,-1.2475586 c -0.94125,-0.52 -2.092051,-0.462207 -3.664551,-0.480957 h -10.0097654 z m 0.00732,1.25 h 10.0000003 c 1.106247,0.01318 1.939627,0.045989 2.5,0.1513673 v 12.1972657 c -0.560373,0.105375 -1.393753,0.138187 -2.5,0.151367 h -10.0000003 c -1.103848,-0.01316 -1.9386711,-0.04634 -2.4999999,-0.151367 v -12.1972657 c 0.5607503,-0.1050313 1.3943971,-0.1382053 2.4999999,-0.1513673 z" />
</svg>
