<?xml version="1.0" encoding="UTF-8" standalone="no"?>
<svg
   height="24"
   id="svg7384"
   version="1.1"
   width="24"
   sodipodi:docname="tag-filled.svg"
   inkscape:version="1.1 (ce6663b3b7, 2021-05-25)"
   xmlns:inkscape="http://www.inkscape.org/namespaces/inkscape"
   xmlns:sodipodi="http://sodipodi.sourceforge.net/DTD/sodipodi-0.dtd"
   xmlns="http://www.w3.org/2000/svg"
   xmlns:svg="http://www.w3.org/2000/svg"
   xmlns:rdf="http://www.w3.org/1999/02/22-rdf-syntax-ns#"
   xmlns:cc="http://creativecommons.org/ns#"
   xmlns:dc="http://purl.org/dc/elements/1.1/">
  <sodipodi:namedview
     id="namedview21"
     pagecolor="#ffffff"
     bordercolor="#666666"
     borderopacity="1.0"
     inkscape:pageshadow="2"
     inkscape:pageopacity="0.0"
     inkscape:pagecheckerboard="0"
     showgrid="false"
     inkscape:zoom="27.999132"
     inkscape:cx="6.8394977"
     inkscape:cy="9.5181522"
     inkscape:window-width="1920"
     inkscape:window-height="1016"
     inkscape:window-x="0"
     inkscape:window-y="27"
     inkscape:window-maximized="1"
     inkscape:current-layer="svg7384" />
  <metadata
     id="metadata20854">
    <rdf:RDF>
      <cc:Work
         rdf:about="">
        <dc:format>image/svg+xml</dc:format>
        <dc:type
           rdf:resource="http://purl.org/dc/dcmitype/StillImage" />
      </cc:Work>
    </rdf:RDF>
  </metadata>
  <defs
     id="defs7386">
    <linearGradient
       id="linearGradient5606"
       inkscape:swatch="solid">
      <stop
         id="stop5608"
         offset="0"
         style="stop-color:#000000;stop-opacity:1;" />
    </linearGradient>
    <linearGradient
       id="linearGradient4526"
       inkscape:swatch="solid">
      <stop
         id="stop4528"
         offset="0"
         style="stop-color:#ffffff;stop-opacity:1;" />
    </linearGradient>
    <linearGradient
       id="linearGradient3600-4"
       inkscape:swatch="gradient">
      <stop
         id="stop3602-7"
         offset="0"
         style="stop-color:#f4f4f4;stop-opacity:1" />
      <stop
         id="stop3604-6"
         offset="1"
         style="stop-color:#dbdbdb;stop-opacity:1" />
    </linearGradient>
  </defs>
  <path
     id="path1817-9-1-63"
     style="color:#000000;font-style:normal;font-variant:normal;font-weight:normal;font-stretch:normal;font-size:medium;line-height:normal;font-family:sans-serif;font-variant-ligatures:normal;font-variant-position:normal;font-variant-caps:normal;font-variant-numeric:normal;font-variant-alternates:normal;font-feature-settings:normal;text-indent:0;text-align:start;text-decoration:none;text-decoration-line:none;text-decoration-style:solid;text-decoration-color:#000000;letter-spacing:normal;word-spacing:normal;text-transform:none;writing-mode:lr-tb;direction:ltr;text-orientation:mixed;dominant-baseline:auto;baseline-shift:baseline;text-anchor:start;white-space:normal;shape-padding:0;clip-rule:nonzero;display:inline;overflow:visible;visibility:visible;isolation:auto;mix-blend-mode:normal;color-interpolation:sRGB;color-interpolation-filters:linearRGB;solid-color:#000000;solid-opacity:1;vector-effect:none;fill:#808080;fill-opacity:1;fill-rule:nonzero;stroke:none;stroke-width:1;stroke-linecap:butt;stroke-linejoin:miter;stroke-miterlimit:4;stroke-dasharray:none;stroke-dashoffset:0;stroke-opacity:1;marker:none;color-rendering:auto;image-rendering:auto;shape-rendering:auto;text-rendering:auto;enable-background:accumulate"
     d="M 6.9941406 2 C 5.4215708 2.018874 4.2689995 1.9654891 3.328125 2.484375 C 2.8576878 2.7438305 2.4870944 3.180268 2.28125 3.7285156 C 2.0753681 4.2767633 2 4.9280098 2 5.75 L 2 10.75 L 2.0136719 10.75 C 1.9790479 11.164901 2.0519363 11.597598 2.2382812 12.007812 C 2.4919369 12.566534 2.9182979 13.103932 3.5273438 13.712891 L 10.287109 20.474609 C 10.896155 21.083567 11.435619 21.509678 11.994141 21.763672 C 12.552901 22.01734 13.154415 22.068343 13.695312 21.912109 C 14.777133 21.599668 15.586944 20.704441 16.765625 19.552734 L 16.769531 19.548828 L 19.554688 16.765625 L 19.554688 16.763672 C 20.705893 15.584654 21.597502 14.772877 21.910156 13.691406 C 22.066464 13.150658 22.01739 12.550847 21.763672 11.992188 C 21.510004 11.433478 21.083654 10.894114 20.474609 10.285156 L 13.714844 3.5253906 C 13.105798 2.9164321 12.566584 2.4900587 12.007812 2.2363281 C 11.728433 2.1095315 11.438021 2.03464 11.150391 2.0097656 C 11.016395 1.9985156 10.882047 1.9997656 10.75 2.0097656 L 10.75 2 L 6.9960938 2 L 6.9941406 2 z M 5.6875 4.5019531 A 1.2499661 1.2499661 0 0 1 6.9980469 5.6875 A 1.2499661 1.2499661 0 0 1 5.8144531 6.9980469 A 1.2499661 1.2499661 0 0 1 4.5039062 5.8144531 A 1.2499661 1.2499661 0 0 1 5.6875 4.5019531 z " />
</svg>
