<?xml version="1.0" encoding="UTF-8" standalone="no"?>
<svg viewBox="0 1 24 24" height="24" id="svg7384" version="1.1" width="24" sodipodi:docname="tag.svg" inkscape:version="1.1 (ce6663b3b7, 2021-05-25)"
   xmlns:inkscape="http://www.inkscape.org/namespaces/inkscape"
   xmlns:sodipodi="http://sodipodi.sourceforge.net/DTD/sodipodi-0.dtd"
   xmlns="http://www.w3.org/2000/svg"
   xmlns:svg="http://www.w3.org/2000/svg"
   xmlns:rdf="http://www.w3.org/1999/02/22-rdf-syntax-ns#"
   xmlns:cc="http://creativecommons.org/ns#"
   xmlns:dc="http://purl.org/dc/elements/1.1/">
   <sodipodi:namedview id="namedview21" pagecolor="#ffffff" bordercolor="#666666" borderopacity="1.0" inkscape:pageshadow="2" inkscape:pageopacity="0.0" inkscape:pagecheckerboard="0" showgrid="true" inkscape:zoom="27.999132" inkscape:cx="14.661169" inkscape:cy="13.089692" inkscape:window-width="1920" inkscape:window-height="1016" inkscape:window-x="0" inkscape:window-y="27" inkscape:window-maximized="1" inkscape:current-layer="svg7384">
      <inkscape:grid type="xygrid" id="grid22" />
      <inkscape:grid type="xygrid" id="grid872" dotted="true" spacingx="0.5" spacingy="0.5" empspacing="10" />
   </sodipodi:namedview>
   <metadata id="metadata20854">
      <rdf:RDF>
         <cc:Work rdf:about="">
            <dc:format>image/svg+xml</dc:format>
            <dc:type rdf:resource="http://purl.org/dc/dcmitype/StillImage" />
         </cc:Work>
      </rdf:RDF>
   </metadata>
   <defs id="defs7386">
      <linearGradient id="linearGradient5606" inkscape:swatch="solid">
         <stop id="stop5608" offset="0" style="stop-color:#000000;stop-opacity:1;" />
      </linearGradient>
      <linearGradient id="linearGradient4526" inkscape:swatch="solid">
         <stop id="stop4528" offset="0" style="stop-color:#ffffff;stop-opacity:1;" />
      </linearGradient>
      <linearGradient id="linearGradient3600-4" inkscape:swatch="gradient">
         <stop id="stop3602-7" offset="0" style="stop-color:#f4f4f4;stop-opacity:1" />
         <stop id="stop3604-6" offset="1" style="stop-color:#dbdbdb;stop-opacity:1" />
      </linearGradient>
   </defs>
   <g id="layer9" label="status" style="display:inline;stroke-width:0.800022" transform="matrix(1.2499661,0,0,1.2499661,-739.21701,-139.24597)" />
   <g id="layer2" style="display:inline;stroke-width:0.800022" transform="matrix(1.2499661,0,0,1.2499661,-437.97494,-597.98352)" />
   <g id="layer4" style="display:inline;stroke-width:0.800022" transform="matrix(1.2499661,0,0,1.2499661,-437.97494,-597.98352)" />
   <g id="g1812" style="display:inline;stroke-width:0.800022" transform="matrix(1.2499661,0,0,1.2499661,-437.97494,-597.98352)" />
   <g id="g6217" style="display:inline;stroke-width:0.800022" transform="matrix(1.2499661,0,0,1.2499661,-437.97494,-597.98352)" />
   <g id="layer3" style="display:inline;stroke-width:0.800022" transform="matrix(1.2499661,0,0,1.2499661,-437.97494,-597.98352)" />
   <g id="g1833" style="display:inline;stroke-width:0.800022" transform="matrix(1.2499661,0,0,1.2499661,-437.97494,-597.98352)" />
   <g id="layer1" style="display:inline;stroke-width:0.800022" transform="matrix(1.2499661,0,0,1.2499661,-437.97494,-597.98352)" />
   <path id="path874" style="color:#000000;fill:#808080;stroke-linejoin:round;-inkscape-stroke:none" d="M 5.5 2 C 4.4166677 2 3.5143349 2.2786339 2.8964844 2.8964844 C 2.2786339 3.5143349 2 4.4166677 2 5.5 L 2 9.5 C 2 10.499999 1.99311 11.1034 2.3027344 11.722656 C 2.6123625 12.341913 3.1464854 12.853517 4.1464844 13.853516 L 10.146484 19.853516 C 10.935767 20.642799 11.675001 21.125 12.5 21.125 C 13.324999 21.125 14.064233 20.642799 14.853516 19.853516 L 19.853516 14.853516 C 20.642799 14.064233 21.125 13.324999 21.125 12.5 C 21.125 11.675001 20.642799 10.935767 19.853516 10.146484 L 13.853516 4.1464844 C 12.853517 3.1464854 12.341913 2.6123625 11.722656 2.3027344 C 11.1034 1.9931062 10.499999 2 9.5 2 L 5.5 2 z M 5.5 3 L 9.5 3 C 10.499999 3 10.896601 3.00689 11.277344 3.1972656 C 11.658086 3.387637 12.146485 3.8535166 13.146484 4.8535156 L 19.146484 10.853516 C 19.8572 11.564231 20.125 12.075 20.125 12.5 C 20.125 12.925 19.8572 13.435769 19.146484 14.146484 L 14.146484 19.146484 C 13.435769 19.8572 12.925 20.125 12.5 20.125 C 12.075 20.125 11.564231 19.8572 10.853516 19.146484 L 4.8535156 13.146484 C 3.8535166 12.146485 3.387637 11.658086 3.1972656 11.277344 C 3.0068943 10.896601 3 10.499999 3 9.5 L 3 5.5 C 3 4.5833342 3.2213671 3.9856641 3.6035156 3.6035156 C 3.9856641 3.2213671 4.5833342 3 5.5 3 z M 6.5 5 A 1.5 1.5 0 0 0 5 6.5 A 1.5 1.5 0 0 0 6.5 8 A 1.5 1.5 0 0 0 8 6.5 A 1.5 1.5 0 0 0 6.5 5 z " />
</svg>
