<?xml version="1.0" encoding="UTF-8" standalone="no"?>
<svg
   height="16"
   width="16"
   version="1.1"
   id="svg8"
   sodipodi:docname="television.svg"
   inkscape:version="1.1 (ce6663b3b7, 2021-05-25)"
   xmlns:inkscape="http://www.inkscape.org/namespaces/inkscape"
   xmlns:sodipodi="http://sodipodi.sourceforge.net/DTD/sodipodi-0.dtd"
   xmlns="http://www.w3.org/2000/svg"
   xmlns:svg="http://www.w3.org/2000/svg"
   xmlns:rdf="http://www.w3.org/1999/02/22-rdf-syntax-ns#"
   xmlns:cc="http://creativecommons.org/ns#"
   xmlns:dc="http://purl.org/dc/elements/1.1/">
  <metadata
     id="metadata14">
    <rdf:RDF>
      <cc:Work
         rdf:about="">
        <dc:format>image/svg+xml</dc:format>
        <dc:type
           rdf:resource="http://purl.org/dc/dcmitype/StillImage" />
      </cc:Work>
    </rdf:RDF>
  </metadata>
  <defs
     id="defs12" />
  <sodipodi:namedview
     pagecolor="#ffffff"
     bordercolor="#666666"
     borderopacity="1"
     objecttolerance="10"
     gridtolerance="10"
     guidetolerance="10"
     inkscape:pageopacity="0"
     inkscape:pageshadow="2"
     inkscape:window-width="1920"
     inkscape:window-height="1016"
     id="namedview10"
     showgrid="true"
     inkscape:zoom="16"
     inkscape:cx="0.53125"
     inkscape:cy="13.71875"
     inkscape:window-x="0"
     inkscape:window-y="27"
     inkscape:window-maximized="1"
     inkscape:current-layer="svg8"
     inkscape:document-rotation="0"
     inkscape:pagecheckerboard="0">
    <inkscape:grid
       type="xygrid"
       id="grid831" />
  </sodipodi:namedview>
  <path
     id="path4643"
     style="color:#000000;font-style:normal;font-variant:normal;font-weight:normal;font-stretch:normal;font-size:medium;line-height:normal;font-family:sans-serif;font-variant-ligatures:normal;font-variant-position:normal;font-variant-caps:normal;font-variant-numeric:normal;font-variant-alternates:normal;font-feature-settings:normal;text-indent:0;text-align:start;text-decoration:none;text-decoration-line:none;text-decoration-style:solid;text-decoration-color:#000000;letter-spacing:normal;word-spacing:normal;text-transform:none;writing-mode:lr-tb;direction:ltr;text-orientation:mixed;baseline-shift:baseline;text-anchor:start;white-space:normal;shape-padding:0;clip-rule:nonzero;display:inline;overflow:visible;visibility:visible;opacity:1;isolation:auto;mix-blend-mode:normal;color-interpolation:sRGB;color-interpolation-filters:linearRGB;solid-color:#000000;solid-opacity:1;fill:#808080;fill-opacity:1;fill-rule:nonzero;stroke:none;stroke-width:0.666665;stroke-linecap:butt;stroke-linejoin:miter;stroke-miterlimit:4;stroke-dasharray:none;stroke-dashoffset:0;stroke-opacity:1;marker:none;color-rendering:auto;image-rendering:auto;shape-rendering:auto;text-rendering:auto;enable-background:accumulate"
     d="m 5.56836,1.264 -0.470704,0.472656 2.263672,2.263672 h -3.818359 c -0.800596,0.0091 -1.388211,-0.01741 -1.867188,0.242188 -0.239488,0.129797 -0.428425,0.348864 -0.533203,0.623046 -0.104777,0.274182 -0.142578,0.598735 -0.142578,1.009766 v 6.25 c 0,0.41103 0.0378,0.735584 0.142578,1.009766 0.104778,0.274181 0.293715,0.495205 0.533203,0.625 0.478977,0.259593 1.066592,0.231142 1.867188,0.240234 h 0.002 8.910156 0.0019 c 0.800595,-0.0091 1.388211,0.01936 1.867188,-0.240234 0.239489,-0.129795 0.428425,-0.350819 0.533203,-0.625 0.104776,-0.274182 0.142578,-0.598736 0.142578,-1.009766 v -6.25 c 0,-0.411032 -0.03781,-0.735584 -0.142578,-1.009766 -0.104778,-0.274182 -0.293715,-0.495202 -0.533203,-0.625 -0.478977,-0.259592 -1.066593,-0.231142 -1.867188,-0.240234 h -3.818359 l 2.263672,-2.263672 -0.472656,-0.472656 -2.429688,2.431641 z m -2.054688,3.736328 h 6.667969 c 0.763468,0.0091 1.266355,0.0358 1.488281,0.160156 0.111171,0.06229 0.173286,0.132978 0.232422,0.292969 0.05914,0.159991 0.09766,0.414635 0.09766,0.779297 v 5.535156 c 0,0.364659 -0.03852,0.619304 -0.09766,0.779297 -0.05914,0.15999 -0.121251,0.230677 -0.232422,0.292969 -0.221926,0.124353 -0.724813,0.151114 -1.488281,0.160156 h -6.664063 -0.0039 c -0.763467,-0.009 -0.961667,-0.0358 -1.183594,-0.160156 -0.111171,-0.06229 -0.173285,-0.132979 -0.232422,-0.292969 -0.05913,-0.159992 -0.09766,-0.414638 -0.09766,-0.779297 v -5.535156 c 0,-0.364662 0.03852,-0.619306 0.09766,-0.779297 0.05913,-0.159991 0.121251,-0.230676 0.232422,-0.292969 0.221927,-0.124354 0.420127,-0.151113 1.183594,-0.160156 z m 9.986328,1 c 0.276142,0 0.5,0.223858 0.5,0.5 0,0.276142 -0.223858,0.5 -0.5,0.5 -0.276142,0 -0.5,-0.223858 -0.5,-0.5 0,-0.276142 0.223858,-0.5 0.5,-0.5 z m 0,2 c 0.276142,0 0.5,0.223858 0.5,0.5 0,0.276142 -0.223858,0.5 -0.5,0.5 -0.276142,0 -0.5,-0.223858 -0.5,-0.5 0,-0.276142 0.223858,-0.5 0.5,-0.5 z" />
</svg>
