<?xml version="1.0" encoding="UTF-8" standalone="no"?>
<svg
   height="24"
   width="24"
   version="1.1"
   id="svg8"
   sodipodi:docname="television.svg"
   inkscape:version="1.1 (ce6663b3b7, 2021-05-25)"
   xmlns:inkscape="http://www.inkscape.org/namespaces/inkscape"
   xmlns:sodipodi="http://sodipodi.sourceforge.net/DTD/sodipodi-0.dtd"
   xmlns="http://www.w3.org/2000/svg"
   xmlns:svg="http://www.w3.org/2000/svg"
   xmlns:rdf="http://www.w3.org/1999/02/22-rdf-syntax-ns#"
   xmlns:cc="http://creativecommons.org/ns#"
   xmlns:dc="http://purl.org/dc/elements/1.1/">
  <metadata
     id="metadata14">
    <rdf:RDF>
      <cc:Work
         rdf:about="">
        <dc:format>image/svg+xml</dc:format>
        <dc:type
           rdf:resource="http://purl.org/dc/dcmitype/StillImage" />
      </cc:Work>
    </rdf:RDF>
  </metadata>
  <defs
     id="defs12" />
  <sodipodi:namedview
     pagecolor="#ffffff"
     bordercolor="#666666"
     borderopacity="1"
     objecttolerance="10"
     gridtolerance="10"
     guidetolerance="10"
     inkscape:pageopacity="0"
     inkscape:pageshadow="2"
     inkscape:window-width="1920"
     inkscape:window-height="1016"
     id="namedview10"
     showgrid="true"
     inkscape:zoom="16"
     inkscape:cx="9.28125"
     inkscape:cy="13.78125"
     inkscape:window-x="0"
     inkscape:window-y="27"
     inkscape:window-maximized="1"
     inkscape:current-layer="svg8"
     inkscape:document-rotation="0"
     inkscape:pagecheckerboard="0">
    <inkscape:grid
       type="xygrid"
       id="grid831" />
  </sodipodi:namedview>
  <path
     id="path4643"
     style="color:#000000;font-style:normal;font-variant:normal;font-weight:normal;font-stretch:normal;font-size:medium;line-height:normal;font-family:sans-serif;font-variant-ligatures:normal;font-variant-position:normal;font-variant-caps:normal;font-variant-numeric:normal;font-variant-alternates:normal;font-feature-settings:normal;text-indent:0;text-align:start;text-decoration:none;text-decoration-line:none;text-decoration-style:solid;text-decoration-color:#000000;letter-spacing:normal;word-spacing:normal;text-transform:none;writing-mode:lr-tb;direction:ltr;text-orientation:mixed;baseline-shift:baseline;text-anchor:start;white-space:normal;shape-padding:0;clip-rule:nonzero;display:inline;overflow:visible;visibility:visible;opacity:1;isolation:auto;mix-blend-mode:normal;color-interpolation:sRGB;color-interpolation-filters:linearRGB;solid-color:#000000;solid-opacity:1;fill:#808080;fill-opacity:1;fill-rule:nonzero;stroke:none;stroke-width:0.666665;stroke-linecap:butt;stroke-linejoin:miter;stroke-miterlimit:4;stroke-dasharray:none;stroke-dashoffset:0;stroke-opacity:1;marker:none;color-rendering:auto;image-rendering:auto;shape-rendering:auto;text-rendering:auto;enable-background:accumulate"
     d="m 8.96045,3.58 -0.58838,0.59082 2.82959,2.82959 h -4.7729488 c -1.0007449,0.011375 -1.7352637,-0.021762 -2.3339849,0.302735 -0.29936,0.1622462 -0.5355313,0.43608 -0.6665038,0.7788075 -0.1309712,0.3427275 -0.1782225,0.7484187 -0.1782225,1.2622075 v 7.8125 c 0,0.513788 0.04725,0.91948 0.1782225,1.262207 0.1309725,0.342727 0.3671438,0.619007 0.6665038,0.78125 0.5987212,0.324492 1.33324,0.288928 2.3339849,0.300293 h 0.0025 11.1376948 0.0024 c 1.000744,-0.01137 1.735264,0.0242 2.333985,-0.300293 0.299361,-0.162243 0.535532,-0.438523 0.666504,-0.78125 0.13097,-0.342727 0.178222,-0.74842 0.178222,-1.262207 v -7.8125 c 0,-0.51379 -0.04726,-0.91948 -0.178222,-1.2622075 -0.130972,-0.3427275 -0.367144,-0.6190025 -0.666504,-0.78125 -0.598721,-0.32449 -1.333241,-0.2889275 -2.333985,-0.3002925 h -4.772948 l 2.82959,-2.82959 -0.59082,-0.59082 -3.037111,3.0395512 z m -2.56836,4.67041 h 8.334961 c 0.954335,0.011375 1.582944,0.04475 1.860352,0.200195 0.138963,0.077862 0.216607,0.1662225 0.290527,0.3662112 0.07393,0.1999888 0.122075,0.5182938 0.122075,0.9741213 v 6.9189445 c 0,0.455824 -0.04815,0.77413 -0.122075,0.974122 -0.07392,0.199987 -0.151564,0.288346 -0.290527,0.366211 -0.277408,0.155441 -0.906017,0.188892 -1.860352,0.200195 h -8.3300785 -0.00488 c -0.9543337,-0.01125 -1.2020837,-0.04475 -1.4794925,-0.200195 -0.1389637,-0.07786 -0.2166062,-0.166224 -0.2905275,-0.366211 -0.073913,-0.19999 -0.122075,-0.518298 -0.122075,-0.974122 v -6.9189445 c 0,-0.4558275 0.04815,-0.7741325 0.122075,-0.9741212 0.073913,-0.1999888 0.1515638,-0.288345 0.2905275,-0.3662113 0.2774088,-0.1554425 0.5251588,-0.1888912 1.4794925,-0.200195 z m 12.48291,1.25 c 0.345177,0 0.625,0.2798225 0.625,0.625 0,0.345178 -0.279823,0.625 -0.625,0.625 -0.345177,0 -0.625,-0.279822 -0.625,-0.625 0,-0.3451775 0.279823,-0.625 0.625,-0.625 z m 0,2.5 c 0.345177,0 0.625,0.279823 0.625,0.625 0,0.345178 -0.279823,0.625 -0.625,0.625 -0.345177,0 -0.625,-0.279822 -0.625,-0.625 0,-0.345177 0.279823,-0.625 0.625,-0.625 z" />
</svg>
