<?xml version="1.0" encoding="UTF-8" standalone="no"?>
<svg
   height="24"
   width="24"
   version="1.1"
   id="svg8"
   sodipodi:docname="template.svg"
   inkscape:version="1.1 (ce6663b3b7, 2021-05-25)"
   xmlns:inkscape="http://www.inkscape.org/namespaces/inkscape"
   xmlns:sodipodi="http://sodipodi.sourceforge.net/DTD/sodipodi-0.dtd"
   xmlns="http://www.w3.org/2000/svg"
   xmlns:svg="http://www.w3.org/2000/svg">
  <defs
     id="defs12" />
  <sodipodi:namedview
     id="namedview10"
     pagecolor="#ffffff"
     bordercolor="#666666"
     borderopacity="1.0"
     inkscape:pageshadow="2"
     inkscape:pageopacity="0.0"
     inkscape:pagecheckerboard="0"
     showgrid="true"
     inkscape:zoom="7"
     inkscape:cx="-44.214286"
     inkscape:cy="0.35714286"
     inkscape:window-width="1920"
     inkscape:window-height="1016"
     inkscape:window-x="0"
     inkscape:window-y="27"
     inkscape:window-maximized="1"
     inkscape:current-layer="svg8">
    <inkscape:grid
       type="xygrid"
       id="grid8" />
    <inkscape:grid
       type="xygrid"
       id="grid1014"
       dotted="true"
       spacingx="0.5"
       spacingy="0.5"
       empspacing="10" />
  </sodipodi:namedview>
  <path
     id="rect32"
     style="fill:#808080;fill-rule:evenodd;stroke:none;stroke-linecap:square;stroke-linejoin:round"
     d="M 6 2 L 6 21 L 12 21 L 12 2 L 6 2 z M 14.5 2 C 14.25 2 14.056294 1.9985203 13.867188 2.0195312 C 13.678081 2.0405433 13.451835 2.0911333 13.271484 2.2714844 C 13.091133 2.4518353 13.040543 2.6780806 13.019531 2.8671875 C 12.998521 3.0562944 13 3.2500003 13 3.5 L 13 15.595703 L 15.5 21.845703 L 18 15.595703 L 18 3.5 C 18 3.2500003 18.001499 3.0562944 17.980469 2.8671875 C 17.959459 2.6780806 17.908869 2.4518353 17.728516 2.2714844 C 17.548165 2.0911334 17.321919 2.040543 17.132812 2.0195312 C 16.943707 1.9985193 16.75 2 16.5 2 L 14.5 2 z M 7 3 L 11 3 L 11 4 L 10 4 L 10 5 L 11 5 L 11 6 L 10 6 L 10 7 L 11 7 L 11 8 L 10 8 L 10 9 L 11 9 L 11 10 L 10 10 L 10 11 L 11 11 L 11 12 L 10 12 L 10 13 L 11 13 L 11 14 L 10 14 L 10 15 L 11 15 L 11 16 L 10 16 L 10 17 L 11 17 L 11 18 L 10 18 L 10 19 L 11 19 L 11 20 L 7 20 L 7 3 z M 14.5 3 L 16.5 3 C 16.733217 3 16.891306 3.0031398 16.988281 3.0117188 C 16.996881 3.1086938 17 3.2667829 17 3.5 L 17 6 L 14 6 L 14 3.5 C 14 3.2667829 14.003099 3.1086942 14.011719 3.0117188 C 14.108699 3.0031387 14.266783 3 14.5 3 z M 14.238281 16 L 16.761719 16 L 15.5 19.152344 L 14.238281 16 z " />
</svg>
