<?xml version="1.0" encoding="UTF-8" standalone="no"?>
<svg
   height="24"
   width="24"
   version="1.1"
   id="svg8"
   sodipodi:docname="template.svg"
   inkscape:version="1.1 (ce6663b3b7, 2021-05-25)"
   xmlns:inkscape="http://www.inkscape.org/namespaces/inkscape"
   xmlns:sodipodi="http://sodipodi.sourceforge.net/DTD/sodipodi-0.dtd"
   xmlns="http://www.w3.org/2000/svg"
   xmlns:svg="http://www.w3.org/2000/svg">
  <defs
     id="defs12" />
  <sodipodi:namedview
     id="namedview10"
     pagecolor="#ffffff"
     bordercolor="#666666"
     borderopacity="1.0"
     inkscape:pageshadow="2"
     inkscape:pageopacity="0.0"
     inkscape:pagecheckerboard="0"
     showgrid="false"
     inkscape:zoom="14"
     inkscape:cx="-2.6071429"
     inkscape:cy="-3.3214286"
     inkscape:window-width="1920"
     inkscape:window-height="1016"
     inkscape:window-x="0"
     inkscape:window-y="27"
     inkscape:window-maximized="1"
     inkscape:current-layer="svg8" />
  <g
     fill="#808080"
     font-weight="400"
     id="g6"
     transform="matrix(1.25,0,0,1.25,2,2)"
     style="stroke-width:0.8">
    <path
       d="m 11,16 -0.479,-0.922 a 19.554,19.554 0 0 1 -1.126,-2.666 14.225,14.225 0 0 1 -0.383,-1.271 l -0.012,-0.057 v -10.084 c 0,0 0,-1 1,-1 h 2 c 0,0 1,0 1,1 v 10.084 l -0.012,0.057 c -0.028,0.122 -0.136,0.547 -0.383,1.271 a 19.588,19.588 0 0 1 -1.126,2.666 z m -0.209,-3.043 h 0.416 c 0.14,-0.315 0.294,-0.65 0.377,-0.893 0.225,-0.66 0.417,-1.07 0.416,-1.064 h -2 c -0.002,-0.009 0.189,0.403 0.414,1.064 0.083,0.244 0.238,0.578 0.377,0.893 z m -0.791,-9.957 h 2 v -2 h -2 z"
       font-family="Ubuntu"
       font-size="15px"
       letter-spacing="0"
       style="line-height:125%;-inkscape-font-specification:Ubuntu;text-align:center;stroke-width:0.64"
       text-anchor="middle"
       word-spacing="0"
       id="path2" />
    <path
       color="#000000"
       d="m 3,0 v 15 h 5 v -15 z m 1,1 h 3 v 1 h -1 v 1 h 1 v 1 h -1 v 1 h 1 v 1 h -1 v 1 h 1 v 1 h -1 v 1 h 1 v 1 h -1 v 1 h 1 v 1 h -1 v 1 h 1 v 1 h -3 z"
       font-family="sans-serif"
       overflow="visible"
       style="line-height:normal;font-variant-ligatures:normal;font-variant-position:normal;font-variant-caps:normal;font-variant-numeric:normal;font-variant-alternates:normal;font-feature-settings:normal;text-indent:0;text-align:start;text-decoration-line:none;text-decoration-style:solid;text-decoration-color:#000000;text-transform:none;text-orientation:mixed;shape-padding:0;isolation:auto;mix-blend-mode:normal;stroke-width:0.64"
       white-space="normal"
       id="path4" />
  </g>
</svg>
