<?xml version="1.0" encoding="UTF-8" standalone="no"?>
<svg
   height="24"
   id="svg7384"
   version="1.1"
   width="24"
   sodipodi:docname="text-editor.svg"
   inkscape:version="1.1.2 (08b2f3d93c, 2022-04-05)"
   xmlns:inkscape="http://www.inkscape.org/namespaces/inkscape"
   xmlns:sodipodi="http://sodipodi.sourceforge.net/DTD/sodipodi-0.dtd"
   xmlns="http://www.w3.org/2000/svg"
   xmlns:svg="http://www.w3.org/2000/svg"
   xmlns:rdf="http://www.w3.org/1999/02/22-rdf-syntax-ns#"
   xmlns:cc="http://creativecommons.org/ns#"
   xmlns:dc="http://purl.org/dc/elements/1.1/">
  <path
     id="path122"
     style="fill:#808080;fill-opacity:1;stroke:none;stroke-width:2.5;stroke-linecap:butt;stroke-linejoin:round;stroke-miterlimit:4;stroke-dasharray:none;stroke-opacity:1"
     d="m 16.5,9 -6.875,6.875 -1.25,4.375 4.375,-1.25 6.875,-6.875 z m -6.25,7.5 1.875,1.875 -2.5,0.625 z"
     sodipodi:nodetypes="cccccccccc" />
  <path
     id="rect5345"
     style="fill:#808080;fill-opacity:1;stroke:none;stroke-width:2.5;stroke-linecap:butt;stroke-linejoin:round;stroke-miterlimit:4;stroke-dasharray:none;stroke-opacity:1"
     d="m 5.7871094,2 c -0.6769458,0.00559 -1.250602,0.048153 -1.7597656,0.3027344 -0.3394423,0.1697212 -0.6300054,0.4624336 -0.796875,0.8378906 -0.1668701,0.375457 -0.2304688,0.8177089 -0.2304688,1.359375 v 15 c 0,0.541666 0.063599,0.983918 0.2304688,1.359375 0.1668696,0.375457 0.4574326,0.668169 0.796875,0.837891 0.6788847,0.339442 1.4726572,0.302734 2.4726562,0.302734 h 10 c 0.999999,0 1.793771,0.03671 2.472656,-0.302734 0.339443,-0.169722 0.630005,-0.462434 0.796875,-0.837891 0.16687,-0.375457 0.230469,-0.817709 0.230469,-1.359375 v -6.335938 l -1,1 v 5.335938 c 0,0.458333 -0.0614,0.766083 -0.144531,0.953125 -0.08313,0.187042 -0.167568,0.269331 -0.328125,0.349609 -0.321114,0.160557 -1.027345,0.197266 -2.027344,0.197266 h -10 c -0.999999,0 -1.7062292,-0.03671 -2.0273438,-0.197266 -0.1605571,-0.08028 -0.2449946,-0.162567 -0.328125,-0.349609 -0.08313,-0.187042 -0.1445312,-0.494792 -0.1445312,-0.953125 v -15 c 0,-0.4583329 0.061401,-0.7660826 0.1445312,-0.953125 0.08313,-0.1870424 0.1675679,-0.2693308 0.328125,-0.3496094 0.3211143,-0.1605571 1.0273448,-0.1972656 2.0273438,-0.1972656 h 10 c 0.999999,0 1.70623,0.036708 2.027344,0.1972656 0.160557,0.080279 0.244995,0.162567 0.328125,0.3496094 0.08313,0.1870424 0.144531,0.4947921 0.144531,0.953125 v 5.585938 l 1,1 v -6.585938 c 0,-0.5416661 -0.0636,-0.983918 -0.230469,-1.359375 -0.16687,-0.375457 -0.457432,-0.6681694 -0.796875,-0.8378906 -0.678885,-0.3394424 -1.472657,-0.3027344 -2.472656,-0.3027344 h -10 c -0.2499997,0 -0.487242,-0.00186 -0.7128906,0 z"
     sodipodi:nodetypes="csssssssssssccssssssssssssssssccsssssc" />
  <path
     style="fill:#808080;fill-opacity:1;stroke:none;stroke-width:2.5;stroke-linecap:butt;stroke-linejoin:round;stroke-miterlimit:4;stroke-dasharray:none;stroke-opacity:1"
     d="m 6,10 v 1 h 4 v -1 z"
     id="path124" />
  <path
     style="fill:#808080;fill-opacity:1;stroke:none;stroke-width:2.5;stroke-linecap:butt;stroke-linejoin:round;stroke-miterlimit:4;stroke-dasharray:none;stroke-opacity:1"
     d="m 6,8 v 1 h 7 v -1 z"
     id="path120" />
  <path
     style="fill:#808080;fill-opacity:1;stroke:none;stroke-width:2.5;stroke-linecap:butt;stroke-linejoin:round;stroke-miterlimit:4;stroke-dasharray:none;stroke-opacity:1"
     d="m 6,6 v 1 h 11 v -1 z"
     id="path118" />
  <sodipodi:namedview
     id="namedview22"
     pagecolor="#ffffff"
     bordercolor="#666666"
     borderopacity="1.0"
     inkscape:pageshadow="2"
     inkscape:pageopacity="0.0"
     inkscape:pagecheckerboard="0"
     showgrid="false"
     inkscape:zoom="2"
     inkscape:cx="113.25"
     inkscape:cy="-31"
     inkscape:window-width="1920"
     inkscape:window-height="1043"
     inkscape:window-x="0"
     inkscape:window-y="0"
     inkscape:window-maximized="1"
     inkscape:current-layer="svg7384">
    <inkscape:grid
       type="xygrid"
       id="grid839" />
  </sodipodi:namedview>
  <metadata
     id="metadata20854">
    <rdf:RDF>
      <cc:Work
         rdf:about="">
        <dc:format>image/svg+xml</dc:format>
        <dc:type
           rdf:resource="http://purl.org/dc/dcmitype/StillImage" />
      </cc:Work>
    </rdf:RDF>
  </metadata>
  <defs
     id="defs7386">
    <linearGradient
       id="linearGradient5606"
       inkscape:swatch="solid">
      <stop
         id="stop5608"
         offset="0"
         style="stop-color:#000000;stop-opacity:1;" />
    </linearGradient>
    <linearGradient
       id="linearGradient4526"
       inkscape:swatch="solid">
      <stop
         id="stop4528"
         offset="0"
         style="stop-color:#ffffff;stop-opacity:1;" />
    </linearGradient>
    <linearGradient
       id="linearGradient3600-4"
       inkscape:swatch="gradient">
      <stop
         id="stop3602-7"
         offset="0"
         style="stop-color:#f4f4f4;stop-opacity:1" />
      <stop
         id="stop3604-6"
         offset="1"
         style="stop-color:#dbdbdb;stop-opacity:1" />
    </linearGradient>
  </defs>
</svg>
