<?xml version="1.0" encoding="UTF-8" standalone="no"?>
<svg
   height="24"
   id="svg7384"
   version="1.1"
   width="24"
   sodipodi:docname="text-editor-filled.svg"
   inkscape:version="1.1.2 (08b2f3d93c, 2022-04-05)"
   xmlns:inkscape="http://www.inkscape.org/namespaces/inkscape"
   xmlns:sodipodi="http://sodipodi.sourceforge.net/DTD/sodipodi-0.dtd"
   xmlns="http://www.w3.org/2000/svg"
   xmlns:svg="http://www.w3.org/2000/svg"
   xmlns:rdf="http://www.w3.org/1999/02/22-rdf-syntax-ns#"
   xmlns:cc="http://creativecommons.org/ns#"
   xmlns:dc="http://purl.org/dc/elements/1.1/">
  <sodipodi:namedview
     id="namedview22"
     pagecolor="#ffffff"
     bordercolor="#666666"
     borderopacity="1.0"
     inkscape:pageshadow="2"
     inkscape:pageopacity="0.0"
     inkscape:pagecheckerboard="0"
     showgrid="true"
     inkscape:zoom="34.073709"
     inkscape:cx="11.548493"
     inkscape:cy="11.797952"
     inkscape:window-width="1920"
     inkscape:window-height="1043"
     inkscape:window-x="1920"
     inkscape:window-y="0"
     inkscape:window-maximized="1"
     inkscape:current-layer="svg7384">
    <inkscape:grid
       type="xygrid"
       id="grid839" />
  </sodipodi:namedview>
  <metadata
     id="metadata20854">
    <rdf:RDF>
      <cc:Work
         rdf:about="">
        <dc:format>image/svg+xml</dc:format>
        <dc:type
           rdf:resource="http://purl.org/dc/dcmitype/StillImage" />
      </cc:Work>
    </rdf:RDF>
  </metadata>
  <defs
     id="defs7386">
    <linearGradient
       id="linearGradient5606"
       inkscape:swatch="solid">
      <stop
         id="stop5608"
         offset="0"
         style="stop-color:#000000;stop-opacity:1;" />
    </linearGradient>
    <linearGradient
       id="linearGradient4526"
       inkscape:swatch="solid">
      <stop
         id="stop4528"
         offset="0"
         style="stop-color:#ffffff;stop-opacity:1;" />
    </linearGradient>
    <linearGradient
       id="linearGradient3600-4"
       inkscape:swatch="gradient">
      <stop
         id="stop3602-7"
         offset="0"
         style="stop-color:#f4f4f4;stop-opacity:1" />
      <stop
         id="stop3604-6"
         offset="1"
         style="stop-color:#dbdbdb;stop-opacity:1" />
    </linearGradient>
  </defs>
  <path
     id="path866"
     style="color:#000000;fill:#808080;fill-opacity:1;-inkscape-stroke:none"
     d="M 5.7871094 2 C 5.1101636 2.00559 4.5365074 2.048153 4.0273438 2.3027344 C 3.6879015 2.4724556 3.3973384 2.765168 3.2304688 3.140625 C 3.0635987 3.516082 3 3.9583339 3 4.5 L 3 19.5 C 3 20.041666 3.0635989 20.483918 3.2304688 20.859375 C 3.3973384 21.234832 3.6879014 21.527544 4.0273438 21.697266 C 4.7062285 22.036708 5.500001 22 6.5 22 L 16.5 22 C 17.499999 22 18.293771 22.03671 18.972656 21.697266 C 19.312099 21.527544 19.602661 21.234832 19.769531 20.859375 C 19.936401 20.483918 20 20.041666 20 19.5 L 20 4.5 C 20 3.9583339 19.9364 3.516082 19.769531 3.140625 C 19.602661 2.765168 19.312099 2.4724556 18.972656 2.3027344 C 18.293771 1.963292 17.499999 2 16.5 2 L 6.5 2 C 6.2500003 2 6.012758 1.99814 5.7871094 2 z M 6 5 L 17 5 L 17 6 L 6 6 L 6 5 z M 6 7 L 13 7 L 13 8 L 6 8 L 6 7 z M 14.5 8 L 17.625 11.125 L 10.75 18 L 6.375 19.25 L 7.625 14.875 L 14.5 8 z M 6 9 L 10 9 L 10 10 L 6 10 L 6 9 z M 8.25 15.5 L 7.625 18 L 10.125 17.375 L 8.25 15.5 z " />
</svg>
