<?xml version="1.0" encoding="UTF-8" standalone="no"?>
<svg
   height="24"
   id="svg7384"
   version="1.1"
   width="24"
   sodipodi:docname="users.svg"
   inkscape:version="1.1 (ce6663b3b7, 2021-05-25)"
   xmlns:inkscape="http://www.inkscape.org/namespaces/inkscape"
   xmlns:sodipodi="http://sodipodi.sourceforge.net/DTD/sodipodi-0.dtd"
   xmlns="http://www.w3.org/2000/svg"
   xmlns:svg="http://www.w3.org/2000/svg"
   xmlns:rdf="http://www.w3.org/1999/02/22-rdf-syntax-ns#"
   xmlns:cc="http://creativecommons.org/ns#"
   xmlns:dc="http://purl.org/dc/elements/1.1/">
  <sodipodi:namedview
     pagecolor="#ffffff"
     bordercolor="#666666"
     borderopacity="1"
     objecttolerance="10"
     gridtolerance="10"
     guidetolerance="10"
     inkscape:pageopacity="0"
     inkscape:pageshadow="2"
     inkscape:window-width="1920"
     inkscape:window-height="1016"
     id="namedview7724"
     showgrid="true"
     inkscape:zoom="20.859521"
     inkscape:cx="8.8928217"
     inkscape:cy="9.5160384"
     inkscape:window-x="0"
     inkscape:window-y="27"
     inkscape:window-maximized="1"
     inkscape:current-layer="svg7384"
     inkscape:pagecheckerboard="0"
     inkscape:snap-page="true">
    <inkscape:grid
       type="xygrid"
       id="grid1040" />
  </sodipodi:namedview>
  <metadata
     id="metadata20854">
    <rdf:RDF>
      <cc:Work
         rdf:about="">
        <dc:format>image/svg+xml</dc:format>
        <dc:type
           rdf:resource="http://purl.org/dc/dcmitype/StillImage" />
      </cc:Work>
    </rdf:RDF>
  </metadata>
  <defs
     id="defs7386">
    <linearGradient
       id="linearGradient5606"
       inkscape:swatch="solid">
      <stop
         id="stop5608"
         offset="0"
         style="stop-color:#000000;stop-opacity:1;" />
    </linearGradient>
    <linearGradient
       id="linearGradient4526"
       inkscape:swatch="solid">
      <stop
         id="stop4528"
         offset="0"
         style="stop-color:#ffffff;stop-opacity:1;" />
    </linearGradient>
    <linearGradient
       id="linearGradient3600-4"
       inkscape:swatch="gradient">
      <stop
         id="stop3602-7"
         offset="0"
         style="stop-color:#f4f4f4;stop-opacity:1" />
      <stop
         id="stop3604-6"
         offset="1"
         style="stop-color:#dbdbdb;stop-opacity:1" />
    </linearGradient>
  </defs>
  <g
     id="layer9"
     label="status"
     style="display:inline;stroke-width:0.8;opacity:1"
     transform="matrix(1.25,0,0,1.25,-1089.2503,235.74994)" />
  <g
     id="layer2"
     style="display:inline;stroke-width:0.8;opacity:1"
     transform="matrix(1.25,0,0,1.25,-788.00002,-223.00006)" />
  <g
     id="layer4"
     style="display:inline;stroke-width:0.8;opacity:1"
     transform="matrix(1.25,0,0,1.25,-788.00002,-223.00006)" />
  <g
     id="g1812"
     style="display:inline;stroke-width:0.8;opacity:1"
     transform="matrix(1.25,0,0,1.25,-788.00002,-223.00006)" />
  <g
     id="g6217"
     style="display:inline;stroke-width:0.8;opacity:1"
     transform="matrix(1.25,0,0,1.25,-788.00002,-223.00006)" />
  <g
     id="layer3"
     style="display:inline;stroke-width:0.8;opacity:1"
     transform="matrix(1.25,0,0,1.25,-788.00002,-223.00006)" />
  <g
     id="layer1"
     style="display:inline;stroke-width:0.8;opacity:1"
     transform="matrix(1.25,0,0,1.25,-788.00002,-223.00006)" />
  <path
     inkscape:connector-curvature="0"
     style="opacity:1;vector-effect:none;fill:#808080;fill-opacity:1;stroke:none;stroke-width:1.88976;stroke-linecap:round;stroke-linejoin:round;stroke-miterlimit:4;stroke-dasharray:none;stroke-dashoffset:0;stroke-opacity:1"
     d="m 12,15.999563 c -2.77,0 -5,2.229999 -5,4.999999 h 1.25 c 0,-2.0775 1.6725,-3.75 3.75,-3.75 h 5 c 2.0775,0 3.75,1.6725 3.75,3.75 h 1.25 c 0,-2.77 -2.23,-4.999999 -5,-4.999999 z"
     id="rect5341" />
  <path
     inkscape:connector-curvature="0"
     style="color:#000000;font-style:normal;font-variant:normal;font-weight:normal;font-stretch:normal;font-size:medium;line-height:125%;font-family:Ubuntu;-inkscape-font-specification:'Ubuntu, Normal';font-variant-ligatures:normal;font-variant-position:normal;font-variant-caps:normal;font-variant-numeric:normal;font-variant-alternates:normal;font-feature-settings:normal;text-indent:0;text-align:start;text-decoration:none;text-decoration-line:none;text-decoration-style:solid;text-decoration-color:#000000;letter-spacing:0px;word-spacing:0px;text-transform:none;writing-mode:lr-tb;direction:ltr;text-orientation:mixed;dominant-baseline:auto;baseline-shift:baseline;text-anchor:start;white-space:normal;shape-padding:0;clip-rule:nonzero;display:inline;overflow:visible;visibility:visible;opacity:1;isolation:auto;mix-blend-mode:normal;color-interpolation:sRGB;color-interpolation-filters:linearRGB;solid-color:#000000;solid-opacity:1;fill:#808080;fill-opacity:1;fill-rule:nonzero;stroke:none;stroke-width:2;stroke-linecap:butt;stroke-linejoin:miter;stroke-miterlimit:4;stroke-dasharray:none;stroke-dashoffset:0;stroke-opacity:1;color-rendering:auto;image-rendering:auto;shape-rendering:auto;text-rendering:auto;enable-background:accumulate"
     d="m 14.5,6.002 c -0.574188,0 -1.12115,0.106625 -1.623538,0.322275 -0.499437,0.2053 -0.940174,0.505625 -1.308587,0.8959875 l -0.005,0.005 -0.0025,0.0025 c -0.358925,0.392175 -0.635237,0.863925 -0.830075,1.398925 -0.198475,0.53545 -0.292975,1.123163 -0.292975,1.7504885 0,0.635949 0.09413,1.226237 0.292975,1.7627 0.1953,0.526899 0.472025,0.993037 0.830075,1.384274 l 0.0025,0.0025 0.005,0.0025 c 0.367563,0.389463 0.80655,0.696025 1.303713,0.910638 l 0.0025,0.0025 0.005,0.0025 c 0.501349,0.205337 1.047787,0.307612 1.621099,0.307612 0.5732,0 1.116901,-0.102 1.61865,-0.307612 v -0.0025 c 0.496763,-0.214438 0.932688,-0.522213 1.291501,-0.913088 0.368725,-0.391287 0.653574,-0.857724 0.849612,-1.386724 0.199625,-0.536475 0.292975,-1.129201 0.292975,-1.765139 h 0.01 c 0,-0.6265995 -0.09487,-1.2106745 -0.292975,-1.7455995 -0.195263,-0.5372625 -0.4777,-1.01135 -0.847163,-1.4038125 -0.3597,-0.3921125 -0.799787,-0.6955125 -1.298824,-0.900875 -0.502388,-0.2178875 -1.048913,-0.3247125 -1.623538,-0.3247125 z m -0.1416,1.2988375 c 0.677938,-0.053125 1.387675,0.131925 1.896975,0.5957 0.959813,0.782825 1.169788,2.1459635 0.93505,3.3032255 -0.160837,1.048363 -0.984475,2.001463 -2.041012,2.204588 -1.027613,0.235374 -2.208713,-0.08012 -2.827151,-0.974126 -0.662737,-0.864663 -0.688075,-2.027263 -0.498037,-3.0542005 0.263413,-1.150062 1.320988,-2.122312 2.534175,-2.075187 z"
     id="path3307-6" />
  <path
     style="display:inline;opacity:1;vector-effect:none;fill:#808080;fill-opacity:1;stroke:none;stroke-width:1.88976;stroke-linecap:round;stroke-linejoin:round;stroke-miterlimit:4;stroke-dasharray:none;stroke-dashoffset:0;stroke-opacity:1"
     d="m 9.5,2.252 c -0.5741875,0 -1.12115,0.106625 -1.6235375,0.322275 -0.4994375,0.2053 -0.940175,0.505625 -1.3085875,0.8959875 l -0.005,0.005 -0.0025,0.0025 c -0.358925,0.392175 -0.63525,0.863925 -0.830075,1.398925 -0.198475,0.53545 -0.292975,1.1231625 -0.292975,1.7504875 0,0.63595 0.094125,1.2262375 0.292975,1.7627 0.1953,0.5269 0.472025,0.9930375 0.830075,1.3842755 l 0.0025,0.0025 0.005,0.0025 c 0.3675625,0.3894615 0.80655,0.6960245 1.3037125,0.9106365 l 0.0025,0.0025 0.005,0.0025 c 0.41735,0.170925 0.871025,0.25465 1.3403375,0.2832 -0.01125,-0.1055 -0.019125,-0.211362 -0.024375,-0.317375 -0.013375,-0.318725 -0.00113,-0.638075 0.036625,-0.9545995 -0.7483625,-0.06237 -1.4710125,-0.391988 -1.9091875,-1.0253875 -0.6627375,-0.8646625 -0.6881125,-2.0272625 -0.4980375,-3.0542 0.2634125,-1.1500625 1.3209875,-2.1223125 2.534175,-2.0751875 0.677938,-0.053125 1.387675,0.131925 1.896975,0.5957 0.4004,0.3265625 0.663625,0.75655 0.825188,1.228025 0.378662,-0.2072 0.779487,-0.3654 1.19385,-0.4711875 -0.0025,-0.0075 -0.0025,-0.015 -0.005,-0.022 -0.19525,-0.5372625 -0.4777,-1.01135 -0.847163,-1.4038125 -0.3597,-0.3921125 -0.799787,-0.6955125 -1.298825,-0.900875 -0.502387,-0.2178875 -1.048912,-0.3247125 -1.6235375,-0.3247125 z m -2.5,9.997563 c -2.77,0 -5,2.23 -5,4.999999 v 1.25 h 1.2500125 l -1.25e-5,-1.25 c -1.25e-5,-2.0775 1.6725,-3.749999 3.75,-3.749999 h 3.088375 c -0.24525,-0.389037 -0.443725,-0.80895 -0.5908125,-1.25 z"
     id="rect5341-7"
     inkscape:connector-curvature="0"
     sodipodi:nodetypes="scccccscccccccccccccccccccsssccssccss" />
</svg>
