<?xml version="1.0" encoding="UTF-8" standalone="no"?>
<svg viewBox="0 1 24 24" height="24" id="svg7384" version="1.1" width="24" sodipodi:docname="utilities.svg" inkscape:version="1.1.2 (08b2f3d93c, 2022-04-05)"
   xmlns:inkscape="http://www.inkscape.org/namespaces/inkscape"
   xmlns:sodipodi="http://sodipodi.sourceforge.net/DTD/sodipodi-0.dtd"
   xmlns="http://www.w3.org/2000/svg"
   xmlns:svg="http://www.w3.org/2000/svg"
   xmlns:rdf="http://www.w3.org/1999/02/22-rdf-syntax-ns#"
   xmlns:cc="http://creativecommons.org/ns#"
   xmlns:dc="http://purl.org/dc/elements/1.1/">
   <sodipodi:namedview pagecolor="#ffffff" bordercolor="#666666" borderopacity="1" objecttolerance="10" gridtolerance="10" guidetolerance="10" inkscape:pageopacity="0" inkscape:pageshadow="2" inkscape:window-width="1920" inkscape:window-height="1043" id="namedview8927" showgrid="true" inkscape:zoom="14.75" inkscape:cx="19.084746" inkscape:cy="8" inkscape:window-x="1920" inkscape:window-y="0" inkscape:window-maximized="1" inkscape:current-layer="svg7384" inkscape:pagecheckerboard="0">
      <inkscape:grid type="xygrid" id="grid838" />
      <inkscape:grid type="xygrid" id="grid1183" dotted="true" spacingx="0.5" spacingy="0.5" empspacing="10" />
   </sodipodi:namedview>
   <metadata id="metadata20854">
      <rdf:RDF>
         <cc:Work rdf:about="">
            <dc:format>image/svg+xml</dc:format>
            <dc:type rdf:resource="http://purl.org/dc/dcmitype/StillImage" />
         </cc:Work>
      </rdf:RDF>
   </metadata>
   <defs id="defs7386">
      <linearGradient id="linearGradient5606" inkscape:swatch="solid">
         <stop id="stop5608" offset="0" style="stop-color:#000000;stop-opacity:1;" />
      </linearGradient>
      <linearGradient id="linearGradient4526" inkscape:swatch="solid">
         <stop id="stop4528" offset="0" style="stop-color:#ffffff;stop-opacity:1;" />
      </linearGradient>
      <linearGradient id="linearGradient3600-4" inkscape:swatch="gradient">
         <stop id="stop3602-7" offset="0" style="stop-color:#f4f4f4;stop-opacity:1" />
         <stop id="stop3604-6" offset="1" style="stop-color:#dbdbdb;stop-opacity:1" />
      </linearGradient>
   </defs>
   <path id="rect6717" style="opacity:1;vector-effect:none;fill:#808080;fill-opacity:1;stroke:none;stroke-width:1.25;stroke-linecap:round;stroke-linejoin:round;stroke-miterlimit:4;stroke-dasharray:none;stroke-dashoffset:0;stroke-opacity:1" d="M 6.4863281 2 C 5.4091831 2.0023783 4.5116879 2.2812809 3.8964844 2.8964844 C 3.2786339 3.5143349 3 4.4166677 3 5.5 L 3 18.5 C 3 19.583332 3.2786339 20.485665 3.8964844 21.103516 C 4.5143349 21.721366 5.4166677 22 6.5 22 L 8.5 22 C 9.5833323 22 10.485665 21.721366 11.103516 21.103516 C 11.721366 20.485665 12 19.583332 12 18.5 L 12 13.25 C 13.25 13.875 15.881812 16.188238 19.5 17 C 18.358687 12.635975 15.125 10.125 12 8.25 L 12 7 L 15.75 7 L 15.75 6.6933594 C 15.75 5.3083719 16.3075 4.5 17 4.5 C 17.6925 4.5 18.25 5.3083719 18.25 6.6933594 L 18.25 7 C 19.635 7 20.75 5.26 20.75 3.875 C 20.75 2.49 19.635 2 18.25 2 L 8.5 2 L 7.1328125 2 L 7.1171875 2 L 6.4902344 2 C 6.4889142 2 6.4876432 1.9999837 6.4863281 2 z M 6.5 3 L 8.5 3 C 9.4166658 3 10.014336 3.2213671 10.396484 3.6035156 C 10.778633 3.9856641 11 4.5833342 11 5.5 L 11 18.5 C 11 19.416666 10.778633 20.014336 10.396484 20.396484 C 10.014336 20.778633 9.4166658 21 8.5 21 L 6.5 21 C 5.5833342 21 4.9856641 20.778633 4.6035156 20.396484 C 4.2213671 20.014336 4 19.416666 4 18.5 L 4 5.5 C 4 4.5833342 4.2213671 3.9856641 4.6035156 3.6035156 C 4.9856641 3.2213671 5.5833342 3 6.5 3 z M 7.5 5 A 1.5 1.5 0 0 0 6 6.5 A 1.5 1.5 0 0 0 7.5 8 A 1.5 1.5 0 0 0 9 6.5 A 1.5 1.5 0 0 0 7.5 5 z M 7.5 6 A 0.5 0.5 0 0 1 8 6.5 A 0.5 0.5 0 0 1 7.5 7 A 0.5 0.5 0 0 1 7 6.5 A 0.5 0.5 0 0 1 7.5 6 z M 15.125 12 C 15.470175 12 15.995662 12.595975 16.21875 12.859375 C 17.7878 15.660975 15.529625 13.530338 14.5 12.625 C 14.5 12.279825 14.779825 12 15.125 12 z " />
</svg>
