<?xml version="1.0" encoding="UTF-8" standalone="no"?>
<svg
   height="24"
   width="24"
   version="1.1"
   id="svg6"
   sodipodi:docname="video.svg"
   inkscape:version="1.1 (ce6663b3b7, 2021-05-25)"
   xmlns:inkscape="http://www.inkscape.org/namespaces/inkscape"
   xmlns:sodipodi="http://sodipodi.sourceforge.net/DTD/sodipodi-0.dtd"
   xmlns="http://www.w3.org/2000/svg"
   xmlns:svg="http://www.w3.org/2000/svg">
  <defs
     id="defs10" />
  <sodipodi:namedview
     id="namedview8"
     pagecolor="#ffffff"
     bordercolor="#666666"
     borderopacity="1.0"
     inkscape:pageshadow="2"
     inkscape:pageopacity="0.0"
     inkscape:pagecheckerboard="0"
     showgrid="true"
     inkscape:snap-page="true"
     inkscape:zoom="28"
     inkscape:cx="10.053571"
     inkscape:cy="11.803571"
     inkscape:window-width="1920"
     inkscape:window-height="1016"
     inkscape:window-x="0"
     inkscape:window-y="27"
     inkscape:window-maximized="1"
     inkscape:current-layer="svg6">
    <inkscape:grid
       type="xygrid"
       id="grid1016" />
  </sodipodi:namedview>
  <g
     color="#000000"
     transform="matrix(1.25,0,0,1.25,-413.625,-198.625)"
     id="g4"
     style="stroke-width:0.8">
    <path
       d="m 333,162 v 13 h 1 v -1 h 1 v 1 h 11 v -1 h 1 v 1 h 1 v -13 h -1 v 1 h -1 v -1 h -11 v 1 h -1 v -1 z m 3,1 h 9 v 5 h -9 z m -2,1 h 1 v 1 h -1 z m 12,0 h 1 v 1 h -1 z m -12,2 h 1 v 1 h -1 z m 12,0 h 1 v 1 h -1 z m -12,2 h 1 v 1 h -1 z m 12,0 h 1 v 1 h -1 z m -10,1 h 9 v 5 h -9 z m -2,1 h 1 v 1 h -1 z m 12,0 h 1 v 1 h -1 z m -12,2 h 1 v 1 h -1 z m 12,0 h 1 v 1 h -1 z"
       fill="#808080"
       overflow="visible"
       style="stroke-width:0.64;marker:none"
       id="path2" />
  </g>
</svg>
