<?xml version="1.0" encoding="UTF-8" standalone="no"?>
<svg
   height="24"
   id="svg7384"
   version="1.1"
   width="24"
   sodipodi:docname="view-filled.svg"
   inkscape:version="1.1 (ce6663b3b7, 2021-05-25)"
   xmlns:inkscape="http://www.inkscape.org/namespaces/inkscape"
   xmlns:sodipodi="http://sodipodi.sourceforge.net/DTD/sodipodi-0.dtd"
   xmlns="http://www.w3.org/2000/svg"
   xmlns:svg="http://www.w3.org/2000/svg"
   xmlns:rdf="http://www.w3.org/1999/02/22-rdf-syntax-ns#"
   xmlns:cc="http://creativecommons.org/ns#"
   xmlns:dc="http://purl.org/dc/elements/1.1/">
  <sodipodi:namedview
     id="namedview23"
     pagecolor="#ffffff"
     bordercolor="#666666"
     borderopacity="1.0"
     inkscape:pageshadow="2"
     inkscape:pageopacity="0.0"
     inkscape:pagecheckerboard="0"
     showgrid="false"
     inkscape:snap-page="true"
     inkscape:zoom="14"
     inkscape:cx="-5.8928571"
     inkscape:cy="1.6071429"
     inkscape:window-width="1920"
     inkscape:window-height="1016"
     inkscape:window-x="0"
     inkscape:window-y="27"
     inkscape:window-maximized="1"
     inkscape:current-layer="svg7384" />
  <metadata
     id="metadata20854">
    <rdf:RDF>
      <cc:Work
         rdf:about="">
        <dc:format>image/svg+xml</dc:format>
        <dc:type
           rdf:resource="http://purl.org/dc/dcmitype/StillImage" />
      </cc:Work>
    </rdf:RDF>
  </metadata>
  <defs
     id="defs7386">
    <linearGradient
       id="linearGradient5606"
       inkscape:swatch="solid">
      <stop
         id="stop5608"
         offset="0"
         style="stop-color:#000000;stop-opacity:1;" />
    </linearGradient>
    <linearGradient
       id="linearGradient4526"
       inkscape:swatch="solid">
      <stop
         id="stop4528"
         offset="0"
         style="stop-color:#ffffff;stop-opacity:1;" />
    </linearGradient>
    <linearGradient
       id="linearGradient3600-4"
       inkscape:swatch="gradient">
      <stop
         id="stop3602-7"
         offset="0"
         style="stop-color:#f4f4f4;stop-opacity:1" />
      <stop
         id="stop3604-6"
         offset="1"
         style="stop-color:#dbdbdb;stop-opacity:1" />
    </linearGradient>
  </defs>
  <path
     id="path2314"
     style="vector-effect:none;fill:#808080;fill-opacity:1;stroke:none;stroke-width:1.5;stroke-linecap:butt;stroke-linejoin:round;stroke-miterlimit:4;stroke-dasharray:none;stroke-dashoffset:0;stroke-opacity:1;marker:none;marker-start:none;marker-mid:none;marker-end:none;paint-order:normal"
     d="M 11.998047 4.4472656 C 7.4381218 4.4535156 3.4586312 7.5424098 2.3242188 11.958984 C 3.4679936 16.365859 7.4451593 19.444329 11.998047 19.447266 C 16.557972 19.440966 20.535509 16.352122 21.669922 11.935547 C 20.526147 7.5286718 16.550934 4.4502031 11.998047 4.4472656 z M 11.990234 6.9472656 C 12.073675 6.9467969 12.158806 6.949375 12.242188 6.953125 C 14.807087 7.078925 16.859147 9.126782 16.990234 11.691406 L 16.990234 11.693359 C 17.129971 14.450571 15.009115 16.798753 12.251953 16.939453 C 9.4947532 17.07919 7.1446062 14.958334 7.0039062 12.201172 C 6.8641437 9.4448843 8.9840473 7.0970781 11.740234 6.9550781 C 11.823578 6.9507031 11.906794 6.9477344 11.990234 6.9472656 z M 11.806641 8.203125 A 3.75 3.75 0 0 0 8.2519531 12.138672 A 3.75 3.75 0 0 0 12.1875 15.693359 A 3.75 3.75 0 0 0 15.742188 11.757812 L 15.742188 11.753906 A 3.75 3.75 0 0 0 11.806641 8.203125 z M 11.871094 9.4492188 A 2.5 2.5 0 0 1 12.726562 9.5605469 A 1.25 1.25 0 0 0 12 10.761719 A 1.25 1.25 0 0 0 13.310547 11.945312 A 1.25 1.25 0 0 0 14.384766 11.212891 A 2.5 2.5 0 0 1 14.494141 11.820312 A 2.5 2.5 0 0 1 12.125 14.445312 A 2.5 2.5 0 0 1 9.5 12.074219 A 2.5 2.5 0 0 1 11.871094 9.4492188 z " />
  <g
     id="layer9"
     label="status"
     style="display:inline;stroke-width:0.8"
     transform="matrix(1.25,0,0,1.25,-594.25301,-14.290169)" />
  <g
     id="layer2"
     style="display:inline;stroke-width:0.8"
     transform="matrix(1.25,0,0,1.25,-293.00276,-473.04018)" />
  <g
     id="layer4"
     style="display:inline;stroke-width:0.8"
     transform="matrix(1.25,0,0,1.25,-293.00276,-473.04018)" />
  <g
     id="g1812"
     style="display:inline;stroke-width:0.8"
     transform="matrix(1.25,0,0,1.25,-293.00276,-473.04018)" />
  <g
     id="g6217"
     style="display:inline;stroke-width:0.8"
     transform="matrix(1.25,0,0,1.25,-293.00276,-473.04018)" />
  <g
     id="layer3"
     style="display:inline;stroke-width:0.8"
     transform="matrix(1.25,0,0,1.25,-293.00276,-473.04018)" />
  <g
     id="g1833"
     style="display:inline;stroke-width:0.8"
     transform="matrix(1.25,0,0,1.25,-293.00276,-473.04018)" />
</svg>
