<?xml version="1.0" encoding="UTF-8" standalone="no"?>
<svg
   height="24"
   id="svg7384"
   version="1.1"
   width="24"
   sodipodi:docname="view-filled.svg"
   inkscape:version="1.1 (ce6663b3b7, 2021-05-25)"
   xmlns:inkscape="http://www.inkscape.org/namespaces/inkscape"
   xmlns:sodipodi="http://sodipodi.sourceforge.net/DTD/sodipodi-0.dtd"
   xmlns="http://www.w3.org/2000/svg"
   xmlns:svg="http://www.w3.org/2000/svg"
   xmlns:rdf="http://www.w3.org/1999/02/22-rdf-syntax-ns#"
   xmlns:cc="http://creativecommons.org/ns#"
   xmlns:dc="http://purl.org/dc/elements/1.1/">
  <sodipodi:namedview
     id="namedview23"
     pagecolor="#ffffff"
     bordercolor="#666666"
     borderopacity="1.0"
     inkscape:pageshadow="2"
     inkscape:pageopacity="0.0"
     inkscape:pagecheckerboard="0"
     showgrid="false"
     inkscape:snap-page="true"
     inkscape:zoom="19.79899"
     inkscape:cx="24.420438"
     inkscape:cy="7.045814"
     inkscape:window-width="1920"
     inkscape:window-height="1016"
     inkscape:window-x="0"
     inkscape:window-y="27"
     inkscape:window-maximized="1"
     inkscape:current-layer="svg7384" />
  <metadata
     id="metadata20854">
    <rdf:RDF>
      <cc:Work
         rdf:about="">
        <dc:format>image/svg+xml</dc:format>
        <dc:type
           rdf:resource="http://purl.org/dc/dcmitype/StillImage" />
      </cc:Work>
    </rdf:RDF>
  </metadata>
  <defs
     id="defs7386">
    <linearGradient
       id="linearGradient5606"
       inkscape:swatch="solid">
      <stop
         id="stop5608"
         offset="0"
         style="stop-color:#000000;stop-opacity:1;" />
    </linearGradient>
    <linearGradient
       id="linearGradient4526"
       inkscape:swatch="solid">
      <stop
         id="stop4528"
         offset="0"
         style="stop-color:#ffffff;stop-opacity:1;" />
    </linearGradient>
    <linearGradient
       id="linearGradient3600-4"
       inkscape:swatch="gradient">
      <stop
         id="stop3602-7"
         offset="0"
         style="stop-color:#f4f4f4;stop-opacity:1" />
      <stop
         id="stop3604-6"
         offset="1"
         style="stop-color:#dbdbdb;stop-opacity:1" />
    </linearGradient>
  </defs>
  <path
     id="path953"
     style="color:#000000;fill:#808080;fill-opacity:1;-inkscape-stroke:none"
     d="M 12 5 C 4.6904841 5 2.0332031 11.820312 2.0332031 11.820312 L 1.9648438 12 L 2.0332031 12.179688 C 2.0332031 12.179688 4.6904841 19 12 19 C 19.309516 19 21.966797 12.179688 21.966797 12.179688 L 22.035156 12 L 21.966797 11.820312 C 21.966797 11.820312 19.309516 4.9999999 12 5 z M 12 7 A 5 5 0 0 1 17 12 A 5 5 0 0 1 12 17 A 5 5 0 0 1 7 12 A 5 5 0 0 1 12 7 z M 12 8 A 4 4 0 0 0 8 12 A 4 4 0 0 0 12 16 A 4 4 0 0 0 16 12 A 4 4 0 0 0 12 8 z M 12 9 A 3 3 0 0 1 12.882812 9.1328125 A 1.5 1.5 0 0 0 12 10.5 A 1.5 1.5 0 0 0 13.5 12 A 1.5 1.5 0 0 0 14.867188 11.117188 A 3 3 0 0 1 15 12 A 3 3 0 0 1 12 15 A 3 3 0 0 1 9 12 A 3 3 0 0 1 12 9 z " />
  <g
     id="layer9"
     label="status"
     style="display:inline;fill:#808080;fill-opacity:1;stroke-width:0.8"
     transform="matrix(1.25,0,0,1.25,-594.25301,-14.290169)" />
  <g
     id="layer2"
     style="display:inline;fill:#808080;fill-opacity:1;stroke-width:0.8"
     transform="matrix(1.25,0,0,1.25,-293.00276,-473.04018)" />
  <g
     id="layer4"
     style="display:inline;fill:#808080;fill-opacity:1;stroke-width:0.8"
     transform="matrix(1.25,0,0,1.25,-293.00276,-473.04018)" />
  <g
     id="g1812"
     style="display:inline;fill:#808080;fill-opacity:1;stroke-width:0.8"
     transform="matrix(1.25,0,0,1.25,-293.00276,-473.04018)" />
  <g
     id="g6217"
     style="display:inline;fill:#808080;fill-opacity:1;stroke-width:0.8"
     transform="matrix(1.25,0,0,1.25,-293.00276,-473.04018)" />
  <g
     id="layer3"
     style="display:inline;fill:#808080;fill-opacity:1;stroke-width:0.8"
     transform="matrix(1.25,0,0,1.25,-293.00276,-473.04018)" />
  <g
     id="g1833"
     style="display:inline;fill:#808080;fill-opacity:1;stroke-width:0.8"
     transform="matrix(1.25,0,0,1.25,-293.00276,-473.04018)" />
</svg>
