<?xml version="1.0" encoding="UTF-8" standalone="no"?>
<svg viewBox="0 1 24 24" height="24" id="svg7384" version="1.1" width="24" sodipodi:docname="view.svg" inkscape:version="1.1 (ce6663b3b7, 2021-05-25)"
   xmlns:inkscape="http://www.inkscape.org/namespaces/inkscape"
   xmlns:sodipodi="http://sodipodi.sourceforge.net/DTD/sodipodi-0.dtd"
   xmlns="http://www.w3.org/2000/svg"
   xmlns:svg="http://www.w3.org/2000/svg"
   xmlns:rdf="http://www.w3.org/1999/02/22-rdf-syntax-ns#"
   xmlns:cc="http://creativecommons.org/ns#"
   xmlns:dc="http://purl.org/dc/elements/1.1/">
   <sodipodi:namedview id="namedview23" pagecolor="#ffffff" bordercolor="#666666" borderopacity="1.0" inkscape:pageshadow="2" inkscape:pageopacity="0.0" inkscape:pagecheckerboard="0" showgrid="true" inkscape:snap-page="true" inkscape:zoom="14" inkscape:cx="8.0357143" inkscape:cy="6.3214286" inkscape:window-width="1920" inkscape:window-height="1016" inkscape:window-x="0" inkscape:window-y="27" inkscape:window-maximized="1" inkscape:current-layer="svg7384">
      <inkscape:grid type="xygrid" id="grid24" />
      <inkscape:grid type="xygrid" id="grid918" dotted="true" spacingx="0.5" spacingy="0.5" empspacing="10" />
   </sodipodi:namedview>
   <metadata id="metadata20854">
      <rdf:RDF>
         <cc:Work rdf:about="">
            <dc:format>image/svg+xml</dc:format>
            <dc:type rdf:resource="http://purl.org/dc/dcmitype/StillImage" />
         </cc:Work>
      </rdf:RDF>
   </metadata>
   <defs id="defs7386">
      <linearGradient id="linearGradient5606" inkscape:swatch="solid">
         <stop id="stop5608" offset="0" style="stop-color:#000000;stop-opacity:1;" />
      </linearGradient>
      <linearGradient id="linearGradient4526" inkscape:swatch="solid">
         <stop id="stop4528" offset="0" style="stop-color:#ffffff;stop-opacity:1;" />
      </linearGradient>
      <linearGradient id="linearGradient3600-4" inkscape:swatch="gradient">
         <stop id="stop3602-7" offset="0" style="stop-color:#f4f4f4;stop-opacity:1" />
         <stop id="stop3604-6" offset="1" style="stop-color:#dbdbdb;stop-opacity:1" />
      </linearGradient>
   </defs>
   <g id="layer9" label="status" style="display:inline;stroke-width:0.8;fill:#808080;fill-opacity:1" transform="matrix(1.25,0,0,1.25,-594.25301,-14.290169)" />
   <g id="layer2" style="display:inline;stroke-width:0.8;fill:#808080;fill-opacity:1" transform="matrix(1.25,0,0,1.25,-293.00276,-473.04018)" />
   <g id="layer4" style="display:inline;stroke-width:0.8;fill:#808080;fill-opacity:1" transform="matrix(1.25,0,0,1.25,-293.00276,-473.04018)" />
   <g id="g1812" style="display:inline;stroke-width:0.8;fill:#808080;fill-opacity:1" transform="matrix(1.25,0,0,1.25,-293.00276,-473.04018)" />
   <g id="g6217" style="display:inline;stroke-width:0.8;fill:#808080;fill-opacity:1" transform="matrix(1.25,0,0,1.25,-293.00276,-473.04018)" />
   <g id="layer3" style="display:inline;stroke-width:0.8;fill:#808080;fill-opacity:1" transform="matrix(1.25,0,0,1.25,-293.00276,-473.04018)" />
   <g id="g1833" style="display:inline;stroke-width:0.8;fill:#808080;fill-opacity:1" transform="matrix(1.25,0,0,1.25,-293.00276,-473.04018)" />
   <path style="color:#000000;fill:#808080;fill-rule:evenodd;stroke-linecap:square;stroke-linejoin:round;-inkscape-stroke:none;fill-opacity:1" d="m 12,9 a 3,3 0 0 0 -3,3 3,3 0 0 0 3,3 3,3 0 0 0 3,-3 3,3 0 0 0 -0.132812,-0.882812 1.5,1.5 0 0 1 -1.367188,0.882812 1.5,1.5 0 0 1 -1.5,-1.5 1.5,1.5 0 0 1 0.882812,-1.3671875 3,3 0 0 0 -0.882812,-0.1328125 z" id="path93" />
   <path style="color:#000000;fill:#808080;fill-rule:evenodd;stroke-linecap:square;stroke-linejoin:round;-inkscape-stroke:none;fill-opacity:1" d="m 12,7 a 5,5 0 0 0 -5,5 5,5 0 0 0 5,5 5,5 0 0 0 5,-5 5,5 0 0 0 -5,-5 z m 0,1 a 4,4 0 0 1 4,4 4,4 0 0 1 -4,4 4,4 0 0 1 -4,-4 4,4 0 0 1 4,-4 z" id="path98" />
   <path style="color:#000000;fill:#808080;-inkscape-stroke:none;fill-opacity:1" d="m 12,5 c -7.3095165,0 -9.9667969,6.820313 -9.9667969,6.820313 l -0.068359,0.179687 0.068359,0.179688 c 0,0 2.6572804,6.820312 9.9667969,6.820312 7.309516,0 9.966797,-6.820312 9.966797,-6.820312 l 0.06836,-0.179688 -0.06836,-0.179687 c 0,0 -2.657281,-6.820313 -9.966797,-6.820313 z m 0,1 c 6.378813,0 8.733063,5.476679 8.945312,6 -0.212249,0.523321 -2.566499,6 -8.945312,6 -6.3788133,0 -8.7330628,-5.476679 -8.9453125,-6 0.2122497,-0.523321 2.5664992,-6 8.9453125,-6 z" id="path953" />
</svg>
