<?xml version="1.0" encoding="UTF-8" standalone="no"?>
<svg
   height="24"
   width="24"
   version="1.1"
   id="svg4"
   sodipodi:docname="warning.svg"
   inkscape:version="1.1 (ce6663b3b7, 2021-05-25)"
   xmlns:inkscape="http://www.inkscape.org/namespaces/inkscape"
   xmlns:sodipodi="http://sodipodi.sourceforge.net/DTD/sodipodi-0.dtd"
   xmlns="http://www.w3.org/2000/svg"
   xmlns:svg="http://www.w3.org/2000/svg">
  <defs
     id="defs8" />
  <sodipodi:namedview
     id="namedview6"
     pagecolor="#ffffff"
     bordercolor="#666666"
     borderopacity="1.0"
     inkscape:pageshadow="2"
     inkscape:pageopacity="0.0"
     inkscape:pagecheckerboard="0"
     showgrid="false"
     width="24px"
     inkscape:zoom="27.996499"
     inkscape:cx="3.6254533"
     inkscape:cy="4.9470471"
     inkscape:window-width="1920"
     inkscape:window-height="1016"
     inkscape:window-x="0"
     inkscape:window-y="27"
     inkscape:window-maximized="1"
     inkscape:current-layer="svg4" />
  <path
     color="#000000"
     d="m 11.953119,2.6228573 a 1.8739934,1.8739934 0 0 0 -1.596457,0.9813775 l -8.1285564,15.0019492 a 1.8752436,1.8752436 0 0 0 1.6452137,2.77161 h 16.2521117 a 1.8752436,1.8752436 0 0 0 1.646464,-2.77161 l -8.123556,-15.0019492 a 1.870243,1.870243 0 0 0 -1.69522,-0.9813775 z m 0.03125,1.2501624 a 0.61758023,0.61758023 0 0 1 0.563823,0.3275426 l 8.123556,15.0019487 c 0.253783,0.467561 -0.02,0.92512 -0.546321,0.92512 h -16.2521118 c -0.5275685,0 -0.8001039,-0.457559 -0.5475711,-0.92512 l 8.1285559,-15.0019487 a 0.61633006,0.61633006 0 0 1 0.530069,-0.3275426 z m -0.868863,2.5028251 v 3.3279324 c 0,0.9913788 0.0375,1.8964958 0.107514,2.7103518 0.07126,0.802604 0.160021,1.605209 0.266285,2.407813 h 1.025133 c 0.106264,-0.802604 0.196276,-1.605209 0.266285,-2.407813 0.07126,-0.813856 0.107514,-1.718973 0.107514,-2.7103518 v -3.3279324 z m 0.887616,10.0012992 a 1.2501624,1.2501624 0 0 0 -1.250163,1.250162 c 0,0.352546 0.147519,0.668837 0.38255,0.896367 0.212527,0.236281 0.500065,0.353796 0.866362,0.353796 0.366298,0 0.655086,-0.117515 0.867613,-0.353796 a 1.2426614,1.2426614 0 0 0 0.38255,-0.896367 1.2501624,1.2501624 0 0 0 -1.250163,-1.250162 z"
     fill="#808080"
     font-family="sans-serif"
     font-weight="400"
     overflow="visible"
     style="line-height:normal;font-variant-ligatures:normal;font-variant-position:normal;font-variant-caps:normal;font-variant-numeric:normal;font-variant-alternates:normal;font-feature-settings:normal;text-indent:0;text-align:start;text-decoration-line:none;text-decoration-style:solid;text-decoration-color:#000000;text-transform:none;text-orientation:mixed;shape-padding:0;isolation:auto;mix-blend-mode:normal;stroke-width:1"
     white-space="normal"
     id="path2" />
</svg>
