<?xml version="1.0" encoding="UTF-8" standalone="no"?>
<svg
   width="24"
   height="24"
   version="1.1"
   id="svg8"
   sodipodi:docname="windows.svg"
   inkscape:version="1.1 (ce6663b3b7, 2021-05-25)"
   xmlns:inkscape="http://www.inkscape.org/namespaces/inkscape"
   xmlns:sodipodi="http://sodipodi.sourceforge.net/DTD/sodipodi-0.dtd"
   xmlns="http://www.w3.org/2000/svg"
   xmlns:svg="http://www.w3.org/2000/svg"
   xmlns:rdf="http://www.w3.org/1999/02/22-rdf-syntax-ns#"
   xmlns:cc="http://creativecommons.org/ns#"
   xmlns:dc="http://purl.org/dc/elements/1.1/">
  <metadata
     id="metadata14">
    <rdf:RDF>
      <cc:Work
         rdf:about="">
        <dc:format>image/svg+xml</dc:format>
        <dc:type
           rdf:resource="http://purl.org/dc/dcmitype/StillImage" />
      </cc:Work>
    </rdf:RDF>
  </metadata>
  <defs
     id="defs12" />
  <sodipodi:namedview
     pagecolor="#ffffff"
     bordercolor="#666666"
     borderopacity="1"
     objecttolerance="10"
     gridtolerance="10"
     guidetolerance="10"
     inkscape:pageopacity="0"
     inkscape:pageshadow="2"
     inkscape:window-width="1920"
     inkscape:window-height="1016"
     id="namedview10"
     showgrid="true"
     inkscape:zoom="19.445437"
     inkscape:cx="10.20805"
     inkscape:cy="7.9967347"
     inkscape:window-x="0"
     inkscape:window-y="27"
     inkscape:window-maximized="1"
     inkscape:current-layer="svg8"
     inkscape:document-rotation="0"
     inkscape:pagecheckerboard="0"
     inkscape:snap-page="true">
    <inkscape:grid
       type="xygrid"
       id="grid839" />
  </sodipodi:namedview>
  <path
     id="rect833"
     style="opacity:1;fill:#808080;fill-opacity:1;fill-rule:evenodd;stroke:none;stroke-width:1;stroke-linejoin:round"
     d="m 12,3.25 c -0.6925,0 -1.25,0.5575 -1.25,1.25 v 7.5 c 0,0.6925 0.5575,1.25 1.25,1.25 h 7.5 c 0.6925,0 1.25,-0.5575 1.25,-1.25 v -7.5 c 0,-0.6925 -0.5575,-1.25 -1.25,-1.25 z m 7.5,2.5 v 5.625 c 0,0.34625 -0.27875,0.625 -0.625,0.625 h -6.25 c -0.34625,0 -0.625,-0.27875 -0.625,-0.625 v -5.625 z"
     sodipodi:nodetypes="ssssssssscsssscc" />
  <path
     id="path840"
     style="opacity:1;fill:#808080;fill-opacity:1;fill-rule:evenodd;stroke:none;stroke-width:1;stroke-linejoin:round"
     d="m 4.5,10.75 c -0.6925,0 -1.25,0.5575 -1.25,1.25 v 7.5 c 0,0.6925 0.5575,1.25 1.25,1.25 h 7.5 c 0.6925,0 1.25,-0.5575 1.25,-1.25 v -5 h -1.25 v 4.375 c 0,0.34625 -0.27875,0.625 -0.625,0.625 h -6.25 c -0.34625,0 -0.625,-0.27875 -0.625,-0.625 v -5.625 h 5 v -2.5 z" />
</svg>
