<?xml version="1.0" encoding="UTF-8" standalone="no"?>
<svg viewBox="0 1 24 24" height="24" width="24" version="1.1" id="svg4" sodipodi:docname="xfce-logo.svg" inkscape:version="1.2 (1:1.2.1+202207142221+cd75a1ee6d)"
   xmlns:inkscape="http://www.inkscape.org/namespaces/inkscape"
   xmlns:sodipodi="http://sodipodi.sourceforge.net/DTD/sodipodi-0.dtd"
   xmlns="http://www.w3.org/2000/svg"
   xmlns:svg="http://www.w3.org/2000/svg">
   <defs id="defs8" />
   <sodipodi:namedview id="namedview6" pagecolor="#ffffff" bordercolor="#666666" borderopacity="1.0" inkscape:showpageshadow="2" inkscape:pageopacity="0.0" inkscape:pagecheckerboard="0" inkscape:deskcolor="#d1d1d1" showgrid="false" inkscape:zoom="32.833333" inkscape:cx="11.436548" inkscape:cy="12.076142" inkscape:window-width="1850" inkscape:window-height="1016" inkscape:window-x="0" inkscape:window-y="0" inkscape:window-maximized="1" inkscape:current-layer="svg4" />
   <path id="path615" style="color:#000000;fill:#808080;stroke-width:0.126839pt" d="m 0.08024996,6.2490863 -0.013672,0.00391 -0.013672,0.00586 c -0.016458,0.00901 -0.035388,0.026726 -0.044922,0.048828 -0.00953,0.022103 -0.00919,0.043943 -0.00586,0.060547 0.00666,0.033209 0.022173,0.051811 0.037109,0.070312 0.029873,0.037004 0.070222,0.072424 0.1289062,0.1171875 0.117369,0.089527 0.3016559,0.2070818 0.5488282,0.3476563 0.49434464,0.2811449 1.24571034,0.653628 2.22460934,1.0566367 0.9655176,0.3974738 2.1245339,1.1048667 3.0117188,1.7519531 0.443593,0.3235431 0.819756,0.6322391 1.06836,0.8769531 0.124302,0.122357 0.216291,0.229232 0.267578,0.308594 0.02564,0.03968 0.03988,0.07238 0.04492,0.0918 0.005,0.01941 0.0027,0.02062 0.0059,0.01563 -0.641977,0.90564 -1.021713,2.004829 -0.761719,3.847657 0.005,0.03456 -0.02802,0.117484 -0.109375,0.216796 -0.08136,0.09931 -0.199573,0.212587 -0.318359,0.333985 -0.118787,0.121398 -0.2392609,0.250065 -0.3281257,0.384765 -0.088865,0.1347 -0.1497189,0.279697 -0.1269531,0.431641 v 0.002 c 0.011165,0.0678 0.057342,0.128561 0.1152344,0.154297 0.057893,0.02574 0.1184157,0.02607 0.1816414,0.01758 0.12645,-0.01699 0.270806,-0.07222 0.416015,-0.132812 0.14521,-0.06059 0.291374,-0.127197 0.402344,-0.167969 0.05047,-0.01854 0.09006,-0.03003 0.119141,-0.03516 -2.21e-4,0.01922 0.0012,0.02801 -0.0039,0.05859 -0.0093,0.05602 -0.02643,0.127691 -0.04883,0.207031 -0.04479,0.158679 -0.108542,0.350701 -0.167969,0.539062 -0.05943,0.188362 -0.114788,0.372919 -0.138672,0.523438 -0.01194,0.07526 -0.01575,0.141778 -0.0059,0.203125 0.0099,0.06135 0.04394,0.129588 0.111328,0.154297 h 0.0019 l 0.0039,0.002 c 0.04668,0.01387 0.07531,1.26e-4 0.105469,-0.01172 0.03016,-0.01184 0.06142,-0.02773 0.0957,-0.04883 0.06856,-0.0422 0.151224,-0.102644 0.24414,-0.175781 0.185833,-0.146275 0.41365,-0.344585 0.638672,-0.542969 0.225022,-0.198384 0.446712,-0.39816 0.617188,-0.544922 0.08524,-0.07338 0.156886,-0.132196 0.208984,-0.171875 0.02605,-0.01984 0.04812,-0.03556 0.06055,-0.04297 v -0.002 c -0.0028,4.68e-4 -0.0066,6.4e-5 -0.01172,0 -0.0051,-6.4e-5 -0.02028,-0.0022 -0.01953,-0.002 l -0.0019,-0.002 c 0.01093,0.0033 0.02225,6.55e-4 0.0332,0.0039 h 0.0019 c 0.0013,3.79e-4 0.0026,-3.78e-4 0.0039,0 1.3705235,0.406495 2.9309325,0.463838 4.1621085,0.408203 0.621367,-0.02808 1.157817,-0.08336 1.544922,-0.132812 0.193554,-0.02472 0.350846,-0.0483 0.460938,-0.06641 0.05505,-0.0091 0.09748,-0.01745 0.128906,-0.02344 0.01254,-0.0024 0.02243,-0.004 0.03125,-0.0059 0.01774,0.0078 0.04526,0.02133 0.08008,0.03711 0.06964,0.03157 0.169543,0.07778 0.291016,0.132813 0.242945,0.110066 0.569697,0.255715 0.904297,0.398437 0.334599,0.142722 0.676219,0.282162 0.951172,0.376953 0.137475,0.0474 0.25806,0.08287 0.355468,0.103516 0.0487,0.01032 0.09177,0.01641 0.13086,0.01758 0.03909,0.0012 0.07643,0.0013 0.117187,-0.02539 l 0.0078,-0.0059 0.0078,-0.0078 c 0.160885,-0.174221 0.166624,-0.388246 0.08984,-0.578125 -0.07678,-0.189877 -0.223723,-0.370349 -0.376953,-0.539062 -0.15323,-0.168713 -0.312758,-0.32716 -0.41211,-0.457031 -0.04968,-0.06494 -0.08343,-0.121686 -0.0957,-0.16211 -0.01099,-0.0362 -0.0058,-0.04942 0.0059,-0.06641 0.01,-9.69e-4 0.02297,-0.002 0.04492,0 0.05344,0.0049 0.134431,0.022 0.228515,0.04687 0.188169,0.04978 0.433541,0.132129 0.679688,0.212891 0.246147,0.08076 0.492256,0.159388 0.6875,0.205078 0.09762,0.02285 0.182161,0.03827 0.253906,0.03906 0.03587,3.98e-4 0.06806,-0.0019 0.101562,-0.01367 0.0335,-0.0118 0.0716,-0.03874 0.08789,-0.08008 l 0.002,-0.002 v -0.002 c 0.04602,-0.138902 -0.0058,-0.28869 -0.08789,-0.4375 -0.08205,-0.14881 -0.200588,-0.302565 -0.328125,-0.451172 -0.127539,-0.148607 -0.26294,-0.291847 -0.375,-0.412109 -0.111187,-0.119324 -0.20068,-0.219892 -0.228516,-0.265625 -0.05695,-0.100777 -0.09202,-0.236924 -0.07617,-0.367188 0.01584,-0.130263 0.07748,-0.255431 0.226563,-0.359375 0.02935,-0.02045 0.119665,-0.06921 0.24414,-0.128906 0.124476,-0.05969 0.285596,-0.134869 0.46875,-0.220703 0.366309,-0.171669 0.822865,-0.389615 1.265625,-0.632813 0.442761,-0.243197 0.87112,-0.510779 1.185547,-0.787109 0.314428,-0.27633 0.529126,-0.56706 0.486328,-0.869141 -0.06615,-0.490506 -0.390129,-0.863745 -0.82226,-1.1443006 C 20.65593,9.6579842 20.112637,9.4642232 19.576343,9.3233051 19.040047,9.1823868 18.51114,9.0941067 18.113452,9.0322894 17.914608,9.0013804 17.747155,8.9773164 17.63103,8.9561174 c -0.05806,-0.0106 -0.102729,-0.021082 -0.130859,-0.029297 -2.75e-4,-0.020477 -2.16e-4,-0.046316 0,-0.080078 4.84e-4,-0.07576 -3.05e-4,-0.1801717 -0.002,-0.3027343 -0.0032,-0.2451253 -0.01507,-0.5610646 -0.06641,-0.8632813 C 17.380472,7.3785102 17.29392,7.0877148 17.127124,6.8916644 16.960329,6.695614 16.695311,6.6137294 16.373218,6.7412738 16.16192,6.8211688 16.040859,7.005178 15.990405,7.2158832 c -0.05068,0.2116542 -0.04037,0.4554042 -0.0078,0.6953125 0.03255,0.2399082 0.08881,0.4752332 0.140625,0.6640625 0.05182,0.1888292 0.100706,0.3404603 0.109375,0.3789062 0.0054,0.023916 0.0052,0.014113 -0.0039,0.021484 -0.0091,0.00737 -0.03875,0.020178 -0.07617,0.023437 -0.03742,0.00326 -0.08302,-0.00126 -0.117188,-0.00977 -0.03417,-0.00851 -0.0574,-0.025227 -0.05273,-0.019531 -0.0072,-0.00878 -0.03319,-0.05686 -0.0625,-0.1191406 -0.02931,-0.06228 -0.06367,-0.1416437 -0.103516,-0.2324219 C 15.736877,8.4366705 15.637835,8.2124922 15.523609,8.0029925 15.409381,7.7934928 15.280959,7.5976527 15.13103,7.4658832 15.05607,7.3999982 14.973234,7.3493339 14.882983,7.3272113 c -0.09025,-0.022123 -0.187116,-0.012868 -0.279296,0.033203 l -0.002,0.00195 h -0.002 c -0.234204,0.1291299 -0.360728,0.3351225 -0.412109,0.5566407 -0.05138,0.2215182 -0.03337,0.4602686 0.0039,0.6816406 0.03729,0.221372 0.09549,0.4252034 0.132813,0.5742187 0.01866,0.074508 0.03209,0.1367816 0.03516,0.171875 0.0015,0.017547 -9.51e-4,0.028872 0,0.025391 -0.162322,0.1047547 -0.252207,0.2621529 -0.316406,0.4296875 -0.06824,0.1780835 -0.125829,0.3658992 -0.242188,0.5273432 h -0.002 c -0.03522,0.05047 -0.108169,0.0967 -0.224609,0.126953 -0.116441,0.03026 -0.271849,0.04455 -0.451172,0.04492 -0.358646,7.48e-4 -0.817241,-0.0549 -1.294922,-0.130859 -0.955219,-0.151922 -1.9799275,-0.386234 -2.5037635,-0.4179638 -0.394096,-0.023269 -0.768097,0.1243018 -1.050781,0.2636718 -0.141342,0.06968 -0.261302,0.13767 -0.345703,0.181641 -0.03937,0.02051 -0.06903,0.03413 -0.08789,0.04101 C 6.9267765,9.5280841 5.0800268,7.9728258 3.0275157,7.4483051 2.4653454,7.2957454 1.7568074,6.9947083 1.1818125,6.7334613 0.89431506,6.6028378 0.64053966,6.4832117 0.45329686,6.3955707 0.35967546,6.3517497 0.28163866,6.3148777 0.22478126,6.2901019 c -0.0284288,-0.012388 -0.0508526,-0.020226 -0.0703125,-0.027344 -0.00973,-0.00356 -0.017784,-0.00726 -0.027344,-0.00977 -0.00478,-0.00125 -0.010951,-0.00298 -0.017578,-0.00391 -0.00331,-4.647e-4 -0.00699,1.368e-4 -0.011719,0 -0.00473,-1.368e-4 -0.017045,-8.92e-5 -0.017578,0 z M 20.920093,7.8975238 c -5.16e-4,1.99e-5 -0.0307,0.00562 -0.03125,0.00586 -5.32e-4,2.297e-4 -0.01295,0.00646 -0.01758,0.00977 -0.0046,0.00331 -0.0086,0.00675 -0.01172,0.00977 -0.0062,0.00603 -0.01022,0.010747 -0.01367,0.015625 -0.0069,0.00976 -0.01145,0.018559 -0.01563,0.027344 -0.0084,0.017569 -0.01592,0.037744 -0.02344,0.060547 -0.01503,0.045605 -0.02997,0.1053902 -0.04687,0.1757812 -0.03383,0.1407821 -0.07107,0.3228131 -0.101563,0.5078125 -0.03049,0.1849994 -0.05416,0.3717593 -0.0625,0.5195313 -0.0042,0.073886 -0.0041,0.1378594 0.002,0.1914062 0.003,0.026773 0.0063,0.049735 0.01563,0.074219 0.0086,0.022717 0.02617,0.049636 0.05859,0.068359 0.01644,0.00987 0.03686,0.019232 0.05859,0.017578 0.02526,-0.00192 0.04551,-0.013053 0.05859,-0.023437 0.02617,-0.020769 0.03582,-0.040402 0.04688,-0.0625 0.02213,-0.044195 0.03887,-0.099499 0.05664,-0.1679688 0.03554,-0.1369398 0.06918,-0.3240475 0.0957,-0.515625 0.02652,-0.1915775 0.04668,-0.3865661 0.05273,-0.5429688 0.003,-0.078202 0.0031,-0.1458999 -0.002,-0.2011718 -0.0025,-0.027636 -0.007,-0.052587 -0.01367,-0.076172 -0.0067,-0.023585 -0.01326,-0.050247 -0.04883,-0.076172 -0.0028,-0.00163 -0.02298,-0.013506 -0.02344,-0.013672 -4.86e-4,-1.765e-4 -0.03269,-0.00393 -0.0332,-0.00391 z m 1.015625,0.1933594 c -0.04002,-7.342e-4 -0.06247,0.013202 -0.08398,0.027344 -0.02152,0.014142 -0.04154,0.032337 -0.0625,0.052734 -0.04191,0.040794 -0.08902,0.093557 -0.138671,0.1582031 -0.0993,0.1292922 -0.211734,0.300482 -0.314453,0.4765625 -0.102719,0.1760806 -0.193888,0.3567051 -0.25,0.5078125 -0.02806,0.075554 -0.04875,0.1429189 -0.05469,0.2050781 -0.0059,0.062159 -3.56e-4,0.1345938 0.06055,0.1796876 0.0387,0.02895 0.09267,0.019426 0.119141,0.00586 0.02647,-0.013567 0.04332,-0.030963 0.0625,-0.050781 0.03835,-0.039636 0.07912,-0.093929 0.123046,-0.1601563 0.08785,-0.1324546 0.189893,-0.3126542 0.28711,-0.4980468 0.09722,-0.1853928 0.188937,-0.3737077 0.253906,-0.5214844 0.03249,-0.073889 0.05726,-0.13811 0.07422,-0.1875 0.0085,-0.024695 0.01552,-0.045812 0.01953,-0.066406 0.002,-0.010297 0.0042,-0.019027 0.0039,-0.033203 -1.35e-4,-0.00709 -8.14e-4,-0.016219 -0.0039,-0.027344 -0.0015,-0.00556 -0.0075,-0.018968 -0.0078,-0.019531 -2.98e-4,-5.637e-4 -0.01718,-0.021095 -0.01758,-0.021484 l -0.002,-0.00195 -0.002,-0.00195 c -0.02814,-0.023277 -0.05239,-0.023181 -0.06641,-0.023437 z m -3.996094,1.7714843 c 0.143171,-5.5e-6 0.269476,0.1362527 0.269531,0.3183595 -5.5e-5,0.182105 -0.12636,0.318365 -0.269531,0.318359 -0.14317,5e-6 -0.269475,-0.136255 -0.269531,-0.318359 5.5e-5,-0.1821064 0.12636,-0.3183646 0.269531,-0.3183595 z m -0.78125,0.3671875 c 0.06941,0.208044 0.132642,0.418091 0.271485,0.527343 0.127427,0.100269 0.343363,0.104007 0.544921,0.125 -0.114791,0.06018 -0.241628,0.153047 -0.330078,0.142579 -0.142454,-0.01686 -0.263278,-0.107804 -0.355469,-0.234375 -0.09219,-0.126573 -0.150155,-0.288211 -0.164062,-0.425782 -0.0068,-0.06774 0.02077,-0.08833 0.0332,-0.134765 z m 1.888672,1.572265 c 0.03215,-0.0026 0.03713,3e-4 0.04297,0.002 -0.01625,0.01492 -0.02286,0.02427 -0.05859,0.04687 -0.116485,0.0737 -0.315655,0.166866 -0.525391,0.251954 -0.175557,0.07122 -0.348088,0.130165 -0.501953,0.179687 0.07321,-0.04584 0.135683,-0.08791 0.222656,-0.136719 0.300621,-0.168697 0.664735,-0.331132 0.820313,-0.34375 z m 0.222656,0.433594 c 0.01074,0.0155 0.02146,0.02824 0.01953,0.04883 -0.0026,0.02812 -0.01927,0.07107 -0.05273,0.119141 -0.06694,0.09614 -0.195712,0.210778 -0.33789,0.316406 -0.142178,0.105628 -0.298178,0.203455 -0.421876,0.275391 -0.0084,0.0049 -0.01335,0.0071 -0.02148,0.01172 0.06106,-0.088 0.138684,-0.190279 0.234375,-0.296874 0.110122,-0.122673 0.23374,-0.244107 0.34375,-0.333985 0.106632,-0.08712 0.203439,-0.13544 0.236328,-0.140625 z m -4.25,4.138672 v 0.002 c 1.1e-5,-4e-6 -0.0053,-2.44e-4 -0.0078,0 0.0026,-7.31e-4 0.0035,-3.12e-4 0.0078,-0.002 z" />
</svg>
