<svg width="24" height="24" xmlns="http://www.w3.org/2000/svg"><path style="fill:gray;stroke-width:1;stroke-linecap:square" d="M11.375 2c-4.155 0-7.5 1.394-7.5 3.125s3.345 3.125 7.5 3.125h1.25c4.155 0 7.5-1.394 7.5-3.125S16.78 2 12.625 2h-1.25zM12 3.25c3.809 0 6.875.836 6.875 1.875C18.875 6.164 15.809 7 12 7s-6.875-.836-6.875-1.875C5.125 4.086 8.191 3.25 12 3.25zM4.203 7.436a9.375 9.375 0 0 0-1.578 5.189A9.375 9.375 0 0 0 11.953 22 9.375 9.375 0 0 0 12 22a9.375 9.375 0 0 0 9.375-9.375 9.375 9.375 0 0 0-1.578-5.19 6.679 6.679 0 0 1-1.479.825c-1.523.634-3.504.99-5.693.99h-1.25c-2.19 0-4.17-.356-5.693-.99a6.679 6.679 0 0 1-1.479-.824zM8.836 9.48c.698 0 1.289.592 1.289 1.29v1.21c0 .698-.591 1.25-1.29 1.25a1.24 1.24 0 0 1-1.25-1.25v-1.21c0-.698.553-1.29 1.25-1.29zm6.289.02c.698 0 1.25.591 1.25 1.29V12a1.24 1.24 0 0 1-1.25 1.25 1.24 1.24 0 0 1-1.25-1.25v-1.21c0-.699.552-1.29 1.25-1.29zm-8.75 5c2.243 1.63 8.957 1.63 11.25 0l-.035.664c-.009.115-.08.393-.207.73-2.444 1.456-8.63 1.432-10.895-.076-.068-.23-.113-.429-.113-.537V14.5z"/></svg>