<svg width="24" height="24" xmlns="http://www.w3.org/2000/svg"><path style="display:inline;fill:gray;fill-opacity:1;stroke:none;stroke-width:1" d="M11.954 2.625A9.375 9.375 0 0 0 2.625 12 9.375 9.375 0 0 0 12 21.375 9.375 9.375 0 0 0 21.375 12 9.375 9.375 0 0 0 12 2.625a9.375 9.375 0 0 0-.046 0zM12 3.875A8.125 8.125 0 0 1 20.125 12 8.125 8.125 0 0 1 12 20.125 8.125 8.125 0 0 1 3.875 12 8.125 8.125 0 0 1 12 3.875zm-3.164 3.73c-.698 0-1.25.592-1.25 1.29v1.21c0 .698.552 1.25 1.25 1.25s1.289-.552 1.289-1.25v-1.21c0-.698-.591-1.29-1.29-1.29zm6.289.02c-.698 0-1.25.591-1.25 1.29v1.21c0 .698.552 1.25 1.25 1.25a1.24 1.24 0 0 0 1.25-1.25v-1.21c0-.699-.552-1.29-1.25-1.29zM7 13.875a.625.625 0 0 0-.625.625.625.625 0 0 0 .625.625c1.52 0 2.387.157 2.905.352.518.194.716.402 1.028.715.313.312.74.729 1.472 1.003.732.275 1.74.43 3.345.43a.625.625 0 0 0 .625-.625.625.625 0 0 0-.625-.625c-1.52 0-2.387-.157-2.905-.352-.518-.194-.716-.402-1.028-.715-.313-.312-.74-.729-1.472-1.003-.732-.275-1.74-.43-3.345-.43z"/></svg>