<svg width="24" height="24" xmlns="http://www.w3.org/2000/svg"><path style="opacity:1;fill:gray;stroke:none;stroke-width:1;stroke-linecap:round" d="M12 2.625A9.375 9.375 0 0 0 2.625 12 9.375 9.375 0 0 0 12 21.375 9.375 9.375 0 0 0 21.375 12 9.375 9.375 0 0 0 12 2.625zm0 1.25A8.125 8.125 0 0 1 20.125 12 8.125 8.125 0 0 1 12 20.125 8.125 8.125 0 0 1 3.875 12 8.125 8.125 0 0 1 12 3.875zm-6.875 5a3.125 3.75 0 0 0 3.125 3.75 3.125 3.75 0 0 0 2.947-2.5h1.606a3.125 3.75 0 0 0 2.947 2.5 3.125 3.75 0 0 0 3.125-3.75h-8.75zm1.25 5v.781c0 .108.044.307.112.537 2.264 1.508 8.453 1.532 10.896.076.128-.338.2-.615.208-.73l.034-.664c-2.293 1.63-9.007 1.63-11.25 0z"/></svg>