<svg height="24" width="24" xmlns="http://www.w3.org/2000/svg"><path style="display:inline;fill:gray;fill-opacity:1;stroke:none;stroke-width:1" d="M11.953 2.625a9.375 9.375 0 0 0-6.137 2.332C4.671 4.661 3.848 3.809 3 3c-.248 1.331-.141 2.673 1.049 4.045A9.375 9.375 0 0 0 2.625 12 9.375 9.375 0 0 0 12 21.375 9.375 9.375 0 0 0 21.375 12a9.375 9.375 0 0 0-1.426-4.953C21.141 5.674 21.248 4.332 21 3c-.849.81-1.672 1.662-2.818 1.957A9.375 9.375 0 0 0 12 2.625a9.375 9.375 0 0 0-.047 0zM12 3.875A8.125 8.125 0 0 1 20.125 12 8.125 8.125 0 0 1 12 20.125 8.125 8.125 0 0 1 3.875 12 8.125 8.125 0 0 1 12 3.875zm-3.164 3.73c-.698 0-1.25.592-1.25 1.29v1.21c0 .698.552 1.25 1.25 1.25s1.289-.552 1.289-1.25v-1.21c0-.698-.591-1.29-1.29-1.29zm6.289.02c-.698 0-1.25.591-1.25 1.29v1.21c0 .698.552 1.25 1.25 1.25a1.24 1.24 0 0 0 1.25-1.25v-1.21c0-.699-.552-1.29-1.25-1.29zm-8.75 5v.781c0 .666 1.121 4.18 5.607 4.14 4.486-.038 5.567-3.72 5.608-4.257l.035-.664c-2.293 1.63-9.007 1.63-11.25 0z"/></svg>