<svg width="24" height="24" xmlns="http://www.w3.org/2000/svg"><path style="fill:gray;fill-opacity:1;stroke:none;stroke-width:.75;stroke-linecap:square;stroke-linejoin:round;stroke-opacity:1" d="M11.953 2.625A9.375 9.375 0 0 0 2.625 12 9.375 9.375 0 0 0 12 21.375 9.375 9.375 0 0 0 21.375 12 9.375 9.375 0 0 0 12 2.625a9.375 9.375 0 0 0-.047 0zm-3.078 6.25c.919 0 1.836.281 1.836 1.365-3.2-.755-3.023 2.11-3.75.276-.4-1.01.997-1.641 1.914-1.641zm6.174 0c.917 0 2.128.576 1.912 1.64-.396 1.946-.66-1.196-3.75-.275 0-1.084.92-1.365 1.838-1.365zm-4.184 3.36c.469-.012.859.152 1.18.392a1.95 1.95 0 0 1 1.217-.393c.72.023 1.033.87 1.033 1.358 0 .886.543.873 1.143.945-.725.172-1.127 1.4-1.124 2.018.006 1.11-1.063 1.436-2.304 1.43-1.24-.005-2.27-.287-2.266-1.41 0-.467-.406-1.82-1.181-2.02.777-.107 1.16-.288 1.16-.985 0-.923.604-1.323 1.142-1.336zm1.192 2.283a1.635 1.635 0 0 0-1.03.314c.184.094.31.183.31.31 0 .31.338.548.679.55.34 0 .749-.24.77-.55.001-.127.172-.219.366-.31a2.388 2.388 0 0 0-1.095-.314z"/></svg>