<svg width="24" height="24" xmlns="http://www.w3.org/2000/svg"><path d="M8.766 14.037a3.094 3.094 0 0 1 2.109.599c.394.247.465.308 1.125.387.18.063.683-.045 1.125-.387.315-.23.631-.332.95-.421 1.472-.414 2.895.49 3.55 1.406v.563c-.575-.322-1.193-.673-1.828-.88l.527 1.055c.37.728.149 1.574-.492 1.898-.642.325-1.46-.01-1.828-.738l-.668-1.3c-.057-.114-.076-.236-.105-.353a.668.668 0 0 1-.106.035c-.609.353-1.755.222-2.25 0-1.032-.491-1.023-.75-1.722-.773-.96.022-2.074.45-2.778 1.054v-.562c.297-.763 1.259-1.48 2.39-1.582z" style="fill:gray;fill-opacity:1;stroke-width:.999999"/><path d="M13.562 8.016a.337.337 0 0 1 .157.038l1.406.821 1.445-.82c.206-.115.425-.026.507.195a.54.54 0 0 1-.233.625l-.899.508.899.507c.205.118.318.366.233.588-.085.22-.34.272-.546.155l-1.406-.82-1.445.82c-.208.115-.425.066-.509-.157a.54.54 0 0 1 .235-.625l.899-.507-.9-.508c-.204-.117-.319-.366-.234-.587a.379.379 0 0 1 .391-.234zm-6.25 0a.337.337 0 0 1 .157.038l1.406.821 1.445-.82c.206-.115.425-.026.507.195a.54.54 0 0 1-.233.625l-.9.508.9.507a.47.47 0 0 1 .195.588c-.087.22-.303.272-.508.155L8.875 9.85l-1.446.782c-.207.115-.425.066-.508-.157a.54.54 0 0 1 .235-.625l.859-.507-.859-.469c-.206-.117-.32-.405-.235-.625a.379.379 0 0 1 .391-.235z" style="fill:gray;fill-opacity:1;stroke-width:1"/><path style="fill:gray;fill-opacity:1;stroke:none;stroke-width:.75;stroke-linecap:square;stroke-linejoin:round;stroke-opacity:1" d="M11.954 2.625A9.375 9.375 0 0 0 2.625 12 9.375 9.375 0 0 0 12 21.375 9.375 9.375 0 0 0 21.375 12 9.375 9.375 0 0 0 12 2.625a9.375 9.375 0 0 0-.046 0zM12 3.875A8.125 8.125 0 0 1 20.125 12 8.125 8.125 0 0 1 12 20.125 8.125 8.125 0 0 1 3.875 12 8.125 8.125 0 0 1 12 3.875z"/></svg>