<svg width="24" height="24" xmlns="http://www.w3.org/2000/svg"><path style="fill:gray;fill-opacity:1;stroke:none;stroke-width:.75;stroke-linecap:square;stroke-linejoin:round;stroke-opacity:1" d="M11.953 2.625A9.375 9.375 0 0 0 2.625 12 9.375 9.375 0 0 0 12 21.375 9.375 9.375 0 0 0 21.375 12 9.375 9.375 0 0 0 12 2.625a9.375 9.375 0 0 0-.047 0zm-1.195 7.656a.469.469 0 0 1 .437.32.469.469 0 0 1-.297.594l-3.75 1.25a.469.469 0 0 1-.593-.297.469.469 0 0 1 .297-.591l3.75-1.25a.469.469 0 0 1 .156-.026zm2.513 0a.469.469 0 0 1 .127.026l3.75 1.25a.469.469 0 0 1 .297.591.469.469 0 0 1-.593.297l-3.75-1.25a.469.469 0 0 1-.297-.593.469.469 0 0 1 .466-.32zM8.25 15.125h7.5c.346 0 .625.279.625.625a.624.624 0 0 1-.625.625h-7.5a.624.624 0 0 1-.625-.625c0-.346.279-.625.625-.625z"/></svg>