<svg width="24" height="24" xmlns="http://www.w3.org/2000/svg"><path style="fill:gray;fill-opacity:1;stroke:none;stroke-width:.75;stroke-linecap:square;stroke-linejoin:round;stroke-opacity:1" d="M11.953 2.625A9.375 9.375 0 0 0 2.625 12 9.375 9.375 0 0 0 12 21.375 9.375 9.375 0 0 0 21.375 12 9.375 9.375 0 0 0 12 2.625a9.375 9.375 0 0 0-.047 0zm-3.117 4.98c.698 0 1.289.592 1.289 1.29v1.21c0 .698-.591 1.25-1.29 1.25a1.24 1.24 0 0 1-1.25-1.25v-1.21c0-.698.553-1.29 1.25-1.29zm5.289 1.27h1.75c.554 0 1 .279 1 .625s-.446.625-1 .625h-1.75c-.554 0-1-.279-1-.625s.446-.625 1-.625zm-7.75 5c2.243 1.63 8.957 1.63 11.25 0l-.035.664c-.009.115-.08.393-.207.73-2.444 1.456-8.63 1.432-10.895-.076-.068-.23-.113-.429-.113-.537v-.781z"/></svg>