<svg width="24" height="24" xmlns="http://www.w3.org/2000/svg"><path style="fill:gray;fill-opacity:1;stroke:none;stroke-width:.75;stroke-linecap:square;stroke-linejoin:round;stroke-opacity:1" d="M11.954 2.625A9.375 9.375 0 0 0 2.625 12 9.375 9.375 0 0 0 12 21.375 9.375 9.375 0 0 0 21.375 12 9.375 9.375 0 0 0 12 2.625a9.375 9.375 0 0 0-.046 0zM12 3.875A8.125 8.125 0 0 1 20.125 12 8.125 8.125 0 0 1 12 20.125 8.125 8.125 0 0 1 3.875 12 8.125 8.125 0 0 1 12 3.875z"/><path d="M15.086 7.86c.918 0 1.836.558 1.914 1.64.156 2.166-1.875-.422-3.75 0 0-1.082.917-1.64 1.836-1.64zm-6.164.001c.919 0 1.836.558 1.836 1.639-1.875-.422-3.906 2.166-3.75 0 .08-1.082.997-1.64 1.914-1.64z" style="fill:gray;fill-opacity:1;stroke-width:1"/><path style="fill:gray" d="M14.188 14.5A2.188 3.125 0 0 1 12 17.625 2.188 3.125 0 0 1 9.812 14.5 2.188 3.125 0 0 1 12 11.375a2.188 3.125 0 0 1 2.188 3.125z"/></svg>