<?xml version="1.0" encoding="UTF-8" standalone="no"?>
<svg
   height="24"
   id="svg7384"
   version="1.1"
   width="24"
   sodipodi:docname="_.svg"
   inkscape:version="1.1 (ce6663b3b7, 2021-05-25)"
   xmlns:inkscape="http://www.inkscape.org/namespaces/inkscape"
   xmlns:sodipodi="http://sodipodi.sourceforge.net/DTD/sodipodi-0.dtd"
   xmlns="http://www.w3.org/2000/svg"
   xmlns:svg="http://www.w3.org/2000/svg"
   xmlns:rdf="http://www.w3.org/1999/02/22-rdf-syntax-ns#"
   xmlns:cc="http://creativecommons.org/ns#"
   xmlns:dc="http://purl.org/dc/elements/1.1/">
  <sodipodi:namedview
     id="namedview21"
     pagecolor="#ffffff"
     bordercolor="#666666"
     borderopacity="1.0"
     inkscape:pageshadow="2"
     inkscape:pageopacity="0.0"
     inkscape:pagecheckerboard="0"
     showgrid="false"
     width="24px"
     inkscape:zoom="27.999993"
     inkscape:cx="7.4821446"
     inkscape:cy="9.9464309"
     inkscape:window-width="1920"
     inkscape:window-height="1016"
     inkscape:window-x="0"
     inkscape:window-y="27"
     inkscape:window-maximized="1"
     inkscape:current-layer="svg7384" />
  <metadata
     id="metadata20854">
    <rdf:RDF>
      <cc:Work
         rdf:about="">
        <dc:format>image/svg+xml</dc:format>
        <dc:type
           rdf:resource="http://purl.org/dc/dcmitype/StillImage" />
      </cc:Work>
    </rdf:RDF>
  </metadata>
  <defs
     id="defs7386">
    <linearGradient
       id="linearGradient5606"
       inkscape:swatch="solid">
      <stop
         id="stop5608"
         offset="0"
         style="stop-color:#000000;stop-opacity:1;" />
    </linearGradient>
    <linearGradient
       id="linearGradient4526"
       inkscape:swatch="solid">
      <stop
         id="stop4528"
         offset="0"
         style="stop-color:#ffffff;stop-opacity:1;" />
    </linearGradient>
    <linearGradient
       id="linearGradient3600-4"
       inkscape:swatch="gradient">
      <stop
         id="stop3602-7"
         offset="0"
         style="stop-color:#f4f4f4;stop-opacity:1" />
      <stop
         id="stop3604-6"
         offset="1"
         style="stop-color:#dbdbdb;stop-opacity:1" />
    </linearGradient>
  </defs>
  <g
     id="layer9"
     label="status"
     style="display:inline"
     transform="translate(-613.0002,327)" />
  <g
     id="layer2"
     style="display:inline;stroke-width:0.8"
     transform="matrix(1.25,0,0,1.25,-463,-48)">
    <path
       d="m 376.99414,56 c -1.2582,-0.01453 -2.17889,0.03056 -2.93164,-0.384766 -0.37637,-0.207663 -0.67323,-0.559381 -0.83789,-0.998046 -0.16467,-0.438666 -0.22461,-0.959579 -0.22461,-1.617188 v -10 c 0,-0.657611 0.0599,-1.178578 0.22461,-1.617188 0.16468,-0.438608 0.46153,-0.788526 0.83789,-0.996093 0.75272,-0.415135 1.67354,-0.371652 2.93164,-0.386719 h 0.002 5.00386 0.75 l 4.25,4.25 v 0.75 8 c 0,0.657609 -0.0599,1.178579 -0.22461,1.617188 -0.16468,0.438608 -0.46153,0.788527 -0.83789,0.996093 -0.75272,0.415133 -1.67355,0.371652 -2.93164,0.386719 h -0.002 -6.00586 z m 0.006,-1 h 6 c 1.25862,-0.01523 2.0891,-0.05988 2.45508,-0.261719 0.18342,-0.101158 0.28722,-0.212858 0.38476,-0.472656 0.0976,-0.259798 0.16016,-0.673234 0.16016,-1.265625 v -8 h -2 -2 v -4 h -4.99414 -0.006 c -1.25863,0.01523 -2.0891,0.05988 -2.45508,0.261719 -0.18342,0.101158 -0.28722,0.212856 -0.38476,0.472656 -0.0976,0.2598 -0.16016,0.673231 -0.16016,1.265625 v 10 c 0,0.592391 0.0626,1.005717 0.16016,1.265625 0.0976,0.259908 0.20135,0.371461 0.38476,0.472656 0.36596,0.201914 1.19655,0.247017 2.45508,0.261719 z m -1,-4 v -1 h 8 v 1 z m 0,-2 v -1 h 8 v 1 z m 0,-2 v -1 h 8 v 1 z m 0,6 v -1 h 4 v 1 z"
       id="path5289"
       style="color:#000000;display:inline;overflow:visible;visibility:visible;fill:#808080;fill-opacity:1;fill-rule:nonzero;stroke:none;stroke-width:3.2;marker:none;enable-background:accumulate" />
  </g>
  <g
     id="layer4"
     style="display:inline"
     transform="translate(-372,-39.999996)" />
  <g
     id="g1812"
     style="display:inline"
     transform="translate(-372,-39.999996)" />
  <g
     id="g6217"
     style="display:inline"
     transform="translate(-372,-39.999996)" />
  <g
     id="layer3"
     style="display:inline"
     transform="translate(-372,-39.999996)" />
  <g
     id="g1833"
     style="display:inline"
     transform="translate(-372,-39.999996)" />
  <g
     id="layer1"
     style="display:inline"
     transform="translate(-372,-39.999996)" />
</svg>
