<?xml version="1.0" encoding="UTF-8" standalone="no"?>
<svg
   height="16"
   width="16"
   version="1.1"
   id="svg8"
   sodipodi:docname="missing.svg"
   inkscape:version="1.1 (ce6663b3b7, 2021-05-25)"
   xmlns:inkscape="http://www.inkscape.org/namespaces/inkscape"
   xmlns:sodipodi="http://sodipodi.sourceforge.net/DTD/sodipodi-0.dtd"
   xmlns="http://www.w3.org/2000/svg"
   xmlns:svg="http://www.w3.org/2000/svg">
  <defs
     id="defs12" />
  <sodipodi:namedview
     id="namedview10"
     pagecolor="#ffffff"
     bordercolor="#666666"
     borderopacity="1.0"
     inkscape:pageshadow="2"
     inkscape:pageopacity="0.0"
     inkscape:pagecheckerboard="0"
     showgrid="false"
     inkscape:zoom="56"
     inkscape:cx="7.9910714"
     inkscape:cy="8.0089286"
     inkscape:window-width="1920"
     inkscape:window-height="1016"
     inkscape:window-x="0"
     inkscape:window-y="27"
     inkscape:window-maximized="1"
     inkscape:current-layer="svg8" />
  <path
     color="#000000"
     d="m 6,0 v 1 h -0.994 c -0.438,0 -0.786,0.007 -1.078,0.117 -0.293,0.11 -0.528,0.308 -0.666,0.559 -0.277,0.502 -0.252,1.116 -0.262,1.955 v 8.707 c 0.01,0.839 -0.015,1.451 0.262,1.953 0.138,0.251 0.373,0.45 0.666,0.56 0.292,0.11 0.64,0.15 1.078,0.15 h 2.65 a 2.184,2.184 0 0 1 -0.699,-0.257 1.931,1.931 0 0 1 -0.174,-0.107 1.724,1.724 0 0 1 -0.183,-0.158 c -0.027,-0.026 -0.06,-0.047 -0.084,-0.075 a 2.005,2.005 0 0 1 -0.272,-0.404 h -1.238 c -0.378,0 -0.604,-0.04 -0.727,-0.086 a 0.262,0.262 0 0 1 -0.142,-0.105 c -0.098,-0.178 -0.126,-0.62 -0.137,-1.485 v -8.802 l -0.43,-0.664 0.487,-0.34 c 0.02,-0.147 0.04,-0.294 0.076,-0.36 a 0.266,0.266 0 0 1 0.142,-0.105 c 0.042,-0.016 0.27,-0.028 0.5,-0.037 l 0.303,-0.211 0.062,-0.031 a 6.885,6.885 0 0 1 1.365,-0.522 5.51,5.51 0 0 1 0.746,-0.133 9.38,9.38 0 0 1 0.78,-0.054 l 0.094,-0.028 h 0.158 c 0.355,0 0.688,0.026 1.002,0.08 0.322,0.056 0.624,0.14 0.908,0.264 v 0.002 c 0,0.002 0.016,0 0.016,0.002 a 1,1 0 0 1 0.09,0.045 l 0.492,0.219 v 0.117 c 0.14,0.081 0.283,0.157 0.41,0.25 0.228,0.01 0.474,0.02 0.518,0.037 0.086,0.032 0.125,0.077 0.14,0.106 0.063,0.113 0.092,0.404 0.11,0.792 0.094,0.187 0.178,0.38 0.233,0.58 0.12,0.395 0.19,0.792 0.19,1.184 0,0.4 -0.085,0.784 -0.22,1.149 v 0.07 l -0.07,0.135 c -0.01,0.017 -0.01,0.037 -0.018,0.054 a 1,1 0 0 1 -0.01,0.022 c -0.024,0.049 -0.056,0.094 -0.082,0.142 v 6.051 c -0.01,0.855 -0.038,1.299 -0.133,1.47 -0.016,0.03 -0.055,0.074 -0.14,0.106 -0.123,0.046 -0.349,0.086 -0.727,0.086 h -1.236 c 0,0.008 -0.01,0.015 -0.016,0.023 -0.062,0.115 -0.132,0.22 -0.213,0.319 -0.016,0.02 -0.026,0.044 -0.043,0.062 -0.086,0.096 -0.188,0.18 -0.297,0.254 -0.024,0.017 -0.05,0.031 -0.076,0.047 a 2.02,2.02 0 0 1 -0.2,0.107 2.208,2.208 0 0 1 -0.565,0.188 h 2.646 c 0.439,0 0.786,-0.039 1.078,-0.148 0.293,-0.11 0.526,-0.31 0.664,-0.561 0.277,-0.502 0.248,-1.114 0.258,-1.953 v -8.707 c -0.01,-0.84 0.02,-1.454 -0.258,-1.955 a 1.25,1.25 0 0 0 -0.664,-0.559 c -0.292,-0.11 -0.64,-0.117 -1.078,-0.117 h -1 v -1 z"
     font-family="sans-serif"
     font-weight="400"
     opacity="0.5"
     overflow="visible"
     style="line-height:normal;font-variant-ligatures:none;font-variant-position:normal;font-variant-caps:normal;font-variant-numeric:normal;font-variant-alternates:normal;font-feature-settings:normal;text-indent:0;text-align:start;text-decoration-line:none;text-decoration-style:solid;text-decoration-color:#000000;text-transform:none;shape-padding:0;isolation:auto;mix-blend-mode:normal;fill:#808080;fill-opacity:1;marker:none;opacity:1"
     white-space="normal"
     id="path2" />
  <path
     d="m 8.271,2.037 c -0.533,0 -1.037,0.061 -1.512,0.183 a 5.853,5.853 0 0 0 -1.167,0.446 l -0.658,0.458 0.566,0.876 0.452,-0.336 c 0.688,-0.35 1.394,-0.54 2.116,-0.54 0.607,0 1.09,0.16 1.421,0.491 0.327,0.316 0.493,0.737 0.493,1.236 0,0.311 -0.073,0.603 -0.217,0.868 -0.13,0.258 -0.299,0.503 -0.508,0.736 -0.205,0.227 -0.42,0.455 -0.648,0.682 v 0.001 a 6.392,6.392 0 0 0 -0.633,0.7 l -0.001,0.002 a 3.66,3.66 0 0 0 -0.492,0.786 2.378,2.378 0 0 0 -0.177,0.935 c 0,0.208 0.024,0.403 0.056,0.594 h 1.088 c -10e-4,-0.023 -0.01,-0.044 -0.01,-0.068 v -0.187 c 0,-0.387 0.077,-0.74 0.232,-1.05 0.15,-0.314 0.336,-0.599 0.557,-0.855 l 0.002,-0.002 c 0.218,-0.264 0.458,-0.515 0.721,-0.755 a 7.23,7.23 0 0 0 0.7,-0.734 c 0.21,-0.253 0.384,-0.522 0.527,-0.807 0.138,-0.288 0.209,-0.613 0.209,-0.982 a 3.06,3.06 0 0 0 -0.147,-0.914 l -10e-4,-0.002 v -0.002 a 2.04,2.04 0 0 0 -0.482,-0.867 c -0.234,-0.255 -0.552,-0.466 -0.957,-0.63 v -0.002 c -0.385,-0.172 -0.895,-0.261 -1.528,-0.261 z m -0.27,9.963 c -0.326,0 -0.562,0.1 -0.743,0.3 a 1.025,1.025 0 0 0 -0.275,0.718 c 0,0.279 0.089,0.512 0.275,0.718 0.18,0.2 0.417,0.3 0.742,0.3 0.325,0 0.562,-0.099 0.743,-0.3 0.186,-0.206 0.275,-0.44 0.275,-0.718 0,-0.28 -0.089,-0.512 -0.275,-0.718 -0.18,-0.2 -0.418,-0.3 -0.743,-0.3 z"
     font-family="Ubuntu"
     font-size="72.036px"
     font-weight="500"
     letter-spacing="0"
     style="line-height:125%;-inkscape-font-specification:'Ubuntu Medium';text-align:center;fill:#808080;fill-opacity:1"
     text-anchor="middle"
     word-spacing="0"
     id="path4" />
</svg>
