<?xml version="1.0" encoding="UTF-8" standalone="no"?>
<svg
   height="24"
   width="24"
   version="1.1"
   id="svg8"
   sodipodi:docname="missing.svg"
   inkscape:version="1.1 (ce6663b3b7, 2021-05-25)"
   xmlns:inkscape="http://www.inkscape.org/namespaces/inkscape"
   xmlns:sodipodi="http://sodipodi.sourceforge.net/DTD/sodipodi-0.dtd"
   xmlns="http://www.w3.org/2000/svg"
   xmlns:svg="http://www.w3.org/2000/svg">
  <defs
     id="defs12" />
  <sodipodi:namedview
     id="namedview10"
     pagecolor="#ffffff"
     bordercolor="#666666"
     borderopacity="1.0"
     inkscape:pageshadow="2"
     inkscape:pageopacity="0.0"
     inkscape:pagecheckerboard="0"
     showgrid="false"
     inkscape:zoom="28"
     inkscape:cx="10.125"
     inkscape:cy="10.160714"
     inkscape:window-width="1920"
     inkscape:window-height="1016"
     inkscape:window-x="0"
     inkscape:window-y="27"
     inkscape:window-maximized="1"
     inkscape:current-layer="svg8"
     inkscape:snap-page="true" />
  <path
     color="#000000"
     d="m 9.5,2 v 1.25 h -1.2425 c -0.5475,0 -0.9825,0.00875 -1.3475,0.14625 -0.36625,0.1375 -0.66,0.385 -0.8325,0.69875 -0.34625,0.6275 -0.315,1.395 -0.3275,2.44375 v 10.88375 c 0.0125,1.04875 -0.01875,1.81375 0.3275,2.44125 0.1725,0.31375 0.46625,0.5625 0.8325,0.7 0.365,0.1375 0.8,0.1875 1.3475,0.1875 h 3.3125 a 2.73,2.73 0 0 1 -0.87375,-0.32125 2.41375,2.41375 0 0 1 -0.2175,-0.13375 2.155,2.155 0 0 1 -0.22875,-0.1975 c -0.03375,-0.0325 -0.075,-0.05875 -0.105,-0.09375 a 2.50625,2.50625 0 0 1 -0.34,-0.505 h -1.5475 c -0.4725,0 -0.755,-0.05 -0.90875,-0.1075 a 0.3275,0.3275 0 0 1 -0.1775,-0.13125 c -0.1225,-0.2225 -0.1575,-0.775 -0.17125,-1.85625 v -11.0025 l -0.5375,-0.83 0.60875,-0.425 c 0.025,-0.18375 0.05,-0.3675 0.095,-0.45 a 0.3325,0.3325 0 0 1 0.1775,-0.13125 c 0.0525,-0.02 0.3375,-0.035 0.625,-0.04625 l 0.37875,-0.26375 0.0775,-0.03875 a 8.60625,8.60625 0 0 1 1.70625,-0.6525 6.8875,6.8875 0 0 1 0.9325,-0.16625 11.725,11.725 0 0 1 0.975,-0.0675 l 0.1175,-0.035 h 0.1975 c 0.44375,0 0.86,0.0325 1.2525,0.1 0.4025,0.07 0.78,0.175 1.135,0.33 v 0.0025 c 0,0.0025 0.02,0 0.02,0.0025 a 1.25,1.25 0 0 1 0.1125,0.05625 l 0.615,0.27375 v 0.14625 c 0.175,0.10125 0.35375,0.19625 0.5125,0.3125 0.285,0.0125 0.5925,0.025 0.6475,0.04625 0.1075,0.04 0.15625,0.09625 0.175,0.1325 0.07875,0.14125 0.115,0.505 0.1375,0.99 0.1175,0.23375 0.2225,0.475 0.29125,0.725 0.15,0.49375 0.2375,0.99 0.2375,1.48 0,0.5 -0.10625,0.98 -0.275,1.43625 v 0.0875 l -0.0875,0.16875 c -0.0125,0.02125 -0.0125,0.04625 -0.0225,0.0675 a 1.25,1.25 0 0 1 -0.0125,0.0275 c -0.03,0.06125 -0.07,0.1175 -0.1025,0.1775 v 7.56375 c -0.0125,1.06875 -0.0475,1.62375 -0.16625,1.8375 -0.02,0.0375 -0.06875,0.0925 -0.175,0.1325 -0.15375,0.0575 -0.43625,0.1075 -0.90875,0.1075 h -1.545 c 0,0.01 -0.0125,0.01875 -0.02,0.02875 -0.0775,0.14375 -0.165,0.275 -0.26625,0.39875 -0.02,0.025 -0.0325,0.055 -0.05375,0.0775 -0.1075,0.12 -0.235,0.225 -0.37125,0.3175 -0.03,0.02125 -0.0625,0.03875 -0.095,0.05875 a 2.525,2.525 0 0 1 -0.25,0.13375 2.76,2.76 0 0 1 -0.70625,0.235 h 3.3075 c 0.54875,0 0.9825,-0.04875 1.3475,-0.185 0.36625,-0.1375 0.6575,-0.3875 0.83,-0.70125 0.34625,-0.6275 0.31,-1.3925 0.3225,-2.44125 v -10.88375 c -0.0125,-1.05 0.025,-1.8175 -0.3225,-2.44375 a 1.5625,1.5625 0 0 0 -0.83,-0.69875 c -0.365,-0.1375 -0.8,-0.14625 -1.3475,-0.14625 h -1.25 v -1.25 z"
     font-family="sans-serif"
     font-weight="400"
     opacity="0.5"
     overflow="visible"
     style="line-height:normal;font-variant-ligatures:none;font-variant-position:normal;font-variant-caps:normal;font-variant-numeric:normal;font-variant-alternates:normal;font-feature-settings:normal;text-indent:0;text-align:start;text-decoration-line:none;text-decoration-style:solid;text-decoration-color:#000000;text-transform:none;shape-padding:0;opacity:1;isolation:auto;mix-blend-mode:normal;fill:#808080;fill-opacity:1;stroke-width:1;marker:none"
     white-space="normal"
     id="path2" />
  <path
     d="m 12.33875,4.54625 c -0.66625,0 -1.29625,0.07625 -1.89,0.22875 a 7.31625,7.31625 0 0 0 -1.45875,0.5575 l -0.8225,0.5725 0.7075,1.095 0.565,-0.42 c 0.86,-0.4375 1.7425,-0.675 2.645,-0.675 0.75875,0 1.3625,0.2 1.77625,0.61375 0.40875,0.395 0.61625,0.92125 0.61625,1.545 0,0.38875 -0.09125,0.75375 -0.27125,1.085 -0.1625,0.3225 -0.37375,0.62875 -0.635,0.92 -0.25625,0.28375 -0.525,0.56875 -0.81,0.8525 v 0.0012 a 7.99,7.99 0 0 0 -0.79125,0.875 l -0.0013,0.0025 a 4.575,4.575 0 0 0 -0.615,0.9825 2.9725,2.9725 0 0 0 -0.22125,1.16875 c 0,0.26 0.03,0.50375 0.07,0.7425 h 1.36 c -0.0013,-0.02875 -0.0125,-0.055 -0.0125,-0.085 v -0.23375 c 0,-0.48375 0.09625,-0.925 0.29,-1.3125 0.1875,-0.3925 0.42,-0.74875 0.69625,-1.06875 l 0.0025,-0.0025 c 0.2725,-0.33 0.5725,-0.64375 0.90125,-0.94375 a 9.0375,9.0375 0 0 0 0.875,-0.9175 c 0.2625,-0.31625 0.48,-0.6525 0.65875,-1.00875 0.1725,-0.36 0.26125,-0.76625 0.26125,-1.2275 a 3.825,3.825 0 0 0 -0.18375,-1.1425 l -0.0012,-0.0025 v -0.0025 a 2.55,2.55 0 0 0 -0.6025,-1.08375 c -0.2925,-0.31875 -0.69,-0.5825 -1.19625,-0.7875 v -0.0025 c -0.48125,-0.215 -1.11875,-0.32625 -1.91,-0.32625 z m -0.3375,12.45375 c -0.4075,0 -0.7025,0.125 -0.92875,0.375 a 1.28125,1.28125 0 0 0 -0.34375,0.8975 c 0,0.34875 0.11125,0.64 0.34375,0.8975 0.225,0.25 0.52125,0.375 0.9275,0.375 0.40625,0 0.7025,-0.12375 0.92875,-0.375 0.2325,-0.2575 0.34375,-0.55 0.34375,-0.8975 0,-0.35 -0.11125,-0.64 -0.34375,-0.8975 -0.225,-0.25 -0.5225,-0.375 -0.92875,-0.375 z"
     font-family="Ubuntu"
     font-size="72.036px"
     font-weight="500"
     letter-spacing="0"
     style="line-height:125%;-inkscape-font-specification:'Ubuntu Medium';text-align:center;fill:#808080;fill-opacity:1;stroke-width:1"
     text-anchor="middle"
     word-spacing="0"
     id="path4" />
</svg>
