<svg width="24" height="24" xmlns="http://www.w3.org/2000/svg"><path style="color:#000;fill:gray;stroke-width:1.25;-inkscape-stroke:none" d="m18.982 2-4.28 4.282a4.439 4.439 0 0 1 1.766 1.765L22 2.517V2z"/><path style="color:#000;fill:gray;fill-opacity:1;-inkscape-stroke:none" d="M5.455 3.002c-.969.009-1.718.073-2.338.445-.413.248-.72.656-.888 1.162C2.059 5.116 2 5.724 2 6.502v8c0 .778.06 1.386.229 1.893.168.506.475.914.888 1.162.62.372 1.37.436 2.338.445.325.003.666.002 1.045.002H9v1.125c0 1.875-.625 1.875-1.875 1.875H6v1h12v-1h-1.125c-1.25 0-1.875 0-1.875-1.875v-1.125h2.5c.379 0 .72.001 1.045-.002.969-.009 1.718-.073 2.338-.445.413-.248.72-.656.888-1.162.17-.507.229-1.115.229-1.893v-8c0-.778-.06-1.386-.229-1.893a2.503 2.503 0 0 0-.132-.318l-.778.78c.088.334.139.8.139 1.431v8c0 .722-.065 1.239-.178 1.576-.112.338-.243.492-.455.62-.423.253-1.367.304-2.867.304h-11c-1.5 0-2.444-.05-2.867-.305-.212-.127-.343-.281-.455-.619-.113-.337-.178-.854-.178-1.576v-8c0-.722.065-1.239.178-1.576.112-.338.243-.492.455-.62C4.056 4.054 5 4.003 6.5 4.003h9.068l.998-1H6.5c-.375 0-.722-.003-1.045 0z"/><path style="fill:gray;stroke-linecap:square;stroke-linejoin:round" d="M16 10c0 4-6 4-8 4 0 0 2-1 2-4a3 3 0 0 1 6 0z"/></svg>