<svg width="24" height="24" xmlns="http://www.w3.org/2000/svg"><path style="color:#000;fill:gray;fill-opacity:1" d="M5.455 3.002c-.969.009-1.718.073-2.338.445-.413.248-.72.656-.888 1.162C2.059 5.116 2 5.724 2 6.502v8c0 .778.06 1.386.229 1.893.168.506.475.914.888 1.162.62.372 1.37.436 2.338.445.325.003.666.002 1.045.002H9v1.125c0 1.875-.625 1.875-1.875 1.875H6v1h12v-1h-1.125c-1.25 0-1.875 0-1.875-1.875v-1.125h2.5c.379 0 .72.001 1.045-.002.969-.009 1.718-.073 2.338-.445.413-.248.72-.656.888-1.162.17-.507.229-1.115.229-1.893v-8c0-.778-.06-1.386-.229-1.893a2.498 2.498 0 0 0-.132-.316l-.684.682v.002c.028.104.045.211.045.324v10.398c0 .72-.602 1.301-1.35 1.301H4.35C3.602 17 3 16.42 3 15.7V5.3C3 4.58 3.602 4 4.35 4h11.218l.998-.998H6.5c-.375 0-.722-.003-1.045 0zM5.2 5C4.534 5 4 5.49 4 6.1v8.8c0 .61.534 1.1 1.2 1.1h13.6c.666 0 1.2-.49 1.2-1.1V6.1a1.02 1.02 0 0 0-.014-.155l-2.81 2.809a1 1 0 0 1-.403.135c.108.36.227.718.227 1.111 0 1.25-.518 2.316-1.281 3.04-.764.722-1.722 1.143-2.694 1.42C11.082 15.017 9 15 8 15a1 1 0 0 1-.447-1.895s.288-.132.666-.605C8.597 12.027 9 11.278 9 10c0-2.197 1.803-4 4-4 .283 0 .534.105.8.162a1 1 0 0 1 .196-.588L14.57 5H5.2z"/><path style="color:#000;fill:gray;stroke-width:1.25" d="m18.982 2-4.279 4.281a4.441 4.441 0 0 1 1.766 1.766L22 2.517V2h-3.018zM13 7a3 3 0 0 0-3 3c0 3-2 4-2 4 2 0 8 0 8-4a3 3 0 0 0-3-3z"/></svg>