<?xml version="1.0" encoding="UTF-8" standalone="no"?>
<svg
   version="1.1"
   viewBox="0 0 24 24"
   id="svg6"
   sodipodi:docname="down.svg"
   width="24"
   height="24"
   inkscape:version="1.2 (1:1.2.1+202207142221+cd75a1ee6d)"
   xmlns:inkscape="http://www.inkscape.org/namespaces/inkscape"
   xmlns:sodipodi="http://sodipodi.sourceforge.net/DTD/sodipodi-0.dtd"
   xmlns="http://www.w3.org/2000/svg"
   xmlns:svg="http://www.w3.org/2000/svg">
  <defs
     id="defs10" />
  <sodipodi:namedview
     id="namedview8"
     pagecolor="#ffffff"
     bordercolor="#666666"
     borderopacity="1.0"
     inkscape:showpageshadow="2"
     inkscape:pageopacity="0.0"
     inkscape:pagecheckerboard="0"
     inkscape:deskcolor="#d1d1d1"
     showgrid="true"
     inkscape:zoom="59"
     inkscape:cx="11.966102"
     inkscape:cy="6.7711865"
     inkscape:window-width="1920"
     inkscape:window-height="1016"
     inkscape:window-x="0"
     inkscape:window-y="0"
     inkscape:window-maximized="1"
     inkscape:current-layer="svg6">
    <inkscape:grid
       type="xygrid"
       id="grid185"
       originx="0"
       originy="0" />
    <inkscape:grid
       type="xygrid"
       id="grid458"
       dotted="true"
       spacingx="0.5"
       spacingy="0.5"
       empspacing="10" />
  </sodipodi:namedview>
  <path
     id="rect453"
     d="m 11.876953,21 2,-6.999999 h 1.123047 5 v -11.000001 h -5 v 10 h -1.876953 l -2,7 h -0.623047 c -0.214588,0 -0.359349,-0.03381 -0.439453,-0.07227 -0.0801,-0.03846 -0.1128112,-0.06527 -0.1562502,-0.16211 -0.08688,-0.193675 -0.119987,-0.738359 0.08398,-1.65625 l 1.1347662,-5.109375 h -4.6230472 c -0.638792,0 -1.000107,-0.196256 -1.222656,-0.453125 -0.222549,-0.256869 -0.31775,-0.613514 -0.279297,-0.998047 l 0.5,-5 c 0.140695,-1.406951 0.542988,-1.938538 1.097656,-2.230469 0.554669,-0.29193 1.404299,-0.318359 2.404297,-0.318359 0.9969562,0 2.0612902,0.0241 2.8007812,0.294922 0.739493,0.27082 1.167192,0.652803 1.199219,1.720703 l 1,-0.03125 c -0.04185,-1.395586 -0.863434,-2.263646 -1.855469,-2.626953 -0.992034,-0.363307 -2.141491,-0.357422 -3.1445312,-0.357422 -0.999998,0 -2.000765,-0.02643 -2.871094,0.431641 -0.870329,0.458067 -1.467649,1.426488 -1.626953,3.019531 l -0.5,5 c -0.06146,0.614605 0.0921,1.256655 0.519531,1.75 0.427429,0.493344 1.117311,0.798829 1.978516,0.798829 h 3.376953 l -0.865234,3.890624 c -0.222349,1.000569 -0.278229,1.706496 -0.01953,2.283204 0.129348,0.288353 0.362879,0.525718 0.634765,0.65625 0.271886,0.130532 0.5656232,0.169921 0.8730472,0.169921 z m 7.123047,-8 h -3 v -9 h 3 z"
     style="fill:#808080" />
</svg>
