<?xml version="1.0" encoding="UTF-8" standalone="no"?>
<svg
   version="1.1"
   viewBox="0 0 24 24"
   id="svg6"
   sodipodi:docname="down_filled.svg"
   width="24"
   height="24"
   inkscape:version="1.2 (1:1.2.1+202207142221+cd75a1ee6d)"
   xmlns:inkscape="http://www.inkscape.org/namespaces/inkscape"
   xmlns:sodipodi="http://sodipodi.sourceforge.net/DTD/sodipodi-0.dtd"
   xmlns="http://www.w3.org/2000/svg"
   xmlns:svg="http://www.w3.org/2000/svg">
  <defs
     id="defs10" />
  <sodipodi:namedview
     id="namedview8"
     pagecolor="#ffffff"
     bordercolor="#666666"
     borderopacity="1.0"
     inkscape:showpageshadow="2"
     inkscape:pageopacity="0.0"
     inkscape:pagecheckerboard="0"
     inkscape:deskcolor="#d1d1d1"
     showgrid="true"
     inkscape:zoom="14.75"
     inkscape:cx="10.847458"
     inkscape:cy="18.644068"
     inkscape:window-width="1920"
     inkscape:window-height="1043"
     inkscape:window-x="0"
     inkscape:window-y="0"
     inkscape:window-maximized="1"
     inkscape:current-layer="svg6">
    <inkscape:grid
       type="xygrid"
       id="grid185"
       originx="0"
       originy="0" />
    <inkscape:grid
       type="xygrid"
       id="grid458"
       dotted="true"
       spacingx="0.5"
       spacingy="0.5"
       empspacing="10" />
  </sodipodi:namedview>
  <path
     id="rect453"
     d="m 11.888009,21.000283 2.123047,-7.429688 v -0.07031 -7.5078121 -0.00781 c -0.04185,-1.395584 -0.863436,-2.263646 -1.855469,-2.626953 -0.992032,-0.363307 -2.141493,-0.357422 -3.1445314,-0.357422 -0.999996,0 -2.000767,-0.02643 -2.871094,0.431641 -0.870327,0.458065 -1.467649,1.42649 -1.626953,3.019531 l -0.5,5.0000001 c -0.06146,0.614603 0.0921,1.256655 0.519531,1.75 0.427429,0.493342 1.117313,0.798828 1.978516,0.798828 h 4.3769534 l -0.865234,3.890625 c -0.2223494,1.000567 -0.2782314,1.706497 -0.01953,2.283203 0.129346,0.288353 0.362879,0.525718 0.634765,0.65625 0.271886,0.130532 0.565623,0.169922 0.873047,0.169922 z m 8.123047,-7 v -11.0000001 h -5 v 11.0000001 z"
     style="fill:#808080" />
</svg>
