<?xml version="1.0" encoding="UTF-8" standalone="no"?>
<svg
   version="1.1"
   viewBox="0 0 24 24"
   id="svg6"
   sodipodi:docname="up.svg"
   width="24"
   height="24"
   inkscape:version="1.2 (1:1.2.1+202207142221+cd75a1ee6d)"
   xmlns:inkscape="http://www.inkscape.org/namespaces/inkscape"
   xmlns:sodipodi="http://sodipodi.sourceforge.net/DTD/sodipodi-0.dtd"
   xmlns="http://www.w3.org/2000/svg"
   xmlns:svg="http://www.w3.org/2000/svg">
  <defs
     id="defs10" />
  <sodipodi:namedview
     id="namedview8"
     pagecolor="#ffffff"
     bordercolor="#666666"
     borderopacity="1.0"
     inkscape:showpageshadow="2"
     inkscape:pageopacity="0.0"
     inkscape:pagecheckerboard="0"
     inkscape:deskcolor="#d1d1d1"
     showgrid="true"
     inkscape:zoom="29.5"
     inkscape:cx="4.8135593"
     inkscape:cy="10.830509"
     inkscape:window-width="1920"
     inkscape:window-height="1016"
     inkscape:window-x="0"
     inkscape:window-y="0"
     inkscape:window-maximized="1"
     inkscape:current-layer="svg6">
    <inkscape:grid
       type="xygrid"
       id="grid185"
       originx="0"
       originy="0" />
    <inkscape:grid
       type="xygrid"
       id="grid458"
       dotted="true"
       spacingx="0.5"
       spacingy="0.5"
       empspacing="10" />
  </sodipodi:namedview>
  <path
     id="rect453"
     d="M 12.123047 3 L 10.123047 10 L 9 10 L 4 10 L 4 21 L 9 21 L 9 11 L 10.876953 11 L 12.876953 4 L 13.5 4 C 13.714588 4 13.859349 4.0338077 13.939453 4.0722656 C 14.019553 4.1107236 14.052264 4.1375377 14.095703 4.234375 C 14.182583 4.4280502 14.21569 4.9727348 14.011719 5.890625 L 12.876953 11 L 17.5 11 C 18.138792 11 18.500107 11.196256 18.722656 11.453125 C 18.945205 11.709994 19.040406 12.066639 19.001953 12.451172 L 18.501953 17.451172 C 18.361258 18.858123 17.958965 19.38971 17.404297 19.681641 C 16.849628 19.973571 15.999998 20 15 20 C 14.003044 20 12.93871 19.9759 12.199219 19.705078 C 11.459726 19.434258 11.032027 19.052275 11 17.984375 L 10 18.015625 C 10.04185 19.411211 10.863434 20.279271 11.855469 20.642578 C 12.847503 21.005885 13.99696 21 15 21 C 15.999998 21 17.000765 21.02643 17.871094 20.568359 C 18.741423 20.110292 19.338743 19.141871 19.498047 17.548828 L 19.998047 12.548828 C 20.059507 11.934223 19.905946 11.292173 19.478516 10.798828 C 19.051087 10.305484 18.361205 10 17.5 10 L 14.123047 10 L 14.988281 6.109375 C 15.21063 5.108806 15.26651 4.4028793 15.007812 3.8261719 C 14.878464 3.5378181 14.644933 3.3004539 14.373047 3.1699219 C 14.101161 3.0393898 13.807424 3 13.5 3 L 12.123047 3 z M 5 11 L 8 11 L 8 20 L 5 20 L 5 11 z "
     style="fill:#808080" />
</svg>
