<?xml version="1.0" encoding="UTF-8" standalone="no"?>
<svg
   version="1.1"
   viewBox="0 0 24 24"
   id="svg6"
   sodipodi:docname="up_filled.svg"
   width="24"
   height="24"
   inkscape:version="1.2 (1:1.2.1+202207142221+cd75a1ee6d)"
   xmlns:inkscape="http://www.inkscape.org/namespaces/inkscape"
   xmlns:sodipodi="http://sodipodi.sourceforge.net/DTD/sodipodi-0.dtd"
   xmlns="http://www.w3.org/2000/svg"
   xmlns:svg="http://www.w3.org/2000/svg">
  <defs
     id="defs10" />
  <sodipodi:namedview
     id="namedview8"
     pagecolor="#ffffff"
     bordercolor="#666666"
     borderopacity="1.0"
     inkscape:showpageshadow="2"
     inkscape:pageopacity="0.0"
     inkscape:pagecheckerboard="0"
     inkscape:deskcolor="#d1d1d1"
     showgrid="true"
     inkscape:zoom="14.75"
     inkscape:cx="8.0677966"
     inkscape:cy="4.6440678"
     inkscape:window-width="1920"
     inkscape:window-height="1016"
     inkscape:window-x="0"
     inkscape:window-y="0"
     inkscape:window-maximized="1"
     inkscape:current-layer="svg6">
    <inkscape:grid
       type="xygrid"
       id="grid185"
       originx="0"
       originy="0" />
    <inkscape:grid
       type="xygrid"
       id="grid458"
       dotted="true"
       spacingx="0.5"
       spacingy="0.5"
       empspacing="10" />
  </sodipodi:namedview>
  <path
     style="fill:#808080"
     d="m 12.123047,3 -2.123047,7.429688 v 0.07031 7.507812 0.0078 c 0.04185,1.395584 0.863436,2.263646 1.855469,2.626953 0.992032,0.363307 2.141493,0.357422 3.144531,0.357422 0.999996,0 2.000767,0.02643 2.871094,-0.431641 0.870327,-0.458065 1.467649,-1.42649 1.626953,-3.019531 l 0.5,-5 c 0.06146,-0.614603 -0.0921,-1.256655 -0.519531,-1.75 -0.427429,-0.493342 -1.117313,-0.798828 -1.978516,-0.798828 h -4.376953 l 0.865234,-3.890625 c 0.222349,-1.000567 0.278231,-1.7064969 0.01953,-2.2832031 -0.129346,-0.2883532 -0.362879,-0.5257184 -0.634765,-0.65625 -0.271886,-0.1305319 -0.565623,-0.1699219 -0.873047,-0.1699219 z"
     id="rect453" />
  <path
     style="fill:#808080"
     d="m 9,9.9999995 v 11.0000005 h -5 v -11 z"
     id="path334"
     sodipodi:nodetypes="ccccc" />
</svg>
