<svg height="24" width="24" xmlns="http://www.w3.org/2000/svg"><path style="color:#000;fill:gray;-inkscape-stroke:none;fill-opacity:1" d="M6.787 2c-.677.006-1.25.048-1.76.303-.34.17-.63.462-.797.838C4.064 3.516 4 3.958 4 4.5v15c0 .542.064.984.23 1.36.167.375.458.668.797.837.68.34 1.473.303 2.473.303h9c1 0 1.794.037 2.473-.303.34-.17.63-.462.797-.838.166-.375.23-.817.23-1.359v-15c0-.542-.064-.984-.23-1.36a1.72 1.72 0 0 0-.797-.837C18.293 1.963 17.5 2 16.5 2h-9c-.25 0-.487-.002-.713 0zM7.5 3H16v18H7.5c-1 0-1.706-.037-2.027-.197a.615.615 0 0 1-.328-.35C5.06 20.266 5 19.958 5 19.5v-15c0-.458.061-.766.145-.953a.615.615 0 0 1 .328-.35C5.793 3.037 6.5 3 7.5 3zm9.5.006c.73.013 1.264.06 1.527.191.16.08.245.163.328.35.084.187.145.495.145.953v15c0 .458-.061.766-.145.953a.615.615 0 0 1-.328.35c-.263.131-.797.178-1.527.191V3.006zM11 7a2 2.5 0 0 0-2 2.5 2 2.5 0 0 0 2 2.5 2 2.5 0 0 0 2-2.5A2 2.5 0 0 0 11 7zm0 1a1 1.5 0 0 1 1 1.5 1 1.5 0 0 1-1 1.5 1 1.5 0 0 1-1-1.5A1 1.5 0 0 1 11 8zm0 5c-1.893 0-2.984.873-3.494 1.748C6.996 15.623 7 16.5 7 16.5a.5.5 0 0 0 .5.5h7a.5.5 0 0 0 .5-.5s.005-.877-.506-1.752C13.984 13.873 12.893 13 11 13zm0 1c1.607 0 2.266.627 2.63 1.252.22.374.185.508.222.748H8.148c.037-.24.003-.374.221-.748C8.734 14.627 9.393 14 11 14z"/></svg>