<svg height="24" width="24" xmlns="http://www.w3.org/2000/svg"><path style="color:#000;fill:gray;fill-opacity:1" d="M6.787 2c-.677.006-1.25.048-1.76.303-.34.17-.63.462-.797.838C4.064 3.516 4 3.958 4 4.5v15c0 .542.064.984.23 1.36.167.375.458.668.797.837.68.34 1.473.303 2.473.303H14v-5H7.5a.5.5 0 0 1-.5-.5s-.005-.877.506-1.752C8.016 13.873 9.107 13 11 13c1.421 0 2.39.492 3 1.107V14h2V2H7.5c-.25 0-.487-.002-.713 0zM17 2v12h3V4.5c0-.542-.064-.984-.23-1.36a1.72 1.72 0 0 0-.797-.837C18.413 2.023 17.767 2 17 2zm-6 5c1.105 0 2 1.12 2 2.5s-.895 2.5-2 2.5-2-1.12-2-2.5S9.895 7 11 7zm0 1c-.552 0-1 .672-1 1.5s.448 1.5 1 1.5 1-.672 1-1.5S11.552 8 11 8zm0 6c-1.607 0-2.266.627-2.63 1.252-.22.374-.185.508-.222.748h5.704c-.037-.24-.003-.374-.221-.748C13.266 14.627 12.607 14 11 14z"/><path style="fill:gray;fill-opacity:1;stroke-linecap:round" d="M18 15v3h-3v1h3v3h1v-3h3v-1h-3v-3z"/></svg>