<?xml version="1.0" encoding="UTF-8" standalone="no"?>
<svg
   viewBox="0 0 24 24"
   height="24"
   id="svg7384"
   version="1.1"
   width="24"
   sodipodi:docname="filled-new.svg"
   inkscape:version="1.2 (1:1.2.1+202207142221+cd75a1ee6d)"
   xmlns:inkscape="http://www.inkscape.org/namespaces/inkscape"
   xmlns:sodipodi="http://sodipodi.sourceforge.net/DTD/sodipodi-0.dtd"
   xmlns="http://www.w3.org/2000/svg"
   xmlns:svg="http://www.w3.org/2000/svg"
   xmlns:rdf="http://www.w3.org/1999/02/22-rdf-syntax-ns#"
   xmlns:cc="http://creativecommons.org/ns#"
   xmlns:dc="http://purl.org/dc/elements/1.1/">
  <sodipodi:namedview
     id="namedview24"
     pagecolor="#ffffff"
     bordercolor="#666666"
     borderopacity="1.0"
     inkscape:pageshadow="2"
     inkscape:pageopacity="0.0"
     inkscape:pagecheckerboard="0"
     showgrid="true"
     inkscape:zoom="28"
     inkscape:cx="11.785714"
     inkscape:cy="14.5"
     inkscape:window-width="1920"
     inkscape:window-height="1043"
     inkscape:window-x="0"
     inkscape:window-y="0"
     inkscape:window-maximized="1"
     inkscape:current-layer="svg7384"
     width="24px"
     inkscape:showpageshadow="2"
     inkscape:deskcolor="#d1d1d1">
    <inkscape:grid
       type="xygrid"
       id="grid14" />
    <inkscape:grid
       type="xygrid"
       id="grid831"
       dotted="true"
       spacingx="0.5"
       spacingy="0.5"
       empspacing="10" />
  </sodipodi:namedview>
  <metadata
     id="metadata20854">
    <rdf:RDF>
      <cc:Work
         rdf:about="">
        <dc:format>image/svg+xml</dc:format>
        <dc:type
           rdf:resource="http://purl.org/dc/dcmitype/StillImage" />
      </cc:Work>
    </rdf:RDF>
  </metadata>
  <defs
     id="defs7386">
    <linearGradient
       id="linearGradient5606"
       inkscape:swatch="solid">
      <stop
         id="stop5608"
         offset="0"
         style="stop-color:#000000;stop-opacity:1;" />
    </linearGradient>
    <linearGradient
       id="linearGradient4526"
       inkscape:swatch="solid">
      <stop
         id="stop4528"
         offset="0"
         style="stop-color:#ffffff;stop-opacity:1;" />
    </linearGradient>
    <linearGradient
       id="linearGradient3600-4"
       inkscape:swatch="gradient">
      <stop
         id="stop3602-7"
         offset="0"
         style="stop-color:#f4f4f4;stop-opacity:1" />
      <stop
         id="stop3604-6"
         offset="1"
         style="stop-color:#dbdbdb;stop-opacity:1" />
    </linearGradient>
  </defs>
  <path
     id="path866"
     style="color:#000000;fill:#808080;fill-opacity:1"
     d="m 6.7871094,2 c -0.6769416,0.00559 -1.2506056,0.048154 -1.7597656,0.3027344 -0.3394405,0.16972 -0.6300065,0.462436 -0.796875,0.8378906 -0.1668692,0.3754546 -0.2304688,0.8177119 -0.2304688,1.359375 v 15 c 0,0.54166 0.0636,0.983918 0.2304688,1.359375 0.1668685,0.375457 0.4574345,0.668169 0.796875,0.837891 0.6788805,0.339436 1.4726632,0.302734 2.4726562,0.302734 h 6.5 v -5 h -6.5 c -0.2761291,-2.8e-5 -0.4999724,-0.223869 -0.5,-0.5 0,0 -0.00474,-0.876645 0.5058594,-1.751953 0.5105969,-0.875308 1.6012968,-1.748047 3.4941406,-1.748047 1.421157,0 2.389218,0.491768 3,1.107422 v -0.107422 h 2 v -12 h -8.5 c -0.2499985,0 -0.4872438,-0.00186 -0.7128906,0 z m 10.2128906,0 v 12 h 3 v -9.5 c 0,-0.5416631 -0.0636,-0.9839204 -0.230469,-1.359375 -0.16687,-0.3754546 -0.457432,-0.6681706 -0.796875,-0.8378906 -0.559842,-0.279922 -1.205329,-0.3028825 -1.972656,-0.3027344 z m -6,5 c 1.104563,0 2,1.1192965 2,2.5 0,1.380706 -0.895437,2.5 -2,2.5 -1.1045629,0 -2,-1.119294 -2,-2.5 0,-1.3807035 0.8954371,-2.5 2,-2.5 z m 0,1 c -0.552279,0 -1,0.6715777 -1,1.5 0,0.828421 0.447721,1.5 1,1.5 0.552279,0 1,-0.671579 1,-1.5 0,-0.8284223 -0.447721,-1.5 -1,-1.5 z m 0,6 c -1.6071317,0 -2.266462,0.627275 -2.6308594,1.251953 -0.2183619,0.374345 -0.1841971,0.508507 -0.2207031,0.748047 h 5.7031245 c -0.0365,-0.23954 -0.0023,-0.373702 -0.220703,-0.748047 -0.364393,-0.624678 -1.02373,-1.251953 -2.630859,-1.251953 z"
     sodipodi:nodetypes="cssssscsccccssccccsccccssscssssssssssscccss" />
  <path
     id="rect961"
     style="fill:#808080;fill-opacity:1;fill-rule:evenodd;stroke-linecap:round"
     d="m 18,15 v 3 h -3 v 1 h 3 v 3 h 1 v -3 h 3 v -1 h -3 v -3 z" />
</svg>
