<?xml version="1.0" encoding="UTF-8" standalone="no"?>
<svg
   viewBox="0 1 24 24"
   height="24"
   id="svg7384"
   version="1.1"
   width="24"
   sodipodi:docname="new.svg"
   inkscape:version="1.2 (1:1.2.1+202207142221+cd75a1ee6d)"
   xmlns:inkscape="http://www.inkscape.org/namespaces/inkscape"
   xmlns:sodipodi="http://sodipodi.sourceforge.net/DTD/sodipodi-0.dtd"
   xmlns="http://www.w3.org/2000/svg"
   xmlns:svg="http://www.w3.org/2000/svg"
   xmlns:rdf="http://www.w3.org/1999/02/22-rdf-syntax-ns#"
   xmlns:cc="http://creativecommons.org/ns#"
   xmlns:dc="http://purl.org/dc/elements/1.1/">
  <sodipodi:namedview
     id="namedview24"
     pagecolor="#ffffff"
     bordercolor="#666666"
     borderopacity="1.0"
     inkscape:pageshadow="2"
     inkscape:pageopacity="0.0"
     inkscape:pagecheckerboard="0"
     showgrid="true"
     inkscape:zoom="28"
     inkscape:cx="11.535714"
     inkscape:cy="12.803571"
     inkscape:window-width="1920"
     inkscape:window-height="1016"
     inkscape:window-x="0"
     inkscape:window-y="0"
     inkscape:window-maximized="1"
     inkscape:current-layer="svg7384"
     width="24px"
     inkscape:showpageshadow="2"
     inkscape:deskcolor="#d1d1d1">
    <inkscape:grid
       type="xygrid"
       id="grid14" />
    <inkscape:grid
       type="xygrid"
       id="grid831"
       dotted="true"
       spacingx="0.5"
       spacingy="0.5"
       empspacing="10" />
  </sodipodi:namedview>
  <metadata
     id="metadata20854">
    <rdf:RDF>
      <cc:Work
         rdf:about="">
        <dc:format>image/svg+xml</dc:format>
        <dc:type
           rdf:resource="http://purl.org/dc/dcmitype/StillImage" />
      </cc:Work>
    </rdf:RDF>
  </metadata>
  <defs
     id="defs7386">
    <linearGradient
       id="linearGradient5606"
       inkscape:swatch="solid">
      <stop
         id="stop5608"
         offset="0"
         style="stop-color:#000000;stop-opacity:1;" />
    </linearGradient>
    <linearGradient
       id="linearGradient4526"
       inkscape:swatch="solid">
      <stop
         id="stop4528"
         offset="0"
         style="stop-color:#ffffff;stop-opacity:1;" />
    </linearGradient>
    <linearGradient
       id="linearGradient3600-4"
       inkscape:swatch="gradient">
      <stop
         id="stop3602-7"
         offset="0"
         style="stop-color:#f4f4f4;stop-opacity:1" />
      <stop
         id="stop3604-6"
         offset="1"
         style="stop-color:#dbdbdb;stop-opacity:1" />
    </linearGradient>
  </defs>
  <path
     id="path866"
     style="color:#000000;fill:#808080;fill-opacity:1"
     d="M 6.7871094 2 C 6.110165 2.00559 5.5365062 2.0481532 5.0273438 2.3027344 C 4.6879021 2.4724552 4.3973381 2.7651688 4.2304688 3.140625 C 4.0635992 3.5160812 4 3.9583349 4 4.5 L 4 19.5 C 4 20.041664 4.0635991 20.483918 4.2304688 20.859375 C 4.3973381 21.234832 4.6879021 21.527544 5.0273438 21.697266 C 5.7062271 22.036706 6.500003 22 7.5 22 L 14 22 L 14 21 L 7.5 21 C 6.500003 21 5.79377 20.96329 5.4726562 20.802734 C 5.3120995 20.722454 5.2276612 20.640167 5.1445312 20.453125 C 5.0614013 20.266083 5 19.958333 5 19.5 L 5 4.5 C 5 4.0416681 5.0614011 3.733917 5.1445312 3.546875 C 5.2276612 3.359833 5.3120995 3.277544 5.4726562 3.1972656 C 5.7937699 3.0367089 6.500003 3 7.5 3 L 16 3 L 16 14 L 17 14 L 17 3.0058594 C 17.730454 3.0190304 18.264121 3.0656546 18.527344 3.1972656 C 18.687901 3.2775445 18.772339 3.359833 18.855469 3.546875 C 18.938599 3.733917 19 4.0416681 19 4.5 L 19 14 L 20 14 L 20 4.5 C 20 3.9583349 19.9364 3.5160812 19.769531 3.140625 C 19.602661 2.7651688 19.312099 2.4724552 18.972656 2.3027344 C 18.293773 1.9632926 17.499997 2 16.5 2 L 7.5 2 C 7.2500007 2 7.0127574 1.99814 6.7871094 2 z M 11 7 C 9.8954316 7 9 8.1192895 9 9.5 C 9 10.880711 9.8954316 12 11 12 C 12.104568 12 13 10.880711 13 9.5 C 13 8.1192895 12.104568 7 11 7 z M 11 8 C 11.552284 8 12 8.6715737 12 9.5 C 12 10.328426 11.552284 11 11 11 C 10.447716 11 10 10.328426 10 9.5 C 10 8.6715737 10.447716 8 11 8 z M 11 13 C 9.1071486 13 8.0164583 13.872735 7.5058594 14.748047 C 6.9952604 15.623359 7 16.5 7 16.5 C 7.0000276 16.776131 7.2238694 16.999972 7.5 17 L 13 17 L 14 17 L 14 14.107422 C 13.38922 13.491767 12.421163 13 11 13 z M 11 14 C 12.607137 14 13.266462 14.627271 13.630859 15.251953 C 13.849227 15.626298 13.815059 15.76046 13.851562 16 L 8.1484375 16 C 8.1849435 15.76046 8.1507777 15.626298 8.3691406 15.251953 C 8.7335392 14.627271 9.3928619 14 11 14 z " />
  <path
     id="rect961"
     style="fill:#808080;fill-opacity:1;fill-rule:evenodd;stroke-linecap:round"
     d="m 18,15 v 3 h -3 v 1 h 3 v 3 h 1 v -3 h 3 v -1 h -3 v -3 z" />
</svg>
