<svg height="24" width="24" xmlns="http://www.w3.org/2000/svg"><path style="color:#000;fill:gray;fill-opacity:1" d="M6.787 2c-.677.006-1.25.048-1.76.303-.34.17-.63.462-.797.838C4.064 3.516 4 3.958 4 4.5v15c0 .542.064.984.23 1.36.167.375.458.668.797.837.68.34 1.473.303 2.473.303H14v-1H7.5c-1 0-1.706-.037-2.027-.197a.615.615 0 0 1-.328-.35C5.06 20.266 5 19.958 5 19.5v-15c0-.458.061-.766.145-.953a.615.615 0 0 1 .328-.35C5.793 3.037 6.5 3 7.5 3H16v11h1V3.006c.73.013 1.264.06 1.527.191.16.08.245.163.328.35.084.187.145.495.145.953V14h1V4.5c0-.542-.064-.984-.23-1.36a1.72 1.72 0 0 0-.797-.837C18.293 1.963 17.5 2 16.5 2h-9c-.25 0-.487-.002-.713 0zM11 7C9.895 7 9 8.12 9 9.5s.895 2.5 2 2.5 2-1.12 2-2.5S12.105 7 11 7zm0 1c.552 0 1 .672 1 1.5s-.448 1.5-1 1.5-1-.672-1-1.5.448-1.5 1-1.5zm0 5c-1.893 0-2.984.873-3.494 1.748C6.996 15.623 7 16.5 7 16.5a.5.5 0 0 0 .5.5H14v-2.893C13.39 13.492 12.421 13 11 13zm0 1c1.607 0 2.266.627 2.63 1.252.22.374.185.508.222.748H8.148c.037-.24.003-.374.221-.748C8.734 14.627 9.393 14 11 14z"/><path style="fill:gray;fill-opacity:1;stroke-linecap:round" d="M18 15v3h-3v1h3v3h1v-3h3v-1h-3v-3z"/></svg>