<?xml version="1.0" encoding="UTF-8" standalone="no"?>
<svg
   height="24"
   width="24"
   version="1.1"
   id="svg6"
   sodipodi:docname="dialpad.svg"
   inkscape:version="1.1 (ce6663b3b7, 2021-05-25)"
   xmlns:inkscape="http://www.inkscape.org/namespaces/inkscape"
   xmlns:sodipodi="http://sodipodi.sourceforge.net/DTD/sodipodi-0.dtd"
   xmlns="http://www.w3.org/2000/svg"
   xmlns:svg="http://www.w3.org/2000/svg">
  <defs
     id="defs10" />
  <sodipodi:namedview
     id="namedview8"
     pagecolor="#ffffff"
     bordercolor="#666666"
     borderopacity="1.0"
     inkscape:pageshadow="2"
     inkscape:pageopacity="0.0"
     inkscape:pagecheckerboard="0"
     showgrid="false"
     inkscape:snap-page="true"
     inkscape:zoom="39.59798"
     inkscape:cx="8.3716392"
     inkscape:cy="8.5736697"
     inkscape:window-width="1920"
     inkscape:window-height="1016"
     inkscape:window-x="0"
     inkscape:window-y="27"
     inkscape:window-maximized="1"
     inkscape:current-layer="svg6" />
  <g
     color="#000000"
     font-weight="400"
     font-family="sans-serif"
     white-space="normal"
     fill="#808080"
     id="g4"
     transform="matrix(1.25,0,0,1.25,2,2)"
     style="stroke-width:0.8">
    <path
       d="m 2.246,11.01 c -0.268,0.002 -0.472,-0.029 -0.758,0.084 a 0.801,0.801 0 0 0 -0.39,0.346 0.93,0.93 0 0 0 -0.098,0.453 v 2.224 a 0.93,0.93 0 0 0 0.098,0.453 c 0.083,0.16 0.248,0.29 0.39,0.346 0.286,0.113 0.49,0.082 0.758,0.084 h 1.508 c 0.268,-0.002 0.472,0.029 0.758,-0.084 a 0.801,0.801 0 0 0 0.39,-0.346 0.93,0.93 0 0 0 0.098,-0.453 v -2.224 a 0.93,0.93 0 0 0 -0.098,-0.453 0.801,0.801 0 0 0 -0.39,-0.346 c -0.286,-0.113 -0.49,-0.082 -0.758,-0.084 h -1.506 z m 0.004,1 h 1.5 c 0.17,0.002 0.19,0.003 0.25,0.008 v 1.974 c -0.06,0.004 -0.08,0.006 -0.25,0.008 h -1.5 a 2.88,2.88 0 0 1 -0.25,-0.008 v -1.974 c 0.06,-0.004 0.08,-0.006 0.25,-0.008 z m -0.004,-6 c -0.268,0.002 -0.472,-0.029 -0.758,0.084 a 0.801,0.801 0 0 0 -0.39,0.346 0.93,0.93 0 0 0 -0.098,0.453 v 2.224 a 0.93,0.93 0 0 0 0.098,0.453 c 0.083,0.16 0.248,0.29 0.39,0.346 0.286,0.113 0.49,0.082 0.758,0.084 h 1.508 c 0.268,-0.002 0.472,0.029 0.758,-0.084 a 0.801,0.801 0 0 0 0.39,-0.346 0.93,0.93 0 0 0 0.098,-0.453 v -2.224 a 0.93,0.93 0 0 0 -0.098,-0.453 0.801,0.801 0 0 0 -0.39,-0.346 c -0.286,-0.113 -0.49,-0.082 -0.758,-0.084 h -1.506 z m 0.004,1 h 1.5 c 0.17,0.002 0.19,0.003 0.25,0.008 v 1.974 c -0.06,0.004 -0.08,0.006 -0.25,0.008 h -1.5 a 2.88,2.88 0 0 1 -0.25,-0.008 v -1.974 c 0.06,-0.004 0.08,-0.006 0.25,-0.008 z m -0.004,-6 c -0.268,0.002 -0.472,-0.029 -0.758,0.084 a 0.801,0.801 0 0 0 -0.39,0.346 0.93,0.93 0 0 0 -0.098,0.453 v 2.224 a 0.93,0.93 0 0 0 0.098,0.453 c 0.083,0.16 0.248,0.29 0.39,0.346 0.286,0.113 0.49,0.082 0.758,0.084 h 1.508 c 0.268,-0.002 0.472,0.029 0.758,-0.084 a 0.801,0.801 0 0 0 0.39,-0.346 0.93,0.93 0 0 0 0.098,-0.453 v -2.224 a 0.93,0.93 0 0 0 -0.098,-0.453 0.801,0.801 0 0 0 -0.39,-0.346 c -0.286,-0.113 -0.49,-0.082 -0.758,-0.084 h -1.506 z m 0.004,1 h 1.5 c 0.17,0.002 0.19,0.003 0.25,0.008 v 1.974 c -0.06,0.004 -0.08,0.006 -0.25,0.008 h -1.5 a 2.88,2.88 0 0 1 -0.25,-0.008 v -1.974 c 0.06,-0.004 0.08,-0.006 0.25,-0.008 z m 4.996,9 c -0.268,0.002 -0.472,-0.029 -0.758,0.084 a 0.801,0.801 0 0 0 -0.39,0.346 0.93,0.93 0 0 0 -0.098,0.453 v 2.224 a 0.93,0.93 0 0 0 0.098,0.453 c 0.083,0.16 0.248,0.29 0.39,0.346 0.286,0.113 0.49,0.082 0.758,0.084 h 1.508 c 0.268,-0.002 0.472,0.029 0.758,-0.084 a 0.801,0.801 0 0 0 0.39,-0.346 0.93,0.93 0 0 0 0.098,-0.453 v -2.224 a 0.93,0.93 0 0 0 -0.098,-0.453 0.801,0.801 0 0 0 -0.39,-0.346 c -0.286,-0.113 -0.49,-0.082 -0.758,-0.084 h -1.506 z m 0.004,1 h 1.5 c 0.17,0.002 0.19,0.003 0.25,0.008 v 1.974 c -0.06,0.004 -0.08,0.006 -0.25,0.008 h -1.5 a 2.88,2.88 0 0 1 -0.25,-0.008 v -1.974 c 0.06,-0.004 0.08,-0.006 0.25,-0.008 z m -0.004,-6 c -0.268,0.002 -0.472,-0.029 -0.758,0.084 a 0.801,0.801 0 0 0 -0.39,0.346 0.93,0.93 0 0 0 -0.098,0.453 v 2.224 a 0.93,0.93 0 0 0 0.098,0.453 c 0.083,0.16 0.248,0.29 0.39,0.346 0.286,0.113 0.49,0.082 0.758,0.084 h 1.508 c 0.268,-0.002 0.472,0.029 0.758,-0.084 a 0.801,0.801 0 0 0 0.39,-0.346 0.93,0.93 0 0 0 0.098,-0.453 v -2.224 a 0.93,0.93 0 0 0 -0.098,-0.453 0.801,0.801 0 0 0 -0.39,-0.346 c -0.286,-0.113 -0.49,-0.082 -0.758,-0.084 h -1.506 z m 0.004,1 h 1.5 c 0.17,0.002 0.19,0.003 0.25,0.008 v 1.974 c -0.06,0.004 -0.08,0.006 -0.25,0.008 h -1.5 a 2.88,2.88 0 0 1 -0.25,-0.008 v -1.974 c 0.06,-0.004 0.08,-0.006 0.25,-0.008 z m -0.004,-6 c -0.268,0.002 -0.472,-0.029 -0.758,0.084 a 0.801,0.801 0 0 0 -0.39,0.346 0.93,0.93 0 0 0 -0.098,0.453 v 2.224 a 0.93,0.93 0 0 0 0.098,0.453 c 0.083,0.16 0.248,0.29 0.39,0.346 0.286,0.113 0.49,0.082 0.758,0.084 h 1.508 c 0.268,-0.002 0.472,0.029 0.758,-0.084 a 0.801,0.801 0 0 0 0.39,-0.346 0.93,0.93 0 0 0 0.098,-0.453 v -2.224 a 0.93,0.93 0 0 0 -0.098,-0.453 0.801,0.801 0 0 0 -0.39,-0.346 c -0.286,-0.113 -0.49,-0.082 -0.758,-0.084 h -1.506 z m 0.004,1 h 1.5 c 0.17,0.002 0.19,0.003 0.25,0.008 v 1.974 c -0.06,0.004 -0.08,0.006 -0.25,0.008 h -1.5 a 2.88,2.88 0 0 1 -0.25,-0.008 v -1.974 c 0.06,-0.004 0.08,-0.006 0.25,-0.008 z m 4.996,9 c -0.268,0.002 -0.472,-0.029 -0.758,0.084 a 0.801,0.801 0 0 0 -0.39,0.346 0.93,0.93 0 0 0 -0.098,0.453 v 2.224 a 0.93,0.93 0 0 0 0.098,0.453 c 0.083,0.16 0.248,0.29 0.39,0.346 0.286,0.113 0.49,0.082 0.758,0.084 h 1.508 c 0.268,-0.002 0.472,0.029 0.758,-0.084 a 0.801,0.801 0 0 0 0.39,-0.346 0.93,0.93 0 0 0 0.098,-0.453 v -2.224 a 0.93,0.93 0 0 0 -0.098,-0.453 0.801,0.801 0 0 0 -0.39,-0.346 c -0.286,-0.113 -0.49,-0.082 -0.758,-0.084 h -1.506 z m 0.004,1 h 1.5 c 0.17,0.002 0.19,0.003 0.25,0.008 v 1.974 c -0.06,0.004 -0.08,0.006 -0.25,0.008 h -1.5 a 2.88,2.88 0 0 1 -0.25,-0.008 v -1.974 c 0.06,-0.004 0.08,-0.006 0.25,-0.008 z m -0.004,-6 c -0.268,0.002 -0.472,-0.029 -0.758,0.084 a 0.801,0.801 0 0 0 -0.39,0.346 0.93,0.93 0 0 0 -0.098,0.453 v 2.224 a 0.93,0.93 0 0 0 0.098,0.453 c 0.083,0.16 0.248,0.29 0.39,0.346 0.286,0.113 0.49,0.082 0.758,0.084 h 1.508 c 0.268,-0.002 0.472,0.029 0.758,-0.084 a 0.801,0.801 0 0 0 0.39,-0.346 0.93,0.93 0 0 0 0.098,-0.453 v -2.224 a 0.93,0.93 0 0 0 -0.098,-0.453 0.801,0.801 0 0 0 -0.39,-0.346 c -0.286,-0.113 -0.49,-0.082 -0.758,-0.084 h -1.506 z m 0.004,1 h 1.5 c 0.17,0.002 0.19,0.003 0.25,0.008 v 1.974 c -0.06,0.004 -0.08,0.006 -0.25,0.008 h -1.5 a 2.88,2.88 0 0 1 -0.25,-0.008 v -1.974 c 0.06,-0.004 0.08,-0.006 0.25,-0.008 z m -0.004,-6 c -0.268,0.002 -0.472,-0.029 -0.758,0.084 a 0.801,0.801 0 0 0 -0.39,0.346 0.93,0.93 0 0 0 -0.098,0.453 v 2.224 a 0.93,0.93 0 0 0 0.098,0.453 c 0.083,0.16 0.248,0.29 0.39,0.346 0.286,0.113 0.49,0.082 0.758,0.084 h 1.508 c 0.268,-0.002 0.472,0.029 0.758,-0.084 a 0.801,0.801 0 0 0 0.39,-0.346 0.93,0.93 0 0 0 0.098,-0.453 v -2.224 a 0.93,0.93 0 0 0 -0.098,-0.453 0.801,0.801 0 0 0 -0.39,-0.346 c -0.286,-0.113 -0.49,-0.082 -0.758,-0.084 h -1.506 z m 0.004,1 h 1.5 c 0.17,0.002 0.19,0.003 0.25,0.008 v 1.974 c -0.06,0.004 -0.08,0.006 -0.25,0.008 h -1.5 a 2.88,2.88 0 0 1 -0.25,-0.008 v -1.974 c 0.06,-0.004 0.08,-0.006 0.25,-0.008 z"
       style="line-height:normal;font-variant-ligatures:normal;font-variant-position:normal;font-variant-caps:normal;font-variant-numeric:normal;font-variant-alternates:normal;font-feature-settings:normal;text-indent:0;text-align:start;text-decoration-line:none;text-decoration-style:solid;text-decoration-color:#000000;text-transform:none;text-orientation:mixed;shape-padding:0;isolation:auto;mix-blend-mode:normal;stroke-width:0.64;marker:none"
       overflow="visible"
       id="path2" />
  </g>
</svg>
