<?xml version="1.0" encoding="UTF-8" standalone="no"?>
<svg
   height="16.021481"
   id="svg7384"
   version="1.1"
   width="16"
   sodipodi:docname="microphone.svg"
   inkscape:version="1.1 (ce6663b3b7, 2021-05-25)"
   xmlns:inkscape="http://www.inkscape.org/namespaces/inkscape"
   xmlns:sodipodi="http://sodipodi.sourceforge.net/DTD/sodipodi-0.dtd"
   xmlns="http://www.w3.org/2000/svg"
   xmlns:svg="http://www.w3.org/2000/svg"
   xmlns:rdf="http://www.w3.org/1999/02/22-rdf-syntax-ns#"
   xmlns:cc="http://creativecommons.org/ns#"
   xmlns:dc="http://purl.org/dc/elements/1.1/">
  <sodipodi:namedview
     id="namedview24"
     pagecolor="#ffffff"
     bordercolor="#666666"
     borderopacity="1.0"
     inkscape:pageshadow="2"
     inkscape:pageopacity="0.0"
     inkscape:pagecheckerboard="0"
     showgrid="false"
     inkscape:zoom="55.924919"
     inkscape:cx="8.0017997"
     inkscape:cy="8.0196808"
     inkscape:window-width="1920"
     inkscape:window-height="1016"
     inkscape:window-x="0"
     inkscape:window-y="27"
     inkscape:window-maximized="1"
     inkscape:current-layer="svg7384" />
  <metadata
     id="metadata20854">
    <rdf:RDF>
      <cc:Work
         rdf:about="">
        <dc:format>image/svg+xml</dc:format>
        <dc:type
           rdf:resource="http://purl.org/dc/dcmitype/StillImage" />
      </cc:Work>
    </rdf:RDF>
  </metadata>
  <defs
     id="defs7386">
    <linearGradient
       id="linearGradient5606"
       inkscape:swatch="solid">
      <stop
         id="stop5608"
         offset="0"
         style="stop-color:#000000;stop-opacity:1;" />
    </linearGradient>
    <linearGradient
       id="linearGradient4526"
       inkscape:swatch="solid">
      <stop
         id="stop4528"
         offset="0"
         style="stop-color:#ffffff;stop-opacity:1;" />
    </linearGradient>
    <linearGradient
       id="linearGradient3600-4"
       inkscape:swatch="gradient">
      <stop
         id="stop3602-7"
         offset="0"
         style="stop-color:#f4f4f4;stop-opacity:1" />
      <stop
         id="stop3604-6"
         offset="1"
         style="stop-color:#dbdbdb;stop-opacity:1" />
    </linearGradient>
  </defs>
  <path
     id="path7631"
     style="color:#000000;display:inline;overflow:visible;visibility:visible;fill:#808080;fill-opacity:1;fill-rule:nonzero;stroke:none;stroke-width:0.5;marker:none;enable-background:accumulate"
     d="M 7.5 0 C 6.08821 0 5 0.84433875 5 2.5429688 L 5 4.8730469 L 5 5.9335938 L 5 8.4765625 C 5 10.175183 6.08821 11.021484 7.5 11.021484 C 8.91179 11.021484 10 10.172473 10 8.4765625 L 10 5.9335938 L 10 4.8730469 L 10 2.5429688 C 10 0.84705875 8.91179 -2.3684758e-15 7.5 0 z M 3 7.0214844 L 3 8.5214844 C 3 10.845273 4.7442393 12.746716 7 12.994141 L 7 15.041016 C 6.3329615 15.091305 5.6653617 15.241033 5 15.480469 L 5 16.021484 L 10 16.021484 L 10 15.480469 C 9.3331934 15.246125 8.6666479 15.092729 8 15.041016 L 8 12.994141 C 10.255761 12.746716 12 10.845273 12 8.5214844 L 12 7.0214844 L 11 7.0214844 L 11 8.5214844 C 11 10.290787 9.7006609 11.743324 8 11.984375 L 8 11.521484 L 7 11.521484 L 7 11.984375 C 5.2993391 11.743324 4 10.290787 4 8.5214844 L 4 7.0214844 L 3 7.0214844 z " />
</svg>
