<?xml version="1.0" encoding="UTF-8" standalone="no"?>
<svg
   height="24"
   width="24"
   version="1.1"
   id="svg4"
   sodipodi:docname="mouse.svg"
   inkscape:version="1.1 (ce6663b3b7, 2021-05-25)"
   xmlns:inkscape="http://www.inkscape.org/namespaces/inkscape"
   xmlns:sodipodi="http://sodipodi.sourceforge.net/DTD/sodipodi-0.dtd"
   xmlns="http://www.w3.org/2000/svg"
   xmlns:svg="http://www.w3.org/2000/svg">
  <defs
     id="defs8" />
  <sodipodi:namedview
     id="namedview6"
     pagecolor="#ffffff"
     bordercolor="#666666"
     borderopacity="1.0"
     inkscape:pageshadow="2"
     inkscape:pageopacity="0.0"
     inkscape:pagecheckerboard="0"
     showgrid="false"
     inkscape:snap-page="true"
     inkscape:zoom="28"
     inkscape:cx="2.9821429"
     inkscape:cy="7.75"
     inkscape:window-width="1920"
     inkscape:window-height="1043"
     inkscape:window-x="1920"
     inkscape:window-y="0"
     inkscape:window-maximized="1"
     inkscape:current-layer="svg4" />
  <path
     d="m 12.001875,2.6253738 c -1.61875,0 -3.2375,0.285 -4.75625,0.84 l -0.215,0.0775 -1.3625,6.8100002 c -0.2325,1.15875 -0.4625,2.35375 -0.46625,3.58375 -0.00375,1.23125 0.22375,2.48125 0.76625,3.61125 a 6.81875,6.81875 0 0 0 2.45875,2.79 6.68,6.68 0 0 0 7.14875,0 6.8125,6.8125 0 0 0 2.45625,-2.79 c 0.5425,-1.13 0.77,-2.38 0.76625,-3.6125 -0.0038,-1.22875 -0.23125,-2.42375 -0.46375,-3.5825 l -1.365,-6.8100002 -0.215,-0.0775 a 13.9,13.9 0 0 0 -4.7525,-0.84 z m -0.55,1.2775 v 3.7225 h 1.25 v -3.71625 c 1.0875,0.0775 2.16,0.31625 3.19875,0.655 l 1.2075,6.0350002 c 0.23125,1.1525 0.4375,2.2625 0.44,3.34 0.0038,1.075 -0.19625,2.13875 -0.6425,3.06625 a 5.5875,5.5875 0 0 1 -2.00375,2.2775 5.44125,5.44125 0 0 1 -2.9,0.8425 5.45,5.45 0 0 1 -2.90375,-0.8425 5.5875,5.5875 0 0 1 -2.00375,-2.2775 c -0.44625,-0.9275 -0.64625,-1.99125 -0.6425,-3.06625 0.00375,-1.0775 0.21125,-2.1875 0.4425,-3.34 l 1.2075,-6.0350002 c 1.0875,-0.35375 2.2125,-0.5975 3.35,-0.6625 z"
     style="line-height:normal;font-variant-ligatures:normal;font-variant-position:normal;font-variant-caps:normal;font-variant-numeric:normal;font-variant-alternates:normal;font-feature-settings:normal;text-indent:0;text-align:start;text-decoration-line:none;text-decoration-style:solid;text-decoration-color:#000000;text-transform:none;text-orientation:mixed;shape-padding:0;isolation:auto;mix-blend-mode:normal;stroke-width:1;marker:none"
     color="#000000"
     font-weight="400"
     font-family="sans-serif"
     white-space="normal"
     overflow="visible"
     fill="#808080"
     id="path2" />
</svg>
