<?xml version="1.0" encoding="UTF-8" standalone="no"?>
<svg
   height="24"
   width="24"
   version="1.1"
   id="svg8"
   sodipodi:docname="tablet.svg"
   inkscape:version="1.1 (ce6663b3b7, 2021-05-25)"
   xmlns:inkscape="http://www.inkscape.org/namespaces/inkscape"
   xmlns:sodipodi="http://sodipodi.sourceforge.net/DTD/sodipodi-0.dtd"
   xmlns="http://www.w3.org/2000/svg"
   xmlns:svg="http://www.w3.org/2000/svg">
  <defs
     id="defs12" />
  <sodipodi:namedview
     id="namedview10"
     pagecolor="#ffffff"
     bordercolor="#666666"
     borderopacity="1.0"
     inkscape:pageshadow="2"
     inkscape:pageopacity="0.0"
     inkscape:pagecheckerboard="0"
     showgrid="true"
     inkscape:zoom="39.59798"
     inkscape:cx="9.7100913"
     inkscape:cy="12.046069"
     inkscape:window-width="1920"
     inkscape:window-height="1043"
     inkscape:window-x="1920"
     inkscape:window-y="0"
     inkscape:window-maximized="1"
     inkscape:current-layer="svg8">
    <inkscape:grid
       type="xygrid"
       id="grid829" />
  </sodipodi:namedview>
  <g
     font-weight="400"
     fill="#808080"
     id="g6"
     transform="matrix(1.25,0,0,1.25,2,2.525)"
     style="stroke-width:0.8">
    <path
       d="m 3.994,1 c -1.258,0.015 -2.179,-0.03 -2.931,0.385 a 1.88,1.88 0 0 0 -0.838,0.998 c -0.165,0.439 -0.225,0.96 -0.225,1.617 v 8 c 0,0.658 0.06,1.179 0.225,1.617 0.164,0.439 0.461,0.79 0.838,0.998 0.752,0.416 1.673,0.37 2.931,0.385 h 8.012 c 1.258,-0.014 2.179,0.03 2.932,-0.385 a 1.88,1.88 0 0 0 0.838,-0.998 c 0.164,-0.438 0.224,-0.96 0.224,-1.617 v -8 c 0,-0.658 -0.06,-1.178 -0.225,-1.617 -0.005,-0.013 -0.012,-0.023 -0.017,-0.035 l -0.82,0.806 c 0.037,0.23 0.062,0.499 0.062,0.846 v 8 c 0,0.592 -0.063,1.006 -0.16,1.266 -0.098,0.26 -0.203,0.371 -0.387,0.472 -0.366,0.202 -1.194,0.247 -2.453,0.262 h -8 c -1.259,-0.015 -2.09,-0.06 -2.455,-0.262 -0.183,-0.1 -0.287,-0.212 -0.385,-0.472 -0.097,-0.26 -0.16,-0.674 -0.16,-1.266 v -8 c 0,-0.592 0.063,-1.006 0.16,-1.266 0.098,-0.26 0.202,-0.371 0.385,-0.472 0.365,-0.202 1.195,-0.247 2.455,-0.262 h 3.852 l 0.982,-1 h -4.836 z"
       style="line-height:normal;font-variant-ligatures:normal;font-variant-position:normal;font-variant-caps:normal;font-variant-numeric:normal;font-variant-alternates:normal;font-feature-settings:normal;text-indent:0;text-align:start;text-decoration-line:none;text-decoration-style:solid;text-decoration-color:#000000;text-transform:none;text-orientation:mixed;shape-padding:0;isolation:auto;mix-blend-mode:normal;stroke-width:0.64;marker:none"
       color="#000000"
       font-family="sans-serif"
       white-space="normal"
       overflow="visible"
       id="path2" />
    <path
       d="m 11.238,0 -0.353,0.36 -6.969,7.095 -0.03,0.045 c -0.061,0.099 -0.27,0.45 -0.583,1.088 -0.314,0.638 -0.7,1.51 -1.012,2.492 l -0.291,0.92 0.92,-0.291 a 18.163,18.163 0 0 0 2.492,-1.012 c 0.638,-0.313 0.987,-0.52 1.088,-0.584 l 0.045,-0.029 7.455,-7.322 z m -6.347,7.89 1.218,1.22 -0.177,0.175 c 0.007,-0.005 -0.379,0.227 -0.961,0.514 -0.214,0.105 -0.536,0.222 -0.834,0.338 l -0.274,-0.274 c 0.116,-0.298 0.233,-0.62 0.338,-0.834 0.287,-0.582 0.518,-0.966 0.514,-0.96 z m -0.891,4.11 v 1 h 10 v -6 h -1 v 5 z"
       style="line-height:125%;-inkscape-font-specification:Ubuntu;text-align:center;stroke-width:0.64"
       font-size="15px"
       font-family="Ubuntu"
       letter-spacing="0"
       word-spacing="0"
       text-anchor="middle"
       id="path4" />
  </g>
</svg>
