<svg height="24" width="24" xmlns="http://www.w3.org/2000/svg"><path style="color:#000;fill:gray;fill-opacity:1;-inkscape-stroke:none" d="M7.455 2c-.969.009-1.718.073-2.338.445a1.848 1.848 0 0 0-.312.239L11.19 9.07a4.974 4.974 0 0 1 1.006-.066 5 5 0 0 1 3.473 1.619l.684.73-1.44 1.44L16.121 14H17c0 .276-.025.546-.068.81L20 17.88V5.5c0-.778-.06-1.386-.229-1.893-.168-.506-.475-.914-.888-1.162C18.056 1.95 17 2 15.5 2h-7c-.375 0-.722-.003-1.045 0zm-4.601.146-.708.708L4.03 4.736c-.018.238-.03.487-.03.764v13c0 .778.06 1.386.229 1.893.168.506.475.914.888 1.162C5.944 22.05 7 22 8.5 22h7c1.5 0 2.556.05 3.383-.445.396-.238.692-.623.865-1.1l1.398 1.399.708-.708-1.883-1.882-3.354-3.354-.781-.781-2.078-2.078-.809-.809-2.076-2.076-.787-.785-5.834-5.836-1.398-1.399zM9.172 9.88l.723.723a3.999 3.999 0 1 0 5.503 5.503l.721.721a4.986 4.986 0 0 1-3.467 2.131 5 5 0 0 1-3.48-9.078zm2.959.13 2.076 2.077.758-.758a3.995 3.995 0 0 0-2.834-1.318zm-.742 2.087.974.974A1 1 0 0 0 12 13a1 1 0 0 0-1 1 1 1 0 0 0 1 1 1 1 0 0 0 1-1 1 1 0 0 0-.07-.363l.974.974A2 2 0 0 1 12 16a2 2 0 0 1-2-2 2 2 0 0 1 1.389-1.904z"/></svg>