<svg height="24" width="24" xmlns="http://www.w3.org/2000/svg"><path style="color:#000;fill:gray;fill-opacity:1" d="M7.455 2c-.969.009-1.718.073-2.338.445-.413.248-.72.656-.888 1.162C4.059 4.114 4 4.722 4 5.5v13c0 .778.06 1.386.229 1.893.168.506.475.914.888 1.162C5.944 22.05 7 22 8.5 22H12v-3.006a4.996 4.996 0 0 1-1.914-9.613 4.998 4.998 0 0 1 2.111-.377 5 5 0 0 1 3.473 1.619l.684.73-1.5 1.5-.708-.707.819-.818a4 4 0 0 0-4.496-1.023A3.999 3.999 0 0 0 12 17.996V16a2 2 0 0 1-2-2 2 2 0 0 1 2-2 2 2 0 0 1 1.732 1H20V5.5c0-.778-.06-1.386-.229-1.893-.168-.506-.475-.914-.888-1.162C18.056 1.95 17 2 15.5 2h-7c-.375 0-.722-.003-1.045 0zM12 13a1 1 0 0 0-1 1 1 1 0 0 0 1 1v-2z"/><path style="color:#000;fill:gray;fill-opacity:1;stroke-width:1px;stroke-linejoin:round;-inkscape-stroke:none" d="M17.5 14a.5.5 0 0 0-.434.252l-4 7a.5.5 0 0 0 .433.748h8a.5.5 0 0 0 .434-.748l-4-7a.5.5 0 0 0-.434-.252zm-.5 2h1v2l-.2 1h-.6l-.2-1zm.5 4a.5.5 0 0 1 .5.5.5.5 0 0 1-.5.5.5.5 0 0 1-.5-.5.5.5 0 0 1 .5-.5z"/></svg>