<svg height="24" width="24" xmlns="http://www.w3.org/2000/svg"><path style="color:#000;fill:gray;fill-opacity:1;-inkscape-stroke:none" d="M8.5 2c-1.5 0-2.556-.05-3.383.445-.413.248-.72.656-.888 1.162C4.059 4.114 4 4.722 4 5.5v13c0 .778.06 1.386.229 1.893.168.506.475.914.888 1.162C5.944 22.05 7 22 8.5 22h7c1.5 0 2.556.05 3.383-.445.413-.248.72-.656.888-1.162.17-.507.229-1.115.229-1.893v-13c0-.778-.06-1.386-.229-1.893-.168-.506-.475-.914-.888-1.162C18.056 1.95 17 2 15.5 2zm0 1h7c1.5 0 2.444.05 2.867.305.212.127.343.281.455.619.113.337.178.854.178 1.576v13c0 .722-.065 1.239-.178 1.576-.112.338-.243.492-.455.62C17.944 20.948 17 21 15.5 21h-7c-1.5 0-2.444-.05-2.867-.305-.212-.127-.343-.281-.455-.619C5.065 19.74 5 19.222 5 18.5v-13c0-.722.065-1.239.178-1.576.112-.338.243-.492.455-.62C6.056 3.052 7 3 8.5 3z"/><path style="color:#000;fill:gray;stroke-width:.5;stroke-linecap:round;-inkscape-stroke:none;fill-opacity:1" d="m11.5 6-1 2h1v5.92c-.351-.234-.726-.364-1.053-.504-.419-.18-.758-.358-1.006-.676a1.906 1.906 0 0 1-.341-.748A1 1 0 0 0 10 11a1 1 0 0 0-1-1 1 1 0 0 0-1 1c0 1.073.243 1.828.652 2.354.41.525.945.785 1.4.98.457.195.836.346 1.065.553.23.207.383.46.383 1.113-.277 0-.5.223-.5.5v1c0 .277.223.5.5.5h1c.277 0 .5-.223.5-.5v-1c0-.277-.223-.5-.5-.5 0-1.192.208-1.794.451-2.129.243-.335.559-.475.996-.662.438-.188.997-.423 1.41-.994.414-.571.643-1.407.643-2.715v-1c0-.277-.223-.5-.5-.5h-1c-.277 0-.5.223-.5.5v1c0 .277.223.5.5.5h.484c-.05.866-.23 1.344-.435 1.629-.243.335-.559.475-.996.662-.327.14-.702.429-1.053.742V8h1l-1-2h-1z"/></svg>