<?xml version="1.0" encoding="UTF-8" standalone="no"?>
<svg viewBox="0 0 24 24" height="24" width="24" version="1.1" id="svg10" sodipodi:docname="harddisk-warning.svg" inkscape:version="1.2 (1:1.2.1+202207142221+cd75a1ee6d)"
   xmlns:inkscape="http://www.inkscape.org/namespaces/inkscape"
   xmlns:sodipodi="http://sodipodi.sourceforge.net/DTD/sodipodi-0.dtd"
   xmlns="http://www.w3.org/2000/svg"
   xmlns:svg="http://www.w3.org/2000/svg">
   <defs id="defs14" />
   <sodipodi:namedview id="namedview12" pagecolor="#ffffff" bordercolor="#666666" borderopacity="1.0" inkscape:pageshadow="2" inkscape:pageopacity="0.0" inkscape:pagecheckerboard="0" showgrid="true" inkscape:snap-page="true" inkscape:zoom="21.194089" inkscape:cx="14.909818" inkscape:cy="15.924252" inkscape:window-width="1846" inkscape:window-height="1016" inkscape:window-x="0" inkscape:window-y="0" inkscape:window-maximized="1" inkscape:current-layer="svg10" inkscape:snap-grids="false" inkscape:showpageshadow="2" inkscape:deskcolor="#d1d1d1">
      <inkscape:grid type="xygrid" id="grid957" />
      <inkscape:grid type="xygrid" id="grid825" dotted="true" spacingx="0.5" spacingy="0.5" empspacing="10" />
   </sodipodi:namedview>
   <path id="path1416" style="fill:#808080;fill-rule:evenodd;stroke-width:0.5;stroke-linecap:round;fill-opacity:1" d="M 7.4550781 2 C 6.4865012 2.0089807 5.7372567 2.0732709 5.1171875 2.4453125 C 4.703808 2.6933404 4.3972492 3.101222 4.2285156 3.6074219 C 4.0597825 4.1136218 4 4.7222262 4 5.5 L 4 18.5 C 4 19.277773 4.0597828 19.88638 4.2285156 20.392578 C 4.3972492 20.89878 4.703808 21.30666 5.1171875 21.554688 C 5.9439465 22.050742 7.0000075 22 8.5 22 L 12 22 L 12 21 L 8.5 21 C 7.0000075 21 6.0560474 20.94925 5.6328125 20.695312 C 5.421195 20.568346 5.2902497 20.413719 5.1777344 20.076172 C 5.065219 19.738625 5 19.222217 5 18.5 L 5 5.5 C 5 4.7777813 5.0652194 4.2613742 5.1777344 3.9238281 C 5.2902497 3.5862825 5.421195 3.4316581 5.6328125 3.3046875 C 6.0560474 3.0507468 7.0000075 3 8.5 3 L 15.5 3 C 16.999994 3 17.943952 3.0507472 18.367188 3.3046875 C 18.578803 3.4316581 18.70975 3.5862825 18.822266 3.9238281 C 18.934781 4.2613742 19 4.7777813 19 5.5 L 19 13 L 20 13 L 20 5.5 C 20 4.7222262 19.94022 4.1136218 19.771484 3.6074219 C 19.602754 3.101222 19.296194 2.6933404 18.882812 2.4453125 C 18.056054 1.9492572 16.999994 2 15.5 2 L 8.5 2 C 8.1250019 2 7.7779372 1.9970064 7.4550781 2 z M 11.925781 9 C 11.29458 9.0092793 10.67063 9.1385827 10.085938 9.3808594 C 7.7675968 10.341169 6.5201574 12.871143 7.1699219 15.294922 C 7.7625568 17.504898 9.7653623 18.996177 12 18.994141 L 12 17.996094 C 10.212863 17.997093 8.6107438 16.80256 8.1367188 15.035156 C 7.6172513 13.096591 8.6147544 11.07318 10.46875 10.304688 C 12.033073 9.6607706 13.833347 10.070565 14.964844 11.328125 L 14.146484 12.146484 L 14.853516 12.853516 L 16.353516 11.353516 L 15.669922 10.623047 C 14.773296 9.6436284 13.523887 9.0610879 12.197266 9.0039062 C 12.106921 9.0003385 12.015953 8.9986744 11.925781 9 z M 12 12 A 2 2 0 0 0 10 14 A 2 2 0 0 0 12 16 L 12 15 A 1 1 0 0 1 11 14 A 1 1 0 0 1 12 13 L 13 13 L 13.732422 13 A 2 2 0 0 0 12 12 z " />
   <path id="path1329" style="color:#000000;fill:#808080;fill-opacity:1;stroke-width:1px;stroke-linejoin:round;-inkscape-stroke:none" d="m 17.499424,14 a 0.50005,0.50005 0 0 0 -0.433594,0.251953 l -4,7 A 0.50005,0.50005 0 0 0 13.499424,22 h 8 a 0.50005,0.50005 0 0 0 0.433594,-0.748047 l -4,-7 A 0.50005,0.50005 0 0 0 17.499424,14 Z m -0.5,2 h 1 v 2 l -0.199219,1 h -0.601562 l -0.199219,-1 z m 0.5,4 a 0.5,0.5 0 0 1 0.5,0.5 0.5,0.5 0 0 1 -0.5,0.5 0.5,0.5 0 0 1 -0.5,-0.5 0.5,0.5 0 0 1 0.5,-0.5 z" />
</svg>
