<svg height="24" width="24" xmlns="http://www.w3.org/2000/svg"><path style="fill:gray;stroke-width:.5;stroke-linecap:round;fill-opacity:1" d="M7.455 2c-.969.009-1.718.073-2.338.445-.413.248-.72.656-.888 1.162C4.059 4.114 4 4.722 4 5.5V12h1V5.5c0-.722.065-1.239.178-1.576.112-.338.243-.492.455-.62C6.056 3.052 7 3 8.5 3h7c1.5 0 2.444.05 2.867.305.212.127.343.281.455.619.113.337.178.854.178 1.576V12h1V5.5c0-.778-.06-1.386-.229-1.893-.168-.506-.475-.914-.888-1.162C18.056 1.95 17 2 15.5 2h-7c-.375 0-.722-.003-1.045 0zm4.47 7a4.984 4.984 0 0 0-4.502 3H8.54a3.987 3.987 0 0 1 1.93-1.695 4 4 0 0 1 4.496 1.023l-.672.672h1.414l.647-.646-.684-.731A5 5 0 0 0 11.926 9zM4 15v3.5c0 .778.06 1.386.229 1.893.168.506.475.914.888 1.162C5.944 22.05 7 22 8.5 22h7c1.5 0 2.556.05 3.383-.445.413-.248.72-.656.888-1.162.17-.507.229-1.115.229-1.893V15h-1v3.5c0 .722-.065 1.239-.178 1.576-.112.338-.243.492-.455.62C17.944 20.948 17 21 15.5 21h-7c-1.5 0-2.444-.05-2.867-.305-.212-.127-.343-.281-.455-.619C5.065 19.74 5 19.222 5 18.5V15H4zm3.102 0a5 5 0 0 0 9.797 0H15.87a4 4 0 0 1-7.734.035L8.129 15H7.102zm3.166 0A2 2 0 0 0 12 16a2 2 0 0 0 1.732-1h-3.464z"/><path style="fill:gray;stroke-width:15.1181;stroke-linejoin:round" d="M2 13h20v1H2z"/></svg>