<svg height="24" width="24" xmlns="http://www.w3.org/2000/svg"><path style="color:#000;fill:gray;fill-opacity:1" d="M7.455 2c-.969.009-1.718.073-2.338.445-.413.248-.72.656-.888 1.162C4.059 4.114 4 4.722 4 5.5V12h3.424a4.984 4.984 0 0 1 4.773-2.996 5 5 0 0 1 3.473 1.619l.684.73-.647.647H20V5.5c0-.778-.06-1.386-.229-1.893-.168-.506-.475-.914-.888-1.162C18.056 1.95 17 2 15.5 2h-7c-.375 0-.722-.003-1.045 0zm4.522 8.004c-.508.002-1.02.1-1.508.3A3.987 3.987 0 0 0 8.539 12h5.754l.672-.672a4 4 0 0 0-2.988-1.324zM4 15v3.5c0 .778.06 1.386.229 1.893.168.506.475.914.888 1.162C5.944 22.05 7 22 8.5 22h7c1.5 0 2.556.05 3.383-.445.413-.248.72-.656.888-1.162.17-.507.229-1.115.229-1.893V15h-3.104a5 5 0 0 1-9.726.295c-.026-.098-.044-.197-.065-.295H4zm4.129 0 .008.035A4 4 0 0 0 15.87 15h-2.164A2 2 0 0 1 12 16a2 2 0 0 1-1.707-1H8.129z"/><path style="fill:gray;stroke-width:15.1181;stroke-linejoin:round" d="M2 13h20v1H2z"/></svg>