<svg height="24" width="24" xmlns="http://www.w3.org/2000/svg"><path style="color:#000;fill:gray;fill-opacity:1;-inkscape-stroke:none" d="M7.455 2c-.969.009-1.718.073-2.338.445-.413.248-.72.656-.888 1.162C4.059 4.114 4 4.722 4 5.5v13c0 .778.06 1.386.229 1.893.168.506.475.914.888 1.162C5.944 22.05 7 22 8.5 22h7c1.5 0 2.556.05 3.383-.445.413-.248.72-.656.888-1.162.17-.507.229-1.115.229-1.893v-13c0-.778-.06-1.386-.229-1.893-.168-.506-.475-.914-.888-1.162C18.056 1.95 17 2 15.5 2h-7c-.375 0-.722-.003-1.045 0zM11.5 6h1l1 2h-1v5.033c.351-.313.726-.602 1.053-.742.437-.187.753-.327.996-.662.206-.285.385-.763.435-1.629H14.5a.499.499 0 0 1-.5-.5v-1c0-.277.223-.5.5-.5h1c.277 0 .5.223.5.5v1c0 1.308-.23 2.144-.643 2.715-.413.57-.972.806-1.41.994-.437.187-.753.327-.996.662S12.5 14.808 12.5 16c.277 0 .5.223.5.5v1c0 .277-.223.5-.5.5h-1a.499.499 0 0 1-.5-.5v-1c0-.277.223-.5.5-.5 0-.653-.154-.906-.383-1.113-.229-.207-.608-.358-1.064-.553-.456-.195-.992-.455-1.4-.98C8.242 12.828 8 12.073 8 11a1 1 0 0 1 1-1 1 1 0 0 1 1 1 1 1 0 0 1-.9.992c.08.336.203.57.341.748.248.318.587.496 1.006.676.327.14.702.27 1.053.504V8h-1l1-2z"/></svg>