<svg height="24" width="24" xmlns="http://www.w3.org/2000/svg"><path style="color:#000;fill:gray;fill-opacity:1" d="M7.455 2c-.969.009-1.718.073-2.338.445-.413.248-.72.656-.888 1.162C4.059 4.114 4 4.722 4 5.5v13c0 .778.06 1.386.229 1.893.168.506.475.914.888 1.162C5.944 22.05 7 22 8.5 22H12v-3.006a4.996 4.996 0 0 1-1.914-9.613 4.998 4.998 0 0 1 2.111-.377 5 5 0 0 1 3.473 1.619l.684.73-.647.647H20V5.5c0-.778-.06-1.386-.229-1.893-.168-.506-.475-.914-.888-1.162C18.056 1.95 17 2 15.5 2h-7c-.375 0-.722-.003-1.045 0zm4.522 8.004c-.508.002-1.02.1-1.508.3A3.999 3.999 0 0 0 12 17.996v-1.995a2 2 0 0 1-2-2 2 2 0 0 1 2-2h2.293l.672-.672a4 4 0 0 0-2.988-1.324zM12 13a1 1 0 0 0-1 1 1 1 0 0 0 1 1v-2z"/><path style="fill:gray;stroke-width:2;stroke-linejoin:round" d="M17.5 13a4.5 4.5 0 1 0 0 9 4.5 4.5 0 0 0 0-9zm-1.646 2.146 1.646 1.647 1.646-1.647.708.708-1.647 1.646 1.647 1.646-.708.708-1.646-1.647-1.646 1.647-.708-.708 1.647-1.646-1.647-1.646z"/></svg>