<svg height="24" width="24" xmlns="http://www.w3.org/2000/svg"><path style="fill:gray;stroke-width:.5;stroke-linecap:round;fill-opacity:1" d="M7.455 2c-.968.009-1.718.073-2.338.445a1.848 1.848 0 0 0-.312.239l.707.707c.037-.03.077-.06.12-.086C6.057 3.05 7 3 8.5 3h7c1.5 0 2.444.05 2.867.305.212.127.343.281.455.619.113.337.178.854.178 1.576v11.379l1 1V5.5c0-.778-.06-1.386-.229-1.893-.168-.506-.475-.914-.888-1.162C18.056 1.95 17 2 15.5 2h-7c-.375 0-.722-.003-1.045 0zm-4.601.146-.708.708 1 1 .883.882A10.54 10.54 0 0 0 4 5.5v13c0 .778.06 1.386.229 1.893.168.506.475.914.888 1.162C5.944 22.05 7 22 8.5 22h7c1.5 0 2.556.05 3.383-.445.396-.238.692-.623.865-1.1l.398.399 1 1 .708-.708-1-1-.883-.882-.971-.971-2.383-2.383-.781-.781-2.078-2.078-.809-.809-2.076-2.076-.785-.785h-.002L5.078 4.37l-.826-.826-.398-.399-1-1zM5 5.707l4.172 4.172a5 5 0 0 0 3.48 9.078 4.986 4.986 0 0 0 3.467-2.13l2.803 2.802c-.028.17-.059.325-.1.447-.112.338-.243.492-.455.62C17.944 20.948 17 21 15.5 21h-7c-1.5 0-2.444-.05-2.867-.305-.212-.127-.343-.281-.455-.619C5.065 19.74 5 19.222 5 18.5V5.707zM11.926 9c-.247.004-.492.03-.735.07l.94.94a3.995 3.995 0 0 1 2.834 1.318l-.758.758.707.707 1.44-1.44-.684-.73A5 5 0 0 0 11.926 9zm-2.031 1.602 1.494 1.494A2 2 0 0 0 10 14a2 2 0 0 0 2 2 2 2 0 0 0 1.904-1.389l1.494 1.494a4 4 0 0 1-7.262-1.07 3.999 3.999 0 0 1 1.759-4.433zM12 13a1 1 0 0 1 .363.07l.567.567A1 1 0 0 1 13 14a1 1 0 0 1-1 1 1 1 0 0 1-1-1 1 1 0 0 1 1-1zm4.121 1 .81.81c.044-.264.069-.534.069-.81h-.879z"/></svg>