<svg height="24" width="24" xmlns="http://www.w3.org/2000/svg"><path style="color:#000;fill:gray;fill-opacity:1;-inkscape-stroke:none" d="M8.455 4c-.969.009-1.718.073-2.338.445-.413.248-.72.656-.888 1.162C5.059 6.114 5 6.722 5 7.5v11c0 .778.06 1.386.229 1.893.168.506.475.914.888 1.162C6.944 22.05 8 22 9.5 22h7c1.5 0 2.556.05 3.383-.445.413-.248.72-.656.888-1.162.17-.507.229-1.115.229-1.893v-11c0-.778-.06-1.386-.229-1.893-.168-.506-.475-.914-.888-1.162C19.056 3.95 18 4 16.5 4h-7c-.375 0-.722-.003-1.045 0zm4.47 5a5 5 0 0 1 3.744 1.623l.685.73-1.5 1.5-.708-.707.819-.818a4 4 0 0 0-4.496-1.023A4 4 0 1 0 17 14h1a5 5 0 1 1-5.074-5zM13 12a2 2 0 0 1 2 2 2 2 0 0 1-2 2 2 2 0 0 1-2-2 2 2 0 0 1 2-2zm0 1a1 1 0 0 0-1 1 1 1 0 0 0 1 1 1 1 0 0 0 1-1 1 1 0 0 0-1-1z"/><path style="color:#000;fill:gray;fill-opacity:1;-inkscape-stroke:none" d="M7.5 2c-1.5 0-2.556-.05-3.383.445-.413.248-.72.656-.888 1.162C3.059 4.114 3 4.722 3 5.5V17h1V5.5c0-.722.065-1.239.178-1.576.112-.338.243-.492.455-.62C5.056 3.052 6 3 7.5 3H16V2z"/></svg>