<svg height="24" width="24" xmlns="http://www.w3.org/2000/svg"><path style="fill:gray;fill-opacity:1;stroke-width:.5;stroke-linecap:round" d="M13 12a2 2 0 0 0-2 2 2 2 0 0 0 2 2 2 2 0 0 0 2-2 2 2 0 0 0-2-2zm0 1a1 1 0 0 1 1 1 1 1 0 0 1-1 1 1 1 0 0 1-1-1 1 1 0 0 1 1-1z"/><path style="color:#000;fill:gray;fill-opacity:1;-inkscape-stroke:none" d="M9.5 4c-1.5 0-2.556-.05-3.383.445-.413.248-.72.656-.888 1.162C5.059 6.114 5 6.722 5 7.5v11c0 .778.06 1.386.229 1.893.168.506.475.914.888 1.162C6.944 22.05 8 22 9.5 22h7c1.5 0 2.556.05 3.383-.445.413-.248.72-.656.888-1.162.17-.507.229-1.115.229-1.893v-11c0-.778-.06-1.386-.229-1.893-.168-.506-.475-.914-.888-1.162C19.056 3.95 18 4 16.5 4zm0 1h7c1.5 0 2.444.05 2.867.305.212.127.343.281.455.619.113.337.178.854.178 1.576v11c0 .722-.065 1.239-.178 1.576-.112.338-.243.492-.455.62C18.944 20.948 18 21 16.5 21h-7c-1.5 0-2.444-.05-2.867-.305-.212-.127-.343-.281-.455-.619C6.065 19.74 6 19.222 6 18.5v-11c0-.722.065-1.239.178-1.576.112-.338.243-.492.455-.62C7.056 5.052 8 5 9.5 5z"/><path style="fill:gray;fill-opacity:1;stroke-width:.5;stroke-linecap:round" d="M12.926 9A5 5 0 1 0 18 14h-1a4 4 0 1 1-5.531-3.695 4 4 0 0 1 4.496 1.023l-.819.818.708.708 1.5-1.5-.684-.731A5 5 0 0 0 12.926 9z"/><path style="color:#000;fill:gray;fill-opacity:1;-inkscape-stroke:none" d="M7.5 2c-1.5 0-2.556-.05-3.383.445-.413.248-.72.656-.888 1.162C3.059 4.114 3 4.722 3 5.5V17h1V5.5c0-.722.065-1.239.178-1.576.112-.338.243-.492.455-.62C5.056 3.052 6 3 7.5 3H16V2z"/></svg>