<svg height="24" width="24" xmlns="http://www.w3.org/2000/svg"><path style="color:#000;fill:gray;fill-opacity:1;-inkscape-stroke:none" d="M5.455 2c-.969.009-1.718.073-2.338.445-.413.248-.72.656-.888 1.162C2.059 4.114 2 4.722 2 5.5v9c0 .778.06 1.386.229 1.893.168.506.475.914.888 1.162.268.16.56.262.883.328v-1.047a1.42 1.42 0 0 1-.367-.14c-.212-.128-.343-.282-.455-.62C3.065 15.74 3 15.222 3 14.5V14h18v.5c0 .722-.065 1.239-.178 1.576-.112.338-.243.492-.455.62a1.42 1.42 0 0 1-.367.14v1.047a2.77 2.77 0 0 0 .883-.328c.413-.248.72-.656.888-1.162.17-.507.229-1.115.229-1.893v-9c0-.778-.06-1.386-.229-1.893-.168-.506-.475-.914-.888-1.162C20.056 1.95 19 2 17.5 2h-11c-.375 0-.722-.003-1.045 0zM6.5 3h11c1.5 0 2.444.05 2.867.305.212.127.343.281.455.619.113.337.178.854.178 1.576V13H3V5.5c0-.722.065-1.239.178-1.576.112-.338.243-.492.455-.62C4.056 3.052 5 3 6.5 3z"/><path style="fill:gray;stroke-width:.5;stroke-linecap:round;fill-opacity:1" d="M10 15a2 2 0 0 0 2 2 2 2 0 0 0 2-2h-1a1 1 0 0 1-1 1 1 1 0 0 1-1-1h-1z"/><path style="fill:gray;stroke-width:.5;stroke-linecap:round;fill-opacity:1" d="M5 15a7 7 0 0 0 7 7 7 7 0 0 0 7-7h-1a6 6 0 0 1-6 6 6 6 0 0 1-6-6H5z"/></svg>