<svg height="24" width="24" xmlns="http://www.w3.org/2000/svg"><path style="color:#000;fill:gray;fill-opacity:1;-inkscape-stroke:none" d="M7.455 2c-.969.009-1.718.073-2.338.445-.413.248-.72.656-.888 1.162C4.059 4.114 4 4.722 4 5.5v13c0 .778.06 1.386.229 1.893.168.506.475.914.888 1.162C5.944 22.05 7 22 8.5 22h7c1.5 0 2.556.05 3.383-.445.413-.248.72-.656.888-1.162.17-.507.229-1.115.229-1.893v-13c0-.778-.06-1.386-.229-1.893-.168-.506-.475-.914-.888-1.162C18.056 1.95 17 2 15.5 2h-7c-.375 0-.722-.003-1.045 0zM9 6h1v1h1V6h1v1h1V6h1v1h1c.554 0 1 .446 1 1h1v1h-1v1h1v1h-1v1h1v1h-1v1h1v1h-1v1h1v1h-1c0 .554-.446 1-1 1v1h-1v-1h-1v1h-1v-1h-1v1h-1v-1H9c-.554 0-1-.446-1-1H7v-1h1v-1H7v-1h1v-1H7v-1h1v-1H7v-1h1V9H7V8h1c0-.554.446-1 1-1V6zm.5 2c-.277 0-.5.223-.5.5v8c0 .277.223.5.5.5h5c.277 0 .5-.223.5-.5v-8c0-.277-.223-.5-.5-.5h-5z"/></svg>