<svg height="24" width="24" xmlns="http://www.w3.org/2000/svg"><path style="color:#000;fill:gray;fill-opacity:1;-inkscape-stroke:none" d="M8.5 2c-1.5 0-2.556-.05-3.383.445-.413.248-.72.656-.888 1.162C4.059 4.114 4 4.722 4 5.5v13c0 .778.06 1.386.229 1.893.168.506.475.914.888 1.162C5.944 22.05 7 22 8.5 22h7c1.5 0 2.556.05 3.383-.445.413-.248.72-.656.888-1.162.17-.507.229-1.115.229-1.893v-13c0-.778-.06-1.386-.229-1.893-.168-.506-.475-.914-.888-1.162C18.056 1.95 17 2 15.5 2zm0 1h7c1.5 0 2.444.05 2.867.305.212.127.343.281.455.619.113.337.178.854.178 1.576v13c0 .722-.065 1.239-.178 1.576-.112.338-.243.492-.455.62C17.944 20.948 17 21 15.5 21h-7c-1.5 0-2.444-.05-2.867-.305-.212-.127-.343-.281-.455-.619C5.065 19.74 5 19.222 5 18.5v-13c0-.722.065-1.239.178-1.576.112-.338.243-.492.455-.62C6.056 3.052 7 3 8.5 3z"/><path style="fill:gray;stroke-width:.5;stroke-linecap:round;fill-opacity:1" d="M9 6v1c-.554 0-1 .446-1 1H7v1h1v1H7v1h1v1H7v1h1v1H7v1h1v1H7v1h1c0 .554.446 1 1 1h1v1h1v-1h1v1h1v-1h1v1h1v-1c.554 0 1-.446 1-1h1v-1h-1v-1h1v-1h-1v-1h1v-1h-1v-1h1v-1h-1V9h1V8h-1c0-.554-.446-1-1-1h-1V6h-1v1h-1V6h-1v1h-1V6H9zm.5 2h5c.277 0 .5.223.5.5v8c0 .277-.223.5-.5.5h-5a.499.499 0 0 1-.5-.5v-8c0-.277.223-.5.5-.5z"/></svg>