<svg width="24" height="24" xmlns="http://www.w3.org/2000/svg"><path style="color:#000;fill:gray;fill-opacity:1;stroke-linecap:square;-inkscape-stroke:none" d="M18 3v1h-7.5c-1 0-1.706.037-2.027.197a.615.615 0 0 0-.328.35C8.06 4.734 8 5.042 8 5.5v13c0 .458.061.766.145.953.083.187.167.27.328.35.32.16 1.027.197 2.027.197H18v1h-7.5c-1 0-1.794.037-2.473-.303a1.72 1.72 0 0 1-.797-.838C7.064 19.484 7 19.042 7 18.5v-13c0-.542.064-.984.23-1.36a1.72 1.72 0 0 1 .797-.837C8.707 2.963 9.5 3 10.5 3h7zm-5.5 4.793.354.353L16.707 12l-3.853 3.854-.354.353-.707-.707.353-.354L15.293 12l-3.147-3.146-.353-.354z"/></svg>