<?xml version="1.0" encoding="UTF-8" standalone="no"?>
<svg viewBox="0 0 24 24" width="24" height="24" version="1.1" id="svg8" sodipodi:docname="hide-right.svg" inkscape:version="1.1 (ce6663b3b7, 2021-05-25)"
   xmlns:inkscape="http://www.inkscape.org/namespaces/inkscape"
   xmlns:sodipodi="http://sodipodi.sourceforge.net/DTD/sodipodi-0.dtd"
   xmlns="http://www.w3.org/2000/svg"
   xmlns:svg="http://www.w3.org/2000/svg"
   xmlns:rdf="http://www.w3.org/1999/02/22-rdf-syntax-ns#"
   xmlns:cc="http://creativecommons.org/ns#"
   xmlns:dc="http://purl.org/dc/elements/1.1/">
   <metadata id="metadata14">
      <rdf:RDF>
         <cc:Work rdf:about="">
            <dc:format>image/svg+xml</dc:format>
            <dc:type rdf:resource="http://purl.org/dc/dcmitype/StillImage" />
         </cc:Work>
      </rdf:RDF>
   </metadata>
   <defs id="defs12" />
   <sodipodi:namedview pagecolor="#ffffff" bordercolor="#666666" borderopacity="1" objecttolerance="10" gridtolerance="10" guidetolerance="10" inkscape:pageopacity="0" inkscape:pageshadow="2" inkscape:window-width="1920" inkscape:window-height="1016" id="namedview10" showgrid="true" inkscape:zoom="27.5" inkscape:cx="26.963636" inkscape:cy="8.6727273" inkscape:window-x="0" inkscape:window-y="27" inkscape:window-maximized="1" inkscape:current-layer="svg8" inkscape:pagecheckerboard="0">
      <inkscape:grid type="xygrid" id="grid1414" />
      <inkscape:grid type="xygrid" id="grid1428" dotted="true" spacingx="0.5" spacingy="0.5" empspacing="10" />
   </sodipodi:namedview>
   <path id="path1472" style="color:#000000;fill:#808080;fill-opacity:1;stroke-linecap:square;-inkscape-stroke:none" d="m 18,3 v 1 h -0.5 -7 c -0.999999,0 -1.70623,0.036708 -2.027344,0.1972656 -0.160557,0.080279 -0.244995,0.162567 -0.328125,0.3496094 -0.08313,0.1870424 -0.144531,0.4947921 -0.144531,0.953125 v 13 c 0,0.458333 0.0614,0.766083 0.144531,0.953125 0.08313,0.187042 0.167568,0.269331 0.328125,0.349609 0.321114,0.160557 1.027345,0.197266 2.027344,0.197266 h 7 0.5 v 1 h -0.5 -7 c -0.999999,0 -1.793771,0.03671 -2.472656,-0.302734 -0.339443,-0.169722 -0.630005,-0.462434 -0.796875,-0.837891 -0.16687,-0.375457 -0.230469,-0.817709 -0.230469,-1.359375 v -13 c 0,-0.5416661 0.0636,-0.983918 0.230469,-1.359375 0.16687,-0.375457 0.457432,-0.6681694 0.796875,-0.8378906 0.678885,-0.3394424 1.472657,-0.3027344 2.472656,-0.3027344 h 7 z m -5.5,4.7929688 0.353516,0.3535156 3.853515,3.8535156 -3.853515,3.853516 -0.353516,0.353515 -0.707031,-0.707031 0.353515,-0.353516 3.146485,-3.146484 -3.146485,-3.1464844 -0.353515,-0.3535156 z" />
</svg>
