<svg width="24" height="24" xmlns="http://www.w3.org/2000/svg"><path style="color:#000;fill:gray;stroke-linecap:square;-inkscape-stroke:none;fill-opacity:1" d="M6 3v1h7.5c1 0 1.706.037 2.027.197.16.08.245.163.328.35.084.187.145.495.145.953v13c0 .458-.061.766-.145.953a.615.615 0 0 1-.328.35c-.32.16-1.027.197-2.027.197H6v1h7.5c1 0 1.794.037 2.473-.303.34-.17.63-.462.797-.838.166-.375.23-.817.23-1.359v-13c0-.542-.064-.984-.23-1.36a1.72 1.72 0 0 0-.797-.837C15.293 2.963 14.5 3 13.5 3H6zm5.5 4.793-.354.353L7.293 12l3.853 3.854.354.353.707-.707-.353-.354L8.707 12l3.147-3.146.353-.354-.707-.707z"/></svg>