<svg width="24" height="24" xmlns="http://www.w3.org/2000/svg"><path style="color:#000;fill:gray;fill-opacity:1" d="M18.545 3c.969.009 1.718.073 2.338.445.413.248.72.656.888 1.162.131.392.196.848.22 1.393H2.01c.023-.545.088-1 .219-1.393.168-.506.475-.914.888-1.162C3.944 2.95 5 3 6.5 3h11c.375 0 .722-.003 1.045 0zM22 7v10.5c0 .778-.06 1.386-.229 1.893-.168.506-.475.914-.888 1.162C20.056 21.05 19 21 17.5 21H16V7zm-7 0v14H6.5c-1.5 0-2.556.05-3.383-.445-.413-.248-.72-.656-.888-1.162C2.059 18.886 2 18.278 2 17.5V7z" color="#000" fill="gray"/></svg>