<svg width="24" height="24" xmlns="http://www.w3.org/2000/svg"><path style="color:#000;fill:gray;fill-opacity:1;-inkscape-stroke:none" d="M18.545 3c.969.009 1.718.073 2.338.445.413.248.72.656.888 1.162.17.507.229 1.115.229 1.893v11c0 .778-.06 1.386-.229 1.893-.168.506-.475.914-.888 1.162C20.056 21.05 19 21 17.5 21h-11c-1.5 0-2.556.05-3.383-.445-.413-.248-.72-.656-.888-1.162C2.059 18.886 2 18.278 2 17.5v-11c0-.778.06-1.386.229-1.893.168-.506.475-.914.888-1.162C3.944 2.95 5 3 6.5 3h11c.375 0 .722-.003 1.045 0zM21 7h-5v13h1.5c1.5 0 2.444-.05 2.867-.305.212-.127.343-.281.455-.619.113-.337.178-.854.178-1.576zm-6 0H3v10.5c0 .722.065 1.239.178 1.576.112.338.243.492.455.62C4.056 19.948 5 20 6.5 20H15z" color="#000" fill="gray"/></svg>