<svg height="24" width="24" xmlns="http://www.w3.org/2000/svg"><path style="color:#000;fill:gray;-inkscape-stroke:none" d="M11.992 3.293 7.285 8H4.213l-.147.238a7.22 7.22 0 0 0-.002 7.524l.147.238h3.074l4.707 4.707z"/><path style="color:#000;fill:gray;stroke-linecap:square;-inkscape-stroke:none" d="m14.492 8.146-.353.354.175.178c1.912 1.911 1.912 4.733 0 6.644l-.175.178.353.354.176-.176c2.088-2.089 2.088-5.267 0-7.356z"/><path style="color:#000;fill:gray;-inkscape-stroke:none" d="m17.668 5.322-.354.356C19.278 7.64 20.242 9.824 20.242 12s-.964 4.36-2.928 6.322l.354.356c2.037-2.037 3.074-4.354 3.074-6.678s-1.037-4.64-3.074-6.678z"/></svg>