<?xml version="1.0" encoding="UTF-8" standalone="no"?>
<svg
   viewBox="0 1 24 24"
   height="24"
   width="24"
   version="1.1"
   id="svg4"
   sodipodi:docname="card-filled.svg"
   inkscape:version="1.2 (1:1.2.1+202207142221+cd75a1ee6d)"
   xmlns:inkscape="http://www.inkscape.org/namespaces/inkscape"
   xmlns:sodipodi="http://sodipodi.sourceforge.net/DTD/sodipodi-0.dtd"
   xmlns="http://www.w3.org/2000/svg"
   xmlns:svg="http://www.w3.org/2000/svg">
  <defs
     id="defs8" />
  <sodipodi:namedview
     id="namedview6"
     pagecolor="#ffffff"
     bordercolor="#666666"
     borderopacity="1.0"
     inkscape:pageshadow="2"
     inkscape:pageopacity="0.0"
     inkscape:pagecheckerboard="0"
     showgrid="true"
     inkscape:snap-page="true"
     inkscape:zoom="32"
     inkscape:cx="13.125"
     inkscape:cy="8.546875"
     inkscape:window-width="1920"
     inkscape:window-height="1016"
     inkscape:window-x="0"
     inkscape:window-y="0"
     inkscape:window-maximized="1"
     inkscape:current-layer="svg4"
     inkscape:showpageshadow="2"
     inkscape:deskcolor="#d1d1d1">
    <inkscape:grid
       type="xygrid"
       id="grid6" />
    <inkscape:grid
       type="xygrid"
       id="grid823"
       dotted="true"
       spacingx="0.5"
       spacingy="0.5"
       empspacing="10" />
  </sodipodi:namedview>
  <path
     id="path605-3"
     style="color:#000000;fill:#808080;-inkscape-stroke:none"
     d="M 6.5 3 C 4.7261959 3 3.579806 3.0881624 2.8339844 3.8339844 C 2.0881625 4.579806 2 5.7261959 2 7.5 L 2 14.5 C 2 15.389664 2.0368763 16.097085 2.1601562 16.689453 C 2.2834358 17.281823 2.5075149 17.776879 2.8867188 18.138672 C 3.645126 18.862256 4.775323 18.951495 6.4863281 19 L 6.4921875 19 L 17.5 19 C 19.273804 19 20.420192 18.911838 21.166016 18.166016 C 21.911837 17.420192 22 16.273804 22 14.5 L 22 7.5 C 22 5.7261959 21.911838 4.579806 21.166016 3.8339844 C 20.420192 3.0881625 19.273804 3 17.5 3 L 6.5 3 z M 18.5 5.75 C 18.911252 5.75 19.25 6.0887492 19.25 6.5 C 19.25 6.9112508 18.911252 7.25 18.5 7.25 C 18.176456 7.25 17.897115 7.0396863 17.792969 6.75 L 14.75 6.75 L 14.75 16.5 L 14.75 17.5 L 14.25 17.5 L 14.25 16.5 L 14.25 6.25 L 17.792969 6.25 C 17.897115 5.9603137 18.176456 5.75 18.5 5.75 z M 11.658203 6.5898438 L 11.806641 6.5898438 C 11.893956 6.5898437 11.964844 6.6936589 11.964844 6.8222656 L 11.964844 13.785156 C 11.964844 13.801226 11.963035 13.816881 11.960938 13.832031 C 11.935685 14.453188 11.424403 14.945866 10.802734 14.947266 C 10.161692 14.947266 9.6425781 14.426202 9.6425781 13.785156 C 9.6425781 13.144113 10.161692 12.625 10.802734 12.625 C 11.053982 12.625262 11.299198 12.706412 11.5 12.857422 L 11.5 8.4980469 L 7.3222656 9.3339844 L 7.3222656 14.25 C 7.3222656 14.26607 7.3204794 14.281735 7.3183594 14.296875 C 7.2931062 14.918029 6.7818232 15.408756 6.1601562 15.410156 C 5.5191124 15.410156 5 14.891043 5 14.25 C 5 13.608957 5.5191124 13.089844 6.1601562 13.089844 C 6.4114035 13.090105 6.6566205 13.171257 6.8574219 13.322266 L 6.8574219 7.75 C 6.8574219 7.6213931 6.9283143 7.5175781 7.015625 7.5175781 L 11.658203 6.5898438 z M 18.5 8.75 C 18.911252 8.75 19.25 9.0887492 19.25 9.5 C 19.25 9.9112508 18.911252 10.25 18.5 10.25 C 18.176456 10.25 17.897115 10.039687 17.792969 9.75 L 16.75 9.75 L 16.75 16.5 L 16.75 17.5 L 16.25 17.5 L 16.25 16.5 L 16.25 9.25 L 17.792969 9.25 C 17.897115 8.9603137 18.176456 8.75 18.5 8.75 z M 18.5 11.75 C 18.911252 11.75 19.25 12.088748 19.25 12.5 C 19.25 12.823544 19.039687 13.102885 18.75 13.207031 L 18.75 16.5 L 18.75 17.5 L 18.5 17.5 L 18.25 17.5 L 18.25 16.5 L 18.25 13.207031 C 17.960313 13.102885 17.75 12.823544 17.75 12.5 C 17.75 12.088748 18.088748 11.75 18.5 11.75 z " />
  <path
     id="rect389"
     style="fill:#808080;fill-rule:evenodd;stroke-width:2;stroke-linejoin:round"
     d="m 13.455078,18.5 c -0.252447,0 -0.455078,0.202631 -0.455078,0.455078 v 1.589844 c 0,0.252447 0.202631,0.455078 0.455078,0.455078 h 6.089844 c 0.252447,0 0.455078,-0.202631 0.455078,-0.455078 v -1.589844 c 0,-0.252447 -0.202631,-0.455078 -0.455078,-0.455078 z m 0.544922,0.5 h 1 v 1 h -1 z m 2,0 h 1 v 1 h -1 z m 2,0 h 1 v 1 h -1 z" />
</svg>
