<?xml version="1.0" encoding="UTF-8" standalone="no"?>
<svg viewBox="0 1 24 24" height="24" id="svg7384" version="1.1" width="24" sodipodi:docname="_.svg" inkscape:version="1.1 (ce6663b3b7, 2021-05-25)"
   xmlns:inkscape="http://www.inkscape.org/namespaces/inkscape"
   xmlns:sodipodi="http://sodipodi.sourceforge.net/DTD/sodipodi-0.dtd"
   xmlns="http://www.w3.org/2000/svg"
   xmlns:svg="http://www.w3.org/2000/svg"
   xmlns:rdf="http://www.w3.org/1999/02/22-rdf-syntax-ns#"
   xmlns:cc="http://creativecommons.org/ns#"
   xmlns:dc="http://purl.org/dc/elements/1.1/">
   <sodipodi:namedview id="namedview21" pagecolor="#ffffff" bordercolor="#666666" borderopacity="1.0" inkscape:pageshadow="2" inkscape:pageopacity="0.0" inkscape:pagecheckerboard="0" showgrid="true" width="24px" inkscape:zoom="9.8994925" inkscape:cx="-16.111937" inkscape:cy="4.0911188" inkscape:window-width="1920" inkscape:window-height="1016" inkscape:window-x="0" inkscape:window-y="27" inkscape:window-maximized="1" inkscape:current-layer="svg7384">
      <inkscape:grid type="xygrid" id="grid837" dotted="false" />
      <inkscape:grid type="xygrid" id="grid839" dotted="true" spacingx="0.5" spacingy="0.5" empspacing="10" />
   </sodipodi:namedview>
   <metadata id="metadata20854">
      <rdf:RDF>
         <cc:Work rdf:about="">
            <dc:format>image/svg+xml</dc:format>
            <dc:type rdf:resource="http://purl.org/dc/dcmitype/StillImage" />
         </cc:Work>
      </rdf:RDF>
   </metadata>
   <defs id="defs7386">
      <linearGradient id="linearGradient5606" inkscape:swatch="solid">
         <stop id="stop5608" offset="0" style="stop-color:#000000;stop-opacity:1;" />
      </linearGradient>
      <linearGradient id="linearGradient4526" inkscape:swatch="solid">
         <stop id="stop4528" offset="0" style="stop-color:#ffffff;stop-opacity:1;" />
      </linearGradient>
      <linearGradient id="linearGradient3600-4" inkscape:swatch="gradient">
         <stop id="stop3602-7" offset="0" style="stop-color:#f4f4f4;stop-opacity:1" />
         <stop id="stop3604-6" offset="1" style="stop-color:#dbdbdb;stop-opacity:1" />
      </linearGradient>
   </defs>
   <g id="layer9" label="status" style="display:inline" transform="translate(-613.0002,327)" />
   <g id="layer4" style="display:inline" transform="translate(-372,-39.999996)" />
   <g id="g1812" style="display:inline" transform="translate(-372,-39.999996)" />
   <g id="g6217" style="display:inline" transform="translate(-372,-39.999996)" />
   <g id="layer3" style="display:inline" transform="translate(-372,-39.999996)" />
   <g id="g1833" style="display:inline" transform="translate(-372,-39.999996)" />
   <g id="layer1" style="display:inline" transform="translate(-372,-39.999996)" />
   <path style="color:#000000;fill:#808080;-inkscape-stroke:none;fill-opacity:1" d="m 7.5,2 c -1.4999985,0 -2.5560503,-0.050745 -3.3828125,0.4453125 -0.4133811,0.2480287 -0.7199379,0.6559075 -0.8886719,1.1621094 -0.1687339,0.5062019 -0.2285156,1.1148011 -0.2285156,1.8925781 v 13 c 0,0.777777 0.058558,1.391309 0.25,1.908203 0.1914421,0.516894 0.5529634,0.926872 1.0273437,1.164063 0.9487607,0.47438 2.2226583,0.427734 4.2226563,0.427734 h 7 c 1.499998,0 2.55605,0.05074 3.382812,-0.445313 0.413382,-0.248028 0.719938,-0.655907 0.888672,-1.162109 0.168734,-0.506202 0.228516,-1.114801 0.228516,-1.892578 v -11.2070313 l -5.292969,-5.2929687 z m 0,1 h 6.5 v 5 h 5 v 10.5 c 0,0.722221 -0.06522,1.238625 -0.177734,1.576172 -0.112516,0.337547 -0.24346,0.49217 -0.455079,0.61914 -0.423236,0.253942 -1.367188,0.304688 -2.867187,0.304688 h -7 c -1.999998,0 -3.2261059,-0.04665 -3.7773438,-0.322266 -0.2756189,-0.137809 -0.4140986,-0.290332 -0.5351562,-0.617187 -0.1210576,-0.326856 -0.1875,-0.838326 -0.1875,-1.560547 v -13 c 0,-0.7222215 0.065219,-1.2386246 0.1777344,-1.5761719 0.1125157,-0.3375472 0.2434598,-0.4921696 0.4550781,-0.6191406 0.4232365,-0.2539419 1.367189,-0.3046875 2.8671875,-0.3046875 z" id="path874" sodipodi:nodetypes="ssssssssssssccsscccssssssssssss" />
   <rect style="fill:#808080;fill-rule:evenodd;stroke-width:0.5;stroke-linecap:square;fill-opacity:1" id="rect1419" width="5" height="1" x="7" y="17" />
   <rect style="fill:#808080;fill-rule:evenodd;stroke-width:0.5;stroke-linecap:square;fill-opacity:1" id="rect1443" width="9" height="1" x="7" y="15" />
   <rect style="fill:#808080;fill-rule:evenodd;stroke-width:0.5;stroke-linecap:square;fill-opacity:1" id="rect1445" width="9" height="1" x="7" y="13" />
   <rect style="fill:#808080;fill-rule:evenodd;stroke-width:0.5;stroke-linecap:square;fill-opacity:1" id="rect1447" width="9" height="1" x="7" y="11" />
</svg>
