<svg height="24" width="24" xmlns="http://www.w3.org/2000/svg"><path style="opacity:1;fill:gray;stroke:none;stroke-width:2;stroke-linecap:round;stroke-linejoin:round;stroke-dasharray:2,4" d="M16.5 11a5.5 5.5 0 0 0-5.5 5.5 5.5 5.5 0 0 0 5.5 5.5 5.5 5.5 0 0 0 5.5-5.5 5.5 5.5 0 0 0-5.5-5.5zm-.5 2h1v3.793l1.354 1.353.353.354-.707.707-.354-.353L16 17.207V13z"/><path style="color:#000;fill:gray;fill-opacity:1" d="M6.455 2c-.968.009-1.718.073-2.338.445-.413.248-.72.656-.888 1.162C3.059 4.114 3 4.722 3 5.5v10c0 .778.059 1.391.25 1.908.191.517.553.927 1.027 1.164.95.475 2.224.377 4.223.428h2.014A6.5 6.5 0 0 1 10 16.5a6.5 6.5 0 0 1 .035-.5H6v-1h4.191a6.5 6.5 0 0 1 .323-1H6v-1h5.023a6.5 6.5 0 0 1 .809-1H6v-1h7.043a6.5 6.5 0 0 1 3.457-1 6.5 6.5 0 0 1 1.5.178V8h-6V2H7.5c-.375 0-.722-.003-1.045 0zM13 2.293V7h4.707L13 2.293zM6 9h8.5v1H6V9z"/></svg>