<svg height="24" width="24" xmlns="http://www.w3.org/2000/svg"><path style="color:#000;fill:gray;fill-opacity:1" d="M6.455 2.002c-.969.009-1.718.073-2.338.445-.413.248-.72.656-.888 1.162C3.059 4.116 3 4.724 3 5.502v13c0 .778.059 1.391.25 1.908.191.517.553.927 1.027 1.164.95.475 2.223.428 4.223.428H14v-6H7v-1h7v-1H7v-1h9V14h4V8.002h-6v-6H7.5c-.375 0-.722-.003-1.045 0zM15 2.295v4.707h4.707L15 2.295zm-8 8.707h9v1H7v-1zm0 6h5v1H7v-1z"/><path style="fill:gray;fill-opacity:1;stroke-linecap:round" d="M18 15v3h-3v1h3v3h1v-3h3v-1h-3v-3z"/></svg>