<svg height="24" width="24" xmlns="http://www.w3.org/2000/svg"><path style="color:#000;fill:gray;fill-opacity:1" d="M6.455 2c-.969.009-1.718.073-2.338.445-.413.248-.72.656-.888 1.162C3.059 4.114 3 4.722 3 5.5v13c0 .778.059 1.391.25 1.908.191.517.553.927 1.027 1.164.95.475 2.223.428 4.223.428H14v-1H8.5c-2 0-3.226-.047-3.777-.322-.276-.138-.414-.29-.535-.617C4.066 19.734 4 19.222 4 18.5v-13c0-.722.065-1.239.178-1.576.112-.338.243-.492.455-.62C5.056 3.052 6 3 7.5 3H14v5h5v6h1V7.293L14.707 2H7.5c-.375 0-.722-.003-1.045 0z"/><path style="fill:gray;fill-opacity:1;stroke-linecap:round" d="M18 15v3h-3v1h3v3h1v-3h3v-1h-3v-3z"/><path style="fill:gray;stroke-width:.5;stroke-linecap:square;fill-opacity:1" d="M7 17h5v1H7zm0-2v1h7v-1H7zm0-2h9v1H7zm0-2h9v1H7z"/></svg>