<svg height="24" width="24" xmlns="http://www.w3.org/2000/svg"><path style="fill:gray;stroke-width:.5;stroke-linecap:square;fill-opacity:1" d="M7 9v13h12V9H7zm3 3h6v1h-6v-1zm0 2h6v1h-6v-1zm0 2h3v1h-3v-1z"/><path style="color:#000;fill:gray;fill-opacity:1;stroke-linecap:round" d="M5.455 3c-.969.009-1.718.073-2.338.445-.413.248-.72.656-.888 1.162C2.059 5.114 2 5.722 2 6.5v11c0 .778.059 1.391.25 1.908.191.517.553.927 1.027 1.164.686.343 1.546.413 2.723.426V8h14v12.88c.322-.065.616-.165.883-.325.413-.248.72-.656.888-1.162.17-.507.229-1.115.229-1.893v-8c0-.778-.06-1.386-.229-1.893-.168-.506-.475-.914-.888-1.162C20.056 5.95 19 6 17.5 6h-3.793l-2.853-2.854a.5.5 0 0 0-.124-.087A.5.5 0 0 0 10.5 3h-4c-.375 0-.722-.003-1.045 0z"/></svg>