<svg height="24" width="24" xmlns="http://www.w3.org/2000/svg"><path style="color:#000;fill:gray;stroke-linecap:round;-inkscape-stroke:none;fill-opacity:1" d="M5.455 3c-.969.009-1.718.073-2.338.445-.413.248-.72.656-.888 1.162C2.059 5.114 2 5.722 2 6.5v11c0 .778.059 1.391.25 1.908.191.517.553.927 1.027 1.164.686.343 1.546.413 2.723.426v-1.014c-1.13-.029-1.881-.108-2.277-.306-.276-.138-.414-.29-.535-.617C3.066 18.734 3 18.222 3 17.5v-11c0-.722.065-1.239.178-1.576.112-.338.243-.492.455-.62C4.056 4.052 5 4 6.5 4h3.793l2.853 2.854a.5.5 0 0 0 .104.08.5.5 0 0 0 .25.066h4c1.5 0 2.444.05 2.867.305.212.127.343.281.455.619.113.337.178.854.178 1.576v8c0 .722-.065 1.239-.178 1.576-.112.338-.243.492-.455.62a1.42 1.42 0 0 1-.367.14v1.045c.322-.066.616-.166.883-.326.413-.248.72-.656.888-1.162.17-.507.229-1.115.229-1.893v-8c0-.778-.06-1.386-.229-1.893-.168-.506-.475-.914-.888-1.162C20.056 5.95 19 6 17.5 6h-3.793l-2.853-2.854a.5.5 0 0 0-.092-.07.5.5 0 0 0-.032-.017.5.5 0 0 0-.09-.038.5.5 0 0 0-.019-.005A.5.5 0 0 0 10.5 3h-4c-.375 0-.722-.003-1.045 0z"/><path style="fill:gray;stroke-width:.5;stroke-linecap:square;fill-opacity:1" d="M7 9v13h12V9zm1 1h10v11H8z"/><path style="fill:gray;stroke-width:.5;stroke-linecap:square;fill-opacity:1" d="M10 12h6v1h-6zm0 2h6v1h-6zm0 2h3v1h-3z"/></svg>