<svg height="24" width="24" xmlns="http://www.w3.org/2000/svg"><path style="color:#000;fill:gray;fill-opacity:1;-inkscape-stroke:none" d="M7.455 2.002c-.969.009-1.718.073-2.338.445-.413.248-.72.656-.888 1.162-.135.404-.198.878-.22 1.446L5 5.66v-.158c0-.722.065-1.239.178-1.576.112-.338.243-.492.455-.62C6.056 3.054 7 3.003 8.5 3.003H15v5h5v6.824l1 .61V7.295l-5.293-5.293H8.5c-.375 0-.722-.003-1.045 0zM3 5.609V18h20.277zm1 1.782L19.725 17H4zm1 1.82V16h11.188zm1 1.777L12.611 15H6zM4.01 19c.023.548.092 1.01.24 1.41.191.517.553.927 1.027 1.164.95.475 2.223.428 4.223.428h7c1.5 0 2.556.05 3.383-.445.413-.248.72-.656.888-1.162.131-.393.196-.849.22-1.395h-1.003c-.023.468-.081.824-.166 1.078-.112.338-.243.492-.455.62-.423.253-1.367.304-2.867.304h-7c-2 0-3.226-.047-3.777-.322-.276-.138-.414-.29-.536-.618-.09-.245-.151-.596-.175-1.062z"/></svg>