<svg height="24" width="24" xmlns="http://www.w3.org/2000/svg"><path style="color:#000;fill:gray;fill-opacity:1" d="M3 5.61V18h20.277L3 5.61zm2 3.6L16.188 16H5V9.21zm1 1.778V15h6.611L6 10.988zm1.455-8.986c-.969.009-1.718.073-2.338.445-.413.248-.72.656-.888 1.162-.135.404-.198.878-.22 1.446L5 5.66l15 9.166 1 .61V8h-6V2.002H8.5c-.375 0-.722-.003-1.045 0zM16 2.295V7h4.705zM4.01 19c.023.548.092 1.01.24 1.41.191.517.553.927 1.027 1.164.95.475 2.223.428 4.223.428h7c1.5 0 2.556.05 3.383-.445.413-.248.72-.656.888-1.162.131-.393.196-.849.22-1.395z"/></svg>