<?xml version="1.0" encoding="UTF-8" standalone="no"?>
<svg viewBox="0 1 24 24" height="24" width="24" version="1.1" id="svg8" sodipodi:docname="harddisk-usb.svg" inkscape:version="1.1 (ce6663b3b7, 2021-05-25)"
   xmlns:inkscape="http://www.inkscape.org/namespaces/inkscape"
   xmlns:sodipodi="http://sodipodi.sourceforge.net/DTD/sodipodi-0.dtd"
   xmlns="http://www.w3.org/2000/svg"
   xmlns:svg="http://www.w3.org/2000/svg">
   <defs id="defs12" />
   <sodipodi:namedview id="namedview10" pagecolor="#ffffff" bordercolor="#666666" borderopacity="1.0" inkscape:pageshadow="2" inkscape:pageopacity="0.0" inkscape:pagecheckerboard="0" showgrid="true" inkscape:zoom="28" inkscape:cx="10.125" inkscape:cy="13.410714" inkscape:window-width="1920" inkscape:window-height="1016" inkscape:window-x="0" inkscape:window-y="27" inkscape:window-maximized="1" inkscape:current-layer="svg8">
      <inkscape:grid type="xygrid" id="grid913" />
   </sodipodi:namedview>
   <path style="color:#000000;fill:#808080;fill-opacity:1;-inkscape-stroke:none" d="m 8.5,1.9999999 c -1.499998,0 -2.55605,-0.050745 -3.382812,0.4453125 -0.413381,0.2480287 -0.719938,0.6559075 -0.888672,1.1621094 -0.168734,0.5062019 -0.228516,1.1148011 -0.228516,1.8925781 v 13.0000001 c 0,0.777777 0.05978,1.386376 0.228516,1.892578 0.168734,0.506202 0.47529,0.914081 0.888672,1.162109 0.826762,0.496058 1.882814,0.445313 3.382812,0.445313 h 7 c 1.499998,0 2.55605,0.05074 3.382812,-0.445313 0.413382,-0.248028 0.719938,-0.655907 0.888672,-1.162109 0.168734,-0.506202 0.228516,-1.114801 0.228516,-1.892578 v -13.0000001 c 0,-0.777777 -0.05978,-1.3863762 -0.228516,-1.8925781 -0.168734,-0.5062019 -0.47529,-0.9140807 -0.888672,-1.1621094 -0.826762,-0.4960573 -1.882814,-0.4453125 -3.382812,-0.4453125 z m 0,1 h 7 c 1.499998,0 2.443951,0.050746 2.867187,0.3046875 0.211619,0.126971 0.342563,0.2815934 0.455079,0.6191406 0.112515,0.3375473 0.177734,0.8539504 0.177734,1.5761719 v 13.0000001 c 0,0.722221 -0.06522,1.238625 -0.177734,1.576172 -0.112516,0.337547 -0.24346,0.49217 -0.455079,0.61914 -0.423236,0.253942 -1.367188,0.304688 -2.867187,0.304688 h -7 c -1.499998,0 -2.443951,-0.05075 -2.867187,-0.304688 -0.211619,-0.12697 -0.342563,-0.281593 -0.455078,-0.61914 -0.112516,-0.337547 -0.177735,-0.853951 -0.177735,-1.576172 v -13.0000001 c 0,-0.7222215 0.06522,-1.2386246 0.177735,-1.5761719 0.112515,-0.3375472 0.243459,-0.4921696 0.455078,-0.6191406 0.423236,-0.2539419 1.367189,-0.3046875 2.867187,-0.3046875 z" id="path860" />
   <path id="rect937" style="color:#000000;fill:#808080;fill-rule:evenodd;stroke-width:0.5;stroke-linecap:round;-inkscape-stroke:none;fill-opacity:1" d="M 11.5 6 L 10.5 8 L 11.5 8 L 11.5 13.919922 C 11.148589 13.685976 10.774267 13.556159 10.447266 13.416016 C 10.028255 13.236439 9.6887217 13.058211 9.4414062 12.740234 C 9.3025529 12.561709 9.1799781 12.327503 9.0996094 11.992188 A 1 1 0 0 0 10 11 A 1 1 0 0 0 9 10 A 1 1 0 0 0 8 11 C 8 12.072916 8.2434098 12.827744 8.6523438 13.353516 C 9.0612775 13.879288 9.5967467 14.138561 10.052734 14.333984 C 10.508722 14.529408 10.888303 14.679634 11.117188 14.886719 C 11.34607 15.093804 11.5 15.347223 11.5 16 C 11.223 16 11 16.223 11 16.5 L 11 17.5 C 11 17.777 11.223 18 11.5 18 L 12.5 18 C 12.777 18 13 17.777 13 17.5 L 13 16.5 C 13 16.223 12.777 16 12.5 16 C 12.5 14.808335 12.708446 14.206286 12.951172 13.871094 C 13.193897 13.535901 13.509766 13.396484 13.947266 13.208984 C 14.384765 13.021485 14.943898 12.7859 15.357422 12.214844 C 15.770946 11.643787 16 10.808332 16 9.5 L 16 8.5 C 16 8.223 15.777 8 15.5 8 L 14.5 8 C 14.223 8 14 8.223 14 8.5 L 14 9.5 C 14 9.777 14.223 10 14.5 10 L 14.984375 10 C 14.934192 10.86595 14.754797 11.344474 14.548828 11.628906 C 14.306103 11.964099 13.990234 12.103516 13.552734 12.291016 C 13.226121 12.430993 12.851278 12.719969 12.5 13.033203 L 12.5 8 L 13.5 8 L 12.5 6 L 11.5 6 z " />
</svg>
