<?xml version="1.0" encoding="UTF-8" standalone="no"?>
<svg
   height="24"
   width="24"
   version="1.1"
   id="svg8"
   sodipodi:docname="harddisk-usb.svg"
   inkscape:version="1.1 (ce6663b3b7, 2021-05-25)"
   xmlns:inkscape="http://www.inkscape.org/namespaces/inkscape"
   xmlns:sodipodi="http://sodipodi.sourceforge.net/DTD/sodipodi-0.dtd"
   xmlns="http://www.w3.org/2000/svg"
   xmlns:svg="http://www.w3.org/2000/svg">
  <defs
     id="defs12" />
  <sodipodi:namedview
     id="namedview10"
     pagecolor="#ffffff"
     bordercolor="#666666"
     borderopacity="1.0"
     inkscape:pageshadow="2"
     inkscape:pageopacity="0.0"
     inkscape:pagecheckerboard="0"
     showgrid="false"
     inkscape:zoom="28"
     inkscape:cx="6.9464286"
     inkscape:cy="10.232143"
     inkscape:window-width="1920"
     inkscape:window-height="1016"
     inkscape:window-x="0"
     inkscape:window-y="27"
     inkscape:window-maximized="1"
     inkscape:current-layer="svg8" />
  <g
     fill="#808080"
     id="g6"
     transform="matrix(1.25,0,0,1.25,2.625,2)"
     style="stroke-width:0.8">
    <path
       d="m 4.994,0 c -1.258,0.015 -2.179,-0.03 -2.931,0.385 a 1.88,1.88 0 0 0 -0.838,0.998 c -0.165,0.439 -0.225,0.96 -0.225,1.617 v 10 c 0,0.658 0.06,1.179 0.225,1.617 0.164,0.439 0.461,0.79 0.838,0.998 0.752,0.416 1.673,0.37 2.931,0.385 h 5.012 c 1.258,-0.014 2.179,0.03 2.932,-0.385 a 1.88,1.88 0 0 0 0.838,-0.998 c 0.164,-0.438 0.224,-0.96 0.224,-1.617 v -10 c 0,-0.658 -0.06,-1.178 -0.225,-1.617 a 1.88,1.88 0 0 0 -0.837,-0.998 c -0.753,-0.415 -1.674,-0.37 -2.932,-0.385 h -5.008 z m 0.006,1 h 5 c 1.259,0.015 2.087,0.06 2.453,0.262 0.184,0.101 0.29,0.213 0.387,0.472 0.097,0.26 0.16,0.674 0.16,1.266 v 10 c 0,0.592 -0.063,1.006 -0.16,1.266 -0.098,0.26 -0.203,0.371 -0.387,0.472 -0.366,0.202 -1.194,0.247 -2.453,0.262 h -5 c -1.258,-0.015 -2.09,-0.06 -2.455,-0.262 -0.183,-0.1 -0.287,-0.212 -0.385,-0.472 -0.097,-0.26 -0.16,-0.674 -0.16,-1.266 v -10 c 0,-0.592 0.063,-1.006 0.16,-1.266 0.098,-0.26 0.202,-0.371 0.385,-0.472 0.365,-0.202 1.195,-0.247 2.455,-0.262 z"
       style="line-height:normal;font-variant-ligatures:normal;font-variant-position:normal;font-variant-caps:normal;font-variant-numeric:normal;font-variant-alternates:normal;font-feature-settings:normal;text-indent:0;text-align:start;text-decoration-line:none;text-decoration-style:solid;text-decoration-color:#000000;text-transform:none;text-orientation:mixed;shape-padding:0;isolation:auto;mix-blend-mode:normal;stroke-width:0.64;marker:none"
       color="#000000"
       font-weight="400"
       font-family="sans-serif"
       white-space="normal"
       overflow="visible"
       id="path2" />
    <path
       d="m 7,3 -1,2 h 1 v 4.486 a 8.723,8.723 0 0 0 -0.775,-0.433 c -0.375,-0.188 -0.722,-0.369 -0.936,-0.547 -0.214,-0.178 -0.289,-0.298 -0.289,-0.506 a 1,1 0 0 0 1,-1 1,1 0 0 0 -1,-1 1,1 0 0 0 -1,1 v 1 c 0,0.542 0.3,0.985 0.648,1.275 0.349,0.29 0.754,0.485 1.13,0.672 0.374,0.188 0.719,0.369 0.933,0.547 0.214,0.179 0.289,0.298 0.289,0.506 -0.277,0 -0.5,0.223 -0.5,0.5 v 1 c 0,0.277 0.223,0.5 0.5,0.5 h 1 c 0.277,0 0.5,-0.223 0.5,-0.5 v -1 c 0,-0.277 -0.223,-0.5 -0.5,-0.5 v -1 c 0,-0.208 0.075,-0.327 0.29,-0.506 0.213,-0.178 0.56,-0.36 0.935,-0.547 0.375,-0.187 0.778,-0.381 1.127,-0.672 0.348,-0.29 0.648,-0.733 0.648,-1.275 v -1.5 c 0,-0.277 -0.223,-0.5 -0.5,-0.5 h -1 c -0.277,0 -0.5,0.223 -0.5,0.5 v 1 c 0,0.277 0.223,0.5 0.5,0.5 h 0.5 c 0,0.208 -0.075,0.328 -0.289,0.506 -0.214,0.178 -0.559,0.36 -0.934,0.547 -0.256,0.128 -0.52,0.27 -0.777,0.433 v -3.486 h 1 l -1,-2 z"
       id="path4"
       style="stroke-width:0.8" />
  </g>
</svg>
