<?xml version="1.0" encoding="UTF-8" standalone="no"?>
<svg
   height="24"
   width="24"
   version="1.1"
   id="svg8"
   sodipodi:docname="harddisk-usb-filled.svg"
   inkscape:version="1.1 (ce6663b3b7, 2021-05-25)"
   xmlns:inkscape="http://www.inkscape.org/namespaces/inkscape"
   xmlns:sodipodi="http://sodipodi.sourceforge.net/DTD/sodipodi-0.dtd"
   xmlns="http://www.w3.org/2000/svg"
   xmlns:svg="http://www.w3.org/2000/svg">
  <defs
     id="defs12" />
  <sodipodi:namedview
     id="namedview10"
     pagecolor="#ffffff"
     bordercolor="#666666"
     borderopacity="1.0"
     inkscape:pageshadow="2"
     inkscape:pageopacity="0.0"
     inkscape:pagecheckerboard="0"
     showgrid="false"
     inkscape:zoom="28"
     inkscape:cx="6.9464286"
     inkscape:cy="10.232143"
     inkscape:window-width="1920"
     inkscape:window-height="1016"
     inkscape:window-x="0"
     inkscape:window-y="27"
     inkscape:window-maximized="1"
     inkscape:current-layer="svg8" />
  <path
     id="path2"
     style="line-height:normal;font-variant-ligatures:normal;font-variant-position:normal;font-variant-caps:normal;font-variant-numeric:normal;font-variant-alternates:normal;font-feature-settings:normal;text-indent:0;text-align:start;text-decoration-line:none;text-decoration-style:solid;text-decoration-color:#000000;text-transform:none;text-orientation:mixed;shape-padding:0;isolation:auto;mix-blend-mode:normal;fill:#808080;stroke-width:0.8;marker:none"
     d="M 8.8671875 2 C 7.2946875 2.01875 6.143125 1.9617188 5.203125 2.4804688 A 2.35 2.35 0 0 0 4.15625 3.7285156 C 3.95 4.2772656 3.875 4.92875 3.875 5.75 L 3.875 18.25 C 3.875 19.0725 3.95 19.723984 4.15625 20.271484 C 4.36125 20.820234 4.731875 21.259531 5.203125 21.519531 C 6.143125 22.039531 7.2946875 21.98125 8.8671875 22 L 15.132812 22 C 16.705313 21.9825 17.855625 22.038281 18.796875 21.519531 A 2.35 2.35 0 0 0 19.845703 20.271484 C 20.050703 19.723984 20.125 19.07125 20.125 18.25 L 20.125 5.75 C 20.125 4.9275 20.05 4.2772656 19.84375 3.7285156 A 2.35 2.35 0 0 0 18.796875 2.4804688 C 17.855625 1.9617187 16.705312 2.01875 15.132812 2 L 8.8730469 2 L 8.8671875 2 z M 11.375 5.75 L 12.625 5.75 L 13.875 8.25 L 12.625 8.25 L 12.625 12.607422 C 12.94625 12.403672 13.275703 12.226406 13.595703 12.066406 C 14.064453 11.832656 14.496172 11.605313 14.763672 11.382812 C 15.031172 11.160312 15.125 11.01 15.125 10.75 L 14.5 10.75 C 14.15375 10.75 13.875 10.47125 13.875 10.125 L 13.875 8.875 C 13.875 8.52875 14.15375 8.25 14.5 8.25 L 15.75 8.25 C 16.09625 8.25 16.375 8.52875 16.375 8.875 L 16.375 10.75 C 16.375 11.4275 15.999453 11.98125 15.564453 12.34375 C 15.128203 12.7075 14.625 12.949844 14.15625 13.183594 C 13.6875 13.417344 13.254531 13.644687 12.988281 13.867188 C 12.719531 14.090938 12.625 14.24 12.625 14.5 L 12.625 15.75 C 12.97125 15.75 13.25 16.02875 13.25 16.375 L 13.25 17.625 C 13.25 17.97125 12.97125 18.25 12.625 18.25 L 11.375 18.25 C 11.02875 18.25 10.75 17.97125 10.75 17.625 L 10.75 16.375 C 10.75 16.02875 11.02875 15.75 11.375 15.75 C 11.375 15.49 11.281172 15.340938 11.013672 15.117188 C 10.746172 14.894687 10.315156 14.668594 9.8476562 14.433594 C 9.3776562 14.199844 8.8717969 13.95625 8.4355469 13.59375 C 8.0005469 13.23125 7.625 12.6775 7.625 12 L 7.625 10.75 A 1.25 1.25 0 0 1 8.875 9.5 A 1.25 1.25 0 0 1 10.125 10.75 A 1.25 1.25 0 0 1 8.875 12 C 8.875 12.26 8.9688281 12.410312 9.2363281 12.632812 C 9.5038281 12.855313 9.9375 13.081406 10.40625 13.316406 A 10.90375 10.90375 0 0 1 11.375 13.857422 L 11.375 8.25 L 10.125 8.25 L 11.375 5.75 z " />
</svg>
