<?xml version="1.0" encoding="UTF-8" standalone="no"?>
<svg
   height="24"
   width="24"
   version="1.1"
   id="svg10"
   sodipodi:docname="harddisk-filled.svg"
   inkscape:version="1.1 (ce6663b3b7, 2021-05-25)"
   xmlns:inkscape="http://www.inkscape.org/namespaces/inkscape"
   xmlns:sodipodi="http://sodipodi.sourceforge.net/DTD/sodipodi-0.dtd"
   xmlns="http://www.w3.org/2000/svg"
   xmlns:svg="http://www.w3.org/2000/svg">
  <defs
     id="defs14" />
  <sodipodi:namedview
     id="namedview12"
     pagecolor="#ffffff"
     bordercolor="#666666"
     borderopacity="1.0"
     inkscape:pageshadow="2"
     inkscape:pageopacity="0.0"
     inkscape:pagecheckerboard="0"
     showgrid="true"
     inkscape:snap-page="true"
     inkscape:zoom="14"
     inkscape:cx="-6.1785714"
     inkscape:cy="17.107143"
     inkscape:window-width="1920"
     inkscape:window-height="1016"
     inkscape:window-x="0"
     inkscape:window-y="27"
     inkscape:window-maximized="1"
     inkscape:current-layer="svg10">
    <inkscape:grid
       type="xygrid"
       id="grid957" />
  </sodipodi:namedview>
  <path
     id="path860"
     style="color:#000000;fill:#808080;fill-opacity:1;-inkscape-stroke:none"
     d="M 7.4550781 2 C 6.4864973 2.0089807 5.7372591 2.0732694 5.1171875 2.4453125 C 4.7038064 2.6933412 4.3972496 3.1012199 4.2285156 3.6074219 C 4.0597817 4.1136239 4 4.722223 4 5.5 L 4 18.5 C 4 19.277777 4.059782 19.886376 4.2285156 20.392578 C 4.3972496 20.89878 4.7038064 21.306659 5.1171875 21.554688 C 5.9439497 22.050746 7.000002 22 8.5 22 L 15.5 22 C 16.999998 22 18.05605 22.05074 18.882812 21.554688 C 19.296194 21.306659 19.60275 20.89878 19.771484 20.392578 C 19.940218 19.886376 20 19.277777 20 18.5 L 20 5.5 C 20 4.722223 19.94022 4.1136239 19.771484 3.6074219 C 19.60275 3.1012199 19.296194 2.6933412 18.882812 2.4453125 C 18.056051 1.9492552 16.999998 2 15.5 2 L 8.5 2 C 8.1250005 2 7.7779384 1.9970064 7.4550781 2 z M 11.925781 9 C 12.015953 8.9987 12.106916 9.0003062 12.197266 9.0039062 C 13.523895 9.0610882 14.773292 9.6436248 15.669922 10.623047 L 16.353516 11.353516 L 14.853516 12.853516 L 14.146484 12.146484 L 14.964844 11.328125 C 13.833343 10.070561 12.033081 9.6607694 10.46875 10.304688 C 8.614747 11.073184 7.6172487 13.096583 8.1367188 15.035156 C 8.6565407 16.973314 10.531942 18.226366 12.521484 17.964844 C 14.511529 17.703167 15.99949 16.007176 16 14 L 17 14 C 16.999884 16.509178 15.140074 18.629662 12.652344 18.957031 C 10.164899 19.284724 7.8197669 17.718239 7.1699219 15.294922 C 6.5201549 12.871135 7.7675895 10.341172 10.085938 9.3808594 C 10.670633 9.1385814 11.294576 9.0093 11.925781 9 z M 12 12 A 2 2 0 0 1 14 14 A 2 2 0 0 1 12 16 A 2 2 0 0 1 10 14 A 2 2 0 0 1 12 12 z M 12 13 A 1 1 0 0 0 11 14 A 1 1 0 0 0 12 15 A 1 1 0 0 0 13 14 A 1 1 0 0 0 12 13 z " />
</svg>
