<?xml version="1.0" encoding="UTF-8" standalone="no"?>
<svg
   height="24"
   width="24"
   version="1.1"
   id="svg10"
   sodipodi:docname="harddisk-error.svg"
   inkscape:version="1.2 (1:1.2.1+202207142221+cd75a1ee6d)"
   xmlns:inkscape="http://www.inkscape.org/namespaces/inkscape"
   xmlns:sodipodi="http://sodipodi.sourceforge.net/DTD/sodipodi-0.dtd"
   xmlns="http://www.w3.org/2000/svg"
   xmlns:svg="http://www.w3.org/2000/svg">
  <defs
     id="defs14" />
  <sodipodi:namedview
     id="namedview12"
     pagecolor="#ffffff"
     bordercolor="#666666"
     borderopacity="1.0"
     inkscape:pageshadow="2"
     inkscape:pageopacity="0.0"
     inkscape:pagecheckerboard="0"
     showgrid="true"
     inkscape:snap-page="true"
     inkscape:zoom="17.806278"
     inkscape:cx="12.523673"
     inkscape:cy="12.158633"
     inkscape:window-width="1846"
     inkscape:window-height="1016"
     inkscape:window-x="0"
     inkscape:window-y="0"
     inkscape:window-maximized="1"
     inkscape:current-layer="svg10"
     inkscape:snap-grids="false"
     inkscape:showpageshadow="2"
     inkscape:deskcolor="#d1d1d1">
    <inkscape:grid
       type="xygrid"
       id="grid957" />
    <inkscape:grid
       type="xygrid"
       id="grid825"
       dotted="true"
       spacingx="0.5"
       spacingy="0.5"
       empspacing="10" />
  </sodipodi:namedview>
  <path
     id="path879"
     style="fill:#808080;stroke-width:2;stroke-linejoin:round"
     d="M 17.5,13 C 15.014721,13 13,15.014721 13,17.5 13,19.985279 15.014721,22 17.5,22 19.985279,22 22,19.985279 22,17.5 22,15.014721 19.985279,13 17.5,13 Z M 15.853516,15.146484 17.5,16.792969 19.146484,15.146484 19.853516,15.853516 18.207031,17.5 19.853516,19.146484 19.146484,19.853516 17.5,18.207031 15.853516,19.853516 15.146484,19.146484 16.792969,17.5 15.146484,15.853516 Z" />
  <path
     id="path1416"
     style="fill:#808080;fill-rule:evenodd;stroke-width:0.5;stroke-linecap:round;fill-opacity:1"
     d="M 7.4550781 2 C 6.4865022 2.0089807 5.7372561 2.0732713 5.1171875 2.4453125 C 4.7038084 2.6933402 4.3972491 3.1012225 4.2285156 3.6074219 C 4.0597827 4.1136213 4 4.722227 4 5.5 L 4 18.5 C 4 19.277772 4.059783 19.886381 4.2285156 20.392578 C 4.3972491 20.89878 4.7038084 21.30666 5.1171875 21.554688 C 5.9439457 22.050741 7.000009 22 8.5 22 L 12 22 L 12 21 L 8.5 21 C 7.000009 21 6.056047 20.94925 5.6328125 20.695312 C 5.4211952 20.568347 5.2902496 20.413719 5.1777344 20.076172 C 5.0652191 19.738625 5 19.222216 5 18.5 L 5 5.5 C 5 4.777782 5.0652195 4.2613739 5.1777344 3.9238281 C 5.2902496 3.5862829 5.4211952 3.431658 5.6328125 3.3046875 C 6.056047 3.0507471 7.000009 3 8.5 3 L 15.5 3 C 16.999993 3 17.943952 3.0507475 18.367188 3.3046875 C 18.578802 3.431658 18.70975 3.5862829 18.822266 3.9238281 C 18.934781 4.2613739 19 4.777782 19 5.5 L 19 12 L 20 12 L 20 5.5 C 20 4.722227 19.94022 4.1136213 19.771484 3.6074219 C 19.602755 3.1012225 19.296194 2.6933402 18.882812 2.4453125 C 18.056055 1.9492577 16.999993 2 15.5 2 L 8.5 2 C 8.1250023 2 7.7779369 1.9970064 7.4550781 2 z M 11.925781 9 C 11.294581 9.0092793 10.670629 9.1385829 10.085938 9.3808594 C 7.7675986 10.341168 6.520158 12.871145 7.1699219 15.294922 C 7.7625562 17.504895 9.7653634 18.996177 12 18.994141 L 12 17.996094 C 10.212864 17.997092 8.6107432 16.802558 8.1367188 15.035156 C 7.6172518 13.096593 8.6147563 11.073179 10.46875 10.304688 C 12.033071 9.6607707 13.833348 10.070566 14.964844 11.328125 L 14.292969 12 L 15.707031 12 L 16.353516 11.353516 L 15.669922 10.623047 C 14.773297 9.6436293 13.523885 9.0610879 12.197266 9.0039062 C 12.106921 9.0003386 12.015953 8.9986744 11.925781 9 z M 12 12 A 2 2 0 0 0 10 14 A 2 2 0 0 0 12 16 L 12 15 A 1 1 0 0 1 11 14 A 1 1 0 0 1 12 13 L 12 12 z " />
</svg>
