<?xml version="1.0" encoding="UTF-8" standalone="no"?>
<svg viewBox="0 1 24 24" height="24" width="24" version="1.1" id="svg8" sodipodi:docname="harddisk-usb-filled.svg" inkscape:version="1.1 (ce6663b3b7, 2021-05-25)"
   xmlns:inkscape="http://www.inkscape.org/namespaces/inkscape"
   xmlns:sodipodi="http://sodipodi.sourceforge.net/DTD/sodipodi-0.dtd"
   xmlns="http://www.w3.org/2000/svg"
   xmlns:svg="http://www.w3.org/2000/svg">
   <defs id="defs12" />
   <sodipodi:namedview id="namedview10" pagecolor="#ffffff" bordercolor="#666666" borderopacity="1.0" inkscape:pageshadow="2" inkscape:pageopacity="0.0" inkscape:pagecheckerboard="0" showgrid="false" inkscape:zoom="28" inkscape:cx="6.9464286" inkscape:cy="10.232143" inkscape:window-width="1920" inkscape:window-height="1016" inkscape:window-x="0" inkscape:window-y="27" inkscape:window-maximized="1" inkscape:current-layer="svg8" />
   <path id="path860" style="color:#000000;fill:#808080;fill-opacity:1;-inkscape-stroke:none" d="M 7.4550781 2 C 6.4864974 2.0089807 5.737259 2.0732694 5.1171875 2.4453125 C 4.7038065 2.6933412 4.3972496 3.10122 4.2285156 3.6074219 C 4.0597816 4.1136238 4 4.722223 4 5.5 L 4 18.5 C 4 19.277777 4.0597796 19.886376 4.2285156 20.392578 C 4.3972496 20.89878 4.7038055 21.306659 5.1171875 21.554688 C 5.9439495 22.050746 7.000002 22 8.5 22 L 15.5 22 C 16.999998 22 18.05605 22.05074 18.882812 21.554688 C 19.296194 21.306659 19.60275 20.89878 19.771484 20.392578 C 19.940218 19.886376 20 19.277777 20 18.5 L 20 5.5 C 20 4.722223 19.94022 4.1136238 19.771484 3.6074219 C 19.60275 3.10122 19.296194 2.6933412 18.882812 2.4453125 C 18.056051 1.9492552 16.999998 2 15.5 2 L 8.5 2 C 8.1250005 2 7.7779384 1.9970064 7.4550781 2 z M 11.5 6 L 12.5 6 L 13.5 8 L 12.5 8 L 12.5 13.033203 C 12.851278 12.719969 13.226121 12.430993 13.552734 12.291016 C 13.990234 12.103516 14.306103 11.964099 14.548828 11.628906 C 14.754797 11.344474 14.934195 10.86595 14.984375 10 L 14.5 10 C 14.223 10 14 9.777 14 9.5 L 14 8.5 C 14 8.223 14.223 8 14.5 8 L 15.5 8 C 15.777 8 16 8.223 16 8.5 L 16 9.5 C 16 10.808332 15.770946 11.643787 15.357422 12.214844 C 14.943898 12.7859 14.384765 13.021485 13.947266 13.208984 C 13.509766 13.396484 13.193897 13.535901 12.951172 13.871094 C 12.708446 14.206286 12.5 14.808335 12.5 16 C 12.777 16 13 16.223 13 16.5 L 13 17.5 C 13 17.777 12.777 18 12.5 18 L 11.5 18 C 11.223 18 11 17.777 11 17.5 L 11 16.5 C 11 16.223 11.223 16 11.5 16 C 11.5 15.347223 11.34607 15.093804 11.117188 14.886719 C 10.888303 14.679634 10.508722 14.529408 10.052734 14.333984 C 9.5967469 14.138561 9.0612775 13.879288 8.6523438 13.353516 C 8.2434097 12.827744 8 12.072916 8 11 A 1 1 0 0 1 9 10 A 1 1 0 0 1 10 11 A 1 1 0 0 1 9.0996094 11.992188 C 9.1799781 12.327502 9.302553 12.561709 9.4414062 12.740234 C 9.6887217 13.058211 10.028255 13.236439 10.447266 13.416016 C 10.774267 13.556159 11.148589 13.685976 11.5 13.919922 L 11.5 8 L 10.5 8 L 11.5 6 z " />
</svg>
