<?xml version="1.0" encoding="UTF-8" standalone="no"?>
<svg
   height="24"
   width="24"
   version="1.1"
   id="svg12"
   sodipodi:docname="multidisk-filled.svg"
   inkscape:version="1.1 (ce6663b3b7, 2021-05-25)"
   xmlns:inkscape="http://www.inkscape.org/namespaces/inkscape"
   xmlns:sodipodi="http://sodipodi.sourceforge.net/DTD/sodipodi-0.dtd"
   xmlns="http://www.w3.org/2000/svg"
   xmlns:svg="http://www.w3.org/2000/svg">
  <defs
     id="defs16" />
  <sodipodi:namedview
     id="namedview14"
     pagecolor="#ffffff"
     bordercolor="#666666"
     borderopacity="1.0"
     inkscape:pageshadow="2"
     inkscape:pageopacity="0.0"
     inkscape:pagecheckerboard="0"
     showgrid="false"
     inkscape:zoom="28"
     inkscape:cx="9.6964286"
     inkscape:cy="11.803571"
     inkscape:window-width="1920"
     inkscape:window-height="1016"
     inkscape:window-x="0"
     inkscape:window-y="27"
     inkscape:window-maximized="1"
     inkscape:current-layer="svg12" />
  <path
     id="path2"
     style="line-height:normal;font-variant-ligatures:normal;font-variant-position:normal;font-variant-caps:normal;font-variant-numeric:normal;font-variant-alternates:normal;font-feature-settings:normal;text-indent:0;text-align:start;text-decoration-line:none;text-decoration-style:solid;text-decoration-color:#000000;text-transform:none;text-orientation:mixed;shape-padding:0;isolation:auto;mix-blend-mode:normal;fill:#808080;stroke-width:0.8;marker:none"
     d="M 10.117188 4.5 C 8.544687 4.51875 7.393125 4.4617187 6.453125 4.9804688 A 2.35 2.35 0 0 0 5.40625 6.2285156 C 5.2 6.7772656 5.125 7.42875 5.125 8.25 L 5.125 18.25 C 5.125 19.0725 5.2 19.723984 5.40625 20.271484 C 5.61125 20.820234 5.981875 21.259531 6.453125 21.519531 C 7.393125 22.039531 8.544687 21.98125 10.117188 22 L 16.382812 22 C 17.955313 21.9825 19.105625 22.038281 20.046875 21.519531 A 2.35 2.35 0 0 0 21.095703 20.271484 C 21.300703 19.723984 21.375 19.07125 21.375 18.25 L 21.375 8.25 C 21.375 7.4275 21.3 6.7772656 21.09375 6.2285156 A 2.35 2.35 0 0 0 20.046875 4.9804688 C 19.105625 4.4604688 17.955312 4.51875 16.382812 4.5 L 10.123047 4.5 L 10.117188 4.5 z M 13.619141 8.265625 A 5.6175 5.6175 0 0 1 17.230469 9.8984375 L 17.671875 10.339844 L 17.230469 10.779297 L 16.787109 11.224609 L 16.785156 11.224609 L 15.939453 12.068359 L 15.056641 11.185547 L 15.861328 10.378906 A 4.3675 4.3675 0 0 0 9.4609375 16.0625 A 4.3675 4.3675 0 0 0 14.925781 17.914062 A 4.3675 4.3675 0 0 0 17.476562 12.742188 L 17.314453 12.140625 L 18.523438 11.814453 L 18.6875 12.417969 A 5.6375 5.6375 0 0 1 15.402344 19.072266 A 5.635 5.635 0 0 1 8.3769531 16.6875 A 5.6325 5.6325 0 0 1 9.828125 9.4121094 A 5.60875 5.60875 0 0 1 13.619141 8.265625 z M 13.25 12 A 1.875 1.875 0 0 1 15.125 13.875 A 1.875 1.875 0 0 1 13.25 15.75 A 1.875 1.875 0 0 1 11.375 13.875 A 1.875 1.875 0 0 1 13.25 12 z M 13.25 13.25 A 0.625 0.625 0 0 0 12.625 13.875 A 0.625 0.625 0 0 0 13.25 14.5 A 0.625 0.625 0 0 0 13.875 13.875 A 0.625 0.625 0 0 0 13.25 13.25 z " />
  <path
     d="m 7.6175,2 c -1.5725,0.01875 -2.72375,-0.0375 -3.66375,0.48125 a 2.35,2.35 0 0 0 -1.0475,1.2475 c -0.20625,0.54875 -0.28125,1.2 -0.28125,2.02125 v 11.25 h 1.25 v -11.25 c 0,-0.74 0.07875,-1.2575 0.2,-1.5825 0.1225,-0.325 0.2525,-0.46375 0.48125,-0.59 0.4575,-0.2525 1.495,-0.30875 3.06875,-0.3275 h 8.75 v -1.25 h -8.7525 z"
     style="line-height:normal;font-variant-ligatures:normal;font-variant-position:normal;font-variant-caps:normal;font-variant-numeric:normal;font-variant-alternates:normal;font-feature-settings:normal;text-indent:0;text-align:start;text-decoration-line:none;text-decoration-style:solid;text-decoration-color:#000000;text-transform:none;text-orientation:mixed;shape-padding:0;isolation:auto;mix-blend-mode:normal;fill:#808080;stroke-width:0.8;marker:none"
     color="#000000"
     font-weight="400"
     font-family="sans-serif"
     white-space="normal"
     overflow="visible"
     id="path8" />
</svg>
