<?xml version="1.0" encoding="UTF-8" standalone="no"?>
<svg
   height="24"
   width="24"
   version="1.1"
   id="svg12"
   sodipodi:docname="multidisk.svg"
   inkscape:version="1.1 (ce6663b3b7, 2021-05-25)"
   xmlns:inkscape="http://www.inkscape.org/namespaces/inkscape"
   xmlns:sodipodi="http://sodipodi.sourceforge.net/DTD/sodipodi-0.dtd"
   xmlns="http://www.w3.org/2000/svg"
   xmlns:svg="http://www.w3.org/2000/svg">
  <defs
     id="defs16" />
  <sodipodi:namedview
     id="namedview14"
     pagecolor="#ffffff"
     bordercolor="#666666"
     borderopacity="1.0"
     inkscape:pageshadow="2"
     inkscape:pageopacity="0.0"
     inkscape:pagecheckerboard="0"
     showgrid="true"
     inkscape:zoom="19.79899"
     inkscape:cx="13.561298"
     inkscape:cy="7.0710678"
     inkscape:window-width="1920"
     inkscape:window-height="1043"
     inkscape:window-x="1920"
     inkscape:window-y="0"
     inkscape:window-maximized="1"
     inkscape:current-layer="svg12">
    <inkscape:grid
       type="xygrid"
       id="grid825" />
    <inkscape:grid
       type="xygrid"
       id="grid940"
       dotted="true"
       spacingx="0.5"
       spacingy="0.5"
       empspacing="10" />
  </sodipodi:namedview>
  <path
     id="path1416"
     style="fill:#808080;fill-opacity:1;fill-rule:evenodd;stroke-width:0.5;stroke-linecap:round"
     d="m 13,12 a 2,2 0 0 0 -2,2 2,2 0 0 0 2,2 2,2 0 0 0 2,-2 2,2 0 0 0 -2,-2 z m 0,1 a 1,1 0 0 1 1,1 1,1 0 0 1 -1,1 1,1 0 0 1 -1,-1 1,1 0 0 1 1,-1 z" />
  <path
     style="color:#000000;fill:#808080;fill-opacity:1;-inkscape-stroke:none"
     d="m 9.5,4.0000001 c -1.499999,0 -2.55605,-0.050745 -3.382812,0.4453125 -0.413382,0.2480287 -0.719938,0.6559075 -0.888672,1.1621094 -0.168734,0.5062019 -0.228516,1.1148011 -0.228516,1.8925781 v 10.9999999 c 0,0.777777 0.05978,1.386376 0.228516,1.892578 0.168734,0.506202 0.47529,0.914081 0.888672,1.162109 0.826762,0.496058 1.882813,0.445313 3.382812,0.445313 h 7 c 1.499998,0 2.55605,0.05074 3.382812,-0.445313 0.413382,-0.248028 0.719938,-0.655907 0.888672,-1.162109 0.168734,-0.506202 0.228516,-1.114801 0.228516,-1.892578 v -10.9999999 c 0,-0.777777 -0.05978,-1.3863762 -0.228516,-1.8925781 -0.168734,-0.5062019 -0.47529,-0.9140807 -0.888672,-1.1621094 -0.826762,-0.4960573 -1.882814,-0.4453125 -3.382812,-0.4453125 z m 0,1 h 7 c 1.499998,0 2.443951,0.050746 2.867187,0.3046875 0.211619,0.126971 0.342563,0.2815934 0.455079,0.6191406 0.112515,0.3375473 0.177734,0.8539504 0.177734,1.5761719 v 10.9999999 c 0,0.722221 -0.06522,1.238625 -0.177734,1.576172 -0.112516,0.337547 -0.24346,0.49217 -0.455079,0.61914 -0.423236,0.253942 -1.367188,0.304688 -2.867187,0.304688 h -7 c -1.499998,0 -2.443951,-0.05075 -2.867187,-0.304688 -0.211619,-0.12697 -0.342563,-0.281593 -0.455079,-0.61914 -0.112515,-0.337547 -0.177734,-0.853951 -0.177734,-1.576172 v -10.9999999 c 0,-0.7222215 0.06522,-1.2386246 0.177734,-1.5761719 0.112516,-0.3375472 0.24346,-0.4921696 0.455079,-0.6191406 0.423236,-0.2539419 1.367189,-0.3046875 2.867187,-0.3046875 z"
     id="path860"
     sodipodi:nodetypes="ssssssssssssssssssssssssssssssscss" />
  <path
     id="path1419"
     style="fill:#808080;fill-opacity:1;fill-rule:evenodd;stroke-width:0.5;stroke-linecap:round"
     d="m 12.925781,9.0000001 c -0.631205,0.00928 -1.255147,0.1385819 -1.839843,0.3808594 -2.318348,0.9603135 -3.565783,3.4902755 -2.916016,5.9140625 0.649845,2.423317 2.994977,3.989802 5.482422,3.662109 2.48773,-0.327369 4.34754,-2.447853 4.347656,-4.957031 h -1 c -5.1e-4,2.007176 -1.488471,3.703167 -3.478516,3.964844 -1.989542,0.261522 -3.864943,-0.99153 -4.384765,-2.929688 -0.51947,-1.938573 0.478028,-3.961972 2.332031,-4.730468 1.564331,-0.6439177 3.364593,-0.234127 4.496094,1.023437 l -0.81836,0.818359 0.707032,0.707032 1.5,-1.5 -0.683594,-0.730469 c -0.89663,-0.9794221 -2.146027,-1.561959 -3.472656,-1.6191407 -0.09035,-0.00357 -0.181313,-0.00523 -0.271485,-0.00391 z" />
  <path
     style="color:#000000;fill:#808080;fill-opacity:1;-inkscape-stroke:none"
     d="m 7.5,2 c -1.4999985,0 -2.5560503,-0.050745 -3.3828125,0.4453125 -0.4133811,0.2480287 -0.7199379,0.6559075 -0.8886719,1.1621094 -0.1687339,0.5062019 -0.2285156,1.1148011 -0.2285156,1.8925781 v 11.5 h 1 v -11.5 c 0,-0.7222215 0.065219,-1.2386246 0.1777344,-1.5761719 0.1125157,-0.3375472 0.2434598,-0.4921696 0.4550781,-0.6191406 0.4232365,-0.2539419 1.367189,-0.3046875 2.8671875,-0.3046875 l 8.5,0 v -1 z"
     id="path975"
     sodipodi:nodetypes="ssssccssssccs" />
</svg>
