<?xml version="1.0" encoding="UTF-8" standalone="no"?>
<svg
   height="24"
   width="24"
   version="1.1"
   id="svg4"
   sodipodi:docname="optical-filled.svg"
   inkscape:version="1.1 (ce6663b3b7, 2021-05-25)"
   xmlns:inkscape="http://www.inkscape.org/namespaces/inkscape"
   xmlns:sodipodi="http://sodipodi.sourceforge.net/DTD/sodipodi-0.dtd"
   xmlns="http://www.w3.org/2000/svg"
   xmlns:svg="http://www.w3.org/2000/svg">
  <defs
     id="defs8" />
  <sodipodi:namedview
     id="namedview6"
     pagecolor="#ffffff"
     bordercolor="#666666"
     borderopacity="1.0"
     inkscape:pageshadow="2"
     inkscape:pageopacity="0.0"
     inkscape:pagecheckerboard="0"
     showgrid="false"
     inkscape:zoom="3.5"
     inkscape:cx="-89.571428"
     inkscape:cy="-51.857143"
     inkscape:window-width="1920"
     inkscape:window-height="1016"
     inkscape:window-x="0"
     inkscape:window-y="27"
     inkscape:window-maximized="1"
     inkscape:current-layer="svg4" />
  <path
     id="path825"
     style="line-height:normal;font-variant-ligatures:normal;font-variant-position:normal;font-variant-caps:normal;font-variant-numeric:normal;font-variant-alternates:normal;font-feature-settings:normal;text-indent:0;text-align:start;text-decoration-line:none;text-decoration-style:solid;text-decoration-color:#000000;text-transform:none;text-orientation:mixed;shape-padding:0;isolation:auto;mix-blend-mode:normal;stroke-width:1;marker:none"
     d="M 4.5 14.5 C 4.5 18.642138 7.8578645 22 12 22 C 16.142136 22 19.5 18.642138 19.5 14.5 L 14.5 14.5 A 2.5 2.5 0 0 1 9.5 14.5 L 4.5 14.5 z M 10.75 14.5 A 1.25 1.25 0 0 0 13.25 14.5 L 10.75 14.5 z " />
  <path
     style="line-height:normal;font-variant-ligatures:normal;font-variant-position:normal;font-variant-caps:normal;font-variant-numeric:normal;font-variant-alternates:normal;font-feature-settings:normal;text-indent:0;text-align:start;text-decoration-line:none;text-decoration-style:solid;text-decoration-color:#000000;text-transform:none;text-orientation:mixed;shape-padding:0;isolation:auto;mix-blend-mode:normal;stroke-width:1;marker:none"
     d="m 6.9925,2 c -1.5725,0.01875 -2.72375,-0.0375 -3.66375,0.48125 a 2.35,2.35 0 0 0 -1.0475,1.2475 c -0.20625,0.54875 -0.28125,1.2 -0.28125,2.02125 v 8.75 c 0,0.8225 0.075,1.47375 0.28125,2.02125 0.205,0.54875 0.57625,0.9875 1.0475,1.2475 0.3525,0.195 0.74875,0.2925 1.17125,0.35875 v -1.28375 a 2.0425,2.0425 0 0 1 -0.56875,-0.17125 c -0.22875,-0.125 -0.35875,-0.265 -0.48125,-0.59 -0.12125,-0.325 -0.2,-0.8425 -0.2,-1.5825 v -1.25 h 17.5 v 1.25 c 0,0.74 -0.07875,1.2575 -0.2,1.5825 -0.1225,0.325 -0.25375,0.46375 -0.48375,0.59 a 2.0375,2.0375 0 0 1 -0.56625,0.17125 v 1.28375 c 0.42375,-0.06625 0.81875,-0.1625 1.1725,-0.35875 a 2.35,2.35 0 0 0 1.04625,-1.2475 c 0.20625,-0.5475 0.28125,-1.2 0.28125,-2.02125 v -8.75 c 0,-0.8225 -0.075,-1.4725 -0.28125,-2.02125 a 2.35,2.35 0 0 0 -1.04625,-1.2475 c -0.94125,-0.52 -2.0925,-0.4625 -3.665,-0.48125 h -10.01 z"
     id="path2" />
</svg>
