<?xml version="1.0" encoding="UTF-8" standalone="no"?>
<svg
   height="24"
   id="svg7384"
   version="1.1"
   width="24"
   sodipodi:docname="solidstatedisk-filled.svg"
   inkscape:version="1.1 (ce6663b3b7, 2021-05-25)"
   xmlns:inkscape="http://www.inkscape.org/namespaces/inkscape"
   xmlns:sodipodi="http://sodipodi.sourceforge.net/DTD/sodipodi-0.dtd"
   xmlns="http://www.w3.org/2000/svg"
   xmlns:svg="http://www.w3.org/2000/svg"
   xmlns:rdf="http://www.w3.org/1999/02/22-rdf-syntax-ns#"
   xmlns:cc="http://creativecommons.org/ns#"
   xmlns:dc="http://purl.org/dc/elements/1.1/">
  <sodipodi:namedview
     id="namedview22"
     pagecolor="#ffffff"
     bordercolor="#666666"
     borderopacity="1.0"
     inkscape:pageshadow="2"
     inkscape:pageopacity="0.0"
     inkscape:pagecheckerboard="0"
     showgrid="false"
     inkscape:zoom="27.999826"
     inkscape:cx="8.8750552"
     inkscape:cy="11.803645"
     inkscape:window-width="1920"
     inkscape:window-height="1016"
     inkscape:window-x="0"
     inkscape:window-y="27"
     inkscape:window-maximized="1"
     inkscape:current-layer="svg7384" />
  <metadata
     id="metadata20854">
    <rdf:RDF>
      <cc:Work
         rdf:about="">
        <dc:format>image/svg+xml</dc:format>
        <dc:type
           rdf:resource="http://purl.org/dc/dcmitype/StillImage" />
      </cc:Work>
    </rdf:RDF>
  </metadata>
  <defs
     id="defs7386">
    <linearGradient
       id="linearGradient5606"
       inkscape:swatch="solid">
      <stop
         id="stop5608"
         offset="0"
         style="stop-color:#000000;stop-opacity:1;" />
    </linearGradient>
    <linearGradient
       id="linearGradient4526"
       inkscape:swatch="solid">
      <stop
         id="stop4528"
         offset="0"
         style="stop-color:#ffffff;stop-opacity:1;" />
    </linearGradient>
    <linearGradient
       id="linearGradient3600-4"
       inkscape:swatch="gradient">
      <stop
         id="stop3602-7"
         offset="0"
         style="stop-color:#f4f4f4;stop-opacity:1" />
      <stop
         id="stop3604-6"
         offset="1"
         style="stop-color:#dbdbdb;stop-opacity:1" />
    </linearGradient>
  </defs>
  <path
     id="path7241"
     style="color:#000000;font-style:normal;font-variant:normal;font-weight:normal;font-stretch:normal;font-size:medium;line-height:normal;font-family:sans-serif;font-variant-ligatures:normal;font-variant-position:normal;font-variant-caps:normal;font-variant-numeric:normal;font-variant-alternates:normal;font-feature-settings:normal;text-indent:0;text-align:start;text-decoration:none;text-decoration-line:none;text-decoration-style:solid;text-decoration-color:#000000;letter-spacing:normal;word-spacing:normal;text-transform:none;writing-mode:lr-tb;direction:ltr;text-orientation:mixed;dominant-baseline:auto;baseline-shift:baseline;text-anchor:start;white-space:normal;shape-padding:0;clip-rule:nonzero;display:inline;overflow:visible;visibility:visible;isolation:auto;mix-blend-mode:normal;color-interpolation:sRGB;color-interpolation-filters:linearRGB;solid-color:#000000;solid-opacity:1;vector-effect:none;fill:#808080;fill-opacity:1;fill-rule:nonzero;stroke:none;stroke-width:1;stroke-linecap:butt;stroke-linejoin:miter;stroke-miterlimit:4;stroke-dasharray:none;stroke-dashoffset:0;stroke-opacity:1;marker:none;color-rendering:auto;image-rendering:auto;shape-rendering:auto;text-rendering:auto;enable-background:accumulate"
     d="M 8.8671875 2 C 7.2944375 2.018175 6.1440625 1.9613113 5.203125 2.4804688 C 4.7326625 2.740045 4.362075 3.1801856 4.15625 3.7285156 C 3.9504125 4.2768469 3.875 4.9279887 3.875 5.75 L 3.875 18.25 C 3.875 19.072011 3.9503625 19.723157 4.15625 20.271484 C 4.3620875 20.81981 4.7326625 21.25996 5.203125 21.519531 C 6.1440625 22.038675 7.29445 21.981789 8.8671875 22 L 8.8730469 22 L 15.126953 22 L 15.132812 22 C 16.705551 21.98183 17.855938 22.038689 18.796875 21.519531 C 19.267338 21.259955 19.637912 20.819814 19.84375 20.271484 C 20.049362 19.723153 20.125 19.072011 20.125 18.25 L 20.125 5.75 C 20.125 4.9279887 20.049642 4.2768493 19.84375 3.7285156 C 19.637925 3.1801831 19.267338 2.7400512 18.796875 2.4804688 C 17.855938 1.9613037 16.705562 2.0181487 15.132812 2 L 15.126953 2 L 8.8730469 2 L 8.8671875 2 z M 8.875 5.75 L 10.125 5.75 L 10.125 7 L 11.375 7 L 11.375 5.75 L 12.625 5.75 L 12.625 7 L 13.875 7 L 13.875 5.75 L 15.125 5.75 L 15.125 7 C 15.806687 7 16.375 7.5683125 16.375 8.25 L 17.625 8.25 L 17.625 9.5 L 16.375 9.5 L 16.375 10.75 L 17.625 10.75 L 17.625 12 L 16.375 12 L 16.375 13.25 L 17.625 13.25 L 17.625 14.5 L 16.375 14.5 L 16.375 15.75 L 17.625 15.75 L 17.625 17 L 16.375 17 C 16.375 17.681687 15.806687 18.25 15.125 18.25 L 15.125 19.5 L 13.875 19.5 L 13.875 18.25 L 12.625 18.25 L 12.625 19.5 L 11.375 19.5 L 11.375 18.25 L 10.125 18.25 L 10.125 19.5 L 8.875 19.5 L 8.875 18.25 C 8.1933125 18.25 7.625 17.681687 7.625 17 L 6.375 17 L 6.375 15.75 L 7.625 15.75 L 7.625 14.5 L 6.375 14.5 L 6.375 13.25 L 7.625 13.25 L 7.625 12 L 6.375 12 L 6.375 10.75 L 7.625 10.75 L 7.625 9.5 L 6.375 9.5 L 6.375 8.25 L 7.625 8.25 C 7.625 7.5683125 8.1933125 7 8.875 7 L 8.875 5.75 z M 9.5 8.25 C 8.875 8.25 8.875 8.875 8.875 8.875 L 8.875 16.375 C 8.875 16.375 8.875 17 9.5 17 L 14.5 17 C 14.5 17 15.125 17 15.125 16.375 L 15.125 8.875 C 15.125 8.25 14.5 8.25 14.5 8.25 L 9.5 8.25 z " />
  <g
     id="layer9"
     label="status"
     style="display:inline;stroke-width:0.8"
     transform="matrix(1.25,0,0,1.25,-913.62525,385.75)" />
  <g
     id="layer2"
     style="display:inline;stroke-width:0.8"
     transform="matrix(1.25,0,0,1.25,-612.375,-73)" />
  <g
     id="layer4"
     style="display:inline;stroke-width:0.8"
     transform="matrix(1.25,0,0,1.25,-612.375,-73)" />
  <g
     id="g1812"
     style="display:inline;stroke-width:0.8"
     transform="matrix(1.25,0,0,1.25,-612.375,-73)" />
  <g
     id="layer3"
     style="display:inline;stroke-width:0.8"
     transform="matrix(1.25,0,0,1.25,-612.375,-73)" />
  <g
     id="g1833"
     style="display:inline;stroke-width:0.8"
     transform="matrix(1.25,0,0,1.25,-612.375,-73)" />
  <g
     id="layer1"
     style="display:inline;stroke-width:0.8"
     transform="matrix(1.25,0,0,1.25,-612.375,-73)" />
</svg>
