<?xml version="1.0" encoding="UTF-8" standalone="no"?>
<svg
   height="24"
   id="svg7384"
   version="1.1"
   width="24"
   sodipodi:docname="solidstatedisk.svg"
   inkscape:version="1.1 (ce6663b3b7, 2021-05-25)"
   xmlns:inkscape="http://www.inkscape.org/namespaces/inkscape"
   xmlns:sodipodi="http://sodipodi.sourceforge.net/DTD/sodipodi-0.dtd"
   xmlns="http://www.w3.org/2000/svg"
   xmlns:svg="http://www.w3.org/2000/svg"
   xmlns:rdf="http://www.w3.org/1999/02/22-rdf-syntax-ns#"
   xmlns:cc="http://creativecommons.org/ns#"
   xmlns:dc="http://purl.org/dc/elements/1.1/">
  <sodipodi:namedview
     id="namedview22"
     pagecolor="#ffffff"
     bordercolor="#666666"
     borderopacity="1.0"
     inkscape:pageshadow="2"
     inkscape:pageopacity="0.0"
     inkscape:pagecheckerboard="0"
     showgrid="false"
     inkscape:zoom="27.999826"
     inkscape:cx="3.1250194"
     inkscape:cy="6.9464716"
     inkscape:window-width="1920"
     inkscape:window-height="1016"
     inkscape:window-x="0"
     inkscape:window-y="27"
     inkscape:window-maximized="1"
     inkscape:current-layer="svg7384" />
  <metadata
     id="metadata20854">
    <rdf:RDF>
      <cc:Work
         rdf:about="">
        <dc:format>image/svg+xml</dc:format>
        <dc:type
           rdf:resource="http://purl.org/dc/dcmitype/StillImage" />
      </cc:Work>
    </rdf:RDF>
  </metadata>
  <defs
     id="defs7386">
    <linearGradient
       id="linearGradient5606"
       inkscape:swatch="solid">
      <stop
         id="stop5608"
         offset="0"
         style="stop-color:#000000;stop-opacity:1;" />
    </linearGradient>
    <linearGradient
       id="linearGradient4526"
       inkscape:swatch="solid">
      <stop
         id="stop4528"
         offset="0"
         style="stop-color:#ffffff;stop-opacity:1;" />
    </linearGradient>
    <linearGradient
       id="linearGradient3600-4"
       inkscape:swatch="gradient">
      <stop
         id="stop3602-7"
         offset="0"
         style="stop-color:#f4f4f4;stop-opacity:1" />
      <stop
         id="stop3604-6"
         offset="1"
         style="stop-color:#dbdbdb;stop-opacity:1" />
    </linearGradient>
  </defs>
  <g
     id="layer9"
     label="status"
     style="display:inline;stroke-width:0.8"
     transform="matrix(1.25,0,0,1.25,-913.62525,385.75)" />
  <g
     id="layer2"
     style="display:inline;stroke-width:0.8"
     transform="matrix(1.25,0,0,1.25,-612.375,-73)" />
  <g
     id="layer4"
     style="display:inline;stroke-width:0.8"
     transform="matrix(1.25,0,0,1.25,-612.375,-73)" />
  <g
     id="g1812"
     style="display:inline;stroke-width:0.8"
     transform="matrix(1.25,0,0,1.25,-612.375,-73)" />
  <g
     id="g6217"
     style="display:inline;stroke-width:0.8"
     transform="matrix(1.25,0,0,1.25,-612.375,-73)">
    <path
       d="m 496.99414,60 c -1.2582,0.01454 -2.17889,-0.03056 -2.93164,0.384766 -0.37637,0.207661 -0.67323,0.559382 -0.83789,0.998046 -0.16467,0.438665 -0.22461,0.959579 -0.22461,1.617188 v 10 c 0,0.657609 0.0599,1.178526 0.22461,1.617188 0.16467,0.438661 0.46152,0.790389 0.83789,0.998046 0.75275,0.415315 1.67345,0.370197 2.93164,0.384766 h 0.004 5.0039 0.004 c 1.25819,-0.01454 2.17889,0.03056 2.93164,-0.384766 0.37637,-0.207661 0.67322,-0.559382 0.83789,-0.998046 0.16449,-0.438665 0.22443,-0.959579 0.22443,-1.617188 v -10 c 0,-0.657609 -0.0599,-1.178521 -0.22461,-1.617188 -0.16466,-0.438666 -0.46152,-0.79038 -0.83789,-0.998046 -0.75275,-0.415332 -1.67344,-0.370247 -2.93164,-0.384766 h -0.004 -5.0039 z m 0.006,1 h 5 c 1.25852,0.01469 2.08717,0.0598 2.45312,0.261719 0.18341,0.101196 0.28916,0.212745 0.38672,0.472656 0.0976,0.259911 0.16016,0.673234 0.16016,1.265625 v 10 c 0,0.592391 -0.0626,1.005719 -0.16016,1.265625 -0.0976,0.259906 -0.20331,0.371461 -0.38672,0.472656 -0.36595,0.201913 -1.1946,0.247007 -2.45312,0.261719 h -4.99414 -0.006 c -1.25853,-0.01474 -2.08912,-0.05981 -2.45508,-0.261719 -0.18341,-0.101193 -0.2872,-0.212755 -0.38476,-0.472656 -0.0976,-0.259901 -0.16016,-0.673234 -0.16016,-1.265625 v -10 c 0,-0.592391 0.0626,-1.005719 0.16016,-1.265625 0.0976,-0.259906 0.20135,-0.371462 0.38476,-0.472656 0.36596,-0.201913 1.19655,-0.247007 2.45508,-0.261719 z"
       id="path7241"
       style="color:#000000;font-style:normal;font-variant:normal;font-weight:normal;font-stretch:normal;font-size:medium;line-height:normal;font-family:sans-serif;font-variant-ligatures:normal;font-variant-position:normal;font-variant-caps:normal;font-variant-numeric:normal;font-variant-alternates:normal;font-feature-settings:normal;text-indent:0;text-align:start;text-decoration:none;text-decoration-line:none;text-decoration-style:solid;text-decoration-color:#000000;letter-spacing:normal;word-spacing:normal;text-transform:none;writing-mode:lr-tb;direction:ltr;text-orientation:mixed;dominant-baseline:auto;baseline-shift:baseline;text-anchor:start;white-space:normal;shape-padding:0;clip-rule:nonzero;display:inline;overflow:visible;visibility:visible;opacity:1;isolation:auto;mix-blend-mode:normal;color-interpolation:sRGB;color-interpolation-filters:linearRGB;solid-color:#000000;solid-opacity:1;vector-effect:none;fill:#808080;fill-opacity:1;fill-rule:nonzero;stroke:none;stroke-width:0.8;stroke-linecap:butt;stroke-linejoin:miter;stroke-miterlimit:4;stroke-dasharray:none;stroke-dashoffset:0;stroke-opacity:1;marker:none;color-rendering:auto;image-rendering:auto;shape-rendering:auto;text-rendering:auto;enable-background:accumulate" />
    <path
       d="m 497,63 v 1 c -0.54535,0 -1,0.45465 -1,1 h -1 v 1 h 1 v 1 h -1 v 1 h 1 v 1 h -1 v 1 h 1 v 1 h -1 v 1 h 1 c 0,0.54535 0.45465,1 1,1 v 1 h 1 v -1 h 1 v 1 h 1 v -1 h 1 v 1 h 1 v -1 c 0.54535,0 1,-0.45465 1,-1 h 1 v -1 h -1 v -1 h 1 v -1 h -1 v -1 h 1 v -1 h -1 v -1 h 1 v -1 h -1 c 0,-0.54535 -0.45465,-1 -1,-1 v -1 h -1 v 1 h -1 v -1 h -1 v 1 h -1 v -1 z m 0.5,2 h 4 c 0,0 0.5,0 0.5,0.5 v 6 c 0,0.5 -0.5,0.5 -0.5,0.5 h -4 c -0.5,0 -0.5,-0.5 -0.5,-0.5 v -6 c 0,0 0,-0.5 0.5,-0.5 z"
       id="rect7253"
       style="opacity:1;fill:#808080;fill-opacity:1;stroke:none;stroke-width:1.6;stroke-linecap:butt;stroke-linejoin:round;stroke-miterlimit:4;stroke-dasharray:none;stroke-dashoffset:0;stroke-opacity:1" />
  </g>
  <g
     id="layer3"
     style="display:inline;stroke-width:0.8"
     transform="matrix(1.25,0,0,1.25,-612.375,-73)" />
  <g
     id="g1833"
     style="display:inline;stroke-width:0.8"
     transform="matrix(1.25,0,0,1.25,-612.375,-73)" />
  <g
     id="layer1"
     style="display:inline;stroke-width:0.8"
     transform="matrix(1.25,0,0,1.25,-612.375,-73)" />
</svg>
