<?xml version="1.0" encoding="UTF-8" standalone="no"?>
<svg viewBox="0 1 24 24" height="24" width="24" version="1.1" id="svg8" sodipodi:docname="text-underline.svg" inkscape:version="1.1 (ce6663b3b7, 2021-05-25)"
   xmlns:inkscape="http://www.inkscape.org/namespaces/inkscape"
   xmlns:sodipodi="http://sodipodi.sourceforge.net/DTD/sodipodi-0.dtd"
   xmlns="http://www.w3.org/2000/svg"
   xmlns:svg="http://www.w3.org/2000/svg">
   <defs id="defs12" />
   <sodipodi:namedview id="namedview10" pagecolor="#ffffff" bordercolor="#666666" borderopacity="1.0" inkscape:pageshadow="2" inkscape:pageopacity="0.0" inkscape:pagecheckerboard="0" showgrid="true" inkscape:zoom="19.79899" inkscape:cx="6.0356614" inkscape:cy="16.389725" inkscape:window-width="1920" inkscape:window-height="1016" inkscape:window-x="0" inkscape:window-y="27" inkscape:window-maximized="1" inkscape:current-layer="svg8">
      <inkscape:grid type="xygrid" id="grid829" />
   </sodipodi:namedview>
   <path style="line-height:1000%;-inkscape-font-specification:Ubuntu;text-align:center;fill:#808080;stroke-width:0.666278" d="m 11.947469,18.987743 c -1.031601,0 -1.922121,-0.141578 -2.671558,-0.424748 -0.7494371,-0.296172 -1.3713,-0.698908 -1.8655883,-1.208205 -0.4802801,-0.522304 -0.8404903,-1.136662 -1.0806303,-1.843075 -0.226132,-0.72042 -0.3391979,-1.511882 -0.3391979,-2.374385 v -10.13733 h 3.3064287 v 9.861169 c 0,0.593346 0.063537,1.102143 0.1906112,1.52639 0.1420834,0.41024 0.32569,0.749438 0.5508216,1.017594 0.24014,0.254148 0.522805,0.437755 0.847994,0.550821 0.340199,0.113066 0.707913,0.169599 1.103144,0.169599 0.80547,0 1.455849,-0.247144 1.951138,-0.741432 0.508297,-0.495289 0.762445,-1.33628 0.762445,-2.522972 v -9.861169 h 3.306429 v 10.13733 c 0,0.861503 -0.120071,1.652964 -0.360211,2.374385 -0.24014,0.72042 -0.607354,1.341783 -1.101642,1.864088 -0.495289,0.509296 -1.124156,0.905027 -1.886601,1.187192 -0.763445,0.283166 -1.667973,0.424748 -2.713583,0.424748 z" id="path2" />
   <path style="fill:#808080;stroke-width:1" d="m 2.994747,20 v 1 h 18.010506 v -1 z" id="path4" />
</svg>
