<?xml version="1.0" encoding="UTF-8" standalone="no"?>
<svg
   height="24"
   width="24"
   version="1.1"
   id="svg8"
   sodipodi:docname="text-underline.svg"
   inkscape:version="1.1 (ce6663b3b7, 2021-05-25)"
   xmlns:inkscape="http://www.inkscape.org/namespaces/inkscape"
   xmlns:sodipodi="http://sodipodi.sourceforge.net/DTD/sodipodi-0.dtd"
   xmlns="http://www.w3.org/2000/svg"
   xmlns:svg="http://www.w3.org/2000/svg">
  <defs
     id="defs12" />
  <sodipodi:namedview
     id="namedview10"
     pagecolor="#ffffff"
     bordercolor="#666666"
     borderopacity="1.0"
     inkscape:pageshadow="2"
     inkscape:pageopacity="0.0"
     inkscape:pagecheckerboard="0"
     showgrid="true"
     inkscape:zoom="39.59798"
     inkscape:cx="4.9623744"
     inkscape:cy="6.8311566"
     inkscape:window-width="1920"
     inkscape:window-height="1016"
     inkscape:window-x="0"
     inkscape:window-y="27"
     inkscape:window-maximized="1"
     inkscape:current-layer="svg8">
    <inkscape:grid
       type="xygrid"
       id="grid829" />
  </sodipodi:namedview>
  <g
     fill="#808080"
     id="g6"
     transform="matrix(1.5008755,0,0,1.5008755,-0.007004,-0.01225706)"
     style="stroke-width:0.666278">
    <path
       d="m 7.965,11.993 q -1.031,0 -1.78,-0.283 -0.749,-0.296 -1.243,-0.805 -0.48,-0.522 -0.72,-1.228 -0.226,-0.72 -0.226,-1.582 v -6.088 h 2.203 v 5.904 q 0,0.593 0.127,1.017 0.142,0.41 0.367,0.678 0.24,0.254 0.565,0.367 0.34,0.113 0.735,0.113 0.805,0 1.3,-0.494 0.508,-0.495 0.508,-1.681 v -5.904 h 2.203 v 6.088 q 0,0.861 -0.24,1.582 -0.24,0.72 -0.734,1.242 -0.495,0.509 -1.257,0.791 -0.763,0.283 -1.808,0.283 z"
       style="line-height:1000%;-inkscape-font-specification:Ubuntu;text-align:center;stroke-width:0.443926"
       font-weight="700"
       font-family="Ubuntu"
       letter-spacing="0"
       word-spacing="0"
       text-anchor="middle"
       id="path2" />
    <path
       d="m 2,13 v 1 h 12 v -1 z"
       id="path4"
       style="stroke-width:0.666278" />
  </g>
</svg>
