<?xml version="1.0" encoding="UTF-8" standalone="no"?>
<svg
   height="24"
   width="24"
   version="1.1"
   id="svg4"
   sodipodi:docname="text-bold.svg"
   inkscape:version="1.1 (ce6663b3b7, 2021-05-25)"
   xmlns:inkscape="http://www.inkscape.org/namespaces/inkscape"
   xmlns:sodipodi="http://sodipodi.sourceforge.net/DTD/sodipodi-0.dtd"
   xmlns="http://www.w3.org/2000/svg"
   xmlns:svg="http://www.w3.org/2000/svg">
  <defs
     id="defs8" />
  <sodipodi:namedview
     id="namedview6"
     pagecolor="#ffffff"
     bordercolor="#666666"
     borderopacity="1.0"
     inkscape:pageshadow="2"
     inkscape:pageopacity="0.0"
     inkscape:pagecheckerboard="0"
     showgrid="true"
     inkscape:zoom="19.79899"
     inkscape:cx="3.7628182"
     inkscape:cy="9.4196725"
     inkscape:window-width="1920"
     inkscape:window-height="1016"
     inkscape:window-x="0"
     inkscape:window-y="27"
     inkscape:window-maximized="1"
     inkscape:current-layer="svg4">
    <inkscape:grid
       type="xygrid"
       id="grid825" />
  </sodipodi:namedview>
  <path
     d="m 10.92225,21 q -1.4445003,0 -2.8905004,-0.102 -1.4190001,-0.075 -2.9655001,-0.405 v -17.037 q 1.2165,-0.228 2.6625,-0.33 1.4445001,-0.126 2.6865005,-0.126 1.674001,0 3.0675,0.2535 1.4205,0.228 2.4345,0.81 1.014,0.585 1.572,1.548 0.581999,0.9375001 0.581999,2.3325001 0,2.1044999 -2.027999,3.3210009 1.673999,0.632999 2.281499,1.724999 0.609001,1.089 0.609001,2.4585 0,2.763 -2.028001,4.1565 -2.0025,1.395 -5.983499,1.395 z m -2.0010004,-7.884 v 4.5375 q 0.4305001,0.051 0.9375001,0.075 0.5070003,0.027 1.1159993,0.027 1.7745,0 2.865001,-0.506999 1.090499,-0.507 1.090499,-1.8765 0,-1.216501 -0.9135,-1.725001 -0.912,-0.531 -2.61,-0.531 z m 0,-3.018 h 1.9275004 q 1.824,0 2.61,-0.4559999 0.786001,-0.48 0.786001,-1.521 0,-1.065 -0.81,-1.4955 -0.811501,-0.4305 -2.385,-0.4305 -0.505501,0 -1.0890014,0.024 -0.5835,0 -1.0395001,0.051 z"
     style="line-height:1000%;-inkscape-font-specification:'Ubuntu Bold';stroke-width:0.999999"
     font-weight="700"
     font-family="Ubuntu"
     letter-spacing="0"
     word-spacing="0"
     fill="#808080"
     id="path2" />
</svg>
