<svg height="24" width="24" xmlns="http://www.w3.org/2000/svg"><path style="fill:gray;stroke-width:.5;stroke-linecap:square" d="M5 20h14v1H5z"/><path style="fill:gray;stroke-width:.5;stroke-linecap:round;stroke-linejoin:round;fill-opacity:1" d="M10 2v6H6.771l.262.68s.63 1.636 1.512 3.588c.881 1.951 1.996 4.209 3.064 5.544l.391.489.39-.488c1.07-1.336 2.184-3.594 3.065-5.545a77.032 77.032 0 0 0 1.512-3.588l.262-.68H14V2h-4zm1 1h2v6h2.748c-.181.462-.501 1.304-1.203 2.857-.753 1.668-1.698 3.385-2.545 4.622-.847-1.237-1.792-2.954-2.545-4.622C8.753 10.304 8.433 9.462 8.252 9H11V3z"/></svg>