<svg height="24" width="24" xmlns="http://www.w3.org/2000/svg"><path style="color:#000;fill:gray;fill-opacity:1;-inkscape-stroke:none" d="M9 2c-1.042 0-1.998.115-2.758.57a2.428 2.428 0 0 0-.906.963 2.933 2.933 0 0 0-.248.676A3.298 3.298 0 0 0 5 5v12a3.298 3.298 0 0 0 .193 1.143 2.54 2.54 0 0 0 .535.873 2.394 2.394 0 0 0 .514.414c.76.455 1.716.57 2.758.57h9c1.042 0 1.998-.115 2.758-.57a2.427 2.427 0 0 0 .906-.963 2.932 2.932 0 0 0 .248-.676A3.298 3.298 0 0 0 22 17V5a3.298 3.298 0 0 0-.193-1.143 2.539 2.539 0 0 0-.535-.873 2.393 2.393 0 0 0-.514-.414C19.998 2.115 19.042 2 18 2H9zm4.5 3C15.427 5 17 6.573 17 8.5S15.427 12 13.5 12A3.508 3.508 0 0 1 10 8.5C10 6.573 11.573 5 13.5 5zm0 1A2.492 2.492 0 0 0 11 8.5c0 1.387 1.113 2.5 2.5 2.5S16 9.887 16 8.5 14.887 6 13.5 6zm-1 7h2c1.167 0 2.259.196 3.105.75.847.554 1.395 1.508 1.395 2.75v.5h-1v-.5c0-.974-.344-1.52-.943-1.912-.6-.392-1.508-.588-2.557-.588h-2c-1.049 0-1.957.196-2.557.588C9.344 14.98 9 15.526 9 16.5v.5H8v-.5c0-1.242.548-2.196 1.395-2.75.846-.554 1.938-.75 3.105-.75z"/><path style="color:#000;fill:gray;fill-opacity:1;-inkscape-stroke:none" d="M4 4.74c-.01.007-.02.012-.03.02a2.394 2.394 0 0 0-.454.482 2.54 2.54 0 0 0-.323.615A3.298 3.298 0 0 0 3 7v12a3.298 3.298 0 0 0 .193 1.143 2.54 2.54 0 0 0 .535.873 2.394 2.394 0 0 0 .514.414c.76.455 1.716.57 2.758.57h9c1.042 0 1.998-.115 2.758-.57a2.427 2.427 0 0 0 .513-.414l.014-.016H6v-.059c-.51-.065-.935-.187-1.242-.37C4.268 20.275 4 19.874 4 19V4.74z"/></svg>