<?xml version="1.0" encoding="UTF-8" standalone="no"?>
<svg
   width="24"
   height="24"
   viewBox="0 0 6.3499998 6.3500002"
   version="1.1"
   id="svg8"
   sodipodi:docname="medium.svg"
   inkscape:version="1.1.2 (76b9e6a115, 2022-02-25)"
   xmlns:inkscape="http://www.inkscape.org/namespaces/inkscape"
   xmlns:sodipodi="http://sodipodi.sourceforge.net/DTD/sodipodi-0.dtd"
   xmlns="http://www.w3.org/2000/svg"
   xmlns:svg="http://www.w3.org/2000/svg"
   xmlns:rdf="http://www.w3.org/1999/02/22-rdf-syntax-ns#"
   xmlns:cc="http://creativecommons.org/ns#"
   xmlns:dc="http://purl.org/dc/elements/1.1/">
  <defs
     id="defs2" />
  <sodipodi:namedview
     id="base"
     pagecolor="#ffffff"
     bordercolor="#666666"
     borderopacity="1.0"
     inkscape:pageopacity="0.0"
     inkscape:pageshadow="2"
     inkscape:zoom="4"
     inkscape:cx="-57.625"
     inkscape:cy="-3.375"
     inkscape:document-units="px"
     inkscape:current-layer="layer1"
     inkscape:document-rotation="0"
     showgrid="false"
     units="px"
     inkscape:snap-center="true"
     inkscape:window-width="1920"
     inkscape:window-height="1016"
     inkscape:window-x="0"
     inkscape:window-y="27"
     inkscape:window-maximized="1"
     inkscape:pagecheckerboard="0">
    <inkscape:grid
       type="xygrid"
       id="grid833" />
    <inkscape:grid
       type="xygrid"
       id="grid846"
       dotted="true"
       spacingx="0.13229167"
       spacingy="0.13229167"
       empspacing="10" />
  </sodipodi:namedview>
  <metadata
     id="metadata5">
    <rdf:RDF>
      <cc:Work
         rdf:about="">
        <dc:format>image/svg+xml</dc:format>
        <dc:type
           rdf:resource="http://purl.org/dc/dcmitype/StillImage" />
      </cc:Work>
    </rdf:RDF>
  </metadata>
  <g
     inkscape:label="Calque 1"
     inkscape:groupmode="layer"
     id="layer1">
    <g
       id="layer9"
       label="status"
       style="display:inline;stroke-width:0.8"
       transform="matrix(0.33072916,0,0,0.33072916,-294.81205,62.37552)" />
    <g
       id="layer2"
       style="display:inline;stroke-width:0.8"
       transform="matrix(0.33072916,0,0,0.33072916,-215.10626,-59.002082)" />
    <g
       id="layer4"
       style="display:inline;stroke-width:0.8"
       transform="matrix(0.33072916,0,0,0.33072916,-215.10626,-59.002082)" />
    <g
       id="g1812"
       style="display:inline;stroke-width:0.8"
       transform="matrix(0.33072916,0,0,0.33072916,-215.10626,-59.002082)" />
    <g
       id="g6217"
       style="display:inline;stroke-width:0.8"
       transform="matrix(0.33072916,0,0,0.33072916,-215.10626,-59.002082)" />
    <g
       id="layer3"
       style="display:inline;stroke-width:0.8"
       transform="matrix(0.33072916,0,0,0.33072916,-215.10626,-59.002082)" />
    <g
       id="layer1-6"
       style="display:inline;stroke-width:0.8"
       transform="matrix(0.33072916,0,0,0.33072916,-215.10626,-59.002082)" />
    <path
       id="path47"
       style="fill:#808080;fill-rule:evenodd;stroke-width:0.999999;stroke-linecap:square;stroke-linejoin:round"
       d="M 11.5 2 A 9.4999995 9.4999995 0 0 0 2 11.5 A 9.4999995 9.4999995 0 0 0 6.75 19.726562 L 7.2519531 18.857422 A 8.4999997 8.4999997 0 0 1 4.4121094 16.169922 L 6.1210938 15.183594 L 5.6210938 14.316406 L 3.9121094 15.302734 A 8.4999997 8.4999997 0 0 1 3.0371094 12 L 5 12 L 5 11 L 3.0351562 11 A 8.4999997 8.4999997 0 0 1 3.9160156 7.6992188 L 5.6210938 8.6835938 L 6.1210938 7.8164062 L 4.40625 6.828125 A 8.4999997 8.4999997 0 0 1 6.828125 4.40625 L 7.8164062 6.1210938 L 8.6835938 5.6210938 L 7.6992188 3.9160156 A 8.4999997 8.4999997 0 0 1 11 3.0351562 L 11 5 L 12 5 L 12 3.0175781 A 8.4999997 8.4999997 0 0 1 15.294922 3.9257812 L 14.316406 5.6210938 L 15.183594 6.1210938 L 16.162109 4.4257812 A 8.4999997 8.4999997 0 0 1 18.595703 6.8261719 L 16.878906 7.8164062 L 17.378906 8.6835938 L 19.097656 7.6914062 A 8.4999997 8.4999997 0 0 1 19.982422 11 L 18 11 L 18 12 L 19.962891 12 A 8.4999997 8.4999997 0 0 1 19.087891 15.302734 L 17.378906 14.316406 L 16.878906 15.183594 L 18.587891 16.169922 A 8.4999997 8.4999997 0 0 1 15.748047 18.857422 L 16.25 19.726562 A 9.4999995 9.4999995 0 0 0 21 11.5 A 9.4999995 9.4999995 0 0 0 11.5 2 z "
       transform="scale(0.26458333)" />
    <path
       id="path938"
       style="fill:#808080;fill-rule:evenodd;stroke-width:1.6;stroke-linecap:square;stroke-linejoin:round;fill-opacity:1.0"
       d="M 11 4 L 11 10.085938 A 1.5 1.5 0 0 0 10 11.5 A 1.5 1.5 0 0 0 11.5 13 A 1.5 1.5 0 0 0 13 11.5 A 1.5 1.5 0 0 0 12 10.085938 L 12 4 L 11 4 z "
       transform="scale(0.26458333)" />
  </g>
</svg>
