<svg height="24" width="24" xmlns="http://www.w3.org/2000/svg"><path style="color:#000;fill:gray;-inkscape-stroke:none" d="M12 2C9.239 2 7 4.462 7 7.5S9.239 13 12 13s5-2.462 5-5.5S14.761 2 12 2zm0 13c-4.39.002-6.683 1.023-7.86 2.357C2.965 18.692 3 20.264 3 21h9.8a4 4 0 0 1-.3-1.5 4 4 0 0 1 4-4 4 4 0 0 1 .035 0c-1.183-.315-2.667-.5-4.535-.5z"/><path style="color:#000;fill:gray;stroke-linejoin:round;-inkscape-stroke:none" d="M18 12v5.502A2.487 2.487 0 0 0 16.5 17a2.508 2.508 0 0 0-2.5 2.5c0 1.375 1.125 2.5 2.5 2.5s2.5-1.125 2.5-2.5V14h2.5v-2H18z"/></svg>