<?xml version="1.0" encoding="UTF-8" standalone="no"?>
<svg
   viewBox="0 1 24 24"
   height="24"
   id="svg7384"
   version="1.1"
   width="24"
   sodipodi:docname="queue.svg"
   inkscape:version="1.2.2 (1:1.2.2+202212051551+b0a8486541)"
   xmlns:inkscape="http://www.inkscape.org/namespaces/inkscape"
   xmlns:sodipodi="http://sodipodi.sourceforge.net/DTD/sodipodi-0.dtd"
   xmlns="http://www.w3.org/2000/svg"
   xmlns:svg="http://www.w3.org/2000/svg"
   xmlns:rdf="http://www.w3.org/1999/02/22-rdf-syntax-ns#"
   xmlns:cc="http://creativecommons.org/ns#"
   xmlns:dc="http://purl.org/dc/elements/1.1/">
  <sodipodi:namedview
     id="namedview24"
     pagecolor="#ffffff"
     bordercolor="#666666"
     borderopacity="1.0"
     inkscape:pageshadow="2"
     inkscape:pageopacity="0.0"
     inkscape:pagecheckerboard="0"
     showgrid="true"
     inkscape:zoom="23.169003"
     inkscape:cx="16.314901"
     inkscape:cy="10.293926"
     inkscape:window-width="1850"
     inkscape:window-height="1016"
     inkscape:window-x="0"
     inkscape:window-y="0"
     inkscape:window-maximized="1"
     inkscape:current-layer="svg7384"
     inkscape:showpageshadow="2"
     inkscape:deskcolor="#d1d1d1">
    <inkscape:grid
       type="xygrid"
       id="grid841" />
  </sodipodi:namedview>
  <metadata
     id="metadata20854">
    <rdf:RDF>
      <cc:Work
         rdf:about="">
        <dc:format>image/svg+xml</dc:format>
        <dc:type
           rdf:resource="http://purl.org/dc/dcmitype/StillImage" />
      </cc:Work>
    </rdf:RDF>
  </metadata>
  <defs
     id="defs7386">
    <linearGradient
       id="linearGradient5606"
       inkscape:swatch="solid">
      <stop
         id="stop5608"
         offset="0"
         style="stop-color:#000000;stop-opacity:1;" />
    </linearGradient>
    <linearGradient
       id="linearGradient4526"
       inkscape:swatch="solid">
      <stop
         id="stop4528"
         offset="0"
         style="stop-color:#ffffff;stop-opacity:1;" />
    </linearGradient>
    <linearGradient
       id="linearGradient3600-4"
       inkscape:swatch="gradient">
      <stop
         id="stop3602-7"
         offset="0"
         style="stop-color:#f4f4f4;stop-opacity:1" />
      <stop
         id="stop3604-6"
         offset="1"
         style="stop-color:#dbdbdb;stop-opacity:1" />
    </linearGradient>
  </defs>
  <path
     id="path874"
     style="color:#000000;fill:#808080;fill-opacity:1;-inkscape-stroke:none"
     d="m 16,2 c 1.041663,0 1.998306,0.1146095 2.757812,0.5703125 c 0.09494,0.056963 0.185595,0.1204333 0.271485,0.1894531 c 0.08589,0.069024 0.166158,0.1439796 0.242187,0.2246094 c 0.07603,0.080627 0.147521,0.1660427 0.212891,0.2578125 c 0.06537,0.091771 0.125788,0.1885578 0.179687,0.2910156 c 0.0539,0.1024588 0.100949,0.211532 0.142579,0.3242188 c 0.04163,0.1126868 0.07691,0.2291057 0.105468,0.3515625 c 0.02856,0.1224578 0.05173,0.2510427 0.06641,0.3828125 c 0.01468,0.1317696 0.02148,0.2675783 0.02148,0.4082031 v 12 c 0,0.140625 -0.0068,0.276433 -0.02148,0.408203 c -0.01468,0.13177 -0.03785,0.260355 -0.06641,0.382813 c -0.02856,0.122457 -0.06384,0.238875 -0.105468,0.351562 c -0.04163,0.112687 -0.08868,0.22176 -0.142579,0.324219 c -0.0539,0.102458 -0.11432,0.199246 -0.179687,0.291015 c -0.06537,0.09177 -0.136863,0.177186 -0.212891,0.257813 c -0.07603,0.08063 -0.156301,0.155585 -0.242187,0.224609 c -0.08589,0.06902 -0.176546,0.132491 -0.271485,0.189454 c -0.759506,0.455702 -1.716149,0.570312 -2.757812,0.570312 h -3 h -6 c -1.041663,0 -1.998306,-0.11461 -2.757812,-0.570312 c -0.094939,-0.05696 -0.185595,-0.120434 -0.271485,-0.189454 c -0.085885,-0.06902 -0.166157,-0.143979 -0.242187,-0.224609 c -0.076028,-0.08063 -0.147521,-0.166043 -0.212891,-0.257813 c -0.065367,-0.09177 -0.125788,-0.188557 -0.179687,-0.291015 c -0.053898,-0.102459 -0.100949,-0.211532 -0.142579,-0.324219 c -0.041629,-0.112687 -0.076908,-0.229105 -0.105468,-0.351562 c -0.02856,-0.122458 -0.051727,-0.251043 -0.066407,-0.382813 c -0.01468,-0.13177 -0.021484,-0.267578 -0.021484,-0.408203 v -12 c 0,-0.1406248 0.0068,-0.2764335 0.021484,-0.4082031 c 0.01468,-0.1317698 0.037847,-0.2603547 0.066407,-0.3828125 c 0.028559,-0.1224568 0.063838,-0.2388757 0.105468,-0.3515625 c 0.04163,-0.1126868 0.088679,-0.22176 0.142579,-0.3242188 c 0.053899,-0.1024578 0.114317,-0.1992447 0.179687,-0.2910156 c 0.06537,-0.09177 0.136861,-0.1771856 0.212891,-0.2578125 c 0.07603,-0.08063 0.156297,-0.1555854 0.242187,-0.2246094 c 0.08589,-0.06902 0.176545,-0.1324902 0.271485,-0.1894531 c 0.759506,-0.455703 1.716149,-0.5703125 2.757812,-0.5703125 h 6 z m 0,1 h -3 h -6 c -0.95833,0 -1.751698,0.1353931 -2.242188,0.4296875 c -0.490489,0.2942934 -0.757812,0.6953153 -0.757812,1.5703125 v 12 c 0,0.874997 0.267323,1.27602 0.757812,1.570312 c 0.49049,0.294295 1.283858,0.429688 2.242188,0.429688 h 6 h 3 c 0.95833,0 1.751697,-0.135393 2.242187,-0.429688 c 0.490489,-0.294292 0.757813,-0.695315 0.757813,-1.570312 v -12 c 0,-0.8749972 -0.267324,-1.2760191 -0.757813,-1.5703125 c -0.49049,-0.2942944 -1.283857,-0.4296875 -2.242187,-0.4296875 z" />
  <path
     id="path450"
     style="color:#000000;fill:#808080;fill-opacity:1;-inkscape-stroke:none"
     d="m 21,4.7402344 c 0.0092,0.00721 0.02016,0.012192 0.0293,0.019531 c 0.08589,0.069024 0.166158,0.1439798 0.242187,0.2246094 c 0.07603,0.080627 0.147521,0.1660429 0.212891,0.2578125 c 0.06537,0.091771 0.125788,0.188558 0.179687,0.2910156 c 0.0539,0.1024586 0.100949,0.2115322 0.142579,0.3242188 c 0.04163,0.1126866 0.07691,0.2291059 0.105468,0.3515625 c 0.02856,0.1224576 0.05173,0.2510429 0.06641,0.3828125 c 0.01468,0.1317692 0.02148,0.2675785 0.02148,0.4082031 v 12 c 0,0.140625 -0.0068,0.276433 -0.02148,0.408203 c -0.01468,0.13177 -0.03785,0.260355 -0.06641,0.382813 c -0.02856,0.122457 -0.06384,0.238875 -0.105468,0.351562 c -0.04163,0.112687 -0.08868,0.22176 -0.142579,0.324219 c -0.0539,0.102458 -0.11432,0.199248 -0.179687,0.291015 c -0.06537,0.09177 -0.136863,0.177186 -0.212891,0.257813 c -0.07603,0.08063 -0.156302,0.155585 -0.242187,0.224609 c -0.08589,0.06902 -0.176546,0.132491 -0.271485,0.189454 c -0.759504,0.4557 -1.716151,0.570312 -2.757812,0.570312 h -3 h -6 c -1.041661,0 -1.998308,-0.114612 -2.757812,-0.570312 c -0.09494,-0.05696 -0.185595,-0.120434 -0.271485,-0.189454 c -0.08589,-0.06902 -0.166157,-0.143979 -0.242187,-0.224609 c -0.00472,-0.005 -0.00899,-0.01058 -0.013672,-0.01563 h 3.285156 h 9 h 1 v -0.05859 c 0.510337,-0.06547 0.935257,-0.186935 1.242187,-0.371094 c 0.490488,-0.29429 0.757813,-0.695317 0.757813,-1.570312 v -6 v -6 z" />
  <path
     d="m 8,6 v 10 c 0,0 4.960572,-2.360858 8.571428,-5 c -3.610856,-2.6391429 -8.571428,-5 -8.571428,-5 z"
     color="#000000"
     fill="#808080"
     overflow="visible"
     stroke-width="1.1667"
     id="path298" />
</svg>
