<svg height="24" width="24" xmlns="http://www.w3.org/2000/svg"><path style="color:#000;fill:gray;fill-opacity:1;-inkscape-stroke:none" d="M7 2c-1.042 0-1.998.115-2.758.57a2.428 2.428 0 0 0-.906.963 2.932 2.932 0 0 0-.248.676A3.298 3.298 0 0 0 3 5v12a3.298 3.298 0 0 0 .193 1.143 2.54 2.54 0 0 0 .535.873 2.393 2.393 0 0 0 .514.414c.76.455 1.716.57 2.758.57h9c1.042 0 1.998-.115 2.758-.57a2.428 2.428 0 0 0 .906-.963 2.933 2.933 0 0 0 .248-.676A3.298 3.298 0 0 0 20 17V5a3.298 3.298 0 0 0-.193-1.143 2.539 2.539 0 0 0-.535-.873 2.393 2.393 0 0 0-.514-.414C17.998 2.115 17.042 2 16 2H7zm1 4s4.961 2.36 8.572 5C12.962 13.64 8 16 8 16V6z"/><path style="color:#000;fill:gray;fill-opacity:1;-inkscape-stroke:none" d="M21 4.74c.01.007.02.012.03.02a2.393 2.393 0 0 1 .454.482 2.539 2.539 0 0 1 .323.615A3.298 3.298 0 0 1 22 7v12a3.298 3.298 0 0 1-.193 1.143 2.54 2.54 0 0 1-.535.873 2.394 2.394 0 0 1-.514.414c-.76.455-1.716.57-2.758.57H9c-1.042 0-1.998-.115-2.758-.57a2.427 2.427 0 0 1-.513-.414L5.715 21H19v-.059c.51-.065.935-.187 1.242-.37.49-.295.758-.696.758-1.571V7z"/></svg>