<?xml version="1.0" encoding="UTF-8" standalone="no"?>
<svg
   viewBox="0 0 24 24"
   height="24"
   id="svg7384"
   version="1.1"
   width="24"
   sodipodi:docname="queue-filled.svg"
   inkscape:version="1.2.2 (1:1.2.2+202212051551+b0a8486541)"
   xmlns:inkscape="http://www.inkscape.org/namespaces/inkscape"
   xmlns:sodipodi="http://sodipodi.sourceforge.net/DTD/sodipodi-0.dtd"
   xmlns="http://www.w3.org/2000/svg"
   xmlns:svg="http://www.w3.org/2000/svg"
   xmlns:rdf="http://www.w3.org/1999/02/22-rdf-syntax-ns#"
   xmlns:cc="http://creativecommons.org/ns#"
   xmlns:dc="http://purl.org/dc/elements/1.1/">
  <sodipodi:namedview
     id="namedview24"
     pagecolor="#ffffff"
     bordercolor="#666666"
     borderopacity="1.0"
     inkscape:pageshadow="2"
     inkscape:pageopacity="0.0"
     inkscape:pagecheckerboard="0"
     showgrid="true"
     inkscape:zoom="23.169003"
     inkscape:cx="16.358063"
     inkscape:cy="10.337087"
     inkscape:window-width="1850"
     inkscape:window-height="1016"
     inkscape:window-x="0"
     inkscape:window-y="0"
     inkscape:window-maximized="1"
     inkscape:current-layer="svg7384"
     inkscape:showpageshadow="2"
     inkscape:deskcolor="#d1d1d1">
    <inkscape:grid
       type="xygrid"
       id="grid841" />
  </sodipodi:namedview>
  <metadata
     id="metadata20854">
    <rdf:RDF>
      <cc:Work
         rdf:about="">
        <dc:format>image/svg+xml</dc:format>
        <dc:type
           rdf:resource="http://purl.org/dc/dcmitype/StillImage" />
      </cc:Work>
    </rdf:RDF>
  </metadata>
  <defs
     id="defs7386">
    <linearGradient
       id="linearGradient5606"
       inkscape:swatch="solid">
      <stop
         id="stop5608"
         offset="0"
         style="stop-color:#000000;stop-opacity:1;" />
    </linearGradient>
    <linearGradient
       id="linearGradient4526"
       inkscape:swatch="solid">
      <stop
         id="stop4528"
         offset="0"
         style="stop-color:#ffffff;stop-opacity:1;" />
    </linearGradient>
    <linearGradient
       id="linearGradient3600-4"
       inkscape:swatch="gradient">
      <stop
         id="stop3602-7"
         offset="0"
         style="stop-color:#f4f4f4;stop-opacity:1" />
      <stop
         id="stop3604-6"
         offset="1"
         style="stop-color:#dbdbdb;stop-opacity:1" />
    </linearGradient>
  </defs>
  <path
     id="path874"
     style="color:#000000;fill:#808080;fill-opacity:1;-inkscape-stroke:none"
     d="M 7 2 C 5.958338 2 5.0016927 2.11461 4.2421875 2.5703125 C 4.1472476 2.6272753 4.056593 2.6907457 3.9707031 2.7597656 C 3.8848132 2.8287896 3.8045455 2.9037451 3.7285156 2.984375 C 3.6524857 3.0650018 3.5809949 3.1504176 3.515625 3.2421875 C 3.4502551 3.3339583 3.3898364 3.4307454 3.3359375 3.5332031 C 3.2820376 3.6356618 3.2349893 3.7447352 3.1933594 3.8574219 C 3.1517294 3.9701086 3.1164496 4.0865277 3.0878906 4.2089844 C 3.0593307 4.3314421 3.0361644 4.4600272 3.0214844 4.5917969 C 3.0068004 4.7235663 3 4.8593753 3 5 L 3 17 C 3 17.140625 3.0068044 17.276433 3.0214844 17.408203 C 3.0361644 17.539973 3.0593307 17.668558 3.0878906 17.791016 C 3.1164506 17.913473 3.1517304 18.029891 3.1933594 18.142578 C 3.2349893 18.255265 3.2820396 18.364338 3.3359375 18.466797 C 3.3898364 18.569255 3.4502581 18.666043 3.515625 18.757812 C 3.5809949 18.849582 3.6524877 18.934995 3.7285156 19.015625 C 3.8045455 19.096255 3.8848182 19.171214 3.9707031 19.240234 C 4.056593 19.309254 4.1472486 19.372728 4.2421875 19.429688 C 5.0016927 19.885389 5.958338 20 7 20 L 13 20 L 16 20 C 17.041662 20 17.998307 19.885389 18.757812 19.429688 C 18.852751 19.372725 18.943407 19.309254 19.029297 19.240234 C 19.115183 19.17121 19.195454 19.096255 19.271484 19.015625 C 19.347512 18.934998 19.419005 18.849582 19.484375 18.757812 C 19.549742 18.666044 19.610163 18.569255 19.664062 18.466797 C 19.717961 18.364338 19.765011 18.255265 19.806641 18.142578 C 19.848269 18.029891 19.883549 17.913473 19.912109 17.791016 C 19.940669 17.668558 19.963836 17.539973 19.978516 17.408203 C 19.993196 17.276433 20 17.140625 20 17 L 20 5 C 20 4.8593753 19.993196 4.7235663 19.978516 4.5917969 C 19.963836 4.4600272 19.940669 4.3314421 19.912109 4.2089844 C 19.883551 4.0865277 19.848271 3.9701086 19.806641 3.8574219 C 19.765011 3.7447352 19.717962 3.6356618 19.664062 3.5332031 C 19.610164 3.4307454 19.549745 3.3339584 19.484375 3.2421875 C 19.419005 3.1504178 19.347514 3.0650019 19.271484 2.984375 C 19.195455 2.9037453 19.115187 2.8287896 19.029297 2.7597656 C 18.943407 2.6907459 18.852752 2.6272754 18.757812 2.5703125 C 17.998307 2.11461 17.041662 2 16 2 L 13 2 L 7 2 z M 8 6 C 8 6 12.961413 8.3608597 16.572266 11 C 12.961413 13.639139 8 16 8 16 L 8 6 z " />
  <path
     id="path450"
     style="color:#000000;fill:#808080;fill-opacity:1;-inkscape-stroke:none"
     d="m 21,4.7402344 c 0.0092,0.00721 0.02016,0.012192 0.0293,0.019531 c 0.08589,0.069024 0.166158,0.1439798 0.242187,0.2246094 c 0.07603,0.080627 0.147521,0.1660429 0.212891,0.2578125 c 0.06537,0.091771 0.125788,0.188558 0.179687,0.2910156 c 0.0539,0.1024586 0.100949,0.2115322 0.142579,0.3242188 c 0.04163,0.1126866 0.07691,0.2291059 0.105468,0.3515625 c 0.02856,0.1224576 0.05173,0.2510429 0.06641,0.3828125 c 0.01468,0.1317692 0.02148,0.2675785 0.02148,0.4082031 v 12 c 0,0.140625 -0.0068,0.276433 -0.02148,0.408203 c -0.01468,0.13177 -0.03785,0.260355 -0.06641,0.382813 c -0.02856,0.122457 -0.06384,0.238875 -0.105468,0.351562 c -0.04163,0.112687 -0.08868,0.22176 -0.142579,0.324219 c -0.0539,0.102458 -0.11432,0.199248 -0.179687,0.291015 c -0.06537,0.09177 -0.136863,0.177186 -0.212891,0.257813 c -0.07603,0.08063 -0.156302,0.155585 -0.242187,0.224609 c -0.08589,0.06902 -0.176546,0.132491 -0.271485,0.189454 c -0.759504,0.4557 -1.716151,0.570312 -2.757812,0.570312 h -3 h -6 c -1.041661,0 -1.998308,-0.114612 -2.757812,-0.570312 c -0.09494,-0.05696 -0.185595,-0.120434 -0.271485,-0.189454 c -0.08589,-0.06902 -0.166157,-0.143979 -0.242187,-0.224609 c -0.00472,-0.005 -0.00899,-0.01058 -0.013672,-0.01563 h 3.285156 h 9 h 1 v -0.05859 c 0.510337,-0.06547 0.935257,-0.186935 1.242187,-0.371094 c 0.490488,-0.29429 0.757813,-0.695317 0.757813,-1.570312 v -6 v -6 z" />
</svg>
