<?xml version="1.0" encoding="UTF-8" standalone="no"?>
<svg version="1.1" viewBox="0 1 24 24" id="svg10" sodipodi:docname="single.svg" width="24" height="24" inkscape:version="1.2.2 (1:1.2.2+202212051551+b0a8486541)"
   xmlns:inkscape="http://www.inkscape.org/namespaces/inkscape"
   xmlns:sodipodi="http://sodipodi.sourceforge.net/DTD/sodipodi-0.dtd"
   xmlns="http://www.w3.org/2000/svg"
   xmlns:svg="http://www.w3.org/2000/svg">
   <defs id="defs14" />
   <sodipodi:namedview id="namedview12" pagecolor="#ffffff" bordercolor="#666666" borderopacity="1.0" inkscape:showpageshadow="2" inkscape:pageopacity="0.0" inkscape:pagecheckerboard="0" inkscape:deskcolor="#d1d1d1" showgrid="true" inkscape:zoom="29.298741" inkscape:cx="10.751315" inkscape:cy="13.328218" inkscape:window-width="1850" inkscape:window-height="1016" inkscape:window-x="0" inkscape:window-y="0" inkscape:window-maximized="1" inkscape:current-layer="svg10">
      <inkscape:grid type="xygrid" id="grid290" originx="0" originy="0" />
      <inkscape:grid type="xygrid" id="grid499" dotted="true" spacingx="0.5" spacingy="0.5" empspacing="10" />
   </sodipodi:namedview>
   <path id="path609" style="color:#000000;fill:#808080;stroke-linecap:square;stroke-linejoin:round;-inkscape-stroke:none" d="M 13 2 L 13 13.677734 C 12.174042 12.655982 10.911622 12 9.5 12 C 7.0206459 12 5 14.020645 5 16.5 C 5 18.979355 7.0206459 21 9.5 21 C 11.979355 21 14 18.979355 14 16.5 L 14 5 L 19 5 L 19 2 L 14 2 L 13 2 z M 9.5 13 C 11.438915 13 13 14.561085 13 16.5 C 13 18.438915 11.438915 20 9.5 20 C 7.5610849 20 6 18.438915 6 16.5 C 6 14.561085 7.5610849 13 9.5 13 z " />
</svg>
