<?xml version="1.0" encoding="UTF-8" standalone="no"?>
<svg
   height="24"
   width="24"
   version="1.1"
   id="svg8"
   sodipodi:docname="link.svg"
   inkscape:version="1.1 (ce6663b3b7, 2021-05-25)"
   xmlns:inkscape="http://www.inkscape.org/namespaces/inkscape"
   xmlns:sodipodi="http://sodipodi.sourceforge.net/DTD/sodipodi-0.dtd"
   xmlns="http://www.w3.org/2000/svg"
   xmlns:svg="http://www.w3.org/2000/svg">
  <defs
     id="defs12" />
  <sodipodi:namedview
     id="namedview10"
     pagecolor="#ffffff"
     bordercolor="#666666"
     borderopacity="1.0"
     inkscape:pageshadow="2"
     inkscape:pageopacity="0.0"
     inkscape:pagecheckerboard="0"
     showgrid="false"
     inkscape:snap-page="true"
     inkscape:zoom="4.9497475"
     inkscape:cx="-5.555839"
     inkscape:cy="33.335034"
     inkscape:window-width="1920"
     inkscape:window-height="1043"
     inkscape:window-x="1920"
     inkscape:window-y="0"
     inkscape:window-maximized="1"
     inkscape:current-layer="svg8" />
  <g
     color="#000000"
     fill="#808080"
     id="g6"
     transform="matrix(1.25,0,0,1.25,2,2)"
     style="stroke-width:0.8">
    <path
       d="m 10.182,12 -4.364,10e-4 c 0.304,0.664 0.643,1.34 1.018,2.027 0.376,0.682 0.764,1.34 1.164,1.972 0.392,-0.633 0.776,-1.29 1.152,-1.972 0.375,-0.688 0.718,-1.364 1.03,-2.028 z"
       style="stroke-width:0.64;marker:none"
       overflow="visible"
       id="path2" />
    <path
       d="m 2.828,4 c -0.838,0.01 -1.467,-0.035 -2.033,0.277 a 1.44,1.44 0 0 0 -0.635,0.752 c -0.12,0.323 -0.16,0.688 -0.16,1.137 v 0.668 c 0,0.45 0.04,0.814 0.16,1.137 0.121,0.322 0.352,0.596 0.635,0.752 0.566,0.312 1.195,0.267 2.033,0.277 h 1.344 c 0.838,-0.01 1.467,0.035 2.033,-0.277 0.274,-0.151 0.493,-0.415 0.617,-0.723 h -3.988 c -0.838,-0.01 -1.377,-0.053 -1.557,-0.152 -0.09,-0.05 -0.127,-0.086 -0.181,-0.229 -0.054,-0.143 -0.096,-0.401 -0.096,-0.785 v -0.668 c 0,-0.384 0.042,-0.642 0.096,-0.785 0.054,-0.143 0.091,-0.179 0.181,-0.229 0.18,-0.099 0.72,-0.142 1.557,-0.152 h 3.988 a 1.434,1.434 0 0 0 -0.617,-0.723 c -0.565,-0.312 -1.195,-0.267 -2.033,-0.277 h -1.34 z m 9,0 c -0.838,0.01 -1.467,-0.035 -2.033,0.277 -0.274,0.151 -0.493,0.415 -0.617,0.723 h 3.988 c 0.838,0.01 1.377,0.053 1.557,0.152 0.09,0.05 0.127,0.086 0.181,0.229 0.054,0.143 0.096,0.401 0.096,0.785 v 0.668 c 0,0.384 -0.042,0.642 -0.096,0.785 -0.054,0.143 -0.091,0.179 -0.181,0.229 -0.18,0.099 -0.719,0.142 -1.557,0.152 h -3.988 c 0.124,0.308 0.343,0.572 0.617,0.723 0.566,0.312 1.195,0.267 2.033,0.277 h 1.344 c 0.838,-0.01 1.467,0.035 2.033,-0.277 a 1.44,1.44 0 0 0 0.635,-0.752 c 0.12,-0.323 0.16,-0.688 0.16,-1.137 v -0.668 c 0,-0.45 -0.039,-0.814 -0.16,-1.137 a 1.44,1.44 0 0 0 -0.635,-0.752 c -0.565,-0.312 -1.195,-0.267 -2.033,-0.277 h -1.34 z m -7.828,2 v 1 h 8 v -1 z"
       style="line-height:normal;font-variant-ligatures:normal;font-variant-position:normal;font-variant-caps:normal;font-variant-numeric:normal;font-variant-alternates:normal;font-feature-settings:normal;text-indent:0;text-align:start;text-decoration-line:none;text-decoration-style:solid;text-decoration-color:#000000;text-transform:none;text-orientation:mixed;shape-padding:0;isolation:auto;mix-blend-mode:normal;stroke-width:0.64;marker:none"
       font-weight="400"
       font-family="sans-serif"
       white-space="normal"
       overflow="visible"
       id="path4" />
  </g>
</svg>
