<?xml version="1.0" encoding="UTF-8" standalone="no"?>
<svg
   height="24"
   width="24"
   version="1.1"
   id="svg8"
   sodipodi:docname="link.svg"
   inkscape:version="1.1 (ce6663b3b7, 2021-05-25)"
   xmlns:inkscape="http://www.inkscape.org/namespaces/inkscape"
   xmlns:sodipodi="http://sodipodi.sourceforge.net/DTD/sodipodi-0.dtd"
   xmlns="http://www.w3.org/2000/svg"
   xmlns:svg="http://www.w3.org/2000/svg">
  <defs
     id="defs12" />
  <sodipodi:namedview
     id="namedview10"
     pagecolor="#ffffff"
     bordercolor="#666666"
     borderopacity="1.0"
     inkscape:pageshadow="2"
     inkscape:pageopacity="0.0"
     inkscape:pagecheckerboard="0"
     showgrid="true"
     inkscape:snap-page="true"
     inkscape:zoom="7"
     inkscape:cx="-18.642857"
     inkscape:cy="16.214286"
     inkscape:window-width="1920"
     inkscape:window-height="1016"
     inkscape:window-x="0"
     inkscape:window-y="27"
     inkscape:window-maximized="1"
     inkscape:current-layer="svg8">
    <inkscape:grid
       type="xygrid"
       id="grid823" />
    <inkscape:grid
       type="xygrid"
       id="grid844"
       dotted="true"
       spacingx="0.5"
       spacingy="0.5"
       empspacing="10" />
  </sodipodi:namedview>
  <g
     color="#000000"
     fill="#808080"
     id="g6"
     transform="matrix(1.25,0,0,1.25,2,1)"
     style="stroke-width:0.8">
    <path
       d="m 10.182,12 -4.364,10e-4 c 0.304,0.664 0.643,1.34 1.018,2.027 0.376,0.682 0.764,1.34 1.164,1.972 0.392,-0.633 0.776,-1.29 1.152,-1.972 0.375,-0.688 0.718,-1.364 1.03,-2.028 z"
       style="stroke-width:0.64;marker:none"
       overflow="visible"
       id="path2" />
  </g>
  <path
     id="path955"
     style="color:#000000;fill:#808080;-inkscape-stroke:none;fill-opacity:1"
     d="M 5.4609375 6 C 4.5054136 6.0055983 3.7862683 6.0464303 3.1894531 6.2851562 C 2.7915764 6.444307 2.4494873 6.7338381 2.2558594 7.1210938 C 2.0622315 7.5083496 2 7.9583339 2 8.5 L 2 10.5 C 2 11.041666 2.062232 11.49165 2.2558594 11.878906 C 2.4494873 12.266162 2.7915764 12.555693 3.1894531 12.714844 C 3.9852067 13.033145 5.0000015 13 6.5 13 C 7.9999985 13 9.0147933 13.03314 9.8105469 12.714844 C 10.208424 12.555693 10.550513 12.266162 10.744141 11.878906 C 10.874682 11.617824 10.944273 11.326978 10.976562 11 L 9.9667969 11 C 9.9400529 11.189396 9.8999471 11.332918 9.8496094 11.433594 C 9.7619874 11.608837 9.6665757 11.694307 9.4394531 11.785156 C 8.9852079 11.966854 7.9999985 12 6.5 12 C 5.0000015 12 4.0147921 11.96685 3.5605469 11.785156 C 3.3334243 11.694306 3.2380124 11.608837 3.1503906 11.433594 C 3.0627686 11.25835 3 10.958333 3 10.5 L 3 8.5 C 3 8.0416671 3.062769 7.7416499 3.1503906 7.5664062 C 3.2380126 7.3911627 3.3334243 7.3056928 3.5605469 7.2148438 C 4.0147921 7.0331458 5.0000015 7 6.5 7 C 7.9999985 7 8.9852079 7.033146 9.4394531 7.2148438 C 9.6665757 7.3056928 9.7619876 7.3911626 9.8496094 7.5664062 C 9.8999474 7.6670821 9.940053 7.8106041 9.9667969 8 L 10.976562 8 C 10.944273 7.673022 10.874682 7.382176 10.744141 7.1210938 C 10.550513 6.7338381 10.208424 6.444307 9.8105469 6.2851562 C 9.0147933 5.9668548 7.9999985 6 6.5 6 C 6.1250004 6 5.7794455 5.9981339 5.4609375 6 z " />
  <path
     id="path1436"
     style="color:#000000;fill:#808080;-inkscape-stroke:none;fill-opacity:1"
     d="M 16.460938 6 C 15.505414 6.0055983 14.786269 6.0464303 14.189453 6.2851562 C 13.791576 6.444307 13.449487 6.7338381 13.255859 7.1210938 C 13.125318 7.382176 13.055727 7.673022 13.023438 8 L 14.033203 8 C 14.059947 7.8106041 14.100053 7.6670821 14.150391 7.5664062 C 14.238011 7.3911627 14.333424 7.3056928 14.560547 7.2148438 C 15.014792 7.0331458 16.000001 7 17.5 7 C 18.999998 7 19.985208 7.033146 20.439453 7.2148438 C 20.666576 7.3056928 20.761988 7.3911626 20.849609 7.5664062 C 20.937229 7.74165 21 8.0416671 21 8.5 L 21 10.5 C 21 10.958333 20.93723 11.25835 20.849609 11.433594 C 20.761989 11.608837 20.666576 11.694307 20.439453 11.785156 C 19.985208 11.966854 18.999999 12 17.5 12 C 16.000001 12 15.014792 11.96685 14.560547 11.785156 C 14.333424 11.694306 14.238012 11.608837 14.150391 11.433594 C 14.100054 11.332918 14.059948 11.189396 14.033203 11 L 13.023438 11 C 13.055727 11.326978 13.125318 11.617824 13.255859 11.878906 C 13.449487 12.266162 13.791576 12.555693 14.189453 12.714844 C 14.985207 13.033145 16.000002 13 17.5 13 C 18.999998 13 20.014793 13.03314 20.810547 12.714844 C 21.208424 12.555693 21.550513 12.266162 21.744141 11.878906 C 21.937769 11.49165 22 11.041666 22 10.5 L 22 8.5 C 22 7.9583339 21.93777 7.5083495 21.744141 7.1210938 C 21.550513 6.7338381 21.208424 6.444307 20.810547 6.2851562 C 20.014793 5.9668548 18.999998 6 17.5 6 C 17.125 6 16.779445 5.9981339 16.460938 6 z " />
  <rect
     style="fill:#808080;fill-rule:evenodd;stroke-width:2;fill-opacity:1"
     id="rect1666"
     width="10"
     height="1"
     x="7"
     y="9" />
</svg>
