<?xml version="1.0" encoding="UTF-8" standalone="no"?>
<svg
   height="24"
   width="24"
   version="1.1"
   id="svg4"
   sodipodi:docname="text.svg"
   inkscape:version="1.1 (ce6663b3b7, 2021-05-25)"
   xmlns:inkscape="http://www.inkscape.org/namespaces/inkscape"
   xmlns:sodipodi="http://sodipodi.sourceforge.net/DTD/sodipodi-0.dtd"
   xmlns="http://www.w3.org/2000/svg"
   xmlns:svg="http://www.w3.org/2000/svg">
  <defs
     id="defs8" />
  <sodipodi:namedview
     id="namedview6"
     pagecolor="#ffffff"
     bordercolor="#666666"
     borderopacity="1.0"
     inkscape:pageshadow="2"
     inkscape:pageopacity="0.0"
     inkscape:pagecheckerboard="0"
     showgrid="false"
     inkscape:snap-page="true"
     inkscape:zoom="28"
     inkscape:cx="7.5892857"
     inkscape:cy="10.321429"
     inkscape:window-width="1920"
     inkscape:window-height="1043"
     inkscape:window-x="1920"
     inkscape:window-y="0"
     inkscape:window-maximized="1"
     inkscape:current-layer="svg4" />
  <path
     d="m 14.5,3.25 v 1.25 h 1.25 c 0.72875,0 0.92125,0.27125 1.08125,0.59125 0.16,0.31875 0.16875,0.65875 0.16875,0.65875 v 12.5 c 0,0 -0.0087,0.34 -0.16875,0.65875 -0.16,0.32 -0.3525,0.59125 -1.08125,0.59125 h -1.25 v 1.25 h 1.25 c 0.90875,0 1.4875,-0.44125 1.875,-0.9225 0.3875,0.48125 0.96625,0.9225 1.875,0.9225 h 1.25 v -1.25 h -1.25 c -0.72875,0 -0.92125,-0.27125 -1.08125,-0.59125 a 1.755,1.755 0 0 1 -0.16875,-0.65875 v -12.5 c 0,0 0.0087,-0.34 0.16875,-0.65875 0.16,-0.32 0.3525,-0.59125 1.08125,-0.59125 h 1.25 v -1.25 h -1.25 c -0.90875,0 -1.4875,0.44125 -1.875,0.9225 -0.3875,-0.48125 -0.96625,-0.9225 -1.875,-0.9225 z m -6.95375,2.5 -4.45125,11.60125 h -1.095 v 0.89875 h 3.51625 v -0.89875 h -1.36875 l 1.05375,-2.73375 h 5.23625 l 1.055,2.73375 h -1.3675 v 0.89875 h 4.53125 v -0.89875 h -1.25 l -4.45375,-11.60125 z m 0.275,2.03125 2.30375,5.9375 h -4.57 z"
     style="line-height:normal;font-variant-ligatures:normal;font-variant-position:normal;font-variant-caps:normal;font-variant-numeric:normal;font-variant-alternates:normal;font-feature-settings:normal;text-indent:0;text-align:start;text-decoration-line:none;text-decoration-style:solid;text-decoration-color:#000000;text-transform:none;text-orientation:mixed;shape-padding:0;isolation:auto;mix-blend-mode:normal;stroke-width:1"
     color="#000000"
     font-weight="400"
     font-family="sans-serif"
     white-space="normal"
     overflow="visible"
     fill="#808080"
     fill-rule="evenodd"
     id="path2" />
</svg>
