<svg height="24" width="24" xmlns="http://www.w3.org/2000/svg"><path style="color:#000;fill:gray;-inkscape-stroke:none" d="M7.455 3.002c-.969.009-1.718.073-2.338.445-.413.248-.72.656-.888 1.162C4.059 5.116 4 5.724 4 6.502v6c0 .778.06 1.386.229 1.893.168.506.475.912.888 1.16.827.496 1.883.447 3.383.447h6c1.5 0 2.556.049 3.383-.447.413-.248.72-.654.888-1.16.17-.507.229-1.115.229-1.893v-6c0-.778-.06-1.386-.229-1.893-.168-.506-.475-.914-.888-1.162-.827-.496-1.883-.445-3.383-.445h-6c-.375 0-.722-.003-1.045 0zm1.045 1h6c1.5 0 2.444.049 2.867.303.212.127.343.283.455.62.113.338.178.855.178 1.577v6c0 .18-.004.346-.012.5H5.012a9.992 9.992 0 0 1-.012-.5v-6c0-.722.065-1.239.178-1.576.112-.338.243-.494.455-.621C6.056 4.05 7 4.002 8.5 4.002z"/><path style="fill:gray;fill-opacity:1;stroke:none;stroke-width:1px;stroke-linecap:butt;stroke-linejoin:miter" d="m7 12.001 2.5-5 1.5 2.5 1.5-1.5 2.5 4z"/><path style="fill:gray;stroke-width:2" d="M16 7.001a1 1 0 0 1-1 1 1 1 0 0 1-1-1 1 1 0 0 1 1-1 1 1 0 0 1 1 1z"/><path style="color:#000;display:inline;overflow:visible;visibility:visible;fill:gray;fill-opacity:1;fill-rule:nonzero;stroke:none;stroke-width:.749853;marker:none;enable-background:accumulate" d="M14.227 17H8.772c.38.83.804 1.675 1.272 2.535a48.4 48.4 0 0 0 1.455 2.463c.49-.79.97-1.613 1.44-2.463a46.7 46.7 0 0 0 1.288-2.536z"/></svg>