<svg height="24" width="24" xmlns="http://www.w3.org/2000/svg"><path style="color:#000;fill:gray" d="M7.455 3.002c-.968.009-1.718.073-2.338.445-.413.248-.72.656-.888 1.162C4.059 5.116 4 5.724 4 6.502v6c0 .778.06 1.386.229 1.893.168.506.475.912.888 1.16.827.496 1.883.447 3.383.447h6c1.5 0 2.556.049 3.383-.447.413-.248.72-.654.888-1.16.17-.507.229-1.115.229-1.893v-6c0-.778-.06-1.386-.229-1.893-.168-.506-.475-.914-.888-1.162-.827-.496-1.883-.445-3.383-.445h-6c-.375 0-.722-.003-1.045 0zM15 6a1 1 0 0 1 1 1 1 1 0 0 1-1 1 1 1 0 0 1-1-1 1 1 0 0 1 1-1zM9.5 8l1.5 2.5L12.5 9l2.5 4H7l2.5-5z"/><path style="color:#000;display:inline;overflow:visible;visibility:visible;fill:gray;fill-opacity:1;fill-rule:nonzero;stroke:none;stroke-width:.749853;marker:none;enable-background:accumulate" d="M14.227 17H8.772c.38.83.804 1.675 1.272 2.535a48.4 48.4 0 0 0 1.455 2.463c.49-.79.97-1.613 1.44-2.463a46.7 46.7 0 0 0 1.288-2.536z"/></svg>