<svg height="24" width="24" xmlns="http://www.w3.org/2000/svg"><path style="color:#000;fill:gray;fill-opacity:1" d="M5.46 6c-.955.006-1.674.046-2.27.285-.398.16-.74.449-.934.836C2.062 7.508 2 7.958 2 8.5v2c0 .542.062.992.256 1.379.193.387.536.677.933.836C3.985 13.033 5 13 6.5 13s2.515.033 3.31-.285c.398-.16.74-.449.934-.836.13-.261.2-.552.233-.879H6V8h4.977a2.482 2.482 0 0 0-.233-.879 1.767 1.767 0 0 0-.933-.836C9.015 5.967 8 6 6.5 6c-.375 0-.72-.002-1.04 0z"/><path style="fill:gray;stroke-width:2;fill-opacity:1" d="M7 9h10v1H7z"/><path style="color:#000;fill:gray;fill-opacity:1" d="M18.54 6c.955.006 1.674.046 2.27.285.398.16.74.449.934.836.194.387.256.837.256 1.379v2c0 .542-.062.992-.256 1.379a1.767 1.767 0 0 1-.933.836C20.015 13.033 19 13 17.5 13s-2.515.033-3.31-.285a1.767 1.767 0 0 1-.934-.836c-.13-.261-.2-.552-.233-.879H18V8h-4.977c.033-.327.102-.618.233-.879.193-.387.536-.677.933-.836C14.985 5.967 16 6 17.5 6c.375 0 .72-.002 1.04 0z"/><path style="color:#000;display:inline;overflow:visible;visibility:visible;fill:gray;fill-opacity:1;fill-rule:nonzero;stroke:none;stroke-width:.749853;marker:none;enable-background:accumulate" d="m14.727 16.001-5.455.001c.38.83.804 1.676 1.273 2.536A48.4 48.4 0 0 0 12 21c.49-.79.97-1.613 1.44-2.462.469-.862.897-1.707 1.287-2.537z"/></svg>