<svg height="24" width="24" xmlns="http://www.w3.org/2000/svg"><path style="color:#000;fill:gray;-inkscape-stroke:none;fill-opacity:1" d="M5.46 6c-.955.006-1.674.046-2.27.285-.398.16-.74.449-.934.836C2.062 7.508 2 7.958 2 8.5v2c0 .542.062.992.256 1.379.193.387.536.677.933.836C3.985 13.033 5 13 6.5 13s2.515.033 3.31-.285c.398-.16.74-.449.934-.836.13-.261.2-.552.233-.879h-1.01c-.027.19-.067.333-.117.434-.088.175-.183.26-.41.351C8.984 11.967 8 12 6.5 12s-2.485-.033-2.94-.215c-.227-.09-.322-.176-.41-.351-.087-.176-.15-.476-.15-.934v-2c0-.458.063-.758.15-.934.088-.175.183-.26.41-.351C4.016 7.033 5 7 6.5 7s2.485.033 2.94.215c.227.09.322.176.41.351.05.101.09.245.117.434h1.01a2.482 2.482 0 0 0-.233-.879 1.767 1.767 0 0 0-.933-.836C9.015 5.967 8 6 6.5 6c-.375 0-.72-.002-1.04 0zm11 0c-.955.006-1.674.046-2.27.285-.398.16-.74.449-.934.836-.13.261-.2.552-.233.879h1.01c.027-.19.067-.333.117-.434.088-.175.183-.26.41-.351C15.016 7.033 16 7 17.5 7s2.485.033 2.94.215c.227.09.322.176.41.351.087.176.15.476.15.934v2c0 .458-.063.758-.15.934-.088.175-.183.26-.41.351-.455.182-1.44.215-2.94.215s-2.485-.033-2.94-.215c-.227-.09-.322-.176-.41-.351a1.476 1.476 0 0 1-.117-.434h-1.01c.033.327.102.618.233.879.193.387.536.677.933.836.796.318 1.811.285 3.311.285s2.515.033 3.31-.285c.398-.16.74-.449.934-.836.194-.387.256-.837.256-1.379v-2c0-.542-.062-.992-.256-1.379a1.767 1.767 0 0 0-.933-.836C20.015 5.967 19 6 17.5 6c-.375 0-.72-.002-1.04 0z"/><path style="fill:gray;stroke-width:2;fill-opacity:1" d="M7 9h10v1H7z"/><path style="color:#000;display:inline;overflow:visible;visibility:visible;fill:gray;fill-opacity:1;fill-rule:nonzero;stroke:none;stroke-width:.749853;marker:none;enable-background:accumulate" d="m14.727 16.001-5.455.001c.38.83.804 1.676 1.273 2.536A48.4 48.4 0 0 0 12 21c.49-.79.97-1.613 1.44-2.462.469-.862.897-1.707 1.287-2.537z"/></svg>