<svg height="24" width="24" xmlns="http://www.w3.org/2000/svg"><path d="m14.727 17-5.455.001c.38.83.804 1.675 1.273 2.535.47.851.955 1.673 1.455 2.464.49-.791.97-1.613 1.44-2.464.469-.861.899-1.706 1.287-2.536z" style="fill:gray;stroke-width:.8;marker:none" color="#000" overflow="visible"/><path style="color:#000;fill:gray;stroke-linecap:round;-inkscape-stroke:none;fill-opacity:1" d="M12 2.43 6.26 5.56a.5.5 0 0 0-.164.15L6 5.659v6.139l6 3.273 6-3.273V6.035a.5.5 0 0 0 0-.07v-.307l-.094.051a.5.5 0 0 0-.166-.148L12 2.43zm0 1.14 4.914 2.68L12 8.93 7.086 6.25 12 3.57z"/></svg>