<svg width="24" height="24" xmlns="http://www.w3.org/2000/svg"><path style="fill:gray;stroke-width:.264583;stroke-linecap:square;stroke-linejoin:round" d="M11.5 3A9.5 9.5 0 0 0 2 12.5a9.5 9.5 0 0 0 4.75 8.227l.502-.87a8.5 8.5 0 0 1-2.84-2.687l1.71-.986-.5-.868-1.71.987A8.5 8.5 0 0 1 3.037 13H5v-1H3.018a8.5 8.5 0 0 1 .884-3.309l1.72.993.5-.868-1.718-.99a8.5 8.5 0 0 1 2.434-2.4l.978 1.695.868-.5-.979-1.695A8.5 8.5 0 0 1 11 4.018V6h1V4.035a8.5 8.5 0 0 1 3.3.881l-.984 1.705.868.5.988-1.715a8.5 8.5 0 0 1 2.422 2.422l-1.715.988.5.868 1.705-.985a8.5 8.5 0 0 1 .88 3.301H19v1h.963a8.5 8.5 0 0 1-.875 3.303l-1.71-.987-.5.868 1.71.986a8.5 8.5 0 0 1-2.84 2.687l.502.87A9.5 9.5 0 0 0 21 12.5 9.5 9.5 0 0 0 11.5 3zm0 8a1.5 1.5 0 0 0-1.5 1.5 1.5 1.5 0 0 0 1.5 1.5 1.5 1.5 0 0 0 1.414-1H18v-1h-5.086a1.5 1.5 0 0 0-1.414-1z"/></svg>