<svg height="24" width="24" xmlns="http://www.w3.org/2000/svg"><path style="fill:gray;stroke-width:1.28222" d="M12 3a9 9 0 0 0-8.074 5.12L2.38 7.126A37.91 37.91 0 0 0 2.1 9.78a44.75 44.75 0 0 0-.1 2.69A44.21 44.21 0 0 0 6.697 9.9L4.775 8.663A8 8 0 0 1 12 4a8 8 0 0 1 7.467 5.129l.93-.36A9 9 0 0 0 12 3zm0 18a9 9 0 0 0 8.074-5.12l1.545.993a37.91 37.91 0 0 0 .28-2.654c.061-.91.095-1.81.101-2.688a44.21 44.21 0 0 0-4.697 2.57l1.922 1.235A8 8 0 0 1 12 20a8 8 0 0 1-7.467-5.129l-.93.36A9 9 0 0 0 12 21z"/></svg>