<svg height="24" width="24" xmlns="http://www.w3.org/2000/svg"><path style="fill:gray;stroke-width:.5;stroke-linecap:round;fill-opacity:1" d="M7.455 2c-.968.009-1.718.073-2.338.445-.413.248-.72.656-.888 1.162C4.059 4.114 4 4.722 4 5.5v13c0 .778.06 1.386.229 1.893.168.506.475.914.888 1.162C5.944 22.05 7 22 8.5 22H12v-1H8.5c-1.5 0-2.444-.05-2.867-.305-.212-.127-.343-.281-.455-.619C5.065 19.74 5 19.222 5 18.5v-13c0-.722.065-1.239.178-1.576.112-.338.243-.492.455-.62C6.056 3.052 7 3 8.5 3h7c1.5 0 2.444.05 2.867.305.212.127.343.281.455.619.113.337.178.854.178 1.576V13h1V5.5c0-.778-.06-1.386-.229-1.893-.168-.506-.475-.914-.888-1.162C18.056 1.95 17 2 15.5 2h-7c-.375 0-.722-.003-1.045 0zm4.47 7a5 5 0 0 0-4.756 6.295 4.996 4.996 0 0 0 4.831 3.7v-.999a3.999 3.999 0 0 1-1.531-7.691 4 4 0 0 1 4.496 1.023l-.819.818.708.708 1.5-1.5-.684-.731A5 5 0 0 0 11.926 9zM12 12a2 2 0 0 0-2 2 2 2 0 0 0 2 2v-1a1 1 0 0 1-1-1 1 1 0 0 1 1-1h1.732A2 2 0 0 0 12 12z"/><path style="color:#000;fill:gray;fill-opacity:1;stroke-width:1px;stroke-linejoin:round;-inkscape-stroke:none" d="M17.5 14a.5.5 0 0 0-.434.252l-4 7a.5.5 0 0 0 .433.748h8a.5.5 0 0 0 .434-.748l-4-7a.5.5 0 0 0-.434-.252zm-.5 2h1v2l-.2 1h-.6l-.2-1zm.5 4a.5.5 0 0 1 .5.5.5.5 0 0 1-.5.5.5.5 0 0 1-.5-.5.5.5 0 0 1 .5-.5z"/></svg>