<svg height="24" width="24" xmlns="http://www.w3.org/2000/svg"><path style="fill:gray;stroke-width:.5;stroke-linecap:round" d="M5 15a7 7 0 0 0 7 7 7 7 0 0 0 7-7h-5a2 2 0 0 1-2 2 2 2 0 0 1-2-2H5zm6 0a1 1 0 0 0 1 1 1 1 0 0 0 1-1h-2z"/><path style="color:#000;fill:gray;fill-opacity:1;-inkscape-stroke:none" d="M5.455 2c-.969.01-1.718.074-2.338.446-.413.248-.72.656-.888 1.162C2.059 4.114 2 4.723 2 5.501v9c0 .778.06 1.386.229 1.892.168.507.475.914.888 1.162.268.16.56.262.883.329v-1.047a1.42 1.42 0 0 1-.367-.141c-.212-.127-.343-.282-.455-.62C3.065 15.74 3 15.224 3 14.502V14h18v.5c0 .723-.065 1.24-.178 1.577-.112.337-.243.492-.455.619a1.42 1.42 0 0 1-.367.14v1.048a2.77 2.77 0 0 0 .883-.329c.413-.248.72-.655.888-1.162.17-.506.229-1.114.229-1.892v-9c0-.778-.06-1.387-.229-1.893-.168-.506-.475-.914-.888-1.162-.827-.496-1.883-.445-3.383-.445h-11c-.375 0-.722-.003-1.045 0z"/></svg>