<?xml version="1.0" encoding="UTF-8" standalone="no"?>
<svg
   height="24"
   width="24"
   version="1.1"
   id="svg10"
   sodipodi:docname="hotspot.svg"
   inkscape:version="1.1 (ce6663b3b7, 2021-05-25)"
   xmlns:inkscape="http://www.inkscape.org/namespaces/inkscape"
   xmlns:sodipodi="http://sodipodi.sourceforge.net/DTD/sodipodi-0.dtd"
   xmlns="http://www.w3.org/2000/svg"
   xmlns:svg="http://www.w3.org/2000/svg">
  <defs
     id="defs14" />
  <sodipodi:namedview
     id="namedview12"
     pagecolor="#ffffff"
     bordercolor="#666666"
     borderopacity="1.0"
     inkscape:pageshadow="2"
     inkscape:pageopacity="0.0"
     inkscape:pagecheckerboard="0"
     showgrid="true"
     inkscape:snap-page="true"
     inkscape:zoom="24.90625"
     inkscape:cx="10.198243"
     inkscape:cy="11.844417"
     inkscape:window-width="1920"
     inkscape:window-height="1043"
     inkscape:window-x="1920"
     inkscape:window-y="0"
     inkscape:window-maximized="1"
     inkscape:current-layer="svg10">
    <inkscape:grid
       type="xygrid"
       id="grid1017" />
  </sodipodi:namedview>
  <g
     transform="matrix(1.2499833,0,0,1.25,-1463.6065,335.13251)"
     id="g8"
     style="stroke-width:0.800005">
    <path
       color="#000000"
       d="m 1180.5,-266.012 a 7.48,7.48 0 0 0 -5.305,2.196 c -2.926,2.925 -2.926,7.683 0,10.609 l 0.707,-0.707 a 6.494,6.494 0 0 1 0,-9.195 6.497,6.497 0 0 1 9.198,0 6.494,6.494 0 0 1 0,9.195 l 0.707,0.707 c 2.926,-2.926 2.926,-7.684 0,-10.61 a 7.484,7.484 0 0 0 -5.307,-2.195 z"
       fill="#808080"
       font-family="sans-serif"
       font-weight="400"
       overflow="visible"
       style="line-height:normal;font-variant-ligatures:normal;font-variant-position:normal;font-variant-caps:normal;font-variant-numeric:normal;font-variant-alternates:normal;font-feature-settings:normal;text-indent:0;text-align:start;text-decoration-line:none;text-decoration-style:solid;text-decoration-color:#000000;text-transform:none;text-orientation:mixed;shape-padding:0;isolation:auto;mix-blend-mode:normal;stroke-width:0.533337"
       white-space="normal"
       id="path2" />
    <path
       color="#000000"
       d="m 1180.5,-263.008 a 4.51,4.51 0 0 0 -3.184,1.305 4.45,4.45 0 0 0 0,6.32 l 0.705,-0.71 a 3.43,3.43 0 0 1 0,-4.9 3.523,3.523 0 0 1 4.957,0 3.43,3.43 0 0 1 0,4.9 l 0.706,0.71 a 4.45,4.45 0 0 0 0,-6.32 4.51,4.51 0 0 0 -3.184,-1.305 z"
       fill="#808080"
       font-family="sans-serif"
       font-weight="400"
       overflow="visible"
       style="line-height:normal;font-variant-ligatures:normal;font-variant-position:normal;font-variant-caps:normal;font-variant-numeric:normal;font-variant-alternates:normal;font-feature-settings:normal;text-indent:0;text-align:start;text-decoration-line:none;text-decoration-style:solid;text-decoration-color:#000000;text-transform:none;text-orientation:mixed;shape-padding:0;isolation:auto;mix-blend-mode:normal;stroke-width:0.533337"
       white-space="normal"
       id="path4" />
    <path
       d="m 1180.5,-260 a 1.5,1.5 0 0 0 -1.5,1.5 1.5,1.5 0 0 0 1,1.412 v 6.088 h 1 v -6.088 a 1.5,1.5 0 0 0 1,-1.412 1.5,1.5 0 0 0 -1.5,-1.5 z"
       fill="#808080"
       id="path6"
       style="stroke-width:0.533337" />
  </g>
</svg>
