<?xml version="1.0" encoding="UTF-8" standalone="no"?>
<svg viewBox="0 1 24 24" height="24" width="24" version="1.1" id="svg10" sodipodi:docname="hotspot.svg" inkscape:version="1.1 (ce6663b3b7, 2021-05-25)"
   xmlns:inkscape="http://www.inkscape.org/namespaces/inkscape"
   xmlns:sodipodi="http://sodipodi.sourceforge.net/DTD/sodipodi-0.dtd"
   xmlns="http://www.w3.org/2000/svg"
   xmlns:svg="http://www.w3.org/2000/svg">
   <defs id="defs14" />
   <sodipodi:namedview id="namedview12" pagecolor="#ffffff" bordercolor="#666666" borderopacity="1.0" inkscape:pageshadow="2" inkscape:pageopacity="0.0" inkscape:pagecheckerboard="0" showgrid="true" inkscape:snap-page="true" inkscape:zoom="17.611378" inkscape:cx="0.76654989" inkscape:cy="9.5392875" inkscape:window-width="1920" inkscape:window-height="1043" inkscape:window-x="1920" inkscape:window-y="0" inkscape:window-maximized="1" inkscape:current-layer="svg10">
      <inkscape:grid type="xygrid" id="grid1017" />
   </sodipodi:namedview>
   <path id="rect847" style="fill:#808080;fill-rule:evenodd;stroke-width:0.5;stroke-linecap:round;stroke-linejoin:round;fill-opacity:1" d="M 11.5 3 A 9.5 9.5 0 0 0 2 12.5 A 9.5 9.5 0 0 0 4.8007812 19.199219 L 5.4902344 18.509766 A 8.5 8.5 0 0 1 3 12.5 A 8.5 8.5 0 0 1 11.5 4 A 8.5 8.5 0 0 1 20 12.5 A 8.5 8.5 0 0 1 17.970703 17.970703 L 18.697266 18.697266 A 9.5 9.5 0 0 0 21 12.5 A 9.5 9.5 0 0 0 11.5 3 z M 11.5 5 A 7.5 7.5 0 0 0 4 12.5 A 7.5 7.5 0 0 0 6.2109375 17.789062 L 6.9042969 17.095703 A 6.5 6.5 0 0 1 5 12.5 A 6.5 6.5 0 0 1 11.5 6 A 6.5 6.5 0 0 1 18 12.5 A 6.5 6.5 0 0 1 16.556641 16.556641 L 17.271484 17.271484 A 7.5 7.5 0 0 0 19 12.5 A 7.5 7.5 0 0 0 11.5 5 z M 11.5 7 A 5.5 5.5 0 0 0 6 12.5 A 5.5 5.5 0 0 0 7.6210938 16.378906 L 8.3183594 15.681641 A 4.5 4.5 0 0 1 7 12.5 A 4.5 4.5 0 0 1 11.5 8 A 4.5 4.5 0 0 1 16 12.5 A 4.5 4.5 0 0 1 15.142578 15.142578 L 15.847656 15.847656 A 5.5 5.5 0 0 0 17 12.5 A 5.5 5.5 0 0 0 11.5 7 z M 11.5 11 A 1.5 1.5 0 0 0 10 12.5 A 1.5 1.5 0 0 0 11 13.910156 L 11 22 L 12 22 L 12 13.910156 A 1.5 1.5 0 0 0 13 12.5 A 1.5 1.5 0 0 0 11.5 11 z " />
</svg>
