<?xml version="1.0" encoding="UTF-8" standalone="no"?>
<svg
   height="24"
   width="24"
   version="1.1"
   id="svg8"
   sodipodi:docname="wireless-acquiring.svg"
   inkscape:version="1.1 (ce6663b3b7, 2021-05-25)"
   xmlns:inkscape="http://www.inkscape.org/namespaces/inkscape"
   xmlns:sodipodi="http://sodipodi.sourceforge.net/DTD/sodipodi-0.dtd"
   xmlns="http://www.w3.org/2000/svg"
   xmlns:svg="http://www.w3.org/2000/svg">
  <defs
     id="defs12" />
  <sodipodi:namedview
     id="namedview10"
     pagecolor="#ffffff"
     bordercolor="#666666"
     borderopacity="1.0"
     inkscape:pageshadow="2"
     inkscape:pageopacity="0.0"
     inkscape:pagecheckerboard="0"
     showgrid="true"
     inkscape:snap-page="true"
     inkscape:zoom="19.79899"
     inkscape:cx="15.177542"
     inkscape:cy="15.834141"
     inkscape:window-width="1920"
     inkscape:window-height="1016"
     inkscape:window-x="0"
     inkscape:window-y="27"
     inkscape:window-maximized="1"
     inkscape:current-layer="svg8">
    <inkscape:grid
       type="xygrid"
       id="grid1141" />
  </sodipodi:namedview>
  <path
     d="m 12.00125,4.5 a 15.125,15.125 0 0 0 -9.25,3.1475 l -0.3325,0.25625 0.25625,0.32875 0.575,0.745 v -0.7275 h 1.0175 l -0.05125,-0.06625 c 2.35375,-1.5975 5.05875,-2.435 7.785,-2.43375 2.72625,0 5.43,0.84 7.78375,2.43875 l -0.28625,0.37125 v 2.04625 l 2.0825,-2.6975 -0.33,-0.2575 a 15.13125,15.13125 0 0 0 -9.25,-3.15125 z m -4.495,10 4.49,5.8225 4.495,-5.8225 h -1.5775 l -2.915,3.77625 -2.9125,-3.77625 z"
     fill="#808080"
     font-family="sans-serif"
     font-weight="400"
     opacity="0.5"
     overflow="visible"
     style="color:#000000;line-height:normal;font-variant-ligatures:none;font-variant-position:normal;font-variant-caps:normal;font-variant-numeric:normal;font-variant-alternates:normal;font-feature-settings:normal;text-indent:0;text-align:start;text-decoration-line:none;text-decoration-style:solid;text-decoration-color:#000000;text-transform:none;shape-padding:0;opacity:1;isolation:auto;mix-blend-mode:normal;fill:#808080;fill-opacity:1;stroke-width:0.8;marker:none"
     white-space="normal"
     id="path2" />
  <path
     d="m 6.37375,9.5 c -1.03625,0 -1.87,0.83375 -1.87,1.87 v 0.02 c 0,1.03625 0.83375,1.87 1.87,1.87 h 0.02 c 1.0375,0 1.87,-0.83375 1.87,-1.87 v -0.02 c 0,-1.03625 -0.83375,-1.87 -1.87,-1.87 z m 5,0 c -1.03625,0 -1.87,0.83375 -1.87,1.87 v 0.02 c 0,1.03625 0.83375,1.87 1.87,1.87 h 0.02 c 1.0375,0 1.87,-0.83375 1.87,-1.87 v -0.02 c 0,-1.03625 -0.83375,-1.87 -1.87,-1.87 z m 5,0 c -1.03625,0 -1.87,0.83375 -1.87,1.87 v 0.02 c 0,1.03625 0.83375,1.87 1.87,1.87 h 0.02 c 1.0375,0 1.87,-0.83375 1.87,-1.87 v -0.02 c 0,-1.03625 -0.83375,-1.87 -1.87,-1.87 z"
     display="block"
     fill="#808080"
     overflow="visible"
     style="color:#000000;opacity:1;isolation:auto;mix-blend-mode:normal;fill:#808080;fill-opacity:1;stroke-width:0.8;marker:none"
     id="path4" />
</svg>
