<?xml version="1.0" encoding="UTF-8" standalone="no"?>
<svg
   height="24"
   width="24"
   version="1.1"
   id="svg6"
   sodipodi:docname="wireless-signal-weak-secure.svg"
   inkscape:version="1.1 (ce6663b3b7, 2021-05-25)"
   xmlns:inkscape="http://www.inkscape.org/namespaces/inkscape"
   xmlns:sodipodi="http://sodipodi.sourceforge.net/DTD/sodipodi-0.dtd"
   xmlns="http://www.w3.org/2000/svg"
   xmlns:svg="http://www.w3.org/2000/svg">
  <defs
     id="defs10" />
  <sodipodi:namedview
     id="namedview8"
     pagecolor="#ffffff"
     bordercolor="#666666"
     borderopacity="1.0"
     inkscape:pageshadow="2"
     inkscape:pageopacity="0.0"
     inkscape:pagecheckerboard="0"
     showgrid="false"
     inkscape:snap-page="true"
     inkscape:zoom="28"
     inkscape:cx="4.7678571"
     inkscape:cy="6.4821429"
     inkscape:window-width="1920"
     inkscape:window-height="1016"
     inkscape:window-x="0"
     inkscape:window-y="27"
     inkscape:window-maximized="1"
     inkscape:current-layer="svg6" />
  <g
     color="#000000"
     transform="matrix(1.25,0,0,1.25,-1289.2519,310.75)"
     id="g4"
     style="stroke-width:0.8">
    <path
       d="m 1041.003,-245 c -2.61,0 -5.22,0.838 -7.4,2.518 l -0.266,0.205 0.205,0.263 7.457,9.672 1.004,-1.3 v -2.358 h 1.014 c 0,-0.253 0.048,-0.495 0.11,-0.73 l -0.184,0.236 a 4.002,4 0 0 0 -3.881,0.002 l -4.287,-5.56 c 1.883,-1.279 4.047,-1.949 6.228,-1.948 2.181,0 4.344,0.672 6.227,1.951 l -2.65,3.434 a 2.898,2.898 0 0 1 1.423,-0.385 c 0.043,0 0.084,0.012 0.127,0.014 l 2.537,-3.287 -0.264,-0.205 a 12.105,12.105 0 0 0 -7.4,-2.522 z m 5,7 c -1.108,0 -2,0.91 -2,2.031 v 0.969 h -1 v 4 h 6 v -4 h -1 v -0.969 c 0,-1.12 -0.892,-2.031 -2,-2.031 z m 0,1 c 0.554,0 1,0.442 1,1 v 1 h -2 v -1 c 0,-0.558 0.446,-1 1,-1 z"
       fill="#808080"
       font-family="sans-serif"
       font-weight="400"
       overflow="visible"
       style="line-height:normal;font-variant-ligatures:none;font-variant-position:normal;font-variant-caps:normal;font-variant-numeric:normal;font-variant-alternates:normal;font-feature-settings:normal;text-indent:0;text-align:start;text-decoration-line:none;text-decoration-style:solid;text-decoration-color:#000000;text-transform:none;shape-padding:0;isolation:auto;mix-blend-mode:normal;stroke-width:0.64;marker:none"
       white-space="normal"
       id="path2" />
  </g>
</svg>
