<?xml version="1.0" encoding="UTF-8" standalone="no"?>
<svg
   height="24"
   width="24"
   version="1.1"
   id="svg8"
   sodipodi:docname="wireless-no-route.svg"
   inkscape:version="1.1 (ce6663b3b7, 2021-05-25)"
   xmlns:inkscape="http://www.inkscape.org/namespaces/inkscape"
   xmlns:sodipodi="http://sodipodi.sourceforge.net/DTD/sodipodi-0.dtd"
   xmlns="http://www.w3.org/2000/svg"
   xmlns:svg="http://www.w3.org/2000/svg">
  <defs
     id="defs12" />
  <sodipodi:namedview
     id="namedview10"
     pagecolor="#ffffff"
     bordercolor="#666666"
     borderopacity="1.0"
     inkscape:pageshadow="2"
     inkscape:pageopacity="0.0"
     inkscape:pagecheckerboard="0"
     showgrid="false"
     inkscape:snap-page="true"
     inkscape:zoom="9.899495"
     inkscape:cx="-11.970308"
     inkscape:cy="-3.2829957"
     inkscape:window-width="1920"
     inkscape:window-height="1016"
     inkscape:window-x="0"
     inkscape:window-y="27"
     inkscape:window-maximized="1"
     inkscape:current-layer="svg8"
     width="16px" />
  <g
     transform="matrix(1.25,0,0,1.25,-1389.25,335.75)"
     id="g6"
     style="stroke-width:0.8">
    <path
       color="#000000"
       d="m 1124.738,-264.406 c 0.2,0.289 0.368,0.6 0.46,0.937 0.036,0.12 0.056,0.24 0.083,0.362 0.674,0.287 1.326,0.636 1.948,1.058 l -4.74,6.143 v 0.06 h -0.05 l -0.21,0.274 c 0.095,0.055 0.183,0.12 0.257,0.203 0.157,0.174 0.282,0.387 0.373,0.613 l 5.805,-7.517 -0.264,-0.205 a 12.076,12.076 0 0 0 -3.664,-1.928 z m -8.125,0.236 c -1.059,0.411 -2.076,0.967 -3.011,1.688 l -0.266,0.205 0.205,0.263 5.598,7.262 c 0.09,-0.228 0.219,-0.442 0.377,-0.617 0.074,-0.083 0.16,-0.148 0.256,-0.203 l -0.211,-0.274 h -0.043 l -0.012,-0.07 -4.733,-6.137 a 11.46,11.46 0 0 1 2.36,-1.224 l -0.559,-0.866 z m 6.573,0.066 v 0.01 c 0,0.002 0.01,0 0.01,0.002 z m -2.2,10.108 v 0.014 c 0,0.066 -0.024,0.003 0.018,0.048 v -0.004 c 0.03,-0.027 0.017,0.016 0.017,-0.044 v -0.012 l -0.012,0.016 z"
       fill="#808080"
       font-family="sans-serif"
       font-weight="400"
       opacity="0.5"
       overflow="visible"
       style="line-height:normal;font-variant-ligatures:none;font-variant-position:normal;font-variant-caps:normal;font-variant-numeric:normal;font-variant-alternates:normal;font-feature-settings:normal;text-indent:0;text-align:start;text-decoration-line:none;text-decoration-style:solid;text-decoration-color:#000000;text-transform:none;shape-padding:0;isolation:auto;mix-blend-mode:normal;stroke-width:0.64;marker:none"
       white-space="normal"
       id="path2" />
    <path
       d="m 1121.271,-264.963 c -0.533,0 -1.037,0.061 -1.512,0.183 a 5.853,5.853 0 0 0 -1.167,0.446 l -0.658,0.458 0.566,0.876 0.452,-0.336 c 0.688,-0.35 1.394,-0.54 2.116,-0.54 0.607,0 1.09,0.16 1.421,0.491 0.327,0.316 0.493,0.737 0.493,1.236 0,0.311 -0.073,0.603 -0.217,0.868 -0.13,0.258 -0.299,0.503 -0.508,0.736 -0.205,0.227 -0.42,0.455 -0.648,0.682 v 10e-4 c -0.222,0.211 -0.433,0.444 -0.633,0.7 v 0.002 a 3.66,3.66 0 0 0 -0.492,0.786 2.378,2.378 0 0 0 -0.177,0.935 c 0,0.208 0.024,0.403 0.056,0.594 h 1.088 c -10e-4,-0.023 -0.01,-0.044 -0.01,-0.068 v -0.187 c 0,-0.387 0.077,-0.74 0.232,-1.05 0.15,-0.314 0.336,-0.599 0.557,-0.855 v -0.002 c 0.218,-0.264 0.458,-0.515 0.721,-0.755 a 7.23,7.23 0 0 0 0.7,-0.734 c 0.21,-0.253 0.384,-0.522 0.527,-0.807 0.138,-0.288 0.209,-0.613 0.209,-0.982 0,-0.292 -0.048,-0.597 -0.147,-0.914 l -10e-4,-0.002 v -0.002 a 2.04,2.04 0 0 0 -0.482,-0.867 c -0.234,-0.255 -0.552,-0.466 -0.957,-0.63 v -0.002 c -0.385,-0.172 -0.895,-0.261 -1.528,-0.261 z m -0.27,9.963 c -0.326,0 -0.562,0.1 -0.743,0.3 a 1.025,1.025 0 0 0 -0.275,0.718 c 0,0.279 0.089,0.512 0.275,0.718 0.18,0.2 0.417,0.3 0.742,0.3 0.325,0 0.562,-0.099 0.743,-0.3 0.186,-0.206 0.275,-0.44 0.275,-0.718 0,-0.28 -0.089,-0.512 -0.275,-0.718 -0.18,-0.2 -0.418,-0.3 -0.743,-0.3 z"
       fill="#808080"
       font-family="Ubuntu"
       font-size="72.036px"
       font-weight="500"
       letter-spacing="0"
       style="line-height:125%;-inkscape-font-specification:'Ubuntu Medium';text-align:center;stroke-width:0.64"
       text-anchor="middle"
       word-spacing="0"
       id="path4" />
  </g>
</svg>
