<?xml version="1.0" encoding="UTF-8" standalone="no"?>
<svg
   height="24"
   width="24"
   version="1.1"
   id="svg4"
   sodipodi:docname="wireless.svg"
   inkscape:version="1.1 (ce6663b3b7, 2021-05-25)"
   xmlns:inkscape="http://www.inkscape.org/namespaces/inkscape"
   xmlns:sodipodi="http://sodipodi.sourceforge.net/DTD/sodipodi-0.dtd"
   xmlns="http://www.w3.org/2000/svg"
   xmlns:svg="http://www.w3.org/2000/svg">
  <defs
     id="defs8" />
  <sodipodi:namedview
     id="namedview6"
     pagecolor="#ffffff"
     bordercolor="#666666"
     borderopacity="1.0"
     inkscape:pageshadow="2"
     inkscape:pageopacity="0.0"
     inkscape:pagecheckerboard="0"
     showgrid="false"
     inkscape:snap-page="true"
     inkscape:zoom="28"
     inkscape:cx="14.339286"
     inkscape:cy="14.339286"
     inkscape:window-width="1920"
     inkscape:window-height="1016"
     inkscape:window-x="0"
     inkscape:window-y="27"
     inkscape:window-maximized="1"
     inkscape:current-layer="svg4" />
  <path
     d="m 12,3.8743844 a 12.9775,12.9775 0 0 0 -9.20625,3.80875 l 0.92,0.9225 a 11.70875,11.70875 0 0 1 16.5725,0 l 0.92,-0.9225 a 12.9775,12.9775 0 0 0 -9.20625,-3.80875 z m 0,3.72875 c -2.4,0 -4.8,0.9125 -6.62875,2.7412496 l 0.92,0.92 a 8.0625,8.0625 0 0 1 11.41625,0 l 0.92125,-0.92 a 9.34375,9.34375 0 0 0 -6.62875,-2.7412496 z m 0,3.7474996 a 5.7075,5.7075 0 0 0 -4.05,1.6725 l 0.92,0.9225 a 4.41625,4.41625 0 0 1 6.26,0 l 0.92,-0.9225 a 5.7075,5.7075 0 0 0 -4.05,-1.6725 z m 0,3.775 a 2.5,2.5 0 0 0 -2.5,2.5 2.5,2.5 0 0 0 2.5,2.5 2.5,2.5 0 0 0 2.5,-2.5 2.5,2.5 0 0 0 -2.5,-2.5 z"
     style="stroke-width:1;marker:none"
     color="#000000"
     overflow="visible"
     fill="#808080"
     id="path2" />
</svg>
