<?xml version="1.0" encoding="UTF-8" standalone="no"?>
<svg
   viewBox="0 1 24 24"
   height="24"
   width="24"
   version="1.1"
   id="svg4"
   sodipodi:docname="forwarded-filled.svg"
   inkscape:version="1.2 (1:1.2.1+202207142221+cd75a1ee6d)"
   xmlns:inkscape="http://www.inkscape.org/namespaces/inkscape"
   xmlns:sodipodi="http://sodipodi.sourceforge.net/DTD/sodipodi-0.dtd"
   xmlns="http://www.w3.org/2000/svg"
   xmlns:svg="http://www.w3.org/2000/svg">
  <defs
     id="defs8" />
  <sodipodi:namedview
     id="namedview6"
     pagecolor="#ffffff"
     bordercolor="#666666"
     borderopacity="1.0"
     inkscape:pageshadow="2"
     inkscape:pageopacity="0.0"
     inkscape:pagecheckerboard="0"
     showgrid="true"
     inkscape:snap-page="true"
     inkscape:zoom="22.627417"
     inkscape:cx="9.9657862"
     inkscape:cy="15.24699"
     inkscape:window-width="1920"
     inkscape:window-height="1043"
     inkscape:window-x="0"
     inkscape:window-y="0"
     inkscape:window-maximized="1"
     inkscape:current-layer="svg4"
     inkscape:showpageshadow="2"
     inkscape:deskcolor="#d1d1d1">
    <inkscape:grid
       type="xygrid"
       id="grid6" />
  </sodipodi:namedview>
  <path
     id="path291"
     style="color:#000000;fill:#808080;fill-opacity:1"
     d="M 4.7871094 3 C 4.1101681 3.00559 3.5365042 3.0481531 3.0273438 3.3027344 C 2.6879031 3.4724543 2.3973376 3.7651705 2.2304688 4.140625 C 2.0635999 4.5160796 2 4.9583369 2 5.5 L 2 8 L 2 12 L 3 12 A 1.0001 1.0001 0 0 1 4 13 L 4 14.5 C 4 15.685855 4.2452734 16.045173 4.7480469 16.404297 C 5.2162878 16.738756 6.1711803 17 7.5 17 L 7.9980469 17 L 8 15.349609 A 1.0001 1.0001 0 0 1 9.4257812 14.445312 C 10.426769 14.916034 11.414063 15.41689 12.384766 15.947266 A 1.0001 1.0001 0 0 0 12.386719 15.949219 C 13.37735 16.495904 14.332288 17.05502 15.253906 17.625 A 1.0001 1.0001 0 0 1 15.605469 18 L 18.5 18 C 19.499993 18 20.293777 18.036709 20.972656 17.697266 C 21.312099 17.527545 21.602661 17.234831 21.769531 16.859375 C 21.9364 16.483919 22 16.041661 22 15.5 L 22 13 L 22 8 L 22 5.5 C 22 4.9583369 21.9364 4.5160796 21.769531 4.140625 C 21.602661 3.7651704 21.312099 3.4724544 20.972656 3.3027344 C 20.293777 2.9632938 19.499993 3 18.5 3 L 5.5 3 C 5.2500022 3 5.0127561 2.9981401 4.7871094 3 z M 5.015625 6 L 12 10.216797 L 18.988281 6 L 19.34375 6.5273438 L 12 11.822266 L 4.6582031 6.546875 L 5.015625 6 z " />
  <path
     id="path864"
     style="color:#000000;fill:#808080;fill-opacity:1"
     d="m 3,13 v 1.5 c 0,1.388886 0.422973,2.188006 1.166016,2.71875 0.743041,0.530744 1.889542,0.78125 3.333984,0.78125 h 1.498047 l 0.002,-2.650391 c 0.982744,0.462142 1.951288,0.953903 2.904297,1.47461 0.976249,0.538749 1.91672,1.089141 2.824219,1.65039 -0.907499,0.5725 -1.84797,1.12922 -2.824219,1.667969 -0.984999,0.53625 -1.954298,1.022032 -2.904297,1.457031 l -0.002,-2.599609 h -1.498047 c -1.555552,0 -2.909061,-0.249497 -3.916016,-0.96875 -1.006954,-0.719253 -1.583984,-1.920142 -1.583984,-3.53125 v -1.5 z"
     sodipodi:nodetypes="cssscccccccssscc" />
</svg>
