<svg height="24" width="24" xmlns="http://www.w3.org/2000/svg"><path style="fill:gray;stroke-width:1" d="m5.015 6-.356.547L12 11.823l7.344-5.296L18.987 6 12 10.216z"/><path style="color:#000;fill:gray;fill-opacity:1" d="M19.213 3c.677.006 1.25.048 1.76.303.34.17.63.462.797.838.166.375.23.817.23 1.359v10c0 .542-.064.984-.23 1.36a1.72 1.72 0 0 1-.797.837c-.51.255-1.083.297-1.76.303-.226.002-.463 0-.713 0H16v-1h2.5c1 0 1.706-.037 2.027-.197a.615.615 0 0 0 .328-.35c.084-.187.145-.495.145-.953v-10c0-.458-.061-.766-.145-.953a.615.615 0 0 0-.328-.35C20.207 4.037 19.5 4 18.5 4h-13c-1 0-1.706.037-2.027.197a.615.615 0 0 0-.328.35C3.06 4.734 3 5.042 3 5.5v9c0 1.389.423 2.188 1.166 2.719.743.53 1.89.781 3.334.781h1.498L9 15.35c.983.462 1.951.954 2.904 1.474.977.539 1.917 1.09 2.825 1.65a56.02 56.02 0 0 1-2.825 1.669A47.045 47.045 0 0 1 9 21.6L8.998 19H7.5c-1.556 0-2.91-.25-3.916-.969C2.577 17.312 2 16.111 2 14.5v-9c0-.542.064-.984.23-1.36a1.72 1.72 0 0 1 .797-.837C3.707 2.963 4.5 3 5.5 3h13c.25 0 .487-.002.713 0z"/></svg>