<svg height="24" width="24" xmlns="http://www.w3.org/2000/svg"><path style="color:#000;fill:gray;fill-opacity:1" d="M4.787 3c-.677.006-1.25.048-1.76.303-.34.17-.63.462-.797.838C2.064 4.516 2 4.958 2 5.5V12h1a1 1 0 0 1 1 1v1.5c0 1.186.245 1.545.748 1.904.468.335 1.423.596 2.752.596h.498L8 15.35a1 1 0 0 1 1.426-.905c1 .471 1.988.972 2.959 1.502a1 1 0 0 0 .002.002c.99.547 1.945 1.106 2.867 1.676a1 1 0 0 1 .351.375H18.5c1 0 1.794.037 2.473-.303.34-.17.63-.462.797-.838.166-.375.23-.817.23-1.359v-10c0-.542-.064-.984-.23-1.36a1.72 1.72 0 0 0-.797-.837C20.293 2.963 19.5 3 18.5 3h-13c-.25 0-.487-.002-.713 0zm.229 3L12 10.217 18.988 6l.356.527L12 11.822 4.658 6.547 5.016 6z"/><path style="color:#000;fill:gray;fill-opacity:1" d="M3 13v1.5c0 1.389.423 2.188 1.166 2.719.743.53 1.89.781 3.334.781h1.498L9 15.35c.983.462 1.951.954 2.904 1.474.977.539 1.917 1.09 2.825 1.65a56.02 56.02 0 0 1-2.825 1.669A47.045 47.045 0 0 1 9 21.6L8.998 19H7.5c-1.556 0-2.91-.25-3.916-.969C2.577 17.312 2 16.111 2 14.5V13z"/></svg>