<svg height="24" width="24" xmlns="http://www.w3.org/2000/svg"><path style="fill:gray;stroke-width:1" d="m5.015 8-.356.547L12 13.823l7.344-5.296L18.987 8 12 12.216z"/><path style="color:#000;fill:gray;fill-opacity:1" d="M4.787 5c-.677.006-1.25.048-1.76.303-.34.17-.63.462-.797.838C2.064 6.516 2 6.958 2 7.5v10c0 .542.064.984.23 1.36.167.375.458.668.797.837.51.255 1.083.297 1.76.303.226.002.463 0 .713 0H14v-1H5.5c-1 0-1.706-.037-2.027-.197a.615.615 0 0 1-.328-.35C3.06 18.266 3 17.958 3 17.5v-10c0-.458.061-.766.145-.953a.615.615 0 0 1 .328-.35C3.793 6.037 4.5 6 5.5 6h13c1 0 1.706.037 2.027.197.16.08.245.163.328.35.084.187.145.495.145.953V13h1V7.5c0-.542-.064-.984-.23-1.36a1.72 1.72 0 0 0-.797-.837C20.293 4.963 19.5 5 18.5 5h-13c-.25 0-.487-.002-.713 0z"/><path style="fill:gray;stroke:none;stroke-width:2;stroke-linejoin:round;stroke-dasharray:3,3" d="M18 14v3h-3v1h3v3h1v-3h3v-1h-3v-3z"/></svg>