<svg height="24" width="24" xmlns="http://www.w3.org/2000/svg"><path style="fill:gray;stroke-width:1" d="M7.787 3c-.677.006-1.25.048-1.76.303-.34.17-.63.462-.797.838C5.064 4.516 5 4.958 5 5.5V6h-.213c-.677.006-1.25.048-1.76.303-.34.17-.63.462-.797.838C2.064 7.516 2 7.958 2 8.5v10c0 .542.064.984.23 1.36.167.375.458.668.797.837.51.255 1.083.297 1.76.303.226.002.463 0 .713 0h13c1 0 1.794.037 2.473-.303.34-.17.63-.462.797-.838.166-.375.23-.817.23-1.359v-10c0-.542-.064-.984-.23-1.36a1.72 1.72 0 0 0-.797-.837C20.413 6.023 19.767 6 19 6v-.5c0-.542-.064-.984-.23-1.36a1.72 1.72 0 0 0-.797-.837C17.293 2.963 16.5 3 15.5 3h-7c-.25 0-.487-.002-.713 0zM8.5 4h7c1 0 1.706.037 2.027.197.16.08.245.163.328.35.084.187.145.495.145.953v5.096l-6 3.62-6-3.622V5.5c0-.458.061-.766.145-.953a.615.615 0 0 1 .328-.35C6.793 4.037 7.5 4 8.5 4zM8 6v1h8V6H8zM5 7.006v3.017l-.342.524L12 15.822l7.344-5.295-.344-.51v-3.01c.73.013 1.264.06 1.527.191.16.08.245.163.328.35.084.187.145.495.145.953v10c0 .458-.061.766-.145.953a.615.615 0 0 1-.328.35c-.32.16-1.027.197-2.027.197h-13c-1 0-1.706-.037-2.027-.197a.615.615 0 0 1-.328-.35C3.06 19.266 3 18.958 3 18.5v-10c0-.458.061-.766.145-.953a.615.615 0 0 1 .328-.35c.263-.131.797-.178 1.527-.191zM8 8v1h8V8H8zm0 2v1h5v-1H8z"/></svg>