<?xml version="1.0" encoding="UTF-8" standalone="no"?>
<svg
   viewBox="0 1 24 24"
   height="24"
   width="24"
   version="1.1"
   id="svg4"
   sodipodi:docname="replied-filled.svg"
   inkscape:version="1.2 (1:1.2.1+202207142221+cd75a1ee6d)"
   xmlns:inkscape="http://www.inkscape.org/namespaces/inkscape"
   xmlns:sodipodi="http://sodipodi.sourceforge.net/DTD/sodipodi-0.dtd"
   xmlns="http://www.w3.org/2000/svg"
   xmlns:svg="http://www.w3.org/2000/svg">
  <defs
     id="defs8" />
  <sodipodi:namedview
     id="namedview6"
     pagecolor="#ffffff"
     bordercolor="#666666"
     borderopacity="1.0"
     inkscape:pageshadow="2"
     inkscape:pageopacity="0.0"
     inkscape:pagecheckerboard="0"
     showgrid="true"
     inkscape:snap-page="true"
     inkscape:zoom="32"
     inkscape:cx="7.59375"
     inkscape:cy="12.09375"
     inkscape:window-width="1920"
     inkscape:window-height="1043"
     inkscape:window-x="0"
     inkscape:window-y="0"
     inkscape:window-maximized="1"
     inkscape:current-layer="svg4"
     inkscape:showpageshadow="2"
     inkscape:deskcolor="#d1d1d1">
    <inkscape:grid
       type="xygrid"
       id="grid6" />
  </sodipodi:namedview>
  <path
     id="path291"
     style="color:#000000;fill:#808080;fill-opacity:1"
     d="m 19.212885,2.999953 c 0.676941,0.00559 1.250605,0.048153 1.759765,0.3027344 0.339441,0.1697199 0.630006,0.4624361 0.796875,0.8378906 0.166869,0.3754546 0.230469,0.8177119 0.230469,1.359375 v 2.5 4 h -1 a 1.0001,1.0001 0 0 0 -1,1 v 1.5 c 0,1.185855 -0.245273,1.545173 -0.748047,1.904297 -0.468241,0.334459 -1.423133,0.595703 -2.751953,0.595703 h -0.498047 l -0.0019,-1.650391 a 1.0001,1.0001 0 0 0 -1.425781,-0.904297 c -1.000988,0.470722 -1.988282,0.971578 -2.958985,1.501954 a 1.0001,1.0001 0 0 1 -0.002,0.002 c -0.990631,0.546685 -1.945569,1.105801 -2.867187,1.675781 a 1.0001,1.0001 0 0 0 -0.351563,0.375 h -2.894531 c -0.999993,0 -1.793777,0.03671 -2.472656,-0.302734 -0.339443,-0.169721 -0.630005,-0.462435 -0.796875,-0.837891 -0.166869,-0.375456 -0.230469,-0.817714 -0.230469,-1.359375 v -2.5 -5 -2.5 c 0,-0.5416631 0.0636,-0.9839204 0.230469,-1.359375 0.16687,-0.3754546 0.457432,-0.6681706 0.796875,-0.8378906 0.678879,-0.3394406 1.472663,-0.3027344 2.472656,-0.3027344 h 13 c 0.249998,0 0.487244,-0.00186 0.712891,0 z m -0.228516,3 -6.984375,4.216797 -6.988281,-4.216797 -0.355469,0.527344 7.34375,5.294922 7.341797,-5.275391 z" />
  <path
     id="path864"
     style="color:#000000;fill:#808080;fill-opacity:1"
     d="m 20.999994,12.999953 v 1.5 c 0,1.388886 -0.422973,2.188006 -1.166016,2.71875 -0.743041,0.530744 -1.889542,0.78125 -3.333984,0.78125 h -1.498047 l -0.002,-2.650391 c -0.982744,0.462142 -1.951288,0.953903 -2.904297,1.47461 -0.976249,0.538749 -1.91672,1.089141 -2.824219,1.65039 0.907499,0.5725 1.84797,1.12922 2.824219,1.667969 0.984999,0.53625 1.954298,1.022032 2.904297,1.457031 l 0.002,-2.599609 h 1.498047 c 1.555552,0 2.909061,-0.249497 3.916016,-0.96875 1.006954,-0.719253 1.583984,-1.920142 1.583984,-3.53125 v -1.5 z"
     sodipodi:nodetypes="cssscccccccssscc" />
</svg>
