<svg height="24" width="24" xmlns="http://www.w3.org/2000/svg"><path style="color:#000;fill:gray;fill-opacity:1" d="M19.213 3c.677.006 1.25.048 1.76.303.34.17.63.462.797.838.166.375.23.817.23 1.359V12h-1a1 1 0 0 0-1 1v1.5c0 1.186-.245 1.545-.748 1.904-.468.335-1.423.596-2.752.596h-.498L16 15.35a1 1 0 0 0-1.426-.905c-1 .471-1.988.972-2.959 1.502a1 1 0 0 1-.002.002 66.923 66.923 0 0 0-2.867 1.676 1 1 0 0 0-.351.375H5.5c-1 0-1.794.037-2.473-.303a1.72 1.72 0 0 1-.797-.838C2.064 16.484 2 16.042 2 15.5v-10c0-.542.064-.984.23-1.36a1.72 1.72 0 0 1 .797-.837C3.707 2.963 4.5 3 5.5 3h13c.25 0 .487-.002.713 0zm-.229 3L12 10.217 5.012 6l-.356.527L12 11.822l7.342-5.275z"/><path style="color:#000;fill:gray;fill-opacity:1" d="M21 13v1.5c0 1.389-.423 2.188-1.166 2.719-.743.53-1.89.781-3.334.781h-1.498L15 15.35c-.983.462-1.951.953-2.904 1.474a65.913 65.913 0 0 0-2.825 1.65 56.02 56.02 0 0 0 2.825 1.669A47.045 47.045 0 0 0 15 21.6l.002-2.6H16.5c1.556 0 2.91-.25 3.916-.969C21.423 17.311 22 16.111 22 14.5V13z"/></svg>