<svg height="24" width="24" xmlns="http://www.w3.org/2000/svg"><path style="fill:gray;stroke-width:1" d="m5.015 6-.356.547L12 11.823l7.344-5.296L18.987 6 12 10.216z"/><path style="color:#000;fill:gray;fill-opacity:1" d="M4.787 3c-.677.006-1.25.048-1.76.303-.34.17-.63.462-.797.838C2.064 4.516 2 4.958 2 5.5v10c0 .542.064.984.23 1.36.167.375.458.668.797.837.51.255 1.083.297 1.76.303.226.002.463 0 .713 0H7v-1H5.5c-1 0-1.706-.037-2.027-.197a.615.615 0 0 1-.328-.35C3.06 16.266 3 15.958 3 15.5v-10c0-.458.061-.766.145-.953a.615.615 0 0 1 .328-.35C3.793 4.037 4.5 4 5.5 4h13c1 0 1.706.037 2.027.197.16.08.245.163.328.35.084.187.145.495.145.953V13h1V5.5c0-.542-.064-.984-.23-1.36a1.72 1.72 0 0 0-.797-.837C20.293 2.963 19.5 3 18.5 3h-13c-.25 0-.487-.002-.713 0z"/><path style="color:#000;fill:gray;stroke-linecap:round;stroke-linejoin:round;-inkscape-stroke:none" d="M12.992 13.016a.5.5 0 0 0-.346.314s-.615 1.7-1.632 3.387c-.509.844-1.119 1.68-1.772 2.281-.653.602-1.327.955-1.992.955a.5.5 0 0 0-.5.5.5.5 0 0 0 .5.5c1.011 0 1.908-.517 2.67-1.219.761-.701 1.41-1.605 1.95-2.5.406-.674.376-.767.648-1.343-.01.497-.108 1.217-.069 1.597.05.482.135.875.29 1.203.153.329.41.615.761.72.351.103.707.012 1.023-.157.317-.17.626-.425.956-.76.385-.39.867-1.132 1.314-1.746-.019.66-.124 1.477-.025 1.936.178.832.619 1.437 1.253 1.601.635.165 1.274-.079 1.907-.467.633-.387 1.283-.955 1.931-1.627a.5.5 0 0 0-.011-.707.5.5 0 0 0-.707.014c-.61.632-1.217 1.15-1.737 1.469-.52.318-.927.402-1.13.35-.204-.053-.392-.21-.528-.844-.136-.635-.146-1.677.059-3.166a.5.5 0 0 0-.916-.34c-.828 1.287-1.552 2.246-2.123 2.826-.286.29-.535.483-.713.578-.178.095-.254.085-.27.08-.015-.004-.06-.016-.138-.183-.079-.168-.157-.467-.2-.881-.084-.828-.039-2.11.168-3.828a.5.5 0 0 0-.62-.543z"/></svg>