<svg height="24" width="24" xmlns="http://www.w3.org/2000/svg"><path style="fill:gray;stroke-width:1" d="M4.787 5c-.677.006-1.25.048-1.76.303-.34.17-.63.462-.797.838C2.064 6.516 2 6.958 2 7.5v10c0 .542.064.984.23 1.36.167.375.458.668.797.837.51.255 1.083.297 1.76.303.226.002.463 0 .713 0h13c1 0 1.794.037 2.473-.303.34-.17.63-.462.797-.838.166-.375.23-.817.23-1.359V7.937a3.5 3.5 0 0 1-1 .721V17.5c0 .458-.061.766-.145.953a.615.615 0 0 1-.328.35c-.32.16-1.027.197-2.027.197h-13c-1 0-1.706-.037-2.027-.197a.615.615 0 0 1-.328-.35C3.06 18.266 3 17.958 3 17.5v-10c0-.458.061-.766.145-.953a.615.615 0 0 1 .328-.35C3.793 6.037 4.5 6 5.5 6h10.535A3.5 3.5 0 0 1 16 5.5a3.5 3.5 0 0 1 .035-.5H5.5c-.25 0-.487-.002-.713 0zm.229 3-.358.547L12 13.822l6.799-4.902a3.5 3.5 0 0 1-.854-.291L12 12.217 5.016 8z"/><circle style="fill:gray;stroke-width:2;stroke-linecap:square;stroke-linejoin:round" cx="19.5" cy="5.5" r="2.5"/></svg>