<?xml version="1.0" encoding="UTF-8" standalone="no"?>
<svg
   height="24"
   id="svg7384"
   version="1.1"
   width="24"
   sodipodi:docname="deb-filled.svg"
   inkscape:version="1.1.2 (08b2f3d93c, 2022-04-05)"
   xmlns:inkscape="http://www.inkscape.org/namespaces/inkscape"
   xmlns:sodipodi="http://sodipodi.sourceforge.net/DTD/sodipodi-0.dtd"
   xmlns="http://www.w3.org/2000/svg"
   xmlns:svg="http://www.w3.org/2000/svg"
   xmlns:rdf="http://www.w3.org/1999/02/22-rdf-syntax-ns#"
   xmlns:cc="http://creativecommons.org/ns#"
   xmlns:dc="http://purl.org/dc/elements/1.1/">
  <sodipodi:namedview
     id="namedview25"
     pagecolor="#ffffff"
     bordercolor="#666666"
     borderopacity="1.0"
     inkscape:pageshadow="2"
     inkscape:pageopacity="0.0"
     inkscape:pagecheckerboard="0"
     showgrid="false"
     inkscape:zoom="22.627417"
     inkscape:cx="11.247417"
     inkscape:cy="11.667262"
     inkscape:window-width="1920"
     inkscape:window-height="1043"
     inkscape:window-x="1920"
     inkscape:window-y="0"
     inkscape:window-maximized="1"
     inkscape:current-layer="svg7384"
     inkscape:snap-page="true">
    <inkscape:grid
       type="xygrid"
       id="grid829" />
    <inkscape:grid
       type="xygrid"
       id="grid831"
       dotted="true"
       spacingx="0.5"
       spacingy="0.5"
       empspacing="10" />
  </sodipodi:namedview>
  <metadata
     id="metadata20854">
    <rdf:RDF>
      <cc:Work
         rdf:about="">
        <dc:format>image/svg+xml</dc:format>
        <dc:type
           rdf:resource="http://purl.org/dc/dcmitype/StillImage" />
      </cc:Work>
    </rdf:RDF>
  </metadata>
  <defs
     id="defs7386">
    <linearGradient
       id="linearGradient5606"
       inkscape:swatch="solid">
      <stop
         id="stop5608"
         offset="0"
         style="stop-color:#000000;stop-opacity:1;" />
    </linearGradient>
    <linearGradient
       id="linearGradient4526"
       inkscape:swatch="solid">
      <stop
         id="stop4528"
         offset="0"
         style="stop-color:#ffffff;stop-opacity:1;" />
    </linearGradient>
    <linearGradient
       id="linearGradient3600-4"
       inkscape:swatch="gradient">
      <stop
         id="stop3602-7"
         offset="0"
         style="stop-color:#f4f4f4;stop-opacity:1" />
      <stop
         id="stop3604-6"
         offset="1"
         style="stop-color:#dbdbdb;stop-opacity:1" />
    </linearGradient>
  </defs>
  <path
     id="path866"
     style="color:#000000;fill:#808080;fill-opacity:1;-inkscape-stroke:none"
     d="M 6.7871094 3 C 6.1101636 3.00559 5.5365074 3.048153 5.0273438 3.3027344 C 4.6879015 3.4724556 4.3973384 3.765168 4.2304688 4.140625 C 4.063599 4.516082 4 4.9583339 4 5.5 L 4 18.5 C 4 19.041666 4.063599 19.483918 4.2304688 19.859375 C 4.3973385 20.234832 4.6879015 20.527544 5.0273438 20.697266 C 5.7062285 21.036708 6.500001 21 7.5 21 L 15.5 21 C 16.499999 21 17.293771 21.03671 17.972656 20.697266 C 18.312099 20.527544 18.602661 20.234832 18.769531 19.859375 C 18.936401 19.483918 19 19.041666 19 18.5 L 19 5.5 C 19 4.9583339 18.9364 4.516082 18.769531 4.140625 C 18.602661 3.765168 18.312099 3.4724556 17.972656 3.3027344 C 17.293771 2.963292 16.499999 3 15.5 3 L 7.5 3 C 7.2500003 3 7.012758 2.99814 6.7871094 3 z M 12.185547 5.8300781 C 12.043987 5.8582281 11.856639 5.8391493 11.726562 5.8867188 L 11.644531 5.875 C 11.822778 5.8522818 12.0041 5.8449815 12.185547 5.8300781 z M 11.386719 5.9121094 C 11.291439 5.9653386 11.196712 6.0076355 11.107422 6.0703125 C 11.470179 5.9836825 11.453478 6.1056116 11.824219 6.0566406 L 11.898438 6.0410156 C 11.916136 6.0155986 11.793692 6.0013179 11.6875 5.9824219 C 12.042006 5.9925349 12.015008 6.0153326 11.898438 6.0410156 L 11.892578 6.0507812 L 11.824219 6.0566406 C 11.694074 6.0754036 11.535397 6.1269224 11.560547 6.1464844 C 11.974803 6.1943903 12.038491 6.0187342 12.421875 6.1464844 L 12.398438 6.0332031 C 12.931128 6.2253607 13.042226 6.1928673 13.621094 6.5 C 13.824031 6.5099808 13.843658 6.3750444 14.150391 6.5 C 14.204419 6.5947481 14.138496 6.6117093 14.515625 6.8359375 C 14.55741 6.8191703 14.440146 6.7136743 14.347656 6.6289062 C 15.105507 7.0339807 15.930266 7.898073 16.181641 8.8222656 C 15.946101 8.3887135 16.157212 9.0420125 16.076172 9.0078125 C 16.181166 9.2905929 16.267083 9.5830889 16.320312 9.8847656 C 16.250448 9.6373827 16.097911 9.0395435 15.832031 8.6542969 C 15.810207 8.9028774 15.49036 8.4837873 15.666016 9.03125 C 15.799621 9.2252703 15.692411 8.8330751 15.857422 9.1777344 C 15.860083 9.3415474 15.922654 9.5054338 15.958984 9.71875 C 15.902561 9.7095679 15.832136 9.4817119 15.791016 9.5449219 C 15.848104 9.8133303 15.942856 9.9539834 15.978516 9.9746094 C 15.960286 10.019588 15.913456 9.9326585 15.910156 10.115234 C 15.932246 10.535479 16.026756 10.358946 16.072266 10.378906 C 16.026222 10.585835 15.842044 10.829577 15.933594 11.185547 C 15.907375 11.077625 15.855126 10.967434 15.816406 10.865234 C 15.780476 11.169173 15.884533 11.229443 15.744141 11.597656 C 15.845267 11.265772 15.833691 10.965124 15.738281 11.109375 C 15.780598 11.581253 15.364906 11.943571 15.410156 12.242188 L 15.289062 12.076172 C 14.961836 12.550445 15.281092 12.337836 15.058594 12.697266 C 15.140304 12.556079 15.016722 12.63847 15.123047 12.478516 C 15.052385 12.482509 14.807813 12.778799 14.583984 12.953125 C 13.704903 13.657747 12.654819 13.750486 11.638672 13.371094 C 11.59915 13.403431 11.819407 13.576456 11.982422 13.660156 C 12.369398 13.803257 12.807685 13.809645 13.152344 13.796875 C 12.407534 14.108399 10.986575 13.479255 10.521484 12.646484 C 10.626479 12.669372 10.985854 13.233059 11.255859 13.324219 C 11.096305 13.196468 10.973818 13.034459 10.859375 12.867188 C 11.074953 13.114837 11.33694 13.315347 11.623047 13.449219 C 11.613997 13.414487 11.633549 13.394681 11.638672 13.371094 C 11.643795 13.347507 11.634007 13.321036 11.566406 13.275391 C 10.705023 12.615215 10.196193 12.054652 10.373047 10.755859 C 10.504257 10.656586 10.538566 10.115411 10.839844 9.9257812 C 11.023485 9.5197753 11.573793 9.1443456 12.162109 9.1347656 C 12.762402 9.1020296 13.270955 9.4555813 13.525391 9.7890625 C 13.062164 9.356708 12.303384 9.2267011 11.65625 9.546875 C 10.99461 9.8448256 10.600983 10.573446 10.658203 11.298828 C 10.682683 11.262899 10.705087 11.284744 10.716797 11.195312 C 10.69657 12.605357 12.237204 13.638833 13.345703 13.117188 L 13.357422 13.146484 C 13.807076 13.023658 13.749011 12.922442 14.042969 12.720703 C 14.020079 12.767944 13.84671 12.888325 13.951172 12.890625 C 14.094093 12.852566 14.539929 12.437405 14.759766 12.242188 C 14.860496 12.024877 14.705045 12.124894 14.845703 11.851562 L 15.017578 11.765625 C 15.113254 11.489365 15.219011 11.333223 15.207031 11.011719 L 15.107422 11.224609 C 15.255272 10.77775 15.170646 10.289918 15.191406 9.8691406 L 15.150391 9.859375 C 15.114195 8.8010447 14.198775 7.675644 13.384766 7.2949219 C 12.682673 6.9708889 11.60254 6.915834 11.103516 7.1601562 C 11.172182 7.0993421 11.445781 7.0722326 11.363281 7.0253906 C 10.581743 7.1029722 10.755479 7.2982709 10.15625 7.4511719 C 9.9920386 7.6099279 10.637405 7.3236989 10.291016 7.5292969 C 9.9696436 7.6180566 9.8200187 7.4740272 9.34375 7.9667969 C 9.3862 8.0352009 9.6445105 7.7648419 9.4277344 8.0371094 C 8.9800765 7.981751 8.0157456 9.0602683 7.8105469 9.4179688 L 7.9160156 9.4355469 C 7.7399599 9.8769504 7.5097876 10.159545 7.4785156 10.423828 C 7.4328716 11.07389 7.2044141 12.258959 7.5195312 12.623047 L 7.4902344 12.927734 C 7.5333496 13.014098 7.5655116 13.102284 7.6191406 13.183594 L 7.5488281 13.1875 C 7.8803131 14.233587 7.9058065 13.208514 8.34375 14.294922 C 8.2801411 14.273498 8.2155329 14.249823 8.1230469 14.125 C 8.1118687 14.220281 8.2585125 14.505353 8.4316406 14.728516 L 8.3574219 14.8125 C 8.4538999 14.988029 8.542439 15.026941 8.609375 15.087891 C 8.249013 14.891209 8.9451345 15.736094 9.0078125 15.84375 L 9.0625 15.744141 C 9.0543825 15.88613 9.1634096 16.070582 9.3691406 16.324219 L 9.5410156 16.316406 C 9.6115443 16.456266 9.8707161 16.708723 10.027344 16.720703 L 9.921875 16.855469 C 10.314973 16.979892 10.112647 17.020407 10.595703 17.191406 L 10.498047 17.019531 C 10.744498 17.233379 10.822202 17.420038 11.169922 17.583984 C 11.652179 17.752055 11.714218 17.686536 12.208984 17.828125 C 11.789538 17.816415 11.298415 17.820006 10.966797 17.701172 C 8.7042877 17.088504 6.6339851 14.435026 6.7851562 11.701172 C 6.7504224 11.147721 6.8401339 10.45609 6.7480469 10.318359 C 6.8772608 9.8970502 7.0267144 9.3825561 7.328125 8.7714844 C 7.3461959 8.7871225 7.4163747 8.8267762 7.53125 8.6308594 C 7.624135 8.4268583 7.699435 8.2023183 7.8164062 8.0039062 L 7.8769531 7.9902344 C 7.9372353 7.6398529 8.6947622 7.1023027 8.9199219 6.8320312 L 8.9355469 6.9355469 C 9.4269859 6.4747148 10.301886 6.1654154 10.794922 5.9453125 C 10.665442 6.0887651 11.08451 5.9304734 11.386719 5.9121094 z M 7.0078125 8.4160156 C 7.0278807 8.4890392 7.1965309 8.2993173 7.0605469 8.6054688 C 6.9761286 8.6646031 6.9413301 8.6949721 6.9335938 8.6992188 C 6.9370311 8.6880082 7.019269 8.5840141 7.0078125 8.4160156 z M 6.7851562 9.3066406 C 6.7613354 9.4174905 6.749911 9.5333834 6.6875 9.7246094 C 6.705598 9.5749022 6.6130927 9.5267435 6.7851562 9.3066406 z M 13.871094 10.636719 C 13.895695 10.636087 13.914454 10.697903 13.902344 10.876953 C 13.866544 11.021204 13.835828 10.787008 13.798828 10.767578 C 13.814733 10.699378 13.846493 10.637351 13.871094 10.636719 z M 16.046875 11.240234 C 15.993247 11.648369 15.865806 12.051708 15.669922 12.419922 C 15.847175 12.070871 15.964088 11.694776 16.017578 11.314453 L 16.046875 11.240234 z M 13.736328 11.408203 C 13.70131 11.580863 13.619219 11.749018 13.507812 11.902344 C 13.522454 11.761686 13.17864 11.9624 13.578125 11.458984 C 13.543261 11.600973 13.206452 11.974309 13.578125 11.740234 C 13.639927 11.630258 13.705224 11.525986 13.736328 11.408203 z M 12.931641 12.142578 C 12.873621 12.197671 12.810271 12.254387 12.738281 12.310547 C 12.478652 12.270492 12.242595 12.170669 12.441406 12.167969 C 12.607215 12.182999 12.770223 12.182098 12.931641 12.142578 z M 10.423828 12.167969 C 10.469872 12.259523 10.510878 12.351084 10.580078 12.427734 L 10.640625 12.609375 C 10.557188 12.468317 10.467748 12.32912 10.423828 12.167969 z M 10.269531 12.441406 C 10.433744 12.758386 10.522546 12.853816 10.642578 13.087891 C 10.475837 12.949495 10.372998 12.75773 10.242188 12.580078 L 10.269531 12.441406 z " />
</svg>
