<svg height="24" width="24" xmlns="http://www.w3.org/2000/svg"><path style="color:#000;fill:gray;stroke-width:4;-inkscape-stroke:none" d="M10 2v1H8.006c-.439 0-.786.007-1.078.117-.293.11-.528.308-.666.559C5.985 4.178 6.01 4.792 6 5.63v.002l.033 12.703v.002c.01.839-.015 1.451.262 1.953.138.25.373.45.666.56.292.11.64.149 1.078.149h7.994c.439 0 .786-.039 1.078-.148.293-.11.526-.31.664-.561.277-.502.249-1.114.258-1.953v-.002L18 5.633V5.63c-.01-.839.019-1.453-.258-1.955a1.25 1.25 0 0 0-.664-.559C16.786 3.007 16.438 3 16 3h-2V2h-4zM8.006 4H16c.427 0 .664.03.727.053a.259.259 0 0 1 .14.105c.095.173.122.618.133 1.475l.033 12.693v.012c-.01.854-.037 1.298-.133 1.47-.015.03-.055.074-.14.106-.123.046-.349.086-.727.086H8.04c-.378 0-.604-.04-.726-.086-.086-.032-.127-.077-.143-.105-.098-.178-.126-.62-.137-1.485L7 5.633c.01-.853.04-1.298.137-1.475a.266.266 0 0 1 .142-.105c.062-.023.3-.053.727-.053zM11 6v2.883c0 .991.037 1.896.107 2.71.071.803.16 1.604.266 2.407h1.254a55.49 55.49 0 0 0 .266-2.406c.07-.815.107-1.72.107-2.711V6h-2zm1 10a1 1 0 0 0-1 1 1 1 0 0 0 1 1 1 1 0 0 0 1-1 1 1 0 0 0-1-1z"/></svg>