<svg height="24" width="24" xmlns="http://www.w3.org/2000/svg"><path style="fill:gray;stroke:none;stroke-width:2;stroke-linecap:square;stroke-linejoin:round" d="M3 3v13h1v-1h1v1h1V3H5v1H4V3H3zm4 0v6h6V3H7zm7 0v7.514A6.5 6.5 0 0 1 16.5 10a6.5 6.5 0 0 1 .5.021V3h-1v1h-1V3h-1zM4 5h1v1H4V5zm11 0h1v1h-1V5zM4 7h1v1H4V7zm11 0h1v1h-1V7zM4 9h1v1H4V9zm11 0h1v1h-1V9zm-8 1v6h3.035A6.5 6.5 0 0 1 13 11.023V10H7zm-3 1h1v1H4v-1zm0 2h1v1H4v-1z"/><path style="fill:gray;stroke:none;stroke-width:2;stroke-linecap:round;stroke-linejoin:round;stroke-dasharray:2,4" d="M16.5 11a5.5 5.5 0 0 0-5.5 5.5 5.5 5.5 0 0 0 5.5 5.5 5.5 5.5 0 0 0 5.5-5.5 5.5 5.5 0 0 0-5.5-5.5zm-.5 2h1v3.793l1.354 1.353.353.354-.707.707-.354-.353L16 17.207V13.5z"/></svg>