<svg height="24" width="24" xmlns="http://www.w3.org/2000/svg"><path style="color:#000;fill:gray;-inkscape-stroke:none;fill-opacity:1" d="M4.787 3c-.677.006-1.25.048-1.76.303-.34.17-.63.462-.797.838C2.064 4.516 2 4.958 2 5.5v11c0 .542.064.984.23 1.36.167.375.458.668.797.837.68.34 1.473.303 2.473.303h4c1.167 0 2.084 1.277 2.084 1.277l.416.625.416-.625S13.333 19 14.5 19h4c1 0 1.794.037 2.473-.303.34-.17.63-.462.797-.838.166-.375.23-.817.23-1.359v-11c0-.542-.064-.984-.23-1.36a1.72 1.72 0 0 0-.797-.837c-.51-.255-1.083-.297-1.76-.303-.226-.002-.463 0-.713 0h-4c-1.338 0-2.09.762-2.5 1.258C11.59 3.762 10.838 3 9.5 3h-4c-.25 0-.487-.002-.713 0zM5.5 4h4c1.167 0 2.084 1.277 2.084 1.277l.416.625.416-.625S13.333 4 14.5 4h4c1 0 1.706.037 2.027.197.16.08.245.163.328.35.084.187.145.495.145.953v11c0 .458-.061.766-.145.953a.615.615 0 0 1-.328.35c-.32.16-1.027.197-2.027.197h-4c-1.338 0-2.09.762-2.5 1.258C11.59 18.762 10.838 18 9.5 18h-4c-1 0-1.706-.037-2.027-.197a.615.615 0 0 1-.328-.35C3.06 17.266 3 16.958 3 16.5v-11c0-.458.061-.766.145-.953a.615.615 0 0 1 .328-.35C3.793 4.037 4.5 4 5.5 4zM6 7v1h3V7H6zm9 0v1h3V7h-3zM6 9v1h3V9H6zm9 0v1h3V9h-3zm-9 2v1h3v-1H6zm9 0v1h3v-1h-3zm-9 2v1h3v-1H6zm9 0v1h3v-1h-3z"/></svg>