<svg height="24" width="24" xmlns="http://www.w3.org/2000/svg"><path style="fill:gray;stroke:#fff;stroke-width:0;stroke-linecap:square;stroke-linejoin:round" d="M6.5 3c-.277 0-.5.223-.5.5v1.807c-.25.086-.487.195-.705.334-.484.308-.841.767-1.057 1.359H2.5c-.277 0-.5.223-.5.5v1c0 .277.223.5.5.5H4v1H2.5c-.277 0-.5.223-.5.5v1c0 .277.223.5.5.5H4v1H2.5c-.277 0-.5.223-.5.5v1c0 .277.223.5.5.5H4v1H2.5c-.277 0-.5.223-.5.5v1c0 .277.223.5.5.5h1.738c.216.592.573 1.051 1.057 1.36.218.138.454.247.705.333V21.5c0 .277.223.5.5.5h1c.277 0 .5-.223.5-.5v-1.508c.163.005.33.008.5.008H9v1.5c0 .277.223.5.5.5h1c.277 0 .5-.223.5-.5V20h1v1.5c0 .277.223.5.5.5h1c.277 0 .5-.223.5-.5V20h.5c.17 0 .337-.003.5-.008V21.5c0 .277.223.5.5.5h1c.277 0 .5-.223.5-.5v-1.807c.25-.086.487-.195.705-.334.484-.308.841-.767 1.057-1.359H20.5c.277 0 .5-.223.5-.5v-1c0-.277-.223-.5-.5-.5H19v-1h1.5c.277 0 .5-.223.5-.5v-1c0-.277-.223-.5-.5-.5H19v-1h1.5c.277 0 .5-.223.5-.5v-1c0-.277-.223-.5-.5-.5H19V9h1.5c.277 0 .5-.223.5-.5v-1c0-.277-.223-.5-.5-.5h-1.738c-.216-.592-.573-1.051-1.057-1.36A3.333 3.333 0 0 0 17 5.308V3.5c0-.277-.223-.5-.5-.5h-1c-.277 0-.5.223-.5.5v1.508c-.163-.005-.33-.008-.5-.008H14V3.5c0-.277-.223-.5-.5-.5h-1c-.277 0-.5.223-.5.5V5h-1V3.5c0-.277-.223-.5-.5-.5h-1c-.277 0-.5.223-.5.5V5h-.5c-.17 0-.337.003-.5.008V3.5c0-.277-.223-.5-.5-.5zm2 3h6c1.217 0 2.131.142 2.67.484.539.343.83.866.83 2.016v8c0 1.15-.291 1.673-.83 2.016-.539.342-1.453.484-2.67.484h-6c-1.217 0-2.131-.142-2.67-.484C5.291 18.173 5 17.65 5 16.5v-8c0-1.15.291-1.673.83-2.016C6.37 6.142 7.283 6 8.5 6zm.287 1c-.677.006-1.25.048-1.76.303-.34.17-.63.462-.797.838C6.064 8.516 6 8.958 6 9.5v6c0 .542.064.984.23 1.36.167.375.458.668.797.837.68.34 1.473.303 2.473.303h4c1 0 1.794.037 2.473-.303.34-.17.63-.462.797-.838.166-.375.23-.817.23-1.359v-6c0-.542-.064-.984-.23-1.36a1.72 1.72 0 0 0-.797-.837C15.293 6.963 14.5 7 13.5 7h-4c-.25 0-.487-.002-.713 0zM9.5 8h4c1 0 1.706.037 2.027.197.16.08.245.163.328.35.084.187.145.495.145.953v6c0 .458-.061.766-.145.953a.615.615 0 0 1-.328.35c-.32.16-1.027.197-2.027.197h-4c-1 0-1.706-.037-2.027-.197a.615.615 0 0 1-.328-.35C7.06 16.266 7 15.958 7 15.5v-6c0-.458.061-.766.145-.953a.615.615 0 0 1 .328-.35C7.793 8.037 8.5 8 9.5 8z"/></svg>