<svg height="24" width="24" xmlns="http://www.w3.org/2000/svg"><path d="M20.113 3.245a.627.627 0 0 0-.43.188l-.608.608a1.875 1.875 0 0 0-2.15.383l-2.059 2.058-1.175-1.175a.625.625 0 1 0-.884.885l1.176 1.174-7.684 7.683a1.872 1.872 0 0 0-.549 1.625v.692l-2.317 2.316.885.885 2.316-2.317h.681a1.873 1.873 0 0 0 1.636-.55l7.683-7.683 1.175 1.175c.587.613 1.496-.295.884-.885l-1.175-1.173 2.058-2.058a1.875 1.875 0 0 0 .38-2.15l.612-.609a.625.625 0 0 0-.456-1.072zM14.995 8.12l.885.885-4.246 4.245H9.866z" style="color:#000;font-style:normal;font-variant:normal;font-weight:400;font-stretch:normal;font-size:medium;line-height:normal;font-family:sans-serif;font-variant-ligatures:normal;font-variant-position:normal;font-variant-caps:normal;font-variant-numeric:normal;font-variant-alternates:normal;font-feature-settings:normal;text-indent:0;text-align:start;text-decoration:none;text-decoration-line:none;text-decoration-style:solid;text-decoration-color:#000;letter-spacing:normal;word-spacing:normal;text-transform:none;writing-mode:lr-tb;direction:ltr;text-orientation:mixed;dominant-baseline:auto;baseline-shift:baseline;text-anchor:start;white-space:normal;shape-padding:0;clip-rule:nonzero;display:inline;overflow:visible;visibility:visible;isolation:auto;mix-blend-mode:normal;color-interpolation:sRGB;color-interpolation-filters:linearRGB;solid-color:#000;solid-opacity:1;vector-effect:none;fill:gray;fill-opacity:1;fill-rule:nonzero;stroke:none;stroke-width:1px;stroke-linecap:round;stroke-linejoin:miter;stroke-miterlimit:4;stroke-dasharray:none;stroke-dashoffset:0;stroke-opacity:1;color-rendering:auto;image-rendering:auto;shape-rendering:auto;text-rendering:auto;enable-background:accumulate"/></svg>