<svg height="24" width="24" xmlns="http://www.w3.org/2000/svg"><path style="opacity:1;fill:gray;stroke-width:2;stroke-linecap:square;stroke-linejoin:round" d="M12 2A10 10 0 0 0 2 12a10 10 0 0 0 10 10 10 10 0 0 0 10-10A10 10 0 0 0 12 2zm5.303 4.697c-.814 2.236-2.164 4.892-2.893 6.268a2.914 2.914 0 0 1-.648.797 2.925 2.925 0 0 1-.799.648c-1.376.729-4.03 2.079-6.266 2.893.797-2.187 2.094-4.743 2.832-6.143a2.923 2.923 0 0 1 .707-.92 2.922 2.922 0 0 1 .924-.71c1.4-.74 3.956-2.036 6.143-2.833zM12 11a1 1 0 0 0-1 1 1 1 0 0 0 1 1 1 1 0 0 0 1-1 1 1 0 0 0-1-1z"/></svg>