<?xml version="1.0" encoding="UTF-8" standalone="no"?>
<svg
   height="24"
   width="24"
   version="1.1"
   id="svg4"
   sodipodi:docname="copy.svg"
   inkscape:version="1.2 (1:1.2.1+202207142221+cd75a1ee6d)"
   xmlns:inkscape="http://www.inkscape.org/namespaces/inkscape"
   xmlns:sodipodi="http://sodipodi.sourceforge.net/DTD/sodipodi-0.dtd"
   xmlns="http://www.w3.org/2000/svg"
   xmlns:svg="http://www.w3.org/2000/svg">
  <defs
     id="defs8" />
  <sodipodi:namedview
     id="namedview6"
     pagecolor="#ffffff"
     bordercolor="#666666"
     borderopacity="1.0"
     inkscape:showpageshadow="2"
     inkscape:pageopacity="0.0"
     inkscape:pagecheckerboard="0"
     inkscape:deskcolor="#d1d1d1"
     showgrid="true"
     inkscape:zoom="27.812867"
     inkscape:cx="6.1482335"
     inkscape:cy="11.181875"
     inkscape:window-width="1920"
     inkscape:window-height="1011"
     inkscape:window-x="0"
     inkscape:window-y="0"
     inkscape:window-maximized="1"
     inkscape:current-layer="svg4">
    <inkscape:grid
       type="xygrid"
       id="grid237" />
    <inkscape:grid
       dotted="true"
       spacingx="0.5"
       spacingy="0.5"
       empspacing="10"
       type="xygrid"
       id="grid291" />
  </sodipodi:namedview>
  <path
     id="path462"
     style="color:#000000;fill:#808080;-inkscape-stroke:none"
     d="M 7.7871094 4 C 7.1101643 4.0055872 6.5365068 4.0481528 6.0273438 4.3027344 C 5.6879018 4.4724554 5.3973386 4.7651685 5.2304688 5.140625 C 5.063599 5.5160815 5 5.9583347 5 6.5 L 5 15.5 C 5 16.382198 5.2196075 17.049657 5.7050781 17.455078 C 6.078487 17.766916 6.5295308 17.889819 7.0214844 17.945312 C 7.0538718 18.296495 7.1265427 18.603125 7.2558594 18.871094 C 7.4372206 19.246907 7.7385635 19.531937 8.0820312 19.697266 C 8.7689666 20.027922 9.5636571 19.994467 10.496094 20 L 10.498047 20 L 15.5 20 C 16.499998 20 17.293772 20.036709 17.972656 19.697266 C 18.312099 19.527544 18.602661 19.234832 18.769531 18.859375 C 18.936401 18.483918 19 18.041665 19 17.5 L 19 8.5 C 19 7.9583344 18.9364 7.5160816 18.769531 7.140625 C 18.602661 6.7651684 18.312099 6.4724554 17.972656 6.3027344 C 17.66813 6.1504714 17.339473 6.0752631 16.980469 6.0371094 C 16.951103 5.6991194 16.885935 5.4025354 16.769531 5.140625 C 16.602661 4.7651685 16.312099 4.4724554 15.972656 4.3027344 C 15.293773 3.9632921 14.499997 4 13.5 4 L 8.5 4 C 8.2500007 4 8.0127577 3.9981376 7.7871094 4 z M 8.5 5 L 13.5 5 C 14.499997 5 15.206229 5.0367082 15.527344 5.1972656 C 15.687901 5.2775445 15.772339 5.3598328 15.855469 5.546875 C 15.903229 5.6543361 15.940905 5.8071864 15.966797 6 C 15.813751 6.0001563 15.663698 6 15.5 6 L 10.496094 6 L 10.492188 6 C 9.4962065 6.017205 8.7068753 5.9814684 8.0292969 6.3144531 C 7.6905076 6.4809455 7.398148 6.7707358 7.2304688 7.1445312 C 7.0627896 7.5183268 7 7.9583592 7 8.5 L 7 16.927734 C 6.6945482 16.877789 6.4781255 16.798088 6.3457031 16.6875 C 6.1470906 16.521636 6 16.229951 6 15.5 L 6 6.5 C 6 6.0416682 6.0614011 5.7339172 6.1445312 5.546875 C 6.2276612 5.3598328 6.3120991 5.2775443 6.4726562 5.1972656 C 6.7937707 5.0367084 7.5000032 5 8.5 5 z M 10.5 7 L 10.507812 7 L 15.5 7 C 16.499998 7 17.20623 7.0367082 17.527344 7.1972656 C 17.687901 7.2775445 17.772339 7.3598328 17.855469 7.546875 C 17.938599 7.7339172 18 8.0416676 18 8.5 L 18 17.5 C 18 17.958333 17.9386 18.266083 17.855469 18.453125 C 17.772339 18.640167 17.687901 18.722456 17.527344 18.802734 C 17.20623 18.963291 16.499998 19 15.5 19 L 10.503906 19 L 10.5 19 C 9.5671014 18.9944 8.8610016 18.96117 8.515625 18.794922 C 8.3426004 18.711632 8.2455049 18.622453 8.15625 18.4375 C 8.0669951 18.252547 8 17.952835 8 17.5 L 8 8.5 C 8 8.0416428 8.062304 7.7360378 8.1445312 7.5527344 C 8.2267582 7.369431 8.3095679 7.2901247 8.4707031 7.2109375 C 8.7917509 7.053164 9.5014182 7.0174315 10.5 7 z M 10 9 L 10 10 L 16 10 L 16 9 L 10 9 z M 10 11 L 10 12 L 16 12 L 16 11 L 10 11 z M 10 13 L 10 14 L 13 14 L 13 13 L 10 13 z " />
</svg>
