<svg height="24" width="24" xmlns="http://www.w3.org/2000/svg"><path style="fill:gray;fill-opacity:1;stroke-width:.5;stroke-linecap:square;stroke-linejoin:round" d="M12.697 2.293a7.5 7.5 0 0 1 .705 1.297A7.5 7.5 0 0 1 6.492 14a7.542 7.542 0 0 1-2.894-.605 7.5 7.5 0 0 1-1.305-.7 8.5 8.5 0 0 0 .537 1.467 8.5 8.5 0 0 0 .72.303 8.5 8.5 0 0 0 .747.234A8.5 8.5 0 0 0 6.492 15 8.5 8.5 0 0 0 14.7 4.295a8.5 8.5 0 0 0-.236-.744 8.5 8.5 0 0 0-.303-.719 8.5 8.5 0 0 0-1.463-.539zm1.463.539a8.48 8.48 0 0 1 .54 1.463 7.5 7.5 0 0 1 3.077 7.988c.321.127.625.288.909.477a8.5 8.5 0 0 0-4.525-9.928zM4.297 14.699a8.57 8.57 0 0 1-1.467-.537 8.499 8.499 0 0 0 5.19 4.465c.028-.343.102-.672.214-.982a7.497 7.497 0 0 1-3.937-2.946zm11.707-1.749a4 4 0 0 0-3.865 3.003 3 3 0 1 0-.135 5.996h7.5A2.5 2.5 0 0 0 20 17a4.32 4.32 0 0 0 .004-.05 4 4 0 0 0-4-4zm0 1a3 3 0 0 1 3 3l-.004.058a3 3 0 0 1-.26 1.152 1.5 1.5 0 0 1 1.12-.168 1.5 1.5 0 0 1-.356 2.957h-7.5a2 2 0 1 1 1.021-3.719 2.996 2.996 0 0 1-.021-.28c.003-.266.04-.53.113-.786a3 3 0 0 1 2.887-2.215z"/></svg>