<svg height="24" width="24" xmlns="http://www.w3.org/2000/svg"><path style="fill:gray;fill-opacity:1;stroke-width:.5;stroke-linecap:square;stroke-linejoin:round" d="M11 2v3h1V2h-1zM7.184 3.023l-.868.5 1.5 2.598.868-.5-1.5-2.598zm8.632 0-1.5 2.598.868.5 1.5-2.598-.868-.5zM11.5 6A5.5 5.5 0 0 0 6 11.5a5.5 5.5 0 0 0 3.016 4.895 4.1 4.1 0 0 1 2.437-1.284c.766-1.834 2.514-3.107 4.545-3.111A1 1 0 0 0 16 12c.328 0 .648.032.957.094A5.5 5.5 0 0 0 17 11.5 5.5 5.5 0 0 0 11.5 6zm-7.977.316-.5.868 2.598 1.5.5-.868-2.598-1.5zm15.954 0-2.598 1.5.5.868 2.598-1.5-.5-.868zM2 11v1h3v-1H2zm16 0v1h3v-1h-3zm-2 2a4 4 0 0 0-3.865 3.004A3 3 0 1 0 12 22h7.5a2.5 2.5 0 0 0 .496-4.95A4.32 4.32 0 0 0 20 17a4 4 0 0 0-4-4zM5.621 14.316l-2.598 1.5.5.868 2.598-1.5-.5-.868zm2.195 2.563-1.5 2.598.868.5.851-1.475a3.82 3.82 0 0 1 .395-1.27l-.614-.353z"/></svg>