<svg height="24" width="24" xmlns="http://www.w3.org/2000/svg"><path style="fill:gray;stroke-width:2;stroke-linecap:square;stroke-linejoin:round" d="M11.5 2A8.5 8.5 0 0 0 3 10.5V20c0 1.108 1.115 2 2.5 2h12c1.385 0 2.5-.892 2.5-2v-9.5A8.5 8.5 0 0 0 11.5 2zm0 2c3.584 0 6.5 2.916 6.5 6.5v1a.5.5 0 0 1-1 0v-1C17 7.457 14.543 5 11.5 5c-.746 0-1.456.15-2.104.418a.5.5 0 1 1-.382-.926A6.484 6.484 0 0 1 11.5 4zm0 3c1.927 0 3.5 1.573 3.5 3.5v5c0 .995.02 1.412.22 1.809.201.396.665.881 1.632 1.836a.5.5 0 0 1-.704.71c-.967-.955-1.504-1.47-1.82-2.095-.316-.626-.328-1.255-.328-2.26v-5C14 9.113 12.887 8 11.5 8A2.492 2.492 0 0 0 9 10.5v1a.5.5 0 0 1-1 0v-1C8 8.573 9.573 7 11.5 7zm-5.336.22a.5.5 0 0 1 .463.733A5.465 5.465 0 0 0 6 10.5v6a.5.5 0 0 1-1 0v-6c0-1.086.269-2.112.74-3.012a.5.5 0 0 1 .424-.267zM11.5 10a.5.5 0 0 1 .5.5v5.021l-.002.024c-.135 1.513.008 2.753.856 3.601a.5.5 0 0 1-.708.708C11 18.708 10.858 17.098 11 15.48V10.5a.5.5 0 0 1 .5-.5zm5.975 3h.025c.277 0 .5.223.5.5v1a.499.499 0 1 1-1 0v-1a.5.5 0 0 1 .475-.5zM8.5 14a.5.5 0 0 1 .5.5v5a.5.5 0 0 1-1 0v-5a.5.5 0 0 1 .5-.5z"/></svg>