<?xml version="1.0" encoding="UTF-8" standalone="no"?>
<svg
   height="24"
   width="24"
   version="1.1"
   id="svg4"
   sodipodi:docname="flash-card-filled.svg"
   inkscape:version="1.2 (1:1.2.1+202207142221+cd75a1ee6d)"
   xmlns:inkscape="http://www.inkscape.org/namespaces/inkscape"
   xmlns:sodipodi="http://sodipodi.sourceforge.net/DTD/sodipodi-0.dtd"
   xmlns="http://www.w3.org/2000/svg"
   xmlns:svg="http://www.w3.org/2000/svg">
  <defs
     id="defs8" />
  <sodipodi:namedview
     id="namedview6"
     pagecolor="#ffffff"
     bordercolor="#666666"
     borderopacity="1.0"
     inkscape:showpageshadow="2"
     inkscape:pageopacity="0.0"
     inkscape:pagecheckerboard="0"
     inkscape:deskcolor="#d1d1d1"
     showgrid="false"
     inkscape:zoom="13.906433"
     inkscape:cx="9.9234649"
     inkscape:cy="8.8448274"
     inkscape:window-width="1920"
     inkscape:window-height="1011"
     inkscape:window-x="0"
     inkscape:window-y="0"
     inkscape:window-maximized="1"
     inkscape:current-layer="svg4">
    <inkscape:grid
       type="xygrid"
       id="grid237" />
    <inkscape:grid
       type="xygrid"
       id="grid614"
       dotted="true"
       spacingx="0.5"
       spacingy="0.5"
       empspacing="10" />
  </sodipodi:namedview>
  <path
     id="path300"
     style="color:#000000;fill:#808080;stroke-width:1px;stroke-linejoin:round;-inkscape-stroke:none"
     d="M 7.7871094 3 C 7.1101649 3.0055872 6.5365062 3.048153 6.0273438 3.3027344 C 5.6879021 3.4724552 5.3973382 3.7651688 5.2304688 4.140625 C 5.0635993 4.5160812 5 4.9583349 5 5.5 L 5 18.486328 C 4.985042 19.031405 5.0398664 19.477538 5.2050781 19.857422 C 5.3702896 20.237304 5.6648144 20.532435 6.0078125 20.701172 C 6.6938084 21.038646 7.5004316 21 8.5 21 L 15.5 21 C 16.499997 21 17.293773 21.036708 17.972656 20.697266 C 18.312099 20.527544 18.602661 20.234832 18.769531 19.859375 C 18.936401 19.483918 19 19.041664 19 18.5 L 19 11.5 A 0.50005 0.50005 0 0 0 18.947266 11.277344 L 18 9.3828125 L 18 5.5 C 18 4.9583349 17.9364 4.5160812 17.769531 4.140625 C 17.602661 3.7651688 17.312099 3.4724552 16.972656 3.3027344 C 16.293773 2.9632926 15.499997 3 14.5 3 L 8.5 3 C 8.2500007 3 8.0127575 2.9981376 7.7871094 3 z M 9 5.5 L 10 5.5 L 10 8 L 9 8 L 9 5.5 z M 13 5.5 L 14 5.5 L 14 8 L 13 8 L 13 5.5 z M 7 6 L 8 6 L 8 8 L 7 8 L 7 6 z M 11 6 L 12 6 L 12 8 L 11 8 L 11 6 z M 15 6 L 16 6 L 16 8 L 15 8 L 15 6 z M 8 17.25 L 16 17.25 L 16 17.75 L 8 17.75 L 8 17.25 z " />
</svg>
