<?xml version="1.0" encoding="UTF-8" standalone="no"?>
<svg
   height="24"
   width="24"
   version="1.1"
   id="svg4"
   sodipodi:docname="flash-card.svg"
   inkscape:version="1.2 (1:1.2.1+202207142221+cd75a1ee6d)"
   xmlns:inkscape="http://www.inkscape.org/namespaces/inkscape"
   xmlns:sodipodi="http://sodipodi.sourceforge.net/DTD/sodipodi-0.dtd"
   xmlns="http://www.w3.org/2000/svg"
   xmlns:svg="http://www.w3.org/2000/svg">
  <defs
     id="defs8" />
  <sodipodi:namedview
     id="namedview6"
     pagecolor="#ffffff"
     bordercolor="#666666"
     borderopacity="1.0"
     inkscape:showpageshadow="2"
     inkscape:pageopacity="0.0"
     inkscape:pagecheckerboard="0"
     inkscape:deskcolor="#d1d1d1"
     showgrid="false"
     inkscape:zoom="13.906433"
     inkscape:cx="9.9234649"
     inkscape:cy="8.8448274"
     inkscape:window-width="1920"
     inkscape:window-height="1011"
     inkscape:window-x="0"
     inkscape:window-y="0"
     inkscape:window-maximized="1"
     inkscape:current-layer="svg4">
    <inkscape:grid
       type="xygrid"
       id="grid237" />
    <inkscape:grid
       type="xygrid"
       id="grid614"
       dotted="true"
       spacingx="0.5"
       spacingy="0.5"
       empspacing="10" />
  </sodipodi:namedview>
  <path
     style="color:#000000;fill:#808080;stroke-linejoin:round;-inkscape-stroke:none"
     d="m 8.5,3 c -0.999999,0 -1.7937715,-0.036708 -2.4726563,0.3027344 -0.3394423,0.1697212 -0.6300052,0.4624336 -0.796875,0.8378906 -0.1668697,0.375457 -0.2304687,0.8177089 -0.2304687,1.359375 v 12.986328 c -0.014958,0.545077 0.039866,0.99121 0.2050781,1.371094 0.1652117,0.379884 0.4597357,0.675013 0.8027344,0.84375 0.6859973,0.337474 1.4926171,0.298828 2.4921875,0.298828 h 7 c 0.999999,0 1.793771,0.03671 2.472656,-0.302734 0.339443,-0.169722 0.630005,-0.462434 0.796875,-0.837891 0.16687,-0.375457 0.230469,-0.817709 0.230469,-1.359375 v -7 a 0.50005,0.50005 0 0 0 -0.05273,-0.222656 l -0.947266,-1.8945315 v -3.8828125 c 0,-0.5416661 -0.0636,-0.983918 -0.230469,-1.359375 -0.16687,-0.375457 -0.457432,-0.6681694 -0.796875,-0.8378906 -0.678885,-0.3394424 -1.472657,-0.3027344 -2.472656,-0.3027344 z m 0,1 h 6 c 0.999999,0 1.70623,0.036708 2.027344,0.1972656 0.160557,0.080279 0.244995,0.162567 0.328125,0.3496094 0.08313,0.1870424 0.144531,0.4947921 0.144531,0.953125 v 4 a 0.50005,0.50005 0 0 0 0.05273,0.2226563 l 0.947266,1.8945317 v 6.882812 c 0,0.458333 -0.0614,0.766083 -0.144531,0.953125 -0.08313,0.187042 -0.167568,0.269331 -0.328125,0.349609 -0.321114,0.160557 -1.027345,0.197266 -2.027344,0.197266 h -7 c -1.0004276,0 -1.7230229,-0.03603 -2.0507813,-0.197266 -0.1638791,-0.08062 -0.2465426,-0.160652 -0.3261718,-0.34375 -0.079629,-0.183097 -0.1356019,-0.487818 -0.1230469,-0.945312 a 0.50005,0.50005 0 0 0 0,-0.01367 v -13 c 0,-0.4583329 0.061401,-0.7660826 0.1445312,-0.953125 0.08313,-0.1870424 0.1675679,-0.2693308 0.328125,-0.3496094 0.3211143,-0.1605571 1.0273448,-0.1972656 2.0273438,-0.1972656 z"
     id="path679" />
  <path
     style="color:#000000;fill:#808080;fill-opacity:1;-inkscape-stroke:none"
     d="m 13,5.5 v 2.5 h 1 v -2.5 z"
     id="path301"
     sodipodi:nodetypes="ccccc" />
  <path
     style="color:#000000;fill:#808080;fill-opacity:1;-inkscape-stroke:none"
     d="m 9,5.5 v 2.5 h 1 v -2.5 z"
     id="path299"
     sodipodi:nodetypes="ccccc" />
  <path
     style="color:#000000;fill:#808080;fill-opacity:1;-inkscape-stroke:none"
     d="m 7,6 v 2 h 1 v -2 z"
     id="path297" />
  <path
     style="color:#000000;fill:#808080;fill-opacity:1;-inkscape-stroke:none"
     d="m 11,6 v 2 h 1 v -2 z"
     id="path304" />
  <path
     style="color:#000000;fill:#808080;fill-opacity:1;-inkscape-stroke:none"
     d="m 15,6 v 2 h 1 v -2 z"
     id="path306" />
  <rect
     style="fill:#808080;fill-rule:evenodd;stroke:none;stroke-width:0.707107;stroke-linecap:round"
     id="rect456"
     width="8"
     height="0.5"
     x="8"
     y="17.25" />
</svg>
