<svg height="24" width="24" xmlns="http://www.w3.org/2000/svg"><path style="color:#000;line-height:normal;font-variant-ligatures:none;font-variant-position:normal;font-variant-caps:normal;font-variant-numeric:normal;font-variant-alternates:normal;font-feature-settings:normal;text-indent:0;text-align:start;text-decoration-line:none;text-decoration-style:solid;text-decoration-color:#000;text-transform:none;shape-padding:0;isolation:auto;mix-blend-mode:normal;fill:gray;stroke-width:1;marker:none" d="M8 8.375A53.513 53.513 0 0 0 5.098 9.85 64.444 64.444 0 0 0 2.27 11.5a56 56 0 0 0 2.827 1.668A46.219 46.219 0 0 0 8 14.625V12h8v2.625a46.219 46.219 0 0 0 2.902-1.457A56 56 0 0 0 21.73 11.5a64.444 64.444 0 0 0-2.827-1.65A53.513 53.513 0 0 0 16 8.375V11H8V8.375z"/></svg>