<svg height="24" width="24" xmlns="http://www.w3.org/2000/svg"><path style="color:#000;fill:gray;-inkscape-stroke:none" d="M7.5 2c-1.774 0-2.92.088-3.666.834S3 4.726 3 6.5v11c0 1.528.101 2.664.816 3.459C4.532 21.754 5.702 22 7.5 22h8c1.774 0 2.92-.088 3.666-.834S20 19.274 20 17.5v-11c0-1.774-.088-2.92-.834-3.666S17.274 2 15.5 2h-8zm-1 3h10a.5.5 0 0 1 .5.5v5a.5.5 0 0 1-.5.5h-10a.5.5 0 0 1-.5-.5v-5a.5.5 0 0 1 .5-.5zm2 8c.277 0 .5.223.5.5V15h1.5a.499.499 0 1 1 0 1H9v1.5a.499.499 0 1 1-1 0V16H6.5a.499.499 0 1 1 0-1H8v-1.5c0-.277.223-.5.5-.5zm7.5 0a1 1 0 0 1 1 1 1 1 0 0 1-1 1 1 1 0 0 1-1-1 1 1 0 0 1 1-1zm-3 3a1 1 0 0 1 1 1 1 1 0 0 1-1 1 1 1 0 0 1-1-1 1 1 0 0 1 1-1z"/></svg>