<svg height="24" width="24" xmlns="http://www.w3.org/2000/svg"><path style="fill:gray;stroke-width:1.5;stroke-linecap:square;stroke-linejoin:round;fill-opacity:1" d="M21 20a1 1 0 0 0-1 1 1 1 0 0 0 1 1 1 1 0 0 0 1-1 1 1 0 0 0-1-1zm-3 0a1 1 0 0 0-1 1 1 1 0 0 0 1 1 1 1 0 0 0 1-1 1 1 0 0 0-1-1zm-3 0a1 1 0 0 0-1 1 1 1 0 0 0 1 1 1 1 0 0 0 1-1 1 1 0 0 0-1-1z"/><path style="fill:gray;fill-opacity:1;stroke-width:1.5;stroke-linecap:square;stroke-linejoin:round" d="M10 2v1.248a9 9 0 0 0-2.096.76l-.8-.953-3.065 2.57.805.957A9 9 0 0 0 3.72 8.508L2.5 8.293l-.695 3.94 1.226.216a9 9 0 0 0 .377 2.201l-1.068.618 2 3.464 1.076-.62a9 9 0 0 0 1.705 1.449l-.42 1.152 3.758 1.367.422-1.16A9 9 0 0 0 12 21a9 9 0 0 0 1.004-.072A1.994 1.994 0 0 1 15 19h2.629a9 9 0 0 0 .955-.889l1.076.621 2-3.464-1.068-.618a9 9 0 0 0 .377-2.2l1.226-.218-.695-3.939-1.207.213a9 9 0 0 0-1.121-1.942l.789-.939-3.065-2.57-.789.94A9 9 0 0 0 14 3.228V2h-4zm2 3a7 7 0 0 1 7 7 7 7 0 0 1-7 7 7 7 0 0 1-7-7 7 7 0 0 1 7-7zm0 1a6 6 0 0 0-6 6 6 6 0 0 0 6 6 6 6 0 0 0 6-6 6 6 0 0 0-6-6z"/></svg>