<?xml version="1.0" encoding="UTF-8" standalone="no"?>
<svg
   height="24"
   width="24"
   version="1.1"
   id="svg1251"
   sodipodi:docname="key-filled.svg"
   inkscape:version="1.2 (1:1.2.1+202207142221+cd75a1ee6d)"
   xmlns:inkscape="http://www.inkscape.org/namespaces/inkscape"
   xmlns:sodipodi="http://sodipodi.sourceforge.net/DTD/sodipodi-0.dtd"
   xmlns="http://www.w3.org/2000/svg"
   xmlns:svg="http://www.w3.org/2000/svg">
  <defs
     id="defs1255" />
  <sodipodi:namedview
     id="namedview1253"
     pagecolor="#ffffff"
     bordercolor="#666666"
     borderopacity="1.0"
     inkscape:showpageshadow="2"
     inkscape:pageopacity="0.0"
     inkscape:pagecheckerboard="0"
     inkscape:deskcolor="#d1d1d1"
     showgrid="true"
     inkscape:zoom="19.666666"
     inkscape:cx="-0.50847459"
     inkscape:cy="11.033899"
     inkscape:window-width="1920"
     inkscape:window-height="1011"
     inkscape:window-x="0"
     inkscape:window-y="0"
     inkscape:window-maximized="1"
     inkscape:current-layer="svg1251">
    <inkscape:grid
       type="xygrid"
       id="grid1374" />
    <inkscape:grid
       type="xygrid"
       id="grid1484"
       dotted="true"
       spacingx="0.5"
       spacingy="0.5"
       empspacing="10" />
  </sodipodi:namedview>
  <path
     id="path294"
     style="color:#000000;fill:#808080;fill-rule:evenodd;stroke-linecap:round;stroke-linejoin:round"
     d="M 7 7 C 4.2445069 7 2 9.2445069 2 12 C 2 14.755493 4.2445069 17 7 17 C 9.7554931 17 12 14.755493 12 12 C 12 9.2445069 9.7554931 7 7 7 z M 5 11 C 5.5522841 11 6 11.447716 6 12 C 6 12.552284 5.5522841 13 5 13 C 4.4477159 13 4 12.552284 4 12 C 4 11.447716 4.4477159 11 5 11 z " />
  <path
     id="path1025"
     style="color:#000000;fill:#808080;stroke-width:1px;stroke-linejoin:round;-inkscape-stroke:none"
     d="M 12.65625 10 A 6 6 0 0 1 13 12 A 6 6 0 0 1 12.640625 14 L 13 14 A 0.50005 0.50005 0 0 0 13.353516 13.853516 L 14 13.207031 L 15.146484 14.353516 A 0.50005 0.50005 0 0 0 15.853516 14.353516 L 17 13.207031 L 18.646484 14.853516 A 0.50005 0.50005 0 0 0 19.353516 14.853516 L 21.853516 12.353516 A 0.50005 0.50005 0 0 0 21.853516 11.646484 L 20.353516 10.146484 A 0.50005 0.50005 0 0 0 20 10 L 12.65625 10 z " />
</svg>
