<svg width="24" height="24" xmlns="http://www.w3.org/2000/svg"><path style="fill:gray;stroke-width:2;stroke-linejoin:round" d="M9.38 2.895A8.5 8.5 0 0 0 8 7.5a8.5 8.5 0 0 0 1.38 4.605l.827-.533A7.5 7.5 0 0 1 9 7.5a7.5 7.5 0 0 1 1.207-4.072l-.826-.533zm2.52 1.628A5.5 5.5 0 0 0 11 7.5a5.5 5.5 0 0 0 .9 2.977l.83-.538A4.5 4.5 0 0 1 12 7.5a4.5 4.5 0 0 1 .73-2.44l-.83-.537zm4.6.977a2 2 0 0 0-2 2A2 2 0 0 0 16 9.434v3.568H6.5c-.25 0-.487-.002-.713 0-.677.006-1.25.048-1.76.303-.34.17-.63.462-.797.838-.166.375-.23.817-.23 1.359v2.996c0 .542.064.984.23 1.36.167.375.458.668.797.837.51.255 1.083.297 1.76.303.226.002.463 0 .713 0h11c.25 0 .487.004.713.002.677-.006 1.25-.05 1.76-.305.34-.17.63-.462.797-.838.166-.375.23-.817.23-1.359v-2.996c0-.542-.064-.984-.23-1.36a1.72 1.72 0 0 0-.797-.837c-.51-.255-1.083-.3-1.76-.305-.226-.002-.463.002-.713.002H17V9.434A2 2 0 0 0 18.5 7.5a2 2 0 0 0-2-2zm-10 8.502h11c1 0 1.706.037 2.027.197.16.08.245.163.328.35.084.187.145.495.145.953v2.996c0 .458-.061.766-.145.953a.615.615 0 0 1-.328.35c-.32.16-1.027.197-2.027.197h-11c-1 0-1.706-.037-2.027-.197a.615.615 0 0 1-.328-.35C4.06 19.264 4 18.956 4 18.498v-2.996c0-.458.061-.766.145-.953a.615.615 0 0 1 .328-.35c.32-.16 1.027-.197 2.027-.197zM15 17v1h3v-1h-3z"/></svg>