<svg height="24" width="24" xmlns="http://www.w3.org/2000/svg"><path style="color:#000;fill:gray;-inkscape-stroke:none" d="M5.455 5c-.968.009-1.718.073-2.338.445-.413.248-.72.656-.888 1.162C2.059 7.114 2 7.722 2 8.5V14h4.639l1.886-5.658a.5.5 0 0 1 .954.013l2.298 7.663 1.762-4.211a.5.5 0 0 1 .926.007L15.338 14H22V8.5c0-.778-.06-1.386-.229-1.893-.168-.506-.475-.914-.888-1.162C20.056 4.95 19 5 17.5 5h-11c-.375 0-.722-.003-1.045 0zm3.52 5.156-1.5 4.502A.5.5 0 0 1 7 15H2v2.5c0 .778.06 1.386.229 1.893.168.506.475.914.888 1.162C3.944 21.05 5 21 6.5 21h11c1.5 0 2.556.05 3.383-.445.413-.248.72-.656.888-1.162.17-.507.229-1.115.229-1.893V15h-7a.5.5 0 0 1-.465-.314l-.545-1.364-1.828 4.371a.5.5 0 0 1-.941-.048l-2.246-7.489z"/></svg>