<svg height="24" width="24" xmlns="http://www.w3.org/2000/svg"><path style="opacity:1;fill:gray;stroke:none;stroke-linecap:square;fill-opacity:1" d="M11 2c-.809 0-1.437.348-1.746.87-.31.52-.335 1.12-.283 1.677.05.538.184 1.058.31 1.453H3v5.672l.299-.131s1.041-.466 2.154-.57c.557-.052 1.157-.026 1.678.283.52.31.869.937.869 1.746 0 .809-.348 1.437-.87 1.746-.52.31-1.12.335-1.677.283-1.113-.104-2.154-.57-2.154-.57L3 14.329V21h6.672l-.131-.299s-.466-1.041-.57-2.154c-.052-.557-.026-1.157.283-1.678.31-.52.937-.869 1.746-.869.809 0 1.437.348 1.746.87.31.52.335 1.12.283 1.677-.104 1.113-.57 2.154-.57 2.154l-.13.299H18v-6.281c.395.126.915.26 1.453.31.557.052 1.157.026 1.678-.283.52-.31.869-.937.869-1.746 0-.809-.348-1.437-.87-1.746-.52-.31-1.12-.335-1.677-.283a7.083 7.083 0 0 0-1.453.31V6h-5.281c.126-.395.26-.915.31-1.453.052-.557.026-1.157-.283-1.678C12.436 2.35 11.81 2 11 2z"/></svg>