<svg height="24" width="24" xmlns="http://www.w3.org/2000/svg"><path style="color:#000;fill:gray;stroke-linecap:square;-inkscape-stroke:none;fill-opacity:1" d="M11 2c-.809 0-1.437.348-1.746.87-.31.52-.335 1.12-.283 1.677.05.538.184 1.058.31 1.453H3v6.75l.701-.291s.959-.41 1.846-.492c.443-.042.843.01 1.072.146.23.136.381.32.381.887 0 .566-.152.75-.38.887-.23.136-.63.188-1.073.146-.887-.083-1.846-.492-1.846-.492L3 13.25V21h7.75l-.291-.701s-.41-.959-.492-1.846c-.042-.443.01-.843.146-1.072.136-.23.32-.381.887-.381.566 0 .75.152.887.38.136.23.188.63.146 1.073-.083.887-.492 1.846-.492 1.846L11.25 21H18v-6.281c.395.126.915.26 1.453.31.557.052 1.157.026 1.678-.283.52-.31.869-.937.869-1.746 0-.809-.348-1.437-.87-1.746-.52-.31-1.12-.335-1.677-.283a7.083 7.083 0 0 0-1.453.31V6h-5.281c.126-.395.26-.915.31-1.453.052-.557.026-1.157-.283-1.678C12.436 2.35 11.81 2 11 2zm0 1c.566 0 .75.152.887.38.136.23.188.63.146 1.073-.083.887-.492 1.846-.492 1.846L11.25 7H17v5.75l.701-.291s.959-.41 1.846-.492c.443-.042.843.01 1.072.146.23.136.381.32.381.887 0 .566-.152.75-.38.887-.23.136-.63.188-1.073.146-.887-.083-1.846-.492-1.846-.492L17 13.25V20h-4.281c.126-.395.26-.915.31-1.453.052-.557.026-1.157-.283-1.678C12.436 16.35 11.81 16 11 16c-.809 0-1.437.348-1.746.87-.31.52-.335 1.12-.283 1.677.05.538.184 1.058.31 1.453H4v-5.281c.395.126.915.26 1.453.31.557.052 1.157.026 1.678-.283C7.65 14.436 8 13.81 8 13c0-.809-.348-1.437-.87-1.746-.52-.31-1.12-.335-1.677-.283A7.083 7.083 0 0 0 4 11.28V7h6.75l-.291-.701s-.41-.959-.492-1.846c-.042-.443.01-.843.146-1.072.136-.23.32-.381.887-.381z"/></svg>