<svg height="24" width="24" xmlns="http://www.w3.org/2000/svg"><path style="stroke-width:.8;marker:none" d="M12 3a9 9 0 0 1 5.84 2.182l1.547-1.547c.332.924.649 1.888.945 2.894a62.232 62.232 0 0 1 .775 2.96 51.907 51.907 0 0 1-2.968-.766 42.812 42.812 0 0 1-2.883-.955l1.877-1.88A8 8 0 0 0 12 4a8 8 0 0 0-8 8 8 8 0 0 0 8 8 8 8 0 0 0 1.389-.121l.174.984A9 9 0 0 1 12 21a9 9 0 0 1-9-9 9 9 0 0 1 9-9zm6.553 13.59.82.572a9 9 0 0 1-1.01 1.201l-.707-.707a8 8 0 0 0 .897-1.066zm-1.41 1.539.642.766a9 9 0 0 1-1.285.9l-.5-.867a8 8 0 0 0 1.143-.8zm-1.762 1.123.422.904a9 9 0 0 1-1.473.537l-.26-.966a8 8 0 0 0 1.31-.475z" fill="gray"/><path style="fill:gray;fill-opacity:1;stroke-width:.5;stroke-linecap:round;stroke-linejoin:round" d="M12 10a2 2 0 0 1 2 2 2 2 0 0 1-2 2 2 2 0 0 1-2-2 2 2 0 0 1 2-2zm0 1a1 1 0 0 0-1 1 1 1 0 0 0 1 1 1 1 0 0 0 1-1 1 1 0 0 0-1-1z"/></svg>