<svg height="24" width="24" xmlns="http://www.w3.org/2000/svg"><path style="color:#000;fill:gray;fill-opacity:1" d="M8.787 2c-.677.006-1.25.048-1.76.303-.34.17-.63.462-.797.838C6.064 3.516 6 3.958 6 4.5v15c0 .542.064.984.23 1.36.167.375.458.668.797.837.68.34 1.473.303 2.473.303h5c1 0 1.794.037 2.473-.303.34-.17.63-.462.797-.838.166-.375.23-.817.23-1.359v-15c0-.542-.064-.984-.23-1.36a1.72 1.72 0 0 0-.797-.837C16.293 1.963 15.5 2 14.5 2h-5c-.25 0-.487-.002-.713 0zM7 5h10v14H7V5zm1 1v12h8V6H8z"/></svg>