<svg height="24" width="24" xmlns="http://www.w3.org/2000/svg"><path style="color:#000;fill:gray" d="M5.455 4.001c-.968.01-1.718.074-2.338.446-.413.248-.72.656-.888 1.162C2.059 6.115 2 6.724 2 7.5v9c0 .778.06 1.387.229 1.893.168.506.475.914.888 1.162C3.944 20.051 5 20 6.5 20h11c1.5 0 2.556.051 3.383-.445.413-.248.72-.656.888-1.162.17-.506.229-1.115.229-1.893v-9c0-.777-.06-1.386-.229-1.892-.168-.506-.475-.914-.888-1.162C20.056 3.95 19 4 17.5 4h-11c-.375 0-.722-.003-1.045 0zm1.045 1h11c1.5 0 2.444.051 2.867.305.212.127.343.282.455.62.113.337.178.853.178 1.575v9c0 .723-.065 1.24-.178 1.577-.112.337-.243.492-.455.619C19.944 18.95 19 19 17.5 19h-11c-1.5 0-2.444-.05-2.867-.304-.212-.127-.343-.282-.455-.62C3.065 17.74 3 17.225 3 16.502v-9c0-.722.065-1.238.178-1.576.112-.337.243-.492.455-.619C4.056 5.052 5 5.001 6.5 5.001zm-.02 3a.5.5 0 0 0-.396.223.5.5 0 0 0 .139.693l2.375 1.584-2.375 1.584a.5.5 0 0 0-.139.694.5.5 0 0 0 .693.138l3-2a.5.5 0 0 0 0-.832l-3-2a.5.5 0 0 0-.297-.084zm3.52 5v1h4v-1z"/></svg>