<svg height="24" width="24" xmlns="http://www.w3.org/2000/svg"><path style="fill:gray;fill-opacity:1;stroke:none;stroke-width:2.5;stroke-linecap:butt;stroke-linejoin:round;stroke-miterlimit:4;stroke-dasharray:none;stroke-opacity:1" d="m16.5 9-6.875 6.875-1.25 4.375L12.75 19l6.875-6.875zm-6.25 7.5 1.875 1.875-2.5.625z"/><path style="fill:gray;fill-opacity:1;stroke:none;stroke-width:2.5;stroke-linecap:butt;stroke-linejoin:round;stroke-miterlimit:4;stroke-dasharray:none;stroke-opacity:1" d="M5.787 2c-.677.006-1.25.048-1.76.303-.34.17-.63.462-.797.838C3.064 3.516 3 3.958 3 4.5v15c0 .542.064.984.23 1.36.167.375.458.668.797.837.68.34 1.473.303 2.473.303h10c1 0 1.794.037 2.473-.303.34-.17.63-.462.797-.838.166-.375.23-.817.23-1.359v-6.336l-1 1V19.5c0 .458-.061.766-.145.953a.615.615 0 0 1-.328.35c-.32.16-1.027.197-2.027.197h-10c-1 0-1.706-.037-2.027-.197a.615.615 0 0 1-.328-.35C4.06 20.266 4 19.958 4 19.5v-15c0-.458.061-.766.145-.953a.615.615 0 0 1 .328-.35C4.793 3.037 5.5 3 6.5 3h10c1 0 1.706.037 2.027.197.16.08.245.163.328.35.084.187.145.495.145.953v5.586l1 1V4.5c0-.542-.064-.984-.23-1.36a1.72 1.72 0 0 0-.797-.837C18.293 1.963 17.5 2 16.5 2h-10c-.25 0-.487-.002-.713 0z"/><path style="fill:gray;fill-opacity:1;stroke:none;stroke-width:2.5;stroke-linecap:butt;stroke-linejoin:round;stroke-miterlimit:4;stroke-dasharray:none;stroke-opacity:1" d="M6 10v1h4v-1zm0-2v1h7V8zm0-2v1h11V6z"/></svg>