<svg height="24" width="24" xmlns="http://www.w3.org/2000/svg"><path style="color:#000;fill:gray;fill-opacity:1" d="M5.455 3c-.968.009-1.718.073-2.338.445-.413.248-.72.656-.888 1.162C2.059 5.114 2 5.722 2 6.5V16h19V6.5c0-.778-.06-1.386-.229-1.893-.168-.506-.475-.914-.888-1.162C19.056 2.95 18 3 16.5 3h-10c-.375 0-.722-.003-1.045 0zM5 4h13c1.1 0 2 .9 2 2v9h-1V6c0-.563-.437-1-1-1H5c-.563 0-1 .437-1 1v9H3V6c0-1.1.9-2 2-2zM2 17v.5c0 .778.06 1.386.229 1.893.168.506.475.914.888 1.162C3.944 21.05 5 21 6.5 21H11v-4H2zm10 0v4h4.5c1.5 0 2.556.05 3.383-.445.413-.248.72-.656.888-1.162.17-.507.229-1.115.229-1.893V17h-9z"/></svg>