<svg height="24" width="24" xmlns="http://www.w3.org/2000/svg"><path style="color:#000;fill:gray;-inkscape-stroke:none;fill-opacity:1" d="M5.455 3c-.969.009-1.718.073-2.338.445-.413.248-.72.656-.888 1.162C2.059 5.114 2 5.722 2 6.5v11c0 .778.06 1.386.229 1.893.168.506.475.914.888 1.162C3.944 21.05 5 21 6.5 21h10c1.5 0 2.556.05 3.383-.445.413-.248.72-.656.888-1.162.17-.507.229-1.115.229-1.893v-11c0-.778-.06-1.386-.229-1.893-.168-.506-.475-.914-.888-1.162C19.056 2.95 18 3 16.5 3h-10c-.375 0-.722-.003-1.045 0zM6.5 4h10c1.5 0 2.444.05 2.867.305.212.127.343.281.455.619.113.337.178.854.178 1.576V16H3V6.5c0-.722.065-1.239.178-1.576.112-.338.243-.492.455-.62C4.056 4.052 5 4 6.5 4zM3 17h8v3H6.5c-1.5 0-2.444-.05-2.867-.305-.212-.127-.343-.281-.455-.619C3.065 18.74 3 18.222 3 17.5V17zm9 0h8v.5c0 .722-.065 1.239-.178 1.576-.112.338-.243.492-.455.62C18.944 19.948 18 20 16.5 20H12v-3z"/></svg>