<svg height="24" width="24" xmlns="http://www.w3.org/2000/svg"><path style="color:#000;fill:gray;fill-opacity:1;stroke-linecap:round" d="M13.5 3a6.51 6.51 0 0 0-6.008 4.023A5.008 5.008 0 0 0 2 12c0 2.755 2.245 5 5 5h3V8.5c0-.277.223-.5.5-.5h3c.277 0 .5.223.5.5V17h4.5c1.927 0 3.5-1.573 3.5-3.5a3.509 3.509 0 0 0-2.053-3.186c.034-.267.053-.538.053-.814C20 5.916 17.084 3 13.5 3z"/><path style="color:#000;fill:gray;fill-opacity:1;stroke-linecap:round;-inkscape-stroke:none" d="M12 20a1 1 0 1 0 0 2 1 1 0 0 0 0-2zM11 9v6l.4 3h1.2l.4-3V9z"/></svg>