<svg height="24" width="24" xmlns="http://www.w3.org/2000/svg"><path style="color:#000;fill:gray;fill-opacity:1;stroke-linecap:round;-inkscape-stroke:none" d="M13.5 3a6.51 6.51 0 0 0-6.008 4.023A5.008 5.008 0 0 0 2 12c0 2.755 2.245 5 5 5h3v-1H7c-2.215 0-4-1.785-4-4s1.785-4 4-4a4 4 0 0 1 1.16.172A5.492 5.492 0 0 1 13.5 4a5.492 5.492 0 0 1 5.473 6.033 5.505 5.505 0 0 1-.184.985A2.49 2.49 0 0 1 21 13.5a2.492 2.492 0 0 1-2.567 2.5H14v1h4.5c1.927 0 3.5-1.573 3.5-3.5a3.509 3.509 0 0 0-2.053-3.186c.034-.267.053-.538.053-.814C20 5.916 17.084 3 13.5 3zM11 9v6l.4 3h1.2l.4-3V9zm1 11a1 1 0 1 0 0 2 1 1 0 0 0 0-2z"/></svg>