<svg height="24" width="24" xmlns="http://www.w3.org/2000/svg"><path style="color:#000;fill:gray;stroke-width:.126839pt" d="m.08 6.25-.013.003-.014.006a.107.107 0 0 0-.045.049.102.102 0 0 0-.006.06.15.15 0 0 0 .037.07.68.68 0 0 0 .13.118c.117.09.3.207.548.347.494.282 1.246.654 2.225 1.057.965.397 2.124 1.105 3.011 1.752.444.324.82.632 1.069.877.124.122.216.23.267.309a.35.35 0 0 1 .045.091c.005.02.003.02.006.016-.642.906-1.022 2.005-.762 3.848.005.034-.028.117-.109.216-.081.1-.2.213-.318.334a2.72 2.72 0 0 0-.329.385c-.088.135-.15.28-.126.432v.002a.21.21 0 0 0 .115.154.327.327 0 0 0 .181.018c.127-.017.271-.073.416-.133.146-.06.292-.127.403-.168a.74.74 0 0 1 .119-.035c0 .019.001.028-.004.058-.01.056-.026.128-.049.207-.045.159-.108.351-.168.54a3.95 3.95 0 0 0-.138.523.646.646 0 0 0-.006.203c.01.061.044.13.111.154h.002l.004.002c.046.014.075 0 .105-.011a.603.603 0 0 0 .096-.05c.068-.041.151-.102.244-.175.186-.146.414-.345.639-.543.225-.198.446-.398.617-.545.085-.073.157-.132.209-.172a.788.788 0 0 1 .06-.043v-.002h-.011l-.02-.002-.002-.002c.011.004.023 0 .034.004h.005c1.37.407 2.931.464 4.162.408a19.144 19.144 0 0 0 2.006-.199l.13-.023.03-.006.08.037.292.133c.242.11.57.255.904.398.334.143.676.282.951.377.137.047.258.083.355.104.05.01.092.016.131.017a.19.19 0 0 0 .118-.025l.007-.006.008-.008c.161-.174.167-.388.09-.578-.077-.19-.224-.37-.377-.54-.153-.168-.313-.326-.412-.456a.587.587 0 0 1-.096-.162c-.01-.036-.006-.05.006-.067a.218.218 0 0 1 .045 0c.053.005.134.022.229.047.188.05.433.132.68.213.245.08.491.16.687.205.097.023.182.038.254.04a.285.285 0 0 0 .101-.014.147.147 0 0 0 .088-.08l.002-.003v-.002c.046-.138-.006-.288-.088-.437a2.814 2.814 0 0 0-.328-.451c-.127-.149-.263-.292-.375-.412-.111-.12-.2-.22-.228-.266a.62.62 0 0 1-.077-.367.495.495 0 0 1 .227-.36c.03-.02.12-.069.244-.128l.469-.221c.366-.172.823-.39 1.265-.633.443-.243.872-.51 1.186-.787.314-.276.53-.567.486-.87-.066-.49-.39-.863-.822-1.143-.432-.281-.975-.475-1.512-.616a14.562 14.562 0 0 0-1.463-.29c-.198-.032-.366-.056-.482-.077a1.385 1.385 0 0 1-.13-.03v-.08l-.003-.302a5.721 5.721 0 0 0-.066-.863c-.052-.302-.138-.593-.305-.79-.167-.195-.432-.277-.754-.15-.211.08-.332.264-.383.475-.05.212-.04.455-.007.695.032.24.088.475.14.664.052.19.1.34.11.38.005.023.005.013-.004.02a.165.165 0 0 1-.076.024.386.386 0 0 1-.118-.01c-.034-.008-.057-.025-.052-.02a1.027 1.027 0 0 1-.063-.118 6.951 6.951 0 0 1-.103-.233 8.078 8.078 0 0 0-.293-.615c-.115-.21-.243-.405-.393-.537a.598.598 0 0 0-.248-.139.403.403 0 0 0-.28.033l-.001.002H14.6a.829.829 0 0 0-.412.557c-.052.222-.034.46.003.682.038.221.096.425.133.574.019.074.032.137.035.172.002.017 0 .029 0 .025-.162.105-.252.262-.316.43-.068.178-.126.366-.242.527h-.002c-.035.05-.108.097-.225.127-.116.03-.272.045-.45.045-.36 0-.818-.055-1.296-.13-.955-.153-1.98-.387-2.504-.419-.394-.023-.768.125-1.05.264-.142.07-.262.138-.346.182a.823.823 0 0 1-.088.04c-.913-.91-2.76-2.465-4.812-2.99-.563-.152-1.271-.453-1.846-.715-.288-.13-.541-.25-.729-.337C.36 6.352.282 6.315.225 6.29l-.07-.027c-.01-.004-.018-.008-.028-.01L.11 6.249H.08zm20.84 1.648-.031.005-.018.01a.107.107 0 0 0-.025.026.518.518 0 0 0-.04.088 7.458 7.458 0 0 0-.148.684c-.03.184-.054.37-.062.519-.004.073-.004.137.002.191.003.027.006.05.016.074.008.023.026.05.058.069a.1.1 0 0 0 .059.017.109.109 0 0 0 .058-.023.158.158 0 0 0 .047-.063.876.876 0 0 0 .057-.168 4.88 4.88 0 0 0 .095-.515c.027-.192.047-.387.053-.543a1.61 1.61 0 0 0-.002-.202.415.415 0 0 0-.013-.076c-.007-.023-.014-.05-.05-.076l-.023-.014-.033-.003zm1.016.193a.133.133 0 0 0-.084.027.434.434 0 0 0-.063.053c-.042.04-.089.094-.138.158-.1.13-.212.3-.315.477a3.464 3.464 0 0 0-.25.508.838.838 0 0 0-.055.205c-.005.062 0 .134.061.18.039.028.093.019.12.005a.23.23 0 0 0 .062-.05c.038-.04.079-.095.123-.16a5.99 5.99 0 0 0 .287-.499c.097-.185.189-.374.254-.521a2.473 2.473 0 0 0 .093-.254c.002-.01.005-.02.004-.033a.107.107 0 0 0-.011-.047l-.018-.022-.002-.002-.002-.002c-.028-.023-.052-.023-.066-.023zM17.94 9.862c.143 0 .27.137.27.319s-.127.318-.27.318c-.144 0-.27-.136-.27-.318s.126-.319.27-.319zm-.782.368c.07.208.133.418.272.527.127.1.343.104.545.125-.115.06-.242.153-.33.142a.529.529 0 0 1-.356-.234.915.915 0 0 1-.164-.426c-.007-.067.02-.088.033-.134zm1.889 1.572c.032-.003.037 0 .043.002-.016.015-.023.024-.059.047a3.722 3.722 0 0 1-.525.252c-.176.07-.348.13-.502.18.073-.047.136-.089.223-.137.3-.17.664-.332.82-.344zm.223.433c.01.016.021.029.02.05a.276.276 0 0 1-.053.118 1.593 1.593 0 0 1-.338.317 4.663 4.663 0 0 1-.422.275l-.022.012a3.266 3.266 0 0 1 .578-.63.715.715 0 0 1 .237-.142zm-4.25 4.14v.001h-.008l.008-.002z"/></svg>