<?xml version="1.0" encoding="UTF-8" standalone="no"?>
<svg
   height="24"
   id="svg7384"
   version="1.1"
   width="24"
   sodipodi:docname="display.svg"
   inkscape:version="1.1 (ce6663b3b7, 2021-05-25)"
   xmlns:inkscape="http://www.inkscape.org/namespaces/inkscape"
   xmlns:sodipodi="http://sodipodi.sourceforge.net/DTD/sodipodi-0.dtd"
   xmlns="http://www.w3.org/2000/svg"
   xmlns:svg="http://www.w3.org/2000/svg"
   xmlns:rdf="http://www.w3.org/1999/02/22-rdf-syntax-ns#"
   xmlns:cc="http://creativecommons.org/ns#"
   xmlns:dc="http://purl.org/dc/elements/1.1/">
  <sodipodi:namedview
     id="namedview24"
     pagecolor="#ffffff"
     bordercolor="#666666"
     borderopacity="1.0"
     inkscape:pageshadow="2"
     inkscape:pageopacity="0.0"
     inkscape:pagecheckerboard="0"
     showgrid="false"
     inkscape:zoom="19.798914"
     inkscape:cx="8.1065051"
     inkscape:cy="12.450178"
     inkscape:window-width="1920"
     inkscape:window-height="1016"
     inkscape:window-x="0"
     inkscape:window-y="27"
     inkscape:window-maximized="1"
     inkscape:current-layer="svg7384"
     inkscape:snap-page="true" />
  <metadata
     id="metadata20854">
    <rdf:RDF>
      <cc:Work
         rdf:about="">
        <dc:format>image/svg+xml</dc:format>
        <dc:type
           rdf:resource="http://purl.org/dc/dcmitype/StillImage" />
      </cc:Work>
    </rdf:RDF>
  </metadata>
  <defs
     id="defs7386">
    <linearGradient
       id="linearGradient5606"
       inkscape:swatch="solid">
      <stop
         id="stop5608"
         offset="0"
         style="stop-color:#000000;stop-opacity:1;" />
    </linearGradient>
    <linearGradient
       id="linearGradient4526"
       inkscape:swatch="solid">
      <stop
         id="stop4528"
         offset="0"
         style="stop-color:#ffffff;stop-opacity:1;" />
    </linearGradient>
    <linearGradient
       id="linearGradient3600-4"
       inkscape:swatch="gradient">
      <stop
         id="stop3602-7"
         offset="0"
         style="stop-color:#f4f4f4;stop-opacity:1" />
      <stop
         id="stop3604-6"
         offset="1"
         style="stop-color:#dbdbdb;stop-opacity:1" />
    </linearGradient>
  </defs>
  <path
     id="path2164"
     style="color:#000000;font-style:normal;font-variant:normal;font-weight:normal;font-stretch:normal;font-size:medium;line-height:normal;font-family:sans-serif;font-variant-ligatures:normal;font-variant-position:normal;font-variant-caps:normal;font-variant-numeric:normal;font-variant-alternates:normal;font-feature-settings:normal;text-indent:0;text-align:start;text-decoration:none;text-decoration-line:none;text-decoration-style:solid;text-decoration-color:#000000;letter-spacing:normal;word-spacing:normal;text-transform:none;writing-mode:lr-tb;direction:ltr;text-orientation:mixed;dominant-baseline:auto;baseline-shift:baseline;text-anchor:start;white-space:normal;shape-padding:0;clip-rule:nonzero;display:inline;overflow:visible;visibility:visible;isolation:auto;mix-blend-mode:normal;color-interpolation:sRGB;color-interpolation-filters:linearRGB;solid-color:#000000;solid-opacity:1;vector-effect:none;fill:#808080;fill-opacity:1;fill-rule:nonzero;stroke:none;stroke-width:1;stroke-linecap:butt;stroke-linejoin:miter;stroke-miterlimit:4;stroke-dasharray:none;stroke-dashoffset:0;stroke-opacity:1;marker:none;color-rendering:auto;image-rendering:auto;shape-rendering:auto;text-rendering:auto;enable-background:accumulate"
     d="m 6.9926632,3.2499619 c -1.5727499,0.018125 -2.7236132,-0.038256 -3.6645507,0.480957 -0.4704625,0.259575 -0.8415383,0.6992336 -1.0473633,1.2475586 -0.1403322,0.3738358 -0.2175287,0.8005335 -0.2539062,1.2915039 a 0.6250625,0.6250625 0 0 0 -0.026855,0.10498 v 0.625 6.2499996 1.25 c 0,0.822013 0.074874,1.47316 0.2807617,2.021486 0.2058375,0.548325 0.5769008,0.987994 1.0473633,1.247557 0.9409375,0.51915 2.0918132,0.462745 3.6645507,0.480958 h 0.00489 0.7299804 1.772461 v 0.625 c 0,1.875 -0.625,1.875 -1.875,1.875 h -0.625 v 1.25 h 9.9999989 v -1.25 h -0.625 c -1.249999,0 -1.874999,0 -1.874999,-1.875 v -0.625 h 2.502442 0.0049 1.867676 a 0.6250625,0.6250625 0 0 0 0.246584,-0.05859 c 0.582953,-0.05486 1.091642,-0.169279 1.550291,-0.422364 0.470463,-0.259575 0.841527,-0.699233 1.047365,-1.247557 0.205611,-0.548339 0.28076,-1.199473 0.28076,-2.021485 v -7.5000004 c 0,-0.8220125 -0.07487,-1.4731468 -0.28076,-2.0214843 -0.205825,-0.548325 -0.576901,-0.9879837 -1.047365,-1.2475587 -0.940937,-0.5191749 -2.091801,-0.462807 -3.664551,-0.480957 h -0.0049 -10.0048822 z m 0.00732,1.25 h 9.9999998 c 1.57315,0.018375 2.608968,0.074749 3.066406,0.3271485 0.229262,0.1264999 0.361449,0.2659203 0.483399,0.5908203 0.12175,0.3248875 0.200195,0.8415437 0.200195,1.5820312 v 7.5000001 c 0,0.740488 -0.07825,1.257156 -0.200195,1.582031 -0.122,0.324888 -0.254137,0.464333 -0.483399,0.59082 -0.227568,0.125559 -0.599601,0.203473 -1.108399,0.251465 l -15.6567372,-10.8398435 c 0.034917,-0.2758381 0.085726,-0.4981415 0.1489257,-0.6665039 0.122,-0.3248875 0.254136,-0.4643327 0.4833985,-0.5908202 0.4574375,-0.2523875 1.4932438,-0.308761 3.0664062,-0.3271485 z m -3.75,3.0664062 13.6254888,9.4335939 h -9.1479497 -0.7202148 -0.00732 c -1.5731625,-0.01838 -2.6089687,-0.07475 -3.0664062,-0.327149 -0.2292625,-0.126487 -0.3614484,-0.265932 -0.4833985,-0.59082 -0.122,-0.324875 -0.2001953,-0.841543 -0.2001953,-1.582031 v -1.25 z m 1.8408203,3.1835939 a 0.6250625,0.6250625 0 0 0 -0.5908202,0.625 v 3.125 c 0,0.520837 0.3538672,0.953295 0.6591797,1.105958 0.305325,0.15265 0.5908203,0.144042 0.5908203,0.144042 h 4.3749997 a 0.6250625,0.6250625 0 0 0 0.375977,-1.125489 l -5.0000002,-3.749999 a 0.6250625,0.6250625 0 0 0 -0.4101563,-0.124512 z m 0.6591798,1.875 2.4975586,1.875 h -2.4975586 z" />
</svg>
