<?xml version="1.0" encoding="UTF-8" standalone="no"?>
<svg
   height="16.000061"
   id="svg7384"
   version="1.1"
   width="16"
   sodipodi:docname="display.svg"
   inkscape:version="1.1 (ce6663b3b7, 2021-05-25)"
   xmlns:inkscape="http://www.inkscape.org/namespaces/inkscape"
   xmlns:sodipodi="http://sodipodi.sourceforge.net/DTD/sodipodi-0.dtd"
   xmlns="http://www.w3.org/2000/svg"
   xmlns:svg="http://www.w3.org/2000/svg"
   xmlns:rdf="http://www.w3.org/1999/02/22-rdf-syntax-ns#"
   xmlns:cc="http://creativecommons.org/ns#"
   xmlns:dc="http://purl.org/dc/elements/1.1/">
  <sodipodi:namedview
     id="namedview24"
     pagecolor="#ffffff"
     bordercolor="#666666"
     borderopacity="1.0"
     inkscape:pageshadow="2"
     inkscape:pageopacity="0.0"
     inkscape:pagecheckerboard="0"
     showgrid="false"
     inkscape:zoom="27.999893"
     inkscape:cx="4.910733"
     inkscape:cy="8.5178896"
     inkscape:window-width="1920"
     inkscape:window-height="1016"
     inkscape:window-x="0"
     inkscape:window-y="27"
     inkscape:window-maximized="1"
     inkscape:current-layer="svg7384" />
  <metadata
     id="metadata20854">
    <rdf:RDF>
      <cc:Work
         rdf:about="">
        <dc:format>image/svg+xml</dc:format>
        <dc:type
           rdf:resource="http://purl.org/dc/dcmitype/StillImage" />
      </cc:Work>
    </rdf:RDF>
  </metadata>
  <defs
     id="defs7386">
    <linearGradient
       id="linearGradient5606"
       inkscape:swatch="solid">
      <stop
         id="stop5608"
         offset="0"
         style="stop-color:#000000;stop-opacity:1;" />
    </linearGradient>
    <linearGradient
       id="linearGradient4526"
       inkscape:swatch="solid">
      <stop
         id="stop4528"
         offset="0"
         style="stop-color:#ffffff;stop-opacity:1;" />
    </linearGradient>
    <linearGradient
       id="linearGradient3600-4"
       inkscape:swatch="gradient">
      <stop
         id="stop3602-7"
         offset="0"
         style="stop-color:#f4f4f4;stop-opacity:1" />
      <stop
         id="stop3604-6"
         offset="1"
         style="stop-color:#dbdbdb;stop-opacity:1" />
    </linearGradient>
  </defs>
  <path
     id="path2164"
     style="color:#000000;font-style:normal;font-variant:normal;font-weight:normal;font-stretch:normal;font-size:medium;line-height:normal;font-family:sans-serif;font-variant-ligatures:normal;font-variant-position:normal;font-variant-caps:normal;font-variant-numeric:normal;font-variant-alternates:normal;font-feature-settings:normal;text-indent:0;text-align:start;text-decoration:none;text-decoration-line:none;text-decoration-style:solid;text-decoration-color:#000000;letter-spacing:normal;word-spacing:normal;text-transform:none;writing-mode:lr-tb;direction:ltr;text-orientation:mixed;dominant-baseline:auto;baseline-shift:baseline;text-anchor:start;white-space:normal;shape-padding:0;clip-rule:nonzero;display:inline;overflow:visible;visibility:visible;isolation:auto;mix-blend-mode:normal;color-interpolation:sRGB;color-interpolation-filters:linearRGB;solid-color:#000000;solid-opacity:1;vector-effect:none;fill:#808080;fill-opacity:1;fill-rule:nonzero;stroke:none;stroke-width:1;stroke-linecap:butt;stroke-linejoin:miter;stroke-miterlimit:4;stroke-dasharray:none;stroke-dashoffset:0;stroke-opacity:1;marker:none;color-rendering:auto;image-rendering:auto;shape-rendering:auto;text-rendering:auto;enable-background:accumulate"
     d="M 3.9941406 1 C 2.7359406 1.0145 1.81525 0.96939562 1.0625 1.3847656 C 0.68613 1.5924256 0.38926938 1.9441525 0.22460938 2.3828125 C 0.1123436 2.6818811 0.050586398 3.0232393 0.021484375 3.4160156 A 0.50005 0.50005 0 0 0 0 3.5 L 0 4 L 0 9 L 0 10 C 0 10.65761 0.059899375 11.178528 0.22460938 11.617188 C 0.38927937 12.055848 0.68613 12.407584 1.0625 12.615234 C 1.81525 13.030554 2.7359506 12.98543 3.9941406 13 L 3.9980469 13 L 4.5820312 13 L 6 13 L 6 13.5 C 6 15 5.5 15 4.5 15 L 4 15 L 4 16 L 12 16 L 12 15 L 11.5 15 C 10.5 15 10 15 10 13.5 L 10 13 L 12.001953 13 L 12.005859 13 L 13.5 13 A 0.50005 0.50005 0 0 0 13.697266 12.953125 C 14.163629 12.909239 14.57058 12.817702 14.9375 12.615234 C 15.31387 12.407574 15.610721 12.055847 15.775391 11.617188 C 15.939881 11.178517 16 10.65761 16 10 L 16 4 C 16 3.34239 15.940101 2.8214825 15.775391 2.3828125 C 15.610731 1.9441525 15.31387 1.5924256 14.9375 1.3847656 C 14.18475 0.96942562 13.264059 1.01452 12.005859 1 L 12.001953 1 L 3.9980469 1 L 3.9941406 1 z M 4 2 L 12 2 C 13.25852 2.0147 14.087175 2.0597988 14.453125 2.2617188 C 14.636535 2.3629187 14.742284 2.474455 14.839844 2.734375 C 14.937244 2.994285 15 3.40761 15 4 L 15 10 C 15 10.59239 14.937404 11.005725 14.839844 11.265625 C 14.742244 11.525535 14.636535 11.637091 14.453125 11.738281 C 14.271071 11.838728 13.973444 11.901059 13.566406 11.939453 L 1.0410156 3.2675781 C 1.0689494 3.0469076 1.109597 2.8690649 1.1601562 2.734375 C 1.2577562 2.474465 1.363465 2.3629088 1.546875 2.2617188 C 1.912825 2.0598088 2.74147 2.01471 4 2 z M 1 4.453125 L 11.900391 12 L 4.5820312 12 L 4.0058594 12 L 4 12 C 2.74147 11.9853 1.912825 11.940201 1.546875 11.738281 C 1.363465 11.637091 1.2577163 11.525535 1.1601562 11.265625 C 1.0625563 11.005725 1 10.59239 1 10 L 1 9 L 1 4.453125 z M 2.4726562 7 A 0.50005 0.50005 0 0 0 2 7.5 L 2 10 C 2 10.41667 2.2830938 10.762636 2.5273438 10.884766 C 2.7716038 11.006886 3 11 3 11 L 6.5 11 A 0.50005 0.50005 0 0 0 6.8007812 10.099609 L 2.8007812 7.0996094 A 0.50005 0.50005 0 0 0 2.4726562 7 z M 3 8.5 L 4.9980469 10 L 3 10 L 3 8.5 z " />
</svg>
