<?xml version="1.0" encoding="UTF-8" standalone="no"?>
<svg viewBox="0 1 24 24" height="24" id="svg7384" version="1.1" width="24" sodipodi:docname="online-accounts.svg" inkscape:version="1.1 (ce6663b3b7, 2021-05-25)"
   xmlns:inkscape="http://www.inkscape.org/namespaces/inkscape"
   xmlns:sodipodi="http://sodipodi.sourceforge.net/DTD/sodipodi-0.dtd"
   xmlns="http://www.w3.org/2000/svg"
   xmlns:svg="http://www.w3.org/2000/svg"
   xmlns:rdf="http://www.w3.org/1999/02/22-rdf-syntax-ns#"
   xmlns:cc="http://creativecommons.org/ns#"
   xmlns:dc="http://purl.org/dc/elements/1.1/">
   <sodipodi:namedview id="namedview21" pagecolor="#ffffff" bordercolor="#666666" borderopacity="1.0" inkscape:pageshadow="2" inkscape:pageopacity="0.0" inkscape:pagecheckerboard="0" showgrid="true" inkscape:snap-page="true" inkscape:zoom="28.136957" inkscape:cx="14.091787" inkscape:cy="11.817198" inkscape:window-width="1920" inkscape:window-height="1016" inkscape:window-x="0" inkscape:window-y="27" inkscape:window-maximized="1" inkscape:current-layer="svg7384" inkscape:snap-grids="true">
      <inkscape:grid type="xygrid" id="grid837" />
      <inkscape:grid type="xygrid" id="grid889" dotted="true" spacingx="0.5" spacingy="0.5" empspacing="10" />
   </sodipodi:namedview>
   <metadata id="metadata20854">
      <rdf:RDF>
         <cc:Work rdf:about="">
            <dc:format>image/svg+xml</dc:format>
            <dc:type rdf:resource="http://purl.org/dc/dcmitype/StillImage" />
         </cc:Work>
      </rdf:RDF>
   </metadata>
   <defs id="defs7386">
      <linearGradient id="linearGradient5606" inkscape:swatch="solid">
         <stop id="stop5608" offset="0" style="stop-color:#000000;stop-opacity:1;" />
      </linearGradient>
      <linearGradient id="linearGradient4526" inkscape:swatch="solid">
         <stop id="stop4528" offset="0" style="stop-color:#ffffff;stop-opacity:1;" />
      </linearGradient>
      <linearGradient id="linearGradient3600-4" inkscape:swatch="gradient">
         <stop id="stop3602-7" offset="0" style="stop-color:#f4f4f4;stop-opacity:1" />
         <stop id="stop3604-6" offset="1" style="stop-color:#dbdbdb;stop-opacity:1" />
      </linearGradient>
   </defs>
   <g id="layer9" label="status" style="display:inline;fill:#808080;fill-opacity:1" transform="translate(-790.9998,190.00025)" />
   <g id="layer2" style="display:inline;fill:#808080;fill-opacity:1" transform="translate(-549.9996,-176.99975)" />
   <g id="layer4" style="display:inline;fill:#808080;fill-opacity:1" transform="translate(-549.9996,-176.99975)" />
   <g id="g1812" style="display:inline;fill:#808080;fill-opacity:1" transform="translate(-549.9996,-176.99975)" />
   <g id="g6217" style="display:inline;fill:#808080;fill-opacity:1" transform="translate(-549.9996,-176.99975)" />
   <g id="layer3" style="display:inline;fill:#808080;fill-opacity:1" transform="translate(-549.9996,-176.99975)" />
   <g id="layer1" style="display:inline;fill:#808080;fill-opacity:1" transform="translate(-549.9996,-176.99975)" />
   <path id="circle1109" style="color:#000000;fill:#808080;fill-rule:evenodd;stroke-linecap:round;-inkscape-stroke:none;fill-opacity:1" d="m 13.5,4.9999998 c -2.707144,0 -5.0317121,1.6647593 -6.0078125,4.0234375 -0.1621411,-0.015958 -0.3259458,-0.023437 -0.4921875,-0.023437 -2.7554987,0 -5,2.2445007 -5,4.9999997 0,2.755499 2.2445013,5 5,5 h 11.5 c 1.927072,0 3.5,-1.572928 3.5,-3.5 0,-1.4115 -0.843931,-2.632974 -2.052734,-3.185547 0.03355,-0.267022 0.05273,-0.538485 0.05273,-0.814453 0,-3.5839248 -2.916075,-6.4999998 -6.5,-6.4999998 z m 0,1 c 3.043485,0 5.5,2.4565146 5.5,5.5000002 0,0.180249 -0.0105,0.35746 -0.02734,0.533203 -0.03236,0.337663 -0.09323,0.667535 -0.183594,0.984375 0.342212,0.039 0.662071,0.14676 0.947266,0.308594 0.755583,0.428755 1.263672,1.2383 1.263672,2.173828 0,1.386633 -1.113367,2.5 -2.5,2.5 -0.09196,0 -0.182155,-0.0041 -0.271484,-0.01367 0.067,0.0072 0.134615,0.01185 0.203125,0.01367 h -2.367188 -0.0059 -2.558594 -3.5058594 -2.9941406 c -2.2150591,0 -4,-1.784941 -4,-4 0,-2.215059 1.7849409,-4.0000002 4,-4.0000002 0.058781,0 0.1176318,0.00337 0.1757812,0.00586 0.3415363,0.01462 0.6706138,0.07155 0.984375,0.166015 0.081027,-0.3282464 0.1932297,-0.643458 0.3300782,-0.9453121 0.8634156,-1.9044824 2.7781256,-3.2265625 5.0097656,-3.2265625 z m 5.898438,8.2265622 c -0.04466,0.09639 -0.09145,0.191381 -0.140626,0.285157 0.04917,-0.09378 0.09596,-0.188769 0.140626,-0.285157 z" sodipodi:nodetypes="scssssscssssscsssccccccsssscssccc" />
</svg>
