<?xml version="1.0" encoding="UTF-8" standalone="no"?>
<svg
   height="24"
   id="svg7384"
   version="1.1"
   width="24"
   sodipodi:docname="panel-look.svg"
   inkscape:version="1.1 (ce6663b3b7, 2021-05-25)"
   xmlns:inkscape="http://www.inkscape.org/namespaces/inkscape"
   xmlns:sodipodi="http://sodipodi.sourceforge.net/DTD/sodipodi-0.dtd"
   xmlns="http://www.w3.org/2000/svg"
   xmlns:svg="http://www.w3.org/2000/svg"
   xmlns:rdf="http://www.w3.org/1999/02/22-rdf-syntax-ns#"
   xmlns:cc="http://creativecommons.org/ns#"
   xmlns:dc="http://purl.org/dc/elements/1.1/">
  <sodipodi:namedview
     id="namedview22"
     pagecolor="#ffffff"
     bordercolor="#666666"
     borderopacity="1.0"
     inkscape:pageshadow="2"
     inkscape:pageopacity="0.0"
     inkscape:pagecheckerboard="0"
     showgrid="true"
     inkscape:snap-page="true"
     inkscape:zoom="13.999965"
     inkscape:cx="3.8928669"
     inkscape:cy="19.750049"
     inkscape:window-width="1920"
     inkscape:window-height="1016"
     inkscape:window-x="0"
     inkscape:window-y="27"
     inkscape:window-maximized="1"
     inkscape:current-layer="svg7384">
    <inkscape:grid
       type="xygrid"
       id="grid838" />
    <inkscape:grid
       type="xygrid"
       id="grid1693"
       dotted="true"
       spacingx="0.5"
       spacingy="0.5"
       empspacing="10" />
  </sodipodi:namedview>
  <metadata
     id="metadata20854">
    <rdf:RDF>
      <cc:Work
         rdf:about="">
        <dc:format>image/svg+xml</dc:format>
        <dc:type
           rdf:resource="http://purl.org/dc/dcmitype/StillImage" />
      </cc:Work>
    </rdf:RDF>
  </metadata>
  <defs
     id="defs7386">
    <linearGradient
       id="linearGradient5606"
       inkscape:swatch="solid">
      <stop
         id="stop5608"
         offset="0"
         style="stop-color:#000000;stop-opacity:1;" />
    </linearGradient>
    <linearGradient
       id="linearGradient4526"
       inkscape:swatch="solid">
      <stop
         id="stop4528"
         offset="0"
         style="stop-color:#ffffff;stop-opacity:1;" />
    </linearGradient>
    <linearGradient
       id="linearGradient3600-4"
       inkscape:swatch="gradient">
      <stop
         id="stop3602-7"
         offset="0"
         style="stop-color:#f4f4f4;stop-opacity:1" />
      <stop
         id="stop3604-6"
         offset="1"
         style="stop-color:#dbdbdb;stop-opacity:1" />
    </linearGradient>
  </defs>
  <g
     id="layer9"
     label="status"
     style="display:inline"
     transform="translate(-913.00016,-92.375023)" />
  <g
     id="layer2"
     style="display:inline"
     transform="translate(-671.99996,-459.37502)" />
  <g
     id="layer4"
     style="display:inline"
     transform="translate(-671.99996,-459.37502)" />
  <g
     id="g1812"
     style="display:inline"
     transform="translate(-671.99996,-459.37502)" />
  <g
     id="g6217"
     style="display:inline"
     transform="translate(-671.99996,-459.37502)" />
  <g
     id="g1833"
     style="display:inline"
     transform="translate(-671.99996,-459.37502)" />
  <g
     id="layer1"
     style="display:inline"
     transform="translate(-671.99996,-459.37502)" />
  <path
     id="path3037"
     style="color:#000000;fill:#808080;fill-opacity:1;-inkscape-stroke:none"
     d="M 5.4550781 3.0019531 C 4.4864972 3.0109331 3.7372591 3.0752221 3.1171875 3.4472656 C 2.7038064 3.6952943 2.3972496 4.1031731 2.2285156 4.609375 C 2.0597817 5.1155769 2 5.7241761 2 6.5019531 L 2 14.501953 C 2 15.27973 2.059782 15.888329 2.2285156 16.394531 C 2.3972496 16.900733 2.7038064 17.308612 3.1171875 17.556641 C 3.7372591 17.928684 4.4864972 17.992972 5.4550781 18.001953 C 5.7802131 18.005253 6.1213187 18.003906 6.5 18.003906 L 9 18.003906 L 9 19.128906 C 9 21.003906 8.375 21.003906 7.125 21.003906 L 6 21.003906 L 6 22.003906 L 18 22.003906 L 18 21.003906 L 16.875 21.003906 C 15.625001 21.003906 15 21.003906 15 19.128906 L 15 18.003906 L 17.5 18.003906 C 17.878681 18.003906 18.219787 18.005253 18.544922 18.001953 C 19.513503 17.992953 20.262741 17.928683 20.882812 17.556641 C 21.296194 17.308612 21.60275 16.900733 21.771484 16.394531 C 21.940218 15.888329 22 15.27973 22 14.501953 L 22 6.5019531 C 22 5.7241761 21.94022 5.1155769 21.771484 4.609375 C 21.60275 4.1031731 21.296194 3.6952943 20.882812 3.4472656 C 20.056051 2.9512083 18.999998 3.0019531 17.5 3.0019531 L 6.5 3.0019531 C 6.1250004 3.0019531 5.7779384 2.9989631 5.4550781 3.0019531 z M 6.5 4.0019531 L 17.5 4.0019531 C 18.999998 4.0019531 19.94395 4.0526991 20.367188 4.3066406 C 20.578806 4.4336116 20.70975 4.5882341 20.822266 4.9257812 C 20.934781 5.2633285 21 5.7797316 21 6.5019531 L 21 14.501953 C 21 15.224175 20.93478 15.740578 20.822266 16.078125 C 20.70975 16.415672 20.578806 16.570296 20.367188 16.697266 C 19.943952 16.951208 18.999999 17.001953 17.5 17.001953 L 6.5 17.001953 C 6.3164433 17.001953 6.1669682 16.997893 6 16.996094 L 6 12.742188 C 7.2336237 13.779448 9.2611626 15 12 15 C 16.759254 15 19.40625 11.291016 19.40625 11.291016 A 0.5 0.5 0 0 0 19.414062 11.279297 A 0.5 0.5 0 0 0 19.421875 11.267578 A 0.5 0.5 0 0 0 19.451172 11.212891 A 0.5 0.5 0 0 0 19.453125 11.210938 A 0.5 0.5 0 0 0 19.476562 11.150391 A 0.5 0.5 0 0 0 19.480469 11.138672 A 0.5 0.5 0 0 0 19.494141 11.074219 A 0.5 0.5 0 0 0 19.498047 11.023438 A 0.5 0.5 0 0 0 19.5 10.996094 A 0.5 0.5 0 0 0 19.5 10.994141 A 0.5 0.5 0 0 0 19.5 10.992188 A 0.5 0.5 0 0 0 19.492188 10.927734 A 0.5 0.5 0 0 0 19.492188 10.925781 A 0.5 0.5 0 0 0 19.492188 10.923828 A 0.5 0.5 0 0 0 19.492188 10.921875 A 0.5 0.5 0 0 0 19.492188 10.919922 A 0.5 0.5 0 0 0 19.492188 10.917969 A 0.5 0.5 0 0 0 19.490234 10.904297 A 0.5 0.5 0 0 0 19.474609 10.841797 A 0.5 0.5 0 0 0 19.470703 10.830078 A 0.5 0.5 0 0 0 19.443359 10.769531 A 0.5 0.5 0 0 0 19.4375 10.757812 C 19.4375 10.757812 16.833328 6 12 6 C 9.2531004 6 7.2346018 7.5281986 6 8.8496094 L 6 4.0078125 C 6.1669682 4.0060133 6.3164433 4.0019531 6.5 4.0019531 z M 3.1582031 5 L 5 5 L 5 6 L 3.0117188 6 C 3.0332514 5.5734969 3.0852201 5.2476207 3.1582031 5 z M 3 7 L 5 7 L 5 8 L 3 8 L 3 7 z M 12 7 C 15.526636 7 17.778181 10.031215 18.388672 10.964844 C 17.737577 11.734102 15.522313 14 12 14 C 8.9923606 14 6.9415858 12.350398 6 11.388672 L 6 10.416016 C 6.9307257 9.1854638 9.0031051 7 12 7 z M 3 9 L 5 9 L 5 10 L 3 10 L 3 9 z M 3 11 L 4.5097656 11 A 0.5 0.5 0 0 0 4.5117188 11.037109 A 0.5 0.5 0 0 0 4.5175781 11.123047 A 0.5 0.5 0 0 0 4.5625 11.222656 A 0.5 0.5 0 0 0 4.59375 11.291016 C 4.59375 11.291016 4.6064177 11.307204 4.6074219 11.308594 A 0.5 0.5 0 0 0 4.6113281 11.314453 C 4.6309022 11.341433 4.765855 11.522446 5 11.783203 L 5 12 L 3 12 L 3 11 z M 3 13 L 5 13 L 5 14 L 3 14 L 3 13 z M 3.0117188 15 L 5 15 L 5 16 L 3.15625 16 C 3.0836826 15.752089 3.0330381 15.425999 3.0117188 15 z " />
  <path
     id="path3369"
     style="fill:#808080;fill-rule:evenodd;stroke-width:0.5;stroke-linecap:round;fill-opacity:1"
     d="M 12 8 A 3 2.5 0 0 0 9 10.5 A 3 2.5 0 0 0 12 13 A 3 2.5 0 0 0 15 10.5 A 3 2.5 0 0 0 14.876953 9.7890625 A 1.25 1.25 0 0 1 13.75 10.5 A 1.25 1.25 0 0 1 12.5 9.25 A 1.25 1.25 0 0 1 13.109375 8.1796875 A 3 2.5 0 0 0 12 8 z " />
</svg>
