<?xml version="1.0" encoding="UTF-8" standalone="no"?>
<svg
   viewBox="0 0 24 24"
   version="1.1"
   id="svg10"
   sodipodi:docname="remote.svg"
   inkscape:version="1.1 (ce6663b3b7, 2021-05-25)"
   width="24"
   height="24"
   xmlns:inkscape="http://www.inkscape.org/namespaces/inkscape"
   xmlns:sodipodi="http://sodipodi.sourceforge.net/DTD/sodipodi-0.dtd"
   xmlns="http://www.w3.org/2000/svg"
   xmlns:svg="http://www.w3.org/2000/svg"
   xmlns:rdf="http://www.w3.org/1999/02/22-rdf-syntax-ns#"
   xmlns:cc="http://creativecommons.org/ns#"
   xmlns:dc="http://purl.org/dc/elements/1.1/">
  <metadata
     id="metadata16">
    <rdf:RDF>
      <cc:Work
         rdf:about="">
        <dc:format>image/svg+xml</dc:format>
        <dc:type
           rdf:resource="http://purl.org/dc/dcmitype/StillImage" />
      </cc:Work>
    </rdf:RDF>
  </metadata>
  <defs
     id="defs14" />
  <sodipodi:namedview
     pagecolor="#ffffff"
     bordercolor="#666666"
     borderopacity="1"
     objecttolerance="10"
     gridtolerance="10"
     guidetolerance="10"
     inkscape:pageopacity="0"
     inkscape:pageshadow="2"
     inkscape:window-width="1920"
     inkscape:window-height="1016"
     id="namedview12"
     showgrid="true"
     inkscape:zoom="13.75"
     inkscape:cx="-2.2909091"
     inkscape:cy="13.927273"
     inkscape:window-x="0"
     inkscape:window-y="27"
     inkscape:window-maximized="1"
     inkscape:current-layer="svg10"
     inkscape:pagecheckerboard="0">
    <inkscape:grid
       type="xygrid"
       id="grid841" />
  </sodipodi:namedview>
  <path
     id="path2"
     style="font-variant-ligatures:normal;font-variant-position:normal;font-variant-caps:normal;font-variant-numeric:normal;font-variant-alternates:normal;font-feature-settings:normal;text-indent:0;text-decoration-line:none;text-decoration-style:solid;text-decoration-color:#000000;text-transform:none;text-orientation:mixed;shape-padding:0;isolation:auto;mix-blend-mode:normal;fill:#808080;stroke-width:1"
     d="m 6.9926778,2 c -1.5724999,0.01875 -2.7233007,-0.037793 -3.6645507,0.480957 a 2.35,2.35 0 0 0 -1.0473632,1.2475586 c -0.2062501,0.5475 -0.2807618,1.2002344 -0.2807618,2.0214844 v 7.5 c 0,0.8225 0.074512,1.473985 0.2807618,2.021485 0.205,0.54875 0.5773632,0.987558 1.0473632,1.247558 0.94125,0.52 2.0920507,0.462207 3.6645507,0.480957 h 2.5073243 v 1.25 h 4.9999999 v -1.25 h 2.507324 c 1.5725,-0.01875 2.723301,0.03779 3.664551,-0.480957 a 2.35,2.35 0 0 0 1.047364,-1.247558 c 0.205,-0.547501 0.280761,-1.200235 0.280761,-2.021485 v -7.5 c 0,-0.8225 -0.07451,-1.4739844 -0.280761,-2.0214844 a 2.35,2.35 0 0 0 -1.047364,-1.2475586 c -0.94125,-0.52 -2.092051,-0.462207 -3.664551,-0.480957 h -10.0097653 z m 0.00732,1.25 h 10.0000002 c 1.57375,0.01875 2.608906,0.074649 3.066406,0.3271485 0.23,0.125 0.362149,0.2658202 0.483399,0.5908203 0.12125,0.325 0.200195,0.8420312 0.200195,1.5820312 v 7.5 c 0,0.74 -0.07895,1.257031 -0.200195,1.582031 -0.1225,0.325 -0.253399,0.46457 -0.483399,0.59082 -0.4575,0.2525 -1.492656,0.308399 -3.066406,0.327149 h -10.0000002 c -1.5737499,-0.01875 -2.6125976,-0.07465 -3.0688476,-0.327149 -0.22875,-0.125 -0.358457,-0.26582 -0.4809571,-0.59082 -0.12125,-0.325 -0.2001953,-0.842031 -0.2001953,-1.582031 v -7.5 c 0,-0.74 0.078945,-1.2570312 0.2001953,-1.5820312 0.1225,-0.3250001 0.2522071,-0.4645704 0.4809571,-0.5908203 0.4575,-0.2525 1.4950976,-0.3083985 3.0688476,-0.3271485 z m -0.6518555,2.5024414 c -0.1196287,0.00855 -0.5981444,0.078125 -0.5981444,0.625 v 6.2499996 c 0,0.625 0.6249999,0.625 0.6249999,0.625 h 6.2500002 c 0.625,0 0.625,-0.625 0.625,-0.625 v -6.2499996 c 0,-0.625 -0.54625,-0.625 -0.625,-0.625 h -6.2500002 c 0,0 -0.00976,-0.00122 -0.026855,0 z m 10.0268557,0 c 0,0 -0.625,0 -0.625,0.625 v 1.2304687 c 0,0 0,0.625 0.625,0.625 h 1.25 c 0,0 0.625,0 0.625,-0.625 v -1.2280274 c 0,0 0,-0.625 -0.625,-0.625 z m -9.3750002,2.4951172 h 5.0000002 v 3.7524414 h -5.0000002 z m 9.3481452,1.2524414 c -0.119625,0.00855 -0.598145,0.078125 -0.598145,0.625 v 1.230469 c 0,0 0,0.625 0.625,0.625 h 1.25 c 0,0 0.625,0 0.625,-0.625 v -1.228028 c 0,0 0,-0.6249996 -0.625,-0.6249996 l -1.25,-0.00244 c 0,0 -0.0097,-0.00122 -0.02685,0 z m -10.5981452,10 -3.7499999,1.25 v 1.25 h 20.0000001 v -1.25 l -3.75,-1.25 z" />
</svg>
