<?xml version="1.0" encoding="UTF-8" standalone="no"?>
<svg
   viewBox="0 0 16 16"
   version="1.1"
   id="svg10"
   sodipodi:docname="remote.svg"
   inkscape:version="1.1 (ce6663b3b7, 2021-05-25)"
   xmlns:inkscape="http://www.inkscape.org/namespaces/inkscape"
   xmlns:sodipodi="http://sodipodi.sourceforge.net/DTD/sodipodi-0.dtd"
   xmlns="http://www.w3.org/2000/svg"
   xmlns:svg="http://www.w3.org/2000/svg"
   xmlns:rdf="http://www.w3.org/1999/02/22-rdf-syntax-ns#"
   xmlns:cc="http://creativecommons.org/ns#"
   xmlns:dc="http://purl.org/dc/elements/1.1/">
  <metadata
     id="metadata16">
    <rdf:RDF>
      <cc:Work
         rdf:about="">
        <dc:format>image/svg+xml</dc:format>
        <dc:type
           rdf:resource="http://purl.org/dc/dcmitype/StillImage" />
      </cc:Work>
    </rdf:RDF>
  </metadata>
  <defs
     id="defs14" />
  <sodipodi:namedview
     pagecolor="#ffffff"
     bordercolor="#666666"
     borderopacity="1"
     objecttolerance="10"
     gridtolerance="10"
     guidetolerance="10"
     inkscape:pageopacity="0"
     inkscape:pageshadow="2"
     inkscape:window-width="1920"
     inkscape:window-height="1016"
     id="namedview12"
     showgrid="true"
     inkscape:zoom="55"
     inkscape:cx="8.0818182"
     inkscape:cy="6.7545455"
     inkscape:window-x="0"
     inkscape:window-y="27"
     inkscape:window-maximized="1"
     inkscape:current-layer="svg10"
     inkscape:pagecheckerboard="0">
    <inkscape:grid
       type="xygrid"
       id="grid841" />
  </sodipodi:namedview>
  <path
     id="path2"
     style="font-variant-ligatures:normal;font-variant-position:normal;font-variant-caps:normal;font-variant-numeric:normal;font-variant-alternates:normal;font-feature-settings:normal;text-indent:0;text-decoration-line:none;text-decoration-style:solid;text-decoration-color:#000000;text-transform:none;text-orientation:mixed;shape-padding:0;isolation:auto;mix-blend-mode:normal;fill:#808080"
     d="M 3.9941406 0 C 2.7361406 0.015 1.8155 -0.030234375 1.0625 0.38476562 A 1.88 1.88 0 0 0 0.22460938 1.3828125 C 0.059609375 1.8208125 1.8503717e-17 2.343 0 3 L 0 9 C 0 9.658 0.059609375 10.179188 0.22460938 10.617188 C 0.38860938 11.056188 0.6865 11.407234 1.0625 11.615234 C 1.8155 12.031234 2.7361406 11.985 3.9941406 12 L 6 12 L 6 13 L 10 13 L 10 12 L 12.005859 12 C 13.263859 11.985 14.1845 12.030234 14.9375 11.615234 A 1.88 1.88 0 0 0 15.775391 10.617188 C 15.939391 10.179187 16 9.657 16 9 L 16 3 C 16 2.342 15.940391 1.8208125 15.775391 1.3828125 A 1.88 1.88 0 0 0 14.9375 0.38476562 C 14.1845 -0.031234375 13.263859 0.015 12.005859 0 L 3.9980469 0 L 3.9941406 0 z M 4 1 L 12 1 C 13.259 1.015 14.087125 1.0597188 14.453125 1.2617188 C 14.637125 1.3617188 14.742844 1.474375 14.839844 1.734375 C 14.936844 1.994375 15 2.408 15 3 L 15 9 C 15 9.592 14.936844 10.005625 14.839844 10.265625 C 14.741844 10.525625 14.637125 10.637281 14.453125 10.738281 C 14.087125 10.940281 13.259 10.985 12 11 L 4 11 C 2.741 10.985 1.9099219 10.940281 1.5449219 10.738281 C 1.3619219 10.638281 1.2581563 10.525625 1.1601562 10.265625 C 1.0631563 10.005625 1 9.592 1 9 L 1 3 C 1 2.408 1.0631563 1.994375 1.1601562 1.734375 C 1.2581563 1.474375 1.3619219 1.3627187 1.5449219 1.2617188 C 1.9109219 1.0597188 2.741 1.015 4 1 z M 3.4785156 3.0019531 C 3.3828125 3.0087891 3 3.0644531 3 3.5019531 L 3 8.5019531 C 3 9.0019531 3.5 9.0019531 3.5 9.0019531 L 8.5 9.0019531 C 9 9.0019531 9 8.5019531 9 8.5019531 L 9 3.5019531 C 9 3.0019531 8.563 3.0019531 8.5 3.0019531 L 3.5 3.0019531 C 3.5 3.0019531 3.4921875 3.0009766 3.4785156 3.0019531 z M 11.5 3.0019531 C 11.5 3.0019531 11 3.0019531 11 3.5019531 L 11 4.4863281 C 11 4.4863281 11 4.9863281 11.5 4.9863281 L 12.5 4.9863281 C 12.5 4.9863281 13 4.9863281 13 4.4863281 L 13 3.5039062 C 13 3.5039062 13 3.0039062 12.5 3.0039062 L 11.5 3.0019531 z M 4 4.9980469 L 8 4.9980469 L 8 8 L 4 8 L 4 4.9980469 z M 11.478516 6 C 11.382812 6.0068359 11 6.0625 11 6.5 L 11 7.484375 C 11 7.484375 11 7.984375 11.5 7.984375 L 12.5 7.984375 C 12.5 7.984375 13 7.984375 13 7.484375 L 13 6.5019531 C 13 6.5019531 13 6.0019531 12.5 6.0019531 L 11.5 6 C 11.5 6 11.492188 5.9990234 11.478516 6 z M 3 14 L 0 15 L 0 16 L 16 16 L 16 15 L 13 14 L 3 14 z " />
</svg>
