<?xml version="1.0" encoding="UTF-8" standalone="no"?>
<svg
   viewBox="0 0 24 24"
   version="1.1"
   id="svg8"
   sodipodi:docname="screensaver.svg"
   inkscape:version="1.1 (ce6663b3b7, 2021-05-25)"
   width="24"
   height="24"
   xmlns:inkscape="http://www.inkscape.org/namespaces/inkscape"
   xmlns:sodipodi="http://sodipodi.sourceforge.net/DTD/sodipodi-0.dtd"
   xmlns="http://www.w3.org/2000/svg"
   xmlns:svg="http://www.w3.org/2000/svg"
   xmlns:rdf="http://www.w3.org/1999/02/22-rdf-syntax-ns#"
   xmlns:cc="http://creativecommons.org/ns#"
   xmlns:dc="http://purl.org/dc/elements/1.1/">
  <metadata
     id="metadata14">
    <rdf:RDF>
      <cc:Work
         rdf:about="">
        <dc:format>image/svg+xml</dc:format>
        <dc:type
           rdf:resource="http://purl.org/dc/dcmitype/StillImage" />
      </cc:Work>
    </rdf:RDF>
  </metadata>
  <defs
     id="defs12" />
  <sodipodi:namedview
     pagecolor="#ffffff"
     bordercolor="#666666"
     borderopacity="1"
     objecttolerance="10"
     gridtolerance="10"
     guidetolerance="10"
     inkscape:pageopacity="0"
     inkscape:pageshadow="2"
     inkscape:window-width="1920"
     inkscape:window-height="1016"
     id="namedview10"
     showgrid="true"
     inkscape:snap-center="true"
     inkscape:zoom="27.5"
     inkscape:cx="7.5454545"
     inkscape:cy="14.054545"
     inkscape:window-x="0"
     inkscape:window-y="27"
     inkscape:window-maximized="1"
     inkscape:current-layer="svg8"
     inkscape:pagecheckerboard="0">
    <inkscape:grid
       type="xygrid"
       id="grid848" />
  </sodipodi:namedview>
  <path
     id="path2"
     style="font-variant-ligatures:normal;font-variant-position:normal;font-variant-caps:normal;font-variant-numeric:normal;font-variant-alternates:normal;font-feature-settings:normal;text-indent:0;text-decoration-line:none;text-decoration-style:solid;text-decoration-color:#000000;text-transform:none;text-orientation:mixed;shape-padding:0;isolation:auto;mix-blend-mode:normal;fill:#808080;stroke-width:1"
     d="m 6.9926757,3.25 c -1.5724999,0.01875 -2.7245507,-0.037793 -3.6645507,0.480957 a 2.35,2.35 0 0 0 -1.0473633,1.2475586 c -0.20625,0.54875 -0.2807617,1.2002344 -0.2807617,2.0214844 v 7.5 c 0,0.8225 0.074512,1.473985 0.2807617,2.021485 0.205,0.54875 0.5761133,0.987558 1.0473633,1.247558 0.94,0.519999 2.0920507,0.462207 3.6645507,0.480957 h 2.5073243 v 0.625 c 0,1.875 -0.625,1.875 -1.875,1.875 h -0.625 v 1.25 h 10 v -1.25 h -0.625 c -1.25,0 -1.875,0 -1.875,-1.875 v -0.625 h 2.507324 c 1.5725,-0.0175 2.723301,0.03779 3.664551,-0.480958 a 2.35,2.35 0 0 0 1.047364,-1.247557 c 0.205,-0.547501 0.280761,-1.200235 0.280761,-2.021485 v -7.5 c 0,-0.8225 -0.07451,-1.4727344 -0.280761,-2.0214844 a 2.35,2.35 0 0 0 -1.047364,-1.2475586 c -0.94125,-0.52 -2.092051,-0.462207 -3.664551,-0.480957 h -10.0097654 z m 0.00732,1.25 h 10.0000003 c 1.57375,0.01875 2.608906,0.074649 3.066406,0.3271485 0.23,0.1262499 0.362149,0.2670703 0.483399,0.5908203 0.12125,0.3249999 0.200195,0.8420312 0.200195,1.5820312 v 7.5 c 0,0.74 -0.07895,1.257031 -0.200195,1.582031 -0.1225,0.325 -0.253399,0.46457 -0.483399,0.59082 -0.4575,0.2525 -1.492656,0.308399 -3.066406,0.327149 h -2.5 -5.0000003 -2.5 c -1.5724999,-0.01875 -2.6125976,-0.07465 -3.0688476,-0.327149 -0.22875,-0.125 -0.358457,-0.26582 -0.4809571,-0.59082 -0.12125,-0.325 -0.2001953,-0.842031 -0.2001953,-1.582031 v -7.5 c 0,-0.74 0.078945,-1.2570313 0.2001953,-1.5820312 0.1225,-0.325 0.2522071,-0.4645703 0.4809571,-0.5908203 0.45625,-0.2525 1.4938476,-0.3083985 3.0688476,-0.3271485 z m -0.5175781,1.9824219 0.8886719,1.7675781 -0.8886719,1.767578 1.7675781,-0.8886718 1.7675783,0.8886718 -0.888672,-1.767578 0.888672,-1.7675781 -1.7675783,0.8886718 z m 7.6000974,0.5175781 c 0.465,0.562499 0.744629,1.2828138 0.744629,2.0703125 a 3.2579945,3.2579945 0 0 1 -3.256836,3.2568365 c -0.787498,0 -1.507813,-0.28038 -2.0703123,-0.744629 a 3.7912436,3.7912436 0 0 0 3.6987303,2.91748 3.8009936,3.8009936 0 0 0 3.80127,-3.801269 3.7912436,3.7912436 0 0 0 -2.917481,-3.698731 z" />
</svg>
