<?xml version="1.0" encoding="UTF-8" standalone="no"?>
<svg
   height="16.000061"
   id="svg7384"
   version="1.1"
   width="16"
   sodipodi:docname="wallpaper.svg"
   inkscape:version="1.1 (ce6663b3b7, 2021-05-25)"
   xmlns:inkscape="http://www.inkscape.org/namespaces/inkscape"
   xmlns:sodipodi="http://sodipodi.sourceforge.net/DTD/sodipodi-0.dtd"
   xmlns="http://www.w3.org/2000/svg"
   xmlns:svg="http://www.w3.org/2000/svg"
   xmlns:rdf="http://www.w3.org/1999/02/22-rdf-syntax-ns#"
   xmlns:cc="http://creativecommons.org/ns#"
   xmlns:dc="http://purl.org/dc/elements/1.1/">
  <sodipodi:namedview
     id="namedview24"
     pagecolor="#ffffff"
     bordercolor="#666666"
     borderopacity="1.0"
     inkscape:pageshadow="2"
     inkscape:pageopacity="0.0"
     inkscape:pagecheckerboard="0"
     showgrid="false"
     inkscape:zoom="27.999893"
     inkscape:cx="12.375047"
     inkscape:cy="10.625041"
     inkscape:window-width="1920"
     inkscape:window-height="1016"
     inkscape:window-x="0"
     inkscape:window-y="27"
     inkscape:window-maximized="1"
     inkscape:current-layer="svg7384" />
  <metadata
     id="metadata20854">
    <rdf:RDF>
      <cc:Work
         rdf:about="">
        <dc:format>image/svg+xml</dc:format>
        <dc:type
           rdf:resource="http://purl.org/dc/dcmitype/StillImage" />
      </cc:Work>
    </rdf:RDF>
  </metadata>
  <defs
     id="defs7386">
    <linearGradient
       id="linearGradient5606"
       inkscape:swatch="solid">
      <stop
         id="stop5608"
         offset="0"
         style="stop-color:#000000;stop-opacity:1;" />
    </linearGradient>
    <linearGradient
       id="linearGradient4526"
       inkscape:swatch="solid">
      <stop
         id="stop4528"
         offset="0"
         style="stop-color:#ffffff;stop-opacity:1;" />
    </linearGradient>
    <linearGradient
       id="linearGradient3600-4"
       inkscape:swatch="gradient">
      <stop
         id="stop3602-7"
         offset="0"
         style="stop-color:#f4f4f4;stop-opacity:1" />
      <stop
         id="stop3604-6"
         offset="1"
         style="stop-color:#dbdbdb;stop-opacity:1" />
    </linearGradient>
  </defs>
  <path
     id="path2259"
     style="color:#000000;font-style:normal;font-variant:normal;font-weight:normal;font-stretch:normal;font-size:medium;line-height:normal;font-family:sans-serif;font-variant-ligatures:normal;font-variant-position:normal;font-variant-caps:normal;font-variant-numeric:normal;font-variant-alternates:normal;font-feature-settings:normal;text-indent:0;text-align:start;text-decoration:none;text-decoration-line:none;text-decoration-style:solid;text-decoration-color:#000000;letter-spacing:normal;word-spacing:normal;text-transform:none;writing-mode:lr-tb;direction:ltr;text-orientation:mixed;dominant-baseline:auto;baseline-shift:baseline;text-anchor:start;white-space:normal;shape-padding:0;clip-rule:nonzero;display:inline;overflow:visible;visibility:visible;isolation:auto;mix-blend-mode:normal;color-interpolation:sRGB;color-interpolation-filters:linearRGB;solid-color:#000000;solid-opacity:1;vector-effect:none;fill:#808080;fill-opacity:1;fill-rule:nonzero;stroke:none;stroke-width:1;stroke-linecap:butt;stroke-linejoin:miter;stroke-miterlimit:4;stroke-dasharray:none;stroke-dashoffset:0;stroke-opacity:1;marker:none;color-rendering:auto;image-rendering:auto;shape-rendering:auto;text-rendering:auto;enable-background:accumulate"
     d="M 3.9941406 1 C 2.7359406 1.0145 1.81525 0.96939562 1.0625 1.3847656 C 0.68613 1.5924256 0.38926938 1.9441525 0.22460938 2.3828125 C 0.059939375 2.8214825 1.8503717e-17 3.34239 0 4 L 0 10 C 0 10.65761 0.059899375 11.178528 0.22460938 11.617188 C 0.38927937 12.055848 0.68613 12.407584 1.0625 12.615234 C 1.81525 13.030554 2.7359506 12.98543 3.9941406 13 L 3.9980469 13 L 6 13 L 6 13.5 C 6 15 5.5 15 4.5 15 L 4 15 L 4 16 L 12 16 L 12 15 L 11.5 15 C 10.5 15 10 15 10 13.5 L 10 13 L 12.001953 13 L 12.005859 13 C 13.264049 12.9855 14.18475 13.030604 14.9375 12.615234 C 15.31387 12.407574 15.610721 12.055847 15.775391 11.617188 C 15.939881 11.178517 16 10.65761 16 10 L 16 7.5 L 16 7 L 16 4 C 16 3.34239 15.940101 2.8214825 15.775391 2.3828125 C 15.610731 1.9441525 15.31387 1.5924256 14.9375 1.3847656 C 14.18475 0.96942562 13.264059 1.01452 12.005859 1 L 12.001953 1 L 10 1 L 9.5 1 L 3.9980469 1 L 3.9941406 1 z M 4 2 L 9 2 L 9 5 C 9 5.65761 9.0598994 6.1785175 9.2246094 6.6171875 C 9.3892694 7.0558475 9.68613 7.4075744 10.0625 7.6152344 C 10.81525 8.0305744 11.735941 7.98548 12.994141 8 A 0.50005 0.50005 0 0 0 13 8 L 15 8 L 15 10 C 15 10.59239 14.937404 11.005725 14.839844 11.265625 C 14.742244 11.525535 14.636535 11.637091 14.453125 11.738281 C 14.087175 11.940191 13.25852 11.98529 12 12 L 10 12 L 6 12 L 4.0058594 12 L 4 12 C 2.74147 11.9853 1.912825 11.940201 1.546875 11.738281 C 1.363465 11.637091 1.2577163 11.525535 1.1601562 11.265625 C 1.0625563 11.005725 1 10.59239 1 10 L 1 4 C 1 3.40761 1.0625962 2.994275 1.1601562 2.734375 C 1.2577562 2.474465 1.363465 2.3629088 1.546875 2.2617188 C 1.912825 2.0598088 2.74147 2.01471 4 2 z M 10 2.2070312 L 14.792969 7 L 13.005859 7 L 13 7 C 11.74148 6.9853 10.912825 6.9402013 10.546875 6.7382812 C 10.363465 6.6370812 10.257716 6.525545 10.160156 6.265625 C 10.062556 6.005715 10 5.59239 10 5 L 10 2.2070312 z " />
</svg>
