<?xml version="1.0" encoding="UTF-8" standalone="no"?>
<svg
   height="24"
   id="svg7384"
   version="1.1"
   width="24"
   sodipodi:docname="wallpaper.svg"
   inkscape:version="1.1 (ce6663b3b7, 2021-05-25)"
   xmlns:inkscape="http://www.inkscape.org/namespaces/inkscape"
   xmlns:sodipodi="http://sodipodi.sourceforge.net/DTD/sodipodi-0.dtd"
   xmlns="http://www.w3.org/2000/svg"
   xmlns:svg="http://www.w3.org/2000/svg"
   xmlns:rdf="http://www.w3.org/1999/02/22-rdf-syntax-ns#"
   xmlns:cc="http://creativecommons.org/ns#"
   xmlns:dc="http://purl.org/dc/elements/1.1/">
  <sodipodi:namedview
     id="namedview24"
     pagecolor="#ffffff"
     bordercolor="#666666"
     borderopacity="1.0"
     inkscape:pageshadow="2"
     inkscape:pageopacity="0.0"
     inkscape:pagecheckerboard="0"
     showgrid="true"
     inkscape:zoom="6.9999733"
     inkscape:cx="8.3571748"
     inkscape:cy="3.6428711"
     inkscape:window-width="1920"
     inkscape:window-height="1016"
     inkscape:window-x="0"
     inkscape:window-y="27"
     inkscape:window-maximized="1"
     inkscape:current-layer="svg7384">
    <inkscape:grid
       type="xygrid"
       id="grid829" />
    <inkscape:grid
       type="xygrid"
       id="grid856"
       dotted="true"
       spacingx="0.5"
       spacingy="0.5"
       empspacing="10" />
  </sodipodi:namedview>
  <metadata
     id="metadata20854">
    <rdf:RDF>
      <cc:Work
         rdf:about="">
        <dc:format>image/svg+xml</dc:format>
        <dc:type
           rdf:resource="http://purl.org/dc/dcmitype/StillImage" />
      </cc:Work>
    </rdf:RDF>
  </metadata>
  <defs
     id="defs7386">
    <linearGradient
       id="linearGradient5606"
       inkscape:swatch="solid">
      <stop
         id="stop5608"
         offset="0"
         style="stop-color:#000000;stop-opacity:1;" />
    </linearGradient>
    <linearGradient
       id="linearGradient4526"
       inkscape:swatch="solid">
      <stop
         id="stop4528"
         offset="0"
         style="stop-color:#ffffff;stop-opacity:1;" />
    </linearGradient>
    <linearGradient
       id="linearGradient3600-4"
       inkscape:swatch="gradient">
      <stop
         id="stop3602-7"
         offset="0"
         style="stop-color:#f4f4f4;stop-opacity:1" />
      <stop
         id="stop3604-6"
         offset="1"
         style="stop-color:#dbdbdb;stop-opacity:1" />
    </linearGradient>
  </defs>
  <path
     id="path3037"
     style="color:#000000;fill:#808080;fill-opacity:1;-inkscape-stroke:none"
     d="M 5.4550781 3.0019531 C 4.4864972 3.0109331 3.7372591 3.0752221 3.1171875 3.4472656 C 2.7038064 3.6952943 2.3972496 4.1031731 2.2285156 4.609375 C 2.0597817 5.1155769 2 5.7241761 2 6.5019531 L 2 14.501953 C 2 15.27973 2.059782 15.888329 2.2285156 16.394531 C 2.3972496 16.900733 2.7038064 17.308612 3.1171875 17.556641 C 3.7372591 17.928684 4.4864972 17.992972 5.4550781 18.001953 C 5.7802131 18.005253 6.121319 18.003906 6.5 18.003906 L 9 18.003906 L 9 19.128906 C 9 21.003906 8.375 21.003906 7.125 21.003906 L 6 21.003906 L 6 22.003906 L 18 22.003906 L 18 21.003906 L 16.875 21.003906 C 15.625001 21.003906 15 21.003906 15 19.128906 L 15 18.003906 L 17.5 18.003906 C 17.878681 18.003906 18.219787 18.005253 18.544922 18.001953 C 19.513503 17.992953 20.262741 17.928683 20.882812 17.556641 C 21.296194 17.308612 21.60275 16.900733 21.771484 16.394531 C 21.940218 15.888329 22 15.27973 22 14.501953 L 22 6.5019531 C 22 5.7241761 21.94022 5.1155769 21.771484 4.609375 C 21.60275 4.1031731 21.296194 3.6952943 20.882812 3.4472656 C 20.056051 2.9512083 18.999998 3.0019531 17.5 3.0019531 L 6.5 3.0019531 C 6.125 3.0019531 5.7779384 2.9989631 5.4550781 3.0019531 z M 6.5 4.0019531 L 13 4.0019531 L 13 8.5 C 13 9.5833323 13.278634 10.485665 13.896484 11.103516 C 14.514335 11.721366 15.416668 12 16.5 12 L 21 12 L 21 14.501953 C 21 15.224175 20.93478 15.740578 20.822266 16.078125 C 20.70975 16.415672 20.578806 16.570296 20.367188 16.697266 C 19.943952 16.951208 18.999999 17.001953 17.5 17.001953 L 6.5 17.001953 C 5.0000015 17.001953 4.056049 16.951204 3.6328125 16.697266 C 3.4211942 16.570296 3.2902501 16.415672 3.1777344 16.078125 C 3.0652186 15.740578 3 15.224175 3 14.501953 L 3 6.5019531 C 3 5.7797316 3.065219 5.2633285 3.1777344 4.9257812 C 3.2902501 4.588234 3.4211942 4.4336116 3.6328125 4.3066406 C 4.056049 4.0526987 5.0000015 4.0019531 6.5 4.0019531 z M 14 4.0019531 L 14.001953 4.0019531 L 21 11 L 16.5 11 C 15.583334 11 14.985664 10.778633 14.603516 10.396484 C 14.221367 10.014336 14 9.4166658 14 8.5 L 14 4.0019531 z " />
</svg>
