<?xml version="1.0" encoding="UTF-8" standalone="no"?>
<svg
   height="24"
   id="svg7384"
   version="1.1"
   width="24"
   sodipodi:docname="wallpaper.svg"
   inkscape:version="1.1 (ce6663b3b7, 2021-05-25)"
   xmlns:inkscape="http://www.inkscape.org/namespaces/inkscape"
   xmlns:sodipodi="http://sodipodi.sourceforge.net/DTD/sodipodi-0.dtd"
   xmlns="http://www.w3.org/2000/svg"
   xmlns:svg="http://www.w3.org/2000/svg"
   xmlns:rdf="http://www.w3.org/1999/02/22-rdf-syntax-ns#"
   xmlns:cc="http://creativecommons.org/ns#"
   xmlns:dc="http://purl.org/dc/elements/1.1/">
  <sodipodi:namedview
     id="namedview24"
     pagecolor="#ffffff"
     bordercolor="#666666"
     borderopacity="1.0"
     inkscape:pageshadow="2"
     inkscape:pageopacity="0.0"
     inkscape:pagecheckerboard="0"
     showgrid="true"
     inkscape:zoom="27.999893"
     inkscape:cx="12.375047"
     inkscape:cy="10.625041"
     inkscape:window-width="1920"
     inkscape:window-height="1016"
     inkscape:window-x="0"
     inkscape:window-y="27"
     inkscape:window-maximized="1"
     inkscape:current-layer="svg7384">
    <inkscape:grid
       type="xygrid"
       id="grid829" />
  </sodipodi:namedview>
  <metadata
     id="metadata20854">
    <rdf:RDF>
      <cc:Work
         rdf:about="">
        <dc:format>image/svg+xml</dc:format>
        <dc:type
           rdf:resource="http://purl.org/dc/dcmitype/StillImage" />
      </cc:Work>
    </rdf:RDF>
  </metadata>
  <defs
     id="defs7386">
    <linearGradient
       id="linearGradient5606"
       inkscape:swatch="solid">
      <stop
         id="stop5608"
         offset="0"
         style="stop-color:#000000;stop-opacity:1;" />
    </linearGradient>
    <linearGradient
       id="linearGradient4526"
       inkscape:swatch="solid">
      <stop
         id="stop4528"
         offset="0"
         style="stop-color:#ffffff;stop-opacity:1;" />
    </linearGradient>
    <linearGradient
       id="linearGradient3600-4"
       inkscape:swatch="gradient">
      <stop
         id="stop3602-7"
         offset="0"
         style="stop-color:#f4f4f4;stop-opacity:1" />
      <stop
         id="stop3604-6"
         offset="1"
         style="stop-color:#dbdbdb;stop-opacity:1" />
    </linearGradient>
  </defs>
  <path
     id="path2259"
     style="color:#000000;font-style:normal;font-variant:normal;font-weight:normal;font-stretch:normal;font-size:medium;line-height:normal;font-family:sans-serif;font-variant-ligatures:normal;font-variant-position:normal;font-variant-caps:normal;font-variant-numeric:normal;font-variant-alternates:normal;font-feature-settings:normal;text-indent:0;text-align:start;text-decoration:none;text-decoration-line:none;text-decoration-style:solid;text-decoration-color:#000000;letter-spacing:normal;word-spacing:normal;text-transform:none;writing-mode:lr-tb;direction:ltr;text-orientation:mixed;dominant-baseline:auto;baseline-shift:baseline;text-anchor:start;white-space:normal;shape-padding:0;clip-rule:nonzero;display:inline;overflow:visible;visibility:visible;isolation:auto;mix-blend-mode:normal;color-interpolation:sRGB;color-interpolation-filters:linearRGB;solid-color:#000000;solid-opacity:1;vector-effect:none;fill:#808080;fill-opacity:1;fill-rule:nonzero;stroke:none;stroke-width:1;stroke-linecap:butt;stroke-linejoin:miter;stroke-miterlimit:4;stroke-dasharray:none;stroke-dashoffset:0;stroke-opacity:1;marker:none;color-rendering:auto;image-rendering:auto;shape-rendering:auto;text-rendering:auto;enable-background:accumulate"
     d="m 6.9926625,3.2499975 c -1.5727502,0.018125 -2.7236136,-0.038256 -3.6645513,0.4809571 -0.4704626,0.2595751 -0.8415384,0.6992338 -1.0473634,1.2475588 -0.2058376,0.5483376 -0.2807618,1.1994721 -0.2807618,2.0214847 v 7.5000019 c 0,0.822012 0.074874,1.47316 0.2807618,2.021485 0.2058375,0.548325 0.5769008,0.987995 1.0473634,1.247558 0.9409377,0.51915 2.0918136,0.462744 3.6645513,0.480956 h 0.00489 2.5024418 v 0.625001 c 0,1.875 -0.6250001,1.875 -1.8750003,1.875 h -0.6250001 v 1.25 h 10.0000011 v -1.25 h -0.625 c -1.25,0 -1.875,0 -1.875,-1.875 v -0.625001 h 2.502442 0.0049 c 1.572737,-0.01812 2.723614,0.03825 3.664551,-0.480957 0.470463,-0.259575 0.841527,-0.699234 1.047364,-1.247558 0.205613,-0.548339 0.280762,-1.199472 0.280762,-2.021485 v -3.125 -0.625 -3.7500009 c 0,-0.8220126 -0.07488,-1.4731471 -0.280762,-2.0214847 -0.205825,-0.548325 -0.576901,-0.9879837 -1.047364,-1.2475588 -0.940937,-0.519175 -2.091801,-0.4628071 -3.664551,-0.4809571 h -0.0049 -2.502442 -0.625 -6.8774425 z m 0.00733,1.2500002 h 6.2500015 v 3.7500006 c 0,0.8220127 0.07487,1.4731472 0.280761,2.0214847 0.205825,0.548325 0.576901,0.987984 1.047364,1.247559 0.940938,0.519175 2.091802,0.462807 3.664552,0.480957 a 0.6250626,0.6250626 0 0 0 0.0074,0 h 2.500001 v 2.5 c 0,0.740487 -0.07825,1.257156 -0.200196,1.582031 -0.122,0.324888 -0.254136,0.464333 -0.483398,0.59082 -0.457438,0.252388 -1.493257,0.308763 -3.066407,0.327149 h -2.5 -5.0000019 -2.4926761 -0.00732 c -1.5731628,-0.01838 -2.6089692,-0.07475 -3.0664068,-0.327149 -0.2292625,-0.126486 -0.3614484,-0.265931 -0.4833986,-0.59082 -0.122,-0.324875 -0.2001952,-0.841544 -0.2001952,-1.582031 v -7.5000009 c 0,-0.7404876 0.078245,-1.2571564 0.2001952,-1.5820315 0.1220001,-0.3248875 0.2541361,-0.4643328 0.4833986,-0.5908203 0.4574376,-0.2523875 1.493244,-0.3087611 3.0664068,-0.3271486 z m 7.5000015,0.2587891 5.991212,5.9912122 h -2.233887 -0.0074 c -1.573151,-0.01838 -2.60897,-0.07475 -3.066407,-0.327149 -0.229263,-0.1265 -0.361449,-0.26592 -0.483399,-0.5908202 -0.122,-0.3248875 -0.200196,-0.8415438 -0.200196,-1.5820315 z" />
</svg>
