<svg height="24" width="24" xmlns="http://www.w3.org/2000/svg"><path style="color:#000;fill:gray;-inkscape-stroke:none" d="m14.604 2.41-.198.25s-.784 1.003-4.252 5.692l-.295.398h2.391V11H12v5h1.648a544.288 544.288 0 0 1-3.25 4.35A511.064 511.064 0 0 1 7.146 16H9v-6H8v5H5.156l.59.797c3.468 4.689 4.258 5.697 4.258 5.697l.394.502.393-.502s.788-1.008 4.256-5.697l.59-.797H13v-4h-.25V8.25h-1.898c2.738-3.696 3.682-4.933 3.75-5.02.066.086 1.012 1.323 3.752 5.02H16.25V14h.5V8.75h2.598l-.295-.398c-3.468-4.689-4.254-5.692-4.254-5.692l-.195-.25z"/></svg>