<svg height="24" width="24" xmlns="http://www.w3.org/2000/svg"><path style="fill:gray;stroke-width:.5;stroke-linecap:round;stroke-linejoin:round;fill-opacity:1" d="M12 4A15 15 0 0 0 1.922 7.922l.703.703A14 14 0 0 1 12 5a14 14 0 0 1 9.385 3.615l.71-.71A15 15 0 0 0 12 4zm0 3a12 12 0 0 0-7.945 3.055l.697.697A11 11 0 0 1 12 8a11 11 0 0 1 7.26 2.74l.709-.709A12 12 0 0 0 12 7zm0 3a9 9 0 0 0-5.84 2.16l.733.733A8 8 0 0 1 12 11a8 8 0 0 1 5.133 1.867l.709-.709A9 9 0 0 0 12 10zm0 3a6 6 0 0 0-3.71 1.29l.722.722A5 5 0 0 1 12 14a5 5 0 0 1 2.998 1.002l.711-.711A6 6 0 0 0 12 13z"/><circle style="fill:gray;stroke-width:.5;stroke-linecap:round;stroke-linejoin:round;fill-opacity:1" cx="12" cy="19" r="2"/></svg>