<svg height="24" width="24" xmlns="http://www.w3.org/2000/svg"><path style="color:#000;fill:gray;-inkscape-stroke:none;fill-opacity:1" d="M7.5 2c-1.5 0-2.556-.05-3.383.445-.413.248-.72.656-.888 1.162C3.059 4.114 3 4.722 3 5.5v13c0 .778.059 1.391.25 1.908.191.517.553.927 1.027 1.164.95.475 2.223.428 4.223.428h7c1.5 0 2.556.05 3.383-.445.413-.248.72-.656.888-1.162.17-.507.229-1.115.229-1.893V7.293L14.707 2zm0 1H14v5h5v10.5c0 .722-.065 1.239-.178 1.576-.112.338-.243.492-.455.62C17.944 20.948 17 21 15.5 21h-7c-2 0-3.226-.047-3.777-.322-.276-.138-.414-.29-.536-.617C4.067 19.734 4 19.222 4 18.5v-13c0-.722.065-1.239.178-1.576.112-.338.243-.492.455-.62C5.056 3.052 6 3 7.5 3z"/><path style="fill:gray;stroke:none;stroke-linejoin:round" d="M10 8h3v1h-3zM6 8h3v1H6zm4 2h3v1h-3zm-4 0h3v1H6zm8 0h3v1h-3zm-4 2h3v1h-3zm-4 0h3v1H6zm8 0h3v1h-3zm-4 2h3v1h-3zm-4 0h3v1H6zm8 0h3v1h-3zm-4 2h3v1h-3zm-4 0h3v1H6zm8 0h3v1h-3zm-4 2h3v1h-3zm-4 0h3v1H6zm8 0h3v1h-3z"/></svg>