<?xml version="1.0" encoding="UTF-8" standalone="no"?>
<svg
   height="24"
   width="24"
   version="1.1"
   id="svg10"
   sodipodi:docname="high.svg"
   inkscape:version="1.1 (ce6663b3b7, 2021-05-25)"
   xmlns:inkscape="http://www.inkscape.org/namespaces/inkscape"
   xmlns:sodipodi="http://sodipodi.sourceforge.net/DTD/sodipodi-0.dtd"
   xmlns="http://www.w3.org/2000/svg"
   xmlns:svg="http://www.w3.org/2000/svg">
  <defs
     id="defs14" />
  <sodipodi:namedview
     id="namedview12"
     pagecolor="#ffffff"
     bordercolor="#666666"
     borderopacity="1.0"
     inkscape:pageshadow="2"
     inkscape:pageopacity="0.0"
     inkscape:pagecheckerboard="0"
     showgrid="true"
     width="24px"
     inkscape:zoom="9.8994949"
     inkscape:cx="-7.3236059"
     inkscape:cy="15.202796"
     inkscape:window-width="1920"
     inkscape:window-height="1016"
     inkscape:window-x="0"
     inkscape:window-y="27"
     inkscape:window-maximized="1"
     inkscape:current-layer="svg10">
    <inkscape:grid
       type="xygrid"
       id="grid831" />
  </sodipodi:namedview>
  <g
     color="#000000"
     fill="#808080"
     id="g8"
     transform="matrix(1.25,0,0,1.25,1.96875,2)"
     style="stroke-width:0.8">
    <path
       d="m 15.343,4.926 0.707,0.707 -0.354,0.354 a 2.999,2.999 0 0 0 0,4.242 l 0.354,0.353 -0.707,0.707 -0.354,-0.353 a 4,4 0 0 1 0,-5.656 z"
       style="line-height:normal;font-variant-ligatures:normal;font-variant-position:normal;font-variant-caps:normal;font-variant-numeric:normal;font-variant-alternates:normal;font-feature-settings:normal;text-indent:0;text-align:start;text-decoration-line:none;text-decoration-style:solid;text-decoration-color:#000000;text-transform:none;text-orientation:mixed;shape-padding:0;isolation:auto;mix-blend-mode:normal;stroke-width:0.64"
       font-weight="400"
       font-family="sans-serif"
       white-space="normal"
       overflow="visible"
       id="path2" />
    <path
       d="m 13.221,2.805 0.707,0.707 -0.353,0.353 a 5.999,5.999 0 0 0 0,8.485 l 0.353,0.353 -0.707,0.707 -0.353,-0.353 a 7,7 0 0 1 0,-9.899 z"
       style="line-height:normal;font-variant-ligatures:normal;font-variant-position:normal;font-variant-caps:normal;font-variant-numeric:normal;font-variant-alternates:normal;font-feature-settings:normal;text-indent:0;text-align:start;text-decoration-line:none;text-decoration-style:solid;text-decoration-color:#000000;text-transform:none;text-orientation:mixed;shape-padding:0;isolation:auto;mix-blend-mode:normal;stroke-width:0.64"
       font-weight="400"
       font-family="sans-serif"
       white-space="normal"
       overflow="visible"
       id="path4" />
    <path
       d="m 4.496,0 c -1.409,0 -2.496,0.842 -2.496,2.537 v 5.924 c 0,1.695 1.087,2.539 2.496,2.539 1.41,0 2.494,-0.846 2.494,-2.54 v -5.922 c 0,-1.693 -1.085,-2.538 -2.494,-2.538 z m 0,0.998 c 0.505,0 0.856,0.142 1.088,0.361 0.232,0.22 0.408,0.545 0.408,1.178 v 5.924 c 0,0.633 -0.176,0.958 -0.408,1.178 -0.232,0.219 -0.583,0.363 -1.088,0.363 -0.505,0 -0.858,-0.143 -1.09,-0.361 -0.231,-0.22 -0.408,-0.546 -0.408,-1.18 v -5.924 c 0,-0.634 0.177,-0.959 0.408,-1.178 0.232,-0.218 0.585,-0.36 1.09,-0.36 z m -4.496,6.002 v 1.5 c 0,2.321 1.748,4.199 4,4.45 v 2.073 a 7.576,7.576 0 0 0 -2,0.436 v 0.541 h 5 v -0.541 a 7.856,7.856 0 0 0 -2,-0.434 v -2.075 c 2.252,-0.25 4,-2.128 4,-4.449 v -1.501 h -1 v 1.5 a 3.482,3.482 0 0 1 -3,3.451 v -0.451 h -1 v 0.451 a 3.482,3.482 0 0 1 -3,-3.451 v -1.5 z"
       style="stroke-width:0.64;marker:none"
       overflow="visible"
       id="path6" />
  </g>
</svg>
