<?xml version="1.0" encoding="UTF-8" standalone="no"?>
<svg
   height="24"
   width="24"
   version="1.1"
   id="svg10"
   sodipodi:docname="low.svg"
   inkscape:version="1.1 (ce6663b3b7, 2021-05-25)"
   xmlns:inkscape="http://www.inkscape.org/namespaces/inkscape"
   xmlns:sodipodi="http://sodipodi.sourceforge.net/DTD/sodipodi-0.dtd"
   xmlns="http://www.w3.org/2000/svg"
   xmlns:svg="http://www.w3.org/2000/svg">
  <defs
     id="defs14" />
  <sodipodi:namedview
     id="namedview12"
     pagecolor="#ffffff"
     bordercolor="#666666"
     borderopacity="1.0"
     inkscape:pageshadow="2"
     inkscape:pageopacity="0.0"
     inkscape:pagecheckerboard="0"
     showgrid="true"
     inkscape:zoom="56"
     inkscape:cx="16.473214"
     inkscape:cy="12.544643"
     inkscape:window-width="1920"
     inkscape:window-height="1016"
     inkscape:window-x="0"
     inkscape:window-y="27"
     inkscape:window-maximized="1"
     inkscape:current-layer="svg10">
    <inkscape:grid
       type="xygrid"
       id="grid912" />
    <inkscape:grid
       type="xygrid"
       id="grid914"
       dotted="true"
       spacingx="0.5"
       spacingy="0.5"
       empspacing="10" />
  </sodipodi:namedview>
  <path
     id="path2"
     style="color:#000000;line-height:normal;font-variant-ligatures:normal;font-variant-position:normal;font-variant-caps:normal;font-variant-numeric:normal;font-variant-alternates:normal;font-feature-settings:normal;text-indent:0;text-align:start;text-decoration-line:none;text-decoration-style:solid;text-decoration-color:#000000;text-transform:none;text-orientation:mixed;shape-padding:0;isolation:auto;mix-blend-mode:normal;fill:#808080;stroke-width:0.666666"
     d="M 7.5878906 2 C 5.8266406 2 4.46875 3.053125 4.46875 5.171875 L 4.46875 12.576172 C 4.46875 14.694922 5.8266406 15.75 7.5878906 15.75 C 9.350391 15.75 10.707031 14.691719 10.707031 12.574219 L 10.707031 5.171875 C 10.707031 3.055625 9.349141 2 7.5878906 2 z M 7.5878906 3.2480469 C 8.2191406 3.2480469 8.6592187 3.4254687 8.9492188 3.6992188 C 9.2392187 3.9742187 9.4589844 4.380625 9.4589844 5.171875 L 9.4589844 12.576172 C 9.4589844 13.367422 9.2392187 13.773828 8.9492188 14.048828 C 8.6592188 14.322578 8.2191406 14.501953 7.5878906 14.501953 C 6.9566406 14.501953 6.5165625 14.323281 6.2265625 14.050781 C 5.9378125 13.775781 5.7167969 13.368672 5.7167969 12.576172 L 5.7167969 5.171875 C 5.7167969 4.379375 5.9378125 3.9729688 6.2265625 3.6992188 C 6.5165625 3.4267188 6.9566406 3.2480469 7.5878906 3.2480469 z M 18.822266 5.8222656 C 16.792805 7.8517266 15.75 9.9191938 15.75 12.0625 C 15.75 14.205806 16.788066 16.388527 18.8125 18.666016 L 19.1875 18.333984 C 17.211938 16.111478 16.25 14.04419 16.25 12.0625 C 16.25 10.08081 17.207199 8.1482694 19.177734 6.1777344 L 18.822266 5.8222656 z M 21.322266 8.3222656 C 19.233879 10.410652 19.233879 13.589348 21.322266 15.677734 L 21.677734 15.322266 C 19.766125 13.410656 19.766125 10.589344 21.677734 8.6777344 L 21.322266 8.3222656 z M 1.96875 10.75 L 1.96875 12.625 C 1.96875 15.52625 4.15375 17.87375 6.96875 18.1875 L 6.96875 20.779297 C 6.1146022 20.847007 5.2735943 21.030317 4.46875 21.324219 L 4.46875 22 L 10.71875 22 L 10.71875 21.324219 C 9.9126582 21.03499 9.0721945 20.852452 8.21875 20.78125 L 8.21875 18.1875 C 11.03375 17.875 13.21875 15.528203 13.21875 12.626953 L 13.21875 10.75 L 11.96875 10.75 L 11.96875 12.625 C 11.97065 14.79749 10.370325 16.638724 8.21875 16.939453 L 8.21875 16.375 L 6.96875 16.375 L 6.96875 16.939453 C 4.8171745 16.638724 3.2168257 14.79749 3.21875 12.625 L 3.21875 10.75 L 1.96875 10.75 z " />
</svg>
