<?xml version="1.0" encoding="UTF-8" standalone="no"?>
<svg
   height="24"
   width="24"
   version="1.1"
   id="svg10"
   sodipodi:docname="medium.svg"
   inkscape:version="1.1 (ce6663b3b7, 2021-05-25)"
   xmlns:inkscape="http://www.inkscape.org/namespaces/inkscape"
   xmlns:sodipodi="http://sodipodi.sourceforge.net/DTD/sodipodi-0.dtd"
   xmlns="http://www.w3.org/2000/svg"
   xmlns:svg="http://www.w3.org/2000/svg">
  <defs
     id="defs14" />
  <sodipodi:namedview
     id="namedview12"
     pagecolor="#ffffff"
     bordercolor="#666666"
     borderopacity="1.0"
     inkscape:pageshadow="2"
     inkscape:pageopacity="0.0"
     inkscape:pagecheckerboard="0"
     showgrid="true"
     width="24px"
     inkscape:zoom="39.59798"
     inkscape:cx="13.498163"
     inkscape:cy="14.053747"
     inkscape:window-width="1920"
     inkscape:window-height="1016"
     inkscape:window-x="0"
     inkscape:window-y="27"
     inkscape:window-maximized="1"
     inkscape:current-layer="svg10">
    <inkscape:grid
       type="xygrid"
       id="grid824"
       dotted="false" />
    <inkscape:grid
       type="xygrid"
       id="grid826"
       dotted="true"
       spacingx="0.5"
       spacingy="0.5"
       empspacing="0" />
  </sodipodi:namedview>
  <path
     id="path2"
     style="color:#000000;line-height:normal;font-variant-ligatures:normal;font-variant-position:normal;font-variant-caps:normal;font-variant-numeric:normal;font-variant-alternates:normal;font-feature-settings:normal;text-indent:0;text-align:start;text-decoration-line:none;text-decoration-style:solid;text-decoration-color:#000000;text-transform:none;text-orientation:mixed;shape-padding:0;isolation:auto;mix-blend-mode:normal;fill:#808080;stroke-width:0.666666"
     d="M 7.5878906 2 C 5.8266406 2 4.46875 3.053125 4.46875 5.171875 L 4.46875 12.576172 C 4.46875 14.694922 5.8266406 15.75 7.5878906 15.75 C 9.3503906 15.75 10.707031 14.691719 10.707031 12.574219 L 10.707031 5.171875 C 10.707031 3.055625 9.3491406 2 7.5878906 2 z M 7.5878906 3.2480469 C 8.2191406 3.2480469 8.6592187 3.4254688 8.9492188 3.6992188 C 9.2392187 3.9742187 9.4589844 4.380625 9.4589844 5.171875 L 9.4589844 12.576172 C 9.4589844 13.367422 9.2392187 13.773828 8.9492188 14.048828 C 8.6592188 14.322578 8.2191406 14.501953 7.5878906 14.501953 C 6.9566406 14.501953 6.5165625 14.323281 6.2265625 14.050781 C 5.9378125 13.775781 5.7167969 13.368672 5.7167969 12.576172 L 5.7167969 5.171875 C 5.7167969 4.379375 5.9378125 3.9729688 6.2265625 3.6992188 C 6.5165625 3.4267188 6.9566406 3.2480469 7.5878906 3.2480469 z M 18.822266 5.8222656 C 16.792805 7.8517264 15.75 9.9191941 15.75 12.0625 C 15.75 14.205806 16.788066 16.388527 18.8125 18.666016 L 19.1875 18.333984 C 17.211938 16.111478 16.25 14.04419 16.25 12.0625 C 16.25 10.08081 17.207199 8.1482696 19.177734 6.1777344 L 18.822266 5.8222656 z M 21.148438 8.1582031 L 20.705078 8.5996094 A 5 5 0 0 0 20.705078 15.669922 L 21.148438 16.111328 L 22.03125 15.226562 L 21.587891 14.787109 A 3.74875 3.74875 0 0 1 21.587891 9.484375 L 22.03125 9.0410156 L 21.148438 8.1582031 z M 1.96875 10.75 L 1.96875 12.625 C 1.96875 15.52625 4.15375 17.87375 6.96875 18.1875 L 6.96875 20.779297 A 9.47 9.47 0 0 0 4.46875 21.324219 L 4.46875 22 L 10.71875 22 L 10.71875 21.324219 A 9.82 9.82 0 0 0 8.21875 20.78125 L 8.21875 18.1875 C 11.03375 17.875 13.21875 15.528203 13.21875 12.626953 L 13.21875 10.75 L 11.96875 10.75 L 11.96875 12.625 A 4.3525 4.3525 0 0 1 8.21875 16.939453 L 8.21875 16.375 L 6.96875 16.375 L 6.96875 16.939453 A 4.3525 4.3525 0 0 1 3.21875 12.625 L 3.21875 10.75 L 1.96875 10.75 z " />
</svg>
