<?xml version="1.0" encoding="UTF-8" standalone="no"?>
<svg
   height="24"
   width="24"
   version="1.1"
   id="svg4"
   sodipodi:docname="muted-filled.svg"
   inkscape:version="1.1 (ce6663b3b7, 2021-05-25)"
   xmlns:inkscape="http://www.inkscape.org/namespaces/inkscape"
   xmlns:sodipodi="http://sodipodi.sourceforge.net/DTD/sodipodi-0.dtd"
   xmlns="http://www.w3.org/2000/svg"
   xmlns:svg="http://www.w3.org/2000/svg">
  <defs
     id="defs8" />
  <sodipodi:namedview
     id="namedview6"
     pagecolor="#ffffff"
     bordercolor="#666666"
     borderopacity="1.0"
     inkscape:pageshadow="2"
     inkscape:pageopacity="0.0"
     inkscape:pagecheckerboard="0"
     showgrid="false"
     inkscape:zoom="56"
     inkscape:cx="9.4732143"
     inkscape:cy="9.3125"
     inkscape:window-width="1920"
     inkscape:window-height="1016"
     inkscape:window-x="0"
     inkscape:window-y="27"
     inkscape:window-maximized="1"
     inkscape:current-layer="svg4" />
  <path
     d="m 11.37,2 c -1.76125,0 -3.12,1.0525 -3.12,3.17125 v 7.405 c 0,0.34 0.04625,0.6425 0.1125,0.9275 l 6.125,-6.125 v -2.2075 c 0,-2.115 -1.35625,-3.17125 -3.1175,-3.17125 z m 8.445,1.565 -16.25,16.25 0.62,0.62 3.56,-3.56 c 0.8484323,0.727275 1.8948915,1.184339 3.005,1.3125 v 2.59125 c -0.8541514,0.06773 -1.6951595,0.251072 -2.5,0.545 v 0.67625 h 6.25 v -0.67625 c -0.806113,-0.289069 -1.646577,-0.471449 -2.5,-0.5425 v -2.59375 c 2.815,-0.3125 5,-2.66 5,-5.56125 v -1.87625 h -1.25 v 1.875 c 0.0016,2.172223 -1.598689,4.013058 -3.75,4.31375 v -0.56375 h -1.25 v 0.56375 c -0.7828554,-0.112486 -1.5204046,-0.435677 -2.13375,-0.935 l 0.8275,-0.8275 c 0.525,0.3775 1.185,0.57375 1.92625,0.57375 1.7625,0 3.1175,-1.0575 3.1175,-3.175 v -2.44125 l 5.9475,-5.9475 z m -14.065,7.185 v 1.875 c 0,1.0075 0.2775,1.94 0.74,2.75125 l 0.9275,-0.9275 c -0.2709475,-0.57004 -0.4134677,-1.192606 -0.4175,-1.82375 v -1.875 z"
     style="opacity:1;stroke-width:1;marker:none"
     color="#000000"
     overflow="visible"
     opacity=".5"
     fill="#808080"
     id="path2"
     sodipodi:nodetypes="sssccssccccccccccccscccccccccssccccsccccc" />
</svg>
