<?xml version="1.0" encoding="UTF-8" standalone="no"?>
<svg
   height="24"
   width="24"
   version="1.1"
   id="svg10"
   sodipodi:docname="high-filled.svg"
   inkscape:version="1.1 (ce6663b3b7, 2021-05-25)"
   xmlns:inkscape="http://www.inkscape.org/namespaces/inkscape"
   xmlns:sodipodi="http://sodipodi.sourceforge.net/DTD/sodipodi-0.dtd"
   xmlns="http://www.w3.org/2000/svg"
   xmlns:svg="http://www.w3.org/2000/svg">
  <defs
     id="defs14" />
  <sodipodi:namedview
     id="namedview12"
     pagecolor="#ffffff"
     bordercolor="#666666"
     borderopacity="1.0"
     inkscape:pageshadow="2"
     inkscape:pageopacity="0.0"
     inkscape:pagecheckerboard="0"
     showgrid="false"
     inkscape:snap-page="true"
     inkscape:zoom="28"
     inkscape:cx="21.732143"
     inkscape:cy="12.696429"
     inkscape:window-width="1920"
     inkscape:window-height="1016"
     inkscape:window-x="0"
     inkscape:window-y="27"
     inkscape:window-maximized="1"
     inkscape:current-layer="svg10" />
  <path
     style="color:#000000;fill:#808080;-inkscape-stroke:none"
     d="m 11.992188,3.2929688 -4.7070318,4.7070312 h -3.0722656 l -0.1464844,0.2382813 c -1.4056249,2.2899907 -1.4156795,5.2106197 -0.00195,7.5234377 l 0.1464844,0.238281 h 3.0742187 l 4.7070317,4.707031 z"
     id="path857"
     sodipodi:nodetypes="ccccccccc" />
  <path
     style="color:#000000;fill:#808080;stroke-linecap:square;-inkscape-stroke:none"
     d="m 14.492188,7.7929687 -0.707032,0.7070313 0.353516,0.3535156 c 1.823221,1.8232214 1.823221,4.4697474 0,6.2929684 l -0.353516,0.353516 0.707032,0.707031 0.353515,-0.353515 c 2.176775,-2.176775 2.176775,-5.530257 0,-7.7070316 z"
     id="path1025" />
  <path
     style="color:#000000;fill:#808080;-inkscape-stroke:none"
     d="m 17.845703,5.1464844 -0.707031,0.7070312 c 1.926341,1.9263411 2.853516,4.0446347 2.853515,6.1464844 0,2.10185 -0.927174,4.220143 -2.853515,6.146484 l 0.707031,0.707032 c 2.073655,-2.073655 3.146484,-4.45537 3.146484,-6.853516 0,-2.3981457 -1.072829,-4.7798607 -3.146484,-6.8535156 z"
     id="path1481" />
</svg>
