<?xml version="1.0" encoding="UTF-8" standalone="no"?>
<svg
   height="24"
   width="24"
   version="1.1"
   id="svg839"
   sodipodi:docname="medium.svg"
   inkscape:version="1.1 (ce6663b3b7, 2021-05-25)"
   xmlns:inkscape="http://www.inkscape.org/namespaces/inkscape"
   xmlns:sodipodi="http://sodipodi.sourceforge.net/DTD/sodipodi-0.dtd"
   xmlns="http://www.w3.org/2000/svg"
   xmlns:svg="http://www.w3.org/2000/svg">
  <defs
     id="defs843" />
  <sodipodi:namedview
     id="namedview841"
     pagecolor="#ffffff"
     bordercolor="#666666"
     borderopacity="1.0"
     inkscape:pageshadow="2"
     inkscape:pageopacity="0.0"
     inkscape:pagecheckerboard="0"
     showgrid="true"
     inkscape:snap-grids="false"
     inkscape:zoom="7"
     inkscape:cx="-8.7857143"
     inkscape:cy="10.571429"
     inkscape:window-width="1920"
     inkscape:window-height="1043"
     inkscape:window-x="1920"
     inkscape:window-y="0"
     inkscape:window-maximized="1"
     inkscape:current-layer="svg839">
    <inkscape:grid
       type="xygrid"
       id="grid902"
       dotted="false" />
    <inkscape:grid
       type="xygrid"
       id="grid1121"
       dotted="true"
       spacingx="0.5"
       spacingy="0.5"
       empspacing="10" />
  </sodipodi:namedview>
  <path
     d="m 12,3.66625 -4.375,4.58375 h -3.2875 c 0,0 -1.0875,1.11625 -1.0875,3.75125 0,2.63625 1.0875,3.74875 1.0875,3.74875 h 3.2875 l 4.375,4.58375 z"
     id="path831"
     style="fill:#808080;stroke-width:1" />
  <path
     d="m 15.155,8.1575 -0.88375,0.88375 0.4425,0.4425 a 3.74875,3.74875 0 0 1 0,5.3025 l -0.4425,0.44125 0.88375,0.88375 0.4425,-0.44125 a 5,5 0 0 0 0,-7.07 z"
     style="line-height:normal;font-variant-ligatures:normal;font-variant-position:normal;font-variant-caps:normal;font-variant-numeric:normal;font-variant-alternates:normal;font-feature-settings:normal;text-indent:0;text-align:start;text-decoration-line:none;text-decoration-style:solid;text-decoration-color:#000000;text-transform:none;text-orientation:mixed;shape-padding:0;isolation:auto;mix-blend-mode:normal;fill:#808080;stroke-width:1"
     color="#000000"
     font-weight="400"
     font-family="sans-serif"
     white-space="normal"
     overflow="visible"
     id="path833" />
  <path
     style="color:#000000;line-height:normal;font-variant-ligatures:normal;font-variant-position:normal;font-variant-caps:normal;font-variant-numeric:normal;font-variant-alternates:normal;font-feature-settings:normal;text-indent:0;text-align:start;text-decoration-line:none;text-decoration-style:solid;text-decoration-color:#000000;text-transform:none;text-orientation:mixed;shape-padding:0;isolation:auto;mix-blend-mode:normal;fill:#808080;stroke-width:0.666666"
     d="m 17.480234,5.8225 c 2.029461,2.0294608 3.072266,4.0969284 3.072266,6.240234 0,2.143306 -1.038066,4.326027 -3.0625,6.603516 l -0.375,-0.332032 c 1.975562,-2.222506 2.9375,-4.289794 2.9375,-6.271484 0,-1.98169 -0.957199,-3.91423 -2.927734,-5.8847652 z"
     id="path1401" />
</svg>
