<svg height="24" width="24" xmlns="http://www.w3.org/2000/svg"><path style="color:#000;fill:gray;stroke-width:4;-inkscape-stroke:none" d="M9.984 2v1H7.99c-.438 0-.785.007-1.078.117a1.26 1.26 0 0 0-.666.559c-.277.502-.252 1.116-.262 1.955v.002l.032 12.703v.002c.01.839-.015 1.451.261 1.953.139.25.374.45.666.56.293.11.64.149 1.078.149h7.995c.438 0 .785-.039 1.078-.148.292-.11.525-.31.664-.561.277-.502.248-1.114.258-1.953v-.002l-.032-12.703V5.63c-.01-.839.02-1.453-.257-1.955a1.25 1.25 0 0 0-.665-.559c-.292-.11-.64-.117-1.078-.117h-2V2h-4zM7.99 4h7.994c.428 0 .663.03.725.053a.27.27 0 0 1 .143.105c.095.173.12.618.13 1.475l.034 12.693v.012c-.01.854-.038 1.298-.133 1.47-.016.03-.055.074-.14.106-.124.046-.35.086-.727.086H8.02c-.378 0-.603-.04-.726-.086-.086-.032-.127-.077-.143-.105-.098-.178-.126-.62-.136-1.485L6.982 5.633c.01-.853.04-1.298.137-1.475.016-.028.057-.073.143-.105.061-.023.3-.053.728-.053z"/><path style="fill:gray;stroke-width:.5;stroke-linecap:square" d="M8 17.6h8V19H8z"/></svg>