<svg height="24" width="24" xmlns="http://www.w3.org/2000/svg"><path style="color:#000;fill:gray;stroke-width:4;-inkscape-stroke:none" d="M10 2v1H8.006c-.439 0-.786.007-1.078.117-.293.11-.528.308-.666.559C5.985 4.178 6.01 4.792 6 5.63v.002l.031 12.703v.002c.01.839-.015 1.451.262 1.953.138.251.374.45.666.56.292.11.64.149 1.078.149h7.994c.439 0 .786-.039 1.078-.148.293-.11.526-.31.664-.56.277-.503.249-1.115.258-1.954v-.002L18 5.633V5.63c-.01-.839.019-1.453-.258-1.955a1.25 1.25 0 0 0-.664-.559C16.786 3.007 16.438 3 16 3h-2V2zM8.006 4H16c.427 0 .662.03.725.053a.266.266 0 0 1 .142.105c.095.173.12.618.131 1.475l.033 12.693v.012c-.01.854-.037 1.298-.133 1.47-.015.03-.055.074-.14.106-.123.046-.349.086-.727.086H8.037c-.378 0-.604-.04-.726-.086-.086-.032-.127-.077-.143-.105-.098-.178-.126-.62-.137-1.485L6.998 5.633c.01-.853.04-1.298.137-1.475a.266.266 0 0 1 .142-.105C7.34 4.03 7.578 4 8.006 4z"/><path style="fill:gray;stroke-width:.5;stroke-linecap:square" d="M8 14.8h8.016V19H8z"/></svg>