<svg height="24" width="24" xmlns="http://www.w3.org/2000/svg"><path style="color:#000;fill:gray;stroke-width:4;-inkscape-stroke:none" d="M14 2v1h-1.994c-.439 0-.786.007-1.078.117-.293.11-.528.308-.666.559-.277.502-.252 1.116-.262 1.955v.002l.033 12.703v.002c.01.839-.015 1.451.262 1.953.138.251.373.45.666.56.292.11.64.149 1.078.149h6.994c.439 0 .786-.039 1.078-.148.293-.11.526-.31.664-.56.277-.503.249-1.115.258-1.954v-.002L21 5.633V5.63c-.01-.839.019-1.453-.258-1.955a1.25 1.25 0 0 0-.664-.559C19.786 3.007 19.438 3 19 3h-2V2zm-1.994 2H19c.427 0 .664.03.727.053a.259.259 0 0 1 .14.105c.095.173.123.618.133 1.475l.033 12.693v.012c-.01.854-.037 1.298-.133 1.47-.015.03-.055.074-.14.106-.123.046-.349.086-.727.086H12.04c-.378 0-.604-.04-.727-.086a.266.266 0 0 1-.142-.105c-.098-.178-.126-.62-.137-1.485L11 5.633c.01-.853.04-1.298.137-1.475a.266.266 0 0 1 .142-.105c.062-.023.3-.053.727-.053z"/><path style="display:inline;fill:gray;fill-opacity:1;stroke:none;stroke-width:.999802;enable-background:new" d="m5 20 3-8H6V5l-3 8h2z"/></svg>