<?xml version="1.0" encoding="UTF-8" standalone="no"?>
<svg viewBox="0 1 24 24" height="24" width="24" version="1.1" id="svg8" sodipodi:docname="missing.svg" inkscape:version="1.1 (ce6663b3b7, 2021-05-25)"
   xmlns:inkscape="http://www.inkscape.org/namespaces/inkscape"
   xmlns:sodipodi="http://sodipodi.sourceforge.net/DTD/sodipodi-0.dtd"
   xmlns="http://www.w3.org/2000/svg"
   xmlns:svg="http://www.w3.org/2000/svg">
   <defs id="defs12" />
   <sodipodi:namedview id="namedview10" pagecolor="#ffffff" bordercolor="#666666" borderopacity="1.0" inkscape:pageshadow="2" inkscape:pageopacity="0.0" inkscape:pagecheckerboard="0" showgrid="true" inkscape:zoom="28" inkscape:cx="10.267857" inkscape:cy="12.696429" inkscape:window-width="1920" inkscape:window-height="1016" inkscape:window-x="0" inkscape:window-y="27" inkscape:window-maximized="1" inkscape:current-layer="svg8" inkscape:snap-page="true">
      <inkscape:grid type="xygrid" id="grid822" />
   </sodipodi:namedview>
   <path id="path1347-7" style="color:#000000;fill:#808080;stroke-width:4;-inkscape-stroke:none" d="M 9.984375 2 L 9.984375 3 L 7.9882812 3 C 7.5498816 3 7.2045494 3.007 6.9121094 3.1171875 C 6.6196694 3.2269675 6.3845336 3.4248612 6.2460938 3.6757812 C 5.9692137 4.1776112 5.994075 4.7920594 5.984375 5.6308594 L 5.984375 5.6328125 L 6.015625 18.335938 L 6.015625 18.337891 C 6.025625 19.176691 6.000524 19.789186 6.2773438 20.291016 C 6.4157838 20.541936 6.6509194 20.741784 6.9433594 20.851562 C 7.2357994 20.961344 7.5830848 21 8.0214844 21 L 16.015625 21 C 16.454035 21 16.80131 20.961401 17.09375 20.851562 C 17.38619 20.741782 17.619373 20.541936 17.757812 20.291016 C 18.034692 19.789186 18.005925 19.176691 18.015625 18.337891 L 18.015625 18.335938 L 17.984375 5.6328125 L 17.984375 5.6308594 C 17.974375 4.7920594 18.003374 4.1776115 17.726562 3.6757812 C 17.588123 3.4248615 17.35494 3.2269675 17.0625 3.1171875 C 16.77006 3.0075175 16.422785 3 15.984375 3 L 13.984375 3 L 13.984375 2 L 9.984375 2 z M 12.332031 3.546875 L 12.337891 3.546875 L 12.341797 3.546875 C 13.216396 3.546875 13.97199 3.665981 14.630859 3.9550781 L 14.626953 3.9472656 C 14.631573 3.9491356 14.634072 3.9531981 14.638672 3.9550781 C 14.644312 3.9575681 14.652603 3.9564744 14.658203 3.9589844 L 14.75 4 L 15.984375 4 C 16.411744 4 16.646584 4.0293344 16.708984 4.0527344 C 16.794484 4.0848344 16.835731 4.1295334 16.851562 4.1582031 C 16.946662 4.3306031 16.973875 4.7758025 16.984375 5.6328125 L 16.986328 6.3984375 C 16.994051 6.4244966 17.002624 6.450304 17.009766 6.4765625 C 17.153345 6.9331269 17.230775 7.4080053 17.234375 7.8867188 L 17.234375 7.890625 L 17.234375 7.8945312 C 17.234375 8.375997 17.154497 8.8407751 16.994141 9.2695312 L 17.015625 18.326172 L 17.015625 18.337891 C 17.005425 19.192271 16.977925 19.636194 16.882812 19.808594 C 16.867013 19.837294 16.827623 19.881995 16.742188 19.914062 C 16.619357 19.960313 16.393815 20 16.015625 20 L 13.507812 20 C 13.101128 20.351476 12.53316 20.544922 12 20.544922 C 11.465044 20.544922 10.899437 20.350874 10.494141 20 L 8.0214844 20 C 7.6433439 20 7.4176219 19.960062 7.2949219 19.914062 C 7.2094219 19.881963 7.1681637 19.837262 7.1523438 19.808594 C 7.0542438 19.630694 7.025925 19.188539 7.015625 18.324219 L 6.9824219 5.9160156 L 6.8027344 5.6367188 L 6.984375 5.5097656 C 6.9960865 4.7450667 7.0268404 4.3255201 7.1191406 4.1582031 C 7.1349406 4.1295031 7.1762387 4.0848041 7.2617188 4.0527344 C 7.3230188 4.0296344 7.5605208 4 7.9882812 4 L 9.5761719 4 C 9.7794628 3.929194 9.98491 3.8636261 10.193359 3.8085938 L 10.197266 3.8066406 L 10.199219 3.8066406 C 10.878419 3.632193 11.591637 3.5473342 12.332031 3.546875 z " />
   <path d="m 12.33875,4.54625 c -0.66625,0 -1.29625,0.07625 -1.89,0.22875 a 7.31625,7.31625 0 0 0 -1.45875,0.5575 l -0.8225,0.5725 0.7075,1.095 0.565,-0.42 c 0.86,-0.4375 1.7425,-0.675 2.645,-0.675 0.75875,0 1.3625,0.2 1.77625,0.61375 0.40875,0.395 0.61625,0.92125 0.61625,1.545 0,0.38875 -0.09125,0.75375 -0.27125,1.085 -0.1625,0.3225 -0.37375,0.62875 -0.635,0.92 -0.25625,0.28375 -0.525,0.56875 -0.81,0.8525 v 0.0012 a 7.99,7.99 0 0 0 -0.79125,0.875 l -0.0013,0.0025 a 4.575,4.575 0 0 0 -0.615,0.9825 2.9725,2.9725 0 0 0 -0.22125,1.16875 c 0,0.26 0.03,0.50375 0.07,0.7425 h 1.36 c -0.0013,-0.02875 -0.0125,-0.055 -0.0125,-0.085 v -0.23375 c 0,-0.48375 0.09625,-0.925 0.29,-1.3125 0.1875,-0.3925 0.42,-0.74875 0.69625,-1.06875 l 0.0025,-0.0025 c 0.2725,-0.33 0.5725,-0.64375 0.90125,-0.94375 a 9.0375,9.0375 0 0 0 0.875,-0.9175 c 0.2625,-0.31625 0.48,-0.6525 0.65875,-1.00875 0.1725,-0.36 0.26125,-0.76625 0.26125,-1.2275 a 3.825,3.825 0 0 0 -0.18375,-1.1425 l -0.0012,-0.0025 v -0.0025 a 2.55,2.55 0 0 0 -0.6025,-1.08375 c -0.2925,-0.31875 -0.69,-0.5825 -1.19625,-0.7875 v -0.0025 c -0.48125,-0.215 -1.11875,-0.32625 -1.91,-0.32625 z m -0.3375,12.45375 c -0.4075,0 -0.7025,0.125 -0.92875,0.375 a 1.28125,1.28125 0 0 0 -0.34375,0.8975 c 0,0.34875 0.11125,0.64 0.34375,0.8975 0.225,0.25 0.52125,0.375 0.9275,0.375 0.40625,0 0.7025,-0.12375 0.92875,-0.375 0.2325,-0.2575 0.34375,-0.55 0.34375,-0.8975 0,-0.35 -0.11125,-0.64 -0.34375,-0.8975 -0.225,-0.25 -0.5225,-0.375 -0.92875,-0.375 z" font-family="Ubuntu" font-size="72.036px" font-weight="500" letter-spacing="0" style="line-height:125%;-inkscape-font-specification:'Ubuntu Medium';text-align:center;fill:#808080;fill-opacity:1;stroke-width:1" text-anchor="middle" word-spacing="0" id="path4" />
</svg>
