<svg height="24" width="24" xmlns="http://www.w3.org/2000/svg"><path style="color:#000;fill:gray;stroke-width:4;-inkscape-stroke:none" d="M9.984 2v1H7.988c-.438 0-.783.007-1.076.117a1.26 1.26 0 0 0-.666.559c-.277.502-.252 1.116-.262 1.955v.002l.032 12.703v.002c.01.839-.015 1.451.261 1.953.139.25.374.45.666.56.293.11.64.149 1.078.149h7.995c.438 0 .785-.039 1.078-.148.292-.11.525-.31.664-.561.277-.502.248-1.114.258-1.953v-.002l-.032-12.703V5.63c-.01-.839.02-1.453-.257-1.955a1.25 1.25 0 0 0-.665-.559c-.292-.11-.64-.117-1.078-.117h-2V2h-4zm2.348 1.547h.01c.874 0 1.63.119 2.289.408l-.004-.008c.005.002.007.006.012.008.005.003.014.001.02.004L14.75 4h1.234c.428 0 .663.03.725.053a.27.27 0 0 1 .143.105c.095.173.122.618.132 1.475l.002.765c.008.026.017.052.024.079.143.456.22.931.224 1.41v.008c0 .481-.08.946-.24 1.375l.022 9.056v.012c-.01.854-.038 1.298-.133 1.47-.016.03-.055.074-.14.106-.124.046-.35.086-.727.086h-2.508a2.355 2.355 0 0 1-3.014 0H8.021c-.378 0-.603-.04-.726-.086-.086-.032-.127-.077-.143-.105-.098-.178-.126-.62-.136-1.485L6.982 5.916l-.18-.28.182-.126c.012-.765.043-1.184.135-1.352.016-.028.057-.073.143-.105C7.323 4.03 7.56 4 7.988 4h1.588a8.8 8.8 0 0 1 .617-.191l.004-.002h.002a8.576 8.576 0 0 1 2.133-.26z"/><path d="M12.339 4.546a7.54 7.54 0 0 0-1.89.229 7.316 7.316 0 0 0-1.459.557l-.823.573L8.875 7l.565-.42c.86-.438 1.742-.675 2.645-.675.759 0 1.362.2 1.776.614.409.395.616.921.616 1.545 0 .388-.09.753-.27 1.085a4.223 4.223 0 0 1-.636.92c-.256.283-.525.568-.81.852v.001a7.99 7.99 0 0 0-.791.875l-.001.003a4.575 4.575 0 0 0-.615.982 2.973 2.973 0 0 0-.222 1.17c0 .26.03.503.07.742h1.36c0-.03-.012-.055-.012-.085v-.234c0-.484.096-.925.29-1.313.187-.392.42-.748.696-1.068l.003-.003c.272-.33.572-.644.9-.944a9.037 9.037 0 0 0 .876-.917c.262-.316.48-.653.659-1.009.172-.36.26-.766.26-1.227a3.825 3.825 0 0 0-.183-1.143l-.001-.002v-.003a2.55 2.55 0 0 0-.603-1.084c-.292-.318-.69-.582-1.196-.787v-.003c-.481-.215-1.119-.326-1.91-.326zM12 17c-.407 0-.702.125-.929.375a1.281 1.281 0 0 0-.343.897c0 .35.111.64.343.898.225.25.522.375.928.375s.702-.124.929-.375c.232-.258.343-.55.343-.897 0-.35-.11-.64-.343-.898-.225-.25-.523-.375-.929-.375z" font-family="Ubuntu" font-size="72.036" font-weight="500" letter-spacing="0" style="line-height:125%;-inkscape-font-specification:'Ubuntu Medium';text-align:center;fill:gray;fill-opacity:1;stroke-width:1" text-anchor="middle" word-spacing="0"/></svg>