<svg height="24" width="24" xmlns="http://www.w3.org/2000/svg"><path style="fill:gray;stroke:none;stroke-width:2;stroke-linecap:round;stroke-linejoin:round;stroke-dasharray:2,4" d="M16.5 11a5.5 5.5 0 0 0-5.5 5.5 5.5 5.5 0 0 0 5.5 5.5 5.5 5.5 0 0 0 5.5-5.5 5.5 5.5 0 0 0-5.5-5.5zm-.5 2h1v3.793l1.354 1.353.353.354-.707.707-.354-.353L16 17.207V13.5z"/><path style="fill:gray" d="M6 3v5.998H3.725s1.632 2.965 4.775 7.33c3.143-4.365 4.775-7.33 4.775-7.33H11V3H6zM4 16.998v1h6.191a6.5 6.5 0 0 1-.156-1H4z"/></svg>