<svg width="24" height="24" fill="gray" xmlns="http://www.w3.org/2000/svg"><path style="color:#000;fill:gray;stroke-linecap:round;stroke-linejoin:round;-inkscape-stroke:none" d="M12 2C9.748 2 7.898 3.748 7.557 6H5C3.347 6 2 7.347 2 9v10c0 1.653 1.347 3 3 3h14c1.653 0 3-1.347 3-3V9c0-1.653-1.347-3-3-3h-2.557c-.34-2.252-2.191-4-4.443-4zm0 1c1.686 0 3.106 1.274 3.43 3H8.57c.324-1.726 1.744-3 3.43-3zM5 7h14c1.117 0 2 .883 2 2v10c0 1.117-.883 2-2 2H5c-1.117 0-2-.883-2-2V9c0-1.117.883-2 2-2z"/><path d="m6 8 6 2.25V14zm6.225 7.275L7.5 20l3.15-6.3zm.525-4.315v3.79l2.756-2.756zm0-.71h4.5l.75 1.969z" style="stroke-width:1.25"/></svg>