<svg width="24" height="24" fill="gray" xmlns="http://www.w3.org/2000/svg"><path d="m2 2 10 3.75V12zm10.375 12.125L4.5 22l5.25-10.5zm.875-7.192v6.317l4.594-4.594zm0-1.183h7.5L22 9.031z" style="stroke-width:1.25"/><path style="fill:gray;fill-opacity:1;stroke-width:.5;stroke-linecap:round;stroke-linejoin:round" d="M17.5 13a4.5 4.5 0 1 0 0 9 4.5 4.5 0 0 0 0-9zm-1.646 2.146 1.646 1.647 1.646-1.647.708.708-1.647 1.646 1.647 1.646-.708.708-1.646-1.647-1.646 1.647-.708-.708 1.647-1.646-1.647-1.646z"/></svg>