<svg width="24" height="24" fill="gray" xmlns="http://www.w3.org/2000/svg"><path style="opacity:1;fill:gray;stroke:none;stroke-width:2;stroke-linecap:round;stroke-linejoin:round" d="M17.5 13a4.5 4.5 0 0 0-4.5 4.5 4.5 4.5 0 0 0 4.5 4.5 4.5 4.5 0 0 0 4.5-4.5 4.5 4.5 0 0 0-4.5-4.5zm-.5 2h1v2l-.2 1h-.6l-.2-1v-2zm.5 4a.5.5 0 0 1 .5.5.5.5 0 0 1-.5.5.5.5 0 0 1-.5-.5.5.5 0 0 1 .5-.5z"/><path d="m2 2 10 3.75V12zm10.375 12.125L4.5 22l5.25-10.5zm.875-7.192v6.317l4.594-4.594zm0-1.183h7.5L22 9.031z" style="stroke-width:1.25"/></svg>