<?xml version="1.0" encoding="UTF-8" standalone="no"?>
<svg
   viewBox="0 1 24 24"
   width="24"
   height="24"
   fill="#808080"
   version="1.1"
   id="svg10"
   sodipodi:docname="warning.svg"
   inkscape:version="1.2 (1:1.2.1+202207142221+cd75a1ee6d)"
   xmlns:inkscape="http://www.inkscape.org/namespaces/inkscape"
   xmlns:sodipodi="http://sodipodi.sourceforge.net/DTD/sodipodi-0.dtd"
   xmlns="http://www.w3.org/2000/svg"
   xmlns:svg="http://www.w3.org/2000/svg">
  <defs
     id="defs14" />
  <sodipodi:namedview
     id="namedview12"
     pagecolor="#ffffff"
     bordercolor="#666666"
     borderopacity="1.0"
     inkscape:pageshadow="2"
     inkscape:pageopacity="0.0"
     inkscape:pagecheckerboard="0"
     showgrid="true"
     inkscape:zoom="24.09375"
     inkscape:cx="10.874189"
     inkscape:cy="12.389105"
     inkscape:window-width="1920"
     inkscape:window-height="1016"
     inkscape:window-x="0"
     inkscape:window-y="0"
     inkscape:window-maximized="1"
     inkscape:current-layer="svg10"
     inkscape:showpageshadow="2"
     inkscape:deskcolor="#d1d1d1">
    <inkscape:grid
       type="xygrid"
       id="grid16" />
  </sodipodi:namedview>
  <path
     d="m 2,2 10,3.75 v 6.25 z"
     id="path2"
     style="stroke-width:1.25" />
  <path
     d="m 12.375,14.125 -7.875,7.875 5.25,-10.5 z"
     id="path4"
     style="stroke-width:1.25" />
  <path
     d="m 13.25,6.9325 v 6.3175 l 4.59375,-4.59375 z"
     id="path6"
     style="stroke-width:1.25" />
  <path
     d="m 13.25,5.75 h 7.5 l 1.25,3.28125 z"
     id="path8"
     style="stroke-width:1.25" />
  <path
     id="path1329"
     style="color:#000000;fill:#808080;fill-opacity:1;stroke-width:1px;stroke-linejoin:round;-inkscape-stroke:none"
     d="m 17.500576,14 a 0.50005,0.50005 0 0 0 -0.433594,0.251953 l -4,7 a 0.50005,0.50005 0 0 0 0.433594,0.748047 h 8 a 0.50005,0.50005 0 0 0 0.433594,-0.748047 l -4,-7 a 0.50005,0.50005 0 0 0 -0.433594,-0.251953 z m -0.5,2 h 1 v 2 l -0.199219,1 h -0.601562 l -0.199219,-1 z m 0.5,4 a 0.5,0.5 0 0 1 0.5,0.5 0.5,0.5 0 0 1 -0.5,0.5 0.5,0.5 0 0 1 -0.5,-0.5 0.5,0.5 0 0 1 0.5,-0.5 z" />
</svg>
