<svg height="24" width="24" xmlns="http://www.w3.org/2000/svg"><path d="M12 2.328S9.955 5.75 4.5 5.75c0 11.637 7.5 15.742 7.5 15.742s7.5-4.105 7.5-15.742c-5.455 0-7.5-3.422-7.5-3.422zm0 1.732c.34.39.321.525.976.994 1.14.817 2.953 1.487 5.191 1.739-.217 4.928-1.798 8.302-3.412 10.44-1.228 1.622-2.175 2.347-2.755 2.74-.579-.393-1.528-1.118-2.754-2.74-1.615-2.138-3.196-5.512-3.412-10.44 2.237-.25 4.05-.922 5.19-1.738.655-.471.637-.604.976-.995zm0 1.761c-.115.1-.091.135-.25.249-1.11.796-2.688 1.333-4.476 1.683.381 4.037 1.627 6.947 2.971 8.725.82 1.084 1.269 1.37 1.755 1.76.487-.388.938-.675 1.758-1.76 1.343-1.778 2.59-4.687 2.97-8.723-1.79-.35-3.368-.888-4.48-1.685-.157-.113-.133-.15-.248-.25z" style="stroke-width:1;marker:none" color="#000" overflow="visible" fill="gray"/></svg>