<svg height="24" width="24" xmlns="http://www.w3.org/2000/svg"><path d="M12 2.328S9.955 5.75 4.5 5.75c0 11.637 7.5 15.742 7.5 15.742s7.5-4.105 7.5-15.742c-5.455 0-7.5-3.422-7.5-3.422zm0 1.732c.34.39.321.525.976.994 1.14.817 2.953 1.487 5.191 1.739-.217 4.928-1.798 8.302-3.412 10.44-1.228 1.622-2.175 2.347-2.755 2.74-.579-.393-1.528-1.118-2.754-2.74-1.615-2.138-3.196-5.512-3.412-10.44 2.237-.25 4.05-.922 5.19-1.738.655-.471.637-.604.976-.995z" style="stroke-width:1;marker:none" color="#000" overflow="visible" fill="gray"/><path style="fill:gray;stroke-linecap:round;stroke-linejoin:round" d="M11 7h2v3l-.4 4h-1.2l-.4-4z"/><circle style="fill:gray;stroke:none;stroke-linecap:round;stroke-linejoin:round" cx="12" cy="16" r="1"/></svg>