<?xml version="1.0" encoding="UTF-8" standalone="no"?>
<svg
   viewBox="0 0 24 24"
   height="24"
   width="24"
   version="1.1"
   id="svg4"
   sodipodi:docname="warning.svg"
   inkscape:version="1.2 (1:1.2.1+202207142221+cd75a1ee6d)"
   xmlns:inkscape="http://www.inkscape.org/namespaces/inkscape"
   xmlns:sodipodi="http://sodipodi.sourceforge.net/DTD/sodipodi-0.dtd"
   xmlns="http://www.w3.org/2000/svg"
   xmlns:svg="http://www.w3.org/2000/svg">
  <defs
     id="defs8" />
  <sodipodi:namedview
     id="namedview6"
     pagecolor="#ffffff"
     bordercolor="#666666"
     borderopacity="1.0"
     inkscape:pageshadow="2"
     inkscape:pageopacity="0.0"
     inkscape:pagecheckerboard="0"
     showgrid="true"
     inkscape:snap-page="true"
     inkscape:zoom="14"
     inkscape:cx="-13.964286"
     inkscape:cy="-3.6428571"
     inkscape:window-width="1920"
     inkscape:window-height="1043"
     inkscape:window-x="0"
     inkscape:window-y="0"
     inkscape:window-maximized="1"
     inkscape:current-layer="svg4"
     inkscape:showpageshadow="2"
     inkscape:deskcolor="#d1d1d1">
    <inkscape:grid
       type="xygrid"
       id="grid333" />
  </sodipodi:namedview>
  <path
     d="m 12,2.3275 c 0,0 -2.045,3.4225 -7.5,3.4225 0,11.6375 7.5,15.7425 7.5,15.7425 0,0 7.5,-4.105 7.5,-15.7425 -5.455,0 -7.5,-3.4225 -7.5,-3.4225 z m 0,1.7325 c 0.34,0.39 0.32125,0.525 0.97625,0.99375 1.14,0.8175 2.9525,1.4875 5.19125,1.73875 -0.2175,4.92875 -1.79875,8.3025 -3.4125,10.44 -1.2275,1.6225 -2.175,2.3475 -2.755,2.74125 -0.57875,-0.39375 -1.5275,-1.11875 -2.75375,-2.74125 -1.615,-2.1375 -3.19625,-5.51125 -3.4125,-10.44 2.2375,-0.25 4.05,-0.92125 5.19,-1.7375 0.655,-0.47125 0.6375,-0.60375 0.97625,-0.995 z"
     style="stroke-width:1;marker:none"
     color="#000000"
     overflow="visible"
     fill="#808080"
     id="path2"
     sodipodi:nodetypes="cccccccccccccc" />
  <path
     id="rect1161"
     style="fill:#808080;fill-rule:evenodd;stroke-linecap:round;stroke-linejoin:round"
     d="m 11,7 h 2 v 3 l -0.4,4 h -1.2 l -0.4,-4 z"
     sodipodi:nodetypes="ccccccc" />
  <circle
     style="fill:#808080;fill-rule:evenodd;stroke:none;stroke-linecap:round;stroke-linejoin:round"
     id="path1050"
     cx="12"
     cy="16"
     r="1" />
</svg>
