<svg height="24" width="24" xmlns="http://www.w3.org/2000/svg"><path style="color:#000;fill:gray" d="M12 2a5 5.5 0 0 0-5 5.5 5 5.5 0 0 0 5 5.5 5 5.5 0 0 0 5-5.5A5 5.5 0 0 0 12 2zm0 1a4 4.5 0 0 1 4 4.5 4 4.5 0 0 1-4 4.5 4 4.5 0 0 1-4-4.5A4 4.5 0 0 1 12 3zm0 12c-4.39.002-6.683 1.023-7.86 2.357C2.965 18.692 3 20.264 3 21h1c0-.764-.026-1.94.89-2.98.917-1.04 2.874-2.018 7.11-2.02.734 0 1.396.03 2 .084V15.08a23.487 23.487 0 0 0-2-.08z"/><path style="fill:gray;fill-opacity:1;stroke-linecap:round" d="M18 15v3h-3v1h3v3h1v-3h3v-1h-3v-3z"/></svg>