<svg height="24" width="24" xmlns="http://www.w3.org/2000/svg"><path style="font-variant-ligatures:none;font-variant-position:normal;font-variant-caps:normal;font-variant-numeric:normal;font-variant-alternates:normal;font-feature-settings:normal;text-indent:0;text-decoration-line:none;text-decoration-style:solid;text-decoration-color:#000;text-transform:none;shape-padding:0;isolation:auto;mix-blend-mode:normal;stroke-width:1;fill:gray" d="M16.5 2.5a55.14 55.14 0 0 0-1.668 2.824A46.516 46.516 0 0 0 13.482 8H16v10h1V8h2.516a53.878 53.878 0 0 0-1.366-2.676A62.696 62.696 0 0 0 16.5 2.5z"/><path style="fill:gray;stroke-width:2;stroke-linecap:square;stroke-linejoin:round" d="M6 4v4h4V4zm1 1h2v2H7zm-1 5v4h4v-4zm1 1h2v2H7zm-1 5v4h4v-4zm1 1h2v2H7z"/></svg>