<svg height="24" width="24" xmlns="http://www.w3.org/2000/svg"><path style="font-variant-ligatures:none;font-variant-position:normal;font-variant-caps:normal;font-variant-numeric:normal;font-variant-alternates:normal;font-feature-settings:normal;text-indent:0;text-decoration-line:none;text-decoration-style:solid;text-decoration-color:#000;text-transform:none;shape-padding:0;isolation:auto;mix-blend-mode:normal;fill:gray;stroke-width:1" d="M16.5 20.5a55.14 55.14 0 0 1-1.668-2.824A46.516 46.516 0 0 1 13.482 15H16V5h1v10h2.516c-.43.904-.886 1.797-1.366 2.676A62.696 62.696 0 0 1 16.5 20.5z"/><path style="fill:gray;stroke-width:2;stroke-linecap:square;stroke-linejoin:round" d="M6 4v4h4V4zm1 1h2v2H7zm-1 5v4h4v-4zm1 1h2v2H7zm-1 5v4h4v-4zm1 1h2v2H7z"/></svg>