<?xml version="1.0" encoding="UTF-8" standalone="no"?>
<svg
   height="24"
   width="24"
   version="1.1"
   id="svg4"
   sodipodi:docname="remote.svg"
   inkscape:version="1.1 (ce6663b3b7, 2021-05-25)"
   xmlns:inkscape="http://www.inkscape.org/namespaces/inkscape"
   xmlns:sodipodi="http://sodipodi.sourceforge.net/DTD/sodipodi-0.dtd"
   xmlns="http://www.w3.org/2000/svg"
   xmlns:svg="http://www.w3.org/2000/svg">
  <defs
     id="defs8" />
  <sodipodi:namedview
     id="namedview6"
     pagecolor="#ffffff"
     bordercolor="#666666"
     borderopacity="1.0"
     inkscape:pageshadow="2"
     inkscape:pageopacity="0.0"
     inkscape:pagecheckerboard="0"
     showgrid="false"
     inkscape:zoom="28"
     inkscape:cx="4.875"
     inkscape:cy="6.6964286"
     inkscape:window-width="1920"
     inkscape:window-height="1016"
     inkscape:window-x="0"
     inkscape:window-y="27"
     inkscape:window-maximized="1"
     inkscape:current-layer="svg4" />
  <path
     d="m 6.9925,2 c -1.5725,0.01875 -2.72375,-0.03625 -3.665,0.48375 a 2.3475,2.3475 0 0 0 -1.05,1.245 c -0.205,0.5475 -0.2775,1.2 -0.2775,2.02125 v 8.75 c 0,0.8225 0.0725,1.47375 0.27875,2.02125 0.205,0.54875 0.57875,0.9875 1.05,1.2475 0.94,0.52 2.09125,0.4625 3.66375,0.48125 h 3.7575 v 1.25 h 2.5 v -1.25 h 3.7575 c 1.5725,-0.01875 2.72375,0.0375 3.665,-0.48125 0.47,-0.25875 0.84375,-0.7 1.05,-1.2475 0.205,-0.5475 0.2775,-1.2 0.2775,-2.02125 v -6.25 c 0,-0.8225 -0.0725,-1.47375 -0.27875,-2.02125 -0.025,-0.06875 -0.06,-0.13 -0.0925,-0.1925 l -0.03375,-0.07125 a 2.2975,2.2975 0 0 0 -0.9225,-0.98375 c -0.94125,-0.52 -2.0925,-0.4625 -3.665,-0.48125 h -3.79875 l -2.5275,-2.5 h -3.68625 z m 0.015,1.25 h 3.1625 l 2.20625,2.1825 -1.585,1.5675 h -3.79875 c -1.5725,0.01875 -2.72375,-0.0375 -3.665,0.48125 -0.0275,0.015 -0.05,0.0375 -0.0775,0.05375 v -1.785 c 0,-0.74 0.0775,-1.2575 0.2,-1.5825 0.1225,-0.325 0.25375,-0.46375 0.48375,-0.59 0.4575,-0.25375 1.49375,-0.30875 3.07375,-0.3275 z m 6.82375,2.5 h 3.15875 c 1.58,0.01875 2.615,0.075 3.075,0.3275 0.22875,0.125 0.36,0.265 0.4825,0.59 0.1225,0.325 0.2025,0.8425 0.2025,1.5825 v 6.25 c 0,0.74 -0.07875,1.2575 -0.2,1.5825 -0.1225,0.325 -0.25375,0.46375 -0.48375,0.59 -0.4575,0.2525 -1.49125,0.30875 -3.06625,0.3275 h -10 c -1.575,-0.01875 -2.60875,-0.075 -3.06625,-0.3275 -0.23,-0.125 -0.3625,-0.265 -0.48375,-0.59 -0.12125,-0.325 -0.2,-0.8425 -0.2,-1.5825 v -3.75 c 0,-0.74 0.08,-1.2575 0.2025,-1.5825 0.1225,-0.325 0.25375,-0.46375 0.48375,-0.59 0.45875,-0.25375 1.49375,-0.30875 3.07375,-0.3275 h 4.29375 z m -10.58125,15 v 1.25 h 17.5 v -1.25 z"
     fill="#808080"
     font-family="sans-serif"
     font-weight="400"
     overflow="visible"
     style="line-height:normal;font-variant-ligatures:none;font-variant-position:normal;font-variant-caps:normal;font-variant-numeric:normal;font-variant-alternates:normal;font-feature-settings:normal;text-indent:0;text-align:start;text-decoration-line:none;text-decoration-style:solid;text-decoration-color:#000000;text-transform:none;shape-padding:0;isolation:auto;mix-blend-mode:normal;stroke-width:1;marker:none"
     white-space="normal"
     color="#000000"
     id="path2" />
</svg>
