<?xml version="1.0" encoding="UTF-8" standalone="no"?>
<svg
   height="24"
   width="24"
   version="1.1"
   id="svg4"
   sodipodi:docname="remote.svg"
   inkscape:version="1.1 (ce6663b3b7, 2021-05-25)"
   xmlns:inkscape="http://www.inkscape.org/namespaces/inkscape"
   xmlns:sodipodi="http://sodipodi.sourceforge.net/DTD/sodipodi-0.dtd"
   xmlns="http://www.w3.org/2000/svg"
   xmlns:svg="http://www.w3.org/2000/svg">
  <defs
     id="defs8" />
  <sodipodi:namedview
     id="namedview6"
     pagecolor="#ffffff"
     bordercolor="#666666"
     borderopacity="1.0"
     inkscape:pageshadow="2"
     inkscape:pageopacity="0.0"
     inkscape:pagecheckerboard="0"
     showgrid="true"
     inkscape:zoom="28"
     inkscape:cx="4.7678571"
     inkscape:cy="14.053571"
     inkscape:window-width="1920"
     inkscape:window-height="1016"
     inkscape:window-x="0"
     inkscape:window-y="27"
     inkscape:window-maximized="1"
     inkscape:current-layer="svg4">
    <inkscape:grid
       type="xygrid"
       id="grid821" />
  </sodipodi:namedview>
  <path
     id="path858"
     style="color:#000000;fill:#808080;fill-opacity:1;stroke-linecap:round;-inkscape-stroke:none"
     d="m 5.4550781,2.0013285 c -0.9685809,0.00898 -1.717819,0.073269 -2.3378906,0.4453125 -0.4133811,0.2480287 -0.7199379,0.6559075 -0.8886719,1.1621094 -0.1687339,0.5062019 -0.2285156,1.1148011 -0.2285156,1.8925781 v 6.0019535 2.998047 c 0,0.777777 0.058558,1.391309 0.25,1.908203 0.1914421,0.516894 0.5529634,0.926872 1.0273438,1.164063 0.9487604,0.47438 2.2226582,0.427734 4.2226562,0.427734 h 3.5 v 0.998047 h 2 v -0.998047 h 4.5 c 1.499998,0 2.55605,0.05074 3.382812,-0.445312 0.413382,-0.248029 0.719938,-0.655908 0.888672,-1.16211 0.168734,-0.506202 0.228516,-1.114801 0.228516,-1.892578 v -6.0000005 c 0,-0.777777 -0.05978,-1.3863762 -0.228516,-1.8925781 -0.168734,-0.5062019 -0.47529,-0.9140807 -0.888672,-1.1621094 -0.826761,-0.4960573 -1.882814,-0.4453125 -3.382812,-0.4453125 h -3.792969 l -2.853515,-2.8535156 c -0.02778,-0.026909 -0.05858,-0.050505 -0.0918,-0.070312 -0.0102,-0.00623 -0.02063,-0.012094 -0.03125,-0.017578 -0.02867,-0.015258 -0.05876,-0.027687 -0.08984,-0.037109 -0.0065,-0.00209 -0.01298,-0.00404 -0.01953,-0.00586 -0.03957,-0.010136 -0.08024,-0.015383 -0.121094,-0.015625 h -4 c -0.3749996,0 -0.7220616,-0.00299 -1.0449219,0 z m 1.0449219,1 h 3.792969 l 2.5,2.5 -2.501953,2.5019531 h -3.791016 c -1.4999985,0 -2.5560503,-0.050745 -3.3828125,0.4453126 -0.040345,0.024207 -0.078907,0.05093 -0.1171875,0.078125 v -3.0253907 c 0,-0.7222215 0.065219,-1.2386246 0.1777344,-1.5761719 0.1125157,-0.3375471 0.2434598,-0.4921696 0.4550781,-0.6191406 0.4232365,-0.2539419 1.367189,-0.3046875 2.8671875,-0.3046875 z m 7.207031,3 h 3.792969 c 1.499998,0 2.44395,0.050746 2.867188,0.3046875 0.211618,0.126971 0.342562,0.2815935 0.455078,0.6191406 0.112515,0.3375473 0.177734,0.8539504 0.177734,1.5761719 v 6.0000005 c 0,0.722221 -0.06522,1.238625 -0.177734,1.576172 -0.112516,0.337547 -0.24346,0.492171 -0.455078,0.619141 -0.423236,0.253942 -1.367189,0.304687 -2.867188,0.304687 h -10 c -1.999998,0 -3.2261059,-0.04665 -3.7773438,-0.322265 -0.2756189,-0.13781 -0.4140986,-0.290333 -0.5351562,-0.617188 -0.1210576,-0.326856 -0.1875,-0.838326 -0.1875,-1.560547 v -2.998047 c 0,-0.722221 0.065219,-1.238624 0.1777344,-1.5761724 0.1125157,-0.337547 0.2434598,-0.494125 0.4550781,-0.621094 0.4232365,-0.253943 1.367189,-0.302734 2.8671875,-0.302734 h 4 c 0.01113,-0.0016 0.0222,-0.00353 0.0332,-0.00586 0.04118,-0.00278 0.08185,-0.010657 0.121094,-0.023437 0.0221,-0.0076 0.04363,-0.016735 0.06445,-0.027344 0.04175,-0.019937 0.08053,-0.045572 0.115234,-0.076172 0.0066,-0.00504 0.01315,-0.010255 0.01953,-0.015625 z" />
  <rect
     style="fill:#808080;fill-rule:evenodd;stroke-width:0.5;stroke-linecap:square;fill-opacity:1"
     id="rect1088"
     width="18"
     height="1"
     x="3"
     y="21" />
</svg>
