<?xml version="1.0" encoding="UTF-8" standalone="no"?>
<svg
   width="24"
   height="24"
   version="1.1"
   id="svg8"
   sodipodi:docname="angel.svg"
   inkscape:version="1.1 (ce6663b3b7, 2021-05-25)"
   xmlns:inkscape="http://www.inkscape.org/namespaces/inkscape"
   xmlns:sodipodi="http://sodipodi.sourceforge.net/DTD/sodipodi-0.dtd"
   xmlns="http://www.w3.org/2000/svg"
   xmlns:svg="http://www.w3.org/2000/svg"
   xmlns:rdf="http://www.w3.org/1999/02/22-rdf-syntax-ns#"
   xmlns:cc="http://creativecommons.org/ns#"
   xmlns:dc="http://purl.org/dc/elements/1.1/">
  <metadata
     id="metadata14">
    <rdf:RDF>
      <cc:Work
         rdf:about="">
        <dc:format>image/svg+xml</dc:format>
        <dc:type
           rdf:resource="http://purl.org/dc/dcmitype/StillImage" />
      </cc:Work>
    </rdf:RDF>
  </metadata>
  <defs
     id="defs12" />
  <sodipodi:namedview
     pagecolor="#ffffff"
     bordercolor="#666666"
     borderopacity="1"
     objecttolerance="10"
     gridtolerance="10"
     guidetolerance="10"
     inkscape:pageopacity="0"
     inkscape:pageshadow="2"
     inkscape:window-width="1920"
     inkscape:window-height="1016"
     id="namedview10"
     showgrid="true"
     inkscape:zoom="18.890625"
     inkscape:cx="9.8196857"
     inkscape:cy="4.7377998"
     inkscape:window-x="0"
     inkscape:window-y="27"
     inkscape:window-maximized="1"
     inkscape:current-layer="svg8"
     inkscape:pagecheckerboard="0"
     width="24px">
    <inkscape:grid
       type="xygrid"
       id="grid1440" />
  </sodipodi:namedview>
  <path
     id="path987"
     style="display:inline;fill:#808080;fill-opacity:1;stroke:none;stroke-width:1"
     d="m 6.375,14.5 v 0.78125 c 0,0.1078 0.043951,0.307096 0.112305,0.53711 2.2640445,1.507263 8.452319,1.531237 10.895996,0.07568 0.12784,-0.337685 0.19876,-0.614741 0.207519,-0.72998 l 0.03417,-0.664062 c -2.29255,1.629312 -9.0070085,1.629312 -11.2499998,0 z" />
  <path
     style="display:inline;fill:#808080;fill-opacity:1;stroke:none;stroke-width:1"
     d="m 15.125027,9.4995312 c 0.697911,0 1.249999,0.5911498 1.249999,1.2890618 v 1.210938 c 0,0.697912 -0.552088,1.25 -1.249999,1.25 -0.697914,0 -1.250001,-0.552088 -1.250001,-1.25 v -1.210938 c 0,-0.697912 0.552087,-1.2890618 1.250001,-1.2890618 z"
     id="path985" />
  <path
     style="display:inline;fill:#808080;fill-opacity:1;stroke:none;stroke-width:1"
     d="m 8.8359375,9.48 c 0.6979125,0 1.2890625,0.59115 1.2890625,1.289063 v 1.210937 c 0,0.697912 -0.59115,1.25 -1.2890625,1.25 -0.6979125,0 -1.25,-0.552088 -1.25,-1.25 v -1.210937 c 0,-0.697913 0.5520875,-1.289063 1.25,-1.289063 z"
     id="path983" />
  <path
     id="path993"
     style="fill:#808080;fill-opacity:1;fill-rule:evenodd;stroke:none;stroke-width:0.75;stroke-linecap:square;stroke-linejoin:round;stroke-opacity:1"
     d="m 20.45459,8.574707 c -0.362394,0.1524215 -0.762378,0.2889581 -1.193848,0.4077149 a 8.125,8.125 0 0 1 0.864258,3.6425781 8.125,8.125 0 0 1 -8.125,8.125 8.125,8.125 0 0 1 -8.125,-8.125 8.125,8.125 0 0 1 0.8642577,-3.6425781 c -0.4310393,-0.1186388 -0.83174,-0.253035 -1.1938475,-0.4052734 a 9.375,9.375 0 0 0 -0.9204102,4.0478515 9.375,9.375 0 0 0 9.375,9.375 9.375,9.375 0 0 0 9.375,-9.375 9.375,9.375 0 0 0 -0.92041,-4.050293 z" />
  <path
     id="rect1442"
     style="fill:#808080;fill-rule:evenodd;stroke-width:1;stroke-linecap:square"
     d="m 11.375,2 c -4.155,0 -7.5,1.39375 -7.5,3.125 0,1.73125 3.345,3.125 7.5,3.125 h 1.25 c 4.155,0 7.5,-1.39375 7.5,-3.125 0,-1.73125 -3.345,-3.125 -7.5,-3.125 z m 0.625,1.25 c 3.80875,0 6.875,0.83625 6.875,1.875 0,1.03875 -3.06625,1.875 -6.875,1.875 -3.80875,0 -6.875,-0.83625 -6.875,-1.875 0,-1.03875 3.06625,-1.875 6.875,-1.875 z" />
</svg>
