<?xml version="1.0" encoding="UTF-8" standalone="no"?>
<svg viewBox="0 1 24 24" width="24" height="24" version="1.1" id="svg4" sodipodi:docname="angry.svg" inkscape:version="1.1 (ce6663b3b7, 2021-05-25)"
   xmlns:inkscape="http://www.inkscape.org/namespaces/inkscape"
   xmlns:sodipodi="http://sodipodi.sourceforge.net/DTD/sodipodi-0.dtd"
   xmlns="http://www.w3.org/2000/svg"
   xmlns:svg="http://www.w3.org/2000/svg"
   xmlns:rdf="http://www.w3.org/1999/02/22-rdf-syntax-ns#"
   xmlns:cc="http://creativecommons.org/ns#"
   xmlns:dc="http://purl.org/dc/elements/1.1/">
   <metadata id="metadata10">
      <rdf:RDF>
         <cc:Work rdf:about="">
            <dc:format>image/svg+xml</dc:format>
            <dc:type rdf:resource="http://purl.org/dc/dcmitype/StillImage" />
         </cc:Work>
      </rdf:RDF>
   </metadata>
   <defs id="defs8" />
   <sodipodi:namedview pagecolor="#ffffff" bordercolor="#666666" borderopacity="1" objecttolerance="10" gridtolerance="10" guidetolerance="10" inkscape:pageopacity="0" inkscape:pageshadow="2" inkscape:window-width="1920" inkscape:window-height="1016" id="namedview6" showgrid="true" inkscape:zoom="13.75" inkscape:cx="-6.8727273" inkscape:cy="10.8" inkscape:window-x="0" inkscape:window-y="27" inkscape:window-maximized="1" inkscape:current-layer="svg4" inkscape:pagecheckerboard="0">
      <inkscape:grid type="xygrid" id="grid1412" />
   </sodipodi:namedview>
   <path d="m 17.624999,7.8200148 v 2.3437502 c 0,0.695 -0.83375,1.249999 -1.875,1.249999 -1.04125,0 -1.875,-0.554999 -1.875,-1.249999 v -1.2887503 h 2.14875 c 0.97,-0.00625 1.60125,-1.0549999 1.60125,-1.0549999 z" id="path1408" style="fill:#808080;fill-opacity:1;stroke-width:1" />
   <path d="m 6.3749997,7.8200148 c 0,0 0.5925,1.0487499 1.5624999,1.0549999 h 2.1874994 v 1.2887503 c 0,0.695 -0.8337495,1.249999 -1.8749995,1.249999 -1.0412499,0 -1.8749998,-0.554999 -1.8749998,-1.249999 z" id="path1406" style="fill:#808080;fill-opacity:1;stroke-width:1" />
   <path id="path993" style="fill:#808080;fill-opacity:1;fill-rule:evenodd;stroke:none;stroke-width:0.75;stroke-linecap:square;stroke-linejoin:round;stroke-opacity:1" d="m 11.953614,2.6250152 a 9.3749993,9.3749993 0 0 0 -9.328614,9.3749988 9.3749993,9.3749993 0 0 0 9.375,9.374999 9.3749993,9.3749993 0 0 0 9.375,-9.374999 9.3749993,9.3749993 0 0 0 -9.375,-9.3749988 9.3749993,9.3749993 0 0 0 -0.04639,0 z m 0.04639,1.2499999 a 8.1249994,8.1249994 0 0 1 8.124999,8.1249989 8.1249994,8.1249994 0 0 1 -8.124999,8.124999 8.1249994,8.1249994 0 0 1 -8.1250006,-8.124999 8.1249994,8.1249994 0 0 1 8.1250006,-8.1249989 z" />
   <rect style="opacity:1;fill:#808080;fill-rule:evenodd;stroke-width:1;stroke-linecap:round" id="rect1446" width="6.2499995" height="1.2499999" x="8.875" y="13.875014" ry="0.5" rx="0.5" />
</svg>
