<?xml version="1.0" encoding="UTF-8" standalone="no"?>
<svg
   width="16"
   height="16"
   version="1.1"
   id="svg4"
   sodipodi:docname="confused.svg"
   inkscape:version="1.1 (ce6663b3b7, 2021-05-25)"
   xmlns:inkscape="http://www.inkscape.org/namespaces/inkscape"
   xmlns:sodipodi="http://sodipodi.sourceforge.net/DTD/sodipodi-0.dtd"
   xmlns="http://www.w3.org/2000/svg"
   xmlns:svg="http://www.w3.org/2000/svg"
   xmlns:rdf="http://www.w3.org/1999/02/22-rdf-syntax-ns#"
   xmlns:cc="http://creativecommons.org/ns#"
   xmlns:dc="http://purl.org/dc/elements/1.1/">
  <metadata
     id="metadata10">
    <rdf:RDF>
      <cc:Work
         rdf:about="">
        <dc:format>image/svg+xml</dc:format>
        <dc:type
           rdf:resource="http://purl.org/dc/dcmitype/StillImage" />
      </cc:Work>
    </rdf:RDF>
  </metadata>
  <defs
     id="defs8" />
  <sodipodi:namedview
     pagecolor="#ffffff"
     bordercolor="#666666"
     borderopacity="1"
     objecttolerance="10"
     gridtolerance="10"
     guidetolerance="10"
     inkscape:pageopacity="0"
     inkscape:pageshadow="2"
     inkscape:window-width="1920"
     inkscape:window-height="1016"
     id="namedview6"
     showgrid="true"
     inkscape:zoom="27.5"
     inkscape:cx="7.2909091"
     inkscape:cy="6.9636364"
     inkscape:window-x="0"
     inkscape:window-y="27"
     inkscape:window-maximized="1"
     inkscape:current-layer="svg4"
     inkscape:pagecheckerboard="0">
    <inkscape:grid
       type="xygrid"
       id="grid1418"
       dotted="false" />
    <inkscape:grid
       type="xygrid"
       id="grid1438"
       dotted="true"
       spacingx="0.5"
       spacingy="0.5"
       empspacing="10" />
  </sodipodi:namedview>
  <path
     id="path985"
     style="display:inline;fill:#808080;fill-opacity:1;stroke:none"
     d="M 7.4628906 1 A 7.5 7.5 0 0 0 0 8.5 A 7.5 7.5 0 0 0 7.5 16 A 7.5 7.5 0 0 0 15 8.5 A 7.5 7.5 0 0 0 7.5 1 A 7.5 7.5 0 0 0 7.4628906 1 z M 7.5 2 A 6.5 6.5 0 0 1 14 8.5 A 6.5 6.5 0 0 1 7.5 15 A 6.5 6.5 0 0 1 1 8.5 A 6.5 6.5 0 0 1 7.5 2 z M 4.96875 4.984375 C 4.41042 4.984375 3.96875 5.457295 3.96875 6.015625 L 3.96875 6.984375 C 3.96875 7.5427049 4.41042 7.984375 4.96875 7.984375 C 5.52708 7.984375 6 7.5427049 6 6.984375 L 6 6.015625 C 6 5.457295 5.52708 4.984375 4.96875 4.984375 z M 10 5 C 9.4416695 5 9 5.47292 9 6.03125 L 9 7 C 9 7.5583299 9.4416695 8 10 8 C 10.55833 8 11 7.5583299 11 7 L 11 6.03125 C 11 5.47292 10.55833 5 10 5 z M 3.5 10 A 0.5 0.5 0 0 0 3 10.5 A 0.5 0.5 0 0 0 3.5 11 C 4.7166654 11 5.4097288 11.125816 5.8242188 11.28125 C 6.2387089 11.436684 6.3964846 11.603516 6.6464844 11.853516 C 6.8964841 12.103515 7.2387099 12.436684 7.8242188 12.65625 C 8.4097278 12.875816 9.216668 13 10.5 13 A 0.5 0.5 0 0 0 11 12.5 A 0.5 0.5 0 0 0 10.5 12 C 9.2833345 12 8.5902712 11.874184 8.1757812 11.71875 C 7.7612911 11.563316 7.6035154 11.396484 7.3535156 11.146484 C 7.1035159 10.896485 6.7612903 10.563316 6.1757812 10.34375 C 5.5902724 10.124184 4.783332 10 3.5 10 z " />
</svg>
