<?xml version="1.0" encoding="UTF-8" standalone="no"?>
<svg
   height="24"
   width="24"
   version="1.1"
   id="svg4"
   sodipodi:docname="devilish.svg"
   inkscape:version="1.1 (ce6663b3b7, 2021-05-25)"
   xmlns:inkscape="http://www.inkscape.org/namespaces/inkscape"
   xmlns:sodipodi="http://sodipodi.sourceforge.net/DTD/sodipodi-0.dtd"
   xmlns="http://www.w3.org/2000/svg"
   xmlns:svg="http://www.w3.org/2000/svg"
   xmlns:rdf="http://www.w3.org/1999/02/22-rdf-syntax-ns#"
   xmlns:cc="http://creativecommons.org/ns#"
   xmlns:dc="http://purl.org/dc/elements/1.1/">
  <metadata
     id="metadata10">
    <rdf:RDF>
      <cc:Work
         rdf:about="">
        <dc:format>image/svg+xml</dc:format>
        <dc:type
           rdf:resource="http://purl.org/dc/dcmitype/StillImage" />
      </cc:Work>
    </rdf:RDF>
  </metadata>
  <defs
     id="defs8" />
  <sodipodi:namedview
     pagecolor="#ffffff"
     bordercolor="#666666"
     borderopacity="1"
     objecttolerance="10"
     gridtolerance="10"
     guidetolerance="10"
     inkscape:pageopacity="0"
     inkscape:pageshadow="2"
     inkscape:window-width="1920"
     inkscape:window-height="1043"
     id="namedview6"
     showgrid="true"
     inkscape:object-paths="true"
     inkscape:snap-intersection-paths="true"
     inkscape:snap-smooth-nodes="true"
     inkscape:snap-midpoints="true"
     inkscape:zoom="3.3476563"
     inkscape:cx="-69.750291"
     inkscape:cy="-33.157526"
     inkscape:window-x="1920"
     inkscape:window-y="0"
     inkscape:window-maximized="1"
     inkscape:current-layer="svg4"
     inkscape:pagecheckerboard="0">
    <inkscape:grid
       type="xygrid"
       id="grid835"
       dotted="false"
       spacingx="1"
       spacingy="1"
       empspacing="5" />
    <inkscape:grid
       type="xygrid"
       id="grid869"
       dotted="true"
       spacingx="0.5"
       spacingy="0.5"
       empspacing="10" />
  </sodipodi:namedview>
  <path
     id="path987"
     style="display:inline;fill:#808080;fill-opacity:1;stroke:none;stroke-width:1"
     d="M 11.953125 2.625 A 9.375 9.375 0 0 0 5.8164062 4.9570312 C 4.6707972 4.6611727 3.8480628 3.8088333 3 3 C 2.7523199 4.3312912 2.8586522 5.6730607 4.0488281 7.0449219 A 9.375 9.375 0 0 0 2.625 12 A 9.375 9.375 0 0 0 12 21.375 A 9.375 9.375 0 0 0 21.375 12 A 9.375 9.375 0 0 0 19.949219 7.046875 C 21.141092 5.6742899 21.247804 4.3319637 21 3 C 20.151486 3.8092633 19.328202 4.6616086 18.181641 4.9570312 A 9.375 9.375 0 0 0 12 2.625 A 9.375 9.375 0 0 0 11.953125 2.625 z M 12 3.875 A 8.125 8.125 0 0 1 20.125 12 A 8.125 8.125 0 0 1 12 20.125 A 8.125 8.125 0 0 1 3.875 12 A 8.125 8.125 0 0 1 12 3.875 z M 8.8359375 7.6054688 C 8.138025 7.6054688 7.5859375 8.1966188 7.5859375 8.8945312 L 7.5859375 10.105469 C 7.5859375 10.803381 8.138025 11.355469 8.8359375 11.355469 C 9.53385 11.355469 10.125 10.803381 10.125 10.105469 L 10.125 8.8945312 C 10.125 8.1966188 9.53385 7.6054688 8.8359375 7.6054688 z M 15.125 7.625 C 14.427088 7.625 13.875 8.21615 13.875 8.9140625 L 13.875 10.125 C 13.875 10.822913 14.427088 11.375 15.125 11.375 C 15.822912 11.375 16.375 10.822913 16.375 10.125 L 16.375 8.9140625 C 16.375 8.21615 15.822912 7.625 15.125 7.625 z M 6.375 12.625 L 6.375 13.40625 C 6.375 14.071875 7.4964503 17.585875 11.982422 17.546875 C 16.468415 17.507812 17.549024 13.826201 17.589844 13.289062 L 17.625 12.625 C 15.33245 14.254312 8.6179906 14.254312 6.375 12.625 z " />
</svg>
