<?xml version="1.0" encoding="UTF-8" standalone="no"?>
<svg
   width="24"
   height="24"
   version="1.1"
   id="svg4"
   sodipodi:docname="embarrassed.svg"
   inkscape:version="1.1 (ce6663b3b7, 2021-05-25)"
   xmlns:inkscape="http://www.inkscape.org/namespaces/inkscape"
   xmlns:sodipodi="http://sodipodi.sourceforge.net/DTD/sodipodi-0.dtd"
   xmlns="http://www.w3.org/2000/svg"
   xmlns:svg="http://www.w3.org/2000/svg"
   xmlns:rdf="http://www.w3.org/1999/02/22-rdf-syntax-ns#"
   xmlns:cc="http://creativecommons.org/ns#"
   xmlns:dc="http://purl.org/dc/elements/1.1/">
  <metadata
     id="metadata10">
    <rdf:RDF>
      <cc:Work
         rdf:about="">
        <dc:format>image/svg+xml</dc:format>
        <dc:type
           rdf:resource="http://purl.org/dc/dcmitype/StillImage" />
      </cc:Work>
    </rdf:RDF>
  </metadata>
  <defs
     id="defs8" />
  <sodipodi:namedview
     pagecolor="#ffffff"
     bordercolor="#666666"
     borderopacity="1"
     objecttolerance="10"
     gridtolerance="10"
     guidetolerance="10"
     inkscape:pageopacity="0"
     inkscape:pageshadow="2"
     inkscape:window-width="1920"
     inkscape:window-height="1016"
     id="namedview6"
     showgrid="true"
     inkscape:zoom="13.75"
     inkscape:cx="-10"
     inkscape:cy="4.2545455"
     inkscape:window-x="0"
     inkscape:window-y="27"
     inkscape:window-maximized="1"
     inkscape:current-layer="svg4"
     inkscape:pagecheckerboard="0">
    <inkscape:grid
       type="xygrid"
       id="grid1437" />
  </sodipodi:namedview>
  <path
     id="path993"
     style="fill:#808080;fill-opacity:1;fill-rule:evenodd;stroke:none;stroke-width:0.75;stroke-linecap:square;stroke-linejoin:round;stroke-opacity:1"
     d="m 11.953614,2.6250143 a 9.375,9.375 0 0 0 -9.328614,9.3749997 9.375,9.375 0 0 0 9.375001,9.375 9.375,9.375 0 0 0 9.374999,-9.375 9.375,9.375 0 0 0 -9.374999,-9.3749997 9.375,9.375 0 0 0 -0.04639,0 z m 0.04639,1.25 a 8.125,8.125 0 0 1 8.124999,8.1249997 8.125,8.125 0 0 1 -8.124999,8.125 8.125,8.125 0 0 1 -8.1250002,-8.125 8.125,8.125 0 0 1 8.1250002,-8.1249997 z" />
  <path
     d="m 15.08625,9.1100141 c 0.9175,0 1.83625,0.5575 1.91375,1.6399999 0.15625,2.16625 -1.875,-0.4225 -3.75,0 0,-1.0824998 0.9175,-1.6399999 1.83625,-1.6399999 z"
     id="path1410"
     style="fill:#808080;fill-opacity:1;stroke-width:1" />
  <path
     d="m 8.9222309,9.1112641 c 0.91875,0 1.8362501,0.5575 1.8362501,1.6387499 -1.8750001,-0.4225 -3.9062505,2.16625 -3.7500005,0 0.07875,-1.0824999 0.9962504,-1.6399999 1.9137504,-1.6399999 z"
     id="path1408"
     style="fill:#808080;fill-opacity:1;stroke-width:1" />
  <rect
     style="fill:#808080;fill-rule:evenodd;stroke-width:1"
     id="rect1439"
     width="2.5"
     height="1.25"
     x="10.75"
     y="15.125014"
     ry="0.5"
     rx="0.5" />
  <circle
     style="fill:#808080;fill-rule:evenodd;stroke-width:1"
     id="path1441"
     cx="7"
     cy="13.250014"
     r="0.9375" />
  <circle
     style="fill:#808080;fill-rule:evenodd;stroke-width:1"
     id="path1443"
     cx="17"
     cy="13.250014"
     r="0.9375" />
</svg>
