<?xml version="1.0" encoding="UTF-8" standalone="no"?>
<svg
   width="24"
   height="24"
   version="1.1"
   id="svg4"
   sodipodi:docname="glasses.svg"
   inkscape:version="1.1 (ce6663b3b7, 2021-05-25)"
   xmlns:inkscape="http://www.inkscape.org/namespaces/inkscape"
   xmlns:sodipodi="http://sodipodi.sourceforge.net/DTD/sodipodi-0.dtd"
   xmlns="http://www.w3.org/2000/svg"
   xmlns:svg="http://www.w3.org/2000/svg"
   xmlns:rdf="http://www.w3.org/1999/02/22-rdf-syntax-ns#"
   xmlns:cc="http://creativecommons.org/ns#"
   xmlns:dc="http://purl.org/dc/elements/1.1/">
  <metadata
     id="metadata10">
    <rdf:RDF>
      <cc:Work
         rdf:about="">
        <dc:format>image/svg+xml</dc:format>
        <dc:type
           rdf:resource="http://purl.org/dc/dcmitype/StillImage" />
      </cc:Work>
    </rdf:RDF>
  </metadata>
  <defs
     id="defs8" />
  <sodipodi:namedview
     pagecolor="#ffffff"
     bordercolor="#666666"
     borderopacity="1"
     objecttolerance="10"
     gridtolerance="10"
     guidetolerance="10"
     inkscape:pageopacity="0"
     inkscape:pageshadow="2"
     inkscape:window-width="1920"
     inkscape:window-height="1016"
     id="namedview6"
     showgrid="true"
     inkscape:zoom="27.5"
     inkscape:cx="0.45454545"
     inkscape:cy="5.5090909"
     inkscape:window-x="0"
     inkscape:window-y="27"
     inkscape:window-maximized="1"
     inkscape:current-layer="svg4"
     inkscape:pagecheckerboard="0">
    <inkscape:grid
       type="xygrid"
       id="grid1422" />
  </sodipodi:namedview>
  <path
     id="rect1424"
     style="fill:#808080;fill-rule:evenodd;stroke-width:1"
     d="m 11.953613,2.6250142 a 9.375,9.375 0 0 0 -9.328613,9.3749998 9.375,9.375 0 0 0 9.375,9.375 9.375,9.375 0 0 0 9.375,-9.375 9.375,9.375 0 0 0 -9.375,-9.3749998 9.375,9.375 0 0 0 -0.04639,0 z m 0.04639,1.25 a 8.125,8.125 0 0 1 6.845703,3.75 h -1.552734 c -0.430967,-0.7485723 -1.238768,-1.25 -2.167968,-1.25 -0.9292,0 -1.737002,0.5014277 -2.167969,1.25 h -1.914063 c -0.430967,-0.7485723 -1.2387689,-1.25 -2.1679687,-1.25 -0.9291997,0 -1.7370014,0.5014277 -2.1679687,1.25 h -1.5258789 a 8.125,8.125 0 0 1 6.8188473,-3.75 z m -3.1640622,3.7304688 c 0.6913495,0 1.2780912,0.5802132 1.2890622,1.2695312 1.04e-4,0.00654 0,0.012969 0,0.019531 v 1.2109378 c 0,0.697912 -0.5911497,1.25 -1.2890622,1.25 -0.6979125,0 -1.25,-0.552088 -1.25,-1.25 v -1.2109378 c 0,-0.00656 -9.73e-5,-0.012987 0,-0.019531 h 0.039063 v -0.2929687 c 0.1355422,-0.5531308 0.6203332,-0.9765625 1.210937,-0.9765625 z m 6.2890622,0.019531 c 0.697913,0 1.25,0.59115 1.25,1.2890625 v 1.2109375 c 0,0.697912 -0.552087,1.25 -1.25,1.25 -0.697913,0 -1.25,-0.552088 -1.25,-1.25 v -1.2109375 c 0,-0.6979125 0.552087,-1.2890625 1.25,-1.2890625 z m -10.5981442,1.25 h 1.8481445 v 1.25 c 0,1.385 1.115,2.5 2.5,2.5 1.3849997,0 2.4999997,-1.115 2.4999997,-2.5 v -1.25 h 1.25 v 1.25 c 0,1.385 1.115,2.5 2.5,2.5 1.385,0 2.5,-1.115 2.5,-2.5 v -1.25 h 1.872559 a 8.125,8.125 0 0 1 0.627441,3.125 8.125,8.125 0 0 1 -8.125,8.125 8.125,8.125 0 0 1 -8.1249997,-8.125 8.125,8.125 0 0 1 0.6518555,-3.125 z m 1.8481445,5 v 0.78125 c 0,0.1078 0.043951,0.307096 0.112305,0.53711 2.2640445,1.507263 8.4523187,1.531231 10.8959967,0.07569 0.12784,-0.337685 0.19876,-0.614741 0.207519,-0.72998 l 0.03417,-0.664062 c -2.29255,1.629312 -9.0070092,1.629312 -11.2500005,0 z" />
</svg>
