<?xml version="1.0" encoding="UTF-8" standalone="no"?>
<svg
   width="24"
   height="24"
   version="1.1"
   id="svg8"
   sodipodi:docname="monkey.svg"
   inkscape:version="1.1 (ce6663b3b7, 2021-05-25)"
   xmlns:inkscape="http://www.inkscape.org/namespaces/inkscape"
   xmlns:sodipodi="http://sodipodi.sourceforge.net/DTD/sodipodi-0.dtd"
   xmlns="http://www.w3.org/2000/svg"
   xmlns:svg="http://www.w3.org/2000/svg"
   xmlns:rdf="http://www.w3.org/1999/02/22-rdf-syntax-ns#"
   xmlns:cc="http://creativecommons.org/ns#"
   xmlns:dc="http://purl.org/dc/elements/1.1/">
  <metadata
     id="metadata14">
    <rdf:RDF>
      <cc:Work
         rdf:about="">
        <dc:format>image/svg+xml</dc:format>
        <dc:type
           rdf:resource="http://purl.org/dc/dcmitype/StillImage" />
      </cc:Work>
    </rdf:RDF>
  </metadata>
  <defs
     id="defs12" />
  <sodipodi:namedview
     pagecolor="#ffffff"
     bordercolor="#666666"
     borderopacity="1"
     objecttolerance="10"
     gridtolerance="10"
     guidetolerance="10"
     inkscape:pageopacity="0"
     inkscape:pageshadow="2"
     inkscape:window-width="1920"
     inkscape:window-height="1016"
     id="namedview10"
     showgrid="true"
     inkscape:zoom="11.313709"
     inkscape:cx="-8.6178639"
     inkscape:cy="4.0216698"
     inkscape:window-x="0"
     inkscape:window-y="27"
     inkscape:window-maximized="1"
     inkscape:current-layer="svg8"
     inkscape:pagecheckerboard="0">
    <inkscape:grid
       type="xygrid"
       id="grid870" />
  </sodipodi:namedview>
  <path
     id="path4"
     style="fill:#808080;fill-opacity:1;stroke-width:1;marker:none"
     d="m 11.804687,2.0390653 c -1.359499,0.8132621 -1.345335,1.7641924 -1.188965,2.3217774 0.12394,-0.021098 0.248501,-0.039009 0.373536,-0.053711 -2.6282146,0.3161592 -4.772386,2.0123997 -5.5493169,4.2651368 0.00482,-0.014665 0.00971,-0.029314 0.014649,-0.043945 -0.3382067,-0.2399024 -0.6973457,-0.3955078 -1.1108399,-0.3955078 -1.2925,0 -2.34375,1.355 -2.34375,2.9687503 0,1.616249 1.05125,2.929687 2.34375,2.929687 0.58375,0 1.1071875,-0.264375 1.5234375,-0.703125 0.010525,-0.0049 0.023619,-0.0073 0.03418,-0.01221 0,0 -0.03418,0.01221 0,0 0.173205,0.302066 0.372961,0.592298 0.6005859,0.8667 -2.0137263,0.801714 -3.3300782,2.020089 -3.3300782,3.40332 0,2.41625 3.9390625,4.375 8.7890626,4.375 4.849999,0 8.789062,-1.95875 8.789062,-4.375 0,-1.413309 -1.370116,-2.657197 -3.459473,-3.457031 0.609689,-0.735148 0.605469,-0.898438 0.605469,-0.898438 0.101613,0.04966 0.216419,0.08369 0.314941,0.136719 0.4,0.4025 0.887813,0.664062 1.445313,0.664062 1.2925,0 2.34375,-1.313437 2.34375,-2.929687 0,-1.6149998 -1.05125,-2.9687498 -2.34375,-2.9687498 -0.493695,0 -0.936714,0.2111597 -1.311035,0.5444337 -0.698321,-2.1589987 -2.64577,-3.8238319 -5.075683,-4.2919923 0.05959,0.011475 0.118997,0.023677 0.178222,0.036621 -0.168968,-0.8376333 -0.12191,-2.1469626 2.067871,-1.9921875 -0.339063,-0.1239063 -0.6469,-0.1855347 -0.925293,-0.1977539 -1.698999,-0.074572 -2.276766,1.57429 -2.407226,2.0239257 0.121499,0.00595 0.242799,0.0149 0.363769,0.026855 -0.220684,-0.019946 -0.444977,-0.031754 -0.671386,-0.031739 -0.0236,-2.074e-4 -0.0472,-1.95e-5 -0.0708,0 -0.345075,-0.3203781 -0.672306,-0.9904798 0,-2.211914 z m -0.09521,2.2143555 c -0.196581,0.00441 -0.391498,0.017167 -0.583496,0.036621 0.19383,-0.019929 0.388512,-0.032147 0.583496,-0.036621 z m 0.881348,0.031739 c 0.194869,0.01911 0.388738,0.045991 0.581055,0.080566 -0.191468,-0.03416 -0.384174,-0.061584 -0.581055,-0.080566 z m -0.759277,1.2158202 c 0.01465,-5.25e-5 0.0293,-5.25e-5 0.04395,0 3.037332,-2.417e-4 5.499887,2.2098279 5.500488,4.936524 -3.87e-4,1.209869 -0.495589,2.377499 -1.391601,3.281249 -1.210879,-0.313106 -2.565784,-0.507812 -4.023438,-0.507812 -1.512263,0 -2.9143783,0.20907 -4.157715,0.544433 -0.9187029,-0.908258 -1.4278436,-2.09103 -1.4282226,-3.31787 5.03e-4,-2.7113627 2.4363856,-4.9151006 5.4565436,-4.936524 z m -1.745606,2.8271485 c -0.4749999,0 -0.8203124,0.8084375 -0.8203124,1.8359375 0,1.02875 0.3453125,1.875 0.8203124,1.875 0.475,0 0.898438,-0.84625 0.898438,-1.875 0,-1.0275 -0.423438,-1.8359375 -0.898438,-1.8359375 z m 3.75,0 c -0.475,0 -0.820312,0.8084375 -0.820312,1.8359375 0,1.02875 0.345312,1.875 0.820312,1.875 0.475,0 0.898438,-0.84625 0.898438,-1.875 0,-1.0275 -0.423438,-1.8359375 -0.898438,-1.8359375 z m 4.516602,0.378418 c 0,0 -0.0074,-0.029303 0,0 z m -6.391597,5.7543945 c 4.160198,0 7.539063,1.399107 7.539063,3.124999 0,1.725893 -3.378865,3.125 -7.539063,3.125 -4.1601975,0 -7.5390624,-1.399107 -7.5390624,-3.125 0,-1.725892 3.3788648,-3.124999 7.5390624,-3.124999 z m -4.9999999,1.650389 c 0,1e-6 -0.1774087,2.909469 4.9389649,2.94922 5.021972,0.03975 5.061035,-2.919922 5.061035,-2.919922 0,0 -0.702827,1.987305 -5.061035,1.987305 -4.5728396,0 -4.9389649,-2.016603 -4.9389649,-2.016603 z"
     sodipodi:nodetypes="cccccsssccccssscccsssccccsccccccccccccsccscccsssssscsssccccscccsccss" />
</svg>
