<?xml version="1.0" encoding="UTF-8" standalone="no"?>
<svg
   width="24"
   height="24"
   version="1.1"
   id="svg4"
   sodipodi:docname="sad.svg"
   inkscape:version="1.1 (ce6663b3b7, 2021-05-25)"
   xmlns:inkscape="http://www.inkscape.org/namespaces/inkscape"
   xmlns:sodipodi="http://sodipodi.sourceforge.net/DTD/sodipodi-0.dtd"
   xmlns="http://www.w3.org/2000/svg"
   xmlns:svg="http://www.w3.org/2000/svg"
   xmlns:rdf="http://www.w3.org/1999/02/22-rdf-syntax-ns#"
   xmlns:cc="http://creativecommons.org/ns#"
   xmlns:dc="http://purl.org/dc/elements/1.1/">
  <metadata
     id="metadata10">
    <rdf:RDF>
      <cc:Work
         rdf:about="">
        <dc:format>image/svg+xml</dc:format>
        <dc:type
           rdf:resource="http://purl.org/dc/dcmitype/StillImage" />
      </cc:Work>
    </rdf:RDF>
  </metadata>
  <defs
     id="defs8" />
  <sodipodi:namedview
     pagecolor="#ffffff"
     bordercolor="#666666"
     borderopacity="1"
     objecttolerance="10"
     gridtolerance="10"
     guidetolerance="10"
     inkscape:pageopacity="0"
     inkscape:pageshadow="2"
     inkscape:window-width="1920"
     inkscape:window-height="1016"
     id="namedview6"
     showgrid="false"
     inkscape:zoom="19.445436"
     inkscape:cx="8.4595686"
     inkscape:cy="7.2767718"
     inkscape:window-x="0"
     inkscape:window-y="27"
     inkscape:window-maximized="1"
     inkscape:current-layer="svg4"
     inkscape:pagecheckerboard="0" />
  <path
     id="path987"
     style="display:inline;fill:#808080;fill-opacity:1;stroke:none;stroke-width:1"
     d="m 6.3749997,16.342586 v -0.78125 c 0,-0.1078 0.043951,-0.307096 0.112305,-0.53711 2.2640443,-1.507263 8.4523183,-1.531236 10.8959953,-0.07569 0.12784,0.337685 0.19876,0.614741 0.207519,0.72998 l 0.03417,0.664062 c -2.29255,-1.629312 -9.007008,-1.629312 -11.249999,0 z" />
  <path
     style="display:inline;fill:#808080;fill-opacity:1;stroke:none;stroke-width:1"
     d="m 15.125025,7.6250149 c 0.697913,0 1.25,0.5911498 1.25,1.2890622 v 1.2109379 c 0,0.697912 -0.552087,1.249999 -1.25,1.249999 -0.697913,0 -1.25,-0.552087 -1.25,-1.249999 v -1.2109379 c 0,-0.6979124 0.552087,-1.2890622 1.25,-1.2890622 z"
     id="path985" />
  <path
     style="display:inline;fill:#808080;fill-opacity:1;stroke:none;stroke-width:1"
     d="m 8.835937,7.6054837 c 0.6979124,0 1.289062,0.5911497 1.289062,1.2890621 v 1.2109372 c 0,0.697913 -0.5911496,1.25 -1.289062,1.25 -0.6979124,0 -1.2499999,-0.552087 -1.2499999,-1.25 v -1.2109372 c 0,-0.6979124 0.5520875,-1.2890621 1.2499999,-1.2890621 z"
     id="path983" />
  <path
     id="path993"
     style="fill:#808080;fill-opacity:1;fill-rule:evenodd;stroke:none;stroke-width:0.75;stroke-linecap:square;stroke-linejoin:round;stroke-opacity:1"
     d="m 11.953614,2.6250152 a 9.3749993,9.3749993 0 0 0 -9.328614,9.3749988 9.3749993,9.3749993 0 0 0 9.375,9.374999 9.3749993,9.3749993 0 0 0 9.375,-9.374999 9.3749993,9.3749993 0 0 0 -9.375,-9.3749988 9.3749993,9.3749993 0 0 0 -0.04639,0 z m 0.04639,1.2499999 a 8.1249994,8.1249994 0 0 1 8.124999,8.1249989 8.1249994,8.1249994 0 0 1 -8.124999,8.124999 8.1249994,8.1249994 0 0 1 -8.1250004,-8.124999 8.1249994,8.1249994 0 0 1 8.1250004,-8.1249989 z" />
</svg>
