<?xml version="1.0" encoding="UTF-8" standalone="no"?>
<svg viewBox="0 1 24 24" height="24" width="24" version="1.1" id="svg4" sodipodi:docname="_.svg" inkscape:version="1.1 (ce6663b3b7, 2021-05-25)"
   xmlns:inkscape="http://www.inkscape.org/namespaces/inkscape"
   xmlns:sodipodi="http://sodipodi.sourceforge.net/DTD/sodipodi-0.dtd"
   xmlns="http://www.w3.org/2000/svg"
   xmlns:svg="http://www.w3.org/2000/svg">
   <defs id="defs8" />
   <sodipodi:namedview id="namedview6" pagecolor="#ffffff" bordercolor="#666666" borderopacity="1.0" inkscape:pageshadow="2" inkscape:pageopacity="0.0" inkscape:pagecheckerboard="0" showgrid="true" width="24px" inkscape:zoom="19.79899" inkscape:cx="1.7930208" inkscape:cy="9.4954339" inkscape:window-width="1920" inkscape:window-height="1043" inkscape:window-x="1920" inkscape:window-y="0" inkscape:window-maximized="1" inkscape:current-layer="svg4">
      <inkscape:grid type="xygrid" id="grid821" />
      <inkscape:grid type="xygrid" id="grid881" dotted="true" spacingx="0.5" spacingy="0.5" empspacing="10" />
   </sodipodi:namedview>
   <path id="rect867" style="fill:#808080;fill-rule:evenodd;stroke-width:0.5;stroke-linecap:round;stroke-linejoin:round;fill-opacity:1" d="M 6 2 L 6 7.0078125 C 4.9331312 7.0375525 4.020411 7.1789501 3.2949219 7.640625 C 2.4585413 8.1728672 2 9.1500014 2 10.5 L 2 14.5 C 2 15.849999 2.4585413 16.827133 3.2949219 17.359375 C 4.020411 17.82105 4.9331312 17.962447 6 17.992188 L 6 22 L 18 22 L 18 17.992188 C 19.066869 17.962447 19.97959 17.82105 20.705078 17.359375 C 21.541459 16.827133 22 15.849999 22 14.5 L 22 10.5 C 22 9.1500014 21.541459 8.1728672 20.705078 7.640625 C 19.97959 7.1789501 19.066869 7.0375523 18 7.0078125 L 18 2 L 6 2 z M 7 3 L 17 3 L 17 7 L 7 7 L 7 3 z M 6.5 8 L 7 8 L 17 8 L 17.5 8 C 18.716665 8 19.631304 8.1416181 20.169922 8.484375 C 20.70854 8.8271319 21 9.3500012 21 10.5 L 21 14.5 C 21 15.649999 20.70854 16.172868 20.169922 16.515625 C 19.708166 16.80947 18.967854 16.954545 18 16.990234 L 18 15 L 17 15 L 17 21 L 7 21 L 7 15 L 6 15 L 6 16.990234 C 5.0321461 16.954544 4.2918341 16.80947 3.8300781 16.515625 C 3.2914601 16.172868 3 15.649999 3 14.5 L 3 10.5 C 3 9.3500012 3.2914601 8.8271319 3.8300781 8.484375 C 4.3686961 8.1416181 5.2833345 8 6.5 8 z M 18 10 A 1 1 0 0 0 17 11 A 1 1 0 0 0 18 12 A 1 1 0 0 0 19 11 A 1 1 0 0 0 18 10 z M 8 17 L 8 18 L 16 18 L 16 17 L 8 17 z M 8 19 L 8 20 L 16 20 L 16 19 L 8 19 z " />
</svg>
