<?xml version="1.0" encoding="UTF-8" standalone="no"?>
<svg
   viewBox="0 0 24 24"
   height="24"
   width="24"
   version="1.1"
   id="svg6"
   sodipodi:docname="error-filled.svg"
   inkscape:version="1.2 (1:1.2.1+202207142221+cd75a1ee6d)"
   xmlns:inkscape="http://www.inkscape.org/namespaces/inkscape"
   xmlns:sodipodi="http://sodipodi.sourceforge.net/DTD/sodipodi-0.dtd"
   xmlns="http://www.w3.org/2000/svg"
   xmlns:svg="http://www.w3.org/2000/svg">
  <defs
     id="defs10" />
  <sodipodi:namedview
     id="namedview8"
     pagecolor="#ffffff"
     bordercolor="#666666"
     borderopacity="1.0"
     inkscape:pageshadow="2"
     inkscape:pageopacity="0.0"
     inkscape:pagecheckerboard="0"
     showgrid="true"
     inkscape:zoom="28"
     inkscape:cx="15.25"
     inkscape:cy="12"
     inkscape:window-width="1920"
     inkscape:window-height="1043"
     inkscape:window-x="0"
     inkscape:window-y="0"
     inkscape:window-maximized="1"
     inkscape:current-layer="svg6"
     inkscape:showpageshadow="2"
     inkscape:deskcolor="#d1d1d1">
    <inkscape:grid
       type="xygrid"
       id="grid822" />
    <inkscape:grid
       type="xygrid"
       id="grid522"
       dotted="true"
       spacingx="0.5"
       spacingy="0.5"
       empspacing="10" />
  </sodipodi:namedview>
  <path
     id="path981"
     style="fill:#808080;fill-opacity:1;fill-rule:evenodd;stroke-width:0.5;stroke-linecap:round;stroke-linejoin:round"
     d="M 17.5 13 C 15.014721 13 13 15.014721 13 17.5 C 13 19.985279 15.014721 22 17.5 22 C 19.985279 22 22 19.985279 22 17.5 C 22 15.014721 19.985279 13 17.5 13 z M 15.853516 15.146484 L 17.5 16.792969 L 19.146484 15.146484 L 19.853516 15.853516 L 18.207031 17.5 L 19.853516 19.146484 L 19.146484 19.853516 L 17.5 18.207031 L 15.853516 19.853516 L 15.146484 19.146484 L 16.792969 17.5 L 15.146484 15.853516 L 15.853516 15.146484 z " />
  <path
     id="rect867"
     style="fill:#808080;fill-opacity:1;fill-rule:evenodd;stroke-width:0.5;stroke-linecap:round;stroke-linejoin:round"
     d="M 6 2 L 6 6 L 18 6 L 18 2 L 6 2 z M 6 7 L 6 7.0078125 C 4.9331389 7.0375525 4.0204054 7.1789536 3.2949219 7.640625 C 2.4585469 8.1728637 2 9.150011 2 10.5 L 2 14.5 C 2 15.849992 2.4585469 16.82714 3.2949219 17.359375 C 3.781655 17.669116 4.3547035 17.831599 5 17.916016 L 5 14 L 13.267578 14 A 5.5 5.5 0 0 1 17.5 12 A 5.5 5.5 0 0 1 22 14.341797 L 22 10.5 C 22 9.150011 21.541452 8.1728637 20.705078 7.640625 C 19.979597 7.1789536 19.066862 7.0375523 18 7.0078125 L 18 7 L 6 7 z M 18 10 C 18.552284 10 19 10.447716 19 11 C 19 11.552284 18.552284 12 18 12 C 17.447716 12 17 11.552284 17 11 C 17 10.447716 17.447716 10 18 10 z M 6 15 L 6 17.992188 L 6 20 L 6 22 L 14.357422 22 A 5.5 5.5 0 0 1 12.613281 20 L 8 20 L 8 19 L 12.212891 19 A 5.5 5.5 0 0 1 12.037109 18 L 8 18 L 8 17 L 12.037109 17 A 5.5 5.5 0 0 1 12.613281 15 L 6 15 z " />
</svg>
