<?xml version="1.0" encoding="UTF-8" standalone="no"?>
<svg
   viewBox="0 0 24 24"
   height="24"
   width="24"
   version="1.1"
   id="svg4"
   sodipodi:docname="filled.svg"
   inkscape:version="1.2 (1:1.2.1+202207142221+cd75a1ee6d)"
   xmlns:inkscape="http://www.inkscape.org/namespaces/inkscape"
   xmlns:sodipodi="http://sodipodi.sourceforge.net/DTD/sodipodi-0.dtd"
   xmlns="http://www.w3.org/2000/svg"
   xmlns:svg="http://www.w3.org/2000/svg">
  <defs
     id="defs8" />
  <sodipodi:namedview
     id="namedview6"
     pagecolor="#ffffff"
     bordercolor="#666666"
     borderopacity="1.0"
     inkscape:pageshadow="2"
     inkscape:pageopacity="0.0"
     inkscape:pagecheckerboard="0"
     showgrid="true"
     width="24px"
     inkscape:zoom="39.59798"
     inkscape:cx="9.1418805"
     inkscape:cy="13.990613"
     inkscape:window-width="1920"
     inkscape:window-height="1043"
     inkscape:window-x="0"
     inkscape:window-y="0"
     inkscape:window-maximized="1"
     inkscape:current-layer="svg4"
     inkscape:showpageshadow="2"
     inkscape:deskcolor="#d1d1d1">
    <inkscape:grid
       type="xygrid"
       id="grid821" />
    <inkscape:grid
       type="xygrid"
       id="grid881"
       dotted="true"
       spacingx="0.5"
       spacingy="0.5"
       empspacing="10" />
  </sodipodi:namedview>
  <path
     id="rect867"
     style="fill:#808080;fill-opacity:1;fill-rule:evenodd;stroke-width:0.5;stroke-linecap:round;stroke-linejoin:round"
     d="m 6,2 v 4 h 12 v -4 z m 0,5 v 0.00781 c -1.0668622,0.02974 -1.9795938,0.1711406 -2.7050781,0.6328125 -0.8363758,0.5322392 -1.2949219,1.5093842 -1.2949219,2.8593745 v 4 c 0,1.349993 0.4585461,2.327139 1.2949219,2.859375 0.4867336,0.309741 1.059781,0.472224 1.7050781,0.556641 v -3.916013 h 14 v 3.916013 c 0.645295,-0.08442 1.218347,-0.2469 1.705078,-0.556641 0.836375,-0.532236 1.294922,-1.509382 1.294922,-2.859375 v -4 c 0,-1.3499903 -0.458547,-2.3271353 -1.294922,-2.8593745 -0.725482,-0.4616719 -1.638215,-0.6030727 -2.705078,-0.6328125 v -0.00781 z m 12,3 c 0.552285,0 1,0.447715 1,1 0,0.552285 -0.447715,1 -1,1 -0.552285,0 -1,-0.447715 -1,-1 0,-0.552285 0.447715,-1 1,-1 z m -12,5.000003 v 2.992185 2.007812 2 h 12 v -2 -2.007812 -2.992186 z m 2,1.999997 h 8 v 1 h -8 z m 0,2 h 8 v 1 h -8 z"
     sodipodi:nodetypes="cccccccsssscccccssscccsssssccccccccccccccccccc" />
</svg>
