<svg height="24" width="24" xmlns="http://www.w3.org/2000/svg"><path style="fill:gray;fill-opacity:1;stroke-width:.5;stroke-linecap:round;stroke-linejoin:round" d="M6 2v4h12V2zm0 5v.008c-1.067.03-1.98.171-2.705.633C2.459 8.173 2 9.15 2 10.5v4c0 1.35.459 2.327 1.295 2.86.487.31 1.06.472 1.705.556V14h14v3.916c.645-.084 1.218-.247 1.705-.557C21.541 16.827 22 15.85 22 14.5v-4c0-1.35-.459-2.327-1.295-2.86-.725-.461-1.638-.602-2.705-.632V7zm12 3a1 1 0 1 1 0 2 1 1 0 0 1 0-2zM6 15v7h12v-7zm2 2h8v1H8zm0 2h8v1H8z"/></svg>