<?xml version="1.0" encoding="UTF-8" standalone="no"?>
<svg viewBox="0 1 24 24" version="1.1" id="svg4" sodipodi:docname="preview.svg" inkscape:version="1.1 (ce6663b3b7, 2021-05-25)" width="24" height="24"
   xmlns:inkscape="http://www.inkscape.org/namespaces/inkscape"
   xmlns:sodipodi="http://sodipodi.sourceforge.net/DTD/sodipodi-0.dtd"
   xmlns="http://www.w3.org/2000/svg"
   xmlns:svg="http://www.w3.org/2000/svg"
   xmlns:rdf="http://www.w3.org/1999/02/22-rdf-syntax-ns#"
   xmlns:cc="http://creativecommons.org/ns#"
   xmlns:dc="http://purl.org/dc/elements/1.1/">
   <metadata id="metadata10">
      <rdf:RDF>
         <cc:Work rdf:about="">
            <dc:format>image/svg+xml</dc:format>
            <dc:type rdf:resource="http://purl.org/dc/dcmitype/StillImage" />
         </cc:Work>
      </rdf:RDF>
   </metadata>
   <defs id="defs8" />
   <sodipodi:namedview pagecolor="#ffffff" bordercolor="#666666" borderopacity="1" objecttolerance="10" gridtolerance="10" guidetolerance="10" inkscape:pageopacity="0" inkscape:pageshadow="2" inkscape:window-width="1920" inkscape:window-height="1043" id="namedview6" showgrid="true" inkscape:zoom="19.445436" inkscape:cx="2.0827509" inkscape:cy="12.18795" inkscape:window-x="1920" inkscape:window-y="0" inkscape:window-maximized="1" inkscape:current-layer="svg4" inkscape:pagecheckerboard="0">
      <inkscape:grid type="xygrid" id="grid850" />
   </sodipodi:namedview>
   <path id="path1244" style="color:#000000;font-style:normal;font-variant:normal;font-weight:normal;font-stretch:normal;font-size:medium;line-height:normal;font-family:sans-serif;font-variant-ligatures:normal;font-variant-position:normal;font-variant-caps:normal;font-variant-numeric:normal;font-variant-alternates:normal;font-variant-east-asian:normal;font-feature-settings:normal;font-variation-settings:normal;text-indent:0;text-align:start;text-decoration:none;text-decoration-line:none;text-decoration-style:solid;text-decoration-color:#000000;letter-spacing:normal;word-spacing:normal;text-transform:none;writing-mode:lr-tb;direction:ltr;text-orientation:mixed;dominant-baseline:auto;baseline-shift:baseline;text-anchor:start;white-space:normal;shape-padding:0;shape-margin:0;inline-size:0;clip-rule:nonzero;display:inline;overflow:visible;visibility:visible;opacity:1;isolation:auto;mix-blend-mode:normal;color-interpolation:sRGB;color-interpolation-filters:linearRGB;solid-color:#000000;solid-opacity:1;vector-effect:none;fill:#808080;fill-opacity:1;fill-rule:nonzero;stroke:none;stroke-width:1;stroke-linecap:round;stroke-linejoin:miter;stroke-miterlimit:4;stroke-dasharray:none;stroke-dashoffset:0;stroke-opacity:1;marker:none;color-rendering:auto;image-rendering:auto;shape-rendering:auto;text-rendering:auto;enable-background:accumulate;stop-color:#000000;stop-opacity:1" d="m 15.75,12 c -2.063665,0 -3.75,1.686335 -3.75,3.75 0,2.063665 1.686335,3.75 3.75,3.75 0.845181,0 1.617418,-0.293255 2.246094,-0.769042 a 0.83553746,0.83553746 0 0 0 0.239257,0.686035 l 2.089844,2.089843 a 0.83553746,0.83553746 0 0 0 1.181641,0 0.83553746,0.83553746 0 0 0 0,-1.181641 l -2.089843,-2.089844 a 0.83553746,0.83553746 0 0 0 -0.620118,-0.24414 0.83553746,0.83553746 0 0 0 -0.06591,0.0049 c 0.475788,-0.628676 0.769043,-1.400912 0.769043,-2.246093 0,-2.063665 -1.686335,-3.75 -3.75,-3.75 z m 0,1.25 c 1.388115,0 2.5,1.111885 2.5,2.5 0,1.388115 -1.111885,2.5 -2.5,2.5 -1.388115,0 -2.5,-1.111885 -2.5,-2.5 0,-1.388115 1.111885,-2.5 2.5,-2.5 z" />
   <path id="rect867" style="fill:#808080;fill-opacity:1;fill-rule:evenodd;stroke-width:0.5;stroke-linecap:round;stroke-linejoin:round" d="m 6,2 v 5.0078125 c -1.0668688,0.02974 -1.979589,0.1711376 -2.7050781,0.6328125 -0.8363806,0.5322422 -1.2949219,1.5093764 -1.2949219,2.859375 v 4 c 0,1.349999 0.4585413,2.327133 1.2949219,2.859375 0.7254891,0.461675 1.6382093,0.603072 2.7050781,0.632813 v 4.007812 h 12 v -1.402344 l -0.472656,-0.472656 c -0.0046,-0.0046 -0.0014,-0.01298 -0.0059,-0.01758 -0.170139,0.07116 -0.344249,0.134054 -0.521484,0.189453 v 0.703125 h -10 v -6 h -1 v 1.990234 c -0.9678539,-0.03569 -1.7081659,-0.180764 -2.1699219,-0.474609 -0.538618,-0.342757 -0.8300781,-0.865626 -0.8300781,-2.015625 v -4 c 0,-1.1499988 0.2914601,-1.6728681 0.8300781,-2.015625 0.538618,-0.3427569 1.4532564,-0.484375 2.6699219,-0.484375 h 0.5 10 0.5 c 1.216665,0 2.131304,0.1416181 2.669922,0.484375 0.538618,0.3427569 0.830078,0.8656262 0.830078,2.015625 v 4 c 0,0.919311 -0.189183,1.435105 -0.539062,1.78125 -0.0607,0.434733 -0.188948,0.846767 -0.353516,1.240234 0.0041,0.0041 0.01152,0.0018 0.01563,0.0059 h 0.002 l 0.08398,0.08398 c 0.173237,-0.07179 0.339887,-0.152548 0.496094,-0.251953 0.836381,-0.532242 1.294922,-1.509376 1.294922,-2.859375 v -4 c 0,-1.3499986 -0.458541,-2.3271328 -1.294922,-2.859375 -0.725488,-0.4616749 -1.638209,-0.6030727 -2.705078,-0.6328125 v -5.0078125 z m 1,1 h 10 v 4 h -10 z m 11,7 c -0.552285,0 -1,0.447715 -1,1 0.0048,0.09523 0.02324,0.189281 0.05469,0.279297 0.486722,0.140474 0.944061,0.353521 1.355468,0.626953 0.357065,-0.160573 0.587584,-0.514748 0.589844,-0.90625 0,-0.552285 -0.447715,-1 -1,-1 z m -10,7 v 1 h 3.572266 c -0.170464,-0.313743 -0.305701,-0.649546 -0.402344,-1 z m 0,2 v 1 h 5.640625 c -0.504621,-0.252861 -0.959904,-0.592697 -1.34375,-1 z" sodipodi:nodetypes="ccssssccccccccccccsssssccsssscccccssssccccccccsccccscccccccccc" />
</svg>
