<svg width="24" height="24" xmlns="http://www.w3.org/2000/svg"><path style="color:#000;font-style:normal;font-variant:normal;font-weight:400;font-stretch:normal;font-size:medium;line-height:normal;font-family:sans-serif;font-variant-ligatures:normal;font-variant-position:normal;font-variant-caps:normal;font-variant-numeric:normal;font-variant-alternates:normal;font-variant-east-asian:normal;font-feature-settings:normal;font-variation-settings:normal;text-indent:0;text-align:start;text-decoration:none;text-decoration-line:none;text-decoration-style:solid;text-decoration-color:#000;letter-spacing:normal;word-spacing:normal;text-transform:none;writing-mode:lr-tb;direction:ltr;text-orientation:mixed;dominant-baseline:auto;baseline-shift:baseline;text-anchor:start;white-space:normal;shape-padding:0;shape-margin:0;inline-size:0;clip-rule:nonzero;display:inline;overflow:visible;visibility:visible;opacity:1;isolation:auto;mix-blend-mode:normal;color-interpolation:sRGB;color-interpolation-filters:linearRGB;solid-color:#000;solid-opacity:1;vector-effect:none;fill:gray;fill-opacity:1;fill-rule:nonzero;stroke:none;stroke-width:1;stroke-linecap:round;stroke-linejoin:miter;stroke-miterlimit:4;stroke-dasharray:none;stroke-dashoffset:0;stroke-opacity:1;marker:none;color-rendering:auto;image-rendering:auto;shape-rendering:auto;text-rendering:auto;enable-background:accumulate;stop-color:#000;stop-opacity:1" d="M15.75 12A3.76 3.76 0 0 0 12 15.75a3.76 3.76 0 0 0 3.75 3.75c.845 0 1.617-.293 2.246-.769a.836.836 0 0 0 .24.686l2.09 2.09a.836.836 0 0 0 1.18 0 .836.836 0 0 0 0-1.182l-2.089-2.09a.836.836 0 0 0-.62-.244.836.836 0 0 0-.066.005c.476-.629.769-1.4.769-2.246A3.76 3.76 0 0 0 15.75 12zm0 1.25a2.49 2.49 0 0 1 2.5 2.5 2.49 2.49 0 0 1-2.5 2.5 2.49 2.49 0 0 1-2.5-2.5 2.49 2.49 0 0 1 2.5-2.5z"/><path style="fill:gray;fill-opacity:1;stroke-width:.5;stroke-linecap:round;stroke-linejoin:round" d="M6 2v5.008c-1.067.03-1.98.171-2.705.633C2.459 8.173 2 9.15 2 10.5v4c0 1.35.459 2.327 1.295 2.86.725.461 1.638.602 2.705.632V22h12v-1.402l-.473-.473c-.004-.005-.001-.013-.006-.018-.17.072-.344.134-.521.19V21H7v-6H6v1.99c-.968-.035-1.708-.18-2.17-.474C3.291 16.173 3 15.65 3 14.5v-4c0-1.15.291-1.673.83-2.016C4.369 8.142 5.283 8 6.5 8h11c1.217 0 2.131.142 2.67.484.538.343.83.866.83 2.016v4c0 .92-.19 1.435-.54 1.781-.06.435-.188.847-.353 1.24.004.005.012.002.016.006h.002l.084.084c.173-.071.34-.152.496-.252C21.541 16.827 22 15.85 22 14.5v-4c0-1.35-.459-2.327-1.295-2.86-.725-.461-1.638-.602-2.705-.632V2zm1 1h10v4H7zm11 7a1 1 0 0 0-1 1 1 1 0 0 0 .055.28c.486.14.944.353 1.355.626A1 1 0 0 0 19 11a1 1 0 0 0-1-1zM8 17v1h3.572a4.728 4.728 0 0 1-.402-1zm0 2v1h5.64a4.808 4.808 0 0 1-1.343-1z"/></svg>