<svg width="24" height="24" xmlns="http://www.w3.org/2000/svg"><path style="color:#000;font-style:normal;font-variant:normal;font-weight:400;font-stretch:normal;font-size:medium;line-height:normal;font-family:sans-serif;font-variant-ligatures:normal;font-variant-position:normal;font-variant-caps:normal;font-variant-numeric:normal;font-variant-alternates:normal;font-variant-east-asian:normal;font-feature-settings:normal;font-variation-settings:normal;text-indent:0;text-align:start;text-decoration:none;text-decoration-line:none;text-decoration-style:solid;text-decoration-color:#000;letter-spacing:normal;word-spacing:normal;text-transform:none;writing-mode:lr-tb;direction:ltr;text-orientation:mixed;dominant-baseline:auto;baseline-shift:baseline;text-anchor:start;white-space:normal;shape-padding:0;shape-margin:0;inline-size:0;clip-rule:nonzero;display:inline;overflow:visible;visibility:visible;opacity:1;isolation:auto;mix-blend-mode:normal;color-interpolation:sRGB;color-interpolation-filters:linearRGB;solid-color:#000;solid-opacity:1;vector-effect:none;fill:gray;fill-opacity:1;fill-rule:nonzero;stroke:none;stroke-width:1;stroke-linecap:round;stroke-linejoin:miter;stroke-miterlimit:4;stroke-dasharray:none;stroke-dashoffset:0;stroke-opacity:1;marker:none;color-rendering:auto;image-rendering:auto;shape-rendering:auto;text-rendering:auto;enable-background:accumulate;stop-color:#000;stop-opacity:1" d="M15.75 12A3.76 3.76 0 0 0 12 15.75a3.76 3.76 0 0 0 3.75 3.75c.845 0 1.617-.293 2.246-.769a.836.836 0 0 0 .24.686l2.09 2.09a.836.836 0 0 0 1.18 0 .836.836 0 0 0 0-1.182l-2.089-2.09a.836.836 0 0 0-.62-.244.836.836 0 0 0-.066.005c.476-.629.769-1.4.769-2.246A3.76 3.76 0 0 0 15.75 12zm0 1.25a2.49 2.49 0 0 1 2.5 2.5 2.49 2.49 0 0 1-2.5 2.5 2.49 2.49 0 0 1-2.5-2.5 2.49 2.49 0 0 1 2.5-2.5z"/><path style="fill:gray;fill-opacity:1;stroke-width:.5;stroke-linecap:round;stroke-linejoin:round" d="M6 2v4h12V2H6zm0 5v.008c-1.067.03-1.98.171-2.705.633C2.459 8.173 2 9.15 2 10.5v4c0 1.35.459 2.327 1.295 2.86.487.31 1.06.472 1.705.556V14h6.338c.702-1.751 2.42-3 4.412-3h.65l.065.146c.197.032.39.075.578.13A.985.985 0 0 1 17 11a1 1 0 1 1 1.414.908c1.252.834 2.086 2.228 2.086 3.842 0 .44-.081.854-.205 1.25h.842c.557-.566.863-1.408.863-2.5v-4c0-1.35-.459-2.327-1.295-2.86-.725-.461-1.638-.602-2.705-.632V7H6zm0 8v7h11v-1.705c-.396.124-.81.205-1.25.205-.756 0-1.472-.18-2.11-.5H8v-1h4.297a4.798 4.798 0 0 1-.725-1H8v-1h3.17a4.693 4.693 0 0 1-.11-2H6z"/></svg>