<?xml version="1.0" encoding="UTF-8" standalone="no"?>
<svg
   viewBox="0 0 24 24"
   height="24"
   width="24"
   version="1.1"
   id="svg4"
   sodipodi:docname="printing-filled.svg"
   inkscape:version="1.2 (1:1.2.1+202207142221+cd75a1ee6d)"
   xmlns:inkscape="http://www.inkscape.org/namespaces/inkscape"
   xmlns:sodipodi="http://sodipodi.sourceforge.net/DTD/sodipodi-0.dtd"
   xmlns="http://www.w3.org/2000/svg"
   xmlns:svg="http://www.w3.org/2000/svg">
  <defs
     id="defs8" />
  <sodipodi:namedview
     id="namedview6"
     pagecolor="#ffffff"
     bordercolor="#666666"
     borderopacity="1.0"
     inkscape:pageshadow="2"
     inkscape:pageopacity="0.0"
     inkscape:pagecheckerboard="0"
     showgrid="true"
     inkscape:zoom="28"
     inkscape:cx="7.7499999"
     inkscape:cy="12.839286"
     inkscape:window-width="1920"
     inkscape:window-height="1016"
     inkscape:window-x="0"
     inkscape:window-y="0"
     inkscape:window-maximized="1"
     inkscape:current-layer="svg4"
     inkscape:showpageshadow="2"
     inkscape:deskcolor="#d1d1d1">
    <inkscape:grid
       type="xygrid"
       id="grid1065" />
  </sodipodi:namedview>
  <path
     id="rect867"
     style="fill:#808080;fill-opacity:1;fill-rule:evenodd;stroke-width:0.5;stroke-linecap:round;stroke-linejoin:round"
     d="m 6,2 v 4 h 12 v -4 z m 0,5 v 0.00781 c -1.0668545,0.02974 -1.9795994,0.1711441 -2.7050781,0.6328125 -0.8363702,0.5322357 -1.2949219,1.5093943 -1.2949219,2.859375 v 4 c 0,1.349986 0.4585517,2.327146 1.2949219,2.859375 0.4867301,0.309741 1.0597852,0.472224 1.7050781,0.556641 v -3.916016 h 1 v 8 h 12 v -8 h 1 v 3.916016 c 0.645288,-0.08442 1.218354,-0.2469 1.705078,-0.556641 0.836368,-0.532229 1.294922,-1.509389 1.294922,-2.859375 v -4 c 0,-1.3499807 -0.458554,-2.3271393 -1.294922,-2.859375 -0.725475,-0.4616684 -1.638222,-0.6030727 -2.705078,-0.6328125 v -0.00781 z m 12,3 c 0.552278,0 1,0.447722 1,1 0,0.552278 -0.447722,1 -1,1 -0.552278,0 -1,-0.447722 -1,-1 0,-0.552278 0.447722,-1 1,-1 z m -7,4 h 2 v 3 h 1.5 l -2.5,4 -2.5,-4 h 1.5 z"
     sodipodi:nodetypes="cccccccsssccccccccccssscccssssscccccccc" />
</svg>
