<svg height="24" width="24" xmlns="http://www.w3.org/2000/svg"><path style="color:#000;fill:gray;stroke-width:1px;stroke-linejoin:round;-inkscape-stroke:none;fill-opacity:1" d="M17.5 14a.5.5 0 0 0-.434.252l-4 7A.5.5 0 0 0 13.5 22h8a.5.5 0 0 0 .434-.748l-4-7A.5.5 0 0 0 17.5 14zm-.5 2h1v2l-.2 1h-.6l-.2-1v-2zm.5 4a.5.5 0 0 1 .5.5.5.5 0 0 1-.5.5.5.5 0 0 1-.5-.5.5.5 0 0 1 .5-.5z"/><path style="fill:gray;fill-opacity:1;stroke-width:.5;stroke-linecap:round;stroke-linejoin:round" d="M6 2v5.008c-1.067.03-1.98.17-2.705.633C2.459 8.173 2 9.15 2 10.5v4c0 1.35.459 2.327 1.295 2.86.725.461 1.638.602 2.705.632V22h6v-1H7v-6H6v1.99c-.968-.035-1.708-.18-2.17-.474C3.291 16.173 3 15.65 3 14.5v-4c0-1.15.291-1.673.83-2.016C4.37 8.142 5.283 8 6.5 8h11c1.217 0 2.131.142 2.67.484.539.343.83.866.83 2.016V12h1v-1.5c0-1.35-.459-2.327-1.295-2.86-.725-.461-1.638-.602-2.705-.632V2zm1 1h10v4H7zm11 7a1 1 0 0 0-1 1 1 1 0 0 0 1 1 1 1 0 0 0 1-1 1 1 0 0 0-1-1zM8 17v1h4v-1zm0 2v1h4v-1z"/></svg>