<svg height="24" width="24" xmlns="http://www.w3.org/2000/svg"><path style="line-height:125%;-inkscape-font-specification:Ubuntu;text-align:center;fill:gray;fill-opacity:1;stroke-width:1" d="M5.391 4c-1.322-.016-2.21.28-2.666.828C2.246 5.398 2 6.333 2 7.633v7.735c0 1.3.246 2.235.725 2.805.456.547 1.344.828 2.666.828H18.61c1.322 0 2.212-.28 2.668-.828.48-.57.723-1.505.723-2.805V7.633c0-1.3-.244-2.235-.723-2.805-.456-.547-1.346-.827-2.668-.827zm10.615 3.277c.381 0 .725.026 1.028.08a5.1 5.1 0 0 1 .794.176c.225.063.409.128.549.198.148.07.253.125.315.164l-.525 1.46a4.449 4.449 0 0 0-.864-.34 3.458 3.458 0 0 0-1.05-.151c-.848 0-1.462.236-1.843.71-.374.467-.562 1.11-.562 1.927 0 .396.048.757.142 1.084.093.319.233.596.42.83.186.233.42.414.7.547a2.4 2.4 0 0 0 .98.188c.202 0 .372-.005.512-.013.148-.007.277-.023.386-.046v-2.813h1.819v4.002c-.218.085-.568.175-1.05.268-.482.102-1.077.152-1.785.152a4.678 4.678 0 0 1-1.655-.279 3.472 3.472 0 0 1-1.262-.817 3.709 3.709 0 0 1-.816-1.319c-.186-.52-.28-1.116-.28-1.784 0-.677.104-1.276.314-1.797.21-.521.5-.96.865-1.319a3.613 3.613 0 0 1 1.284-.827 4.47 4.47 0 0 1 1.584-.281zm-9.985.186h4.375v1.46H7.479c-.016.28-.036.55-.06.815-.015.257-.034.482-.058.676 1.136.078 1.973.347 2.51.806.545.451.816 1.08.816 1.89 0 .373-.066.72-.198 1.04a2.233 2.233 0 0 1-.596.827 2.82 2.82 0 0 1-1.003.55c-.397.132-.863.197-1.4.197-.21 0-.43-.015-.663-.046a6.259 6.259 0 0 1-.667-.105c-.21-.039-.4-.083-.571-.13a2.236 2.236 0 0 1-.396-.139l.315-1.435c.195.085.45.17.77.256.318.078.699.117 1.142.117.537 0 .926-.105 1.167-.315.241-.217.361-.471.361-.759 0-.225-.05-.422-.151-.593-.101-.179-.276-.328-.525-.444-.249-.117-.583-.207-1.003-.269-.42-.062-.95-.093-1.587-.093a49.27 49.27 0 0 0 .21-2.204c.054-.747.098-1.45.129-2.102z"/></svg>