<svg height="24" width="24" xmlns="http://www.w3.org/2000/svg"><path style="color:#000;fill:gray;fill-opacity:1;-inkscape-stroke:none" d="M9 2c-1.042 0-1.998.115-2.758.57a2.428 2.428 0 0 0-.906.963 2.933 2.933 0 0 0-.248.676A3.298 3.298 0 0 0 5 5v12a3.298 3.298 0 0 0 .193 1.143 2.54 2.54 0 0 0 .535.873 2.394 2.394 0 0 0 .514.414c.76.455 1.716.57 2.758.57h9c1.042 0 1.998-.115 2.758-.57a2.428 2.428 0 0 0 .906-.963 2.933 2.933 0 0 0 .248-.676A3.298 3.298 0 0 0 22 17V5a3.298 3.298 0 0 0-.193-1.143 2.539 2.539 0 0 0-.535-.873 2.393 2.393 0 0 0-.514-.414C19.998 2.115 19.042 2 18 2H9zm0 1h9c.958 0 1.752.135 2.242.43.49.294.758.695.758 1.57v12c0 .875-.267 1.276-.758 1.57-.49.295-1.284.43-2.242.43H9c-.958 0-1.752-.135-2.242-.43C6.268 18.276 6 17.875 6 17V5c0-.875.267-1.276.758-1.57C7.248 3.135 8.042 3 9 3zM4 4.74c-.01.007-.02.012-.03.02a2.394 2.394 0 0 0-.454.482 2.54 2.54 0 0 0-.323.615A3.298 3.298 0 0 0 3 7v12a3.298 3.298 0 0 0 .193 1.143 2.539 2.539 0 0 0 .535.873 2.394 2.394 0 0 0 .514.414c.76.455 1.716.57 2.758.57h9c1.042 0 1.998-.115 2.758-.57a2.427 2.427 0 0 0 .513-.414l.014-.016H6v-.059c-.51-.065-.935-.187-1.242-.37C4.268 20.275 4 19.874 4 19V4.74zm9.5.26A3.508 3.508 0 0 0 10 8.5c0 1.927 1.573 3.5 3.5 3.5S17 10.427 17 8.5 15.427 5 13.5 5zm0 1C14.887 6 16 7.113 16 8.5S14.887 11 13.5 11A2.492 2.492 0 0 1 11 8.5C11 7.113 12.113 6 13.5 6zm-1 7c-1.167 0-2.259.196-3.105.75C8.548 14.304 8 15.258 8 16.5v.5h1v-.5c0-.974.344-1.52.943-1.912.6-.392 1.508-.588 2.557-.588h2c1.049 0 1.957.196 2.557.588.599.392.943.938.943 1.912v.5h1v-.5c0-1.242-.548-2.196-1.395-2.75-.846-.554-1.938-.75-3.105-.75h-2z"/></svg>