<?xml version="1.0" encoding="UTF-8" standalone="no"?>
<svg
   viewBox="0 1 24 24"
   height="24"
   id="svg7384"
   version="1.1"
   width="24"
   sodipodi:docname="music-filled.svg"
   inkscape:version="1.2.2 (1:1.2.2+202212051551+b0a8486541)"
   xmlns:inkscape="http://www.inkscape.org/namespaces/inkscape"
   xmlns:sodipodi="http://sodipodi.sourceforge.net/DTD/sodipodi-0.dtd"
   xmlns="http://www.w3.org/2000/svg"
   xmlns:svg="http://www.w3.org/2000/svg"
   xmlns:rdf="http://www.w3.org/1999/02/22-rdf-syntax-ns#"
   xmlns:cc="http://creativecommons.org/ns#"
   xmlns:dc="http://purl.org/dc/elements/1.1/">
  <sodipodi:namedview
     id="namedview24"
     pagecolor="#ffffff"
     bordercolor="#666666"
     borderopacity="1.0"
     inkscape:pageshadow="2"
     inkscape:pageopacity="0.0"
     inkscape:pagecheckerboard="0"
     showgrid="true"
     inkscape:zoom="23.169003"
     inkscape:cx="16.314901"
     inkscape:cy="10.293926"
     inkscape:window-width="1850"
     inkscape:window-height="1016"
     inkscape:window-x="0"
     inkscape:window-y="0"
     inkscape:window-maximized="1"
     inkscape:current-layer="svg7384"
     inkscape:showpageshadow="2"
     inkscape:deskcolor="#d1d1d1">
    <inkscape:grid
       type="xygrid"
       id="grid841" />
  </sodipodi:namedview>
  <metadata
     id="metadata20854">
    <rdf:RDF>
      <cc:Work
         rdf:about="">
        <dc:format>image/svg+xml</dc:format>
        <dc:type
           rdf:resource="http://purl.org/dc/dcmitype/StillImage" />
      </cc:Work>
    </rdf:RDF>
  </metadata>
  <defs
     id="defs7386">
    <linearGradient
       id="linearGradient5606"
       inkscape:swatch="solid">
      <stop
         id="stop5608"
         offset="0"
         style="stop-color:#000000;stop-opacity:1;" />
    </linearGradient>
    <linearGradient
       id="linearGradient4526"
       inkscape:swatch="solid">
      <stop
         id="stop4528"
         offset="0"
         style="stop-color:#ffffff;stop-opacity:1;" />
    </linearGradient>
    <linearGradient
       id="linearGradient3600-4"
       inkscape:swatch="gradient">
      <stop
         id="stop3602-7"
         offset="0"
         style="stop-color:#f4f4f4;stop-opacity:1" />
      <stop
         id="stop3604-6"
         offset="1"
         style="stop-color:#dbdbdb;stop-opacity:1" />
    </linearGradient>
  </defs>
  <path
     id="path874"
     style="color:#000000;fill:#808080;fill-opacity:1;-inkscape-stroke:none"
     d="M 9 2 C 7.958338 2 7.0016931 2.11461 6.2421875 2.5703125 C 6.1472486 2.6272754 6.0565928 2.6907459 5.9707031 2.7597656 C 5.8848172 2.8287896 5.8045453 2.9037453 5.7285156 2.984375 C 5.6524877 3.0650019 5.5809947 3.1504178 5.515625 3.2421875 C 5.4502581 3.3339584 5.3898372 3.4307454 5.3359375 3.5332031 C 5.2820396 3.6356618 5.2349891 3.7447352 5.1933594 3.8574219 C 5.1517304 3.9701086 5.1164504 4.0865277 5.0878906 4.2089844 C 5.0593307 4.3314421 5.0361644 4.4600272 5.0214844 4.5917969 C 5.0068004 4.7235663 5 4.8593753 5 5 L 5 17 C 5 17.140625 5.0068004 17.276433 5.0214844 17.408203 C 5.0361644 17.539973 5.0593307 17.668558 5.0878906 17.791016 C 5.1164506 17.913473 5.1517306 18.029891 5.1933594 18.142578 C 5.2349893 18.255265 5.2820395 18.364338 5.3359375 18.466797 C 5.3898374 18.569255 5.4502583 18.666044 5.515625 18.757812 C 5.5809949 18.849582 5.6524879 18.934998 5.7285156 19.015625 C 5.8045455 19.096255 5.8848174 19.17121 5.9707031 19.240234 C 6.056593 19.309254 6.1472488 19.372725 6.2421875 19.429688 C 7.0016931 19.885389 7.958338 20 9 20 L 12 20 L 18 20 C 19.041662 20 19.998307 19.885389 20.757812 19.429688 C 20.852752 19.372728 20.943407 19.309254 21.029297 19.240234 C 21.115187 19.171214 21.195454 19.096255 21.271484 19.015625 C 21.347514 18.934995 21.419005 18.849582 21.484375 18.757812 C 21.549745 18.666043 21.610164 18.569255 21.664062 18.466797 C 21.717962 18.364338 21.765011 18.255265 21.806641 18.142578 C 21.848271 18.029891 21.883551 17.913473 21.912109 17.791016 C 21.940669 17.668558 21.963836 17.539973 21.978516 17.408203 C 21.993196 17.276433 22 17.140625 22 17 L 22 5 C 22 4.8593753 21.993196 4.7235663 21.978516 4.5917969 C 21.963836 4.4600272 21.940669 4.3314421 21.912109 4.2089844 C 21.883549 4.0865277 21.848269 3.9701086 21.806641 3.8574219 C 21.765011 3.7447352 21.717961 3.6356618 21.664062 3.5332031 C 21.610163 3.4307454 21.549745 3.3339583 21.484375 3.2421875 C 21.419005 3.1504176 21.347514 3.0650018 21.271484 2.984375 C 21.195454 2.9037451 21.115187 2.8287896 21.029297 2.7597656 C 20.943407 2.6907457 20.852752 2.6272753 20.757812 2.5703125 C 19.998307 2.11461 19.041662 2 18 2 L 12 2 L 9 2 z M 14 5 L 18 5 L 18 7 L 15 7 L 15 14 C 15 15.656898 13.656898 17 12 17 C 10.343102 17 9 15.656898 9 14 C 8.9997 12.362802 10.31222 11.02771 11.949219 11 C 11.966149 10.999857 11.98307 10.999857 12 11 C 12.737899 10.99993 13.449941 11.271812 14 11.763672 L 14 5 z M 11.949219 12 C 10.86455 12.0276 9.99965 12.915001 10 14 C 10 15.104569 10.895431 16 12 16 C 13.104569 16 14 15.104599 14 14 C 14.000199 13.98372 14.000199 13.967452 14 13.951172 C 13.9735 12.865693 13.085799 11.999676 12 12 C 11.98373 11.999801 11.967452 11.999801 11.951172 12 L 11.949219 12 z " />
  <path
     id="path450"
     style="color:#000000;fill:#808080;fill-opacity:1;-inkscape-stroke:none"
     d="M 4 4.7402344 C 3.9907597 4.7474469 3.9798362 4.7524264 3.9707031 4.7597656 C 3.8848173 4.8287896 3.8045452 4.9037454 3.7285156 4.984375 C 3.6524878 5.0650018 3.5809946 5.1504179 3.515625 5.2421875 C 3.4502582 5.3339583 3.3898371 5.4307455 3.3359375 5.5332031 C 3.2820397 5.6356617 3.234989 5.7447353 3.1933594 5.8574219 C 3.1517304 5.9701085 3.1164504 6.0865278 3.0878906 6.2089844 C 3.0593308 6.331442 3.0361644 6.4600273 3.0214844 6.5917969 C 3.0068004 6.7235661 3 6.8593754 3 7 L 3 19 C 3 19.140625 3.0068004 19.276433 3.0214844 19.408203 C 3.0361644 19.539973 3.0593308 19.668558 3.0878906 19.791016 C 3.1164506 19.913473 3.1517306 20.029891 3.1933594 20.142578 C 3.2349892 20.255265 3.2820396 20.364338 3.3359375 20.466797 C 3.3898373 20.569255 3.4502584 20.666045 3.515625 20.757812 C 3.5809948 20.849582 3.652488 20.934998 3.7285156 21.015625 C 3.8045454 21.096255 3.8848175 21.17121 3.9707031 21.240234 C 4.0565929 21.309254 4.1472489 21.372725 4.2421875 21.429688 C 5.0016923 21.885388 5.958339 22 7 22 L 10 22 L 16 22 C 17.041661 22 17.998308 21.885388 18.757812 21.429688 C 18.852752 21.372728 18.943407 21.309254 19.029297 21.240234 C 19.115187 21.171214 19.195454 21.096255 19.271484 21.015625 C 19.276204 21.01062 19.280472 21.005042 19.285156 21 L 16 21 L 7 21 L 6 21 L 6 20.941406 C 5.4896626 20.875932 5.0647425 20.754471 4.7578125 20.570312 C 4.2673245 20.276022 4 19.874995 4 19 L 4 13 L 4 7 L 4 4.7402344 z " />
</svg>
