<svg height="24" width="24" xmlns="http://www.w3.org/2000/svg"><path style="color:#000;fill:gray;fill-opacity:1;-inkscape-stroke:none" d="M9 2c-1.042 0-1.998.115-2.758.57a2.428 2.428 0 0 0-.906.963 2.933 2.933 0 0 0-.248.676A3.298 3.298 0 0 0 5 5v12a3.298 3.298 0 0 0 .193 1.143 2.54 2.54 0 0 0 .535.873 2.394 2.394 0 0 0 .514.414c.76.455 1.716.57 2.758.57h9c1.042 0 1.998-.115 2.758-.57a2.428 2.428 0 0 0 .906-.963 2.933 2.933 0 0 0 .248-.676A3.298 3.298 0 0 0 22 17V5a3.298 3.298 0 0 0-.193-1.143 2.539 2.539 0 0 0-.535-.873 2.393 2.393 0 0 0-.514-.414C19.998 2.115 19.042 2 18 2H9zm0 1h9c.958 0 1.752.135 2.242.43.49.294.758.695.758 1.57v12c0 .875-.267 1.276-.758 1.57-.49.295-1.284.43-2.242.43H9c-.958 0-1.752-.135-2.242-.43C6.268 18.276 6 17.875 6 17V5c0-.875.267-1.276.758-1.57C7.248 3.135 8.042 3 9 3z"/><path style="color:#000;fill:gray;fill-opacity:1;-inkscape-stroke:none" d="M4 4.74c-.01.007-.02.012-.03.02a2.394 2.394 0 0 0-.454.482 2.54 2.54 0 0 0-.323.615A3.298 3.298 0 0 0 3 7v12a3.298 3.298 0 0 0 .193 1.143 2.54 2.54 0 0 0 .535.873 2.394 2.394 0 0 0 .514.414c.76.455 1.716.57 2.758.57h9c1.042 0 1.998-.115 2.758-.57a2.427 2.427 0 0 0 .513-.414l.014-.016H6v-.059c-.51-.065-.935-.187-1.242-.37C4.268 20.275 4 19.874 4 19V4.74z"/><path d="M14 5v6.764A3 3 0 1 0 15 14V7h3V5zm-2.05 7H12a2 2 0 1 1-.05 0z" fill="gray"/></svg>