<?xml version="1.0" encoding="UTF-8" standalone="no"?>
<svg
   height="24"
   width="24"
   version="1.1"
   id="svg6"
   sodipodi:docname="error.svg"
   inkscape:version="1.1 (ce6663b3b7, 2021-05-25)"
   xmlns:inkscape="http://www.inkscape.org/namespaces/inkscape"
   xmlns:sodipodi="http://sodipodi.sourceforge.net/DTD/sodipodi-0.dtd"
   xmlns="http://www.w3.org/2000/svg"
   xmlns:svg="http://www.w3.org/2000/svg">
  <defs
     id="defs10" />
  <sodipodi:namedview
     id="namedview8"
     pagecolor="#ffffff"
     bordercolor="#666666"
     borderopacity="1.0"
     inkscape:pageshadow="2"
     inkscape:pageopacity="0.0"
     inkscape:pagecheckerboard="0"
     showgrid="false"
     inkscape:zoom="39.59798"
     inkscape:cx="9.0787459"
     inkscape:cy="9.4070455"
     inkscape:window-width="1920"
     inkscape:window-height="1016"
     inkscape:window-x="0"
     inkscape:window-y="27"
     inkscape:window-maximized="1"
     inkscape:current-layer="svg6" />
  <path
     d="m 5.75,2 v 5.03125 c -0.9375,0.0225 -1.7625,0.0875 -2.42125,0.45 a 2.35,2.35 0 0 0 -1.0475,1.2475 c -0.20625,0.54875 -0.28125,1.2 -0.28125,2.02125 v 3.75 c 0,0.8225 0.075,1.47375 0.28125,2.02125 0.205,0.54875 0.57625,0.9875 1.0475,1.2475 0.3525,0.195 0.74875,0.2925 1.17125,0.35875 v -1.28125 a 2.03375,2.03375 0 0 1 -0.56875,-0.17375 c -0.22875,-0.125 -0.35875,-0.265 -0.48125,-0.59 -0.12125,-0.325 -0.2,-0.8425 -0.2,-1.5825 v -3.75 c 0,-0.74 0.07875,-1.2575 0.2,-1.5825 0.1225,-0.325 0.2525,-0.46375 0.48125,-0.59 0.45625,-0.2525 1.49375,-0.30875 3.06875,-0.3275 h 10 c 1.57375,0.01875 2.60875,0.075 3.06625,0.3275 0.23,0.12625 0.3625,0.26625 0.48375,0.59 0.12125,0.325 0.2,0.8425 0.2,1.5825 v 1.25 h 1.25 v -1.25 c 0,-0.8225 -0.075,-1.4725 -0.28125,-2.02125 a 2.35,2.35 0 0 0 -1.04625,-1.2475 c -0.65875,-0.3625 -1.485,-0.4275 -2.4225,-0.45 v -5.03125 z m 1.25,1.25 h 10 v 3.75 h -10 z m 11.875,6.25 a 0.625,0.625 0 0 0 -0.625,0.625 0.625,0.625 0 0 0 0.625,0.625 0.625,0.625 0 0 0 0.625,-0.625 0.625,0.625 0 0 0 -0.625,-0.625 z m -13.125,5 v 7.5 h 6.25 v -1.25 h -5 v -6.25 z m 2.5,1.25 v 1.25 h 3.75 v -1.25 z m 0,2.5 v 1.25 h 3.75 v -1.25 z"
     style="line-height:normal;font-variant-ligatures:normal;font-variant-position:normal;font-variant-caps:normal;font-variant-numeric:normal;font-variant-alternates:normal;font-feature-settings:normal;text-indent:0;text-align:start;text-decoration-line:none;text-decoration-style:solid;text-decoration-color:#000000;text-transform:none;text-orientation:mixed;shape-padding:0;opacity:1;isolation:auto;mix-blend-mode:normal;stroke-width:1;marker:none"
     color="#000000"
     font-weight="400"
     font-family="sans-serif"
     white-space="normal"
     overflow="visible"
     fill="#808080"
     id="path2" />
  <path
     class="error"
     d="m 17.625,13.25 a 4.375,4.375 0 0 0 -4.375,4.375 4.375,4.375 0 0 0 4.375,4.375 4.375,4.375 0 0 0 4.375,-4.375 4.375,4.375 0 0 0 -4.375,-4.375 z m -0.625,1.25 h 1.25 v 1.46 c 0,0.43625 -0.02,0.83375 -0.05875,1.19625 -0.0375,0.3625 -0.08625,0.72625 -0.14375,1.09375 h -0.8325 a 16.445,16.445 0 0 1 -0.15625,-1.09375 11.435,11.435 0 0 1 -0.05875,-1.19625 z m 0.625,5 a 0.625,0.625 0 0 1 0.625,0.625 0.625,0.625 0 0 1 -0.625,0.625 0.625,0.625 0 0 1 -0.625,-0.625 0.625,0.625 0 0 1 0.625,-0.625 z"
     style="opacity:1;fill:#808080;fill-opacity:1;stroke-width:1;marker:none"
     color="#000000"
     overflow="visible"
     fill="#f22c42"
     id="path4" />
</svg>
