<?xml version="1.0" encoding="UTF-8" standalone="no"?>
<svg
   height="24"
   width="24"
   version="1.1"
   id="svg4"
   sodipodi:docname="network.svg"
   inkscape:version="1.1 (ce6663b3b7, 2021-05-25)"
   xmlns:inkscape="http://www.inkscape.org/namespaces/inkscape"
   xmlns:sodipodi="http://sodipodi.sourceforge.net/DTD/sodipodi-0.dtd"
   xmlns="http://www.w3.org/2000/svg"
   xmlns:svg="http://www.w3.org/2000/svg">
  <defs
     id="defs8" />
  <sodipodi:namedview
     id="namedview6"
     pagecolor="#ffffff"
     bordercolor="#666666"
     borderopacity="1.0"
     inkscape:pageshadow="2"
     inkscape:pageopacity="0.0"
     inkscape:pagecheckerboard="0"
     showgrid="true"
     inkscape:zoom="28"
     inkscape:cx="9.0178571"
     inkscape:cy="12.357143"
     inkscape:window-width="1920"
     inkscape:window-height="1043"
     inkscape:window-x="1920"
     inkscape:window-y="0"
     inkscape:window-maximized="1"
     inkscape:current-layer="svg4">
    <inkscape:grid
       type="xygrid"
       id="grid821" />
  </sodipodi:namedview>
  <path
     id="rect867"
     style="fill:#808080;fill-opacity:1;fill-rule:evenodd;stroke-width:0.5;stroke-linecap:round;stroke-linejoin:round"
     d="M 6 2 L 6 7.0078125 C 4.9331312 7.0375525 4.020411 7.17895 3.2949219 7.640625 C 2.4585413 8.172867 2 9.150001 2 10.5 L 2 14.5 C 2 15.849999 2.4585413 16.827133 3.2949219 17.359375 C 4.020411 17.82105 4.9331312 17.962447 6 17.992188 L 6 18 L 7 18 L 8 18 L 16 18 L 17 18 L 18 18 L 18 17.992188 C 19.066869 17.962447 19.97959 17.82105 20.705078 17.359375 C 21.541459 16.827133 22 15.849999 22 14.5 L 22 10.5 C 22 9.150001 21.541459 8.172867 20.705078 7.640625 C 19.97959 7.17895 19.066869 7.0375525 18 7.0078125 L 18 2 L 6 2 z M 7 3 L 17 3 L 17 7 L 7 7 L 7 3 z M 6.5 8 L 7 8 L 17 8 L 17.5 8 C 18.716665 8 19.631304 8.141618 20.169922 8.484375 C 20.70854 8.827132 21 9.350001 21 10.5 L 21 14.5 C 21 15.649999 20.70854 16.172868 20.169922 16.515625 C 19.708166 16.80947 18.967854 16.954545 18 16.990234 L 18 17 L 17 17 L 16 17 L 8 17 L 7 17 L 6 17 L 6 16.990234 C 5.0321461 16.954544 4.2918341 16.80947 3.8300781 16.515625 C 3.2914601 16.172868 3 15.649999 3 14.5 L 3 10.5 C 3 9.350001 3.2914601 8.827132 3.8300781 8.484375 C 4.3686961 8.141618 5.2833345 8 6.5 8 z M 18 10 A 1 1 0 0 0 17 11 A 1 1 0 0 0 18 12 A 1 1 0 0 0 19 11 A 1 1 0 0 0 18 10 z " />
  <rect
     style="fill:#808080;fill-rule:evenodd;stroke-width:0.5;stroke-linecap:round;stroke-linejoin:round"
     id="rect942"
     width="10"
     height="1"
     x="7"
     y="15" />
  <rect
     style="fill:#808080;fill-rule:evenodd;stroke-width:0.5;stroke-linecap:round;stroke-linejoin:round"
     id="rect944"
     width="2"
     height="2"
     x="11"
     y="18" />
  <rect
     style="fill:#808080;fill-rule:evenodd;stroke-width:0.5;stroke-linecap:round;stroke-linejoin:round"
     id="rect946"
     width="14"
     height="1"
     x="5"
     y="20" />
</svg>
