<?xml version="1.0" encoding="UTF-8" standalone="no"?>
<svg
   viewBox="0 0 24 24"
   version="1.1"
   id="svg4"
   sodipodi:docname="preview.svg"
   inkscape:version="1.1 (ce6663b3b7, 2021-05-25)"
   width="24"
   height="24"
   xmlns:inkscape="http://www.inkscape.org/namespaces/inkscape"
   xmlns:sodipodi="http://sodipodi.sourceforge.net/DTD/sodipodi-0.dtd"
   xmlns="http://www.w3.org/2000/svg"
   xmlns:svg="http://www.w3.org/2000/svg"
   xmlns:rdf="http://www.w3.org/1999/02/22-rdf-syntax-ns#"
   xmlns:cc="http://creativecommons.org/ns#"
   xmlns:dc="http://purl.org/dc/elements/1.1/">
  <metadata
     id="metadata10">
    <rdf:RDF>
      <cc:Work
         rdf:about="">
        <dc:format>image/svg+xml</dc:format>
        <dc:type
           rdf:resource="http://purl.org/dc/dcmitype/StillImage" />
      </cc:Work>
    </rdf:RDF>
  </metadata>
  <defs
     id="defs8" />
  <sodipodi:namedview
     pagecolor="#ffffff"
     bordercolor="#666666"
     borderopacity="1"
     objecttolerance="10"
     gridtolerance="10"
     guidetolerance="10"
     inkscape:pageopacity="0"
     inkscape:pageshadow="2"
     inkscape:window-width="1920"
     inkscape:window-height="1016"
     id="namedview6"
     showgrid="true"
     inkscape:zoom="19.445436"
     inkscape:cx="6.865364"
     inkscape:cy="9.1281057"
     inkscape:window-x="0"
     inkscape:window-y="27"
     inkscape:window-maximized="1"
     inkscape:current-layer="svg4"
     inkscape:pagecheckerboard="0">
    <inkscape:grid
       type="xygrid"
       id="grid850" />
  </sodipodi:namedview>
  <path
     id="path2"
     style="font-variant-ligatures:normal;font-variant-position:normal;font-variant-caps:normal;font-variant-numeric:normal;font-variant-alternates:normal;font-feature-settings:normal;text-indent:0;text-decoration:none;text-decoration-line:none;text-decoration-style:solid;text-decoration-color:#000000;text-transform:none;text-orientation:mixed;shape-padding:0;isolation:auto;mix-blend-mode:normal;fill:#808080;fill-opacity:1;stroke-width:1"
     d="m 5.75,2 v 5.0317382 c -0.9375,0.0225 -1.763125,0.086719 -2.421875,0.4492188 -0.4866908,0.2776864 -0.858142,0.7201376 -1.0473633,1.2475586 -0.20625,0.54875 -0.2807617,1.2002344 -0.2807617,2.0214844 v 3.75 c 0,0.8225 0.074512,1.473985 0.2807617,2.021485 0.205,0.54875 0.5761133,0.987558 1.0473633,1.247558 0.3525,0.195 0.749375,0.292637 1.171875,0.358887 v -1.281739 c -0.1970848,-0.0296 -0.3887491,-0.088 -0.5688476,-0.17334 -0.22875,-0.125 -0.358457,-0.26582 -0.4809571,-0.59082 -0.1212501,-0.325 -0.2001953,-0.842031 -0.2001953,-1.582031 v -3.75 c 0,-0.74 0.078945,-1.2570313 0.2001953,-1.5820313 0.1225,-0.3249999 0.2522071,-0.4645703 0.4809571,-0.5908202 0.45625,-0.2525001 1.4938476,-0.3083985 3.0688476,-0.3271485 h 10 c 1.57375,0.01875 2.608906,0.074649 3.066406,0.3271485 0.23,0.1262499 0.362149,0.2670702 0.483399,0.5908202 0.12125,0.325 0.200195,0.8420313 0.200195,1.5820313 v 3.75 h 1.25 v -3.75 c 0,-0.8225 -0.07451,-1.4727344 -0.280761,-2.0214844 -0.189222,-0.5274211 -0.560673,-0.9698724 -1.047364,-1.2475586 -0.65875,-0.3625 -1.484375,-0.4267188 -2.421875,-0.4492188 v -5.0317382 z m 1.25,1.25 h 10 v 3.75 h -10 z m 11.875,6.25 c -0.345177,0 -0.625,0.279822 -0.625,0.625 0,0.345178 0.279823,0.625 0.625,0.625 0.345177,0 0.625,-0.279822 0.625,-0.625 0,-0.345178 -0.279823,-0.625 -0.625,-0.625 z m -13.125,5 v 7.5 h 11.25 v -1.25 h -1.25 -8.75 v -6.25 z m 2.5,1.25 v 1.25 h 2.680664 c -0.105635,-0.40225 -0.180664,-0.816359 -0.180664,-1.25 z m 0,2.5 v 1.25 h 4.23584 c -0.410313,-0.358019 -0.755742,-0.778116 -1.032715,-1.25 z"
     sodipodi:nodetypes="ccccssccccccssccccccsccsccccccccccssssscccccccccccccccccc" />
  <path
     id="path1244"
     style="color:#000000;font-style:normal;font-variant:normal;font-weight:normal;font-stretch:normal;font-size:medium;line-height:normal;font-family:sans-serif;font-variant-ligatures:normal;font-variant-position:normal;font-variant-caps:normal;font-variant-numeric:normal;font-variant-alternates:normal;font-variant-east-asian:normal;font-feature-settings:normal;font-variation-settings:normal;text-indent:0;text-align:start;text-decoration:none;text-decoration-line:none;text-decoration-style:solid;text-decoration-color:#000000;letter-spacing:normal;word-spacing:normal;text-transform:none;writing-mode:lr-tb;direction:ltr;text-orientation:mixed;dominant-baseline:auto;baseline-shift:baseline;text-anchor:start;white-space:normal;shape-padding:0;shape-margin:0;inline-size:0;clip-rule:nonzero;display:inline;overflow:visible;visibility:visible;opacity:1;isolation:auto;mix-blend-mode:normal;color-interpolation:sRGB;color-interpolation-filters:linearRGB;solid-color:#000000;solid-opacity:1;vector-effect:none;fill:#808080;fill-opacity:1;fill-rule:nonzero;stroke:none;stroke-width:1;stroke-linecap:round;stroke-linejoin:miter;stroke-miterlimit:4;stroke-dasharray:none;stroke-dashoffset:0;stroke-opacity:1;marker:none;color-rendering:auto;image-rendering:auto;shape-rendering:auto;text-rendering:auto;enable-background:accumulate;stop-color:#000000;stop-opacity:1"
     d="m 15.75,12 c -2.063665,0 -3.75,1.686335 -3.75,3.75 0,2.063665 1.686335,3.75 3.75,3.75 0.845181,0 1.617418,-0.293255 2.246094,-0.769042 a 0.83553746,0.83553746 0 0 0 0.239257,0.686035 l 2.089844,2.089843 a 0.83553746,0.83553746 0 0 0 1.181641,0 0.83553746,0.83553746 0 0 0 0,-1.181641 l -2.089843,-2.089844 a 0.83553746,0.83553746 0 0 0 -0.620118,-0.24414 0.83553746,0.83553746 0 0 0 -0.06591,0.0049 c 0.475788,-0.628676 0.769043,-1.400912 0.769043,-2.246093 0,-2.063665 -1.686335,-3.75 -3.75,-3.75 z m 0,1.25 c 1.388115,0 2.5,1.111885 2.5,2.5 0,1.388115 -1.111885,2.5 -2.5,2.5 -1.388115,0 -2.5,-1.111885 -2.5,-2.5 0,-1.388115 1.111885,-2.5 2.5,-2.5 z" />
</svg>
