<?xml version="1.0" encoding="UTF-8" standalone="no"?>
<svg
   height="24"
   width="24"
   version="1.1"
   id="svg8"
   sodipodi:docname="mark-important.svg"
   inkscape:version="1.1 (ce6663b3b7, 2021-05-25)"
   xmlns:inkscape="http://www.inkscape.org/namespaces/inkscape"
   xmlns:sodipodi="http://sodipodi.sourceforge.net/DTD/sodipodi-0.dtd"
   xmlns="http://www.w3.org/2000/svg"
   xmlns:svg="http://www.w3.org/2000/svg">
  <defs
     id="defs12" />
  <sodipodi:namedview
     id="namedview10"
     pagecolor="#ffffff"
     bordercolor="#666666"
     borderopacity="1.0"
     inkscape:pageshadow="2"
     inkscape:pageopacity="0.0"
     inkscape:pagecheckerboard="0"
     showgrid="false"
     inkscape:zoom="14"
     inkscape:cx="0.75"
     inkscape:cy="7.7142857"
     inkscape:window-width="1920"
     inkscape:window-height="1043"
     inkscape:window-x="1920"
     inkscape:window-y="0"
     inkscape:window-maximized="1"
     inkscape:current-layer="svg8" />
  <g
     fill="#808080"
     id="g6"
     transform="matrix(1.25,0,0,1.25,2,2)"
     style="stroke-width:0.8">
    <path
       d="m 8,0 a 8,8 0 0 0 -8,8 8,8 0 0 0 8,8 8,8 0 0 0 8,-8 8,8 0 0 0 -8,-8 z m 0,1 a 7,7 0 0 1 7,7 7,7 0 0 1 -7,7 7,7 0 0 1 -7,-7 7,7 0 0 1 7,-7 z"
       id="path2"
       style="stroke-width:0.8" />
    <path
       d="m 8.708,5.663 q 0,1.19 -0.085,2.167 -0.085,0.963 -0.212,1.926 h -0.822 q -0.127,-0.963 -0.212,-1.926 -0.085,-0.977 -0.085,-2.167 v -2.663 h 1.416 z m 0.241,6.388 q 0,0.382 -0.255,0.666 -0.254,0.283 -0.694,0.283 -0.44,0 -0.694,-0.283 -0.255,-0.284 -0.255,-0.666 0,-0.382 0.255,-0.666 0.255,-0.283 0.694,-0.283 0.44,0 0.694,0.283 0.255,0.284 0.255,0.666 z"
       style="line-height:1000%;-inkscape-font-specification:Ubuntu;stroke-width:0.64"
       font-weight="400"
       font-family="Ubuntu"
       letter-spacing="0"
       word-spacing="0"
       id="path4" />
  </g>
</svg>
