<?xml version="1.0" encoding="UTF-8" standalone="no"?>
<svg
   height="24"
   width="24"
   version="1.1"
   id="svg8"
   sodipodi:docname="reply-all.svg"
   inkscape:version="1.1 (ce6663b3b7, 2021-05-25)"
   xmlns:inkscape="http://www.inkscape.org/namespaces/inkscape"
   xmlns:sodipodi="http://sodipodi.sourceforge.net/DTD/sodipodi-0.dtd"
   xmlns="http://www.w3.org/2000/svg"
   xmlns:svg="http://www.w3.org/2000/svg">
  <defs
     id="defs12" />
  <sodipodi:namedview
     id="namedview10"
     pagecolor="#ffffff"
     bordercolor="#666666"
     borderopacity="1.0"
     inkscape:pageshadow="2"
     inkscape:pageopacity="0.0"
     inkscape:pagecheckerboard="0"
     showgrid="false"
     inkscape:zoom="28"
     inkscape:cx="9.7678571"
     inkscape:cy="7.3928571"
     inkscape:window-width="1920"
     inkscape:window-height="1043"
     inkscape:window-x="1920"
     inkscape:window-y="0"
     inkscape:window-maximized="1"
     inkscape:current-layer="svg8"
     inkscape:snap-page="true" />
  <path
     id="path2"
     style="color:#000000;line-height:normal;font-variant-ligatures:none;font-variant-position:normal;font-variant-caps:normal;font-variant-numeric:normal;font-variant-alternates:normal;font-feature-settings:normal;text-indent:0;text-align:start;text-decoration-line:none;text-decoration-style:solid;text-decoration-color:#000000;text-transform:none;shape-padding:0;isolation:auto;mix-blend-mode:normal;fill:#808080;stroke-width:1;marker:none"
     d="m 15.75,6.1 v 5.625 c 0,1.5625 -0.491798,2.198555 -1.279297,2.612305 -0.78875,0.4125 -1.991836,0.512695 -3.256836,0.512695 h -2.9638675 v -2.5 h -0.00244 c -0.95125,0.44625 -1.917832,0.937109 -2.9028321,1.47461 -0.9774999,0.53875 -1.918457,1.08914 -2.824707,1.65039 0.90625,0.5725 1.8497071,1.12873 2.824707,1.66748 a 46.21875,46.21875 0 0 0 2.9028321,1.45752 v -2.5 h 7.9663085 c 1.315,0 2.691639,-0.05549 3.837889,-0.656739 1.14875,-0.6025 1.948243,-1.843261 1.948243,-3.718261 v -5.625 h -1.25 v 5.625 c 0,1.5625 -0.491797,2.198555 -1.279297,2.612305 -0.78875,0.4125 -1.991836,0.512695 -3.256836,0.512695 h -0.354003 c 0.6975,-0.69125 1.140136,-1.7325 1.140136,-3.125 v -5.625 z" />
</svg>
