<?xml version="1.0" encoding="UTF-8" standalone="no"?>
<svg
   height="16"
   width="16"
   version="1.1"
   id="svg835"
   sodipodi:docname="flip-vertical.svg"
   inkscape:version="1.1 (ce6663b3b7, 2021-05-25)"
   xmlns:inkscape="http://www.inkscape.org/namespaces/inkscape"
   xmlns:sodipodi="http://sodipodi.sourceforge.net/DTD/sodipodi-0.dtd"
   xmlns="http://www.w3.org/2000/svg"
   xmlns:svg="http://www.w3.org/2000/svg">
  <defs
     id="defs839" />
  <sodipodi:namedview
     id="namedview837"
     pagecolor="#ffffff"
     bordercolor="#666666"
     borderopacity="1.0"
     inkscape:pageshadow="2"
     inkscape:pageopacity="0.0"
     inkscape:pagecheckerboard="0"
     showgrid="false"
     inkscape:zoom="56"
     inkscape:cx="7.9910714"
     inkscape:cy="8.0089286"
     inkscape:window-width="1920"
     inkscape:window-height="1016"
     inkscape:window-x="0"
     inkscape:window-y="27"
     inkscape:window-maximized="1"
     inkscape:current-layer="svg835" />
  <path
     id="path829"
     style="color:#000000;line-height:normal;font-variant-ligatures:none;font-variant-position:normal;font-variant-caps:normal;font-variant-numeric:normal;font-variant-alternates:normal;font-feature-settings:normal;text-indent:0;text-align:start;text-decoration-line:none;text-decoration-style:solid;text-decoration-color:#000000;text-transform:none;shape-padding:0;isolation:auto;mix-blend-mode:normal;fill:#808080;marker:none"
     d="M 7.5 0.41601562 A 52.149 52.149 0 0 0 6.1796875 2.6757812 A 43.18 43.18 0 0 0 5 4.9980469 L 5 5 L 7 5 L 7 11 L 5 11 L 5 11.001953 A 43.084 43.084 0 0 0 6.1796875 13.324219 A 51.555 51.555 0 0 0 7.5 15.583984 A 44.06 44.06 0 0 0 8.8339844 13.324219 C 9.2629844 12.536219 9.652 11.761953 10 11.001953 L 8 11.001953 L 8 4.9980469 L 10 4.9980469 A 36.975 36.975 0 0 0 8.8339844 2.6757812 A 44.06 44.06 0 0 0 7.5 0.41601562 z " />
</svg>
