<?xml version="1.0" encoding="UTF-8" standalone="no"?>
<svg
   height="24"
   width="24"
   version="1.1"
   id="svg8"
   sodipodi:docname="flip-horizontal.svg"
   inkscape:version="1.1 (ce6663b3b7, 2021-05-25)"
   xmlns:inkscape="http://www.inkscape.org/namespaces/inkscape"
   xmlns:sodipodi="http://sodipodi.sourceforge.net/DTD/sodipodi-0.dtd"
   xmlns="http://www.w3.org/2000/svg"
   xmlns:svg="http://www.w3.org/2000/svg">
  <defs
     id="defs12" />
  <sodipodi:namedview
     id="namedview10"
     pagecolor="#ffffff"
     bordercolor="#666666"
     borderopacity="1.0"
     inkscape:pageshadow="2"
     inkscape:pageopacity="0.0"
     inkscape:pagecheckerboard="0"
     showgrid="true"
     inkscape:zoom="28"
     inkscape:cx="9.5178571"
     inkscape:cy="9.5892857"
     inkscape:window-width="1920"
     inkscape:window-height="1016"
     inkscape:window-x="0"
     inkscape:window-y="27"
     inkscape:window-maximized="1"
     inkscape:current-layer="svg8"
     inkscape:snap-page="true">
    <inkscape:grid
       type="xygrid"
       id="grid1005" />
  </sodipodi:namedview>
  <path
     id="path2"
     style="color:#000000;line-height:normal;font-variant-ligatures:none;font-variant-position:normal;font-variant-caps:normal;font-variant-numeric:normal;font-variant-alternates:normal;font-feature-settings:normal;text-indent:0;text-align:start;text-decoration-line:none;text-decoration-style:solid;text-decoration-color:#000000;text-transform:none;shape-padding:0;isolation:auto;mix-blend-mode:normal;fill:#808080;stroke-width:1;marker:none"
     d="m 8.2475586,8.25 a 53.5125,53.5125 0 0 0 -2.9028321,1.4746094 64.44375,64.44375 0 0 0 -2.824707,1.6503906 56,56 0 0 0 2.824707,1.667481 46.21875,46.21875 0 0 0 2.9028321,1.457519 v -2.5 h 7.5048824 v 2.5 c 0.95,-0.435 1.917833,-0.921269 2.902833,-1.457519 a 56,56 0 0 0 2.824706,-1.667481 64.44375,64.44375 0 0 0 -2.824706,-1.6503906 53.855,53.855 0 0 0 -2.902833,-1.4746094 h -0.0025 v 2.5 h -7.4999998 v -2.5 z" />
</svg>
