<?xml version="1.0" encoding="UTF-8" standalone="no"?>
<svg
   height="16"
   width="16"
   version="1.1"
   id="svg8"
   sodipodi:docname="flip-horizontal.svg"
   inkscape:version="1.1 (ce6663b3b7, 2021-05-25)"
   xmlns:inkscape="http://www.inkscape.org/namespaces/inkscape"
   xmlns:sodipodi="http://sodipodi.sourceforge.net/DTD/sodipodi-0.dtd"
   xmlns="http://www.w3.org/2000/svg"
   xmlns:svg="http://www.w3.org/2000/svg">
  <defs
     id="defs12" />
  <sodipodi:namedview
     id="namedview10"
     pagecolor="#ffffff"
     bordercolor="#666666"
     borderopacity="1.0"
     inkscape:pageshadow="2"
     inkscape:pageopacity="0.0"
     inkscape:pagecheckerboard="0"
     showgrid="false"
     inkscape:zoom="56"
     inkscape:cx="7.9910714"
     inkscape:cy="8.0089286"
     inkscape:window-width="1920"
     inkscape:window-height="1016"
     inkscape:window-x="0"
     inkscape:window-y="27"
     inkscape:window-maximized="1"
     inkscape:current-layer="svg8" />
  <path
     id="path2"
     style="color:#000000;line-height:normal;font-variant-ligatures:none;font-variant-position:normal;font-variant-caps:normal;font-variant-numeric:normal;font-variant-alternates:normal;font-feature-settings:normal;text-indent:0;text-align:start;text-decoration-line:none;text-decoration-style:solid;text-decoration-color:#000000;text-transform:none;shape-padding:0;isolation:auto;mix-blend-mode:normal;fill:#808080;marker:none"
     d="M 4.9980469 5 A 42.81 42.81 0 0 0 2.6757812 6.1796875 A 51.555 51.555 0 0 0 0.41601562 7.5 A 44.8 44.8 0 0 0 2.6757812 8.8339844 A 36.975 36.975 0 0 0 4.9980469 10 L 4.9980469 8 L 11.001953 8 L 11.001953 10 C 11.761953 9.652 12.536219 9.2629844 13.324219 8.8339844 A 44.8 44.8 0 0 0 15.583984 7.5 A 51.555 51.555 0 0 0 13.324219 6.1796875 A 43.084 43.084 0 0 0 11.001953 5 L 11 5 L 11 7 L 5 7 L 5 5 L 4.9980469 5 z " />
</svg>
