<?xml version="1.0" encoding="UTF-8" standalone="no"?>
<svg
   height="24"
   width="24"
   version="1.1"
   id="svg12"
   sodipodi:docname="rotate-right.svg"
   inkscape:version="1.1 (ce6663b3b7, 2021-05-25)"
   xmlns:inkscape="http://www.inkscape.org/namespaces/inkscape"
   xmlns:sodipodi="http://sodipodi.sourceforge.net/DTD/sodipodi-0.dtd"
   xmlns="http://www.w3.org/2000/svg"
   xmlns:svg="http://www.w3.org/2000/svg">
  <defs
     id="defs16" />
  <sodipodi:namedview
     id="namedview14"
     pagecolor="#ffffff"
     bordercolor="#666666"
     borderopacity="1.0"
     inkscape:pageshadow="2"
     inkscape:pageopacity="0.0"
     inkscape:pagecheckerboard="0"
     showgrid="true"
     width="24px"
     inkscape:zoom="19.79899"
     inkscape:cx="8.4600276"
     inkscape:cy="11.187439"
     inkscape:window-width="1920"
     inkscape:window-height="1016"
     inkscape:window-x="0"
     inkscape:window-y="27"
     inkscape:window-maximized="1"
     inkscape:current-layer="svg12">
    <inkscape:grid
       type="xygrid"
       id="grid941" />
  </sodipodi:namedview>
  <g
     fill="#808080"
     id="g10"
     transform="matrix(-1.25,0,0,1.25,22,2)"
     style="stroke-width:0.8">
    <path
       d="m 2.091,1.307 3.304,3.307 c -0.732,0.273 -1.5,0.527 -2.306,0.764 -0.8,0.231 -1.592,0.436 -2.375,0.612 0.183,-0.776 0.39,-1.565 0.621,-2.366 0.237,-0.805 0.49,-1.577 0.756,-2.316 z"
       style="stroke-width:0.64;marker:none"
       color="#000000"
       overflow="visible"
       id="path2" />
    <path
       d="m 3.244,11.656 0.072,0.084 -0.75,0.66 -0.091,-0.103 -0.04,-0.05 -0.48,-0.72 0.832,-0.554 z m 1.11,1.108 0.34,0.226 -0.555,0.832 -0.367,-0.244 -0.051,-0.039 -0.422,-0.37 0.658,-0.751 z m 1.353,0.779 0.676,0.23 -0.322,0.948 -0.717,-0.246 -0.06,-0.024 -0.218,-0.11 0.442,-0.896 z m 2.326,0.459 -0.066,0.996 -0.801,-0.053 0.066,-0.998 z"
       style="line-height:normal;font-variant-ligatures:normal;font-variant-position:normal;font-variant-caps:normal;font-variant-numeric:normal;font-variant-alternates:normal;font-feature-settings:normal;text-indent:0;text-align:start;text-decoration-line:none;text-decoration-style:solid;text-decoration-color:#000000;text-transform:none;text-orientation:mixed;shape-padding:0;isolation:auto;mix-blend-mode:normal;stroke-width:0.64"
       color="#000000"
       font-weight="400"
       font-family="sans-serif"
       white-space="normal"
       overflow="visible"
       id="path4" />
    <path
       d="m 8,6 a 2,2 0 0 0 -2,2 2,2 0 0 0 2,2 2,2 0 0 0 2,-2 2,2 0 0 0 -2,-2 z m 0,1 a 1,1 0 0 1 1,1 1,1 0 0 1 -1,1 1,1 0 0 1 -1,-1 1,1 0 0 1 1,-1 z"
       id="path6"
       style="stroke-width:0.8" />
    <path
       d="m 8.426,1.014 c 0.791,0.047 1.586,0.23 2.347,0.558 a 7.005,7.005 0 0 1 4.083,7.844 7.005,7.005 0 0 1 -6.856,5.584 h -0.5 v -1 h 0.5 c 2.85,0 5.3,-1.997 5.877,-4.787 a 5.995,5.995 0 0 0 -3.5,-6.723 5.995,5.995 0 0 0 -7.291,2.07 l -0.287,0.41 -0.82,-0.574 0.287,-0.41 a 7.006,7.006 0 0 1 6.16,-2.971 z"
       style="line-height:normal;font-variant-ligatures:normal;font-variant-position:normal;font-variant-caps:normal;font-variant-numeric:normal;font-variant-alternates:normal;font-feature-settings:normal;text-indent:0;text-align:start;text-decoration-line:none;text-decoration-style:solid;text-decoration-color:#000000;text-transform:none;text-orientation:mixed;shape-padding:0;isolation:auto;mix-blend-mode:normal;stroke-width:0.64"
       color="#000000"
       font-weight="400"
       font-family="sans-serif"
       white-space="normal"
       overflow="visible"
       id="path8" />
  </g>
</svg>
