<svg height="24" width="24" xmlns="http://www.w3.org/2000/svg"><path style="fill:gray;stroke-width:.5;stroke-linecap:square;stroke-linejoin:round" d="M11 15c1.5 0 2 .5 2 2v4c0 .5 0 1 1 1h-4c1 0 1-.5 1-1z"/><path style="color:#000;fill:gray;-inkscape-stroke:none" d="M12 3C9.52 3 7.5 5.02 7.5 7.5v.004c.001.118.023.234.033.351-2.08.733-3.529 2.659-3.533 4.895A5.258 5.258 0 0 0 9.25 18H10v-1h-.75a4.244 4.244 0 0 1-1.064-8.355l.447-.116-.08-.455A3.505 3.505 0 0 1 8.5 7.5v-.004A3.493 3.493 0 0 1 12 4a3.492 3.492 0 0 1 3.5 3.498 3.502 3.502 0 0 1-.48 1.754l-.489.834.963-.084h.01A3.491 3.491 0 0 1 19 13.5c0 1.939-1.561 3.5-3.5 3.5H14v1h1.5c2.48 0 4.5-2.02 4.5-4.5 0-2.281-1.736-4.1-3.941-4.387.208-.522.438-1.044.441-1.611V7.5C16.5 5.02 14.48 3 12 3z"/></svg>