<svg height="24" width="24" xmlns="http://www.w3.org/2000/svg"><path style="color:#000;fill:gray" d="M5.5 3c-1.283 0-2.185.103-2.791.709C2.103 4.315 2 5.217 2 6.5v11c0 1.283.103 2.185.709 2.791.606.606 1.508.709 2.791.709h13c1.283 0 2.185-.103 2.791-.709.606-.606.709-1.508.709-2.791v-8c0-1.283-.103-2.185-.709-2.791C20.685 6.103 19.783 6 18.5 6h-4.793l-3-3zm0 1h4.793l3 3H18.5c1.217 0 1.815.147 2.084.416.27.27.416.867.416 2.084V12H3V6.5c0-1.217.147-1.815.416-2.084C3.686 4.146 4.283 4 5.5 4z"/></svg>