<svg height="24" width="24" xmlns="http://www.w3.org/2000/svg"><path style="color:#000;fill:gray" d="M5.5 3c-1.283 0-2.185.103-2.791.709C2.103 4.315 2 5.217 2 6.5v6.393c.163-.132.34-.246.527-.34C3.397 12.118 4.458 12 5.5 12h13c1.042 0 2.103.118 2.973.553.187.094.364.208.527.34V9.5c0-1.283-.103-2.185-.709-2.791C20.685 6.103 19.783 6 18.5 6h-4.793l-3-3H5.5zm0 10c-.958 0-1.897.132-2.527.447C2.342 13.763 2 14.167 2 15v2.5c0 1.283.103 2.185.709 2.791.606.606 1.508.709 2.791.709h13c1.283 0 2.185-.103 2.791-.709.606-.606.709-1.508.709-2.791V15c0-.833-.342-1.237-.973-1.553-.63-.315-1.569-.447-2.527-.447h-13z"/></svg>