<svg height="24" width="24" xmlns="http://www.w3.org/2000/svg"><path style="color:#000;fill:gray;stroke-linecap:round;fill-opacity:1" d="M5.455 3c-.969.009-1.718.073-2.338.445-.413.248-.72.656-.888 1.162C2.059 5.114 2 5.722 2 6.5v11c0 .778.059 1.391.25 1.908.191.517.553.927 1.027 1.164.95.475 2.223.428 4.223.428H14v-1H7.5c-2 0-3.226-.047-3.777-.322-.276-.138-.414-.29-.535-.617C3.066 18.734 3 18.222 3 17.5v-4.998c0-.722.065-1.239.178-1.576.112-.338.243-.494.455-.621.423-.254 1.367-.303 2.867-.303h4a.5.5 0 0 0 .033-.006.5.5 0 0 0 .121-.023.5.5 0 0 0 .065-.028.5.5 0 0 0 .115-.076.5.5 0 0 0 .02-.015L13.707 7H17.5c1.5 0 2.444.05 2.867.305.212.127.343.281.455.619.113.337.178.854.178 1.576V14h1V9.5c0-.778-.06-1.386-.229-1.893-.168-.506-.475-.914-.888-1.162C20.056 5.95 19 6 17.5 6h-3.793l-2.853-2.854a.5.5 0 0 0-.092-.07.5.5 0 0 0-.032-.017.5.5 0 0 0-.09-.038.5.5 0 0 0-.019-.005A.5.5 0 0 0 10.5 3h-4c-.375 0-.722-.003-1.045 0zM6.5 4h3.793l2.5 2.5-2.502 2.502H6.5c-1.5 0-2.556-.05-3.383.445-.04.024-.079.051-.117.078V6.5c0-.722.065-1.239.178-1.576.112-.338.243-.492.455-.62C4.056 4.052 5 4 6.5 4z"/><path style="fill:gray;stroke:none;stroke-width:2;stroke-linejoin:round;stroke-dasharray:3,3" d="M18 15v3h-3v1h3v3h1v-3h3v-1h-3v-3h-1z"/></svg>