<?xml version="1.0" encoding="UTF-8" standalone="no"?>
<svg
   viewBox="0 1 24 24"
   height="24"
   width="24"
   version="1.1"
   id="svg4"
   sodipodi:docname="open-filled.svg"
   inkscape:version="1.2 (1:1.2.1+202207142221+cd75a1ee6d)"
   xmlns:inkscape="http://www.inkscape.org/namespaces/inkscape"
   xmlns:sodipodi="http://sodipodi.sourceforge.net/DTD/sodipodi-0.dtd"
   xmlns="http://www.w3.org/2000/svg"
   xmlns:svg="http://www.w3.org/2000/svg">
  <defs
     id="defs8" />
  <sodipodi:namedview
     id="namedview6"
     pagecolor="#ffffff"
     bordercolor="#666666"
     borderopacity="1.0"
     inkscape:pageshadow="2"
     inkscape:pageopacity="0.0"
     inkscape:pagecheckerboard="0"
     showgrid="true"
     inkscape:zoom="27.997388"
     inkscape:cx="13.965588"
     inkscape:cy="10.179521"
     inkscape:window-width="1920"
     inkscape:window-height="1043"
     inkscape:window-x="0"
     inkscape:window-y="0"
     inkscape:window-maximized="1"
     inkscape:current-layer="svg4"
     inkscape:showpageshadow="2"
     inkscape:deskcolor="#d1d1d1">
    <inkscape:grid
       type="xygrid"
       id="grid821" />
    <inkscape:grid
       type="xygrid"
       id="grid823"
       dotted="true"
       spacingx="0.5"
       spacingy="0.5"
       empspacing="10" />
  </sodipodi:namedview>
  <path
     id="path600-3"
     style="color:#000000;fill:#808080;-inkscape-stroke:none"
     d="M 5.5 3 C 4.2166692 3 3.3148419 3.1031268 2.7089844 3.7089844 C 2.1031268 4.3148419 2 5.2166692 2 6.5 L 2 17.5 C 2 18.783331 2.1031268 19.685157 2.7089844 20.291016 C 3.3148419 20.896873 4.2166692 21 5.5 21 L 18.5 21 C 19.783331 21 20.685157 20.896873 21.291016 20.291016 C 21.896873 19.685157 22 18.783331 22 17.5 L 22 15.5 L 22 12.525391 C 21.971059 11.940886 21.923174 11.483634 21.833984 11.15625 C 21.744795 10.828866 21.632672 10.641503 21.449219 10.490234 C 21.082312 10.187698 20.220802 10 18.5 10 L 7.5 10 C 6.2833357 10 5.6851564 10.146875 5.4160156 10.416016 C 5.146875 10.685156 5 11.283336 5 12.5 L 5 18 L 4 18 L 4 12.5 C 4 11.216669 4.1031268 10.314842 4.7089844 9.7089844 C 5.3148419 9.1031268 6.2166692 9 7.5 9 L 18.5 9 C 20.210945 9 21.273109 9.1097501 22 9.6523438 L 22 9.5 C 22 8.2166693 21.896873 7.3148424 21.291016 6.7089844 C 20.685157 6.1031268 19.783331 6 18.5 6 L 13.707031 6 L 10.707031 3 L 5.5 3 z " />
</svg>
