<svg height="24" width="24" xmlns="http://www.w3.org/2000/svg"><path style="color:#000;fill:gray;-inkscape-stroke:none" d="M5.5 3c-1.283 0-2.185.103-2.791.709C2.103 4.315 2 5.217 2 6.5v11c0 1.283.103 2.185.709 2.791.606.606 1.508.709 2.791.709h13c1.283 0 2.185-.103 2.791-.709.606-.606.709-1.508.709-2.791v-4.975c-.029-.584-.077-1.041-.166-1.369-.09-.327-.201-.514-.385-.666-.367-.302-1.228-.49-2.949-.49h-11c-1.217 0-1.815.147-2.084.416-.27.27-.416.867-.416 2.084V18H4v-5.5c0-1.283.103-2.185.709-2.791C5.315 9.103 6.217 9 7.5 9h11c1.71 0 2.773.11 3.5.652V9.5c0-1.283-.103-2.185-.709-2.791C20.685 6.103 19.783 6 18.5 6h-4.793l-3-3H5.5z"/></svg>