<?xml version="1.0" encoding="UTF-8" standalone="no"?>
<svg
   viewBox="0 0 24 24"
   height="24"
   width="24"
   version="1.1"
   id="svg4"
   sodipodi:docname="open.svg"
   inkscape:version="1.2 (1:1.2.1+202207142221+cd75a1ee6d)"
   xmlns:inkscape="http://www.inkscape.org/namespaces/inkscape"
   xmlns:sodipodi="http://sodipodi.sourceforge.net/DTD/sodipodi-0.dtd"
   xmlns="http://www.w3.org/2000/svg"
   xmlns:svg="http://www.w3.org/2000/svg">
  <defs
     id="defs8" />
  <sodipodi:namedview
     id="namedview6"
     pagecolor="#ffffff"
     bordercolor="#666666"
     borderopacity="1.0"
     inkscape:pageshadow="2"
     inkscape:pageopacity="0.0"
     inkscape:pagecheckerboard="0"
     showgrid="true"
     inkscape:zoom="19.797143"
     inkscape:cx="16.163949"
     inkscape:cy="9.5215759"
     inkscape:window-width="1850"
     inkscape:window-height="1016"
     inkscape:window-x="0"
     inkscape:window-y="0"
     inkscape:window-maximized="1"
     inkscape:current-layer="svg4"
     inkscape:showpageshadow="2"
     inkscape:deskcolor="#d1d1d1">
    <inkscape:grid
       type="xygrid"
       id="grid821" />
    <inkscape:grid
       type="xygrid"
       id="grid823"
       dotted="true"
       spacingx="0.5"
       spacingy="0.5"
       empspacing="10" />
  </sodipodi:namedview>
  <path
     style="color:#000000;fill:#808080;-inkscape-stroke:none"
     d="m 5.5,3 c -1.2833321,0 -2.1851575,0.1031262 -2.7910156,0.7089844 c -0.6058582,0.6058581 -0.7089844,1.5076835 -0.7089844,2.7910156 v 11 c 0,1.283332 0.1031262,2.185157 0.7089844,2.791016 c 0.6058581,0.605858 1.5076835,0.708984 2.7910156,0.708984 h 13 c 1.283332,0 2.185157,-0.103126 2.791016,-0.708984 c 0.605858,-0.605859 0.708984,-1.507684 0.708984,-2.791016 v -5 c 0,-1.283332 -0.103126,-2.185157 -0.708984,-2.7910156 c -0.605859,-0.6058582 -1.507684,-0.7089844 -2.791016,-0.7089844 h -11 c -1.2833321,0 -2.1851575,0.1031262 -2.7910156,0.7089844 c -0.6058582,0.6058586 -0.7089844,1.5076836 -0.7089844,2.7910156 v 5.5 h 1 v -5.5 c 0,-1.216665 0.1468747,-1.814843 0.4160156,-2.083984 c 0.269141,-0.269141 0.8673189,-0.416016 2.0839844,-0.416016 h 11 c 1.216665,0 1.814843,0.146875 2.083984,0.416016 c 0.269141,0.269141 0.416016,0.867319 0.416016,2.083984 v 5 c 0,1.216665 -0.146875,1.814843 -0.416016,2.083984 c -0.269141,0.269141 -0.867319,0.416016 -2.083984,0.416016 h -13 c -1.2166655,0 -1.8148434,-0.146875 -2.0839844,-0.416016 c -0.2691409,-0.269141 -0.4160156,-0.867319 -0.4160156,-2.083984 v -11 c 0,-1.2166655 0.1468747,-1.8148434 0.4160156,-2.0839844 c 0.269141,-0.2691409 0.8673189,-0.4160156 2.0839844,-0.4160156 h 4.792969 l 3,3 h 6.707031 v -1 h -6.292969 l -3,-3 z"
     id="path600" />
</svg>
