<svg height="24" width="24" xmlns="http://www.w3.org/2000/svg"><path style="color:#000;fill:gray;fill-opacity:1;stroke-linecap:round;-inkscape-stroke:none" d="M5.455 2.001c-.969.01-1.718.074-2.338.446-.413.248-.72.656-.888 1.162C2.059 4.115 2 4.724 2 5.5v9c0 .778.059 1.392.25 1.909.191.516.553.926 1.027 1.164.95.474 2.223.427 4.223.427H11v1h2v-.998h4.5c1.5 0 2.556.051 3.383-.445.413-.248.72-.656.888-1.162.17-.506.229-1.115.229-1.893v-6c0-.777-.06-1.386-.229-1.892-.168-.506-.475-.914-.888-1.162C20.056 4.95 19 5 17.5 5h-3.793l-2.853-2.853a.5.5 0 0 0-.124-.088A.5.5 0 0 0 10.5 2h-4c-.375 0-.722-.003-1.045 0zm1.045 1h3.793l2.5 2.5-2.502 2.502H6.5c-1.5 0-2.556-.05-3.383.446-.04.024-.079.05-.117.078V5.5c0-.722.065-1.238.178-1.576.112-.337.243-.492.455-.619C4.056 3.052 5 3.001 6.5 3.001zm7.207 3H17.5c1.5 0 2.444.051 2.867.305.212.127.343.282.455.62.113.337.178.853.178 1.575v6c0 .723-.065 1.239-.178 1.577-.112.337-.243.492-.455.619C19.944 16.95 19 17 17.5 17h-10c-2 0-3.226-.046-3.777-.322-.276-.138-.414-.29-.535-.617-.122-.327-.188-.838-.188-1.56v-2.999c0-.722.065-1.238.178-1.576.112-.337.243-.494.455-.621C4.056 9.052 5 9.003 6.5 9.003h4a.511.511 0 0 0 .033-.006.5.5 0 0 0 .32-.142z"/><path style="fill:gray;stroke-width:.5;stroke-linecap:square;fill-opacity:1" d="M3 21h18v1H3z"/></svg>