<svg height="24" width="24" xmlns="http://www.w3.org/2000/svg"><path style="color:#000;fill:gray" d="M5.5 3c-1.283 0-2.185.103-2.791.709C2.103 4.315 2 5.217 2 6.5v11c0 1.283.103 2.185.709 2.791.606.606 1.508.709 2.791.709H13c-3.302 0-6-2.698-6-6s2.698-6 6-6 6 2.698 6 6a1 1 0 0 0 0 .002c-.003 1.066-.367 2.066-.9 2.977l2.68 2.68c.19-.096.36-.217.511-.368.606-.606.709-1.508.709-2.791v-8c0-1.283-.103-2.185-.709-2.791C20.685 6.103 19.783 6 18.5 6h-4.793l-3-3H5.5zm10.479 17.1c-.91.533-1.911.897-2.977.9h3.877l-.9-.9z"/><path style="fill:gray;stroke:none;stroke-width:2;stroke-linecap:round;stroke-linejoin:round;stroke-dasharray:2,4" d="M13 10a5 5 0 0 0-5 5 5 5 0 0 0 5 5 5 5 0 0 0 3.158-1.135l3.488 3.489.708-.708-3.489-3.488A5 5 0 0 0 18 15a5 5 0 0 0-5-5zm0 1a4 4 0 0 1 4 4 4 4 0 0 1-4 4 4 4 0 0 1-4-4 4 4 0 0 1 4-4zm0 1a3 3 0 0 0-3 3 3 3 0 0 0 3 3 3 3 0 0 0 3-3 3 3 0 0 0-3-3z"/></svg>