<svg height="24" width="24" xmlns="http://www.w3.org/2000/svg"><path style="color:#000;fill:gray;fill-opacity:1;stroke-linecap:round;-inkscape-stroke:none" d="M5.455 3.002c-.969.009-1.718.073-2.338.445-.413.248-.72.656-.888 1.162C2.059 5.116 2 5.724 2 6.502v11c0 .778.059 1.391.25 1.908.191.517.553.927 1.027 1.164.686.343 1.546.413 2.723.426h3.402a7.058 7.058 0 0 1-1.29-1H6v-.014c-1.13-.029-1.881-.108-2.277-.306-.276-.138-.414-.29-.535-.617-.122-.327-.188-.839-.188-1.561v-11c0-.722.065-1.239.178-1.576.112-.338.243-.492.455-.62C4.056 4.054 5 4.003 6.5 4.003h3.793l2.853 2.853a.5.5 0 0 0 .104.08.5.5 0 0 0 .25.067h4c1.5 0 2.444.05 2.867.305.212.127.343.281.455.619.113.337.178.854.178 1.576v8c0 .722-.065 1.239-.178 1.576-.112.338-.243.492-.455.62a1.42 1.42 0 0 1-.367.14v.04l.75.75c.045-.022.09-.045.133-.071.413-.248.72-.656.888-1.162.17-.507.229-1.115.229-1.893v-8c0-.778-.06-1.386-.229-1.893-.168-.506-.475-.914-.888-1.162-.827-.496-1.883-.445-3.383-.445h-3.793l-2.853-2.854a.5.5 0 0 0-.092-.07.5.5 0 0 0-.032-.017.5.5 0 0 0-.09-.038.5.5 0 0 0-.019-.005.5.5 0 0 0-.121-.016h-4c-.375 0-.722-.003-1.045 0z"/><path style="fill:gray;stroke-width:.5;stroke-linecap:square;fill-opacity:1" d="M13 9a6 6 0 0 0-6 6 6 6 0 0 0 6 6 6 6 0 0 0 3.871-1.422l2.775 2.776.708-.708-2.776-2.775A6 6 0 0 0 19 15a6 6 0 0 0-6-6zm0 1a5 5 0 0 1 5 5 5 5 0 0 1-5 5 5 5 0 0 1-5-5 5 5 0 0 1 5-5z"/></svg>