<svg height="24" width="24" xmlns="http://www.w3.org/2000/svg"><path style="color:#000;fill:gray;-inkscape-stroke:none" d="M5.455 4c-.969.009-1.718.073-2.338.445-.413.248-.72.656-.888 1.162C2.059 6.114 2 6.722 2 7.5v9c0 .778.06 1.386.229 1.893.168.506.475.914.888 1.162C3.944 20.05 5 20 6.5 20h11c1.5 0 2.556.05 3.383-.445.413-.248.72-.656.888-1.162.17-.507.229-1.115.229-1.893v-9c0-.778-.06-1.386-.229-1.893-.168-.506-.475-.914-.888-1.162C20.056 3.95 19 4 17.5 4h-11c-.375 0-.722-.003-1.045 0zM7 5h10.5c1.5 0 2.444.05 2.867.305.212.127.343.281.455.619.113.337.178.854.178 1.576v9c0 .722-.065 1.239-.178 1.576-.112.338-.243.492-.455.62C19.944 18.948 19 19 17.5 19H7V5z"/></svg>