<svg width="24" height="24" xmlns="http://www.w3.org/2000/svg"><path style="color:#000;fill:gray;-inkscape-stroke:none;fill-opacity:1" d="M5.455 2c-.969.009-1.718.073-2.338.445-.413.248-.72.656-.888 1.162C2.059 4.114 2 4.722 2 5.5v8c0 .778.06 1.386.229 1.893.168.506.475.914.888 1.162C3.944 17.05 5 17 6.5 17H9v1h6v-1h2.5c1.5 0 2.556.05 3.383-.445.413-.248.72-.656.888-1.162.17-.507.229-1.115.229-1.893v-8c0-.778-.06-1.386-.229-1.893-.168-.506-.475-.914-.888-1.162C20.056 1.95 19 2 17.5 2h-11c-.375 0-.722-.003-1.045 0zM6.5 3h11c1.5 0 2.444.05 2.867.305.212.127.343.281.455.619.113.337.178.854.178 1.576v8c0 .722-.065 1.239-.178 1.576-.112.338-.243.492-.455.62C19.944 15.948 19 16 17.5 16h-11c-1.5 0-2.444-.05-2.867-.305-.212-.127-.343-.281-.455-.619C3.065 14.74 3 14.222 3 13.5v-8c0-.722.065-1.239.178-1.576.112-.338.243-.492.455-.62C4.056 3.052 5 3 6.5 3z"/><rect style="fill:gray;stroke-linecap:round;fill-opacity:1" width="2" height="2" x="16" y="6" ry=".5"/><rect style="fill:gray;stroke-linecap:round;fill-opacity:1" width="2" height="2" x="16" y="10" ry=".5" rx=".5"/><path style="fill:gray;stroke-linecap:round;fill-opacity:1" d="M6.5 6c-.277 0-.5.223-.5.5v6c0 .277.223.5.5.5h6c.277 0 .5-.223.5-.5v-6c0-.277-.223-.5-.5-.5h-6zM7 8h5v4H7V8z"/><path style="fill:gray;stroke:none;stroke-width:1px;stroke-linecap:butt;stroke-linejoin:miter;fill-opacity:1" d="M2 21v1h20v-1l-4-2H6z"/></svg>