<svg width="24" height="24" xmlns="http://www.w3.org/2000/svg"><path style="color:#000;fill:gray;fill-opacity:1;-inkscape-stroke:none" d="M4.787 2c-.677.006-1.25.048-1.76.303-.34.17-.63.462-.797.838C2.064 3.516 2 3.958 2 4.5v10c0 .542.064.984.23 1.36.167.375.458.668.797.837.68.34 1.473.303 2.473.303H10v1h4v-1h4.5c1 0 1.794.037 2.473-.303.34-.17.63-.462.797-.838.166-.375.23-.817.23-1.359v-10c0-.542-.064-.984-.23-1.36a1.72 1.72 0 0 0-.797-.837C20.293 1.963 19.5 2 18.5 2h-13c-.25 0-.487-.002-.713 0zM4.35 3h15.3c.748 0 1.35.58 1.35 1.3v10.4c0 .72-.602 1.3-1.35 1.3H4.35C3.602 16 3 15.42 3 14.7V4.3C3 3.58 3.602 3 4.35 3zm.85 1C4.533 4 4 4.49 4 5.1v8.8c0 .61.534 1.1 1.2 1.1h13.6c.666 0 1.2-.49 1.2-1.1V5.1c0-.61-.534-1.1-1.2-1.1H5.2zm1.3 2h6c.277 0 .5.223.5.5v6c0 .277-.223.5-.5.5h-6a.499.499 0 0 1-.5-.5v-6c0-.277.223-.5.5-.5zm10 0h1c.277 0 .5.223.5.5v1c0 .277-.223.5-.5.5h-1a.499.499 0 0 1-.5-.5v-1c0-.277.223-.5.5-.5zM7 8v4h5V8H7zm9.5 2h1c.277 0 .5.223.5.5v1c0 .277-.223.5-.5.5h-1a.499.499 0 0 1-.5-.5v-1c0-.277.223-.5.5-.5z"/><path style="fill:gray;stroke:none;stroke-width:1px;stroke-linecap:butt;stroke-linejoin:miter;fill-opacity:1" d="M2 21v1h20v-1l-4-2H6z"/></svg>