<svg height="24" width="24" xmlns="http://www.w3.org/2000/svg"><path style="color:#000;fill:gray;opacity:1" d="M10.291 2c-.706 1.334-2.314 4.64-4.7 11H4c-1.108 0-2 .892-2 2s.892 2 2 2h.135a285.118 285.118 0 0 0-1.715 5h3.164c.631-1.882 1.196-3.5 1.729-5h9.31a352.745 352.745 0 0 1 1.775 5h3.17a351.81 351.81 0 0 0-1.765-5H20c1.108 0 2-.892 2-2s-.892-2-2-2h-1.68c-2.414-6.368-3.978-9.702-4.633-11h-3.396zm1.682 3.469c.692 1.457 1.68 3.653 3.166 7.531H8.773c1.48-3.9 2.49-6.1 3.2-7.531zM4 14h16c.554 0 1 .446 1 1s-.446 1-1 1H4c-.554 0-1-.446-1-1s.446-1 1-1z"/><path style="opacity:1;fill:gray;stroke-width:3;stroke-linecap:square;stroke-linejoin:round" d="M4 14.5h10.5a.499.499 0 1 1 0 1H4a.499.499 0 1 1 0-1z"/></svg>