<svg height="24" width="24" xmlns="http://www.w3.org/2000/svg"><path d="M11.663 2.129 9.22 4.35l-3.304-.13a.5.5 0 0 0-.515.43l-.448 3.273-2.609 2.023a.5.5 0 0 0-.118.663l1.762 2.792-.698 3.23a.5.5 0 0 0 .336.582l3.144 1.009 1.54 2.922a.5.5 0 0 0 .633.23L12 20.124l3.06 1.25a.5.5 0 0 0 .63-.229l1.538-2.922 3.144-1.011a.5.5 0 0 0 .337-.581l-.697-3.228 1.758-2.793a.5.5 0 0 0-.115-.663l-2.61-2.023-.446-3.273a.5.5 0 0 0-.518-.433l-3.3.13-2.444-2.22a.5.5 0 0 0-.673 0zM12 3.175l2.262 2.053a.5.5 0 0 0 .356.128l3.05-.119.413 3.027a.5.5 0 0 0 .19.328l2.412 1.87-1.629 2.584a.5.5 0 0 0-.064.372l.647 2.983-2.91.934a.5.5 0 0 0-.29.243l-1.422 2.7-2.824-1.154a.5.5 0 0 0-.38 0l-2.826 1.154-1.424-2.7a.5.5 0 0 0-.288-.243l-2.91-.931.649-2.988a.5.5 0 0 0-.067-.372L3.316 10.46l2.412-1.87a.5.5 0 0 0 .19-.327l.413-3.026 3.052.119a.5.5 0 0 0 .355-.128z" style="fill:gray"/><path d="M12.03 6.6c1.75 2.632 2.383 5.153 2.97 6.4h-2v4h-2v-4H9c.588-1.248 1.28-3.768 3.03-6.4z" style="fill:gray"/></svg>