<?xml version="1.0" encoding="UTF-8" standalone="no"?>
<svg
   viewBox="0 1 24 24"
   height="24"
   width="24"
   version="1.1"
   id="svg4"
   sodipodi:docname="available-filled.svg"
   inkscape:version="1.2 (1:1.2.1+202207142221+cd75a1ee6d)"
   xmlns:inkscape="http://www.inkscape.org/namespaces/inkscape"
   xmlns:sodipodi="http://sodipodi.sourceforge.net/DTD/sodipodi-0.dtd"
   xmlns="http://www.w3.org/2000/svg"
   xmlns:svg="http://www.w3.org/2000/svg">
  <path
     id="path483"
     style="opacity:1;fill:#808080;fill-rule:evenodd;stroke-width:0.8;stroke-linecap:round;stroke-linejoin:round"
     d="M 8.0000002 6.4e-07 L 5.8109377 1.9859381 L 2.8578127 1.8718756 L 2.4578127 4.8000006 L 0.12187516 6.6109381 L 1.6968752 9.1109381 L 1.0718752 12.000001 L 3.8859377 12.903126 L 5.2640627 15.518751 L 8.0000002 14.400001 L 10.735938 15.517188 L 12.114063 12.903126 L 14.928125 12.000001 L 14.303125 9.1109381 L 15.878125 6.6109381 L 13.542188 4.8000006 L 13.142188 1.8718756 L 10.189063 1.9859381 L 8.0000002 6.4e-07 z M 8.0250002 3.6796881 C 9.4249988 5.785686 9.9300006 7.8020016 10.4 8.8000006 L 8.8000002 8.8000006 L 8.8000002 12.000001 L 7.2000002 12.000001 L 7.2000002 8.8000006 L 5.6000002 8.8000006 C 6.0699997 7.8020016 6.6250016 5.785686 8.0250002 3.6796881 z "
     transform="matrix(1.25,0,0,1.25,1.9999998,1.9999992)" />
  <defs
     id="defs8" />
  <sodipodi:namedview
     id="namedview6"
     pagecolor="#ffffff"
     bordercolor="#666666"
     borderopacity="1.0"
     inkscape:pageshadow="2"
     inkscape:pageopacity="0.0"
     inkscape:pagecheckerboard="0"
     showgrid="true"
     inkscape:snap-page="true"
     inkscape:zoom="19.79899"
     inkscape:cx="8.4347737"
     inkscape:cy="6.2124382"
     inkscape:window-width="1920"
     inkscape:window-height="1043"
     inkscape:window-x="0"
     inkscape:window-y="0"
     inkscape:window-maximized="1"
     inkscape:current-layer="svg4"
     inkscape:showpageshadow="2"
     inkscape:deskcolor="#d1d1d1">
    <inkscape:grid
       type="xygrid"
       id="grid6" />
  </sodipodi:namedview>
</svg>
