<?xml version="1.0" encoding="UTF-8" standalone="no"?>
<svg
   viewBox="0 0 24 24"
   height="24"
   width="24"
   version="1.1"
   id="svg4"
   sodipodi:docname="available.svg"
   inkscape:version="1.2 (1:1.2.1+202207142221+cd75a1ee6d)"
   xmlns:inkscape="http://www.inkscape.org/namespaces/inkscape"
   xmlns:sodipodi="http://sodipodi.sourceforge.net/DTD/sodipodi-0.dtd"
   xmlns="http://www.w3.org/2000/svg"
   xmlns:svg="http://www.w3.org/2000/svg">
  <path
     style="color:#000000;fill:#808080;fill-rule:evenodd;stroke-linecap:round;stroke-linejoin:round;-inkscape-stroke:none"
     d="m 7.7167969,-0.3125 -2.0605469,1.8710937 -2.7832031,-0.1074218 a 0.42143765,0.42143765 0 0 0 -0.4335938,0.3632812 l -0.3769531,2.7578125 -2.19921875,1.7050781 a 0.42143765,0.42143765 0 0 0 -0.0996094,0.5585938 l 1.48437503,2.3535156 -0.58789065,2.7226559 a 0.42143765,0.42143765 0 0 0 0.28320313,0.490235 l 2.65039062,0.849609 1.296875,2.462891 a 0.42143765,0.42143765 0 0 0 0.5332031,0.193359 l 2.5761719,-1.052734 2.578125,1.052734 a 0.42143765,0.42143765 0 0 0 0.53125,-0.193359 l 1.296875,-2.462891 2.650391,-0.851562 a 0.42143765,0.42143765 0 0 0 0.283203,-0.490235 l -0.587891,-2.7207029 1.482422,-2.3535156 a 0.42143765,0.42143765 0 0 0 -0.09766,-0.5585938 l -2.199219,-1.7050781 -0.376953,-2.7578125 a 0.42143765,0.42143765 0 0 0 -0.435547,-0.3652344 l -2.78125,0.109375 -2.0605469,-1.8710937 a 0.42143765,0.42143765 0 0 0 -0.5664062,0 z m 0.2832031,0.88085937 1.90625,1.73046873 a 0.42143765,0.42143765 0 0 0 0.298828,0.1074219 l 2.572266,-0.099609 0.347656,2.5507813 a 0.42143765,0.42143765 0 0 0 0.160156,0.2753906 l 2.033203,1.5761719 -1.373046,2.1777344 a 0.42143765,0.42143765 0 0 0 -0.05469,0.3144531 l 0.544922,2.5136721 -2.451172,0.787109 a 0.42143765,0.42143765 0 0 0 -0.244141,0.205078 l -1.199218,2.275391 -2.3808597,-0.972656 a 0.42143765,0.42143765 0 0 0 -0.3203126,0 l -2.3808593,0.972656 -1.1992188,-2.275391 a 0.42143765,0.42143765 0 0 0 -0.2441406,-0.205078 l -2.4511719,-0.785156 0.5449219,-2.5156251 a 0.42143765,0.42143765 0 0 0 -0.056641,-0.3144531 l -1.37109378,-2.1777344 2.03320318,-1.5761719 a 0.42143765,0.42143765 0 0 0 0.1601562,-0.2753906 l 0.3476563,-2.5507813 2.5722656,0.099609 a 0.42143765,0.42143765 0 0 0 0.2988281,-0.1074219 z"
     id="path483"
     transform="matrix(1.1865337,0,0,1.1865337,2.5072937,2.5004458)" />
  <defs
     id="defs8" />
  <sodipodi:namedview
     id="namedview6"
     pagecolor="#ffffff"
     bordercolor="#666666"
     borderopacity="1.0"
     inkscape:pageshadow="2"
     inkscape:pageopacity="0.0"
     inkscape:pagecheckerboard="0"
     showgrid="true"
     inkscape:snap-page="true"
     inkscape:zoom="9.8994949"
     inkscape:cx="-23.991123"
     inkscape:cy="1.2626907"
     inkscape:window-width="1920"
     inkscape:window-height="1016"
     inkscape:window-x="0"
     inkscape:window-y="0"
     inkscape:window-maximized="1"
     inkscape:current-layer="svg4"
     inkscape:showpageshadow="2"
     inkscape:deskcolor="#d1d1d1">
    <inkscape:grid
       type="xygrid"
       id="grid6" />
  </sodipodi:namedview>
  <path
     style="font-variant-ligatures:normal;font-variant-position:normal;font-variant-caps:normal;font-variant-numeric:normal;font-variant-alternates:normal;font-feature-settings:normal;text-indent:0;text-decoration-line:none;text-decoration-style:solid;text-decoration-color:#000000;text-transform:none;text-orientation:mixed;shape-padding:0;isolation:auto;mix-blend-mode:normal;stroke-width:1;fill:#808080"
     d="m 12.030393,6.5995295 c 1.75,2.6325 2.382107,5.1529705 2.969607,6.4004705 h -2 v 3.99953 h -2 v -3.99953 h -2 c 0.5875,-1.2475 1.280393,-3.7679705 3.030393,-6.4004705 z"
     id="path708"
     sodipodi:nodetypes="cccccccc" />
</svg>
