<svg height="24" width="24" xmlns="http://www.w3.org/2000/svg"><path style="color:#000;fill:gray;fill-opacity:1;stroke-width:.5;stroke-linecap:square;stroke-linejoin:round;-inkscape-stroke:none" d="M11.5 2c-.806 0-1.372.135-1.748.285a2.15 2.15 0 0 0-.606.361L9 2.793v1.451c-2.28.44-3.758 1.326-3.758 1.326L5 5.717V7H4v1h1v10.5c0 1-.037 1.794.303 2.473.17.34.462.63.838.797.375.166.817.23 1.359.23H14v-1H7.5c-.458 0-.766-.061-.953-.145a.615.615 0 0 1-.35-.328C6.037 20.207 6 19.5 6 18.5V8h13V7h-1V5.717l-.242-.147S16.28 4.685 14 4.244V2.793l-.146-.147s-.23-.21-.606-.36C12.872 2.134 12.306 2 11.5 2zm0 1c.694 0 1.128.115 1.377.215.113.045.085.04.123.062v.813c-.476-.056-.977-.09-1.5-.09s-1.024.034-1.5.09v-.813c.038-.022.01-.017.123-.062.249-.1.683-.215 1.377-.215zM9 10v7h1v-7zm2 0v7h1v-7zm2 0v5h1v-5zm4 0v2h1v-2z"/><path style="color:#000;fill:gray;stroke-linejoin:round;-inkscape-stroke:none;fill-opacity:1" d="M16.5 13a.5.5 0 0 0-.281.912s.668.541.972.764c-.284.23-.303.206-.601.47-.653.58-1.303 1.223-1.795 1.874-.492.65-.87 1.311-.793 2.033a3.037 3.037 0 0 0 1.541 2.361c.778.443 1.676.586 2.457.586.781 0 1.68-.143 2.457-.586a3.037 3.037 0 0 0 1.541-2.361c.077-.722-.3-1.383-.793-2.033-.492-.651-1.142-1.295-1.795-1.874-.298-.264-.317-.24-.601-.47.304-.223.972-.764.972-.764A.5.5 0 0 0 19.5 13zm1.5 2.309c.34.27.378.259.746.586.624.553 1.236 1.163 1.662 1.726.426.563.62 1.075.594 1.326-.088.821-.477 1.277-1.04 1.598-.561.32-1.31.455-1.962.455-.652 0-1.4-.135-1.963-.455-.562-.32-.951-.777-1.039-1.598-.027-.25.168-.763.594-1.326.426-.563 1.038-1.173 1.662-1.726.368-.327.406-.317.746-.586z"/></svg>