<svg height="24" width="24" xmlns="http://www.w3.org/2000/svg"><path style="color:#000;fill:gray;fill-opacity:1;-inkscape-stroke:none" d="M6.787 4c-.677.006-1.25.048-1.76.303-.34.17-.63.462-.797.838C4.064 5.516 4 5.958 4 6.5V11h1V6.5c0-.458.061-.766.145-.953a.615.615 0 0 1 .328-.35C5.793 5.037 6.5 5 7.5 5H11V4H7.5c-.25 0-.487-.002-.713 0zM13 4v1h3.5c1 0 1.706.037 2.027.197.16.08.245.163.328.35.084.187.145.495.145.953V11h1V6.5c0-.542-.064-.984-.23-1.36a1.72 1.72 0 0 0-.797-.837C18.293 3.963 17.5 4 16.5 4H13zm-9 9v4.5c0 .542.064.984.23 1.36.167.375.458.668.797.837.68.34 1.473.303 2.473.303H11v-1H7.5c-1 0-1.706-.037-2.027-.197a.615.615 0 0 1-.328-.35C5.06 18.266 5 17.958 5 17.5V13H4zm15 0v4.5c0 .458-.061.766-.145.953a.615.615 0 0 1-.328.35c-.32.16-1.027.197-2.027.197H13v1h3.5c1 0 1.794.037 2.473-.303.34-.17.63-.462.797-.838.166-.375.23-.817.23-1.359V13h-1z"/></svg>