<svg height="24" width="24" xmlns="http://www.w3.org/2000/svg"><path style="fill:gray;fill-opacity:1;stroke-linecap:round" d="M10.5 3A7.5 7.5 0 0 0 3 10.5a7.5 7.5 0 0 0 7.5 7.5 7.5 7.5 0 0 0 4.938-1.855l5.208 5.209.708-.708-5.21-5.209A7.5 7.5 0 0 0 18 10.5 7.5 7.5 0 0 0 10.5 3zm0 1a6.5 6.5 0 0 1 6.5 6.5 6.5 6.5 0 0 1-6.5 6.5A6.5 6.5 0 0 1 4 10.5 6.5 6.5 0 0 1 10.5 4zm0 1A5.5 5.5 0 0 0 5 10.5a5.5 5.5 0 0 0 5.5 5.5 5.5 5.5 0 0 0 5.5-5.5A5.5 5.5 0 0 0 10.5 5zM10 7h1v3h3v1h-3v3h-1v-3H7v-1h3V7z"/></svg>