<svg height="24" width="24" xmlns="http://www.w3.org/2000/svg"><path style="color:#000;fill:gray;fill-opacity:1;-inkscape-stroke:none" d="M6.787 4c-.677.006-1.25.048-1.76.303-.34.17-.63.462-.797.838C4.064 5.516 4 5.958 4 6.5v11c0 .542.064.984.23 1.36.167.375.458.668.797.837.68.34 1.473.303 2.473.303h9c1 0 1.794.037 2.473-.303.34-.17.63-.462.797-.838.166-.375.23-.817.23-1.359v-11c0-.542-.064-.984-.23-1.36a1.72 1.72 0 0 0-.797-.837C18.293 3.963 17.5 4 16.5 4h-9c-.25 0-.487-.002-.713 0zM12 8h1v8h-1V9.822c-.744.722-1.565 1.198-2.51 1.178l.02-1c.792.017 1.629-.597 2.49-1.674V8z"/></svg>