<svg height="24" width="24" xmlns="http://www.w3.org/2000/svg"><path style="color:#000;fill:gray;-inkscape-stroke:none" d="M12 3.293 7.293 8H4.221l-.147.238a7.22 7.22 0 0 0 0 7.524L4.22 16h3.074L12 20.707zm-1 2.414v12.586L7.707 15H4.859a6.155 6.155 0 0 1 0-6h2.848z"/><path style="color:#000;fill:gray;stroke-linecap:square;-inkscape-stroke:none" d="m14.5 7.793-.707.707.353.354c1.824 1.823 1.824 4.47 0 6.292l-.353.354.707.707.354-.353c2.176-2.177 2.176-5.53 0-7.708z"/><path style="color:#000;fill:gray;-inkscape-stroke:none" d="m17.854 5.146-.708.708C19.073 7.78 20 9.898 20 12c0 2.102-.927 4.22-2.854 6.146l.708.708C19.927 16.78 21 14.398 21 12c0-2.398-1.073-4.78-3.146-6.854z"/></svg>