<svg height="24" width="24" xmlns="http://www.w3.org/2000/svg"><path style="color:#000;fill:gray;-inkscape-stroke:none" d="M11.992 3.293 7.285 8H4.213l-.147.238a7.22 7.22 0 0 0-.002 7.524l.147.238h3.074l4.707 4.707zm-1 2.414v12.586L7.7 15H4.852a6.155 6.155 0 0 1 0-6h2.847z"/><path style="color:#000;fill:gray;stroke-linecap:square;-inkscape-stroke:none" d="m14.492 7.793-.707.707.354.354c1.823 1.823 1.823 4.47 0 6.292l-.354.354.707.707.354-.353c2.176-2.177 2.176-5.53 0-7.708z"/><path style="color:#000;fill:gray;-inkscape-stroke:none" d="m17.846 5.146-.707.708C19.065 7.78 19.992 9.898 19.992 12c0 2.102-.927 4.22-2.853 6.146l.707.708c2.073-2.074 3.146-4.456 3.146-6.854 0-2.398-1.073-4.78-3.146-6.854z"/></svg>