<?xml version="1.0" encoding="UTF-8" standalone="no"?>
<svg viewBox="0 0 24 24" height="24" width="24" version="1.1" id="svg10" sodipodi:docname="low.svg" inkscape:version="1.1 (ce6663b3b7, 2021-05-25)"
   xmlns:inkscape="http://www.inkscape.org/namespaces/inkscape"
   xmlns:sodipodi="http://sodipodi.sourceforge.net/DTD/sodipodi-0.dtd"
   xmlns="http://www.w3.org/2000/svg"
   xmlns:svg="http://www.w3.org/2000/svg">
   <defs id="defs14" />
   <sodipodi:namedview id="namedview12" pagecolor="#ffffff" bordercolor="#666666" borderopacity="1.0" inkscape:pageshadow="2" inkscape:pageopacity="0.0" inkscape:pagecheckerboard="0" showgrid="true" inkscape:zoom="28" inkscape:cx="21.696429" inkscape:cy="11.803571" inkscape:window-width="1920" inkscape:window-height="1016" inkscape:window-x="0" inkscape:window-y="27" inkscape:window-maximized="1" inkscape:current-layer="svg10">
      <inkscape:grid type="xygrid" id="grid1673" />
   </sodipodi:namedview>
   <path style="color:#000000;fill:#808080;-inkscape-stroke:none" d="m 11.992188,3.2929688 -4.7070318,4.7070312 h -3.0722656 l -0.1464844,0.2382813 c -1.4056249,2.2899907 -1.4156795,5.2106197 -0.00195,7.5234377 l 0.1464844,0.238281 h 3.0742187 l 4.7070318,4.707031 z m -1,2.4140624 v 12.5859378 l -3.2929693,-3.292969 h -2.8476562 c -1.0444344,-1.879406 -1.0373261,-4.140352 0,-6 h 2.8476562 z" id="path857" />
   <path style="color:#000000;fill:#808080;stroke-linecap:square;-inkscape-stroke:none" d="m 14.492188,8.1464844 -0.353516,0.3535156 0.175781,0.1777344 c 1.91161,1.9116096 1.91161,4.7329216 0,6.6445316 l -0.175781,0.177734 0.353516,0.353516 0.175781,-0.175782 c 2.088386,-2.088386 2.088386,-5.267082 0,-7.3554684 z" id="path1025" />
   <path style="color:#000000;fill:#808080;-inkscape-stroke:none" d="m 17.667969,5.3222656 -0.353516,0.3554688 c 1.96317,1.9631695 2.927734,4.1463419 2.927734,6.3222656 0,2.175924 -0.964564,4.359096 -2.927734,6.322266 l 0.353516,0.355468 c 2.036826,-2.036826 3.074218,-4.353662 3.074218,-6.677734 0,-2.3240717 -1.037392,-4.6409079 -3.074218,-6.6777344 z" id="path1481" />
</svg>
