<svg height="24" width="24" xmlns="http://www.w3.org/2000/svg"><path style="color:#000;fill:gray;-inkscape-stroke:none" d="M11.992 3.293 7.285 8H4.213l-.147.238a7.22 7.22 0 0 0-.002 7.524l.147.238h3.074l4.707 4.707zm-1 2.414v12.586L7.7 15H4.852a6.155 6.155 0 0 1 0-6h2.847z"/><path style="color:#000;fill:gray;stroke-linecap:square;-inkscape-stroke:none" d="m14.492 7.793-.707.707.354.354c1.823 1.823 1.823 4.47 0 6.292l-.354.354.707.707.354-.353c2.176-2.177 2.176-5.53 0-7.708z"/><path style="color:#000;fill:gray;-inkscape-stroke:none" d="m17.668 5.322-.354.356C19.278 7.64 20.242 9.824 20.242 12s-.964 4.36-2.928 6.322l.354.356c2.037-2.037 3.074-4.354 3.074-6.678s-1.037-4.64-3.074-6.678z"/></svg>