<?xml version="1.0" encoding="UTF-8" standalone="no"?>
<svg viewBox="0 1 24 24" height="24" width="24" version="1.1" id="svg839" sodipodi:docname="medium-filled.svg" inkscape:version="1.1 (ce6663b3b7, 2021-05-25)"
   xmlns:inkscape="http://www.inkscape.org/namespaces/inkscape"
   xmlns:sodipodi="http://sodipodi.sourceforge.net/DTD/sodipodi-0.dtd"
   xmlns="http://www.w3.org/2000/svg"
   xmlns:svg="http://www.w3.org/2000/svg">
   <defs id="defs843" />
   <sodipodi:namedview id="namedview841" pagecolor="#ffffff" bordercolor="#666666" borderopacity="1.0" inkscape:pageshadow="2" inkscape:pageopacity="0.0" inkscape:pagecheckerboard="0" showgrid="true" inkscape:snap-grids="false" inkscape:zoom="19.79899" inkscape:cx="25.026529" inkscape:cy="10.732871" inkscape:window-width="1920" inkscape:window-height="1016" inkscape:window-x="0" inkscape:window-y="27" inkscape:window-maximized="1" inkscape:current-layer="svg839">
      <inkscape:grid type="xygrid" id="grid902" dotted="false" />
      <inkscape:grid type="xygrid" id="grid1121" dotted="true" spacingx="0.5" spacingy="0.5" empspacing="10" />
   </sodipodi:namedview>
   <path style="color:#000000;fill:#808080;-inkscape-stroke:none" d="m 11.992188,3.2929688 -4.7070318,4.7070312 h -3.0722656 l -0.1464844,0.2382813 c -1.4056206,2.2899907 -1.4156806,5.2106197 -0.00195,7.5234377 l 0.1464844,0.238281 h 3.0742187 l 4.7070317,4.707031 z" id="path857" sodipodi:nodetypes="ccccccccc" />
   <path style="color:#000000;fill:#808080;stroke-linecap:square;-inkscape-stroke:none" d="m 14.492188,7.7929687 -0.707032,0.7070313 0.353516,0.3535156 c 1.823221,1.8232214 1.823221,4.4697474 0,6.2929684 l -0.353516,0.353516 0.707032,0.707031 0.353515,-0.353515 c 2.176775,-2.176775 2.176775,-5.530257 0,-7.7070316 z" id="path1025" sodipodi:nodetypes="ccssccssc" />
   <path style="color:#000000;fill:#808080;-inkscape-stroke:none" d="m 17.667969,5.3222656 -0.353516,0.3554688 c 1.96317,1.9631695 2.927734,4.1463418 2.927734,6.3222656 0,2.175924 -0.964564,4.359096 -2.927734,6.322266 l 0.353516,0.355468 c 2.036826,-2.036826 3.074218,-4.353662 3.074218,-6.677734 0,-2.3240717 -1.037392,-4.6409079 -3.074218,-6.6777344 z" id="path1481" sodipodi:nodetypes="ccsccsc" />
</svg>
