<svg height="24" width="24" xmlns="http://www.w3.org/2000/svg"><path style="color:#000;fill:gray;-inkscape-stroke:none" d="M11.992 3.293 7.285 8H4.213l-.147.238a7.22 7.22 0 0 0-.002 7.524l.147.238h1.668l1-1 4.113-4.113 1-1zm7.654.353-1.654 1.655-.705.705L14.992 8.3l-.707.707-2.293 2.293-1 1-2.996 2.996-.707.707-3.643 3.642.707.708 3.643-3.643 3.996 3.996v-7.992l2.898-2.899c1.02 1.712.771 3.808-.752 5.33l-.353.354.707.707.354-.353c1.88-1.88 2.132-4.637.763-6.756l2.344-2.344C19.326 8.43 19.992 10.22 19.992 12c0 2.102-.927 4.22-2.854 6.146l.708.708c2.073-2.074 3.146-4.456 3.146-6.854 0-2.059-.795-4.103-2.332-5.953l1.693-1.693z"/></svg>