<svg height="24" width="24" xmlns="http://www.w3.org/2000/svg"><path style="color:#000;fill:gray;fill-opacity:1;-inkscape-stroke:none" d="M11.992 3.293 7.285 8H4.213l-.147.238a7.22 7.22 0 0 0-.002 7.524l.147.238h3.074l4.707 4.707z"/><path style="color:#000;fill:gray;fill-opacity:1;stroke-linecap:square;-inkscape-stroke:none" d="m14.908 8.213-.707.707c1.738 1.799 1.738 4.361 0 6.16l.707.707c2.09-2.156 2.09-5.418 0-7.574z"/><path style="color:#000;fill:gray;fill-opacity:1;-inkscape-stroke:none" d="m17.908 5.213-.707.707c1.882 1.909 2.791 4.002 2.791 6.08 0 2.078-.909 4.171-2.791 6.08l.707.707c2.031-2.058 3.084-4.414 3.084-6.787s-1.053-4.729-3.084-6.787zm-.262-2.567-5 5 .707.708 5-5zm-4.293 13-.707.708 5 5 .707-.708z"/></svg>