<?xml version="1.0" encoding="UTF-8" standalone="no"?>
<svg
   height="24"
   width="24"
   version="1.1"
   id="svg8"
   sodipodi:docname="_.svg"
   inkscape:version="1.1 (ce6663b3b7, 2021-05-25)"
   xmlns:inkscape="http://www.inkscape.org/namespaces/inkscape"
   xmlns:sodipodi="http://sodipodi.sourceforge.net/DTD/sodipodi-0.dtd"
   xmlns="http://www.w3.org/2000/svg"
   xmlns:svg="http://www.w3.org/2000/svg"
   xmlns:rdf="http://www.w3.org/1999/02/22-rdf-syntax-ns#"
   xmlns:cc="http://creativecommons.org/ns#"
   xmlns:dc="http://purl.org/dc/elements/1.1/">
  <metadata
     id="metadata14">
    <rdf:RDF>
      <cc:Work
         rdf:about="">
        <dc:format>image/svg+xml</dc:format>
        <dc:type
           rdf:resource="http://purl.org/dc/dcmitype/StillImage" />
      </cc:Work>
    </rdf:RDF>
  </metadata>
  <defs
     id="defs12" />
  <sodipodi:namedview
     pagecolor="#ffffff"
     bordercolor="#666666"
     borderopacity="1"
     objecttolerance="10"
     gridtolerance="10"
     guidetolerance="10"
     inkscape:pageopacity="0"
     inkscape:pageshadow="2"
     inkscape:window-width="1920"
     inkscape:window-height="1016"
     id="namedview10"
     showgrid="true"
     inkscape:snap-global="true"
     showguides="true"
     inkscape:guide-bbox="true"
     inkscape:zoom="22.627418"
     inkscape:cx="12.529048"
     inkscape:cy="10.496116"
     inkscape:window-x="0"
     inkscape:window-y="27"
     inkscape:window-maximized="1"
     inkscape:current-layer="g3340"
     showborder="true"
     inkscape:document-rotation="0"
     inkscape:pagecheckerboard="0">
    <inkscape:grid
       type="xygrid"
       id="grid3353" />
  </sodipodi:namedview>
  <g
     color="#000000"
     fill="#808080"
     id="g6">
    <g
       transform="translate(-71.996853,-179.99766)"
       style="display:inline"
       id="g3340">
      <path
         id="path5525-3"
         style="color:#000000;font-style:normal;font-variant:normal;font-weight:normal;font-stretch:normal;font-size:medium;line-height:normal;font-family:sans-serif;text-indent:0;text-align:start;text-decoration:none;text-decoration-line:none;text-decoration-style:solid;text-decoration-color:#000000;letter-spacing:normal;word-spacing:normal;text-transform:none;writing-mode:lr-tb;direction:ltr;baseline-shift:baseline;text-anchor:start;white-space:normal;clip-rule:nonzero;display:inline;overflow:visible;visibility:visible;opacity:1;isolation:auto;mix-blend-mode:normal;color-interpolation:sRGB;color-interpolation-filters:linearRGB;solid-color:#000000;solid-opacity:1;fill:#808080;fill-opacity:1;fill-rule:nonzero;stroke:none;stroke-width:4.00079;stroke-linecap:butt;stroke-linejoin:miter;stroke-miterlimit:4;stroke-dasharray:none;stroke-dashoffset:0;stroke-opacity:1;marker:none;color-rendering:auto;image-rendering:auto;shape-rendering:auto;text-rendering:auto;enable-background:accumulate"
         d="m 78.933358,182.62266 c -1.555208,0.0182 -2.692597,-0.0382 -3.623047,0.48096 -0.465219,0.25956 -0.831614,0.69923 -1.035157,1.24756 -0.203596,0.54832 -0.27832,1.19947 -0.27832,2.02148 v 5 6.25 c 0,0.82202 0.07478,1.47314 0.27832,2.02149 0.20353,0.54832 0.569938,0.98798 1.035157,1.24756 0.93045,0.5192 2.067827,0.46283 3.623047,0.48095 h 0.0049 2.475586 5.166017 2.475586 0.0049 c 1.55522,-0.0181 2.692598,0.0383 3.623048,-0.48095 0.465219,-0.25958 0.831627,-0.69925 1.035157,-1.24756 0.203545,-0.54835 0.27832,-1.19947 0.27832,-2.02149 v -6.25 -5 c 0,-0.82201 -0.07473,-1.47316 -0.27832,-2.02148 -0.203543,-0.54832 -0.569938,-0.988 -1.035157,-1.24756 -0.93045,-0.51922 -2.06784,-0.46271 -3.623048,-0.48096 h -0.0049 -2.475586 -5.166017 -2.475586 z m -3.544922,3.75 h 6.025391 5.166017 6.025392 c 0.109762,2.9038 0.155199,7.34604 0.15625,10 0,1.25 0.258616,2.91023 -0.957032,3.46924 -0.917397,0.30026 -2.752476,0.28076 -5.22461,0.28076 h -5.166017 c -2.472134,0 -4.307212,0.0195 -5.22461,-0.28076 -1.215647,-0.55901 -0.957031,-2.21924 -0.957031,-3.46924 0.0011,-2.65396 0.04649,-7.0962 0.15625,-10 z"
         sodipodi:nodetypes="cccscscccccccccsscsccccccccccccccccccc" />
    </g>
  </g>
</svg>
