<?xml version="1.0" encoding="UTF-8" standalone="no"?>
<svg
   height="16"
   width="16"
   version="1.1"
   id="svg8"
   sodipodi:docname="_.svg"
   inkscape:version="1.1 (ce6663b3b7, 2021-05-25)"
   xmlns:inkscape="http://www.inkscape.org/namespaces/inkscape"
   xmlns:sodipodi="http://sodipodi.sourceforge.net/DTD/sodipodi-0.dtd"
   xmlns="http://www.w3.org/2000/svg"
   xmlns:svg="http://www.w3.org/2000/svg"
   xmlns:rdf="http://www.w3.org/1999/02/22-rdf-syntax-ns#"
   xmlns:cc="http://creativecommons.org/ns#"
   xmlns:dc="http://purl.org/dc/elements/1.1/">
  <metadata
     id="metadata14">
    <rdf:RDF>
      <cc:Work
         rdf:about="">
        <dc:format>image/svg+xml</dc:format>
        <dc:type
           rdf:resource="http://purl.org/dc/dcmitype/StillImage" />
      </cc:Work>
    </rdf:RDF>
  </metadata>
  <defs
     id="defs12" />
  <sodipodi:namedview
     pagecolor="#ffffff"
     bordercolor="#666666"
     borderopacity="1"
     objecttolerance="10"
     gridtolerance="10"
     guidetolerance="10"
     inkscape:pageopacity="0"
     inkscape:pageshadow="2"
     inkscape:window-width="1920"
     inkscape:window-height="1043"
     id="namedview10"
     showgrid="true"
     inkscape:snap-global="true"
     showguides="true"
     inkscape:guide-bbox="true"
     inkscape:zoom="22.627418"
     inkscape:cx="5.9883103"
     inkscape:cy="9.5459411"
     inkscape:window-x="1920"
     inkscape:window-y="0"
     inkscape:window-maximized="1"
     inkscape:current-layer="g3340"
     showborder="true"
     inkscape:document-rotation="0"
     inkscape:pagecheckerboard="0">
    <inkscape:grid
       type="xygrid"
       id="grid3353" />
  </sodipodi:namedview>
  <g
     color="#000"
     fill="gray"
     id="g6">
    <g
       transform="translate(-71.996853,-179.99766)"
       style="display:inline"
       id="g3340">
      <path
         id="path5525-3"
         style="color:#000000;font-style:normal;font-variant:normal;font-weight:normal;font-stretch:normal;font-size:medium;line-height:normal;font-family:sans-serif;text-indent:0;text-align:start;text-decoration:none;text-decoration-line:none;text-decoration-style:solid;text-decoration-color:#000000;letter-spacing:normal;word-spacing:normal;text-transform:none;writing-mode:lr-tb;direction:ltr;baseline-shift:baseline;text-anchor:start;white-space:normal;clip-rule:nonzero;display:inline;overflow:visible;visibility:visible;opacity:1;isolation:auto;mix-blend-mode:normal;color-interpolation:sRGB;color-interpolation-filters:linearRGB;solid-color:#000000;solid-opacity:1;fill:#808080;fill-opacity:1;fill-rule:nonzero;stroke:none;stroke-width:4.00079;stroke-linecap:butt;stroke-linejoin:miter;stroke-miterlimit:4;stroke-dasharray:none;stroke-dashoffset:0;stroke-opacity:1;marker:none;color-rendering:auto;image-rendering:auto;shape-rendering:auto;text-rendering:auto;enable-background:accumulate"
         d="m 3.9492188,1 c -1.2441662,0.01457 -2.1540775,-0.0305543 -2.8984376,0.3847656 -0.3721748,0.20765 -0.66529095,0.5593899 -0.82812495,0.9980469 -0.162877,0.438661 -0.22265625,0.9595775 -0.22265625,1.6171875 v 4 5 c 0,0.65761 0.05982125,1.178513 0.22265625,1.617188 0.162824,0.438654 0.45595015,0.790386 0.82812495,0.998046 0.74436,0.415366 1.6542616,0.370266 2.8984376,0.384766 h 0.00391 1.9804688 4.1328122 1.980469 0.0039 c 1.244176,-0.0145 2.154078,0.0306 2.898438,-0.384766 0.372175,-0.20766 0.665301,-0.559397 0.828125,-0.998046 0.162836,-0.438681 0.222656,-0.959578 0.222656,-1.617188 v -5 -4 c 0,-0.65761 -0.05978,-1.1785275 -0.222656,-1.6171875 -0.162834,-0.43865 -0.45595,-0.7903969 -0.828125,-0.9980469 -0.74436,-0.41536997 -1.654272,-0.3701656 -2.898438,-0.3847656 h -0.0039 -1.980469 -4.1328122 -1.9804688 z m -2.8359376,3 h 4.8203126 4.1328122 4.820313 c 0.08781,2.32304 0.124159,5.87683 0.125,8 0,1 0.206893,2.328181 -0.765625,2.775391 -0.733918,0.24021 -2.201981,0.224609 -4.179688,0.224609 h -4.1328122 c -1.977707,0 -3.4457695,0.01562 -4.1796876,-0.224609 -0.9725178,-0.44721 -0.76562495,-1.775391 -0.76562495,-2.775391 8.41e-4,-2.123172 0.0371902,-5.676961 0.12499995,-8 z"
         transform="translate(71.996853,179.99766)"
         sodipodi:nodetypes="cccscscccccccccsscsccccccccccccccccccc" />
    </g>
  </g>
</svg>
