<?xml version="1.0" encoding="UTF-8" standalone="no"?>
<svg
   height="24"
   width="24"
   version="1.1"
   id="svg8"
   sodipodi:docname="new.svg"
   inkscape:version="1.1 (ce6663b3b7, 2021-05-25)"
   xmlns:inkscape="http://www.inkscape.org/namespaces/inkscape"
   xmlns:sodipodi="http://sodipodi.sourceforge.net/DTD/sodipodi-0.dtd"
   xmlns="http://www.w3.org/2000/svg"
   xmlns:svg="http://www.w3.org/2000/svg"
   xmlns:rdf="http://www.w3.org/1999/02/22-rdf-syntax-ns#"
   xmlns:cc="http://creativecommons.org/ns#"
   xmlns:dc="http://purl.org/dc/elements/1.1/">
  <metadata
     id="metadata14">
    <rdf:RDF>
      <cc:Work
         rdf:about="">
        <dc:format>image/svg+xml</dc:format>
        <dc:type
           rdf:resource="http://purl.org/dc/dcmitype/StillImage" />
      </cc:Work>
    </rdf:RDF>
  </metadata>
  <defs
     id="defs12" />
  <sodipodi:namedview
     pagecolor="#ffffff"
     bordercolor="#666666"
     borderopacity="1"
     objecttolerance="10"
     gridtolerance="10"
     guidetolerance="10"
     inkscape:pageopacity="0"
     inkscape:pageshadow="2"
     inkscape:window-width="1920"
     inkscape:window-height="1043"
     id="namedview10"
     showgrid="true"
     inkscape:snap-global="true"
     showguides="true"
     inkscape:guide-bbox="true"
     inkscape:zoom="32.000001"
     inkscape:cx="21.453124"
     inkscape:cy="14.3125"
     inkscape:window-x="1920"
     inkscape:window-y="0"
     inkscape:window-maximized="1"
     inkscape:current-layer="g6"
     showborder="true"
     inkscape:document-rotation="0"
     inkscape:pagecheckerboard="0"
     inkscape:snap-page="true">
    <inkscape:grid
       type="xygrid"
       id="grid3353" />
  </sodipodi:namedview>
  <g
     color="#000000"
     fill="#808080"
     id="g6">
    <g
       transform="matrix(1.2496949,0,0,1.2496949,-87.9741,-223.56578)"
       style="display:inline;stroke-width:0.800195;fill:#ffff00"
       id="g3340" />
    <path
       id="path859"
       style="color:#000000;fill:#808080;fill-opacity:1;-inkscape-stroke:none"
       d="M 5.4550781 3 C 4.4864972 3.00898 3.7372591 3.073269 3.1171875 3.4453125 C 2.7038064 3.6933412 2.3972496 4.10122 2.2285156 4.6074219 C 2.0597817 5.1136238 2 5.722223 2 6.5 L 2 17.5 C 2 18.277777 2.059782 18.886375 2.2285156 19.392578 C 2.3972496 19.89878 2.7038064 20.306658 3.1171875 20.554688 C 3.9439497 21.050746 5.0000015 21 6.5 21 L 14 21 L 14 20 L 6.5 20 C 5.0000015 20 4.056049 19.94925 3.6328125 19.695312 C 3.4211942 19.568342 3.2902501 19.41372 3.1777344 19.076172 C 3.0652186 18.738625 3 18.222221 3 17.5 L 3 7 L 21 7 L 21 14 L 22 14 L 22 6.5 C 22 5.722223 21.94022 5.1136238 21.771484 4.6074219 C 21.60275 4.10122 21.296194 3.6933412 20.882812 3.4453125 C 20.056051 2.9492552 18.999998 3 17.5 3 L 6.5 3 C 6.1250004 3 5.7779384 2.99701 5.4550781 3 z " />
    <path
       id="rect961"
       style="fill:#808080;fill-rule:evenodd;stroke-linecap:round;fill-opacity:1"
       d="M 18 15 L 18 18 L 15 18 L 15 19 L 18 19 L 18 22 L 19 22 L 19 19 L 22 19 L 22 18 L 19 18 L 19 15 L 18 15 z " />
  </g>
</svg>
