<?xml version="1.0" encoding="UTF-8" standalone="no"?>
<svg
   height="24"
   width="24"
   version="1.1"
   id="svg4"
   sodipodi:docname="clear-night.svg"
   inkscape:version="1.1 (ce6663b3b7, 2021-05-25)"
   xmlns:inkscape="http://www.inkscape.org/namespaces/inkscape"
   xmlns:sodipodi="http://sodipodi.sourceforge.net/DTD/sodipodi-0.dtd"
   xmlns="http://www.w3.org/2000/svg"
   xmlns:svg="http://www.w3.org/2000/svg">
  <defs
     id="defs8" />
  <sodipodi:namedview
     id="namedview6"
     pagecolor="#ffffff"
     bordercolor="#666666"
     borderopacity="1.0"
     inkscape:pageshadow="2"
     inkscape:pageopacity="0.0"
     inkscape:pagecheckerboard="0"
     showgrid="false"
     inkscape:snap-page="true"
     inkscape:zoom="28"
     inkscape:cx="6.4821429"
     inkscape:cy="6.6607143"
     inkscape:window-width="1920"
     inkscape:window-height="1016"
     inkscape:window-x="0"
     inkscape:window-y="27"
     inkscape:window-maximized="1"
     inkscape:current-layer="svg4" />
  <path
     d="m 9.50125,3.49375 -0.00125,0.00125 c -0.3,0.64625 -0.53375,1.30375 -0.66625,1.7075 -0.435,0 -1.15,0.01625 -1.83375,0.105 v 0.00125 h 0.00125 c 0.52125,0.4875 1.075,0.9125 1.41875,1.1625 -0.135,0.4125 -0.34,1.1 -0.4675,1.775 h 0.0025 c 0.62375,-0.345 1.19875,-0.74 1.5425,-0.98875 a 15.075,15.075 0 0 0 1.545,0.99125 v -0.00125 a 16.005,16.005 0 0 0 -0.46375,-1.7725 15.08125,15.08125 0 0 0 1.42125,-1.1625 v -0.00125 h -0.0013 a 15.985,15.985 0 0 0 -1.83,-0.10625 15.0875,15.0875 0 0 0 -0.6675,-1.7125 z m -4.37625,4.93875 a 12,12 0 0 0 -0.5,1.28125 11.29,11.29 0 0 0 -1.375,0.08 12,12 0 0 0 1.065,0.87125 c -0.10125,0.31 -0.255,0.825 -0.35,1.3325 a 11.9875,11.9875 0 0 0 1.1575,-0.7425 11.125,11.125 0 0 0 1.16,0.745 v -0.0013 c -0.1025,-0.525 -0.25,-1.0275 -0.34875,-1.33 0.26375,-0.19125 0.69125,-0.5175 1.06625,-0.8725 a 11.995,11.995 0 0 0 -1.37375,-0.08 11.3475,11.3475 0 0 0 -0.5,-1.28375 z m 9.74625,-3.62625 a 7.15625,7.15625 0 0 1 1.375,6.37 7.16125,7.16125 0 0 1 -8.77,5.0625 7.16,7.16 0 0 1 -2.665,-1.37375 8.13375,8.13375 0 0 0 5.7,5.60625 8.1325,8.1325 0 0 0 9.96125,-5.75 8.13375,8.13375 0 0 0 -5.6,-9.915 z m 2.7075,3.07125 a 6.83875,6.83875 0 0 1 1.91,5.15875 6.95875,6.95875 0 0 1 -0.225,1.3625 6.8625,6.8625 0 0 1 -11.42125,3.16 c 4.25,0.7625 8.475,-1.81625 9.6125,-6.0575 v -0.0025 a 8.3875,8.3875 0 0 0 0.125,-3.62125 z"
     fill="#808080"
     overflow="visible"
     style="stroke-width:1;marker:none"
     color="#000000"
     id="path2" />
</svg>
