<?xml version="1.0" encoding="UTF-8" standalone="no"?>
<svg
   height="24"
   width="24"
   version="1.1"
   id="svg4"
   sodipodi:docname="clear.svg"
   inkscape:version="1.1 (ce6663b3b7, 2021-05-25)"
   xmlns:inkscape="http://www.inkscape.org/namespaces/inkscape"
   xmlns:sodipodi="http://sodipodi.sourceforge.net/DTD/sodipodi-0.dtd"
   xmlns="http://www.w3.org/2000/svg"
   xmlns:svg="http://www.w3.org/2000/svg">
  <defs
     id="defs8" />
  <sodipodi:namedview
     id="namedview6"
     pagecolor="#ffffff"
     bordercolor="#666666"
     borderopacity="1.0"
     inkscape:pageshadow="2"
     inkscape:pageopacity="0.0"
     inkscape:pagecheckerboard="0"
     showgrid="false"
     width="24px"
     inkscape:zoom="28"
     inkscape:cx="7.1607143"
     inkscape:cy="8.5535714"
     inkscape:window-width="1920"
     inkscape:window-height="1016"
     inkscape:window-x="0"
     inkscape:window-y="27"
     inkscape:window-maximized="1"
     inkscape:current-layer="svg4" />
  <path
     d="m 11.375,2 v 2.5 h 1.25 v -2.5 z m -3.8325,1.0275 -1.085,0.625 1.2525,2.16625 1.0825,-0.625 z m 8.915,0 -1.25,2.16625 1.085,0.625 1.25,-2.16625 z m -4.4575,2.7225 a 6.25,6.25 0 1 0 0,12.5 6.25,6.25 0 0 0 0,-12.5 z m -8.3475,0.7075 -0.625,1.085 2.16625,1.25 0.625,-1.085 z m 16.695,0 -2.16625,1.25 0.625,1.085 2.16625,-1.25 z m -8.3475,0.5425 a 5,5 0 0 1 5,5 5,5 0 0 1 -5,5 5,5 0 0 1 -5,-5 5,5 0 0 1 5,-5 z m -10,4.375 v 1.25 h 2.5 v -1.25 z m 17.5,0 v 1.25 h 2.5 v -1.25 z m -14.30625,3.8325 -2.16625,1.25 0.625,1.085 2.16625,-1.2525 z m 13.6125,0 -0.625,1.085 2.16625,1.25 0.625,-1.085 z m -11.09875,2.975 -1.25,2.165 1.085,0.625 1.25,-2.16625 z m 8.585,0 -1.085,0.625 1.25,2.165 1.085,-0.625 z m -4.9175,1.3175 v 2.5 h 1.25 v -2.5 z"
     fill="#808080"
     id="path2"
     style="stroke-width:1" />
</svg>
