<?xml version="1.0" encoding="UTF-8" standalone="no"?>
<svg
   height="24"
   id="svg7384"
   version="1.1"
   width="24"
   sodipodi:docname="few-clouds.svg"
   inkscape:version="1.1 (ce6663b3b7, 2021-05-25)"
   xmlns:inkscape="http://www.inkscape.org/namespaces/inkscape"
   xmlns:sodipodi="http://sodipodi.sourceforge.net/DTD/sodipodi-0.dtd"
   xmlns="http://www.w3.org/2000/svg"
   xmlns:svg="http://www.w3.org/2000/svg"
   xmlns:rdf="http://www.w3.org/1999/02/22-rdf-syntax-ns#"
   xmlns:cc="http://creativecommons.org/ns#"
   xmlns:dc="http://purl.org/dc/elements/1.1/">
  <sodipodi:namedview
     id="namedview21"
     pagecolor="#ffffff"
     bordercolor="#666666"
     borderopacity="1.0"
     inkscape:pageshadow="2"
     inkscape:pageopacity="0.0"
     inkscape:pagecheckerboard="0"
     showgrid="false"
     width="24px"
     inkscape:zoom="27.999943"
     inkscape:cx="4.6607237"
     inkscape:cy="8.3035883"
     inkscape:window-width="1920"
     inkscape:window-height="1016"
     inkscape:window-x="0"
     inkscape:window-y="27"
     inkscape:window-maximized="1"
     inkscape:current-layer="svg7384" />
  <metadata
     id="metadata20854">
    <rdf:RDF>
      <cc:Work
         rdf:about="">
        <dc:format>image/svg+xml</dc:format>
        <dc:type
           rdf:resource="http://purl.org/dc/dcmitype/StillImage" />
      </cc:Work>
    </rdf:RDF>
  </metadata>
  <defs
     id="defs7386">
    <linearGradient
       id="linearGradient5606"
       inkscape:swatch="solid">
      <stop
         id="stop5608"
         offset="0"
         style="stop-color:#000000;stop-opacity:1;" />
    </linearGradient>
    <linearGradient
       id="linearGradient4526"
       inkscape:swatch="solid">
      <stop
         id="stop4528"
         offset="0"
         style="stop-color:#ffffff;stop-opacity:1;" />
    </linearGradient>
    <linearGradient
       id="linearGradient3600-4"
       inkscape:swatch="gradient">
      <stop
         id="stop3602-7"
         offset="0"
         style="stop-color:#f4f4f4;stop-opacity:1" />
      <stop
         id="stop3604-6"
         offset="1"
         style="stop-color:#dbdbdb;stop-opacity:1" />
    </linearGradient>
  </defs>
  <g
     id="layer9"
     label="status"
     style="display:inline;stroke-width:0.8"
     transform="matrix(1.25,0,0,1.25,-1439.2503,-189.25)">
    <path
       d="m 1160.5002,153 v 2 h 1 v -2 z m -3.0664,0.82227 -0.8672,0.5 1.002,1.73242 0.8652,-0.5 z m 7.1328,0 -1,1.73242 0.8672,0.5 1,-1.73242 z m -3.5664,2.17773 c -2.7614,0 -5,2.23858 -5,5 0,1.64757 0.8077,3.09689 2.0371,4.00781 a 3.5,3.5 0 0 1 0.3106,-1.01953 4,4 0 0 1 -1.3477,-2.98828 4,4 0 0 1 4,-4 4,4 0 0 1 3.8731,3.01758 4.5,4.5 0 0 1 1.0644,0.22461 c -0.3658,-2.40104 -2.4343,-4.24219 -4.9375,-4.24219 z m -6.6777,0.56641 -0.5,0.86718 1.7324,1 0.5,-0.86718 z m 13.3554,0 -1.7324,1 0.5,0.86718 1.7324,-1 z m -14.6777,3.93359 v 1 h 2 v -1 z m 14,0 v 0.26172 a 4.5,4.5 0 0 1 0.8477,0.73828 h 1.1523 v -1 z m -2.5,0.5 a 3.5,3.5 0 0 0 -3.1602,2.00586 2.5,2.5 0 0 0 -2.3398,2.49414 2.5,2.5 0 0 0 2.5,2.5 h 3 2.5 a 2,2 0 0 0 2,-2 2,2 0 0 0 -1.0078,-1.73438 3.5,3.5 0 0 0 -3.4922,-3.26562 z m 0,1 v 0 c 1.3244,9.8e-4 2.4035,1.01036 2.4922,2.33203 l 0.037,0.53516 0.4648,0.26758 c 0.3127,0.17865 0.5035,0.50706 0.5039,0.86718 -10e-4,0.56317 -0.4365,0.99805 -1,0.99805 h -2.5 -3 c -0.8403,0 -1.5,-0.65973 -1.5,-1.5 2e-4,-0.8006 0.6054,-1.4448 1.4043,-1.49609 l 0.5879,-0.0371 0.252,-0.53321 c 0.4132,-0.8751 1.2882,-1.43149 2.2558,-1.43359 z m -8.9414,1.56641 -1.7324,1 0.5,0.86718 1.7324,-1.00195 z m 2.0117,2.3789 -1,1.73242 0.8672,0.5 0.8106,-1.40234 a 3.5,3.5 0 0 1 -0.1622,-0.5332 z m 2.9337,2.90625 v 0.14844 h 1 a 3.5,3.5 0 0 1 -1,-0.14844 z"
       id="path2480"
       style="opacity:1;fill:#808080;fill-opacity:1;stroke:none;stroke-width:0.4;stroke-linecap:square;stroke-linejoin:round;stroke-miterlimit:4;stroke-dasharray:none;stroke-dashoffset:0;stroke-opacity:1" />
  </g>
  <g
     id="layer2"
     style="display:inline;stroke-width:0.8"
     transform="matrix(1.25,0,0,1.25,-1138,-648)" />
  <g
     id="layer4"
     style="display:inline;stroke-width:0.8"
     transform="matrix(1.25,0,0,1.25,-1138,-648)" />
  <g
     id="g1812"
     style="display:inline;stroke-width:0.8"
     transform="matrix(1.25,0,0,1.25,-1138,-648)" />
  <g
     id="g6217"
     style="display:inline;stroke-width:0.8"
     transform="matrix(1.25,0,0,1.25,-1138,-648)" />
  <g
     id="layer3"
     style="display:inline;stroke-width:0.8"
     transform="matrix(1.25,0,0,1.25,-1138,-648)" />
  <g
     id="g1833"
     style="display:inline;stroke-width:0.8"
     transform="matrix(1.25,0,0,1.25,-1138,-648)" />
  <g
     id="layer1"
     style="display:inline;stroke-width:0.8"
     transform="matrix(1.25,0,0,1.25,-1138,-648)" />
</svg>
