<?xml version="1.0" encoding="UTF-8" standalone="no"?>
<svg
   height="24"
   width="24"
   version="1.1"
   id="svg4"
   sodipodi:docname="few-clouds-night.svg"
   inkscape:version="1.1 (ce6663b3b7, 2021-05-25)"
   xmlns:inkscape="http://www.inkscape.org/namespaces/inkscape"
   xmlns:sodipodi="http://sodipodi.sourceforge.net/DTD/sodipodi-0.dtd"
   xmlns="http://www.w3.org/2000/svg"
   xmlns:svg="http://www.w3.org/2000/svg">
  <defs
     id="defs8" />
  <sodipodi:namedview
     id="namedview6"
     pagecolor="#ffffff"
     bordercolor="#666666"
     borderopacity="1.0"
     inkscape:pageshadow="2"
     inkscape:pageopacity="0.0"
     inkscape:pagecheckerboard="0"
     showgrid="false"
     inkscape:snap-page="true"
     inkscape:zoom="28"
     inkscape:cx="4.0178571"
     inkscape:cy="10.589286"
     inkscape:window-width="1920"
     inkscape:window-height="1016"
     inkscape:window-x="0"
     inkscape:window-y="27"
     inkscape:window-maximized="1"
     inkscape:current-layer="svg4" />
  <path
     d="m 12.37125,2.3075 a 7.15625,7.15625 0 0 1 1.375,6.37 7.16125,7.16125 0 0 1 -8.77,5.0625 7.16,7.16 0 0 1 -2.66625,-1.37375 8.13375,8.13375 0 0 0 5.7,5.605 c 0.11125,0.03 0.22125,0.04625 0.33125,0.07125 0.08375,-0.42125 0.235,-0.81875 0.4375,-1.18375 -0.14875,-0.03 -0.29625,-0.05375 -0.4425,-0.09375 a 6.8825,6.8825 0 0 1 -2.99375,-1.70625 c 4.24875,0.76375 8.475,-1.815 9.6125,-6.05625 v -0.0025 a 8.385,8.385 0 0 0 0.125,-3.62125 6.84,6.84 0 0 1 1.90875,5.15875 6.95,6.95 0 0 1 -0.225,1.3625 c -0.0125,0.045 -0.02875,0.0875 -0.04125,0.13125 0.42875,0.0275 0.84125,0.10375 1.2375,0.225 0,-0.01125 0.0125,-0.0225 0.0125,-0.03375 a 8.13375,8.13375 0 0 0 -5.6,-9.915 z m 4.00375,10.9425 a 4.375,4.375 0 0 0 -3.95,2.5075 3.125,3.125 0 0 0 0.2,6.2425 h 6.875 a 2.5,2.5 0 0 0 1.24,-4.6675 4.375,4.375 0 0 0 -4.365,-4.0825 z m 0,1.25 a 3.1075,3.1075 0 0 1 3.115,2.915 l 0.04625,0.66875 0.58125,0.335 a 1.245,1.245 0 0 1 0.63,1.08375 1.23125,1.23125 0 0 1 -1.25,1.2475 h -6.875 c -1.05,0 -1.875,-0.825 -1.875,-1.875 0,-1 0.75625,-1.80625 1.755,-1.87 l 0.735,-0.04625 0.315,-0.66625 a 3.12125,3.12125 0 0 1 2.82,-1.7925 z"
     fill="#808080"
     overflow="visible"
     style="stroke-width:1;marker:none"
     color="#000000"
     id="path2" />
</svg>
