<?xml version="1.0" encoding="UTF-8" standalone="no"?>
<svg
   height="24"
   width="24"
   version="1.1"
   id="svg4"
   sodipodi:docname="fog.svg"
   inkscape:version="1.1 (ce6663b3b7, 2021-05-25)"
   xmlns:inkscape="http://www.inkscape.org/namespaces/inkscape"
   xmlns:sodipodi="http://sodipodi.sourceforge.net/DTD/sodipodi-0.dtd"
   xmlns="http://www.w3.org/2000/svg"
   xmlns:svg="http://www.w3.org/2000/svg">
  <defs
     id="defs8" />
  <sodipodi:namedview
     id="namedview6"
     pagecolor="#ffffff"
     bordercolor="#666666"
     borderopacity="1.0"
     inkscape:pageshadow="2"
     inkscape:pageopacity="0.0"
     inkscape:pagecheckerboard="0"
     showgrid="false"
     inkscape:snap-page="true"
     inkscape:zoom="28"
     inkscape:cx="1.8035714"
     inkscape:cy="8.4107143"
     inkscape:window-width="1920"
     inkscape:window-height="1016"
     inkscape:window-x="0"
     inkscape:window-y="27"
     inkscape:window-maximized="1"
     inkscape:current-layer="svg4" />
  <path
     d="m 12.80125,2.835 c -2.6975,0.0025 -4.9900003,1.66375 -6.0850003,4.04 l -0.07625,0.1625 -0.17375,0.0125 c -2.4925,0.18 -4.465,2.3375 -4.465,4.96 0,0.90875 0.25125,1.75375 0.66375,2.49 h 1.50125 a 3.82125,3.82125 0 0 1 -0.915,-2.49 c 0,-1.99625 1.48,-3.5825 3.305,-3.71625 l 0.90375,-0.0625 0.3875,-0.82875 v -0.005 c 0.91125,-1.975 2.7662503,-3.31125 4.9512503,-3.3125 2.96,0.0025 5.365,2.44 5.50625,5.55875 v 0.0125 l 0.0625,0.97 0.88,0.37 a 2.43,2.43 0 0 1 1.49375,2.26875 c 0.0125,1.3925 -1.0575,2.485 -2.33875,2.485 h -16.4037503 v 1.25 h 16.4025003 c 1.98875,0 3.59625,-1.6875 3.59625,-3.735 a 3.6975,3.6975 0 0 0 -2.25625,-3.41875 l -0.17125,-0.0725 -0.0125,-0.18625 c -0.16875,-3.74125 -3.1075,-6.75 -6.755,-6.7525 z m -10.8000003,15.415 v 1.25 h 20.0000003 v -1.25 z m 0,2.5 v 1.25 h 20.0000003 v -1.25 z"
     fill="#808080"
     font-family="sans-serif"
     font-weight="400"
     overflow="visible"
     style="line-height:normal;-inkscape-font-specification:sans-serif;text-indent:0;text-align:start;text-decoration-line:none;text-transform:none;stroke-width:1;marker:none"
     color="#000000"
     id="path2" />
</svg>
