<?xml version="1.0" encoding="UTF-8" standalone="no"?>
<svg
   height="24"
   width="24"
   version="1.1"
   id="svg8"
   sodipodi:docname="overcast.svg"
   inkscape:version="1.1 (ce6663b3b7, 2021-05-25)"
   xmlns:inkscape="http://www.inkscape.org/namespaces/inkscape"
   xmlns:sodipodi="http://sodipodi.sourceforge.net/DTD/sodipodi-0.dtd"
   xmlns="http://www.w3.org/2000/svg"
   xmlns:svg="http://www.w3.org/2000/svg">
  <defs
     id="defs12" />
  <sodipodi:namedview
     id="namedview10"
     pagecolor="#ffffff"
     bordercolor="#666666"
     borderopacity="1.0"
     inkscape:pageshadow="2"
     inkscape:pageopacity="0.0"
     inkscape:pagecheckerboard="0"
     showgrid="false"
     inkscape:snap-page="true"
     inkscape:zoom="28"
     inkscape:cx="5.625"
     inkscape:cy="9.1964286"
     inkscape:window-width="1920"
     inkscape:window-height="1016"
     inkscape:window-x="0"
     inkscape:window-y="27"
     inkscape:window-maximized="1"
     inkscape:current-layer="svg8" />
  <g
     fill="#808080"
     id="g6"
     transform="matrix(1.2500007,0,0,1.2500007,1.9999875,1.9999943)"
     style="stroke-width:0.8">
    <path
       d="m 9.399,6.918 c -1.349,0.002 -2.494,0.832 -3.041,2.02 l -0.04,0.08 -0.085,0.008 c -1.247,0.09 -2.233,1.168 -2.233,2.48 0,1.37 1.072,2.494 2.4,2.494 h 5.8 c 0.995,0 1.8,-0.843 1.8,-1.867 a 1.85,1.85 0 0 0 -1.13,-1.71 l -0.086,-0.036 -0.01,-0.092 c -0.084,-1.87 -1.551,-3.375 -3.374,-3.377 z m 0,1 c 1.272,0.002 2.316,1.05 2.378,2.422 v 0.031 l 0.076,0.705 0.627,0.268 c 0.305,0.13 0.52,0.413 0.52,0.789 0,0.5 -0.37,0.867 -0.799,0.867 h -5.803 c -0.76,0 -1.398,-0.645 -1.398,-1.494 0,-0.81 0.591,-1.432 1.303,-1.485 l 0.672,-0.046 0.289,-0.616 v -0.004 c 0.399,-0.866 1.193,-1.435 2.13,-1.437 z"
       style="line-height:normal;-inkscape-font-specification:sans-serif;text-indent:0;text-align:start;text-decoration-line:none;text-transform:none;stroke-width:0.639999;marker:none"
       color="#000000"
       font-weight="400"
       font-family="sans-serif"
       overflow="visible"
       id="path2" />
    <path
       d="m 9.5,1 a 3.5,3.5 0 0 0 -3.166,2.018 3.5,3.5 0 0 0 -3.803,3.04 2,2 0 0 0 0.47,3.942 h 0.269 a 3.5,3.25 0 0 1 0.71,-1 h -0.982 c -0.564,0 -1,-0.436 -1,-1 a 0.99,0.99 0 0 1 0.766,-0.97 l 0.67,-0.163 0.088,-0.683 a 2.488,2.488 0 0 1 2.71,-2.172 l 0.706,0.072 0.3,-0.643 a 2.496,2.496 0 0 1 2.26,-1.441 2.485,2.485 0 0 1 2.498,2.498 v 0.002 c 0,0.127 -0.012,0.253 -0.033,0.379 l -0.16,0.969 0.965,0.18 a 1.489,1.489 0 0 1 1.229,1.472 c 0,0.84 -0.66,1.5 -1.5,1.5 h -0.498 v 1 h 0.5 a 2.5,2.5 0 0 0 0.453,-4.957 c 0.03,-0.18 0.045,-0.361 0.047,-0.543 a 3.5,3.5 0 0 0 -3.5,-3.5 z"
       id="path4"
       style="stroke-width:0.8" />
  </g>
</svg>
