<?xml version="1.0" encoding="UTF-8" standalone="no"?>
<svg
   height="24"
   width="24"
   version="1.1"
   id="svg6"
   sodipodi:docname="severe-alert.svg"
   inkscape:version="1.1 (ce6663b3b7, 2021-05-25)"
   xmlns:inkscape="http://www.inkscape.org/namespaces/inkscape"
   xmlns:sodipodi="http://sodipodi.sourceforge.net/DTD/sodipodi-0.dtd"
   xmlns="http://www.w3.org/2000/svg"
   xmlns:svg="http://www.w3.org/2000/svg">
  <defs
     id="defs10" />
  <sodipodi:namedview
     id="namedview8"
     pagecolor="#ffffff"
     bordercolor="#666666"
     borderopacity="1.0"
     inkscape:pageshadow="2"
     inkscape:pageopacity="0.0"
     inkscape:pagecheckerboard="0"
     showgrid="false"
     inkscape:zoom="28"
     inkscape:cx="6.7678571"
     inkscape:cy="7.2321429"
     inkscape:window-width="1920"
     inkscape:window-height="1016"
     inkscape:window-x="0"
     inkscape:window-y="27"
     inkscape:window-maximized="1"
     inkscape:current-layer="svg6"
     inkscape:snap-page="true" />
  <path
     color="#000000"
     d="m 12.799375,2.835 c -2.6975,0.0025 -4.9899997,1.66375 -6.0849997,4.04 l -0.07625,0.1625 -0.17375,0.0125 c -2.4925,0.18 -4.465,2.3375 -4.465,4.96 0,2.74125 2.145,4.99 4.7975,4.99 h 2.7025 v -1.25 h -2.7025 c -1.94625,0 -3.5475,-1.65125 -3.5475,-3.74 0,-1.99625 1.48,-3.5825 3.305,-3.71625 l 0.90375,-0.0625 0.3875,-0.82875 v -0.005 c 0.91125,-1.975 2.7662497,-3.31125 4.9512497,-3.3125 2.96,0.0025 5.365,2.44 5.50625,5.55875 v 0.0125 l 0.0625,0.97 0.88,0.37 a 2.43,2.43 0 0 1 1.49375,2.26875 c 0.0125,1.3925 -1.0575,2.485 -2.33875,2.485 h -3.90375 v 1.25 h 3.90375 c 1.98875,0 3.59625,-1.6875 3.59625,-3.735 a 3.6975,3.6975 0 0 0 -2.25625,-3.41875 l -0.17,-0.0725 -0.0125,-0.18625 c -0.17,-3.74125 -3.10875,-6.75 -6.75625,-6.7525 z"
     fill="#808080"
     font-family="sans-serif"
     font-weight="400"
     overflow="visible"
     style="line-height:normal;-inkscape-font-specification:sans-serif;text-indent:0;text-align:start;text-decoration-line:none;text-transform:none;stroke-width:1;marker:none"
     id="path2" />
  <path
     class="error"
     color="#000000"
     d="m 11.113125,9.5 v 3.3275 c 0,0.99125 0.0375,1.89625 0.1075,2.71 0.07125,0.8025 0.16,1.605 0.26625,2.4075 h 1.025 c 0.10625,-0.8025 0.19625,-1.605 0.26625,-2.4075 0.07125,-0.81375 0.1075,-1.71875 0.1075,-2.71 v -3.3275 z m 0.8875,10.1275 c -0.3675,0 -0.655,0.1175 -0.8675,0.35375 a 1.20625,1.20625 0 0 0 -0.32,0.8325 c 0,0.31875 0.1075,0.59625 0.32,0.8325 0.2125,0.23625 0.5,0.35375 0.86625,0.35375 0.36625,0 0.655,-0.1175 0.8675,-0.35375 a 1.20625,1.20625 0 0 0 0.31875,-0.8325 1.20625,1.20625 0 0 0 -0.31875,-0.8325 c -0.2125,-0.2375 -0.50125,-0.35375 -0.8675,-0.35375 z"
     fill="#da1636"
     font-family="sans-serif"
     font-weight="400"
     overflow="visible"
     style="line-height:normal;font-variant-ligatures:none;font-variant-position:normal;font-variant-caps:normal;font-variant-numeric:normal;font-variant-alternates:normal;font-feature-settings:normal;text-indent:0;text-align:start;text-decoration-line:none;text-decoration-style:solid;text-decoration-color:#000000;text-transform:none;shape-padding:0;isolation:auto;mix-blend-mode:normal;fill:#808080;fill-opacity:1;stroke-width:1;marker:none"
     white-space="normal"
     id="path4" />
</svg>
