<?xml version="1.0" encoding="UTF-8" standalone="no"?>
<svg
   height="24"
   width="24"
   version="1.1"
   id="svg4"
   sodipodi:docname="showers-scattered.svg"
   inkscape:version="1.1 (ce6663b3b7, 2021-05-25)"
   xmlns:inkscape="http://www.inkscape.org/namespaces/inkscape"
   xmlns:sodipodi="http://sodipodi.sourceforge.net/DTD/sodipodi-0.dtd"
   xmlns="http://www.w3.org/2000/svg"
   xmlns:svg="http://www.w3.org/2000/svg">
  <defs
     id="defs8" />
  <sodipodi:namedview
     id="namedview6"
     pagecolor="#ffffff"
     bordercolor="#666666"
     borderopacity="1.0"
     inkscape:pageshadow="2"
     inkscape:pageopacity="0.0"
     inkscape:pagecheckerboard="0"
     showgrid="false"
     inkscape:snap-page="true"
     inkscape:zoom="39.59798"
     inkscape:cx="7.0079333"
     inkscape:cy="7.4119943"
     inkscape:window-width="1920"
     inkscape:window-height="1016"
     inkscape:window-x="0"
     inkscape:window-y="27"
     inkscape:window-maximized="1"
     inkscape:current-layer="svg4" />
  <path
     d="m 12.00625,19.5 a 3.1275,3.1275 0 0 1 -2.96875,-4.1075 c 0,-0.03125 0.02125,-0.06375 0.02875,-0.095 0.07875,-0.2625 1.2475,-4.09375 2.9425,-7.52875 v 0.00625 c 1.81,3.75 2.96,7.6175 2.96,7.6175 a 3.1275,3.1275 0 0 1 -2.96875,4.1075 z m 6.86875,-6.25 a 1.875,1.875 0 0 1 -1.78,-2.4625 c 0,-0.02 0.01875,-0.03875 0.01875,-0.0575 0.0475,-0.15875 0.74875,-2.45625 1.765,-4.51625 v 0.0025 c 1.085,2.25 1.775,4.57 1.775,4.57 a 1.875,1.875 0 0 1 -1.78125,2.4625 z m -13.75,0 a 1.875,1.875 0 0 1 -1.78,-2.4625 c 0,-0.02 0.01875,-0.04 0.01875,-0.0575 0.0475,-0.15875 0.74875,-2.45625 1.765,-4.51625 v 0.0025 c 1.085,2.25 1.775,4.57 1.775,4.57 a 1.875,1.875 0 0 1 -1.78125,2.4625 z"
     fill="#808080"
     overflow="visible"
     style="stroke-width:1;marker:none"
     color="#000000"
     id="path2" />
</svg>
