<?xml version="1.0" encoding="UTF-8" standalone="no"?>
<svg
   height="24"
   width="24"
   version="1.1"
   id="svg8"
   sodipodi:docname="showers.svg"
   inkscape:version="1.1 (ce6663b3b7, 2021-05-25)"
   xmlns:inkscape="http://www.inkscape.org/namespaces/inkscape"
   xmlns:sodipodi="http://sodipodi.sourceforge.net/DTD/sodipodi-0.dtd"
   xmlns="http://www.w3.org/2000/svg"
   xmlns:svg="http://www.w3.org/2000/svg">
  <defs
     id="defs12" />
  <sodipodi:namedview
     id="namedview10"
     pagecolor="#ffffff"
     bordercolor="#666666"
     borderopacity="1.0"
     inkscape:pageshadow="2"
     inkscape:pageopacity="0.0"
     inkscape:pagecheckerboard="0"
     showgrid="false"
     inkscape:snap-page="true"
     inkscape:zoom="28"
     inkscape:cx="0.94642857"
     inkscape:cy="10.625"
     inkscape:window-width="1920"
     inkscape:window-height="1016"
     inkscape:window-x="0"
     inkscape:window-y="27"
     inkscape:window-maximized="1"
     inkscape:current-layer="svg8" />
  <g
     color="#000000"
     fill="#808080"
     id="g6"
     transform="matrix(1.25,0,0,1.25,2,2)"
     style="stroke-width:0.8">
    <path
       d="m 8.56,0.084 c -1.888,0.001 -3.492,1.165 -4.259,2.828 l -0.055,0.113 -0.121,0.01 c -1.745,0.127 -3.125,1.637 -3.125,3.473 0,1.919 1.5,3.492 3.357,3.492 h 8.125 c 1.392,0 2.518,-1.182 2.518,-2.615 0,-1.087 -0.653,-2 -1.578,-2.393 l -0.121,-0.05 -0.01,-0.13 c -0.119,-2.618 -2.176,-4.726 -4.729,-4.728 z m 0,1 c 2.004,10e-4 3.635,1.652 3.731,3.773 v 0.016 l 0.06,0.748 0.677,0.291 v 0.002 c 0.57,0.242 0.973,0.785 0.973,1.47 0,0.91 -0.692,1.616 -1.518,1.616 h -8.123 c -1.291,0 -2.36,-1.095 -2.36,-2.492 0,-1.334 0.988,-2.388 2.198,-2.477 l 0.705,-0.049 0.305,-0.648 v -0.002 c 0.618,-1.343 1.872,-2.247 3.351,-2.248 z"
       font-family="sans-serif"
       font-weight="400"
       overflow="visible"
       style="line-height:normal;-inkscape-font-specification:sans-serif;text-indent:0;text-align:start;text-decoration-line:none;text-transform:none;stroke-width:0.64;marker:none"
       id="path2" />
    <path
       d="m 8.003,16 a 1.501,1.501 0 0 1 -1.424,-1.972 c 0,-0.015 0.01,-0.03 0.014,-0.045 0.038,-0.127 0.598,-1.965 1.412,-3.614 v 0.002 a 27.871,27.871 0 0 1 1.42,3.657 1.501,1.501 0 0 1 -1.425,1.972 z m 3.997,-2 a 1,1 0 0 1 -0.95,-1.314 c 0,-0.01 0.01,-0.02 0.01,-0.03 0.025,-0.085 0.4,-1.31 0.941,-2.41 v 10e-4 c 0.58,1.201 0.948,2.438 0.948,2.438 a 1,1 0 0 1 -0.95,1.314 z m -8,0 a 1,1 0 0 1 -0.95,-1.314 c 0,-0.01 0.01,-0.02 0.01,-0.03 0.025,-0.085 0.4,-1.31 0.941,-2.41 v 10e-4 a 18.52,18.52 0 0 1 0.948,2.439 1,1 0 0 1 -0.95,1.314 z"
       overflow="visible"
       style="stroke-width:0.64;marker:none"
       id="path4" />
  </g>
</svg>
