<?xml version="1.0" encoding="UTF-8" standalone="no"?>
<svg
   width="24"
   height="24"
   version="1.1"
   id="svg4"
   sodipodi:docname="tornado.svg"
   inkscape:version="1.1 (ce6663b3b7, 2021-05-25)"
   xmlns:inkscape="http://www.inkscape.org/namespaces/inkscape"
   xmlns:sodipodi="http://sodipodi.sourceforge.net/DTD/sodipodi-0.dtd"
   xmlns="http://www.w3.org/2000/svg"
   xmlns:svg="http://www.w3.org/2000/svg"
   xmlns:rdf="http://www.w3.org/1999/02/22-rdf-syntax-ns#"
   xmlns:cc="http://creativecommons.org/ns#"
   xmlns:dc="http://purl.org/dc/elements/1.1/">
  <metadata
     id="metadata10">
    <rdf:RDF>
      <cc:Work
         rdf:about="">
        <dc:format>image/svg+xml</dc:format>
        <dc:type
           rdf:resource="http://purl.org/dc/dcmitype/StillImage" />
      </cc:Work>
    </rdf:RDF>
  </metadata>
  <defs
     id="defs8" />
  <sodipodi:namedview
     pagecolor="#ffffff"
     bordercolor="#666666"
     borderopacity="1"
     objecttolerance="10"
     gridtolerance="10"
     guidetolerance="10"
     inkscape:pageopacity="0"
     inkscape:pageshadow="2"
     inkscape:window-width="1920"
     inkscape:window-height="1016"
     id="namedview6"
     showgrid="true"
     inkscape:zoom="19.445436"
     inkscape:cx="0.59139841"
     inkscape:cy="4.3969186"
     inkscape:window-x="0"
     inkscape:window-y="27"
     inkscape:window-maximized="1"
     inkscape:current-layer="svg4"
     inkscape:pagecheckerboard="0"
     inkscape:snap-page="true">
    <inkscape:grid
       type="xygrid"
       id="grid835" />
  </sodipodi:namedview>
  <path
     id="rect837"
     style="opacity:1;fill:#808080;fill-rule:evenodd;stroke-width:2;stroke-linecap:round"
     d="m 3.875,3.25 c -0.34625,0 -0.625,0.27875 -0.625,0.625 0,0.34625 0.27875,0.625 0.625,0.625 h 1.25 c -0.34625,0 -0.625,0.27875 -0.625,0.625 0,0.34625 0.27875,0.625 0.625,0.625 h 1.25 c -0.34625,0 -0.625,0.27875 -0.625,0.625 0,0.34625 0.27875,0.625 0.625,0.625 h -1.25 c -0.34625,0 -0.625,0.27875 -0.625,0.625 0,0.34625 0.27875,0.625 0.625,0.625 h 3.75 c -0.34625,0 -0.625,0.27875 -0.625,0.625 0,0.34625 0.27875,0.625 0.625,0.625 h -1.25 c -0.34625,0 -0.625,0.27875 -0.625,0.625 0,0.34625 0.27875,0.625 0.625,0.625 h 1.25 c -0.34625,0 -0.625,0.27875 -0.625,0.625 0,0.34625 0.27875,0.625 0.625,0.625 h -1.25 c -0.34625,0 -0.625,0.27875 -0.625,0.625 0,0.34625 0.27875,0.625 0.625,0.625 h 2.5 c -0.34625,0 -0.625,0.27875 -0.625,0.625 0,0.34625 0.27875,0.625 0.625,0.625 h -1.25 c -0.34625,0 -0.625,0.27875 -0.625,0.625 0,0.34625 0.27875,0.625 0.625,0.625 h 1.25 c -0.34625,0 -0.625,0.27875 -0.625,0.625 0,0.34625 0.27875,0.625 0.625,0.625 -0.34625,0 -0.625,0.27875 -0.625,0.625 0,0.34625 0.27875,0.625 0.625,0.625 h -1.25 c -0.34625,0 -0.625,0.27875 -0.625,0.625 0,0.34625 0.27875,0.625 0.625,0.625 h 1.25 c -0.34625,0 -0.625,0.27875 -0.625,0.625 0,0.34625 0.27875,0.625 0.625,0.625 h 1.25 c 0.34625,0 0.625,-0.27875 0.625,-0.625 0,-0.34625 -0.27875,-0.625 -0.625,-0.625 0.34625,0 0.625,-0.27875 0.625,-0.625 0,-0.34625 -0.27875,-0.625 -0.625,-0.625 h 1.25 c 0.34625,0 0.625,-0.27875 0.625,-0.625 0,-0.34625 -0.27875,-0.625 -0.625,-0.625 h 1.25 c 0.34625,0 0.625,-0.27875 0.625,-0.625 0,-0.34625 -0.27875,-0.625 -0.625,-0.625 h -1.25 c 0.34625,0 0.625,-0.27875 0.625,-0.625 0,-0.34625 -0.27875,-0.625 -0.625,-0.625 h 1.25 c 0.34625,0 0.625,-0.27875 0.625,-0.625 0,-0.34625 -0.27875,-0.625 -0.625,-0.625 h -1.25 c 0.34625,0 0.625,-0.27875 0.625,-0.625 0,-0.34625 -0.27875,-0.625 -0.625,-0.625 h 1.25 c 0.34625,0 0.625,-0.27875 0.625,-0.625 0,-0.34625 -0.27875,-0.625 -0.625,-0.625 h 1.25 c 0.34625,0 0.625,-0.27875 0.625,-0.625 0,-0.34625 -0.27875,-0.625 -0.625,-0.625 h 1.25 c 0.34625,0 0.625,-0.27875 0.625,-0.625 0,-0.34625 -0.27875,-0.625 -0.625,-0.625 h 1.25 c 0.34625,0 0.625,-0.27875 0.625,-0.625 0,-0.34625 -0.27875,-0.625 -0.625,-0.625 h 1.25 c 0.34625,0 0.625,-0.27875 0.625,-0.625 0,-0.34625 -0.27875,-0.625 -0.625,-0.625 h -1.25 c 0.34625,0 0.625,-0.27875 0.625,-0.625 0,-0.34625 -0.27875,-0.625 -0.625,-0.625 h -1.25 c 0.34625,0 0.625,-0.27875 0.625,-0.625 0,-0.34625 -0.27875,-0.625 -0.625,-0.625 z" />
</svg>
