<?xml version="1.0" encoding="UTF-8" standalone="no"?>
<svg
   height="24"
   width="24"
   version="1.1"
   id="svg4"
   sodipodi:docname="windy.svg"
   inkscape:version="1.1 (ce6663b3b7, 2021-05-25)"
   xmlns:inkscape="http://www.inkscape.org/namespaces/inkscape"
   xmlns:sodipodi="http://sodipodi.sourceforge.net/DTD/sodipodi-0.dtd"
   xmlns="http://www.w3.org/2000/svg"
   xmlns:svg="http://www.w3.org/2000/svg">
  <defs
     id="defs8" />
  <sodipodi:namedview
     id="namedview6"
     pagecolor="#ffffff"
     bordercolor="#666666"
     borderopacity="1.0"
     inkscape:pageshadow="2"
     inkscape:pageopacity="0.0"
     inkscape:pagecheckerboard="0"
     showgrid="false"
     inkscape:snap-page="true"
     inkscape:zoom="28"
     inkscape:cx="3.0892857"
     inkscape:cy="5.5892857"
     inkscape:window-width="1920"
     inkscape:window-height="1016"
     inkscape:window-x="0"
     inkscape:window-y="27"
     inkscape:window-maximized="1"
     inkscape:current-layer="svg4" />
  <path
     color="#000000"
     d="m 18.751295,6.3804622 a 3.1116685,3.1116685 0 0 0 -2.268483,1.1117563 c -0.574616,0.6420705 0.424716,1.481509 0.95686,0.8032127 a 1.8675008,1.8675008 0 0 1 2.275978,-0.4684366 c 0.778229,0.3909884 1.181709,1.2579085 0.980594,2.1060912 a 1.8675008,1.8675008 0 0 1 -1.822531,1.4415362 h -14.9999664 c -1.0268131,0 -1.8737466,0.846933 -1.8737466,1.873747 a 1.8837399,1.8837399 0 0 0 1.8862382,1.876244 h 11.2549708 c 0.293554,0 0.53964,0.193621 0.608344,0.47843 a 0.61833638,0.61833638 0 0 1 -0.327282,0.702031 0.61833638,0.61833638 0 0 1 -0.759491,-0.156146 c -0.530895,-0.677047 -1.531476,0.162392 -0.955611,0.803213 a 1.8724974,1.8724974 0 0 0 2.275977,0.470935 c 0.773233,-0.387241 1.180461,-1.266653 0.980594,-2.10859 a 1.8600058,1.8600058 0 0 0 -1.615169,-1.402811 0.6245822,0.6245822 0 0 0 -0.217355,-0.03623 h -11.2549711 v -0.0025 a 0.61583805,0.61583805 0 0 1 -0.6245822,-0.624582 c 0,-0.352265 0.2723179,-0.624583 0.6245822,-0.624583 h 14.9999661 a 0.63207719,0.63207719 0 0 0 0.124916,-0.01 3.1254093,3.1254093 0 0 0 2.91555,-2.393399 3.1279077,3.1279077 0 0 0 -1.636405,-3.5101524 3.1179143,3.1179143 0 0 0 -1.52523,-0.3297794 z m -5.877319,0.012492 a 1.8699991,1.8699991 0 0 0 -1.671382,0.653313 c -0.574615,0.6408214 0.424716,1.481509 0.95686,0.8032127 0.187375,-0.2248496 0.497167,-0.2873078 0.758243,-0.1561455 0.262324,0.1311622 0.394736,0.4172209 0.327281,0.7020304 a 0.61833638,0.61833638 0 0 1 -0.607094,0.4809283 h -6.2583136 c -0.8444351,-0.012492 -0.8444351,1.2616559 0,1.2491649 h 6.2583136 c 0.0687,0 0.137408,-0.01124 0.202365,-0.03373 a 1.8637533,1.8637533 0 0 0 1.617668,-1.4078087 1.8774941,1.8774941 0 0 0 -1.586439,-2.2909676 z"
     fill="#808080"
     font-family="sans-serif"
     font-weight="400"
     overflow="visible"
     style="line-height:normal;font-variant-ligatures:normal;font-variant-position:normal;font-variant-caps:normal;font-variant-numeric:normal;font-variant-alternates:normal;font-feature-settings:normal;text-indent:0;text-align:start;text-decoration-line:none;text-decoration-style:solid;text-decoration-color:#000000;text-transform:none;text-orientation:mixed;shape-padding:0;isolation:auto;mix-blend-mode:normal;stroke-width:1"
     white-space="normal"
     id="path2" />
</svg>
