<svg height="24" width="24" xmlns="http://www.w3.org/2000/svg"><path style="color:#000;fill:gray;-inkscape-stroke:none;fill-opacity:1" d="M6.455 2c-.968.009-1.718.073-2.338.445-.413.248-.72.656-.888 1.162C3.059 4.114 3 4.722 3 5.5v13c0 .778.059 1.391.25 1.908.191.517.553.927 1.027 1.164.95.475 2.223.428 4.223.428h7c1.5 0 2.556.05 3.383-.445.413-.248.72-.656.888-1.162.17-.507.229-1.115.229-1.893V8h-6V2H7.5c-.375 0-.722-.003-1.045 0zM15 2.293V7h4.707L15 2.293zM8.826 9.006a3 3 0 0 1 1.674.396L9 12h3a3 3 0 0 1-2.223 2.898A3 3 0 0 1 6.402 13.5a3 3 0 0 1 .477-3.621 3 3 0 0 1 1.947-.873zM13 10h4v1h-4v-1zm0 2h4v1h-4v-1zm0 2h4v1h-4v-1zm-7 2h11v1H6v-1zm0 2h11v1H6v-1z"/></svg>