<svg height="24" width="24" xmlns="http://www.w3.org/2000/svg"><path style="color:#000;fill:gray;stroke-linecap:square;-inkscape-stroke:none;fill-opacity:1" d="m7.664 6-.127.31L3.164 17H2v1h3v-1h-.754l1.227-3h4.584l1.173 3H10v1h5v-1h-1.621L9.074 6h-1.41zm.15 2.273L9.664 13H5.881l1.933-4.727z"/><path style="color:#000;fill:gray;stroke-linecap:square;-inkscape-stroke:none;fill-opacity:1" d="M14 3v1h.5c1 0 1.641.044 1.95.275.153.116.28.284.384.633.103.35.166.87.166 1.592v11c0 .722-.063 1.242-.166 1.592-.104.35-.23.517-.385.633-.308.23-.949.275-1.949.275H14v1h.5c1 0 1.859.044 2.55-.475.176-.13.326-.296.45-.492.124.196.274.361.45.492.691.52 1.55.475 2.55.475h.5v-1h-.5c-1 0-1.641-.044-1.95-.275-.153-.116-.28-.284-.384-.633-.103-.35-.166-.87-.166-1.592v-11c0-.722.063-1.242.166-1.592.104-.35.23-.517.385-.633C18.859 4.045 19.5 4 20.5 4h.5V3h-.5c-1 0-1.859-.044-2.55.475a1.85 1.85 0 0 0-.45.492 1.85 1.85 0 0 0-.45-.492C16.36 2.955 15.5 3 14.5 3H14z"/></svg>