<svg height="24" width="24" xmlns="http://www.w3.org/2000/svg"><path d="M21.36 9.89c-.267.083-.732.124-1.393.124-.764 0-1.318-.048-1.662-.143-.534-.14-.82-.436-.859-.888.961.108 1.903.162 2.826.162.58 0 1.155-.022 1.728-.067 0 .408-.213.678-.64.812zm-.668-1.069c-.274 0-1.435-.06-3.485-.182-.076-.432-.537-.7-1.384-.802l-.668-.095c-.897-.185-2.375-.277-3.183-.277-.777 0-2.255.092-3.184.277l-.63.095c-.828.096-1.283.363-1.365.802-.688.121-1.652.182-2.893.182-.745 0-1.378-.022-1.9-.067.07-1.267.624-2.13 1.661-2.587.688-.312 1.932-.554 3.733-.726 1.311-.127 3.267-.19 4.616-.19 3.71 0 6.903.305 8.329.916 1.07.445 1.623 1.308 1.661 2.587-.547.044-.983.067-1.308.067zM5.599 9.89c-.375.083-.948.124-1.718.124-.586 0-1.015-.05-1.29-.153-.381-.146-.572-.407-.572-.783.56.038 1.076.058 1.547.058 1.03 0 2.033-.051 3.007-.153-.038.44-.363.742-.974.907zm9.929-.995.041 1.197c.887.679 1.703 1.836 2.45 3.472.726 1.565 1.088 2.874 1.088 3.928 0 1.005-.237 1.508-.711 1.508H5.793c-.6 0-.9-.419-.9-1.257 0-1.038.373-2.387 1.12-4.047.788-1.74 1.615-2.941 2.48-3.604V8.895l.691-.12.513 1.03h4.606l.492-1.03zm-1.204 3.34c-.635-.327-1.4-.49-2.293-.49-.865 0-1.63.171-2.292.514-.789.383-1.183.898-1.183 1.545 0 .654.394 1.173 1.183 1.556.663.344 1.427.515 2.292.515.866 0 1.63-.171 2.293-.515.774-.383 1.162-.902 1.161-1.556 0-.647-.387-1.17-1.161-1.569zm.115 1.174c-.363 0-.544-.132-.544-.395 0-.28.181-.42.544-.42.342 0 .513.14.513.42 0 .263-.171.395-.513.395zm-1.12-.586c-.342 0-.513-.14-.513-.42 0-.255.171-.383.513-.383.356 0 .534.128.533.383 0 .28-.177.42-.533.42zm1.434 1.58c-.342 0-.513-.14-.513-.42 0-.263.171-.395.513-.395.356 0 .534.132.534.396 0 .279-.178.419-.534.419zm-3.046-1.748c-.342 0-.513-.14-.513-.42 0-.263.171-.395.513-.395.363 0 .544.132.544.395 0 .28-.181.42-.544.42zm2.324 2.669c-.342 0-.513-.135-.513-.407 0-.263.17-.395.513-.395.356 0 .534.132.534.395 0 .272-.178.407-.534.407zm-.628-.61c-.44.214-.924.324-1.413.323-.482 0-.94-.108-1.372-.323-.502-.248-.753-.559-.753-.934 0-.36.272-.647.816-.862.44-.16.904-.24 1.392-.24.482 0 .932.088 1.35.264.503.191.754.47.754.838 0 .351-.258.662-.774.934zm-3.151-1.664c-.356 0-.534-.132-.534-.396 0-.279.178-.419.534-.419.342 0 .513.14.513.42 0 .263-.171.395-.513.395zm2.47 2.753c-.342 0-.513-.135-.513-.407 0-.263.171-.395.513-.395.356 0 .534.132.534.395 0 .272-.178.407-.534.407zM9.352 13.9c-.356 0-.534-.132-.534-.395 0-.272.178-.408.534-.408.342 0 .513.136.513.408 0 .263-.171.395-.513.395zm1.695 1.82c-.355 0-.533-.132-.533-.396 0-.27.178-.407.533-.407.342 0 .513.136.513.408 0 .263-.17.395-.513.395zm-1.392-.599c-.356 0-.534-.132-.534-.395 0-.272.178-.407.534-.407.342 0 .513.135.513.407 0 .263-.17.395-.513.395z" style="fill:gray"/></svg>