<?xml version="1.0" encoding="UTF-8" standalone="no"?>
<!-- Created with Inkscape (http://www.inkscape.org/) -->

<svg viewBox="0 0 24 24" sodipodi:docname="_.svg" height="24" id="svg5504" inkscape:version="1.2 (1:1.2.1+202207142221+cd75a1ee6d)" version="1.1" width="24"
   xmlns:inkscape="http://www.inkscape.org/namespaces/inkscape"
   xmlns:sodipodi="http://sodipodi.sourceforge.net/DTD/sodipodi-0.dtd"
   xmlns="http://www.w3.org/2000/svg"
   xmlns:svg="http://www.w3.org/2000/svg"
   xmlns:rdf="http://www.w3.org/1999/02/22-rdf-syntax-ns#"
   xmlns:cc="http://creativecommons.org/ns#"
   xmlns:dc="http://purl.org/dc/elements/1.1/">
   <defs id="defs5506" />
   <sodipodi:namedview inkscape:bbox-paths="true" bordercolor="#666666" borderopacity="1.0" inkscape:current-layer="layer1" inkscape:cx="-109.5" inkscape:cy="-20.5" inkscape:document-units="px" gridtolerance="10" id="base" pagecolor="#ffffff" inkscape:pageopacity="0" inkscape:pageshadow="2" showborder="true" showgrid="false" inkscape:showpageshadow="true" inkscape:snap-bbox="true" inkscape:snap-global="true" inkscape:window-height="1016" inkscape:window-maximized="1" inkscape:window-width="1920" inkscape:window-x="0" inkscape:window-y="0" inkscape:zoom="1" inkscape:pagecheckerboard="0" inkscape:deskcolor="#d1d1d1">
      <inkscape:grid empspacing="2" enabled="true" id="grid5512" originx="5" originy="-1148" snapvisiblegridlinesonly="true" type="xygrid" visible="true" spacingx="1" spacingy="1" />
   </sodipodi:namedview>
   <metadata id="metadata5509">
      <rdf:RDF>
         <cc:Work rdf:about="">
            <dc:format>image/svg+xml</dc:format>
            <dc:type rdf:resource="http://purl.org/dc/dcmitype/StillImage" />
         </cc:Work>
      </rdf:RDF>
   </metadata>
   <g inkscape:groupmode="layer" id="layer1" inkscape:label="categories" transform="translate(5,111.6378)">
      <g id="g443" transform="translate(-5.0000001e-8,2.25003)">
         <path inkscape:connector-curvature="0" d="m 10.527574,-104.99318 0.04187,1.19738 c 0.88624,0.67848 1.70271,1.83586 2.449413,3.47216 0.725734,1.564506 1.08861,2.873591 1.088628,3.927156 -1.8e-5,1.00577 -0.237283,1.508654 -0.711795,1.508654 h -12.60296175 c -0.6001454,0 -0.9002156,-0.419036 -0.9002115,-1.257175 -4.1e-6,-1.037632 0.3733391,-2.386629 1.12003075,-4.046915 0.7885514,-1.74008 1.6154891,-2.94142 2.4808157,-3.60388 v -1.19738 l 0.6908596,-0.11963 0.5129112,1.02969 h 4.6057336 l 0.491976,-1.02969 m 0.6908604,5.0287 c -1.5e-5,-0.64653 -0.387315,-1.16937 -1.1619013,-1.56851 -0.6350455,-0.32722 -1.3991779,-0.49083 -2.2923992,-0.49089 -0.8653297,6e-5 -1.6294621,0.17163 -2.292399,0.51486 -0.7885659,0.38313 -1.1828438,0.89801 -1.182836,1.54454 -7.8e-6,0.654515 0.3942701,1.173326 1.182836,1.556463 0.6629369,0.343312 1.4270693,0.514886 2.292399,0.514886 0.8653078,0 1.6294402,-0.171574 2.2923992,-0.514886 0.7745863,-0.383137 1.1618863,-0.901948 1.1619013,-1.556463 m -0.5338466,-0.79024 c -1.42e-5,0.26346 -0.1709845,0.39513 -0.5129111,0.39513 -0.3628891,0 -0.5443275,-0.13168 -0.5443142,-0.39513 -1.33e-5,-0.27934 0.1814251,-0.41904 0.5443142,-0.41904 0.3419266,0 0.5128969,0.1397 0.5129111,0.41904 m -1.0990953,-0.61064 c -1.33e-5,0.2794 -0.1779619,0.4191 -0.5338468,0.4191 -0.341953,0 -0.5129231,-0.13969 -0.5129112,-0.4191 -1.19e-5,-0.25536 0.1709582,-0.38309 0.5129112,-0.38314 0.3558849,5e-5 0.5338335,0.12783 0.5338468,0.38314 m 1.4340579,1.580496 c -1.4e-5,0.279337 -0.177963,0.419037 -0.5338463,0.419037 -0.3419547,0 -0.5129249,-0.139688 -0.5129117,-0.419037 -1.32e-5,-0.263446 0.170957,-0.395116 0.5129117,-0.395116 0.3558833,0 0.5338323,0.13169 0.5338463,0.395116 m -3.0355972,-1.748126 c -1.19e-5,0.2794 -0.1814495,0.4191 -0.5443141,0.4191 -0.3419512,0 -0.5129214,-0.1397 -0.5129112,-0.4191 -1.02e-5,-0.26341 0.17096,-0.39506 0.5129112,-0.39506 0.3628646,0 0.5443022,0.13168 0.5443141,0.39506 m 2.3133341,2.681974 c -1.38e-5,0.271449 -0.1779624,0.407112 -0.5338462,0.407112 -0.3419535,0 -0.5129242,-0.135825 -0.5129112,-0.407112 -1.3e-5,-0.263399 0.1709577,-0.395062 0.5129112,-0.395062 0.3558838,0 0.5338324,0.131688 0.5338462,0.395062 m -0.3873,-1.137434 c -1.35e-5,0.351273 -0.2582134,0.662548 -0.7746011,0.933922 -0.4466284,0.215499 -0.917669,0.323262 -1.4131223,0.323262 -0.4815193,0 -0.9386027,-0.107625 -1.3712528,-0.323262 -0.5024526,-0.247475 -0.7536745,-0.558749 -0.7536656,-0.933922 -8.9e-6,-0.35916 0.2721479,-0.64654 0.8164711,-0.86204 0.4396279,-0.15967 0.90369,-0.23942 1.392188,-0.2395 0.4814967,8e-5 0.9316017,0.0877 1.3503172,0.26347 0.5024306,0.19153 0.753652,0.47093 0.7536655,0.83807 m -3.41243,-1.12544 c -1.01e-5,0.2634 -0.1709803,0.39514 -0.5129113,0.39514 -0.3559068,0 -0.5338555,-0.13169 -0.533846,-0.39514 -9.5e-6,-0.27941 0.1779392,-0.41905 0.533846,-0.4191 0.341931,5e-5 0.5129012,0.13969 0.5129113,0.4191 m 2.4912833,2.741835 c -1.25e-5,0.271375 -0.1779612,0.407062 -0.5338467,0.407062 -0.3419524,0 -0.5129225,-0.135825 -0.5129112,-0.407062 -1.13e-5,-0.263374 0.1709588,-0.395124 0.5129112,-0.395124 0.3558855,0 0.5338342,0.131688 0.5338467,0.395124 m -3.3914951,-1.891775 c -8.9e-6,0.26347 -0.1709791,0.395141 -0.5129111,0.395141 -0.3559058,0 -0.5338545,-0.131691 -0.5338462,-0.395141 -8.3e-6,-0.27137 0.1779404,-0.40704 0.5338462,-0.40704 0.341932,0 0.5129022,0.13555 0.5129111,0.40704 m 1.6957479,1.819926 c -1.13e-5,0.263399 -0.1709815,0.395124 -0.5129118,0.395124 -0.3559075,0 -0.5338556,-0.131687 -0.5338463,-0.395124 -9.3e-6,-0.27135 0.1779388,-0.407037 0.5338463,-0.407112 0.3419303,7.5e-5 0.5129005,0.135825 0.5129118,0.407112 m -1.3921879,-0.598649 c -9.5e-6,0.263399 -0.1709798,0.395124 -0.5129112,0.395124 -0.3559063,0 -0.5338551,-0.131687 -0.5338467,-0.395124 -8.4e-6,-0.27135 0.1779404,-0.407037 0.5338467,-0.407112 0.3419314,7.5e-5 0.5129017,0.135687 0.5129112,0.407112" id="path2985-0" style="font-style:normal;font-variant:normal;font-weight:normal;font-stretch:normal;font-size:36px;line-height:125%;font-family:Cantarell;-inkscape-font-specification:Cantarell;letter-spacing:0px;word-spacing:0px;fill:#888a85;fill-opacity:1;stroke:none;stroke-width:1.33687" sodipodi:nodetypes="ccccssccccccccccccccscccscsccsccccscsccscsccscscccscccccccsccccscsccscsccsccccsccc" />
         <path inkscape:connector-curvature="0" d="m 17,-104.80951 c -2e-5,0.40734 -0.213232,0.67786 -0.639637,0.81146 -0.26733,0.0828 -0.731941,0.12413 -1.393836,0.12413 -0.763763,0 -1.317478,-0.0478 -1.661147,-0.14322 -0.534637,-0.14001 -0.821042,-0.43594 -0.859214,-0.88787 0.961031,0.10825 1.902983,0.16234 2.825859,0.16234 0.579155,0 1.155146,-0.0222 1.727975,-0.0669 m 0,-0.32461 c -0.54737,0.0445 -0.983341,0.0669 -1.307914,0.0669 -0.273694,0 -1.435223,-0.0605 -3.484591,-0.1814 -0.07639,-0.43275 -0.537818,-0.70008 -1.384289,-0.80196 l -0.668279,-0.0954 c -0.8974128,-0.1846 -2.3747326,-0.27687 -3.1830193,-0.27687 -0.7764844,0 -2.254902,0.0922 -3.1841176,0.27687 l -0.6300899,0.0954 c -0.8273975,0.0955 -1.2824622,0.3628 -1.3651955,0.80196 -0.6873763,0.121 -1.6516042,0.1814 -2.8926871,0.1814 -0.7446541,0 -1.377926,-0.0222 -1.8998175,-0.0669 0.070009,-1.26652 0.6237243,-2.12887 1.661147,-2.58714 0.687368,-0.31186 1.9316358,-0.5537 3.7328073,-0.7256 1.3110891,-0.12725 3.2668479,-0.1909 4.6161407,-0.1909 3.7105179,0 6.9030819,0.3055 8.3287569,0.9165 1.069226,0.44551 1.622941,1.30791 1.661147,2.58714 m -15.4270715,0.22918 c -0.038192,0.43916 -0.3627843,0.74151 -0.9737759,0.90693 -0.3755124,0.0828 -0.9483211,0.12413 -1.7184278,0.12413 -0.5855406,0 -1.0151472,-0.051 -1.288821,-0.15278 -0.3818739,-0.14636 -0.5728102,-0.40732 -0.5728092,-0.78283 0.5600786,0.038 1.0756065,0.0572 1.546585,0.0572 1.0310534,0 2.0334685,-0.051 3.0072489,-0.15278" id="path2195" style="font-style:normal;font-variant:normal;font-weight:normal;font-stretch:normal;font-size:36px;line-height:125%;font-family:Cantarell;-inkscape-font-specification:Cantarell;letter-spacing:0px;word-spacing:0px;fill:#808080;fill-opacity:1;stroke:none;stroke-width:1.25" sodipodi:nodetypes="ccsccsccscccscccscccsccccsccsc" />
      </g>
   </g>
</svg>
