<?xml version="1.0" encoding="UTF-8" standalone="no"?>
<svg
   viewBox="0 1 24 24"
   version="1.1"
   width="24"
   height="24"
   id="svg4"
   sodipodi:docname="keyboard-shortcut.svg"
   inkscape:version="1.2 (1:1.2.1+202207142221+cd75a1ee6d)"
   xmlns:inkscape="http://www.inkscape.org/namespaces/inkscape"
   xmlns:sodipodi="http://sodipodi.sourceforge.net/DTD/sodipodi-0.dtd"
   xmlns="http://www.w3.org/2000/svg"
   xmlns:svg="http://www.w3.org/2000/svg">
  <defs
     id="defs8" />
  <sodipodi:namedview
     id="namedview6"
     pagecolor="#ffffff"
     bordercolor="#666666"
     borderopacity="1.0"
     inkscape:pageshadow="2"
     inkscape:pageopacity="0.0"
     inkscape:pagecheckerboard="0"
     showgrid="false"
     inkscape:zoom="8"
     inkscape:cx="4.75"
     inkscape:cy="6.5625"
     inkscape:window-width="1850"
     inkscape:window-height="1016"
     inkscape:window-x="0"
     inkscape:window-y="0"
     inkscape:window-maximized="1"
     inkscape:current-layer="svg4"
     inkscape:showpageshadow="2"
     inkscape:deskcolor="#d1d1d1">
    <inkscape:grid
       type="xygrid"
       id="grid333"
       dotted="false" />
    <inkscape:grid
       type="xygrid"
       id="grid1150"
       dotted="true"
       spacingx="0.5"
       spacingy="0.5"
       empspacing="10" />
  </sodipodi:namedview>
  <path
     style="color:#000000;fill:#808080;-inkscape-stroke:none"
     d="m 15.5,4 c -0.999999,0 -1.793771,-0.036708 -2.472656,0.3027344 -0.339443,0.1697212 -0.630005,0.4624336 -0.796875,0.8378906 -0.16687,0.375457 -0.230469,0.8177089 -0.230469,1.359375 v 3 c 0,0.541666 0.0636,0.983918 0.230469,1.359375 0.16687,0.375457 0.457432,0.668169 0.796875,0.837891 0.678885,0.339442 1.472657,0.302734 2.472656,0.302734 h 1 c 0.999999,0 1.793771,0.03671 2.472656,-0.302734 0.339443,-0.169722 0.630005,-0.462434 0.796875,-0.837891 0.16687,-0.375457 0.230469,-0.817709 0.230469,-1.359375 v -3 c 0,-0.5416661 -0.0636,-0.983918 -0.230469,-1.359375 -0.16687,-0.375457 -0.457432,-0.6681694 -0.796875,-0.8378906 -0.678885,-0.3394424 -1.472657,-0.3027344 -2.472656,-0.3027344 z m 0,1 h 1 c 0.999999,0 1.70623,0.036708 2.027344,0.1972656 0.160557,0.080279 0.244995,0.162567 0.328125,0.3496094 0.08313,0.1870424 0.144531,0.4947921 0.144531,0.953125 v 3 c 0,0.4583329 -0.0614,0.766083 -0.144531,0.953125 -0.08313,0.187042 -0.167568,0.269331 -0.328125,0.349609 -0.321114,0.160557 -1.027345,0.197266 -2.027344,0.197266 h -1 c -0.999999,0 -1.70623,-0.03671 -2.027344,-0.197266 -0.160557,-0.08028 -0.244995,-0.162567 -0.328125,-0.349609 -0.08313,-0.187042 -0.144531,-0.4947921 -0.144531,-0.953125 v -3 c 0,-0.4583329 0.0614,-0.7660826 0.144531,-0.953125 0.08313,-0.1870424 0.167568,-0.2693308 0.328125,-0.3496094 0.321114,-0.1605571 1.027345,-0.1972656 2.027344,-0.1972656 z"
     id="path1185" />
  <path
     style="color:#000000;fill:#808080;-inkscape-stroke:none"
     d="m 7.5,4.25 c -0.999999,0 -1.771886,-0.017377 -2.3613281,0.2773437 -0.2947211,0.1473606 -0.5337527,0.3864904 -0.6796875,0.7148438 -0.1459349,0.3283534 -0.2089844,0.7369797 -0.2089844,1.2578125 v 3 c 0,0.520833 0.063049,0.929459 0.2089844,1.257813 0.1459348,0.328353 0.3849664,0.567483 0.6796875,0.714843 0.5894421,0.294721 1.3613291,0.277344 2.3613281,0.277344 0.999999,0 1.771886,0.01738 2.3613281,-0.277344 0.2947209,-0.14736 0.5337529,-0.38649 0.6796879,-0.714843 0.145934,-0.328354 0.208984,-0.73698 0.208984,-1.257813 v -3 c 0,-0.5208328 -0.06305,-0.9294591 -0.208984,-1.2578125 -0.145935,-0.3283534 -0.384967,-0.5674832 -0.6796879,-0.7148438 -0.5894421,-0.294721 -1.3613291,-0.2773437 -2.3613281,-0.2773437 z m 0,0.5 c 0.999999,0 1.728115,0.017378 2.1386719,0.2226562 0.2052784,0.1026393 0.3412476,0.2385102 0.4453121,0.4726563 0.104065,0.2341461 0.166016,0.5755213 0.166016,1.0546875 v 3 c 0,0.4791662 -0.06195,0.820541 -0.166016,1.054688 -0.1040645,0.234146 -0.2400337,0.370017 -0.4453121,0.472656 -0.4105569,0.205278 -1.1386729,0.222656 -2.1386719,0.222656 -0.999999,0 -1.728115,-0.01738 -2.1386719,-0.222656 -0.2052784,-0.102639 -0.3412476,-0.23851 -0.4453125,-0.472656 -0.1040649,-0.234147 -0.1660156,-0.5755218 -0.1660156,-1.054688 v -3 c 0,-0.4791662 0.061951,-0.8205414 0.1660156,-1.0546875 0.1040649,-0.2341461 0.2400341,-0.370017 0.4453125,-0.4726563 0.4105569,-0.2052784 1.1386729,-0.2226562 2.1386719,-0.2226562 z"
     id="path1928" />
  <path
     style="color:#000000;fill:#808080;-inkscape-stroke:none"
     d="m 7.5,13 c -0.999999,0 -1.7937715,-0.03671 -2.4726563,0.302734 -0.3394423,0.169722 -0.6300052,0.462434 -0.796875,0.837891 -0.1668697,0.375457 -0.2304687,0.817709 -0.2304687,1.359375 v 2 c 0,0.541666 0.063599,0.983918 0.2304687,1.359375 0.1668698,0.375457 0.4574327,0.668169 0.796875,0.837891 0.6788848,0.339442 1.4726573,0.302734 2.4726563,0.302734 h 3 c 0.999999,0 1.793771,0.03671 2.472656,-0.302734 0.339443,-0.169722 0.630005,-0.462434 0.796875,-0.837891 0.16687,-0.375457 0.230469,-0.817709 0.230469,-1.359375 v -2 c 0,-0.541666 -0.0636,-0.983918 -0.230469,-1.359375 -0.16687,-0.375457 -0.457432,-0.668169 -0.796875,-0.837891 -0.678885,-0.339442 -1.472657,-0.302734 -2.472656,-0.302734 z m 0,1 h 3 c 0.999999,0 1.70623,0.03671 2.027344,0.197266 0.160557,0.08028 0.244995,0.162567 0.328125,0.349609 0.08313,0.187042 0.144531,0.494792 0.144531,0.953125 v 2 c 0,0.458333 -0.0614,0.766083 -0.144531,0.953125 -0.08313,0.187042 -0.167568,0.269331 -0.328125,0.349609 -0.321114,0.160557 -1.027345,0.197266 -2.027344,0.197266 h -3 c -0.999999,0 -1.7062295,-0.03671 -2.0273438,-0.197266 -0.1605571,-0.08028 -0.244995,-0.162567 -0.328125,-0.349609 -0.08313,-0.187042 -0.1445312,-0.494792 -0.1445312,-0.953125 v -2 c 0,-0.458333 0.061401,-0.766083 0.1445312,-0.953125 0.08313,-0.187042 0.1675679,-0.269331 0.328125,-0.349609 0.3211143,-0.160557 1.0273448,-0.197266 2.0273438,-0.197266 z"
     id="path2276" />
</svg>
