<svg width="24" height="24" xmlns="http://www.w3.org/2000/svg"><path style="color:#000;fill:gray;-inkscape-stroke:none" d="M15.5 4c-1 0-1.794-.037-2.473.303-.34.17-.63.462-.797.838-.166.375-.23.817-.23 1.359v3c0 .542.064.984.23 1.36.167.375.458.668.797.837.68.34 1.473.303 2.473.303h1c1 0 1.794.037 2.473-.303.34-.17.63-.462.797-.838.166-.375.23-.817.23-1.359v-3c0-.542-.064-.984-.23-1.36a1.72 1.72 0 0 0-.797-.837C18.293 3.963 17.5 4 16.5 4zm0 1h1c1 0 1.706.037 2.027.197.16.08.245.163.328.35.084.187.145.495.145.953v3c0 .458-.061.766-.145.953a.615.615 0 0 1-.328.35c-.32.16-1.027.197-2.027.197h-1c-1 0-1.706-.037-2.027-.197a.615.615 0 0 1-.328-.35C13.06 10.266 13 9.958 13 9.5v-3c0-.458.061-.766.145-.953a.615.615 0 0 1 .328-.35C13.793 5.037 14.5 5 15.5 5zm-8-.75c-1 0-1.772-.017-2.361.277a1.438 1.438 0 0 0-.68.715c-.146.329-.209.737-.209 1.258v3c0 .52.063.93.209 1.258.146.328.385.567.68.715.59.294 1.361.277 2.361.277 1 0 1.772.017 2.361-.277.295-.148.534-.387.68-.715.146-.329.209-.737.209-1.258v-3c0-.52-.063-.93-.209-1.258a1.438 1.438 0 0 0-.68-.715C9.271 4.233 8.5 4.25 7.5 4.25zm0 .5c1 0 1.728.017 2.139.223a.888.888 0 0 1 .445.472c.104.234.166.576.166 1.055v3c0 .48-.062.82-.166 1.055a.888.888 0 0 1-.445.472c-.41.206-1.139.223-2.139.223-1 0-1.728-.017-2.139-.223a.888.888 0 0 1-.445-.472c-.104-.234-.166-.576-.166-1.055v-3c0-.48.062-.82.166-1.055a.888.888 0 0 1 .445-.472C5.771 4.767 6.5 4.75 7.5 4.75zm0 8.25c-1 0-1.794-.037-2.473.303-.34.17-.63.462-.797.838-.166.375-.23.817-.23 1.359v2c0 .542.064.984.23 1.36.167.375.458.668.797.837.68.34 1.473.303 2.473.303h3c1 0 1.794.037 2.473-.303.34-.17.63-.462.797-.838.166-.375.23-.817.23-1.359v-2c0-.542-.064-.984-.23-1.36a1.72 1.72 0 0 0-.797-.837C12.293 12.963 11.5 13 10.5 13zm0 1h3c1 0 1.706.037 2.027.197.16.08.245.163.328.35.084.187.145.495.145.953v2c0 .458-.061.766-.145.953a.615.615 0 0 1-.328.35c-.32.16-1.027.197-2.027.197h-3c-1 0-1.706-.037-2.027-.197a.615.615 0 0 1-.328-.35C5.06 18.266 5 17.958 5 17.5v-2c0-.458.061-.766.145-.953a.615.615 0 0 1 .328-.35C5.793 14.037 6.5 14 7.5 14z"/></svg>