<svg width="24" height="24" xmlns="http://www.w3.org/2000/svg"><path style="color:#000;fill:gray;-inkscape-stroke:none" d="M15.5 4c-1 0-1.794-.037-2.473.303-.34.17-.63.462-.797.838-.166.375-.23.817-.23 1.359v3c0 .542.064.984.23 1.36.167.375.458.668.797.837.68.34 1.473.303 2.473.303h1c1 0 1.794.037 2.473-.303.34-.17.63-.462.797-.838.166-.375.23-.817.23-1.359v-3c0-.542-.064-.984-.23-1.36a1.72 1.72 0 0 0-.797-.837C18.293 3.963 17.5 4 16.5 4zm-8 9c-1 0-1.794-.037-2.473.303-.34.17-.63.462-.797.838-.166.375-.23.817-.23 1.359v2c0 .542.064.984.23 1.36.167.375.458.668.797.837.68.34 1.473.303 2.473.303h3c1 0 1.794.037 2.473-.303.34-.17.63-.462.797-.838.166-.375.23-.817.23-1.359v-2c0-.542-.064-.984-.23-1.36a1.72 1.72 0 0 0-.797-.837C12.293 12.963 11.5 13 10.5 13zm0-9s-1.794-.037-2.473.303c-.34.17-.63.462-.797.838C4.064 5.516 4 5.958 4 6.5v3c0 .542.064.984.23 1.36.167.375.458.668.797.837.68.34 2.473.303 2.473.303s1.794.037 2.473-.303c.34-.17.63-.462.797-.838.166-.375.23-.817.23-1.359v-3c0-.542-.064-.984-.23-1.36a1.72 1.72 0 0 0-.797-.837C9.293 3.963 7.5 4 7.5 4z"/></svg>