<?xml version="1.0" encoding="UTF-8" standalone="no"?>
<svg
   viewBox="0 1 24 24"
   height="24"
   width="24"
   version="1.1"
   id="svg14"
   sodipodi:docname="_.svg"
   inkscape:version="1.2.2 (1:1.2.2+202212051551+b0a8486541)"
   xmlns:inkscape="http://www.inkscape.org/namespaces/inkscape"
   xmlns:sodipodi="http://sodipodi.sourceforge.net/DTD/sodipodi-0.dtd"
   xmlns="http://www.w3.org/2000/svg"
   xmlns:svg="http://www.w3.org/2000/svg">
  <defs
     id="defs18" />
  <sodipodi:namedview
     id="namedview16"
     pagecolor="#ffffff"
     bordercolor="#666666"
     borderopacity="1.0"
     inkscape:pageshadow="2"
     inkscape:pageopacity="0.0"
     inkscape:pagecheckerboard="0"
     showgrid="true"
     inkscape:snap-page="true"
     inkscape:zoom="19.203236"
     inkscape:cx="23.016954"
     inkscape:cy="18.564579"
     inkscape:window-width="1850"
     inkscape:window-height="1016"
     inkscape:window-x="0"
     inkscape:window-y="0"
     inkscape:window-maximized="1"
     inkscape:current-layer="svg14"
     inkscape:showpageshadow="2"
     inkscape:deskcolor="#d1d1d1">
    <inkscape:grid
       type="xygrid"
       id="grid826" />
  </sodipodi:namedview>
  <rect
     style="fill:#808080;fill-rule:evenodd;stroke-width:0.5;stroke-linecap:square"
     id="rect850"
     width="18"
     height="1"
     x="3"
     y="4" />
  <rect
     style="fill:#808080;fill-rule:evenodd;stroke-width:0.5;stroke-linecap:square"
     id="rect932"
     width="18"
     height="1"
     x="3"
     y="7" />
  <path
     style="fill:#808080;fill-rule:evenodd;stroke-width:0.5;stroke-linecap:square"
     d="m 3,19 v 1 h 9 v -1 z"
     id="path641"
     sodipodi:nodetypes="ccccc" />
  <path
     style="fill:#808080;fill-rule:evenodd;stroke-width:0.5;stroke-linecap:square"
     d="m 3,16 v 1 h 9 v -1 z"
     id="path639"
     sodipodi:nodetypes="ccccc" />
  <path
     style="fill:#808080;fill-rule:evenodd;stroke-width:0.5;stroke-linecap:square"
     d="m 3,13 v 1 h 13 v -1 z"
     id="rect1014" />
  <path
     id="path865"
     style="color:#000000;fill:#808080;stroke-linejoin:round;-inkscape-stroke:none"
     d="m 18,11 v 5.501953 c -0.418396,-0.315261 -0.938971,-0.501953 -1.5,-0.501953 c -1.374787,0 -2.5,1.125213 -2.5,2.5 c 0,1.374787 1.125213,2.5 2.5,2.5 c 1.374787,0 2.5,-1.125213 2.5,-2.5 v -5.5 h 2.5 v -2 z m -1.5,6 c 0.834348,0 1.5,0.665652 1.5,1.5 c 0,0.834348 -0.665652,1.5 -1.5,1.5 c -0.834348,0 -1.5,-0.665652 -1.5,-1.5 c 0,-0.834348 0.665652,-1.5 1.5,-1.5 z"
     sodipodi:nodetypes="ccssssccccsssss" />
  <path
     style="fill:#808080;fill-rule:evenodd;stroke-width:0.5;stroke-linecap:square"
     d="m 3,10 v 1 h 13 v -1 z"
     id="path643" />
</svg>
