<svg height="24" width="24" xmlns="http://www.w3.org/2000/svg"><path style="fill:gray;stroke-width:.5;stroke-linecap:square" d="M3 4h18v1H3zm0 3h18v1H3zm0 12v1h9v-1zm0-3v1h9v-1zm0-3v1h13v-1z"/><path style="color:#000;fill:gray;stroke-linejoin:round;-inkscape-stroke:none" d="M18 11v5.502A2.487 2.487 0 0 0 16.5 16a2.508 2.508 0 0 0-2.5 2.5c0 1.375 1.125 2.5 2.5 2.5s2.5-1.125 2.5-2.5V13h2.5v-2zm-1.5 6c.834 0 1.5.666 1.5 1.5s-.666 1.5-1.5 1.5-1.5-.666-1.5-1.5.666-1.5 1.5-1.5z"/><path style="fill:gray;stroke-width:.5;stroke-linecap:square" d="M3 10v1h13v-1z"/></svg>