<?xml version="1.0" encoding="UTF-8" standalone="no"?>
<svg
   viewBox="0 0 24 24"
   height="24"
   width="24"
   version="1.1"
   id="svg14"
   sodipodi:docname="filled.svg"
   inkscape:version="1.2.2 (1:1.2.2+202212051551+b0a8486541)"
   xmlns:inkscape="http://www.inkscape.org/namespaces/inkscape"
   xmlns:sodipodi="http://sodipodi.sourceforge.net/DTD/sodipodi-0.dtd"
   xmlns="http://www.w3.org/2000/svg"
   xmlns:svg="http://www.w3.org/2000/svg">
  <defs
     id="defs18" />
  <sodipodi:namedview
     id="namedview16"
     pagecolor="#ffffff"
     bordercolor="#666666"
     borderopacity="1.0"
     inkscape:pageshadow="2"
     inkscape:pageopacity="0.0"
     inkscape:pagecheckerboard="0"
     showgrid="true"
     inkscape:snap-page="true"
     inkscape:zoom="19.203236"
     inkscape:cx="23.069029"
     inkscape:cy="18.616654"
     inkscape:window-width="1850"
     inkscape:window-height="1016"
     inkscape:window-x="0"
     inkscape:window-y="0"
     inkscape:window-maximized="1"
     inkscape:current-layer="svg14"
     inkscape:showpageshadow="2"
     inkscape:deskcolor="#d1d1d1">
    <inkscape:grid
       type="xygrid"
       id="grid826" />
  </sodipodi:namedview>
  <rect
     style="fill:#808080;fill-rule:evenodd;stroke-width:0.5;stroke-linecap:square"
     id="rect850"
     width="18"
     height="1"
     x="3"
     y="4" />
  <rect
     style="fill:#808080;fill-rule:evenodd;stroke-width:0.5;stroke-linecap:square"
     id="rect932"
     width="18"
     height="1"
     x="3"
     y="7" />
  <path
     style="fill:#808080;fill-rule:evenodd;stroke-width:0.5;stroke-linecap:square"
     d="m 3,19 v 1 h 9 v -1 z"
     id="path641"
     sodipodi:nodetypes="ccccc" />
  <path
     style="fill:#808080;fill-rule:evenodd;stroke-width:0.5;stroke-linecap:square"
     d="m 3,16 v 1 h 9 v -1 z"
     id="path639"
     sodipodi:nodetypes="ccccc" />
  <path
     style="fill:#808080;fill-rule:evenodd;stroke-width:0.5;stroke-linecap:square"
     d="m 3,13 v 1 h 13 v -1 z"
     id="rect1014" />
  <path
     id="path296"
     style="color:#000000;fill:#808080;stroke-linejoin:round;-inkscape-stroke:none"
     d="M 18 11 L 18 16.501953 C 17.581604 16.186692 17.061028 16 16.5 16 C 15.125214 16 14 17.125214 14 18.5 C 14 19.874786 15.125214 21 16.5 21 C 17.874786 21 19 19.874786 19 18.5 L 19 13 L 21.5 13 L 21.5 11 L 18 11 z " />
  <path
     style="fill:#808080;fill-rule:evenodd;stroke-width:0.5;stroke-linecap:square"
     d="m 3,10 v 1 h 13 v -1 z"
     id="path643" />
</svg>
