<svg height="24" width="24" xmlns="http://www.w3.org/2000/svg"><path style="fill:gray;fill-opacity:1;stroke-width:.5;stroke-linecap:square" d="M12 8a4 4 0 1 0 0 8 4 4 0 0 0 0-8zm.049 1.002A3 3 0 1 1 9 12a3 3 0 0 1 2.854-2.99 1 1 0 1 0 .195-.008z"/><path style="fill:gray;fill-opacity:1;stroke-width:.5;stroke-linecap:square" d="M6 4v1c-1.175.013-2.037.085-2.723.428A2.097 2.097 0 0 0 2.25 6.592C2.059 7.109 2 7.722 2 8.5v7c0 .778.059 1.391.25 1.908.191.517.553.927 1.027 1.164.95.475 2.223.428 4.223.428h9c2 0 3.274.047 4.223-.428a2.097 2.097 0 0 0 1.027-1.164c.191-.517.25-1.13.25-1.908v-7c0-.778-.059-1.391-.25-1.908a2.097 2.097 0 0 0-1.027-1.164C19.773 4.953 18.5 5 16.5 5H8V4H6zm6 3a5 5 0 1 1 0 10 5 5 0 0 1 0-10zm6.475 0h.025a.5.5 0 1 1-.025 0z"/></svg>