<svg height="24" width="24" xmlns="http://www.w3.org/2000/svg"><path style="fill:gray;stroke:none;stroke-width:2;stroke-linecap:round;stroke-linejoin:round" d="M16.5 15a3.5 3.5 0 0 0-3.5 3.5 3.5 3.5 0 0 0 3.5 3.5 3.5 3.5 0 0 0 3.5-3.5 3.5 3.5 0 0 0-3.5-3.5zm-.5 1h1v2l-.2 1h-.6l-.2-1v-2zm.5 4a.5.5 0 0 1 .5.5.5.5 0 0 1-.5.5.5.5 0 0 1-.5-.5.5.5 0 0 1 .5-.5z"/><path style="fill:gray;fill-opacity:1;stroke-width:.5;stroke-linecap:round" d="M11.5 2A2.5 2.5 0 0 0 9 4.5a2.5 2.5 0 0 0 .059.5H8.5c-1.5 0-2.556-.05-3.383.445-.413.248-.72.656-.888 1.162C4.059 7.114 4 7.722 4 8.5v9c0 .778.06 1.386.229 1.893.168.506.475.914.888 1.162.728.436 1.653.448 2.883.445h4.764a4.5 4.5 0 0 1-.496-1H8v-.006c-1.197-.013-1.996-.076-2.367-.299-.212-.127-.343-.281-.455-.619C5.065 18.74 5 18.222 5 17.5v-9c0-.722.065-1.239.178-1.576.112-.338.243-.492.455-.62.371-.222 1.17-.285 2.367-.298V7h7v-.994c1.197.013 1.996.076 2.367.299.212.127.343.281.455.619.113.337.178.854.178 1.576v5.758a4.5 4.5 0 0 1 1 .5V8.5c0-.778-.06-1.386-.229-1.893-.168-.506-.475-.914-.888-1.162C17.056 4.95 16 5 14.5 5h-.559A2.5 2.5 0 0 0 14 4.5 2.5 2.5 0 0 0 11.5 2zm0 1a1.5 1.5 0 1 1 0 3 1.5 1.5 0 0 1 0-3zM7 9v1h9V9zm0 2v1h9v-1zm0 2v1h9v-1zm0 2v1h5v-1z"/></svg>