<svg height="24" width="24" xmlns="http://www.w3.org/2000/svg"><path style="fill:gray;fill-opacity:1;stroke-width:.5;stroke-linecap:round" d="M11.5 2A2.5 2.5 0 0 0 9 4.5a2.5 2.5 0 0 0 .059.5H8.5c-1.5 0-2.556-.05-3.383.445-.413.248-.72.656-.888 1.162C4.059 7.114 4 7.722 4 8.5v9c0 .778.06 1.386.229 1.893.168.506.475.914.888 1.162.728.436 1.653.448 2.883.445h3.09a1.38 1.38 0 0 1 .107-.244L11.63 20H8v-.006c-1.197-.013-1.996-.076-2.367-.299-.212-.127-.343-.281-.455-.619C5.065 18.74 5 18.222 5 17.5v-9c0-.722.065-1.239.178-1.576.112-.338.243-.492.455-.62.371-.222 1.17-.285 2.367-.298V7h7v-.994c1.197.013 1.996.076 2.367.299.212.127.343.281.455.619.113.337.178.854.178 1.576v5.602l1 1.75V8.5c0-.778-.06-1.386-.229-1.893-.168-.506-.475-.914-.888-1.162C17.056 4.95 16 5 14.5 5h-.559A2.5 2.5 0 0 0 14 4.5 2.5 2.5 0 0 0 11.5 2zm0 1a1.5 1.5 0 1 1 0 3 1.5 1.5 0 0 1 0-3zM7 9v1h9V9H7zm0 2v1h9v-1H7zm0 2v1h8.059l.138-.244A1.5 1.5 0 0 1 16 13.09V13H7zm0 2v1h5v-1H7z"/><path style="color:#000;fill:gray;fill-opacity:1;stroke-width:1px;stroke-linejoin:round;-inkscape-stroke:none" d="M16.5 14a.5.5 0 0 0-.434.252l-4 7A.5.5 0 0 0 12.5 22h8a.5.5 0 0 0 .434-.748l-4-7A.5.5 0 0 0 16.5 14zm-.5 2h1v2l-.2 1h-.6l-.2-1zm.5 4a.5.5 0 0 1 .5.5.5.5 0 0 1-.5.5.5.5 0 0 1-.5-.5.5.5 0 0 1 .5-.5z"/></svg>