<svg width="24" height="24" xmlns="http://www.w3.org/2000/svg"><path style="color:#000;fill:gray;stroke-linecap:round;stroke-linejoin:round;-inkscape-stroke:none" d="M11 3.012a9.43 9.43 0 0 0-3.809 1.025l.993 1.717-.868.5-.99-1.717a9.57 9.57 0 0 0-2.789 2.79l1.717.99-.5.867-1.717-.993A9.43 9.43 0 0 0 2.012 12H4v1H2.018a9.434 9.434 0 0 0 1.02 3.809l1.716-.993.5.868-1.715.99a9.54 9.54 0 0 0 3.615 3.271.5.5 0 0 0 .23.055h8.233a.5.5 0 0 0 .229-.055 9.544 9.544 0 0 0 3.615-3.271l-1.715-.99.5-.868 1.717.993A9.432 9.432 0 0 0 20.983 13H19v-1h1.988a9.43 9.43 0 0 0-1.025-3.809l-1.717.993-.5-.868 1.717-.99a9.57 9.57 0 0 0-2.79-2.789l-.99 1.717-.867-.5.993-1.717A9.43 9.43 0 0 0 12 3.012V5h-1V3.012zm.332 7.998a1.5 1.5 0 0 1 1.229.43 1.5 1.5 0 0 1 0 2.12 1.5 1.5 0 0 1-1.707.294L6.55 18.156l-.707-.707 4.302-4.303a1.5 1.5 0 0 1 .293-1.707 1.5 1.5 0 0 1 .893-.43z"/></svg>