<svg width="24" height="24" xmlns="http://www.w3.org/2000/svg"><path style="fill:gray;stroke-width:.264583;stroke-linecap:square;stroke-linejoin:round" d="M11.5 3A9.5 9.5 0 0 0 2 12.5a9.5 9.5 0 0 0 4.75 8.227l.502-.87a8.5 8.5 0 0 1-2.84-2.687l1.71-.986-.5-.868-1.71.987A8.5 8.5 0 0 1 3.037 13H5v-1H3.035a8.5 8.5 0 0 1 .881-3.3l1.705.984.5-.868-1.715-.988a8.5 8.5 0 0 1 2.422-2.422l.988 1.715.868-.5-.985-1.705A8.5 8.5 0 0 1 11 4.036V6h1V4.018a8.5 8.5 0 0 1 3.295.908l-.979 1.695.868.5.978-1.695a8.5 8.5 0 0 1 2.434 2.4l-1.717.99.5.868 1.719-.993A8.5 8.5 0 0 1 19.982 12H18v1h1.963a8.5 8.5 0 0 1-.875 3.303l-1.71-.987-.5.868 1.71.986a8.5 8.5 0 0 1-2.84 2.687l.502.87A9.5 9.5 0 0 0 21 12.5 9.5 9.5 0 0 0 11.5 3z"/><path style="fill:gray;fill-opacity:1;stroke-width:.423334;stroke-linecap:square;stroke-linejoin:round" d="m6.55 18.157 4.304-4.304a1.5 1.5 0 0 0 1.707-.292 1.5 1.5 0 0 0 0-2.122 1.5 1.5 0 0 0-2.122 0 1.5 1.5 0 0 0-.292 1.707L5.843 17.45z"/></svg>