<?xml version="1.0" encoding="UTF-8" standalone="no"?>
<svg
   viewBox="0 1 24 24"
   width="24"
   height="24"
   version="1.1"
   id="svg8"
   sodipodi:docname="2-filled.svg"
   inkscape:version="1.2 (1:1.2.1+202207142221+cd75a1ee6d)"
   xmlns:inkscape="http://www.inkscape.org/namespaces/inkscape"
   xmlns:sodipodi="http://sodipodi.sourceforge.net/DTD/sodipodi-0.dtd"
   xmlns="http://www.w3.org/2000/svg"
   xmlns:svg="http://www.w3.org/2000/svg"
   xmlns:rdf="http://www.w3.org/1999/02/22-rdf-syntax-ns#"
   xmlns:cc="http://creativecommons.org/ns#"
   xmlns:dc="http://purl.org/dc/elements/1.1/">
  <defs
     id="defs2" />
  <sodipodi:namedview
     id="base"
     pagecolor="#ffffff"
     bordercolor="#666666"
     borderopacity="1.0"
     inkscape:pageopacity="0.0"
     inkscape:pageshadow="2"
     inkscape:zoom="32"
     inkscape:cx="7.5"
     inkscape:cy="12.125"
     inkscape:document-units="px"
     inkscape:current-layer="layer1"
     inkscape:document-rotation="0"
     showgrid="true"
     units="px"
     inkscape:snap-center="true"
     inkscape:window-width="1920"
     inkscape:window-height="1043"
     inkscape:window-x="0"
     inkscape:window-y="0"
     inkscape:window-maximized="1"
     inkscape:pagecheckerboard="0"
     inkscape:showpageshadow="2"
     inkscape:deskcolor="#d1d1d1">
    <inkscape:grid
       type="xygrid"
       id="grid833" />
    <inkscape:grid
       type="xygrid"
       id="grid846"
       dotted="true"
       spacingx="0.5"
       spacingy="0.5"
       empspacing="10" />
  </sodipodi:namedview>
  <metadata
     id="metadata5">
    <rdf:RDF>
      <cc:Work
         rdf:about="">
        <dc:format>image/svg+xml</dc:format>
        <dc:type
           rdf:resource="http://purl.org/dc/dcmitype/StillImage" />
      </cc:Work>
    </rdf:RDF>
  </metadata>
  <g
     inkscape:label="Calque 1"
     inkscape:groupmode="layer"
     id="layer1">
    <path
       id="path2747"
       style="color:#000000;fill:#808080;fill-rule:evenodd;stroke-linecap:round;stroke-linejoin:round"
       d="M 11 3 C 9.6340014 3.0710799 8.3456867 3.4356012 7.1914062 4.0253906 L 8.1835938 5.7421875 L 7.3164062 6.2421875 L 6.3261719 4.5253906 C 5.2137698 5.2504259 4.2621441 6.2020502 3.5371094 7.3144531 L 5.2539062 8.3046875 L 4.7539062 9.171875 L 3.0371094 8.1796875 C 2.4473199 9.3339673 2.0828019 10.622283 2.0117188 11.988281 L 4 11.988281 L 4 12.988281 L 2.0175781 12.988281 C 2.0886761 14.35407 2.4479956 15.64333 3.0371094 16.796875 L 4.7539062 15.804688 L 5.2539062 16.671875 L 3.5390625 17.662109 C 4.4382 19.041216 5.6822174 20.175266 7.1542969 20.933594 A 0.50005 0.50005 0 0 0 7.3847656 20.988281 L 15.617188 20.988281 A 0.50005 0.50005 0 0 0 15.845703 20.933594 C 17.317381 20.175107 18.561707 19.041265 19.460938 17.662109 L 17.746094 16.671875 L 18.246094 15.804688 L 19.962891 16.796875 C 20.552219 15.643231 20.911289 14.354007 20.982422 12.988281 L 19 12.988281 L 19 11.988281 L 20.988281 11.988281 C 20.917201 10.622283 20.55268 9.3339673 19.962891 8.1796875 L 18.246094 9.171875 L 17.746094 8.3046875 L 19.462891 7.3144531 C 18.737855 6.2020512 17.78623 5.2504259 16.673828 4.5253906 L 15.683594 6.2421875 L 14.816406 5.7421875 L 15.808594 4.0253906 C 14.654313 3.4356012 13.365999 3.0710839 12 3 L 12 4.9882812 L 11 4.9882812 L 11 3 z M 11.443359 10.990234 A 1.5 1.5 0 0 1 12.949219 12.099609 A 1.5 1.5 0 0 1 11.888672 13.9375 A 1.5 1.5 0 0 1 10.263672 13.337891 L 4.3847656 14.912109 L 4.1269531 13.947266 L 10.003906 12.371094 A 1.5 1.5 0 0 1 11.111328 11.039062 A 1.5 1.5 0 0 1 11.443359 10.990234 z " />
    <g
       id="layer9"
       label="status"
       style="display:inline;stroke-width:0.8"
       transform="matrix(0.33072916,0,0,0.33072916,-294.81205,62.363802)" />
    <g
       id="layer2"
       style="display:inline;stroke-width:0.8"
       transform="matrix(0.33072916,0,0,0.33072916,-215.10626,-59.0138)" />
    <g
       id="layer4"
       style="display:inline;stroke-width:0.8"
       transform="matrix(0.33072916,0,0,0.33072916,-215.10626,-59.0138)" />
    <g
       id="g1812"
       style="display:inline;stroke-width:0.8"
       transform="matrix(0.33072916,0,0,0.33072916,-215.10626,-59.0138)" />
    <g
       id="g6217"
       style="display:inline;stroke-width:0.8"
       transform="matrix(0.33072916,0,0,0.33072916,-215.10626,-59.0138)" />
    <g
       id="layer3"
       style="display:inline;stroke-width:0.8"
       transform="matrix(0.33072916,0,0,0.33072916,-215.10626,-59.0138)" />
    <g
       id="layer1-6"
       style="display:inline;stroke-width:0.8"
       transform="matrix(0.33072916,0,0,0.33072916,-215.10626,-59.0138)" />
  </g>
</svg>
