<?xml version="1.0" encoding="UTF-8" standalone="no"?>
<svg
   viewBox="0 0 24 24"
   width="24"
   height="24"
   version="1.1"
   id="svg8"
   sodipodi:docname="9.svg"
   inkscape:version="1.2 (1:1.2.1+202207142221+cd75a1ee6d)"
   xmlns:inkscape="http://www.inkscape.org/namespaces/inkscape"
   xmlns:sodipodi="http://sodipodi.sourceforge.net/DTD/sodipodi-0.dtd"
   xmlns="http://www.w3.org/2000/svg"
   xmlns:svg="http://www.w3.org/2000/svg"
   xmlns:rdf="http://www.w3.org/1999/02/22-rdf-syntax-ns#"
   xmlns:cc="http://creativecommons.org/ns#"
   xmlns:dc="http://purl.org/dc/elements/1.1/">
  <defs
     id="defs2" />
  <sodipodi:namedview
     id="base"
     pagecolor="#ffffff"
     bordercolor="#666666"
     borderopacity="1.0"
     inkscape:pageopacity="0.0"
     inkscape:pageshadow="2"
     inkscape:zoom="32"
     inkscape:cx="7.75"
     inkscape:cy="12.15625"
     inkscape:document-units="px"
     inkscape:current-layer="layer1"
     inkscape:document-rotation="0"
     showgrid="true"
     units="px"
     inkscape:snap-center="true"
     inkscape:window-width="1920"
     inkscape:window-height="1043"
     inkscape:window-x="0"
     inkscape:window-y="0"
     inkscape:window-maximized="1"
     inkscape:pagecheckerboard="0"
     inkscape:showpageshadow="2"
     inkscape:deskcolor="#d1d1d1">
    <inkscape:grid
       type="xygrid"
       id="grid833" />
    <inkscape:grid
       type="xygrid"
       id="grid846"
       dotted="true"
       spacingx="0.5"
       spacingy="0.5"
       empspacing="10" />
  </sodipodi:namedview>
  <metadata
     id="metadata5">
    <rdf:RDF>
      <cc:Work
         rdf:about="">
        <dc:format>image/svg+xml</dc:format>
        <dc:type
           rdf:resource="http://purl.org/dc/dcmitype/StillImage" />
      </cc:Work>
    </rdf:RDF>
  </metadata>
  <g
     inkscape:label="Calque 1"
     inkscape:groupmode="layer"
     id="layer1">
    <g
       id="layer9"
       label="status"
       style="display:inline;stroke-width:0.8"
       transform="matrix(0.33072916,0,0,0.33072916,-294.81205,62.37552)" />
    <g
       id="layer2"
       style="display:inline;stroke-width:0.8"
       transform="matrix(0.33072916,0,0,0.33072916,-215.10626,-59.002082)" />
    <g
       id="layer4"
       style="display:inline;stroke-width:0.8"
       transform="matrix(0.33072916,0,0,0.33072916,-215.10626,-59.002082)" />
    <g
       id="g1812"
       style="display:inline;stroke-width:0.8"
       transform="matrix(0.33072916,0,0,0.33072916,-215.10626,-59.002082)" />
    <g
       id="g6217"
       style="display:inline;stroke-width:0.8"
       transform="matrix(0.33072916,0,0,0.33072916,-215.10626,-59.002082)" />
    <g
       id="layer3"
       style="display:inline;stroke-width:0.8"
       transform="matrix(0.33072916,0,0,0.33072916,-215.10626,-59.002082)" />
    <g
       id="layer1-6"
       style="display:inline;stroke-width:0.8"
       transform="matrix(0.33072916,0,0,0.33072916,-215.10626,-59.002082)" />
    <path
       id="path47"
       style="fill:#808080;fill-rule:evenodd;stroke-width:0.264583;stroke-linecap:square;stroke-linejoin:round"
       d="m 11.5,3 a 9.4999995,9.4999995 0 0 0 -9.5,9.5 9.4999995,9.4999995 0 0 0 4.75,8.226562 l 0.5019531,-0.86914 a 8.4999997,8.4999997 0 0 1 -2.8398437,-2.6875 l 1.7089844,-0.986328 -0.5,-0.867188 -1.7089844,0.986328 a 8.4999997,8.4999997 0 0 1 -0.875,-3.302734 h 1.9628906 v -1 h -1.9648438 a 8.4999997,8.4999997 0 0 1 0.8808594,-3.3007812 l 1.7050782,0.984375 0.5,-0.8671876 -1.7148438,-0.9882812 a 8.4999997,8.4999997 0 0 1 2.421875,-2.421875 l 0.9882812,1.7148438 0.8671876,-0.5 -0.984375,-1.7050782 a 8.4999997,8.4999997 0 0 1 3.3007812,-0.8808594 v 1.9648438 h 1 v -1.9824219 a 8.4999997,8.4999997 0 0 1 3.294922,0.9082031 l -0.978516,1.6953126 0.867188,0.5 0.978515,-1.6953126 a 8.4999997,8.4999997 0 0 1 2.433594,2.4003907 l -1.716797,0.9902343 0.5,0.8671876 1.71875,-0.9921876 a 8.4999997,8.4999997 0 0 1 0.884766,3.3085938 h -1.982422 v 1 h 1.962891 a 8.4999997,8.4999997 0 0 1 -0.875,3.302734 l -1.708985,-0.986328 -0.5,0.867188 1.708985,0.986328 a 8.4999997,8.4999997 0 0 1 -2.839844,2.6875 l 0.501953,0.86914 a 9.4999995,9.4999995 0 0 0 4.75,-8.226562 9.4999995,9.4999995 0 0 0 -9.5,-9.5 z" />
    <path
       id="path938"
       style="fill:#808080;fill-opacity:1;fill-rule:evenodd;stroke-width:0.423334;stroke-linecap:square;stroke-linejoin:round"
       d="m 17.156855,17.449749 -4.30341,-4.30341 a 1.5,1.5 0 0 0 -0.292784,-1.706997 1.5,1.5 0 0 0 -2.12132,0 1.5,1.5 0 0 0 0,2.121317 1.5,1.5 0 0 0 1.706999,0.292785 l 4.303407,4.303411 z"
       inkscape:transform-center-y="2.0784281"
       inkscape:transform-center-x="-2.0784292" />
  </g>
</svg>
