<?xml version="1.0" encoding="UTF-8" standalone="no"?>
<svg
   viewBox="0 1 24 24"
   width="24"
   height="24"
   version="1.1"
   id="svg8"
   sodipodi:docname="quarter-filled.svg"
   inkscape:version="1.2 (1:1.2.1+202207142221+cd75a1ee6d)"
   xmlns:inkscape="http://www.inkscape.org/namespaces/inkscape"
   xmlns:sodipodi="http://sodipodi.sourceforge.net/DTD/sodipodi-0.dtd"
   xmlns="http://www.w3.org/2000/svg"
   xmlns:svg="http://www.w3.org/2000/svg"
   xmlns:rdf="http://www.w3.org/1999/02/22-rdf-syntax-ns#"
   xmlns:cc="http://creativecommons.org/ns#"
   xmlns:dc="http://purl.org/dc/elements/1.1/">
  <defs
     id="defs2" />
  <sodipodi:namedview
     id="base"
     pagecolor="#ffffff"
     bordercolor="#666666"
     borderopacity="1.0"
     inkscape:pageopacity="0.0"
     inkscape:pageshadow="2"
     inkscape:zoom="32"
     inkscape:cx="1.375"
     inkscape:cy="13.15625"
     inkscape:document-units="px"
     inkscape:current-layer="layer1"
     inkscape:document-rotation="0"
     showgrid="true"
     units="px"
     inkscape:snap-center="true"
     inkscape:window-width="1920"
     inkscape:window-height="1043"
     inkscape:window-x="0"
     inkscape:window-y="0"
     inkscape:window-maximized="1"
     inkscape:pagecheckerboard="0"
     inkscape:showpageshadow="2"
     inkscape:deskcolor="#d1d1d1">
    <inkscape:grid
       type="xygrid"
       id="grid833" />
    <inkscape:grid
       type="xygrid"
       id="grid846"
       dotted="true"
       spacingx="0.5"
       spacingy="0.5"
       empspacing="10" />
  </sodipodi:namedview>
  <metadata
     id="metadata5">
    <rdf:RDF>
      <cc:Work
         rdf:about="">
        <dc:format>image/svg+xml</dc:format>
        <dc:type
           rdf:resource="http://purl.org/dc/dcmitype/StillImage" />
      </cc:Work>
    </rdf:RDF>
  </metadata>
  <g
     inkscape:label="Calque 1"
     inkscape:groupmode="layer"
     id="layer1">
    <path
       id="path2747"
       style="color:#000000;fill:#808080;fill-rule:evenodd;stroke-linecap:round;stroke-linejoin:round;-inkscape-stroke:none"
       d="m 11,3.0117188 c -1.3659958,0.071083 -2.6543155,0.4356023 -3.8085938,1.0253906 l 0.9921876,1.7167968 -0.8671876,0.5 -0.9902343,-1.7167968 c -1.1123999,0.7250331 -2.0640294,1.6766626 -2.7890625,2.7890625 l 1.7167968,0.9902343 -0.5,0.8671876 -1.7167968,-0.9921876 c -0.5897883,1.1542783 -0.9543077,2.4425968 -1.0253906,3.8085938 h 0.9882812 v 1 h -0.9824219 c 0.071098,1.365787 0.4304187,2.655051 1.0195313,3.808594 l 1.7167968,-0.992188 0.5,0.867188 -1.7148437,0.990234 c 0.8991357,1.379105 2.1431577,2.513158 3.6152344,3.271484 0.071334,0.03642 0.1503746,0.05518 0.2304687,0.05469 h 8.2324224 c 0.07943,1.8e-4 0.157768,-0.01857 0.228515,-0.05469 1.471676,-0.758485 2.716004,-1.89233 3.615235,-3.271484 l -1.714844,-0.990234 0.5,-0.867188 1.716797,0.992188 c 0.589326,-1.153642 0.948398,-2.44287 1.019531,-3.808594 h -1.982422 v -1 h 1.988281 c -0.07108,-1.365997 -0.435603,-2.6543155 -1.02539,-3.8085938 l -1.716797,0.9921876 -0.5,-0.8671876 1.716797,-0.9902343 c -0.725036,-1.1123999 -1.676663,-2.0640294 -2.789063,-2.7890625 l -0.990234,1.7167968 -0.867188,-0.5 0.992188,-1.7167968 c -1.154279,-0.5897883 -2.442597,-0.9543077 -3.808594,-1.0253906 v 1.9882812 h -1 z m 0.5,7.9882812 c 0.340026,1.77e-4 0.669902,0.115875 0.935547,0.328125 0.35654,0.284486 0.564263,0.715747 0.564453,1.171875 0,0.828427 -0.671573,1.5 -1.5,1.5 -0.635619,-6.4e-5 -1.202189,-0.400733 -1.414062,-1 h -6.085938 v -1 h 6.085938 c 0.211873,-0.599267 0.778443,-0.999936 1.414062,-1 z"
       sodipodi:nodetypes="cccccccccccccccccccccccccccccccccccccccccccccccccc" />
    <g
       id="layer9"
       label="status"
       style="display:inline;stroke-width:0.8"
       transform="matrix(0.33072916,0,0,0.33072916,-294.81205,62.37552)" />
    <g
       id="layer2"
       style="display:inline;stroke-width:0.8"
       transform="matrix(0.33072916,0,0,0.33072916,-215.10626,-59.002082)" />
    <g
       id="layer4"
       style="display:inline;stroke-width:0.8"
       transform="matrix(0.33072916,0,0,0.33072916,-215.10626,-59.002082)" />
    <g
       id="g1812"
       style="display:inline;stroke-width:0.8"
       transform="matrix(0.33072916,0,0,0.33072916,-215.10626,-59.002082)" />
    <g
       id="g6217"
       style="display:inline;stroke-width:0.8"
       transform="matrix(0.33072916,0,0,0.33072916,-215.10626,-59.002082)" />
    <g
       id="layer3"
       style="display:inline;stroke-width:0.8"
       transform="matrix(0.33072916,0,0,0.33072916,-215.10626,-59.002082)" />
    <g
       id="layer1-6"
       style="display:inline;stroke-width:0.8"
       transform="matrix(0.33072916,0,0,0.33072916,-215.10626,-59.002082)" />
  </g>
</svg>
