<svg height="24" width="24" xmlns="http://www.w3.org/2000/svg"><path style="color:#000;fill:gray;fill-opacity:1;-inkscape-stroke:none" d="M6.787 3c-.677.006-1.25.048-1.76.303-.34.17-.63.462-.797.838C4.064 4.516 4 4.958 4 5.5v13c0 .542.064.984.23 1.36.167.375.458.668.797.837.68.34 1.473.303 2.473.303h8c1 0 1.794.037 2.473-.303.34-.17.63-.462.797-.838.166-.375.23-.817.23-1.359v-13c0-.542-.064-.984-.23-1.36a1.72 1.72 0 0 0-.797-.837C17.293 2.963 16.5 3 15.5 3h-8c-.25 0-.487-.002-.713 0zM7.5 4h8c1 0 1.706.037 2.027.197.16.08.245.163.328.35.084.187.145.495.145.953v13c0 .458-.061.766-.145.953a.615.615 0 0 1-.328.35c-.32.16-1.027.197-2.027.197h-8c-1 0-1.706-.037-2.027-.197a.615.615 0 0 1-.328-.35C5.06 19.266 5 18.958 5 18.5v-13c0-.458.061-.766.145-.953a.615.615 0 0 1 .328-.35C5.793 4.037 6.5 4 7.5 4z"/><path style="fill:gray;stroke-width:.133073" d="M12.186 5.83c-.182.015-.363.022-.541.045l.082.012c.13-.048.317-.029.459-.057zm-.8.082c-.301.018-.72.177-.591.033-.493.22-1.368.53-1.86.99l-.015-.103c-.225.27-.983.808-1.043 1.158l-.06.014c-.118.198-.193.423-.286.627-.115.196-.185.156-.203.14-.301.612-.45 1.126-.58 1.547.092.138.002.83.037 1.383-.151 2.734 1.92 5.388 4.182 6 .331.119.823.115 1.242.127-.495-.141-.557-.076-1.04-.244-.347-.164-.425-.35-.671-.564l.098.171c-.483-.17-.281-.211-.674-.336l.105-.134c-.156-.012-.415-.265-.486-.405l-.172.008c-.206-.253-.315-.438-.306-.58l-.055.1c-.063-.108-.759-.953-.399-.756-.067-.061-.155-.1-.252-.275l.075-.084c-.173-.224-.32-.509-.309-.604.093.125.157.148.22.17-.437-1.086-.463-.061-.794-1.107l.07-.004c-.053-.082-.086-.17-.129-.256l.03-.305c-.316-.364-.087-1.55-.041-2.2.03-.263.261-.546.437-.987l-.105-.018c.205-.358 1.17-1.436 1.617-1.38.217-.273-.042-.003-.084-.071.476-.493.626-.349.947-.438.346-.205-.299.08-.135-.078.6-.153.426-.348 1.207-.426.083.047-.19.074-.26.135.5-.244 1.58-.19 2.282.135.814.38 1.73 1.506 1.765 2.564l.041.01c-.02.42.064.909-.084 1.356l.1-.213c.012.321-.094.477-.19.754l-.171.086c-.141.273.014.173-.086.39-.22.195-.666.61-.809.649-.104-.003.07-.123.092-.17-.294.201-.236.303-.686.425l-.011-.029c-1.109.522-2.65-.512-2.63-1.922-.01.09-.033.068-.058.104-.057-.726.337-1.454.998-1.752.647-.32 1.406-.19 1.87.242-.255-.333-.764-.687-1.364-.654-.588.01-1.139.385-1.322.79-.301.19-.336.732-.467.83-.177 1.3.332 1.86 1.193 2.52.068.046.078.073.073.096 1.016.38 2.066.287 2.945-.418.224-.174.468-.47.539-.474-.106.16.017.077-.064.218.222-.36-.097-.147.23-.62l.121.165c-.045-.298.37-.66.328-1.133.096-.144.107.157.006.489.14-.369.036-.429.072-.733.04.102.091.213.118.32-.092-.355.092-.6.138-.806-.045-.02-.14.156-.162-.264.003-.182.05-.095.069-.14-.036-.021-.13-.162-.188-.43.041-.063.112.165.168.174-.036-.214-.099-.377-.102-.541-.165-.345-.057.047-.191-.147-.176-.547.144-.128.166-.377.266.386.418.983.488 1.23a5.038 5.038 0 0 0-.244-.876c.081.034-.13-.62.106-.186-.252-.924-1.076-1.788-1.834-2.193.092.085.21.19.168.207-.378-.224-.312-.241-.366-.336-.306-.125-.326.01-.529 0-.579-.307-.69-.275-1.223-.467l.024.113c-.384-.127-.447.048-.861 0-.026-.02.133-.07.263-.09-.37.05-.354-.072-.717.014.09-.062.184-.105.28-.158zm.438.145.069-.006.005-.01-.074.016zm.074-.016c.117-.026.144-.048-.21-.059.106.02.228.034.21.059zm-.26 7.33c-.004.024-.024.043-.015.078a2.331 2.331 0 0 1-.764-.582c.115.167.237.33.397.457-.27-.09-.63-.655-.735-.678.466.833 1.887 1.462 2.631 1.15-.344.014-.783.007-1.17-.136-.163-.084-.383-.257-.343-.289zM7.007 8.396l.002.014-.002-.014zm.002.02c.011.168-.071.272-.074.283.007-.004.042-.034.127-.094.136-.306-.033-.116-.053-.189zm-.223.89c-.172.22-.08.269-.098.419.063-.192.074-.308.098-.418zm7.086 1.33c-.025.001-.056.063-.072.132.037.019.068.253.103.109.012-.18-.006-.24-.03-.24zm2.176.604-.03.074c-.053.38-.17.757-.347 1.106a3.49 3.49 0 0 0 .377-1.18zm-2.31.168c-.032.118-.097.222-.159.332-.372.234-.035-.139 0-.281-.4.503-.056.303-.07.443a1.29 1.29 0 0 0 .228-.494zm-.805.735c-.162.04-.325.04-.49.025-.2.003.037.102.296.143.072-.057.136-.113.194-.168zm-2.508.025c.044.161.133.3.217.441l-.06-.181c-.07-.077-.111-.168-.157-.26zm-.154.273-.028.14c.131.177.234.368.4.507-.12-.234-.208-.33-.372-.647z"/></svg>