<svg height="24" width="24" xmlns="http://www.w3.org/2000/svg"><path style="color:#000;fill:gray;fill-opacity:1;-inkscape-stroke:none" d="M6.787 3c-.677.006-1.25.048-1.76.303-.34.17-.63.462-.797.838C4.064 4.516 4 4.958 4 5.5v13c0 .542.064.984.23 1.36.167.375.458.668.797.837.68.34 1.473.303 2.473.303h8c1 0 1.794.037 2.473-.303.34-.17.63-.462.797-.838.166-.375.23-.817.23-1.359v-13c0-.542-.064-.984-.23-1.36a1.72 1.72 0 0 0-.797-.837C17.293 2.963 16.5 3 15.5 3h-8c-.25 0-.487-.002-.713 0zM11 4h1v16h-1V4zM6.5 15h3c.277 0 .5.223.5.5v3c0 .277-.223.5-.5.5h-3a.499.499 0 0 1-.5-.5v-3c0-.277.223-.5.5-.5zm7 1h3a.499.499 0 1 1 0 1h-3a.499.499 0 1 1 0-1zm0 2h3a.499.499 0 1 1 0 1h-3a.499.499 0 1 1 0-1z"/></svg>