<svg height="24" width="24" xmlns="http://www.w3.org/2000/svg"><path style="color:#000;fill:gray;fill-opacity:1;-inkscape-stroke:none" d="M6.787 3.001c-.677.006-1.25.048-1.76.303-.34.17-.63.462-.797.838-.166.375-.23.817-.23 1.36v13c0 .54.064.983.23 1.359.167.375.458.668.797.837.68.34 1.473.303 2.473.303h8c1 0 1.794.037 2.473-.303.34-.17.63-.462.797-.837.166-.376.23-.818.23-1.36v-13c0-.542-.064-.984-.23-1.36a1.72 1.72 0 0 0-.797-.837C17.293 2.964 16.5 3 15.5 3h-8c-.25 0-.487-.002-.713 0zM11.5 7.09 16 9.505V14.7l-4.5 2.416L7 14.7V9.505zm0 .85L8.168 9.73l3.332 1.79 3.332-1.791z"/></svg>