<?xml version="1.0" encoding="UTF-8" standalone="no"?>
<svg
   height="24"
   width="24"
   version="1.1"
   id="svg8"
   sodipodi:docname="flash-filled.svg"
   inkscape:version="1.1 (ce6663b3b7, 2021-05-25)"
   xmlns:inkscape="http://www.inkscape.org/namespaces/inkscape"
   xmlns:sodipodi="http://sodipodi.sourceforge.net/DTD/sodipodi-0.dtd"
   xmlns="http://www.w3.org/2000/svg"
   xmlns:svg="http://www.w3.org/2000/svg">
  <defs
     id="defs12" />
  <sodipodi:namedview
     id="namedview10"
     pagecolor="#ffffff"
     bordercolor="#666666"
     borderopacity="1.0"
     inkscape:pageshadow="2"
     inkscape:pageopacity="0.0"
     inkscape:pagecheckerboard="0"
     showgrid="true"
     inkscape:snap-page="true"
     inkscape:zoom="28"
     inkscape:cx="9.8392857"
     inkscape:cy="9.1428571"
     inkscape:window-width="1920"
     inkscape:window-height="1043"
     inkscape:window-x="1920"
     inkscape:window-y="0"
     inkscape:window-maximized="1"
     inkscape:current-layer="svg8">
    <inkscape:grid
       type="xygrid"
       id="grid829" />
  </sodipodi:namedview>
  <path
     id="path2"
     style="line-height:normal;font-variant-ligatures:normal;font-variant-position:normal;font-variant-caps:normal;font-variant-numeric:normal;font-variant-alternates:normal;font-feature-settings:normal;text-indent:0;text-align:start;text-decoration-line:none;text-decoration-style:solid;text-decoration-color:#000000;text-transform:none;text-orientation:mixed;shape-padding:0;isolation:auto;mix-blend-mode:normal;fill:#808080;stroke-width:0.8;marker:none"
     d="M 9.5 3.875 C 8.6775 3.875 8.0272656 3.95 7.4785156 4.15625 A 2.35 2.35 0 0 0 6.2304688 5.203125 C 5.7104688 6.143125 5.76875 7.2946875 5.75 8.8671875 L 5.75 15.132812 C 5.76875 16.705313 5.7117188 17.855625 6.2304688 18.796875 C 6.4892188 19.266875 6.9310156 19.639453 7.4785156 19.845703 C 8.0260156 20.050703 8.67875 20.125 9.5 20.125 L 14.5 20.125 C 15.3225 20.125 15.973984 20.05 16.521484 19.84375 C 17.070234 19.63875 17.506875 19.266875 17.765625 18.796875 C 18.285625 17.855625 18.23125 16.705312 18.25 15.132812 L 18.25 10.560547 L 16.970703 8.640625 C 16.958203 7.214375 17.007031 6.086875 16.519531 5.203125 A 2.35 2.35 0 0 0 15.271484 4.15625 C 14.725234 3.95 14.07125 3.875 13.25 3.875 L 9.5 3.875 z M 8.25 6.375 L 9.5 6.375 L 9.5 8.875 L 8.25 8.875 L 8.25 6.375 z M 10.75 6.375 L 12 6.375 L 12 8.875 L 10.75 8.875 L 10.75 6.375 z M 13.25 6.375 L 14.5 6.375 L 14.5 8.875 L 13.25 8.875 L 13.25 6.375 z " />
</svg>
