<?xml version="1.0" encoding="UTF-8" standalone="no"?>
<svg
   height="24"
   width="24"
   version="1.1"
   id="svg8"
   sodipodi:docname="floppy.svg"
   inkscape:version="1.1 (ce6663b3b7, 2021-05-25)"
   xmlns:inkscape="http://www.inkscape.org/namespaces/inkscape"
   xmlns:sodipodi="http://sodipodi.sourceforge.net/DTD/sodipodi-0.dtd"
   xmlns="http://www.w3.org/2000/svg"
   xmlns:svg="http://www.w3.org/2000/svg">
  <defs
     id="defs12" />
  <sodipodi:namedview
     id="namedview10"
     pagecolor="#ffffff"
     bordercolor="#666666"
     borderopacity="1.0"
     inkscape:pageshadow="2"
     inkscape:pageopacity="0.0"
     inkscape:pagecheckerboard="0"
     showgrid="true"
     inkscape:snap-page="true"
     inkscape:zoom="14"
     inkscape:cx="1.1071429"
     inkscape:cy="1.6071429"
     inkscape:window-width="1920"
     inkscape:window-height="1016"
     inkscape:window-x="0"
     inkscape:window-y="27"
     inkscape:window-maximized="1"
     inkscape:current-layer="svg8">
    <inkscape:grid
       type="xygrid"
       id="grid823" />
    <inkscape:grid
       type="xygrid"
       id="grid825"
       dotted="true"
       spacingx="0.5"
       spacingy="0.5"
       empspacing="10" />
  </sodipodi:namedview>
  <path
     id="rect1321"
     style="fill:#808080;fill-rule:evenodd;stroke-width:0.5;stroke-linecap:round;stroke-linejoin:round;fill-opacity:1"
     d="M 5.7871094 3 C 5.1101636 3.0055872 4.5365074 3.0481526 4.0273438 3.3027344 C 3.6879015 3.4724556 3.3973384 3.765168 3.2304688 4.140625 C 3.0635988 4.516082 3 4.9583339 3 5.5 L 3 16.707031 L 7.2929688 21 L 17.5 21 C 18.499999 21 19.293771 21.03671 19.972656 20.697266 C 20.312099 20.527544 20.602661 20.234832 20.769531 19.859375 C 20.936401 19.483918 21 19.041666 21 18.5 L 21 5.5 C 21 4.9583339 20.9364 4.516082 20.769531 4.140625 C 20.602661 3.765168 20.312099 3.4724556 19.972656 3.3027344 C 19.293771 2.963292 18.499999 3 17.5 3 L 6.5 3 C 6.2500003 3 6.012758 2.9981376 5.7871094 3 z M 6.5 4 L 17.5 4 C 18.499999 4 19.20623 4.036708 19.527344 4.1972656 C 19.687901 4.2775446 19.772339 4.3598326 19.855469 4.546875 C 19.938599 4.7339174 20 5.0416671 20 5.5 L 20 18.5 C 20 18.958333 19.9386 19.266083 19.855469 19.453125 C 19.772339 19.640167 19.687901 19.722456 19.527344 19.802734 C 19.20623 19.963291 18.499999 20 17.5 20 L 17 20 L 17 13 L 7 13 L 7 19.292969 L 4 16.292969 L 4 5.5 C 4 5.0416671 4.0614011 4.7339174 4.1445312 4.546875 C 4.2276612 4.3598326 4.3120991 4.2775442 4.4726562 4.1972656 C 4.7937705 4.0367085 5.500001 4 6.5 4 z M 10 15 L 12 15 L 12 19 L 10 19 L 10 15 z " />
</svg>
