<?xml version="1.0" encoding="UTF-8" standalone="no"?>
<svg
   height="24"
   width="24"
   version="1.1"
   id="svg8"
   sodipodi:docname="removable.svg"
   inkscape:version="1.1 (ce6663b3b7, 2021-05-25)"
   xmlns:inkscape="http://www.inkscape.org/namespaces/inkscape"
   xmlns:sodipodi="http://sodipodi.sourceforge.net/DTD/sodipodi-0.dtd"
   xmlns="http://www.w3.org/2000/svg"
   xmlns:svg="http://www.w3.org/2000/svg">
  <defs
     id="defs12" />
  <sodipodi:namedview
     id="namedview10"
     pagecolor="#ffffff"
     bordercolor="#666666"
     borderopacity="1.0"
     inkscape:pageshadow="2"
     inkscape:pageopacity="0.0"
     inkscape:pagecheckerboard="0"
     showgrid="false"
     width="24px"
     inkscape:zoom="28"
     inkscape:cx="1.6964286"
     inkscape:cy="6.7142857"
     inkscape:window-width="1920"
     inkscape:window-height="1043"
     inkscape:window-x="1920"
     inkscape:window-y="0"
     inkscape:window-maximized="1"
     inkscape:current-layer="svg8" />
  <g
     color="#000000"
     font-weight="400"
     font-family="sans-serif"
     white-space="normal"
     fill="#808080"
     id="g6"
     transform="matrix(1.25,0,0,1.25,2.625,2)"
     style="stroke-width:0.8">
    <path
       d="m 5,4 c -0.658,0 -1.178,0.06 -1.617,0.225 a 1.88,1.88 0 0 0 -0.998,0.838 c -0.416,0.752 -0.37,1.673 -0.385,2.931 v 4.012 c 0.015,1.258 -0.03,2.179 0.385,2.932 0.207,0.376 0.56,0.673 0.998,0.838 0.438,0.164 0.96,0.224 1.617,0.224 h 5 c 0.658,0 1.179,-0.06 1.617,-0.225 0.439,-0.164 0.789,-0.461 0.996,-0.837 0.416,-0.753 0.372,-1.674 0.387,-2.932 v -4.012 c -0.014,-1.258 0.03,-2.179 -0.385,-2.932 a 1.88,1.88 0 0 0 -0.998,-0.838 c -0.437,-0.164 -0.96,-0.224 -1.617,-0.224 z m 0,1 h 5 c 0.592,0 1.006,0.063 1.266,0.16 0.26,0.098 0.371,0.204 0.472,0.387 0.202,0.366 0.247,1.195 0.262,2.453 v 3.994 c -0.015,1.264 -0.06,2.092 -0.262,2.46 -0.1,0.183 -0.212,0.288 -0.472,0.386 -0.26,0.097 -0.674,0.16 -1.266,0.16 h -5 c -0.592,0 -1.006,-0.063 -1.266,-0.16 -0.26,-0.098 -0.371,-0.203 -0.472,-0.387 -0.202,-0.366 -0.247,-1.193 -0.262,-2.453 v -4 c 0.015,-1.258 0.06,-2.087 0.262,-2.453 0.1,-0.183 0.213,-0.29 0.472,-0.387 0.26,-0.097 0.674,-0.16 1.266,-0.16 z"
       style="line-height:normal;font-variant-ligatures:normal;font-variant-position:normal;font-variant-caps:normal;font-variant-numeric:normal;font-variant-alternates:normal;font-feature-settings:normal;text-indent:0;text-align:start;text-decoration-line:none;text-decoration-style:solid;text-decoration-color:#000000;text-transform:none;text-orientation:mixed;shape-padding:0;isolation:auto;mix-blend-mode:normal;stroke-width:0.64;marker:none"
       overflow="visible"
       id="path2" />
    <path
       d="m 4,0 v 3 h 1 v -2 h 5 v 2 h 1 v -3 z m 2,2 v 1 h 1 v -1 z m 2,0 v 1 h 1 v -1 z"
       style="line-height:normal;font-variant-ligatures:normal;font-variant-position:normal;font-variant-caps:normal;font-variant-numeric:normal;font-variant-alternates:normal;font-feature-settings:normal;text-indent:0;text-align:start;text-decoration-line:none;text-decoration-style:solid;text-decoration-color:#000000;text-transform:none;text-orientation:mixed;shape-padding:0;isolation:auto;mix-blend-mode:normal;stroke-width:0.64"
       overflow="visible"
       fill-rule="evenodd"
       id="path4" />
  </g>
</svg>
