<?xml version="1.0" encoding="UTF-8" standalone="no"?>
<svg
   height="24"
   width="24"
   version="1.1"
   id="svg8"
   sodipodi:docname="removable-filled.svg"
   inkscape:version="1.1 (ce6663b3b7, 2021-05-25)"
   xmlns:inkscape="http://www.inkscape.org/namespaces/inkscape"
   xmlns:sodipodi="http://sodipodi.sourceforge.net/DTD/sodipodi-0.dtd"
   xmlns="http://www.w3.org/2000/svg"
   xmlns:svg="http://www.w3.org/2000/svg">
  <defs
     id="defs12" />
  <sodipodi:namedview
     id="namedview10"
     pagecolor="#ffffff"
     bordercolor="#666666"
     borderopacity="1.0"
     inkscape:pageshadow="2"
     inkscape:pageopacity="0.0"
     inkscape:pagecheckerboard="0"
     showgrid="false"
     width="24px"
     inkscape:zoom="14"
     inkscape:cx="4.6785714"
     inkscape:cy="-2.3571429"
     inkscape:window-width="1920"
     inkscape:window-height="1043"
     inkscape:window-x="1920"
     inkscape:window-y="0"
     inkscape:window-maximized="1"
     inkscape:current-layer="svg8" />
  <path
     id="path2"
     style="color:#000000;font-weight:400;line-height:normal;font-family:sans-serif;font-variant-ligatures:normal;font-variant-position:normal;font-variant-caps:normal;font-variant-numeric:normal;font-variant-alternates:normal;font-feature-settings:normal;text-indent:0;text-align:start;text-decoration-line:none;text-decoration-style:solid;text-decoration-color:#000000;text-transform:none;text-orientation:mixed;white-space:normal;shape-padding:0;isolation:auto;mix-blend-mode:normal;fill:#808080;stroke-width:0.8;marker:none"
     d="M 7.625 2 L 7.625 7.0839844 C 7.3459066 7.1286084 7.0894952 7.1925561 6.8535156 7.28125 A 2.35 2.35 0 0 0 5.6054688 8.328125 C 5.0854687 9.268125 5.14375 10.419688 5.125 11.992188 L 5.125 17.007812 C 5.14375 18.580313 5.086719 19.730625 5.6054688 20.671875 C 5.8642188 21.141875 6.3060156 21.514453 6.8535156 21.720703 C 7.4010156 21.925703 8.05375 22 8.875 22 L 15.125 22 C 15.9475 22 16.598984 21.925 17.146484 21.71875 C 17.695234 21.51375 18.131875 21.141875 18.390625 20.671875 C 18.910625 19.730625 18.85625 18.580312 18.875 17.007812 L 18.875 11.992188 C 18.8575 10.419688 18.91328 9.269375 18.394531 8.328125 A 2.35 2.35 0 0 0 17.146484 7.2792969 C 16.91158 7.1911409 16.654435 7.1284336 16.375 7.0839844 L 16.375 2 L 7.625 2 z M 10.125 4.5 L 11.375 4.5 L 11.375 5.75 L 10.125 5.75 L 10.125 4.5 z M 12.625 4.5 L 13.875 4.5 L 13.875 5.75 L 12.625 5.75 L 12.625 4.5 z " />
</svg>
