<?xml version="1.0" encoding="UTF-8" standalone="no"?>
<svg
   height="24"
   width="24"
   version="1.1"
   id="svg8"
   sodipodi:docname="tape-filled.svg"
   inkscape:version="1.1 (ce6663b3b7, 2021-05-25)"
   xmlns:inkscape="http://www.inkscape.org/namespaces/inkscape"
   xmlns:sodipodi="http://sodipodi.sourceforge.net/DTD/sodipodi-0.dtd"
   xmlns="http://www.w3.org/2000/svg"
   xmlns:svg="http://www.w3.org/2000/svg">
  <defs
     id="defs12" />
  <sodipodi:namedview
     id="namedview10"
     pagecolor="#ffffff"
     bordercolor="#666666"
     borderopacity="1.0"
     inkscape:pageshadow="2"
     inkscape:pageopacity="0.0"
     inkscape:pagecheckerboard="0"
     showgrid="true"
     inkscape:zoom="28"
     inkscape:cx="16"
     inkscape:cy="10.392857"
     inkscape:window-width="1920"
     inkscape:window-height="1043"
     inkscape:window-x="1920"
     inkscape:window-y="0"
     inkscape:window-maximized="1"
     inkscape:current-layer="svg8">
    <inkscape:grid
       type="xygrid"
       id="grid829" />
  </sodipodi:namedview>
  <path
     id="path2"
     style="line-height:normal;font-variant-ligatures:normal;font-variant-position:normal;font-variant-caps:normal;font-variant-numeric:normal;font-variant-alternates:normal;font-feature-settings:normal;text-indent:0;text-align:start;text-decoration-line:none;text-decoration-style:solid;text-decoration-color:#000000;text-transform:none;text-orientation:mixed;shape-padding:0;isolation:auto;mix-blend-mode:normal;fill:#808080;stroke-width:0.8;marker:none"
     d="M 6.9921875 5.125 C 5.4196875 5.14375 4.268125 5.0867187 3.328125 5.6054688 A 2.35 2.35 0 0 0 2.28125 6.8535156 C 2.075 7.4022656 2 8.05375 2 8.875 L 2 15.125 C 2 15.9475 2.075 16.598984 2.28125 17.146484 C 2.48625 17.695234 2.856875 18.134531 3.328125 18.394531 C 4.268125 18.914531 5.4196875 18.85625 6.9921875 18.875 L 17.007812 18.875 C 18.580313 18.8575 19.730625 18.913281 20.671875 18.394531 A 2.35 2.35 0 0 0 21.720703 17.146484 C 21.925703 16.598984 22 15.94625 22 15.125 L 22 8.875 C 22 8.0525 21.925 7.4022656 21.71875 6.8535156 A 2.35 2.35 0 0 0 20.671875 5.6054688 C 19.730625 5.0854688 18.580312 5.14375 17.007812 5.125 L 6.9980469 5.125 L 6.9921875 5.125 z M 7.625 8.875 C 9.34375 8.875 10.75 10.28125 10.75 12 C 10.75 12.70625 10.484687 13.35 10.085938 13.875 L 13.912109 13.875 C 13.514609 13.35 13.25 12.70625 13.25 12 C 13.25 10.28125 14.65625 8.875 16.375 8.875 C 18.09375 8.875 19.5 10.28125 19.5 12 C 19.5 13.71875 18.09375 15.125 16.375 15.125 L 7.625 15.125 A 3.135 3.135 0 0 1 4.5 12 C 4.5 10.28125 5.90625 8.875 7.625 8.875 z M 7.625 10.125 C 6.5825 10.125 5.75 10.9575 5.75 12 C 5.75 13.0425 6.5825 13.875 7.625 13.875 C 8.6675 13.875 9.5 13.0425 9.5 12 C 9.5 10.9575 8.6675 10.125 7.625 10.125 z M 16.375 10.125 C 15.3325 10.125 14.5 10.9575 14.5 12 C 14.5 13.0425 15.3325 13.875 16.375 13.875 C 17.4175 13.875 18.25 13.0425 18.25 12 C 18.25 10.9575 17.4175 10.125 16.375 10.125 z " />
</svg>
