<?xml version="1.0" encoding="UTF-8" standalone="no"?>
<svg
   height="24"
   width="24"
   version="1.1"
   id="svg8"
   sodipodi:docname="zip-filled.svg"
   inkscape:version="1.1 (ce6663b3b7, 2021-05-25)"
   xmlns:inkscape="http://www.inkscape.org/namespaces/inkscape"
   xmlns:sodipodi="http://sodipodi.sourceforge.net/DTD/sodipodi-0.dtd"
   xmlns="http://www.w3.org/2000/svg"
   xmlns:svg="http://www.w3.org/2000/svg">
  <defs
     id="defs12" />
  <sodipodi:namedview
     id="namedview10"
     pagecolor="#ffffff"
     bordercolor="#666666"
     borderopacity="1.0"
     inkscape:pageshadow="2"
     inkscape:pageopacity="0.0"
     inkscape:pagecheckerboard="0"
     showgrid="true"
     inkscape:zoom="14"
     inkscape:cx="-6.0714286"
     inkscape:cy="4.0714286"
     inkscape:window-width="1920"
     inkscape:window-height="1043"
     inkscape:window-x="1920"
     inkscape:window-y="0"
     inkscape:window-maximized="1"
     inkscape:current-layer="svg8"
     inkscape:snap-page="true"
     inkscape:snap-grids="false">
    <inkscape:grid
       type="xygrid"
       id="grid821" />
  </sodipodi:namedview>
  <path
     id="path2"
     style="line-height:normal;font-variant-ligatures:normal;font-variant-position:normal;font-variant-caps:normal;font-variant-numeric:normal;font-variant-alternates:normal;font-feature-settings:normal;text-indent:0;text-align:start;text-decoration-line:none;text-decoration-style:solid;text-decoration-color:#000000;text-transform:none;text-orientation:mixed;shape-padding:0;isolation:auto;mix-blend-mode:normal;fill:#808080;stroke-width:1;marker:none"
     d="M 8.2421875 3.25 C 6.6696875 3.26875 5.519375 3.2117187 4.578125 3.7304688 A 2.35 2.35 0 0 0 3.53125 4.9785156 C 3.325 5.5260156 3.25 6.17875 3.25 7 L 3.25 20.75 L 20.75 20.75 L 20.75 7 C 20.75 6.1775 20.675001 5.5260156 20.46875 4.9785156 A 2.35 2.35 0 0 0 19.421875 3.7304688 C 18.480625 3.2104687 17.330312 3.26875 15.757812 3.25 L 8.2480469 3.25 L 8.2421875 3.25 z M 7 4.53125 L 17 4.53125 L 17 9.5 L 7 9.5 L 7 4.53125 z " />
</svg>
