<?xml version="1.0" encoding="UTF-8" standalone="no"?>
<svg
   height="24"
   width="24"
   version="1.1"
   id="svg8"
   sodipodi:docname="zip.svg"
   inkscape:version="1.1 (ce6663b3b7, 2021-05-25)"
   xmlns:inkscape="http://www.inkscape.org/namespaces/inkscape"
   xmlns:sodipodi="http://sodipodi.sourceforge.net/DTD/sodipodi-0.dtd"
   xmlns="http://www.w3.org/2000/svg"
   xmlns:svg="http://www.w3.org/2000/svg">
  <defs
     id="defs12" />
  <sodipodi:namedview
     id="namedview10"
     pagecolor="#ffffff"
     bordercolor="#666666"
     borderopacity="1.0"
     inkscape:pageshadow="2"
     inkscape:pageopacity="0.0"
     inkscape:pagecheckerboard="0"
     showgrid="false"
     inkscape:zoom="28"
     inkscape:cx="7.8035714"
     inkscape:cy="7.9285714"
     inkscape:window-width="1920"
     inkscape:window-height="1043"
     inkscape:window-x="1920"
     inkscape:window-y="0"
     inkscape:window-maximized="1"
     inkscape:current-layer="svg8"
     inkscape:snap-page="true" />
  <path
     id="path2"
     style="line-height:normal;font-variant-ligatures:normal;font-variant-position:normal;font-variant-caps:normal;font-variant-numeric:normal;font-variant-alternates:normal;font-feature-settings:normal;text-indent:0;text-align:start;text-decoration-line:none;text-decoration-style:solid;text-decoration-color:#000000;text-transform:none;text-orientation:mixed;shape-padding:0;isolation:auto;mix-blend-mode:normal;fill:#808080;stroke-width:1;marker:none"
     d="m 8.2426757,3.25 c -1.5725,0.01875 -2.7233007,-0.037793 -3.6645507,0.480957 a 2.35,2.35 0 0 0 -1.0473633,1.2475586 c -0.20625,0.5475 -0.2807617,1.2002344 -0.2807617,2.0214844 v 13.75 h 17.5 v -13.75 c 0,-0.8225 -0.07451,-1.4739844 -0.280761,-2.0214844 a 2.35,2.35 0 0 0 -1.047364,-1.2475586 c -0.94125,-0.52 -2.092051,-0.462207 -3.664551,-0.480957 h -7.5097654 z m -1.2426757,1.2817382 v 4.9682618 h 10 v -4.9682617 c 0.880418,0.038639 1.494457,0.1177225 1.816406,0.2954102 0.23,0.125 0.362149,0.2658203 0.483399,0.5908203 0.12125,0.3249999 0.200195,0.8420312 0.200195,1.5820312 v 12.5 h -15 v -12.5 c 0,-0.74 0.078945,-1.2570313 0.2001952,-1.5820312 0.1225,-0.325 0.2522072,-0.4645703 0.4809572,-0.5908203 0.3220604,-0.1777492 0.9372047,-0.2567867 1.8188476,-0.2954103 z" />
</svg>
