<?xml version="1.0" encoding="UTF-8" standalone="no"?>
<svg
   height="24"
   width="24"
   version="1.1"
   id="svg4"
   sodipodi:docname="_.svg"
   inkscape:version="1.1 (ce6663b3b7, 2021-05-25)"
   xmlns:inkscape="http://www.inkscape.org/namespaces/inkscape"
   xmlns:sodipodi="http://sodipodi.sourceforge.net/DTD/sodipodi-0.dtd"
   xmlns="http://www.w3.org/2000/svg"
   xmlns:svg="http://www.w3.org/2000/svg">
  <defs
     id="defs8" />
  <sodipodi:namedview
     id="namedview6"
     pagecolor="#ffffff"
     bordercolor="#666666"
     borderopacity="1.0"
     inkscape:pageshadow="2"
     inkscape:pageopacity="0.0"
     inkscape:pagecheckerboard="0"
     showgrid="false"
     inkscape:zoom="39.595506"
     inkscape:cx="5.9729"
     inkscape:cy="7.0588818"
     inkscape:window-width="1920"
     inkscape:window-height="1016"
     inkscape:window-x="0"
     inkscape:window-y="27"
     inkscape:window-maximized="1"
     inkscape:current-layer="svg4" />
  <path
     d="m 12,2 c -1.37492,0 -2.6810933,0.3999767 -2.6810933,0.3999767 l -0.4437241,0.1349921 v 2.1036271 a 17.348987,17.348987 0 0 0 -3.7472812,1.1111851 l -0.0025,1.249927 h -1.249927 v 1.249927 h 1.249927 l 0.005,11.249343 c 0,0.548718 0.049997,0.984942 0.187489,1.352421 0.1387419,0.367479 0.3887273,0.659961 0.7037089,0.834951 0.6287133,0.34998 1.3999183,0.312482 2.4411075,0.312482 h 7.0795872 c 1.041189,0 1.812394,0.0375 2.441107,-0.312482 0.314982,-0.17499 0.562467,-0.467472 0.699959,-0.834951 0.137492,-0.367479 0.191239,-0.803703 0.191239,-1.352421 l -0.0025,-9.999416 h -1.249927 l 0.0025,9.999416 c 0,0.469973 -0.05,0.753706 -0.109994,0.911197 -0.0425,0.112493 -0.09749,0.16124 -0.137492,0.182489 -0.216237,0.121243 -0.763705,0.156241 -1.834892,0.156241 h -7.0795872 c -1.0711875,0 -1.6186555,-0.035 -1.8361428,-0.156241 a 0.33373051,0.33373051 0 0 1 -0.1412417,-0.182489 v -0.0025 c -0.057497,-0.152491 -0.1049939,-0.434975 -0.1049939,-0.908697 v -0.0025 l -0.005,-11.246843 h 13.7491976 v -1.249927 h -1.252427 l 0.0025,-1.249927 a 17.317739,17.317739 0 0 0 -3.749781,-1.1111851 v -2.0761287 l -0.412476,-0.1487413 c 0,0 -1.141183,-0.4124759 -2.712342,-0.4124759 z m 0,1.249927 c 1.112436,0 1.612406,0.1937387 1.874891,0.2749839 v 0.9236961 a 17.561474,17.561474 0 0 0 -1.872391,-0.1049939 c -0.627463,0 -1.253677,0.039998 -1.87739,0.1074937 v -0.9174464 c 0.33248,-0.087495 0.964943,-0.2837334 1.87489,-0.2837334 z m -3.1248174,6.249635 v 7.499562 h 1.2499274 v -7.499562 z m 2.4998544,0 v 7.499562 h 1.249927 v -7.499562 z m 2.499854,0 v 7.499562 h 1.249927 v -7.499562 z"
     fill="#808080"
     font-family="Ubuntu"
     font-size="15px"
     font-weight="400"
     letter-spacing="0"
     style="line-height:125%;-inkscape-font-specification:Ubuntu;text-align:center;stroke-width:1"
     text-anchor="middle"
     word-spacing="0"
     id="path2" />
</svg>
