<?xml version="1.0" encoding="UTF-8" standalone="no"?>
<svg
   height="24"
   width="24"
   version="1.1"
   id="svg8"
   sodipodi:docname="full.svg"
   inkscape:version="1.1 (ce6663b3b7, 2021-05-25)"
   xmlns:inkscape="http://www.inkscape.org/namespaces/inkscape"
   xmlns:sodipodi="http://sodipodi.sourceforge.net/DTD/sodipodi-0.dtd"
   xmlns="http://www.w3.org/2000/svg"
   xmlns:svg="http://www.w3.org/2000/svg">
  <defs
     id="defs12" />
  <sodipodi:namedview
     id="namedview10"
     pagecolor="#ffffff"
     bordercolor="#666666"
     borderopacity="1.0"
     inkscape:pageshadow="2"
     inkscape:pageopacity="0.0"
     inkscape:pagecheckerboard="0"
     showgrid="false"
     inkscape:zoom="27.998251"
     inkscape:cx="6.8397129"
     inkscape:cy="6.0003748"
     inkscape:window-width="1920"
     inkscape:window-height="1043"
     inkscape:window-x="1920"
     inkscape:window-y="0"
     inkscape:window-maximized="1"
     inkscape:current-layer="svg8" />
  <g
     fill="#808080"
     font-weight="400"
     id="g6"
     transform="matrix(1.249927,0,0,1.249927,2.6225731,2.0000001)"
     style="stroke-width:0.800047">
    <path
       d="m 7.5,0 c -1.1,0 -2.144,0.32 -2.144,0.32 l -0.356,0.108 v 1.683 c -1.023,0.186 -2.03,0.474 -2.998,0.889 v 1 h -1 v 1 h 1 v 9 c 0,0.439 0.04,0.788 0.15,1.082 0.111,0.294 0.311,0.528 0.563,0.668 0.503,0.28 1.12,0.25 1.953,0.25 h 3.33 v -1 h -3.33 c -0.857,0 -1.295,-0.028 -1.469,-0.125 a 0.266,0.266 0 0 1 -0.113,-0.146 v -0.002 c -0.046,-0.122 -0.084,-0.348 -0.084,-0.727 v -9 h 11 v -1 h -1.002 v -1 a 13.856,13.856 0 0 0 -3,-0.889 v -1.662 l -0.33,-0.119 c 0,0 -0.913,-0.33 -2.17,-0.33 z m 0,1 c 0.89,0 1.291,0.155 1.5,0.22 v 0.739 a 14.048,14.048 0 0 0 -1.498,-0.084 c -0.501,0 -1.003,0.032 -1.502,0.086 v -0.734 c 0.266,-0.07 0.773,-0.227 1.5,-0.227 z m -2.5,5 v 6 h 1 v -6 z m 2,0 v 6 h 1 v -6 z m 2,0 v 4 h 1 v -4 z m 2.998,0 v 2 h 1 v -2 z"
       font-family="Ubuntu"
       font-size="15px"
       letter-spacing="0"
       style="line-height:125%;-inkscape-font-specification:Ubuntu;text-align:center;stroke-width:0.640075"
       text-anchor="middle"
       word-spacing="0"
       id="path2" />
    <path
       color="#000000"
       d="m 11.5,9 a 0.5,0.5 0 0 0 -0.353,0.854 l 0.556,0.556 c -0.298,0.165 -0.498,0.249 -1.002,0.627 -0.396,0.297 -0.801,0.647 -1.123,1.049 -0.322,0.402 -0.578,0.872 -0.578,1.414 0,0.861 0.345,1.586 0.984,1.986 0.64,0.4 1.474,0.514 2.516,0.514 1.042,0 1.876,-0.114 2.516,-0.514 0.64,-0.4 0.984,-1.125 0.984,-1.986 0,-0.542 -0.256,-1.012 -0.578,-1.414 -0.322,-0.402 -0.725,-0.752 -1.121,-1.049 -0.505,-0.379 -0.707,-0.462 -1.004,-0.627 l 0.557,-0.556 a 0.5,0.5 0 0 0 -0.354,-0.854 z m 1,2.088 c 0.174,0.091 0.605,0.303 1.201,0.75 0.354,0.265 0.699,0.572 0.94,0.873 0.24,0.3 0.359,0.58 0.359,0.789 0,0.639 -0.155,0.914 -0.516,1.139 -0.36,0.225 -1.026,0.361 -1.984,0.361 -0.958,0 -1.624,-0.136 -1.984,-0.361 -0.36,-0.225 -0.516,-0.5 -0.516,-1.139 0,-0.208 0.119,-0.488 0.36,-0.79 0.24,-0.3 0.587,-0.607 0.94,-0.872 0.597,-0.447 1.025,-0.658 1.2,-0.75 z"
       fill-rule="evenodd"
       font-family="sans-serif"
       overflow="visible"
       style="line-height:normal;font-variant-ligatures:normal;font-variant-position:normal;font-variant-caps:normal;font-variant-numeric:normal;font-variant-alternates:normal;font-feature-settings:normal;text-indent:0;text-align:start;text-decoration-line:none;text-decoration-style:solid;text-decoration-color:#000000;text-transform:none;text-orientation:mixed;shape-padding:0;isolation:auto;mix-blend-mode:normal;stroke-width:0.640075"
       white-space="normal"
       id="path4" />
  </g>
</svg>
