<?xml version="1.0" encoding="UTF-8" standalone="no"?>
<svg
   height="24"
   width="24"
   version="1.1"
   id="svg8"
   sodipodi:docname="full.svg"
   inkscape:version="1.1 (ce6663b3b7, 2021-05-25)"
   xmlns:inkscape="http://www.inkscape.org/namespaces/inkscape"
   xmlns:sodipodi="http://sodipodi.sourceforge.net/DTD/sodipodi-0.dtd"
   xmlns="http://www.w3.org/2000/svg"
   xmlns:svg="http://www.w3.org/2000/svg">
  <defs
     id="defs12" />
  <sodipodi:namedview
     id="namedview10"
     pagecolor="#ffffff"
     bordercolor="#666666"
     borderopacity="1.0"
     inkscape:pageshadow="2"
     inkscape:pageopacity="0.0"
     inkscape:pagecheckerboard="0"
     showgrid="true"
     inkscape:zoom="27.998251"
     inkscape:cx="27.983891"
     inkscape:cy="16.19744"
     inkscape:window-width="1920"
     inkscape:window-height="1016"
     inkscape:window-x="0"
     inkscape:window-y="27"
     inkscape:window-maximized="1"
     inkscape:current-layer="svg8">
    <inkscape:grid
       type="xygrid"
       id="grid33" />
    <inkscape:grid
       type="xygrid"
       id="grid1020"
       dotted="true"
       spacingx="0.5"
       spacingy="0.5"
       empspacing="10" />
  </sodipodi:namedview>
  <path
     id="rect919"
     style="color:#000000;fill:#808080;fill-opacity:1;fill-rule:evenodd;stroke-width:0.5;stroke-linecap:square;stroke-linejoin:round;-inkscape-stroke:none"
     d="m 11.5,2 c -0.805555,0 -1.371514,0.1345433 -1.7480469,0.2851562 -0.376532,0.150613 -0.6054687,0.3613282 -0.6054687,0.3613282 l -0.1464844,0.1464844 v 1.4511718 c -2.2798099,0.440785 -3.7578125,1.3261719 -3.7578125,1.3261719 l -0.2421875,0.1464844 v 1.2832031 h -1 v 1 h 1 v 10.5 c 0,0.999999 -0.036708,1.793771 0.3027344,2.472656 0.1697212,0.339443 0.4624336,0.630005 0.8378906,0.796875 0.375457,0.16687 0.8177089,0.230469 1.359375,0.230469 h 6.5 v -1 h -6.5 c -0.4583329,0 -0.7660826,-0.0614 -0.953125,-0.144531 -0.1870424,-0.08313 -0.2693308,-0.167568 -0.3496094,-0.328125 -0.1605571,-0.321114 -0.1972656,-1.027345 -0.1972656,-2.027344 v -10.5 h 13 v -1 h -1 v -1.2832031 l -0.242188,-0.1464844 c 0,0 -1.478002,-0.8853869 -3.757812,-1.3261719 v -1.4511718 l -0.146484,-0.1464844 c 0,0 -0.228937,-0.2107152 -0.605469,-0.3613282 -0.376533,-0.1506129 -0.942492,-0.2851562 -1.748047,-0.2851562 z m 0,1 c 0.694444,0 1.128486,0.115457 1.376953,0.2148438 0.113128,0.045251 0.0847,0.040057 0.123047,0.0625 v 0.8125 c -0.475908,-0.055436 -0.977027,-0.089844 -1.5,-0.089844 -0.522973,0 -1.024092,0.034408 -1.5,0.089844 v -0.8125 c 0.03835,-0.022443 0.0099,-0.017249 0.123047,-0.0625 0.248467,-0.099387 0.682509,-0.2148438 1.376953,-0.2148438 z m -2.5,7 v 7 h 1 v -7 z m 2,0 v 7 h 1 v -7 z m 2,0 v 5 h 1 v -5 z m 4,0 v 2 h 1 v -2 z"
     sodipodi:nodetypes="sscccccccccssssccsssscccccccccssssccscccscccccccccccccccccccc" />
  <path
     style="color:#000000;fill:#808080;stroke-linejoin:round;-inkscape-stroke:none;fill-opacity:1"
     d="m 16.5,13 c -0.490019,0.002 -0.685051,0.634498 -0.28125,0.912109 0,0 0.667942,0.540894 0.972656,0.763672 -0.284345,0.230336 -0.303018,0.20586 -0.601562,0.470703 -0.652527,0.578868 -1.302731,1.222414 -1.794922,1.873047 -0.492192,0.650634 -0.870008,1.311651 -0.792969,2.033203 0.120002,1.123937 0.763373,1.917938 1.541016,2.361328 0.777643,0.443391 1.675613,0.585938 2.457031,0.585938 0.781418,0 1.679388,-0.142547 2.457031,-0.585938 0.777643,-0.44339 1.421014,-1.237391 1.541016,-2.361328 0.07704,-0.721552 -0.300777,-1.382569 -0.792969,-2.033203 -0.492191,-0.650633 -1.142395,-1.294179 -1.794922,-1.873047 -0.298544,-0.264843 -0.317217,-0.240367 -0.601562,-0.470703 0.304714,-0.222778 0.972656,-0.763672 0.972656,-0.763672 0.403801,-0.277611 0.208769,-0.910109 -0.28125,-0.912109 z m 1.500002,2.308594 c 0.340342,0.269867 0.377843,0.259256 0.746094,0.585937 0.623425,0.553051 1.236267,1.163637 1.662109,1.726563 0.425843,0.562926 0.620525,1.075401 0.59375,1.326172 -0.08763,0.820708 -0.477044,1.277209 -1.039062,1.597656 -0.562019,0.320447 -1.31059,0.455078 -1.962891,0.455078 -0.652301,0 -1.400872,-0.134631 -1.962891,-0.455078 -0.562018,-0.320447 -0.951436,-0.776948 -1.039062,-1.597656 -0.02677,-0.250771 0.167907,-0.763246 0.59375,-1.326172 0.425842,-0.562926 1.038684,-1.173512 1.662109,-1.726563 0.368251,-0.326681 0.405752,-0.31607 0.746094,-0.585937 z"
     id="path1055" />
</svg>
