<?xml version="1.0" encoding="UTF-8" standalone="no"?>
<svg
   height="24"
   width="24"
   version="1.1"
   id="svg4"
   sodipodi:docname="bottom.svg"
   inkscape:version="1.1 (ce6663b3b7, 2021-05-25)"
   xmlns:inkscape="http://www.inkscape.org/namespaces/inkscape"
   xmlns:sodipodi="http://sodipodi.sourceforge.net/DTD/sodipodi-0.dtd"
   xmlns="http://www.w3.org/2000/svg"
   xmlns:svg="http://www.w3.org/2000/svg">
  <defs
     id="defs8" />
  <sodipodi:namedview
     id="namedview6"
     pagecolor="#ffffff"
     bordercolor="#666666"
     borderopacity="1.0"
     inkscape:pageshadow="2"
     inkscape:pageopacity="0.0"
     inkscape:pagecheckerboard="0"
     showgrid="false"
     inkscape:snap-page="true"
     inkscape:zoom="14"
     inkscape:cx="-4.8214286"
     inkscape:cy="8.1071428"
     inkscape:window-width="1920"
     inkscape:window-height="1016"
     inkscape:window-x="0"
     inkscape:window-y="27"
     inkscape:window-maximized="1"
     inkscape:current-layer="svg4" />
  <path
     d="m 22,9.5 h -1.8625 c -0.65625,0.5 -1.32875,1.045 -2.03125,1.525 -0.8875,0.60875 -1.79625,1.18 -2.725,1.715 a 49.1375,49.1375 0 0 1 -3.1275,1.60625 l -0.25375,0.12 -0.25375,-0.12 a 49.01,49.01 0 0 1 -3.1275,-1.60625 41.05125,41.05125 0 0 1 -2.725,-1.71375 c -0.7025,-0.48125 -1.375,-1.02625 -2.03125,-1.52625 h -1.8625 c 1.0925,0.8625 2.19625,1.74625 3.32,2.51 1.25,0.85 2.465,1.61 3.64,2.2825 1.085,0.62 2.2175,1.0875 3.04,1.4575 0.8225,-0.37125 1.955,-0.8375 3.04,-1.4575 a 55.99625,55.99625 0 0 0 3.64,-2.2825 c 1.125,-0.7625 2.2275,-1.64625 3.32,-2.51 z m -8.75,10 a 1.25,1.25 0 0 0 -1.25,-1.25 1.25,1.25 0 0 0 -1.25,1.25 1.25,1.25 0 0 0 1.25,1.25 1.25,1.25 0 0 0 1.25,-1.25 z"
     fill="#808080"
     id="path2"
     style="stroke-width:1" />
</svg>
