<?xml version="1.0" encoding="UTF-8" standalone="no"?>
<svg
   height="24"
   width="24"
   version="1.1"
   id="svg4"
   sodipodi:docname="bottom.svg"
   inkscape:version="1.2 (1:1.2.1+202207142221+cd75a1ee6d)"
   xmlns:inkscape="http://www.inkscape.org/namespaces/inkscape"
   xmlns:sodipodi="http://sodipodi.sourceforge.net/DTD/sodipodi-0.dtd"
   xmlns="http://www.w3.org/2000/svg"
   xmlns:svg="http://www.w3.org/2000/svg">
  <defs
     id="defs8" />
  <sodipodi:namedview
     id="namedview6"
     pagecolor="#ffffff"
     bordercolor="#666666"
     borderopacity="1.0"
     inkscape:pageshadow="2"
     inkscape:pageopacity="0.0"
     inkscape:pagecheckerboard="0"
     showgrid="true"
     inkscape:snap-page="true"
     inkscape:zoom="30.460938"
     inkscape:cx="7.2880225"
     inkscape:cy="13.115158"
     inkscape:window-width="1850"
     inkscape:window-height="1016"
     inkscape:window-x="0"
     inkscape:window-y="0"
     inkscape:window-maximized="1"
     inkscape:current-layer="svg4"
     inkscape:showpageshadow="2"
     inkscape:deskcolor="#d1d1d1">
    <inkscape:grid
       type="xygrid"
       id="grid129" />
  </sodipodi:namedview>
  <path
     d="m 22,10 h -1.8625 c -0.65625,0.5 -1.32875,1.045 -2.03125,1.525 -0.8875,0.60875 -1.79625,1.18 -2.725,1.715 -1.023005,0.572553 -2.066173,1.108313 -3.1275,1.60625 l -0.25375,0.12 -0.25375,-0.12 C 10.684875,14.348411 9.6417035,13.81265 8.61875,13.24 7.6883597,12.704598 6.7793277,12.132908 5.89375,11.52625 5.19125,11.045 4.51875,10.5 3.8625,10 H 2 c 1.0925,0.8625 2.19625,1.74625 3.32,2.51 1.25,0.85 2.465,1.61 3.64,2.2825 1.085,0.62 2.2175,1.0875 3.04,1.4575 0.8225,-0.37125 1.955,-0.8375 3.04,-1.4575 1.242086,-0.713988 2.456313,-1.475382 3.64,-2.2825 C 19.805,11.7475 20.9075,10.86375 22,10 Z"
     fill="#808080"
     id="path2"
     style="stroke-width:1"
     sodipodi:nodetypes="ccccccccccccccccc" />
  <circle
     style="fill:#808080;stroke:none;stroke-width:4;stroke-linejoin:round"
     id="path450"
     cx="12"
     cy="20"
     r="1" />
</svg>
