<?xml version="1.0" encoding="UTF-8" standalone="no"?>
<svg
   height="24"
   width="24"
   version="1.1"
   id="svg4"
   sodipodi:docname="first.svg"
   inkscape:version="1.2 (1:1.2.1+202207142221+cd75a1ee6d)"
   xmlns:inkscape="http://www.inkscape.org/namespaces/inkscape"
   xmlns:sodipodi="http://sodipodi.sourceforge.net/DTD/sodipodi-0.dtd"
   xmlns="http://www.w3.org/2000/svg"
   xmlns:svg="http://www.w3.org/2000/svg">
  <defs
     id="defs8" />
  <sodipodi:namedview
     id="namedview6"
     pagecolor="#ffffff"
     bordercolor="#666666"
     borderopacity="1.0"
     inkscape:pageshadow="2"
     inkscape:pageopacity="0.0"
     inkscape:pagecheckerboard="0"
     showgrid="true"
     inkscape:snap-page="true"
     inkscape:zoom="28"
     inkscape:cx="7.0714286"
     inkscape:cy="13.660714"
     inkscape:window-width="1850"
     inkscape:window-height="1016"
     inkscape:window-x="0"
     inkscape:window-y="0"
     inkscape:window-maximized="1"
     inkscape:current-layer="svg4"
     inkscape:showpageshadow="2"
     inkscape:deskcolor="#d1d1d1">
    <inkscape:grid
       type="xygrid"
       id="grid129" />
  </sodipodi:namedview>
  <path
     d="m 14,2.06875 c -0.8625,1.0925 -1.74625,2.19625 -2.51,3.32 -0.85,1.25 -1.61,2.465 -2.2825,3.64 -0.62,1.085 -1.0875,2.2175 -1.4575,3.04 0.37125,0.8225 0.8375,1.955 1.4575,3.04 0.7144293,1.241821 1.475812,2.456031 2.2825,3.64 0.7625,1.125 1.64625,2.2275 2.51,3.32 v -1.8625 C 13.5,19.55 12.955,18.8775 12.475,18.175 11.867917,17.289444 11.29581,16.380412 10.76,15.45 10.187348,14.427047 9.6515871,13.383876 9.15375,12.3225 l -0.12,-0.25375 0.12,-0.25375 C 9.6516871,10.753673 10.187447,9.7105051 10.76,8.6875 11.29375,7.75875 11.86625,6.85 12.47375,5.9625 12.955,5.26 13.5,4.5875 14,3.93125 Z"
     fill="#808080"
     id="path2"
     style="stroke-width:1"
     sodipodi:nodetypes="ccccccccccccccccc" />
  <circle
     style="fill:#808080;stroke-width:4;stroke-linejoin:round"
     id="path464"
     cx="4"
     cy="12"
     r="1" />
</svg>
