<?xml version="1.0" encoding="UTF-8" standalone="no"?>
<svg
   height="24"
   width="24"
   version="1.1"
   id="svg8"
   sodipodi:docname="jump.svg"
   inkscape:version="1.2 (1:1.2.1+202207142221+cd75a1ee6d)"
   xmlns:inkscape="http://www.inkscape.org/namespaces/inkscape"
   xmlns:sodipodi="http://sodipodi.sourceforge.net/DTD/sodipodi-0.dtd"
   xmlns="http://www.w3.org/2000/svg"
   xmlns:svg="http://www.w3.org/2000/svg">
  <defs
     id="defs12" />
  <sodipodi:namedview
     id="namedview10"
     pagecolor="#ffffff"
     bordercolor="#666666"
     borderopacity="1.0"
     inkscape:pageshadow="2"
     inkscape:pageopacity="0.0"
     inkscape:pagecheckerboard="0"
     showgrid="true"
     inkscape:snap-page="true"
     inkscape:zoom="28"
     inkscape:cx="5.25"
     inkscape:cy="8.3035714"
     inkscape:window-width="1850"
     inkscape:window-height="1016"
     inkscape:window-x="0"
     inkscape:window-y="0"
     inkscape:window-maximized="1"
     inkscape:current-layer="svg8"
     inkscape:showpageshadow="2"
     inkscape:deskcolor="#d1d1d1">
    <inkscape:grid
       type="xygrid"
       id="grid829" />
    <inkscape:grid
       type="xygrid"
       id="grid132"
       dotted="true"
       spacingx="0.5"
       spacingy="0.5"
       empspacing="10" />
  </sodipodi:namedview>
  <path
     id="path4"
     style="color:#000000;fill:#808080;stroke-width:0.8;marker:none"
     d="M 11.5 3 C 9.7261941 3 8.5798068 3.0881618 7.8339844 3.8339844 C 7.0881618 4.5798068 7 5.726194 7 7.5 L 7 20.5 L 8 20.5 L 8 7.5 C 8 5.7738129 8.1618404 4.9201909 8.5410156 4.5410156 C 8.9201909 4.1618404 9.773813 4 11.5 4 L 12.5 4 C 14.226187 4 15.07981 4.1618404 15.458984 4.5410156 C 15.83816 4.9201909 16 5.773813 16 7.5 L 16 12.001953 L 13.375 12.001953 C 13.81 12.951952 14.295782 13.919298 14.832031 14.904297 C 15.370781 15.879296 15.926251 16.822267 16.5 17.728516 C 17.061249 16.822267 17.611641 15.881796 18.150391 14.904297 C 18.68789 13.919298 19.17875 12.951249 19.625 12 L 17 12 L 17 7.5 C 17 5.7261941 16.911838 4.5798068 16.166016 3.8339844 C 15.420192 3.0881618 14.273806 3 12.5 3 L 11.5 3 z " />
</svg>
