<?xml version="1.0" encoding="UTF-8" standalone="no"?>
<svg
   height="24"
   width="24"
   version="1.1"
   id="svg8"
   sodipodi:docname="jump.svg"
   inkscape:version="1.1 (ce6663b3b7, 2021-05-25)"
   xmlns:inkscape="http://www.inkscape.org/namespaces/inkscape"
   xmlns:sodipodi="http://sodipodi.sourceforge.net/DTD/sodipodi-0.dtd"
   xmlns="http://www.w3.org/2000/svg"
   xmlns:svg="http://www.w3.org/2000/svg">
  <defs
     id="defs12" />
  <sodipodi:namedview
     id="namedview10"
     pagecolor="#ffffff"
     bordercolor="#666666"
     borderopacity="1.0"
     inkscape:pageshadow="2"
     inkscape:pageopacity="0.0"
     inkscape:pagecheckerboard="0"
     showgrid="false"
     inkscape:snap-page="true"
     inkscape:zoom="28"
     inkscape:cx="5.1964286"
     inkscape:cy="8.2678571"
     inkscape:window-width="1920"
     inkscape:window-height="1016"
     inkscape:window-x="0"
     inkscape:window-y="27"
     inkscape:window-maximized="1"
     inkscape:current-layer="svg8">
    <inkscape:grid
       type="xygrid"
       id="grid829" />
  </sodipodi:namedview>
  <g
     color="#000000"
     fill="#808080"
     id="g6"
     transform="matrix(1.25,0,0,1.25,2,2)"
     style="stroke-width:0.8">
    <path
       d="m 7,1 c -0.658,0 -1.179,0.06 -1.617,0.225 a 1.88,1.88 0 0 0 -0.998,0.837 c -0.416,0.753 -0.37,1.674 -0.385,2.932 v 10.006 h 1 v -10 c 0.015,-1.259 0.06,-2.09 0.262,-2.455 0.1,-0.183 0.212,-0.287 0.472,-0.385 0.26,-0.097 0.674,-0.16 1.266,-0.16 h 2 c 0.592,0 1.006,0.063 1.266,0.16 0.26,0.098 0.371,0.202 0.472,0.385 0.202,0.366 0.247,1.196 0.262,2.455 v 4.5 h 1 v -4.506 c -0.015,-1.258 0.03,-2.179 -0.385,-2.932 a 1.88,1.88 0 0 0 -0.998,-0.837 c -0.439,-0.165 -0.96,-0.225 -1.617,-0.225 z"
       style="line-height:normal;font-variant-ligatures:normal;font-variant-position:normal;font-variant-caps:normal;font-variant-numeric:normal;font-variant-alternates:normal;font-feature-settings:normal;text-indent:0;text-align:start;text-decoration-line:none;text-decoration-style:solid;text-decoration-color:#000000;text-transform:none;text-orientation:mixed;shape-padding:0;isolation:auto;mix-blend-mode:normal;stroke-width:0.64;marker:none"
       font-weight="400"
       font-family="sans-serif"
       white-space="normal"
       overflow="visible"
       id="path2" />
    <path
       d="m 14,8 -5,10e-4 c 0.348,0.76 0.737,1.535 1.166,2.323 0.431,0.78 0.875,1.534 1.334,2.259 0.449,-0.725 0.889,-1.478 1.32,-2.26 0.43,-0.788 0.823,-1.562 1.18,-2.323 z"
       style="stroke-width:0.64;marker:none"
       overflow="visible"
       id="path4" />
  </g>
</svg>
