<?xml version="1.0" encoding="UTF-8" standalone="no"?>
<svg viewBox="0 1 24 24" height="24" width="24" version="1.1" id="svg4" sodipodi:docname="previous.svg" inkscape:version="1.2 (1:1.2.1+202207142221+cd75a1ee6d)"
   xmlns:inkscape="http://www.inkscape.org/namespaces/inkscape"
   xmlns:sodipodi="http://sodipodi.sourceforge.net/DTD/sodipodi-0.dtd"
   xmlns="http://www.w3.org/2000/svg"
   xmlns:svg="http://www.w3.org/2000/svg">
   <defs id="defs8" />
   <sodipodi:namedview id="namedview6" pagecolor="#ffffff" bordercolor="#666666" borderopacity="1.0" inkscape:pageshadow="2" inkscape:pageopacity="0.0" inkscape:pagecheckerboard="0" showgrid="true" inkscape:snap-page="true" inkscape:zoom="17.531081" inkscape:cx="-9.58298" inkscape:cy="17.654359" inkscape:window-width="1850" inkscape:window-height="1016" inkscape:window-x="0" inkscape:window-y="0" inkscape:window-maximized="1" inkscape:current-layer="svg4" inkscape:showpageshadow="2" inkscape:deskcolor="#d1d1d1">
      <inkscape:grid type="xygrid" id="grid233" />
   </sodipodi:namedview>
   <path d="m 14,2.068725 c -0.8625,1.0925 -1.74625,2.19625 -2.51,3.32 -0.84875,1.25 -1.60875,2.465 -2.28125,3.64 -0.62125,1.085 -1.0875,2.2175 -1.45875,3.04 0.37125,0.8225 0.8375,1.955 1.45875,3.04 a 56.4875,56.4875 0 0 0 2.28125,3.64 c 0.7625,1.125 1.64625,2.2275 2.51,3.32 v -1.8625 c -0.5,-0.655 -1.04625,-1.3275 -1.5275,-2.03125 a 41.05625,41.05625 0 0 1 -1.7125,-2.725 48.995,48.995 0 0 1 -1.60625,-3.125 v -0.0012 l -0.12,-0.255 0.12,-0.25375 c 0.4175,-0.8875 1.065,-2.18375 1.60625,-3.12625 a 41.475,41.475 0 0 1 1.7125,-2.72625 C 12.95375,5.260025 13.5,4.587525 14,3.931275 Z" fill="#808080" id="path2" style="stroke-width:1" />
</svg>
