<?xml version="1.0" encoding="UTF-8" standalone="no"?>
<svg
   height="24"
   width="24"
   version="1.1"
   id="svg4"
   sodipodi:docname="up.svg"
   inkscape:version="1.1 (ce6663b3b7, 2021-05-25)"
   xmlns:inkscape="http://www.inkscape.org/namespaces/inkscape"
   xmlns:sodipodi="http://sodipodi.sourceforge.net/DTD/sodipodi-0.dtd"
   xmlns="http://www.w3.org/2000/svg"
   xmlns:svg="http://www.w3.org/2000/svg">
  <defs
     id="defs8" />
  <sodipodi:namedview
     id="namedview6"
     pagecolor="#ffffff"
     bordercolor="#666666"
     borderopacity="1.0"
     inkscape:pageshadow="2"
     inkscape:pageopacity="0.0"
     inkscape:pagecheckerboard="0"
     showgrid="false"
     inkscape:snap-page="true"
     inkscape:zoom="28"
     inkscape:cx="7.3392857"
     inkscape:cy="9.2321429"
     inkscape:window-width="1920"
     inkscape:window-height="1016"
     inkscape:window-x="0"
     inkscape:window-y="27"
     inkscape:window-maximized="1"
     inkscape:current-layer="svg4" />
  <path
     d="m 22,14.5 c -1.0925,-0.8625 -2.19625,-1.74625 -3.32,-2.51 -1.25,-0.84875 -2.465,-1.60875 -3.64,-2.28125 -1.085,-0.62125 -2.2175,-1.0875 -3.04,-1.45875 -0.8225,0.37125 -1.955,0.8375 -3.04,1.45875 a 56.02375,56.02375 0 0 0 -3.64,2.28125 c -1.125,0.7625 -2.2275,1.64625 -3.32,2.51 h 1.8625 c 0.655,-0.5 1.3275,-1.04625 2.03125,-1.5275 0.8875,-0.6075 1.79625,-1.1775 2.725,-1.7125 a 49.00125,49.00125 0 0 1 3.125,-1.60625 h 0.0012 l 0.255,-0.12 0.25375,0.12 c 0.8875,0.4175 2.18375,1.065 3.12625,1.60625 0.93,0.535 1.8375,1.105 2.72625,1.7125 0.7025,0.48125 1.375,1.0275 2.03125,1.5275 z"
     fill="#808080"
     id="path2"
     style="stroke-width:1" />
</svg>
