<?xml version="1.0" encoding="UTF-8" standalone="no"?>
<svg viewBox="0 1 24 24" height="24" width="24" version="1.1" id="svg4" sodipodi:docname="up.svg" inkscape:version="1.2 (1:1.2.1+202207142221+cd75a1ee6d)"
   xmlns:inkscape="http://www.inkscape.org/namespaces/inkscape"
   xmlns:sodipodi="http://sodipodi.sourceforge.net/DTD/sodipodi-0.dtd"
   xmlns="http://www.w3.org/2000/svg"
   xmlns:svg="http://www.w3.org/2000/svg">
   <defs id="defs8" />
   <sodipodi:namedview id="namedview6" pagecolor="#ffffff" bordercolor="#666666" borderopacity="1.0" inkscape:pageshadow="2" inkscape:pageopacity="0.0" inkscape:pagecheckerboard="0" showgrid="true" inkscape:snap-page="true" inkscape:zoom="28" inkscape:cx="9.9642857" inkscape:cy="12.125" inkscape:window-width="1850" inkscape:window-height="1016" inkscape:window-x="0" inkscape:window-y="0" inkscape:window-maximized="1" inkscape:current-layer="svg4" inkscape:showpageshadow="2" inkscape:deskcolor="#d1d1d1">
      <inkscape:grid type="xygrid" id="grid287" />
   </sodipodi:namedview>
   <path d="M 22,14 C 20.9075,13.1375 19.80375,12.25375 18.68,11.49 17.43,10.64125 16.215,9.88125 15.04,9.20875 13.955,8.5875 12.8225,8.12125 12,7.75 11.1775,8.12125 10.045,8.5875 8.96,9.20875 A 56.02375,56.02375 0 0 0 5.32,11.49 C 4.195,12.2525 3.0925,13.13625 2,14 H 3.8625 C 4.5175,13.5 5.19,12.95375 5.89375,12.4725 6.78125,11.865 7.69,11.295 8.61875,10.76 a 49.00125,49.00125 0 0 1 3.125,-1.60625 h 0.0012 l 0.255,-0.12 0.25375,0.12 c 0.8875,0.4175 2.18375,1.065 3.12625,1.60625 0.93,0.535 1.8375,1.105 2.72625,1.7125 0.7025,0.48125 1.375,1.0275 2.03125,1.5275 z" fill="#808080" id="path2" style="stroke-width:1" />
</svg>
