<svg width="24" height="24" xmlns="http://www.w3.org/2000/svg"><path d="M4.12 5.032c-.842.843-.794.863.528 1.658l6.994 3.546L6.87 15.01l-3.18-.597c-.372-.074-.363-.102-.598.133l-.232.232c-.454.454.167.763.167.763l3.015 2.419 2.42 3.017s.315.612.73.198l.264-.265c.224-.224.207-.226.133-.597L8.99 17.13l4.773-4.773 3.514 6.96c.831 1.386.846 1.407 1.69.563.459-.458.447-.472.232-1.292l-1.922-9.745 3.281-3.282a1.497 1.497 0 0 0 0-2.121 1.497 1.497 0 0 0-2.121 0l-3.282 3.281L5.411 4.8c-.767-.202-.828-.228-1.226.166z" fill="#474747" style="fill:gray;fill-opacity:1;stroke-width:1"/></svg>