<?xml version="1.0" encoding="UTF-8" standalone="no"?>
<svg
   width="24"
   height="24"
   version="1.1"
   id="svg1"
   sodipodi:docname="aircraft2.svg"
   inkscape:version="1.3 (1:1.3+202307231459+0e150ed6c4)"
   xmlns:inkscape="http://www.inkscape.org/namespaces/inkscape"
   xmlns:sodipodi="http://sodipodi.sourceforge.net/DTD/sodipodi-0.dtd"
   xmlns="http://www.w3.org/2000/svg"
   xmlns:svg="http://www.w3.org/2000/svg">
  <defs
     id="defs1" />
  <sodipodi:namedview
     id="namedview1"
     pagecolor="#ffffff"
     bordercolor="#666666"
     borderopacity="1.0"
     inkscape:showpageshadow="2"
     inkscape:pageopacity="0.0"
     inkscape:pagecheckerboard="0"
     inkscape:deskcolor="#d1d1d1"
     showgrid="true"
     inkscape:zoom="23.805928"
     inkscape:cx="7.1830847"
     inkscape:cy="7.3931164"
     inkscape:window-width="1920"
     inkscape:window-height="1011"
     inkscape:window-x="0"
     inkscape:window-y="0"
     inkscape:window-maximized="1"
     inkscape:current-layer="svg1">
    <inkscape:grid
       id="grid1"
       units="px"
       originx="0"
       originy="0"
       spacingx="1"
       spacingy="1"
       empcolor="#0099e5"
       empopacity="0.30196078"
       color="#0099e5"
       opacity="0.14901961"
       empspacing="5"
       dotted="false"
       gridanglex="30"
       gridanglez="30"
       visible="true" />
  </sodipodi:namedview>
  <path
     style="color:#000000;fill:#808080;-inkscape-stroke:none"
     d="m 19.498047,2.5019531 c -0.513293,0 -1.027895,0.1963742 -1.416016,0.5859375 l -3.091797,3.0917969 l -9.4824215,-1.8710938 l 0.03125,0.00781 c -0.3815474,-0.1004857 -0.6108405,-0.189406 -0.9335938,-0.1542968 c -0.3227532,0.035109 -0.5595003,0.2393652 -0.7714843,0.4492187 l -0.00391,0.00195 l -0.066406,0.068359 c -0.2112029,0.2114249 -0.3776369,0.3753936 -0.5117188,0.5664063 c -0.1348213,0.1920661 -0.2512471,0.5048441 -0.1523437,0.7929687 c 0.098903,0.2881247 0.2912456,0.4320869 0.4980469,0.5800781 c 0.2068012,0.1479913 0.4628207,0.2995086 0.7929687,0.4980469 l 0.015625,0.00781 l 6.396484,3.2441409 l -4.099609,4.099609 l -2.9160156,-0.548828 h -0.00391 c -0.1712332,-0.03463 -0.2794164,-0.09567 -0.53125,-0.05078 c -0.2536686,0.04522 -0.3914078,0.200001 -0.5136718,0.322265 l -0.2324219,0.230469 c -0.1738531,0.173853 -0.2962668,0.399143 -0.3105469,0.634766 c -0.01428,0.235622 0.079441,0.435343 0.1757813,0.566406 c 0.1926815,0.262125 0.4335937,0.363281 0.4335937,0.363281 l -0.089844,-0.05664 l 2.9707031,2.384765 l 2.3867187,2.972656 l -0.054687,-0.08398 c 0,0 0.1011702,0.230819 0.3476563,0.421875 c 0.123243,0.09553 0.309315,0.193649 0.5429687,0.191406 c 0.2336537,-0.0022 0.4669727,-0.119725 0.6367188,-0.289062 l 0.2636719,-0.265625 c 0.116998,-0.116998 0.2686142,-0.255166 0.3164062,-0.501953 c 0.04728,-0.244161 -0.0092,-0.365634 -0.04492,-0.541016 v -0.0059 l -0.5507811,-2.917969 l 4.0996091,-4.097656 l 3.208985,6.359375 l 0.0098,0.01563 c 0.207805,0.346591 0.367011,0.611093 0.519531,0.824218 c 0.152521,0.213126 0.29639,0.409921 0.587891,0.509766 c 0.291501,0.09985 0.607417,-0.02147 0.798828,-0.158203 c 0.191411,-0.136732 0.35415,-0.303369 0.566406,-0.515625 c 0.232846,-0.232338 0.450012,-0.43812 0.507813,-0.78125 c 0.05747,-0.341145 -0.03817,-0.582151 -0.144531,-0.986328 l -1.865235,-9.4589845 l 3.091797,-3.0917969 l 0.002,-0.00195 c 0.776534,-0.7757806 0.776532,-2.0503901 0,-2.8261719 c -0.388121,-0.3895633 -0.900769,-0.5859375 -1.414062,-0.5859375 z m 0,0.9941407 c 0.254676,0 0.508139,0.099204 0.705078,0.296875 h 0.002 v 0.00195 c 0.395341,0.3938777 0.395341,1.0182316 0,1.4121093 l -3.470703,3.4707032 l 1.976562,10.0214846 l 0.0039,0.01563 c 0.107901,0.411532 0.124151,0.588895 0.126953,0.572265 c 0.0028,-0.01663 -0.0024,0.01262 -0.228516,0.238282 v 0.002 c -0.184611,0.184611 -0.304165,0.293107 -0.386719,0.359375 c -0.022,-0.02126 0.0057,0.0051 -0.04687,-0.06836 c -0.108111,-0.15107 -0.263526,-0.406538 -0.464843,-0.742187 l -3.816406,-7.560547 l -5.4492192,5.447266 l 0.6484375,3.445312 l 0.00195,0.002 c 0.038403,0.192534 0.024177,0.259147 0.042969,0.16211 c 0.018792,-0.09704 0.065986,-0.122627 -0.041016,-0.01563 l -0.1933594,0.193359 c -6.44e-5,-8.7e-5 -0.00195,-0.002 -0.00195,-0.002 l -0.023437,-0.04492 l -2.484375,-3.099609 l -3.0996094,-2.486328 l -0.048828,-0.02344 l 0.1953125,-0.193359 c 0.1127357,-0.112736 0.088841,-0.06389 -0.017578,-0.04492 c -0.1064188,0.01897 -0.034529,0.0093 0.1640625,0.04883 h 0.00391 l 3.4414063,0.646484 l 5.4453126,-5.449218 l -7.5898439,-3.8496099 c -0.3211487,-0.1931693 -0.5680814,-0.341684 -0.7128906,-0.4453125 c -0.064217,-0.045955 -0.037267,-0.017254 -0.058594,-0.039063 c 0.064926,-0.081818 0.1714663,-0.2005469 0.3535157,-0.3828125 l 0.00195,-0.00195 l 0.060547,-0.060547 c 0.1860156,-0.1841461 0.1767848,-0.1661248 0.1757812,-0.1660156 c -0.001,1.092e-4 0.1848607,0.025439 0.5703125,0.1269531 l 0.015625,0.00391 l 10.0214849,1.9765625 l 3.470703,-3.4707031 c 0.196939,-0.1976707 0.452355,-0.2968751 0.707031,-0.296875 z"
     id="path1" />
</svg>
