<svg height="24" width="24" xmlns="http://www.w3.org/2000/svg"><path style="fill:gray;stroke-width:2;stroke-linecap:square;stroke-linejoin:round" d="M3.5 2A1.5 1.5 0 0 0 2 3.5a1.5 1.5 0 0 0 1 1.41v14.18a1.5 1.5 0 0 0-1 1.41A1.5 1.5 0 0 0 3.5 22a1.5 1.5 0 0 0 1.41-1h14.18a1.5 1.5 0 0 0 1.41 1 1.5 1.5 0 0 0 1.5-1.5 1.5 1.5 0 0 0-1-1.414V4.91a1.5 1.5 0 0 0 1-1.41A1.5 1.5 0 0 0 20.5 2a1.5 1.5 0 0 0-1.41 1H4.914A1.5 1.5 0 0 0 3.5 2zm1.41 2h14.18a1.5 1.5 0 0 0 .056.146l-2 2A1.5 1.5 0 0 0 16.5 6a1.5 1.5 0 0 0-1.41 1H8.914A1.5 1.5 0 0 0 7.5 6a1.5 1.5 0 0 0-.646.146l-2-2A1.5 1.5 0 0 0 4.91 4zm-.764.854 2 2A1.5 1.5 0 0 0 6 7.5a1.5 1.5 0 0 0 1 1.41v6.18a1.5 1.5 0 0 0-1 1.41 1.5 1.5 0 0 0 .146.646l-2 2a1.5 1.5 0 0 0-.146-.06V4.91a1.5 1.5 0 0 0 .146-.056zm15.708 0A1.5 1.5 0 0 0 20 4.91v14.18a1.5 1.5 0 0 0-.146.056l-2-2A1.5 1.5 0 0 0 18 16.5a1.5 1.5 0 0 0-1-1.414V8.91a1.5 1.5 0 0 0 1-1.41 1.5 1.5 0 0 0-.146-.646l2-2zM8.91 8h6.18a1.5 1.5 0 0 0 .91.91v6.18a1.5 1.5 0 0 0-.91.91H8.914A1.5 1.5 0 0 0 8 15.086V8.91A1.5 1.5 0 0 0 8.91 8zm0 9h6.18a1.5 1.5 0 0 0 1.41 1 1.5 1.5 0 0 0 .646-.146l2 2a1.5 1.5 0 0 0-.056.146H4.914a1.5 1.5 0 0 0-.06-.146l2-2A1.5 1.5 0 0 0 7.5 18a1.5 1.5 0 0 0 1.41-1z"/></svg>