<svg height="24" width="24" xmlns="http://www.w3.org/2000/svg"><path style="fill:gray;stroke-width:2;stroke-linecap:square;stroke-linejoin:round" d="M5.95 3a2.5 2.5 0 0 1 .05.5 2.5 2.5 0 0 1-.416 1.377l1.27 1.27A1.5 1.5 0 0 1 7.5 6a1.5 1.5 0 0 1 1.412 1h6.184A1.5 1.5 0 0 1 16.5 6a1.5 1.5 0 0 1 .646.146l1.28-1.279A2.5 2.5 0 0 1 18 3.5a2.5 2.5 0 0 1 .08-.5H5.95zm13.183 2.574-1.28 1.28A1.5 1.5 0 0 1 18 7.5a1.5 1.5 0 0 1-1 1.404v6.184a1.5 1.5 0 0 1 1 1.412 1.5 1.5 0 0 1-.146.646l1.279 1.28A2.5 2.5 0 0 1 20.5 18a2.5 2.5 0 0 1 .5.05V5.92a2.5 2.5 0 0 1-.5.08 2.5 2.5 0 0 1-1.367-.426zm-14.256.01A2.5 2.5 0 0 1 3.5 6a2.5 2.5 0 0 1-.5-.057V18.08a2.5 2.5 0 0 1 .5-.08 2.5 2.5 0 0 1 1.377.416l1.27-1.27A1.5 1.5 0 0 1 6 16.5a1.5 1.5 0 0 1 1-1.404V8.904A1.5 1.5 0 0 1 6 7.5a1.5 1.5 0 0 1 .146-.646l-1.269-1.27zM8.904 8A1.5 1.5 0 0 1 8 8.904v6.184a1.5 1.5 0 0 1 .912.912h6.184a1.5 1.5 0 0 1 .904-.904V8.904A1.5 1.5 0 0 1 15.096 8H8.904zm0 9A1.5 1.5 0 0 1 7.5 18a1.5 1.5 0 0 1-.646-.146l-1.27 1.269A2.5 2.5 0 0 1 6 20.5a2.5 2.5 0 0 1-.08.5h12.16a2.5 2.5 0 0 1-.08-.5 2.5 2.5 0 0 1 .426-1.367l-1.28-1.28A1.5 1.5 0 0 1 16.5 18a1.5 1.5 0 0 1-1.404-1H8.904z"/><circle style="fill:gray;stroke-width:2;stroke-linecap:round;stroke-linejoin:round" cx="20.5" cy="3.5" r="1.5"/><circle style="fill:gray;stroke-width:2;stroke-linecap:round;stroke-linejoin:round" cx="20.5" cy="20.5" r="1.5"/><circle style="fill:gray;stroke-width:2;stroke-linecap:round;stroke-linejoin:round" cx="3.5" cy="20.5" r="1.5"/><circle style="fill:gray;stroke-width:2;stroke-linecap:round;stroke-linejoin:round" cx="3.5" cy="3.5" r="1.5"/><path style="fill:gray;stroke-width:2;stroke-linecap:square;stroke-linejoin:round" d="M5.95 3a2.5 2.5 0 0 1 .05.5 2.5 2.5 0 0 1-.416 1.377l1.27 1.27A1.5 1.5 0 0 1 7.5 6a1.5 1.5 0 0 1 1.412 1h6.184A1.5 1.5 0 0 1 16.5 6a1.5 1.5 0 0 1 .646.146l1.28-1.279A2.5 2.5 0 0 1 18 3.5a2.5 2.5 0 0 1 .08-.5H5.95zm13.183 2.574-1.28 1.28A1.5 1.5 0 0 1 18 7.5a1.5 1.5 0 0 1-1 1.404v6.184a1.5 1.5 0 0 1 1 1.412 1.5 1.5 0 0 1-.146.646l1.279 1.28A2.5 2.5 0 0 1 20.5 18a2.5 2.5 0 0 1 .5.05V5.92a2.5 2.5 0 0 1-.5.08 2.5 2.5 0 0 1-1.367-.426zm-14.256.01A2.5 2.5 0 0 1 3.5 6a2.5 2.5 0 0 1-.5-.057V18.08a2.5 2.5 0 0 1 .5-.08 2.5 2.5 0 0 1 1.377.416l1.27-1.27A1.5 1.5 0 0 1 6 16.5a1.5 1.5 0 0 1 1-1.404V8.904A1.5 1.5 0 0 1 6 7.5a1.5 1.5 0 0 1 .146-.646l-1.269-1.27zM8.904 8A1.5 1.5 0 0 1 8 8.904v6.184a1.5 1.5 0 0 1 .912.912h6.184a1.5 1.5 0 0 1 .904-.904V8.904A1.5 1.5 0 0 1 15.096 8H8.904zm0 9A1.5 1.5 0 0 1 7.5 18a1.5 1.5 0 0 1-.646-.146l-1.27 1.269A2.5 2.5 0 0 1 6 20.5a2.5 2.5 0 0 1-.08.5h12.16a2.5 2.5 0 0 1-.08-.5 2.5 2.5 0 0 1 .426-1.367l-1.28-1.28A1.5 1.5 0 0 1 16.5 18a1.5 1.5 0 0 1-1.404-1H8.904z"/><circle style="fill:gray;stroke-width:2;stroke-linecap:round;stroke-linejoin:round" cx="20.5" cy="3.5" r="1.5"/><circle style="fill:gray;stroke-width:2;stroke-linecap:round;stroke-linejoin:round" cx="20.5" cy="20.5" r="1.5"/><circle style="fill:gray;stroke-width:2;stroke-linecap:round;stroke-linejoin:round" cx="3.5" cy="20.5" r="1.5"/><circle style="fill:gray;stroke-width:2;stroke-linecap:round;stroke-linejoin:round" cx="3.5" cy="3.5" r="1.5"/></svg>