<?xml version="1.0" encoding="UTF-8" standalone="no"?>
<svg
   width="24"
   height="24"
   version="1.1"
   id="svg1"
   sodipodi:docname="apple.svg"
   inkscape:version="1.3 (1:1.3+202307231459+0e150ed6c4)"
   xml:space="preserve"
   xmlns:inkscape="http://www.inkscape.org/namespaces/inkscape"
   xmlns:sodipodi="http://sodipodi.sourceforge.net/DTD/sodipodi-0.dtd"
   xmlns="http://www.w3.org/2000/svg"
   xmlns:svg="http://www.w3.org/2000/svg"><defs
     id="defs1" /><sodipodi:namedview
     id="namedview1"
     pagecolor="#ffffff"
     bordercolor="#666666"
     borderopacity="1.0"
     inkscape:showpageshadow="2"
     inkscape:pageopacity="0.0"
     inkscape:pagecheckerboard="0"
     inkscape:deskcolor="#d1d1d1"
     showgrid="false"
     inkscape:zoom="23.805928"
     inkscape:cx="7.5191356"
     inkscape:cy="14.618208"
     inkscape:window-width="1920"
     inkscape:window-height="1011"
     inkscape:window-x="0"
     inkscape:window-y="0"
     inkscape:window-maximized="1"
     inkscape:current-layer="svg1"><inkscape:grid
       id="grid1"
       units="px"
       originx="0"
       originy="0"
       spacingx="1"
       spacingy="1"
       empcolor="#0099e5"
       empopacity="0.30196078"
       color="#0099e5"
       opacity="0.14901961"
       empspacing="5"
       dotted="false"
       gridanglex="30"
       gridanglez="30"
       visible="false" /><inkscape:grid
       visible="false"
       id="grid2"
       units="px"
       originx="0"
       originy="0"
       spacingx="0.5"
       spacingy="0.5"
       empcolor="#0099e5"
       empopacity="0.30196078"
       color="#0099e5"
       opacity="0.14901961"
       empspacing="10"
       dotted="true"
       gridanglex="30"
       gridanglez="30" /></sodipodi:namedview><path
     id="path1"
     style="color:#000000;fill:#808080;-inkscape-stroke:none"
     d="M 16.5 2 C 14.574826 2 12.424467 3.5414187 11.730469 6.1796875 C 11.455629 5.0903645 10.865721 4.0154297 9.6464844 3.328125 C 8.8142895 2.9249043 7.8198821 2.7575557 6.9199219 2.5332031 C 7.3614416 3.8102114 7.9238264 5.037749 8.8085938 6.0117188 C 8.7065296 6.0067784 8.6066573 6 8.5 6 C 7.2824108 6 6.3108019 6.3482331 5.59375 6.921875 C 4.8766981 7.4955169 4.4227899 8.2746001 4.1503906 9.0917969 C 3.6055924 10.72619 3.7418477 12.525984 4.015625 13.621094 C 4.2561131 14.583046 4.6350206 16.613996 5.2792969 18.417969 C 5.601435 19.319955 5.9863171 20.17112 6.4921875 20.833984 C 6.9980579 21.49685 7.675002 22 8.5 22 C 9.5416638 22 10.464499 21.878262 11.185547 21.589844 C 11.505554 21.461841 11.771212 21.27964 12 21.060547 C 12.228788 21.27964 12.494446 21.461841 12.814453 21.589844 C 13.535501 21.878262 14.458336 22 15.5 22 C 16.324998 22 17.001943 21.49685 17.507812 20.833984 C 18.013683 20.17112 18.398565 19.319955 18.720703 18.417969 C 19.364979 16.613996 19.743886 14.583046 19.984375 13.621094 C 20.258153 12.525984 20.394408 10.72619 19.849609 9.0917969 C 19.577211 8.2746 19.123302 7.4955169 18.40625 6.921875 C 17.689198 6.3482331 16.717589 6 15.5 6 C 14.204613 6 13.25219 6.3793508 12.617188 6.7832031 C 13.108741 4.3087413 15.054671 3 16.5 3 L 16.5 2 z M 8.5 7 C 9.6499961 7 10.418773 7.3384265 10.910156 7.6660156 C 11.401541 7.9936048 11.583984 8.2773437 11.583984 8.2773438 L 12 8.9023438 L 12.416016 8.2773438 C 12.416016 8.2773438 12.598459 7.9936048 13.089844 7.6660156 C 13.581227 7.3384265 14.350004 7 15.5 7 C 16.532404 7 17.248305 7.2767686 17.78125 7.703125 C 18.314195 8.1294814 18.67279 8.7254027 18.900391 9.4082031 C 19.355591 10.773804 19.241847 12.474022 19.015625 13.378906 C 18.756114 14.416948 18.385018 16.386011 17.779297 18.082031 C 17.476436 18.930041 17.111316 19.703882 16.710938 20.228516 C 16.31056 20.753148 15.924999 21 15.5 21 C 14.54167 21 13.714496 20.871736 13.185547 20.660156 C 12.921072 20.554366 12.736943 20.429826 12.634766 20.318359 C 12.532588 20.206893 12.5 20.124999 12.5 20 L 11.5 20 C 11.5 20.124999 11.46741 20.206893 11.365234 20.318359 C 11.263057 20.429826 11.078928 20.554366 10.814453 20.660156 C 10.285504 20.871736 9.4583303 21 8.5 21 C 8.0750017 21 7.6894402 20.753148 7.2890625 20.228516 C 6.8886848 19.703882 6.5235641 18.930041 6.2207031 18.082031 C 5.6149811 16.386011 5.2438854 14.416948 4.984375 13.378906 C 4.7581538 12.474022 4.6444086 10.773804 5.0996094 9.4082031 C 5.3272096 8.7254027 5.6858049 8.1294814 6.21875 7.703125 C 6.7516951 7.2767686 7.4675959 7 8.5 7 z " /></svg>
