<?xml version="1.0" encoding="UTF-8" standalone="no"?>
<svg
   width="24"
   height="24"
   version="1.1"
   id="svg1"
   sodipodi:docname="apple-filled.svg"
   inkscape:version="1.3 (1:1.3+202307231459+0e150ed6c4)"
   xml:space="preserve"
   xmlns:inkscape="http://www.inkscape.org/namespaces/inkscape"
   xmlns:sodipodi="http://sodipodi.sourceforge.net/DTD/sodipodi-0.dtd"
   xmlns="http://www.w3.org/2000/svg"
   xmlns:svg="http://www.w3.org/2000/svg"><defs
     id="defs1" /><sodipodi:namedview
     id="namedview1"
     pagecolor="#ffffff"
     bordercolor="#666666"
     borderopacity="1.0"
     inkscape:showpageshadow="2"
     inkscape:pageopacity="0.0"
     inkscape:pagecheckerboard="0"
     inkscape:deskcolor="#d1d1d1"
     showgrid="true"
     inkscape:zoom="23.805928"
     inkscape:cx="2.0163045"
     inkscape:cy="15.710373"
     inkscape:window-width="1920"
     inkscape:window-height="1011"
     inkscape:window-x="0"
     inkscape:window-y="0"
     inkscape:window-maximized="1"
     inkscape:current-layer="svg1"><inkscape:grid
       id="grid1"
       units="px"
       originx="0"
       originy="0"
       spacingx="1"
       spacingy="1"
       empcolor="#0099e5"
       empopacity="0.30196078"
       color="#0099e5"
       opacity="0.14901961"
       empspacing="5"
       dotted="false"
       gridanglex="30"
       gridanglez="30"
       visible="true" /><inkscape:grid
       visible="true"
       id="grid2"
       units="px"
       originx="0"
       originy="0"
       spacingx="0.5"
       spacingy="0.5"
       empcolor="#0099e5"
       empopacity="0.30196078"
       color="#0099e5"
       opacity="0.14901961"
       empspacing="10"
       dotted="true"
       gridanglex="30"
       gridanglez="30" /></sodipodi:namedview><path
     id="path2"
     style="color:#000000;fill:#808080;-inkscape-stroke:none"
     d="M 16.5 2 C 14.574826 2 12.424467 3.5414187 11.730469 6.1796875 C 11.455629 5.0903645 10.865721 4.0154297 9.6464844 3.328125 C 8.8142895 2.9249043 7.8198821 2.7575557 6.9199219 2.5332031 C 7.667444 4.6952625 8.7599807 6.7165684 11.179688 7.6035156 L 11.5 7.7578125 L 11.5 8 L 11.5 8.8691406 L 10.78125 8.5195312 C 9.3727761 7.9903071 8.3507554 7.1083715 7.5839844 6.0722656 C 6.7858019 6.2016749 6.120545 6.5004387 5.59375 6.921875 C 4.8767002 7.4955151 4.4227893 8.2746025 4.1503906 9.0917969 C 3.6055942 10.726184 3.7418486 12.525987 4.015625 13.621094 C 4.2561125 14.583043 4.6350224 16.614002 5.2792969 18.417969 C 5.6014341 19.319952 5.9863186 20.171123 6.4921875 20.833984 C 6.9980564 21.49685 7.6750044 22 8.5 22 C 9.5416608 22 10.464502 21.878259 11.185547 21.589844 C 11.505554 21.461841 11.771212 21.27964 12 21.060547 C 12.228788 21.27964 12.494446 21.461841 12.814453 21.589844 C 13.535498 21.878259 14.458339 22 15.5 22 C 16.324995 22 17.001946 21.49685 17.507812 20.833984 C 18.013683 20.171123 18.398565 19.319952 18.720703 18.417969 C 19.364976 16.614002 19.743886 14.583043 19.984375 13.621094 C 20.258153 12.525987 20.394408 10.726184 19.849609 9.0917969 C 19.577214 8.2746024 19.123299 7.4955151 18.40625 6.921875 C 17.689201 6.3482349 16.717586 6 15.5 6 C 14.854932 6 14.295389 6.0940584 13.816406 6.2382812 C 13.62013 6.735625 13.5 7.3213259 13.5 8 L 13.5 9 L 12.5 9 L 12.5 8 C 12.5 4.7381018 14.833337 3 16.5 3 L 16.5 2 z " /></svg>
