<svg height="24" width="24" xmlns="http://www.w3.org/2000/svg"><path style="color:#000;fill:gray;-inkscape-stroke:none" d="M6.5 3c-1.774 0-2.92.088-3.666.834S2 5.726 2 7.5v7c0 .89.037 1.597.16 2.19.123.592.348 1.087.727 1.449.758.723 1.888.812 3.6.861H17.5c1.774 0 2.92-.088 3.666-.834S22 16.274 22 14.5v-7c0-1.774-.088-2.92-.834-3.666S19.274 3 17.5 3h-11zm12 2.75c.411 0 .75.339.75.75s-.339.75-.75.75a.756.756 0 0 1-.707-.5H14.75V17.5h-.5V6.25h3.543c.104-.29.383-.5.707-.5zm-6.842.84h.149c.087 0 .158.104.158.232v6.963a.34.34 0 0 1-.004.047 1.163 1.163 0 0 1-1.158 1.115 1.161 1.161 0 1 1 .697-2.09V8.498l-4.178.836v4.916a.337.337 0 0 1-.004.047 1.16 1.16 0 1 1-.46-.975V7.75c0-.129.07-.232.158-.232l4.642-.928zM18.5 8.75c.411 0 .75.339.75.75s-.339.75-.75.75a.756.756 0 0 1-.707-.5H16.75v7.75h-.5V9.25h1.543c.104-.29.383-.5.707-.5zm0 3c.411 0 .75.339.75.75 0 .324-.21.603-.5.707V17.5h-.5v-4.293a.756.756 0 0 1-.5-.707c0-.411.339-.75.75-.75z"/><path style="fill:gray;stroke-width:2;stroke-linejoin:round" d="M13.455 18.5a.454.454 0 0 0-.455.455v1.59c0 .252.203.455.455.455h6.09a.454.454 0 0 0 .455-.455v-1.59a.454.454 0 0 0-.455-.455zM14 19h1v1h-1zm2 0h1v1h-1zm2 0h1v1h-1z"/></svg>