<svg height="24" width="24" xmlns="http://www.w3.org/2000/svg"><path style="fill:gray;fill-opacity:1;stroke-width:.999999;stroke-linecap:square;stroke-linejoin:round" d="M6.5 3c-.665 0-1.242.012-1.742.066a4.877 4.877 0 0 0-.904.176c-.405.125-.74.312-1.02.592-.28.28-.467.615-.592 1.02-.083.27-.139.57-.176.904C2.012 6.258 2 6.835 2 7.5v7c0 .667.022 1.232.084 1.723a5.6 5.6 0 0 0 .076.466c.031.149.067.29.111.426.133.406.331.752.616 1.024.284.271.621.454 1.021.578.134.041.274.076.422.105.591.12 1.3.154 2.156.178H13v1.545c0 .252.203.455.455.455h6.09a.454.454 0 0 0 .455-.455v-1.59a.453.453 0 0 0-.027-.154c.48-.123.875-.317 1.193-.635.746-.746.834-1.892.834-3.666v-7c0-1.774-.088-2.92-.834-3.666S19.274 3 17.5 3h-11zm0 1h11c1.726 0 2.58.162 2.959.541.38.38.541 1.233.541 2.959v7c0 1.726-.162 2.58-.541 2.959-.38.38-1.233.541-2.959.541H6.514c-1.673-.047-2.542-.209-2.938-.586-.198-.189-.34-.457-.437-.928C3.04 16.016 3 15.36 3 14.5v-7c0-.216.003-.418.008-.607.036-1.325.201-2.02.533-2.352.095-.095.219-.176.379-.244.08-.034.17-.066.27-.094C4.683 4.063 5.42 4 6.5 4zm12 1.75a.756.756 0 0 0-.707.5H14.25V16.5h.5V6.75h3.043c.104.29.383.5.707.5.411 0 .75-.339.75-.75a.754.754 0 0 0-.75-.75zm-6.842.84-4.642.928c-.088 0-.159.103-.159.232v5.572a1.16 1.16 0 1 0 .46.975.337.337 0 0 0 .005-.047V9.334l4.178-.836v4.36a1.16 1.16 0 0 0-1.857.928c0 .64.519 1.161 1.16 1.161a1.163 1.163 0 0 0 1.158-1.115.34.34 0 0 0 .004-.047V6.822c0-.128-.071-.232-.158-.232h-.149zM18.5 8.75a.756.756 0 0 0-.707.5H16.25v7.25h.5V9.75h1.043c.104.29.383.5.707.5.411 0 .75-.339.75-.75a.754.754 0 0 0-.75-.75zm0 3a.754.754 0 0 0-.75.75c0 .324.21.603.5.707V16.5h.5v-3.293c.29-.104.5-.383.5-.707a.754.754 0 0 0-.75-.75zM14 19h1v1h-1v-1zm2 0h1v1h-1v-1zm2 0h1v1h-1v-1z"/></svg>