<?xml version="1.0" encoding="UTF-8" standalone="no"?>
<svg
   width="24"
   height="24"
   version="1.1"
   id="svg1"
   sodipodi:docname="basketball-filled.svg"
   inkscape:version="1.3 (1:1.3+202307231459+0e150ed6c4)"
   xmlns:inkscape="http://www.inkscape.org/namespaces/inkscape"
   xmlns:sodipodi="http://sodipodi.sourceforge.net/DTD/sodipodi-0.dtd"
   xmlns="http://www.w3.org/2000/svg"
   xmlns:svg="http://www.w3.org/2000/svg">
  <defs
     id="defs1" />
  <sodipodi:namedview
     id="namedview1"
     pagecolor="#ffffff"
     bordercolor="#666666"
     borderopacity="1.0"
     inkscape:showpageshadow="2"
     inkscape:pageopacity="0.0"
     inkscape:pagecheckerboard="0"
     inkscape:deskcolor="#d1d1d1"
     showgrid="true"
     inkscape:zoom="16.833333"
     inkscape:cx="6.5940595"
     inkscape:cy="9.6237626"
     inkscape:window-width="1920"
     inkscape:window-height="1011"
     inkscape:window-x="0"
     inkscape:window-y="0"
     inkscape:window-maximized="1"
     inkscape:current-layer="svg1">
    <inkscape:grid
       id="grid1"
       units="px"
       originx="0"
       originy="0"
       spacingx="1"
       spacingy="1"
       empcolor="#0099e5"
       empopacity="0.30196078"
       color="#0099e5"
       opacity="0.14901961"
       empspacing="5"
       dotted="false"
       gridanglex="30"
       gridanglez="30"
       visible="true" />
    <inkscape:grid
       visible="true"
       id="grid2"
       units="px"
       originx="0"
       originy="0"
       spacingx="0.5"
       spacingy="0.5"
       empcolor="#0099e5"
       empopacity="0.30196078"
       color="#0099e5"
       opacity="0.14901961"
       empspacing="10"
       dotted="true"
       gridanglex="30"
       gridanglez="30" />
  </sodipodi:namedview>
  <path
     id="path1"
     style="color:#000000;fill:#808080;stroke-linecap:square;-inkscape-stroke:none"
     d="M 11 2.0117188 C 8.6836375 2.1322564 6.5853053 3.0863578 4.9980469 4.578125 C 6.7304753 6.2053303 7.8567301 8.4719893 7.9882812 11 L 11 11 L 11 2.0117188 z M 12 2.0117188 L 12 11 L 15.011719 11 C 15.14327 8.4719868 16.269523 6.2053319 18.001953 4.578125 C 16.414692 3.0863557 14.316363 2.1322565 12 2.0117188 z M 4.3105469 5.296875 C 2.9733132 6.8446618 2.1248635 8.8257067 2.0117188 11 L 6.984375 11 C 6.854192 8.7509771 5.8514355 6.740578 4.3105469 5.296875 z M 18.689453 5.296875 C 17.148563 6.7405794 16.145808 8.7509749 16.015625 11 L 20.988281 11 C 20.875137 8.8257067 20.026689 6.8446638 18.689453 5.296875 z M 2.015625 12.050781 C 2.1392794 14.205333 2.9856888 16.167314 4.3125 17.703125 C 5.841134 16.270428 6.8382238 14.278689 6.9804688 12.050781 L 2.015625 12.050781 z M 7.984375 12.050781 C 7.8404916 14.557808 6.7182543 16.803739 4.9980469 18.419922 C 6.5851212 19.912122 8.6833016 20.867726 11 20.988281 L 11 12.050781 L 7.984375 12.050781 z M 12 12.050781 L 12 20.988281 C 14.316698 20.867726 16.414877 19.912124 18.001953 18.419922 C 16.281744 16.803738 15.159508 14.55781 15.015625 12.050781 L 12 12.050781 z M 16.019531 12.050781 C 16.161776 14.278691 17.158865 16.270427 18.6875 17.703125 C 20.014313 16.167311 20.860721 14.205333 20.984375 12.050781 L 16.019531 12.050781 z " />
</svg>
