<?xml version="1.0" encoding="UTF-8" standalone="no"?>
<svg
   width="24"
   height="24"
   version="1.1"
   id="svg1"
   sodipodi:docname="basketball-filled2.svg"
   inkscape:version="1.3 (1:1.3+202307231459+0e150ed6c4)"
   xmlns:inkscape="http://www.inkscape.org/namespaces/inkscape"
   xmlns:sodipodi="http://sodipodi.sourceforge.net/DTD/sodipodi-0.dtd"
   xmlns="http://www.w3.org/2000/svg"
   xmlns:svg="http://www.w3.org/2000/svg">
  <defs
     id="defs1" />
  <sodipodi:namedview
     id="namedview1"
     pagecolor="#ffffff"
     bordercolor="#666666"
     borderopacity="1.0"
     inkscape:showpageshadow="2"
     inkscape:pageopacity="0.0"
     inkscape:pagecheckerboard="0"
     inkscape:deskcolor="#d1d1d1"
     showgrid="true"
     inkscape:zoom="16.833333"
     inkscape:cx="8.7920793"
     inkscape:cy="11.762376"
     inkscape:window-width="1920"
     inkscape:window-height="1011"
     inkscape:window-x="0"
     inkscape:window-y="0"
     inkscape:window-maximized="1"
     inkscape:current-layer="svg1">
    <inkscape:grid
       id="grid1"
       units="px"
       originx="0"
       originy="0"
       spacingx="1"
       spacingy="1"
       empcolor="#0099e5"
       empopacity="0.30196078"
       color="#0099e5"
       opacity="0.14901961"
       empspacing="5"
       dotted="false"
       gridanglex="30"
       gridanglez="30"
       visible="true" />
    <inkscape:grid
       visible="true"
       id="grid2"
       units="px"
       originx="0"
       originy="0"
       spacingx="0.5"
       spacingy="0.5"
       empcolor="#0099e5"
       empopacity="0.30196078"
       color="#0099e5"
       opacity="0.14901961"
       empspacing="10"
       dotted="true"
       gridanglex="30"
       gridanglez="30" />
  </sodipodi:namedview>
  <path
     id="path7"
     style="color:#000000;fill:#808080;stroke-linecap:square;-inkscape-stroke:none"
     d="M 11.5 2 C 6.2592276 2 2 6.2592276 2 11.5 C 2 16.740773 6.2592276 21 11.5 21 C 16.740773 21 21 16.740773 21 11.5 C 21 6.2592276 16.740773 2 11.5 2 z M 11 3.015625 L 11 11 L 7.9863281 11 C 7.8727272 8.8259962 7.0244708 6.8442566 5.6875 5.296875 C 7.0933603 3.9792465 8.9477386 3.1344186 11 3.015625 z M 12 3.015625 C 14.052261 3.1344186 15.90664 3.9792465 17.3125 5.296875 C 15.975529 6.8442566 15.127273 8.8259962 15.013672 11 L 12 11 L 12 3.015625 z M 5.5078125 5.4707031 C 5.4700814 5.5080941 5.4335132 5.5459205 5.3964844 5.5839844 C 5.4333597 5.5459444 5.470236 5.508049 5.5078125 5.4707031 z M 17.492188 5.4707031 C 17.529764 5.508049 17.56664 5.5459444 17.603516 5.5839844 C 17.566487 5.5459205 17.529919 5.5080941 17.492188 5.4707031 z M 5.2832031 5.7050781 C 5.2455593 5.7453129 5.2067779 5.7851813 5.1699219 5.8261719 C 5.2068763 5.7849574 5.24546 5.7455588 5.2832031 5.7050781 z M 17.716797 5.7050781 C 17.75454 5.7455588 17.793124 5.7849574 17.830078 5.8261719 C 17.793222 5.7851813 17.754441 5.7453129 17.716797 5.7050781 z M 5 6.0195312 C 6.1473677 7.3797761 6.8747958 9.1056929 6.984375 11 L 3.015625 11 C 3.125251 9.1061161 3.8528641 7.3795014 5 6.0195312 z M 18 6.0195312 C 19.147136 7.3795014 19.874749 9.1061161 19.984375 11 L 16.015625 11 C 16.125204 9.1056929 16.852632 7.3797761 18 6.0195312 z M 3.015625 12 L 6.984375 12 C 6.8747958 13.894307 6.1473677 15.620224 5 16.980469 C 3.8528641 15.620499 3.125251 13.893884 3.015625 12 z M 7.9863281 12 L 11 12 L 11 19.984375 C 8.9477386 19.865581 7.0933603 19.020754 5.6875 17.703125 C 7.0244708 16.155743 7.8727272 14.174004 7.9863281 12 z M 12 12 L 15.013672 12 C 15.127273 14.174004 15.975529 16.155743 17.3125 17.703125 C 15.90664 19.020754 14.052261 19.865581 12 19.984375 L 12 12 z M 16.015625 12 L 19.984375 12 C 19.874749 13.893884 19.147136 15.620499 18 16.980469 C 16.852632 15.620224 16.125204 13.894307 16.015625 12 z M 5.1699219 17.173828 C 5.2067779 17.214819 5.2455593 17.254687 5.2832031 17.294922 C 5.24546 17.254441 5.2068763 17.215043 5.1699219 17.173828 z M 17.830078 17.173828 C 17.793124 17.215043 17.75454 17.254441 17.716797 17.294922 C 17.754441 17.254687 17.793222 17.214819 17.830078 17.173828 z M 5.3964844 17.416016 C 5.4335132 17.454079 5.4700814 17.491906 5.5078125 17.529297 C 5.470236 17.491951 5.4333597 17.454056 5.3964844 17.416016 z M 17.603516 17.416016 C 17.56664 17.454056 17.529764 17.491951 17.492188 17.529297 C 17.529919 17.491906 17.566487 17.454079 17.603516 17.416016 z " />
</svg>
