<svg height="24" width="24" xmlns="http://www.w3.org/2000/svg"><path style="color:#000;fill:gray;stroke-linecap:square;stroke-linejoin:round;-inkscape-stroke:none" d="M7.5 2a.499.499 0 1 0 0 1H9v3.395L4.041 17.8a.5.5 0 0 0-.039.199H4v.5A3.504 3.504 0 0 0 7.5 22h9c1.93 0 3.5-1.57 3.5-3.5v-.469a.5.5 0 0 0 0-.002.5.5 0 0 0 0-.002.5.5 0 0 0 0-.002.5.5 0 0 0 0-.002.5.5 0 0 0 0-.002.5.5 0 0 0 0-.001.5.5 0 0 0 0-.002.5.5 0 0 0 0-.002.5.5 0 0 0 0-.002.5.5 0 0 0 0-.002.5.5 0 0 0 0-.002.5.5 0 0 0 0-.002.5.5 0 0 0 0-.002.5.5 0 0 0 0-.002.5.5 0 0 0 0-.002.5.5 0 0 0 0-.002.5.5 0 0 0-.041-.2L15 6.396V3h1.5a.499.499 0 1 0 0-1h-9zM10 3h4v3.5a.5.5 0 0 0 0 .004.5.5 0 0 0 .004.017.5.5 0 0 0 .031.153.5.5 0 0 0 .006.025L16.346 12H7.654L9.96 6.7a.5.5 0 0 0 .04-.232V3z"/></svg>