<svg height="24" width="24" xmlns="http://www.w3.org/2000/svg"><path d="M10.922 21q-1.444 0-2.89-.102-1.42-.075-2.966-.405V3.456q1.217-.228 2.663-.33Q9.173 3 10.415 3q1.674 0 3.068.253 1.42.228 2.434.81 1.014.585 1.572 1.548.582.938.582 2.333 0 2.104-2.028 3.321 1.674.633 2.282 1.725.609 1.089.609 2.458 0 2.763-2.028 4.157Q14.903 21 10.922 21zm-2-7.884v4.537q.43.052.937.076.507.027 1.116.027 1.774 0 2.865-.507 1.09-.507 1.09-1.877 0-1.216-.913-1.725-.912-.531-2.61-.531zm0-3.018h1.927q1.824 0 2.61-.456.786-.48.786-1.521 0-1.065-.81-1.495-.812-.431-2.385-.431-.506 0-1.09.024-.583 0-1.039.051z" style="line-height:1000%;-inkscape-font-specification:'Ubuntu Bold';stroke-width:.999999" font-weight="700" font-family="Ubuntu" letter-spacing="0" word-spacing="0" fill="gray"/></svg>