<svg height="24" width="24" xmlns="http://www.w3.org/2000/svg"><path style="color:#000;fill:gray;fill-opacity:1" d="M4.787 3c-.677.006-1.25.048-1.76.303-.34.17-.63.462-.797.838C2.064 4.516 2 4.958 2 5.5v11c0 .542.064.984.23 1.36.167.375.458.668.797.837.68.34 1.473.303 2.473.303h4c1.167 0 2.084 1.277 2.084 1.277l.416.625.416-.625S13.333 19 14.5 19h4c1 0 1.794.037 2.473-.303.34-.17.63-.462.797-.838.166-.375.23-.817.23-1.359v-11c0-.542-.064-.984-.23-1.36a1.72 1.72 0 0 0-.797-.837C20.413 3.023 19.767 3 19 3h-1v9l-3 1V3h-.5c-1.338 0-2.09.762-2.5 1.258C11.59 3.762 10.838 3 9.5 3h-4c-.25 0-.487-.002-.713 0zM6 7h3v1H6V7zm0 2h3v1H6V9zm0 2h3v1H6v-1zm0 2h3v1H6v-1z"/></svg>