<svg height="24" width="24" xmlns="http://www.w3.org/2000/svg"><path style="color:#000;fill:gray;fill-opacity:1;-inkscape-stroke:none" d="M4.787 3c-.677.006-1.25.048-1.76.303-.34.17-.63.462-.797.838C2.064 4.516 2 4.958 2 5.5v11c0 .542.064.984.23 1.36.167.375.458.668.797.837.68.34 1.473.303 2.473.303h4c1.167 0 2.084 1.277 2.084 1.277l.416.625.416-.625S13.333 19 14.5 19h4c1 0 1.794.037 2.473-.303.34-.17.63-.462.797-.838.166-.375.23-.817.23-1.359v-11c0-.542-.064-.984-.23-1.36a1.72 1.72 0 0 0-.797-.837c-.51-.255-1.083-.297-1.76-.303-.226-.002-.463 0-.713 0h-4c-1.338 0-2.09.762-2.5 1.258C11.59 3.762 10.838 3 9.5 3h-4c-.25 0-.487-.002-.713 0zM6 7h3v1H6zm9 0h3v1h-3zM6 9h3v1H6zm9 0h3v1h-3zm-9 2h3v1H6zm9 0h3v1h-3zm-9 2h3v1H6zm9 0h3v1h-3z"/></svg>