<?xml version="1.0" encoding="UTF-8" standalone="no"?>
<svg
   viewBox="0 1 24 24"
   height="24"
   width="24"
   version="1.1"
   id="svg4"
   sodipodi:docname="book-filled.svg"
   inkscape:version="1.2 (1:1.2.1+202207142221+cd75a1ee6d)"
   xmlns:inkscape="http://www.inkscape.org/namespaces/inkscape"
   xmlns:sodipodi="http://sodipodi.sourceforge.net/DTD/sodipodi-0.dtd"
   xmlns="http://www.w3.org/2000/svg"
   xmlns:svg="http://www.w3.org/2000/svg">
  <defs
     id="defs8" />
  <sodipodi:namedview
     id="namedview6"
     pagecolor="#ffffff"
     bordercolor="#666666"
     borderopacity="1.0"
     inkscape:pageshadow="2"
     inkscape:pageopacity="0.0"
     inkscape:pagecheckerboard="0"
     showgrid="true"
     width="24px"
     inkscape:zoom="28"
     inkscape:cx="18.464286"
     inkscape:cy="9.4642857"
     inkscape:window-width="1920"
     inkscape:window-height="1043"
     inkscape:window-x="0"
     inkscape:window-y="0"
     inkscape:window-maximized="1"
     inkscape:current-layer="svg4"
     inkscape:showpageshadow="2"
     inkscape:deskcolor="#d1d1d1">
    <inkscape:grid
       type="xygrid"
       id="grid821" />
    <inkscape:grid
       type="xygrid"
       id="grid823"
       dotted="true"
       spacingx="0.5"
       spacingy="0.5"
       empspacing="10" />
  </sodipodi:namedview>
  <path
     id="path858"
     style="color:#000000;fill:#808080;fill-opacity:1;-inkscape-stroke:none"
     d="m 4.7871094,3 c -0.6769451,0.00559 -1.2506027,0.048153 -1.7597656,0.3027344 -0.3394423,0.169721 -0.6300056,0.462434 -0.796875,0.8378906 -0.1668701,0.3754566 -0.2304688,0.8177094 -0.2304688,1.359375 v 11 c 0,0.541665 0.063599,0.983918 0.2304688,1.359375 0.1668694,0.375457 0.4574327,0.668169 0.796875,0.837891 0.6788836,0.339441 1.4726582,0.302734 2.4726562,0.302734 h 4 c 1.166665,0 2.083984,1.277344 2.083984,1.277344 l 0.416016,0.625 0.416016,-0.625 c 0,0 0.917319,-1.277344 2.083984,-1.277344 h 4 c 0.999998,0 1.793773,0.03671 2.472656,-0.302734 0.339443,-0.169722 0.630006,-0.462434 0.796875,-0.837891 0.166869,-0.375457 0.230469,-0.81771 0.230469,-1.359375 v -11 c 0,-0.5416656 -0.0636,-0.9839184 -0.230469,-1.359375 -0.166869,-0.3754566 -0.457432,-0.6681696 -0.796875,-0.8378906 -0.509162,-0.2545812 -1.082821,-0.2971444 -1.759765,-0.3027344 -0.225649,-0.00186 -0.462891,0 -0.712891,0 h -4 c -1.338245,0 -2.090832,0.762071 -2.5,1.2578125 -0.409168,-0.4957415 -1.161755,-1.2578125 -2.5,-1.2578125 h -4 c -0.2499995,0 -0.4872423,-0.00186 -0.7128906,0 z m 1.2128906,4 h 3 v 1 h -3 z m 9,0 h 3 v 1 h -3 z m -9,2 h 3 v 1 h -3 z m 9,0 h 3 v 1 h -3 z m -9,2 h 3 v 1 h -3 z m 9,0 h 3 v 1 h -3 z m -9,2 h 3 v 1 h -3 z m 9,0 h 3 v 1 h -3 z"
     sodipodi:nodetypes="csssssssscccssssssssssscssccccccccccccccccccccccccccccccccccccccccc" />
</svg>
