<svg height="24" width="24" xmlns="http://www.w3.org/2000/svg"><path style="color:#000;fill:gray;fill-opacity:1;-inkscape-stroke:none" d="M6 2c-1.042 0-1.998.115-2.758.57a2.428 2.428 0 0 0-.906.963 2.933 2.933 0 0 0-.248.676A3.298 3.298 0 0 0 2 5v14a3.298 3.298 0 0 0 .193 1.143 2.54 2.54 0 0 0 .535.873 2.394 2.394 0 0 0 .514.414c.76.455 1.716.57 2.758.57h12c1.042 0 1.998-.115 2.758-.57a2.426 2.426 0 0 0 .906-.963 2.932 2.932 0 0 0 .248-.676A3.3 3.3 0 0 0 22 19V5a3.3 3.3 0 0 0-.193-1.143 2.539 2.539 0 0 0-.535-.873 2.393 2.393 0 0 0-.514-.414C19.998 2.115 19.042 2 18 2H6zm0 1h6v18H6c-.958 0-1.752-.135-2.242-.43C3.268 20.276 3 19.875 3 19V5c0-.875.267-1.276.758-1.57C4.248 3.135 5.042 3 6 3zm1 3v2H5v1h2v2h1V9h2V8H8V6H7zm8 4h4v1h-4v-1zm0 2h4v1h-4v-1zM5 15v1h5v-1H5z"/></svg>