<svg height="24" width="24" xmlns="http://www.w3.org/2000/svg"><path style="line-height:normal;font-variant-ligatures:normal;font-variant-position:normal;font-variant-caps:normal;font-variant-numeric:normal;font-variant-alternates:normal;font-feature-settings:normal;text-indent:0;text-align:start;text-decoration:none;text-decoration-line:none;text-decoration-style:solid;text-decoration-color:#000;text-transform:none;text-orientation:mixed;white-space:normal;shape-padding:0;isolation:auto;mix-blend-mode:normal;solid-color:#000;solid-opacity:1;fill:gray;stroke-width:1;marker:none" d="M6.5 2c-1.25 0-2.311-.037-3.178.436a2.3 2.3 0 0 0-1.01 1.134C2.095 4.082 2 4.708 2 5.5v13c.001.761.098 1.375.316 1.879s.571.889 1 1.133C4.174 22 5.241 22 6.5 22h10.508c1.572-.019 2.723.038 3.664-.48a2.354 2.354 0 0 0 1.047-1.249c.206-.547.281-1.2.281-2.021V5.75c0-.822-.075-1.474-.281-2.021a2.35 2.35 0 0 0-1.047-1.247c-.94-.518-2.092-.463-3.664-.482H6.5zm0 1H12v18H6.5c-1.241 0-2.173-.064-2.69-.357-.257-.147-.434-.333-.576-.66-.141-.328-.233-.808-.234-1.483v-13c0-.708.093-1.207.234-1.54.142-.331.314-.507.569-.646C4.31 3.037 5.25 3 6.5 3zM17 8h1v1h1v1h-1V9h-1v1h-1V9h1V8zm2 3h1v3l-1 1h-1l-.5-.5-.5.5h-1v1l-1 1h-1v-1h1v-4h1v2h1v-2h1v2h1v-3z"/><path style="fill:gray;fill-opacity:1;stroke-width:8;stroke-linecap:round;stroke-linejoin:round" d="M7.5 4.5a3 3 0 0 0-3 3 3 3 0 0 0 3 3 3 3 0 0 0 3-3 3 3 0 0 0-3-3zM6.286 5.7a.6.6 0 0 1 .014 0 .6.6 0 0 1 .6.6.6.6 0 0 1-.6.6.6.6 0 0 1-.6-.6.6.6 0 0 1 .586-.6zm2.4 0a.6.6 0 0 1 .014 0 .6.6 0 0 1 .6.6.6.6 0 0 1-.6.6.6.6 0 0 1-.6-.6.6.6 0 0 1 .586-.6zm-2.88 2.4h3.39A1.8 1.8 0 0 1 7.5 9.3a1.8 1.8 0 0 1-1.695-1.2zM7.5 13.5c-1.8 0-.6 2.4-.152 2.836C6.9 15.9 4.5 14.7 4.5 16.5c0 1.8 2.4.6 2.85.15-.45.45-1.65 2.85.15 2.85 1.8 0 .6-2.4.164-2.848C8.1 17.1 10.5 18.3 10.5 16.5c0-1.8-2.4-.6-2.834-.166C8.1 15.9 9.3 13.5 7.5 13.5z"/></svg>