<svg height="24" width="24" xmlns="http://www.w3.org/2000/svg"><path style="font-style:normal;font-variant:normal;font-weight:500;font-stretch:normal;font-size:17.3333px;line-height:1.25;font-family:Ubuntu;-inkscape-font-specification:'Ubuntu, Medium';font-variant-ligatures:normal;font-variant-caps:normal;font-variant-numeric:normal;font-feature-settings:normal;text-align:start;letter-spacing:0;word-spacing:0;writing-mode:lr-tb;text-anchor:start;fill:gray;fill-opacity:1;stroke:none;stroke-width:.9995" d="M10.701 2a110.902 110.902 0 0 0-1.474 3.248 149.644 149.644 0 0 0-1.454 3.461A253.916 253.916 0 0 0 4.697 17h2.84l.606-1.73c.216-.592.53-1.414.732-2.02H15c.202.606.51 1.42.727 1.998.216.577.426 1.16.628 1.752h2.948a169.662 169.662 0 0 0-1.627-4.436 147.307 147.307 0 0 0-1.494-3.855A105.996 105.996 0 0 0 13.279 2zM12 4.9c.318.736.692 1.66 1.125 2.772.371.952.76 1.999 1.152 3.078H9.72c.39-1.076.774-2.118 1.133-3.057A92.263 92.263 0 0 1 12 4.9z"/><path style="color:#000;fill:gray;-inkscape-stroke:none;fill-opacity:1" d="M5.5 18c-.542 0-.985.3-1.275.648-.29.349-.485.754-.672 1.13-.188.374-.369.719-.547.933-.179.214-.298.289-.506.289v1c.542 0 .985-.3 1.275-.648.29-.349.485-.754.672-1.13.188-.374.369-.719.547-.933.179-.214.298-.289.506-.289.208 0 .327.075.506.29.178.213.36.558.547.933.187.375.381.78.672 1.129.29.348.733.648 1.275.648.542 0 .985-.3 1.275-.648.29-.349.485-.754.672-1.13.188-.374.369-.719.547-.933.179-.214.298-.289.506-.289.208 0 .327.075.506.29.178.213.36.558.547.933.187.375.381.78.672 1.129.29.348.733.648 1.275.648.542 0 .985-.3 1.275-.648.29-.349.485-.754.672-1.13.188-.374.369-.719.547-.933.179-.214.298-.289.506-.289.208 0 .327.075.506.29.178.213.36.558.547.933.187.375.381.78.672 1.129.29.348.733.648 1.275.648v-1c-.208 0-.327-.075-.506-.29-.178-.213-.36-.558-.547-.933-.187-.375-.381-.78-.672-1.129-.29-.348-.733-.648-1.275-.648-.542 0-.985.3-1.275.648-.29.349-.485.754-.672 1.13-.188.374-.369.719-.547.933-.179.214-.298.289-.506.289-.208 0-.327-.075-.506-.29-.178-.213-.36-.558-.547-.933-.187-.375-.381-.78-.672-1.129-.29-.348-.733-.648-1.275-.648-.542 0-.985.3-1.275.648-.29.349-.485.754-.672 1.13-.188.374-.369.719-.547.933-.179.214-.298.289-.506.289-.208 0-.327-.075-.506-.29-.178-.213-.36-.558-.547-.933-.187-.375-.381-.78-.672-1.129C6.485 18.3 6.042 18 5.5 18z"/></svg>