<?xml version="1.0" encoding="UTF-8" standalone="no"?>
<svg
   viewBox="0 0 24 24"
   height="24"
   width="24"
   version="1.1"
   id="svg4"
   sodipodi:docname="chip-filled.svg"
   inkscape:version="1.2 (1:1.2.1+202207142221+cd75a1ee6d)"
   xmlns:inkscape="http://www.inkscape.org/namespaces/inkscape"
   xmlns:sodipodi="http://sodipodi.sourceforge.net/DTD/sodipodi-0.dtd"
   xmlns="http://www.w3.org/2000/svg"
   xmlns:svg="http://www.w3.org/2000/svg"
   xmlns:rdf="http://www.w3.org/1999/02/22-rdf-syntax-ns#"
   xmlns:cc="http://creativecommons.org/ns#"
   xmlns:dc="http://purl.org/dc/elements/1.1/">
  <metadata
     id="metadata10">
    <rdf:RDF>
      <cc:Work
         rdf:about="">
        <dc:format>image/svg+xml</dc:format>
        <dc:type
           rdf:resource="http://purl.org/dc/dcmitype/StillImage" />
      </cc:Work>
    </rdf:RDF>
  </metadata>
  <defs
     id="defs8" />
  <sodipodi:namedview
     pagecolor="#ffffff"
     bordercolor="#666666"
     borderopacity="1"
     objecttolerance="10"
     gridtolerance="10"
     guidetolerance="10"
     inkscape:pageopacity="0"
     inkscape:pageshadow="2"
     inkscape:window-width="1920"
     inkscape:window-height="1016"
     id="namedview6"
     showgrid="true"
     inkscape:zoom="2.6958446"
     inkscape:cx="144.11068"
     inkscape:cy="-48.036894"
     inkscape:window-x="0"
     inkscape:window-y="0"
     inkscape:window-maximized="1"
     inkscape:current-layer="svg4"
     inkscape:document-rotation="0"
     inkscape:pagecheckerboard="0"
     width="24px"
     inkscape:showpageshadow="2"
     inkscape:deskcolor="#d1d1d1">
    <inkscape:grid
       type="xygrid"
       id="grid886" />
  </sodipodi:namedview>
  <path
     id="path1050"
     style="fill:#808080;fill-rule:evenodd;stroke:#ffffff;stroke-width:0;stroke-linecap:square;stroke-linejoin:round"
     d="m 6.5,3.0000005 c -0.277,0 -0.5,0.223 -0.5,0.5 v 1.8066406 c -0.2508747,0.086715 -0.4871184,0.1952828 -0.7050781,0.3339844 -0.4842041,0.3081298 -0.8413667,0.7670031 -1.0566407,1.359375 h -1.7382812 c -0.277,0 -0.5,0.223 -0.5,0.5 v 1 c 0,0.277 0.223,0.5 0.5,0.5 h 1.5 v 1.0000005 h -1.5 c -0.277,0 -0.5,0.223 -0.5,0.5 v 1 c 0,0.276999 0.223,0.5 0.5,0.5 h 1.5 v 1 h -1.5 c -0.277,0 -0.5,0.223 -0.5,0.5 v 1 c 0,0.276999 0.223,0.5 0.5,0.5 h 1.5 v 0.999999 h -1.5 c -0.277,0 -0.5,0.222999 -0.5,0.5 v 1 c 0,0.277 0.223,0.5 0.5,0.5 h 1.7382812 c 0.215274,0.592372 0.5724366,1.051245 1.0566407,1.359375 0.2179597,0.138701 0.4542033,0.24727 0.7050781,0.333984 v 1.806641 c 0,0.277 0.223,0.5 0.5,0.5 h 1 c 0.277,0 0.5,-0.223 0.5,-0.5 v -1.507812 c 0.1630716,0.0045 0.3298495,0.0078 0.5,0.0078 h 0.5 v 1.5 c 0,0.277 0.223,0.5 0.5,0.5 h 1 c 0.277,0 0.5,-0.223 0.5,-0.5 v -1.5 h 1 v 1.5 c 0,0.277 0.223,0.5 0.5,0.5 h 1 c 0.277,0 0.5,-0.223 0.5,-0.5 v -1.5 h 0.5 c 0.170151,0 0.336928,-0.0033 0.5,-0.0078 v 1.507812 c 0,0.277 0.223,0.5 0.5,0.5 h 1 c 0.277,0 0.5,-0.223 0.5,-0.5 v -1.806641 c 0.250875,-0.08671 0.487119,-0.195282 0.705078,-0.333984 0.484204,-0.30813 0.841367,-0.767003 1.056641,-1.359375 h 1.738281 c 0.277,0 0.5,-0.223 0.5,-0.5 v -1 c 0,-0.277001 -0.223,-0.5 -0.5,-0.5 h -1.5 v -0.999999 h 1.5 c 0.277,0 0.5,-0.223001 0.5,-0.5 v -1 c 0,-0.277 -0.223,-0.5 -0.5,-0.5 h -1.5 v -1 h 1.5 c 0.277,0 0.5,-0.223001 0.5,-0.5 v -1 c 0,-0.277 -0.223,-0.5 -0.5,-0.5 h -1.5 v -1.0000005 h 1.5 c 0.277,0 0.5,-0.223 0.5,-0.5 v -1 c 0,-0.277 -0.223,-0.5 -0.5,-0.5 h -1.738281 c -0.215274,-0.5923719 -0.572437,-1.0512452 -1.056641,-1.359375 -0.217959,-0.1387016 -0.454203,-0.2472696 -0.705078,-0.3339844 v -1.8066406 c 0,-0.277 -0.223,-0.5 -0.5,-0.5 h -1 c -0.277,0 -0.5,0.223 -0.5,0.5 v 1.5078125 c -0.163072,-0.00455 -0.329849,-0.00781 -0.5,-0.00781 h -0.5 v -1.5 c 0,-0.277 -0.223,-0.5 -0.5,-0.5 h -1 c -0.277,0 -0.5,0.223 -0.5,0.5 v 1.5 h -1 v -1.5 c 0,-0.277 -0.223,-0.5 -0.5,-0.5 h -1 c -0.277,0 -0.5,0.223 -0.5,0.5 v 1.5 h -0.5 c -0.1701505,0 -0.3369284,0.00327 -0.5,0.00781 v -1.5078125 c 0,-0.277 -0.223,-0.5 -0.5,-0.5 z m 2.2871094,4 c 0.2256486,-0.00186 0.4628908,0 0.7128906,0 h 4 c 0.999999,0 1.793771,-0.036708 2.472656,0.3027344 0.339442,0.1697212 0.630005,0.4624336 0.796875,0.8378906 0.166869,0.375457 0.230469,0.8177094 0.230469,1.359375 v 6.0000005 c 0,0.541665 -0.0636,0.983917 -0.230469,1.359374 -0.16687,0.375457 -0.457433,0.668169 -0.796875,0.837891 -0.678885,0.339445 -1.472657,0.302734 -2.472656,0.302734 h -4 c -0.999999,0 -1.7937715,0.03671 -2.4726562,-0.302734 -0.3394423,-0.169722 -0.6300053,-0.462434 -0.796875,-0.837891 -0.1668699,-0.375458 -0.2304688,-0.81771 -0.2304688,-1.359374 v -6.0000005 c 0,-0.5416666 0.063599,-0.983918 0.2304688,-1.359375 0.1668695,-0.375457 0.4574327,-0.6681694 0.796875,-0.8378906 0.5091636,-0.2545814 1.0828198,-0.2971444 1.7597656,-0.3027344 z m 0.7128906,1 c -0.999999,0 -1.7062295,0.036708 -2.0273438,0.1972656 -0.1605571,0.080279 -0.244995,0.162567 -0.328125,0.3496094 -0.08313,0.1870424 -0.1445312,0.494792 -0.1445312,0.953125 v 6.0000005 c 0,0.458332 0.061401,0.766081 0.1445312,0.953124 0.08313,0.187041 0.1675679,0.26933 0.328125,0.349609 0.3211147,0.160557 1.0273448,0.197266 2.0273438,0.197266 h 4 c 0.999999,0 1.70623,-0.03671 2.027344,-0.197266 0.160557,-0.08028 0.244995,-0.162568 0.328125,-0.349609 0.08313,-0.187043 0.144531,-0.494792 0.144531,-0.953124 v -6.0000005 c 0,-0.458333 -0.0614,-0.7660826 -0.144531,-0.953125 -0.08313,-0.1870424 -0.167568,-0.2693304 -0.328125,-0.3496094 -0.321114,-0.1605576 -1.027345,-0.1972656 -2.027344,-0.1972656 z" />
</svg>
