<?xml version="1.0" encoding="UTF-8" standalone="no"?>
<svg
   viewBox="0 1 24 24"
   height="24"
   width="24"
   version="1.1"
   id="svg4"
   sodipodi:docname="chip.svg"
   inkscape:version="1.2 (1:1.2.1+202207142221+cd75a1ee6d)"
   xmlns:inkscape="http://www.inkscape.org/namespaces/inkscape"
   xmlns:sodipodi="http://sodipodi.sourceforge.net/DTD/sodipodi-0.dtd"
   xmlns="http://www.w3.org/2000/svg"
   xmlns:svg="http://www.w3.org/2000/svg"
   xmlns:rdf="http://www.w3.org/1999/02/22-rdf-syntax-ns#"
   xmlns:cc="http://creativecommons.org/ns#"
   xmlns:dc="http://purl.org/dc/elements/1.1/">
  <metadata
     id="metadata10">
    <rdf:RDF>
      <cc:Work
         rdf:about="">
        <dc:format>image/svg+xml</dc:format>
        <dc:type
           rdf:resource="http://purl.org/dc/dcmitype/StillImage" />
      </cc:Work>
    </rdf:RDF>
  </metadata>
  <defs
     id="defs8" />
  <sodipodi:namedview
     pagecolor="#ffffff"
     bordercolor="#666666"
     borderopacity="1"
     objecttolerance="10"
     gridtolerance="10"
     guidetolerance="10"
     inkscape:pageopacity="0"
     inkscape:pageshadow="2"
     inkscape:window-width="1920"
     inkscape:window-height="1016"
     id="namedview6"
     showgrid="true"
     inkscape:zoom="21.566758"
     inkscape:cx="18.338407"
     inkscape:cy="13.701642"
     inkscape:window-x="0"
     inkscape:window-y="0"
     inkscape:window-maximized="1"
     inkscape:current-layer="svg4"
     inkscape:document-rotation="0"
     inkscape:pagecheckerboard="0"
     width="24px"
     inkscape:showpageshadow="2"
     inkscape:deskcolor="#d1d1d1">
    <inkscape:grid
       type="xygrid"
       id="grid886" />
    <inkscape:grid
       type="xygrid"
       id="grid1088"
       dotted="true"
       spacingx="0.5"
       spacingy="0.5"
       empspacing="10" />
  </sodipodi:namedview>
  <path
     id="path1050"
     style="fill:#808080;fill-rule:evenodd;stroke:#ffffff;stroke-width:0;stroke-linecap:square;stroke-linejoin:round"
     d="m 6.5,3.0000005 c -0.277,0 -0.5,0.223 -0.5,0.5 v 1.8066406 c -0.2508747,0.086715 -0.4871184,0.1952828 -0.7050781,0.3339844 -0.4842041,0.3081298 -0.8413667,0.7670031 -1.0566407,1.359375 h -1.7382812 c -0.277,0 -0.5,0.223 -0.5,0.5 v 1 c 0,0.277 0.223,0.5 0.5,0.5 h 1.5 v 1.0000005 h -1.5 c -0.277,0 -0.5,0.223 -0.5,0.5 v 1 c 0,0.277 0.223,0.5 0.5,0.5 h 1.5 v 1 h -1.5 c -0.277,0 -0.5,0.223 -0.5,0.5 v 1 c 0,0.277 0.223,0.5 0.5,0.5 h 1.5 v 0.999999 h -1.5 c -0.277,0 -0.5,0.223001 -0.5,0.5 v 1 c 0,0.277 0.223,0.5 0.5,0.5 h 1.7382812 c 0.215274,0.592372 0.5724366,1.051245 1.0566407,1.359375 0.2179597,0.138702 0.4542033,0.24727 0.7050781,0.333984 v 1.806641 c 0,0.277 0.223,0.5 0.5,0.5 h 1 c 0.277,0 0.5,-0.223 0.5,-0.5 v -1.507812 c 0.1630716,0.0045 0.3298495,0.0078 0.5,0.0078 h 0.5 v 1.5 c 0,0.277 0.223,0.5 0.5,0.5 h 1 c 0.277,0 0.5,-0.223 0.5,-0.5 v -1.5 h 1 v 1.5 c 0,0.277 0.223,0.5 0.5,0.5 h 1 c 0.277,0 0.5,-0.223 0.5,-0.5 v -1.5 h 0.5 c 0.170151,0 0.336928,-0.0033 0.5,-0.0078 v 1.507812 c 0,0.277 0.223,0.5 0.5,0.5 h 1 c 0.277,0 0.5,-0.223 0.5,-0.5 v -1.806641 c 0.250875,-0.08671 0.487119,-0.195282 0.705078,-0.333984 0.484204,-0.30813 0.841367,-0.767003 1.056641,-1.359375 h 1.738281 c 0.277,0 0.5,-0.223 0.5,-0.5 v -1 c 0,-0.276999 -0.223,-0.5 -0.5,-0.5 h -1.5 v -0.999999 h 1.5 c 0.277,0 0.5,-0.223 0.5,-0.5 v -1 c 0,-0.277 -0.223,-0.5 -0.5,-0.5 h -1.5 v -1 h 1.5 c 0.277,0 0.5,-0.223 0.5,-0.5 v -1 c 0,-0.277 -0.223,-0.5 -0.5,-0.5 h -1.5 v -1.0000005 h 1.5 c 0.277,0 0.5,-0.223 0.5,-0.5 v -1 c 0,-0.277 -0.223,-0.5 -0.5,-0.5 h -1.738281 c -0.215274,-0.5923719 -0.572437,-1.0512452 -1.056641,-1.359375 -0.217959,-0.1387016 -0.454203,-0.2472696 -0.705078,-0.3339844 v -1.8066406 c 0,-0.277 -0.223,-0.5 -0.5,-0.5 h -1 c -0.277,0 -0.5,0.223 -0.5,0.5 v 1.5078125 c -0.163072,-0.00455 -0.329849,-0.00781 -0.5,-0.00781 h -0.5 v -1.5 c 0,-0.277 -0.223,-0.5 -0.5,-0.5 h -1 c -0.277,0 -0.5,0.223 -0.5,0.5 v 1.5 h -1 v -1.5 c 0,-0.277 -0.223,-0.5 -0.5,-0.5 h -1 c -0.277,0 -0.5,0.223 -0.5,0.5 v 1.5 h -0.5 c -0.1701505,0 -0.3369284,0.00327 -0.5,0.00781 v -1.5078125 c 0,-0.277 -0.223,-0.5 -0.5,-0.5 z m 2,3 h 6 c 1.216665,0 2.131304,0.1416181 2.669922,0.484375 0.538618,0.3427569 0.830078,0.8656262 0.830078,2.015625 v 7.9999995 c 0,1.149999 -0.29146,1.672868 -0.830078,2.015625 -0.538618,0.342757 -1.453257,0.484375 -2.669922,0.484375 h -6 c -1.2166655,0 -2.1313039,-0.141618 -2.6699219,-0.484375 -0.538618,-0.342757 -0.8300781,-0.865626 -0.8300781,-2.015625 v -7.9999995 c 0,-1.1499989 0.2914601,-1.6728681 0.8300781,-2.015625 0.538618,-0.3427569 1.4532564,-0.484375 2.6699219,-0.484375 z m 0.2871094,1 c -0.6769458,0.00559 -1.250602,0.048153 -1.7597656,0.3027344 -0.3394423,0.1697212 -0.6300054,0.4624336 -0.796875,0.8378906 -0.1668698,0.375457 -0.2304688,0.8177089 -0.2304688,1.359375 v 6.0000005 c 0,0.541665 0.063599,0.983917 0.2304688,1.359374 0.1668697,0.375457 0.4574327,0.668169 0.796875,0.837891 0.6788847,0.339442 1.4726572,0.302734 2.4726562,0.302734 h 4 c 0.999999,0 1.793771,0.03671 2.472656,-0.302734 0.339443,-0.169722 0.630005,-0.462434 0.796875,-0.837891 0.16687,-0.375457 0.230469,-0.817709 0.230469,-1.359374 v -6.0000005 c 0,-0.5416661 -0.0636,-0.983918 -0.230469,-1.359375 -0.16687,-0.375457 -0.457432,-0.6681694 -0.796875,-0.8378906 -0.678885,-0.3394424 -1.472657,-0.3027344 -2.472656,-0.3027344 h -4 c -0.2499998,0 -0.487242,-0.00186 -0.7128906,0 z m 0.7128906,1 h 4 c 0.999999,0 1.70623,0.036708 2.027344,0.1972656 0.160557,0.080279 0.244995,0.162567 0.328125,0.3496094 0.08313,0.1870424 0.144531,0.4947921 0.144531,0.953125 v 6.0000005 c 0,0.458333 -0.0614,0.766082 -0.144531,0.953124 -0.08313,0.187042 -0.167568,0.269331 -0.328125,0.349609 -0.321114,0.160557 -1.027345,0.197266 -2.027344,0.197266 h -4 c -0.999999,0 -1.7062292,-0.03671 -2.0273438,-0.197266 -0.1605571,-0.08028 -0.2449949,-0.162567 -0.328125,-0.349609 -0.08313,-0.187042 -0.1445312,-0.494791 -0.1445312,-0.953124 v -6.0000005 c 0,-0.4583329 0.061401,-0.7660826 0.1445312,-0.953125 0.08313,-0.1870424 0.1675679,-0.2693308 0.328125,-0.3496094 0.3211143,-0.1605571 1.0273448,-0.1972656 2.0273438,-0.1972656 z" />
</svg>
