<svg height="24" width="24" xmlns="http://www.w3.org/2000/svg"><path style="stroke-width:1;marker:none;fill:gray;fill-opacity:1" d="M5.125 8.432a12 12 0 0 0-.5 1.282 11.29 11.29 0 0 0-1.375.08 12 12 0 0 0 1.065.871c-.101.31-.255.825-.35 1.333a11.988 11.988 0 0 0 1.157-.743 11.125 11.125 0 0 0 1.16.745v-.001a11.778 11.778 0 0 0-.348-1.33c.263-.192.691-.518 1.066-.873a11.995 11.995 0 0 0-1.374-.08 11.348 11.348 0 0 0-.5-1.284zm4.376-4.938-.001.001a16.28 16.28 0 0 0-.666 1.708c-.435 0-1.15.016-1.834.105h.001c.521.488 1.075.913 1.419 1.163-.135.413-.34 1.1-.468 1.775h.003c.624-.345 1.199-.74 1.542-.988a15.075 15.075 0 0 0 1.546.99 16.005 16.005 0 0 0-.464-1.773A15.081 15.081 0 0 0 12 5.313V5.31h-.001a15.985 15.985 0 0 0-1.83-.106A15.088 15.088 0 0 0 9.5 3.493z"/><path style="fill:gray;fill-opacity:1;stroke-width:.5;stroke-linecap:square;stroke-linejoin:round" d="M14.707 4.295a7.5 7.5 0 0 1 1.295 4.207 7.5 7.5 0 0 1-7.5 7.5 7.5 7.5 0 0 1-2.895-.606 7.5 7.5 0 0 1-1.304-.699 8.5 8.5 0 0 0 .535 1.465l.002.002A8.5 8.5 0 0 0 12.5 21a8.5 8.5 0 0 0 3.67-16.166 8.5 8.5 0 0 0-1.463-.54z"/></svg>