<?xml version="1.0" encoding="UTF-8" standalone="no"?>
<svg
   viewBox="0 1 24 24"
   height="24"
   width="24"
   version="1.1"
   id="svg4"
   sodipodi:docname="clear-night-filled.svg"
   inkscape:version="1.2 (1:1.2.1+202207142221+cd75a1ee6d)"
   xmlns:inkscape="http://www.inkscape.org/namespaces/inkscape"
   xmlns:sodipodi="http://sodipodi.sourceforge.net/DTD/sodipodi-0.dtd"
   xmlns="http://www.w3.org/2000/svg"
   xmlns:svg="http://www.w3.org/2000/svg">
  <defs
     id="defs8" />
  <sodipodi:namedview
     id="namedview6"
     pagecolor="#ffffff"
     bordercolor="#666666"
     borderopacity="1.0"
     inkscape:pageshadow="2"
     inkscape:pageopacity="0.0"
     inkscape:pagecheckerboard="0"
     showgrid="true"
     inkscape:snap-page="true"
     inkscape:zoom="19.79899"
     inkscape:cx="17.02107"
     inkscape:cy="9.1923882"
     inkscape:window-width="1920"
     inkscape:window-height="1043"
     inkscape:window-x="0"
     inkscape:window-y="0"
     inkscape:window-maximized="1"
     inkscape:current-layer="svg4"
     inkscape:showpageshadow="2"
     inkscape:deskcolor="#d1d1d1">
    <inkscape:grid
       type="xygrid"
       id="grid6" />
  </sodipodi:namedview>
  <path
     style="stroke-width:1;marker:none;fill:#808080;fill-opacity:1"
     d="m 5.125,8.4325 a 12,12 0 0 0 -0.5,1.28125 11.29,11.29 0 0 0 -1.375,0.08 12,12 0 0 0 1.065,0.87125 c -0.10125,0.31 -0.255,0.825 -0.35,1.3325 a 11.9875,11.9875 0 0 0 1.1575,-0.7425 11.125,11.125 0 0 0 1.16,0.745 v -0.0013 c -0.1025,-0.525 -0.25,-1.0275 -0.34875,-1.33 0.26375,-0.19125 0.69125,-0.5175 1.06625,-0.8725 a 11.995,11.995 0 0 0 -1.37375,-0.08 11.3475,11.3475 0 0 0 -0.5,-1.28375 z"
     id="path119" />
  <path
     style="stroke-width:1;marker:none;fill:#808080;fill-opacity:1"
     d="m 9.50125,3.49375 -0.00125,0.00125 c -0.3,0.64625 -0.53375,1.30375 -0.66625,1.7075 -0.435,0 -1.15,0.01625 -1.83375,0.105 v 0.00125 h 0.00125 c 0.52125,0.4875 1.075,0.9125 1.41875,1.1625 -0.135,0.4125 -0.34,1.1 -0.4675,1.775 h 0.0025 c 0.62375,-0.345 1.19875,-0.74 1.5425,-0.98875 a 15.075,15.075 0 0 0 1.545,0.99125 v -0.00125 a 16.005,16.005 0 0 0 -0.46375,-1.7725 15.08125,15.08125 0 0 0 1.42125,-1.1625 v -0.00125 h -0.0013 a 15.985,15.985 0 0 0 -1.83,-0.10625 15.0875,15.0875 0 0 0 -0.6675,-1.7125 z"
     id="path2" />
  <path
     id="path403"
     style="fill:#808080;fill-opacity:1;fill-rule:evenodd;stroke-width:0.5;stroke-linecap:square;stroke-linejoin:round"
     d="M 14.707031 4.2949219 C 14.984131 4.7029762 15.220301 5.1373722 15.412109 5.5917969 C 15.800705 6.5128412 16.001249 7.5022892 16.001953 8.5019531 C 16.001953 12.644073 12.644073 16.001953 8.5019531 16.001953 C 7.5064923 15.994253 6.5225173 15.788406 5.6074219 15.396484 C 5.1505339 15.207004 4.7135093 14.972789 4.3027344 14.697266 C 4.4358544 15.200914 4.614994 15.69126 4.8378906 16.162109 L 4.8398438 16.164062 C 6.2501565 19.115758 9.2285331 20.99671 12.5 21 C 17.1944 21 21 17.1944 21 12.5 C 21.000044 9.227751 19.12124 6.2468911 16.169922 4.8339844 C 15.699835 4.6098621 15.210145 4.4294153 14.707031 4.2949219 z " />
</svg>
