<svg width="24" height="24" xmlns="http://www.w3.org/2000/svg"><path style="fill:gray;stroke-width:2;stroke-linecap:round;stroke-linejoin:round" d="M12 2a7 7 0 0 0-7 7 7 7 0 0 0 .018.258A7 7 0 0 0 2 15a7 7 0 0 0 7 7 7 7 0 0 0 2.902-.646 7 7 0 0 1-.98-.592 7 7 0 0 1-2.93-5.676c.004-.086.01-.172.018-.258a7 7 0 0 1-2.856-4.33 7 7 0 0 1-.144-1.154 7 7 0 0 1 1.008-.59 7 7 0 0 1 2.974-.668 7 7 0 0 1 3.006.68 7 7 0 0 1 2.994-.68 7 7 0 0 1 2.99.67 7 7 0 0 1 .993.576 7 7 0 0 1-.14 1.148 7 7 0 0 1-2.849 4.338 7 7 0 0 1-2.924 5.943 7 7 0 0 1-.974.59A7 7 0 0 0 15 22a7 7 0 0 0 7-7 7 7 0 0 0-3.018-5.754A7 7 0 0 0 19 9a7 7 0 0 0-7-7zM8.992 9.086a6 6 0 0 0-2.937.785 6 6 0 0 0 2.1 3.803 7 7 0 0 1 2.77-4.268 6 6 0 0 0-1.933-.32zm6 0a6 6 0 0 0-1.914.318 7 7 0 0 1 2.766 4.258 6 6 0 0 0 2.088-3.805 6 6 0 0 0-2.94-.771zm-5.974 6.332a6 6 0 0 0 2.974 4.846 6 6 0 0 0 2.975-4.846 7 7 0 0 1-2.975.668 7 7 0 0 1-2.974-.668z"/></svg>