<svg width="24" height="24" xmlns="http://www.w3.org/2000/svg"><path style="fill:gray;stroke:none;stroke-linecap:square;stroke-linejoin:round;fill-opacity:1" d="M12 2a7 7 0 0 0-7 7c.004.086.01.172.018.258A7 7 0 0 0 2 15a7 7 0 0 0 7 7 7 7 0 0 0 3-.684A7 7 0 0 0 15 22a7 7 0 0 0 3.982-12.754c.008-.082.014-.164.018-.246a7 7 0 0 0-7-7zm0 1a6 6 0 0 1 5.99 5.67A7 7 0 0 0 15 8a7 7 0 0 0-2.994.68A7 7 0 0 0 9 8a7 7 0 0 0-2.975.668A6 6 0 0 1 12 3zM9 9a6 6 0 0 1 1.934.32 7 7 0 0 0-2.772 4.268 6 6 0 0 1-2.1-3.803A6 6 0 0 1 9 9zm6 0a6 6 0 0 1 2.94.771 6 6 0 0 1-2.088 3.805 7 7 0 0 0-2.766-4.258A6 6 0 0 1 15 9zm3.844 1.395A6 6 0 0 1 15 21a6.001 6.001 0 0 1-1.93-.324 7 7 0 0 0 2.924-5.944 7 7 0 0 0 2.85-4.337zm-13.682.017a7 7 0 0 0 2.856 4.33A6.988 6.988 0 0 0 8 15a7 7 0 0 0 2.93 5.676A6 6 0 0 1 9 21a6 6 0 0 1-6-6 6 6 0 0 1 2.162-4.588zm3.863 4.92A7 7 0 0 0 12 16a7 7 0 0 0 2.975-.668A6 6 0 0 1 12 20.178a6 6 0 0 1-2.975-4.846z"/></svg>