<?xml version="1.0" encoding="UTF-8" standalone="no"?>
<svg
   viewBox="0 0 24 24"
   height="24"
   width="24"
   version="1.1"
   id="svg10"
   sodipodi:docname="computer-legacy-filled.svg"
   inkscape:version="1.2 (1:1.2.1+202207142221+cd75a1ee6d)"
   xmlns:inkscape="http://www.inkscape.org/namespaces/inkscape"
   xmlns:sodipodi="http://sodipodi.sourceforge.net/DTD/sodipodi-0.dtd"
   xmlns="http://www.w3.org/2000/svg"
   xmlns:svg="http://www.w3.org/2000/svg">
  <defs
     id="defs14" />
  <sodipodi:namedview
     id="namedview12"
     pagecolor="#ffffff"
     bordercolor="#666666"
     borderopacity="1.0"
     inkscape:pageshadow="2"
     inkscape:pageopacity="0.0"
     inkscape:pagecheckerboard="0"
     showgrid="true"
     inkscape:zoom="33.457231"
     inkscape:cx="10.10245"
     inkscape:cy="9.7138941"
     inkscape:window-width="1920"
     inkscape:window-height="1043"
     inkscape:window-x="0"
     inkscape:window-y="0"
     inkscape:window-maximized="1"
     inkscape:current-layer="svg10"
     inkscape:showpageshadow="2"
     inkscape:deskcolor="#d1d1d1">
    <inkscape:grid
       type="xygrid"
       id="grid9" />
    <inkscape:grid
       type="xygrid"
       id="grid826"
       dotted="true"
       spacingx="0.5"
       spacingy="0.5"
       empspacing="10" />
  </sodipodi:namedview>
  <path
     id="rect439"
     style="color:#000000;fill:#808080;stroke-linejoin:round"
     d="m 6.4726562,2 c -2.4719017,0.010987 -2.4726562,0.1875252 -2.4726562,3 v 8 c 0,2.999973 2.7e-5,3 3,3 h 2 6 2 c 2.999973,0 3,-2.7e-5 3,-3 v -8 c 0,-2.999973 -2.7e-5,-3 -3,-3 h -10 c -0.1874982,0 -0.3625498,-7.324e-4 -0.5273438,0 z m 2.0273438,2 h 7 c 1.384997,0 2.5,1.1150042 2.5,2.5 v 5 c 0,1.384997 -1.115003,2.5 -2.5,2.5 h -7 c -1.3849958,0 -2.5,-1.115003 -2.5,-2.5 v -5 c 0,-1.3849958 1.1150042,-2.5 2.5,-2.5 z m 0.5839844,1 c -1.1541634,0 -2.0839844,0.8920033 -2.0839844,2 v 4 c 0,1.107997 0.929821,2 2.0839844,2 h 5.8320316 c 1.154161,0 2.083984,-0.892003 2.083984,-2 v -4 c 0,-1.1079967 -0.929823,-2 -2.083984,-2 z m -4.5839844,12 c -2.4999875,0 -2.5,1.1e-5 -2.5,2.5 0,2.499989 1.25e-5,2.5 2.5,2.5 h 15 c 2.499989,0 2.5,-1.1e-5 2.5,-2.5 0,-2.499989 -1.1e-5,-2.5 -2.5,-2.5 h -4.5 -6 z m 0,2 c 0.2761424,0 0.5,0.223858 0.5,0.5 0,0.276142 -0.2238576,0.5 -0.5,0.5 -0.2761424,0 -0.5,-0.223858 -0.5,-0.5 0,-0.276142 0.2238576,-0.5 0.5,-0.5 z m 9.5,1 h 6 v 1 h -6 z"
     sodipodi:nodetypes="ssssccssssssssssssssssssssssssssssssccssssssccccc" />
</svg>
