<svg height="24" width="24" xmlns="http://www.w3.org/2000/svg"><path style="color:#000;fill:gray;-inkscape-stroke:none;fill-opacity:1" d="M4.787 2c-.677.006-1.25.048-1.76.303-.34.17-.63.462-.797.838C2.064 3.516 2 3.958 2 4.5v10c0 .542.064.984.23 1.36.167.375.458.668.797.837.68.34 1.473.303 2.473.303H10v1h4v-1h4.5c1 0 1.794.037 2.473-.303.34-.17.63-.462.797-.838.166-.375.23-.817.23-1.359v-10c0-.542-.064-.984-.23-1.36a1.72 1.72 0 0 0-.797-.837C20.293 1.963 19.5 2 18.5 2h-13c-.25 0-.487-.002-.713 0zM5.5 3h13c1 0 1.706.037 2.027.197.16.08.245.163.328.35.084.187.145.495.145.953v10c0 .458-.061.766-.145.953a.615.615 0 0 1-.328.35c-.32.16-1.027.197-2.027.197h-13c-1 0-1.706-.037-2.027-.197a.615.615 0 0 1-.328-.35C3.06 15.266 3 14.958 3 14.5v-10c0-.458.061-.766.145-.953a.615.615 0 0 1 .328-.35C3.793 3.037 4.5 3 5.5 3zM6 19l-4 1.5V22h20v-1.5L18 19H6z"/></svg>