<svg height="24" width="24" xmlns="http://www.w3.org/2000/svg"><path style="color:#000;display:inline;overflow:visible;visibility:visible;fill:gray;fill-opacity:1;fill-rule:nonzero;stroke:none;stroke-width:3.74851;marker:none;enable-background:accumulate" d="M12 2A10 10 0 0 0 2 12a10 10 0 0 0 10 10 10 10 0 0 0 10-10A10 10 0 0 0 12 2zm0 1a9 9 0 0 1 9 9 9 9 0 0 1-9 9 9 9 0 0 1-9-9 9 9 0 0 1 9-9zm5.303 3.697c-2.187.797-4.743 2.094-6.143 2.832a2.923 2.923 0 0 0-.924.711c-.05.045-.101.09-.15.139a2.923 2.923 0 0 0-.557.781c-.738 1.4-2.035 3.956-2.832 6.143 2.236-.814 4.89-2.164 6.266-2.893a2.925 2.925 0 0 0 .799-.648 2.914 2.914 0 0 0 .648-.797c.729-1.376 2.079-4.032 2.893-6.268zM12 11a1 1 0 0 1 1 1 1 1 0 0 1-1 1 1 1 0 0 1-1-1 1 1 0 0 1 1-1z"/></svg>