<?xml version="1.0" encoding="UTF-8" standalone="no"?>
<svg
   height="24"
   width="24"
   version="1.1"
   id="svg4"
   sodipodi:docname="copy-filled.svg"
   inkscape:version="1.2 (1:1.2.1+202207142221+cd75a1ee6d)"
   xmlns:inkscape="http://www.inkscape.org/namespaces/inkscape"
   xmlns:sodipodi="http://sodipodi.sourceforge.net/DTD/sodipodi-0.dtd"
   xmlns="http://www.w3.org/2000/svg"
   xmlns:svg="http://www.w3.org/2000/svg">
  <defs
     id="defs8" />
  <sodipodi:namedview
     id="namedview6"
     pagecolor="#ffffff"
     bordercolor="#666666"
     borderopacity="1.0"
     inkscape:showpageshadow="2"
     inkscape:pageopacity="0.0"
     inkscape:pagecheckerboard="0"
     inkscape:deskcolor="#d1d1d1"
     showgrid="true"
     inkscape:zoom="27.812867"
     inkscape:cx="11.865012"
     inkscape:cy="11.61333"
     inkscape:window-width="1920"
     inkscape:window-height="1011"
     inkscape:window-x="0"
     inkscape:window-y="0"
     inkscape:window-maximized="1"
     inkscape:current-layer="svg4">
    <inkscape:grid
       type="xygrid"
       id="grid237" />
    <inkscape:grid
       dotted="true"
       spacingx="0.5"
       spacingy="0.5"
       empspacing="10"
       type="xygrid"
       id="grid291" />
  </sodipodi:namedview>
  <path
     id="path304"
     style="color:#000000;fill:#808080;stroke-width:1px;-inkscape-stroke:none"
     d="M 14.212891 4 C 13.987242 3.9981375 13.749999 4.0019531 13.5 4.0019531 L 8.4960938 4.0019531 L 8.4921875 4.0019531 C 7.4962075 4.0191581 6.7068739 3.9834225 6.0292969 4.3164062 C 5.6905082 4.4828984 5.3981476 4.7726897 5.2304688 5.1464844 C 5.0627898 5.5202793 5 5.9603134 5 6.5019531 L 5 15.501953 C 5 16.049115 5.0744982 16.497232 5.2558594 16.873047 C 5.4236181 17.220673 5.6944022 17.488816 6.0058594 17.658203 C 6.0046045 17.605238 6 17.55338 6 17.5 L 6 8.5 C 6 7.8810781 6.0688843 7.290512 6.3183594 6.734375 C 6.5847045 6.1406304 7.0412528 5.684652 7.5878906 5.4160156 C 8.5667822 4.934956 9.5116643 5.016634 10.474609 5 L 10.484375 5 L 10.496094 5 L 15.5 5 C 15.743881 5 15.987839 4.9942917 16.230469 4.9941406 C 16.387002 4.9940431 16.542878 4.9969814 16.699219 5.0039062 C 16.527167 4.6951615 16.268913 4.4528155 15.972656 4.3046875 C 15.463495 4.0501064 14.889836 4.0055874 14.212891 4 z " />
  <path
     id="path295"
     style="color:#000000;fill:#808080;stroke-width:1px;-inkscape-stroke:none"
     d="M 10.492188 6 C 9.496207 6.017205 8.7068746 5.9814688 8.0292969 6.3144531 C 7.6905079 6.4809454 7.3981478 6.7707362 7.2304688 7.1445312 C 7.0627897 7.5183265 7 7.9583597 7 8.5 L 7 17.5 C 7 18.047162 7.0744984 18.495279 7.2558594 18.871094 C 7.4372204 19.246906 7.7385639 19.531937 8.0820312 19.697266 C 8.768966 20.027921 9.5636578 19.994467 10.496094 20 L 10.498047 20 L 15.5 20 C 16.499997 20 17.293773 20.036708 17.972656 19.697266 C 18.312099 19.527544 18.602661 19.234832 18.769531 18.859375 C 18.936401 18.483918 19 18.041664 19 17.5 L 19 8.5 C 19 7.9583349 18.9364 7.5160812 18.769531 7.140625 C 18.602661 6.7651688 18.312099 6.4724552 17.972656 6.3027344 C 17.293773 5.9632926 16.499997 6 15.5 6 L 10.496094 6 L 10.492188 6 z M 10 9 L 16 9 L 16 10 L 10 10 L 10 9 z M 10 11 L 16 11 L 16 12 L 10 12 L 10 11 z M 10 13 L 13 13 L 13 14 L 10 14 L 10 13 z " />
</svg>
