<svg height="24" width="24" xmlns="http://www.w3.org/2000/svg"><path d="m9.695 2.609-.005.002c-.068 0-.156.006-.266.018a2.225 2.225 0 0 0-.369.07.79.79 0 0 0-.291.135.466.466 0 0 0-.154.197.559.559 0 0 0-.045.25c.004.093.028.189.048.296.46 2.57.887 5.15 1.316 7.726l1.047-3.91zm1.68 6.268-1.141 4.258.047.287 1.688 2.707.817 3.053c.11.412.27.77.48 1.077.21.306.457.55.739.73.284.18.599.295.946.343.34.052.697.027 1.069-.072.371-.1.691-.258.961-.471a2.375 2.375 0 0 0 .638-.769c.154-.298.25-.631.285-1.004a3.485 3.485 0 0 0-.123-1.172 3.39 3.39 0 0 0-.478-1.067 2.705 2.705 0 0 0-.75-.727 2.36 2.36 0 0 0-.942-.334 2.431 2.431 0 0 0-1.059.07c-.267.08-.524.204-.832.175a.65.65 0 0 1-.295-.1.735.735 0 0 1-.209-.234 2.07 2.07 0 0 1-.133-.376zm0 3.107a.656.656 0 0 1 .656.655.656.656 0 0 1-.656.656.656.656 0 0 1-.656-.656.656.656 0 0 1 .656-.655zm3.748 4.8a1.11 1.11 0 0 1 .768.255c.299.24.518.618.657 1.136.14.524.14.968.005 1.331a1.137 1.137 0 0 1-.813.709c-.399.106-.748.037-1.049-.21-.307-.245-.531-.629-.671-1.154-.138-.517-.135-.955.01-1.313.137-.364.405-.6.802-.707.1-.026.197-.042.29-.047z" style="font-weight:500;font-size:33.109px;line-height:125%;font-family:Ubuntu;-inkscape-font-specification:'Ubuntu Medium';text-align:center;letter-spacing:0;word-spacing:0;text-anchor:middle;fill:gray;stroke-width:1"/><path d="M13.055 2.609v.002h-.001L12.65 4.11h.001L9.667 15.25a2.075 2.075 0 0 1-.133.376.735.735 0 0 1-.209.234.642.642 0 0 1-.295.1c-.306.029-.565-.096-.834-.175a2.431 2.431 0 0 0-1.057-.07 2.359 2.359 0 0 0-.943.334 2.705 2.705 0 0 0-.75.727c-.207.3-.367.655-.477 1.066a3.48 3.48 0 0 0-.123 1.173c.036.372.131.706.286 1.004a2.375 2.375 0 0 0 .638.768c.269.214.589.372.96.47a2.6 2.6 0 0 0 1.069.074c.347-.05.662-.164.946-.345.283-.18.529-.422.738-.729.21-.306.37-.665.48-1.076l.82-3.054 1.686-2.707c.599-3.273 1.031-6.578 1.662-9.844.02-.106.043-.204.046-.296a.644.644 0 0 0-.043-.25.469.469 0 0 0-.154-.198.787.787 0 0 0-.292-.132 2.252 2.252 0 0 0-.37-.07 3.553 3.553 0 0 0-.255-.019zm-1.68 9.375a.656.656 0 0 1 .656.655.656.656 0 0 1-.656.656.656.656 0 0 1-.656-.656.656.656 0 0 1 .656-.655zm-3.748 4.8c.094.005.19.021.29.047.398.107.665.343.803.707.145.358.149.796.01 1.313-.14.525-.364.909-.671 1.154-.3.246-.65.316-1.049.21a1.137 1.137 0 0 1-.813-.709c-.137-.362-.135-.807.005-1.331.14-.517.358-.896.657-1.137a1.11 1.11 0 0 1 .768-.254z" style="font-weight:500;font-size:33.109px;line-height:125%;font-family:Ubuntu;-inkscape-font-specification:'Ubuntu Medium';text-align:center;letter-spacing:0;word-spacing:0;text-anchor:middle;fill:gray;stroke-width:1"/></svg>