<svg height="24" width="24" xmlns="http://www.w3.org/2000/svg"><path style="fill:gray;stroke-width:.221824" d="M13.144 2c-.303.025-.605.037-.902.075l.137.02c.216-.08.529-.048.765-.095zm-1.332.137c-.504.03-1.202.294-.986.055-.822.367-2.28.883-3.1 1.65L7.7 3.67c-.375.45-1.638 1.347-1.738 1.93l-.101.024c-.195.33-.32.705-.476 1.045-.191.326-.308.26-.338.234-.503 1.019-.752 1.876-.967 2.579.153.23.004 1.382.062 2.305-.252 4.557 3.199 8.98 6.97 10.001.553.198 1.372.192 2.07.212-.824-.236-.927-.127-1.731-.407-.58-.273-.71-.584-1.12-.94l.163.286c-.806-.285-.468-.353-1.124-.56l.176-.225c-.261-.02-.693-.44-.81-.674l-.287.013c-.343-.423-.525-.73-.511-.967l-.091.166c-.105-.18-1.265-1.588-.665-1.26-.111-.101-.259-.166-.42-.459l.124-.14c-.288-.372-.533-.847-.514-1.006.154.208.262.248.368.283-.73-1.81-.773-.102-1.325-1.846l.117-.006c-.09-.136-.143-.283-.215-.427l.049-.508c-.526-.606-.145-2.582-.069-3.665.052-.441.436-.912.73-1.648l-.176-.03c.342-.595 1.95-2.393 2.696-2.301.36-.454-.07-.003-.14-.117.793-.822 1.043-.582 1.579-.73.577-.342-.499.135-.225-.13.999-.255.71-.58 2.012-.71.138.079-.319.124-.433.225.832-.407 2.632-.315 3.803.225 1.357.634 2.883 2.51 2.943 4.275l.068.016c-.034.701.107 1.514-.14 2.26l.166-.356c.02.536-.156.797-.316 1.257l-.286.143c-.234.456.025.29-.143.652-.367.325-1.11 1.017-1.348 1.08-.174-.003.115-.204.153-.283-.49.337-.393.505-1.143.71l-.02-.049c-1.847.87-4.415-.853-4.382-3.203-.02.149-.057.112-.097.172-.096-1.21.56-2.424 1.663-2.92 1.08-.534 2.344-.317 3.116.403-.424-.556-1.272-1.145-2.272-1.09-.981.016-1.898.641-2.205 1.318-.502.316-.559 1.218-.778 1.384-.294 2.165.554 3.1 1.99 4.2.112.076.129.12.12.16 1.694.632 3.444.477 4.91-.697.373-.29.78-.785.898-.791-.177.266.03.129-.107.364.37-.599-.161-.245.384-1.035l.202.277c-.076-.498.617-1.102.547-1.889.159-.24.178.261.01.814.234-.614.06-.714.12-1.22.065.17.152.353.195.533-.152-.593.155-1 .232-1.344-.076-.034-.234.26-.27-.44.005-.304.083-.16.113-.234-.06-.035-.217-.27-.312-.717.068-.105.186.275.28.29-.06-.355-.165-.629-.17-.902-.275-.574-.096.08-.319-.244-.292-.912.24-.214.277-.628.443.642.698 1.639.814 2.05a8.398 8.398 0 0 0-.407-1.46c.135.056-.217-1.033.176-.31-.42-1.54-1.794-2.981-3.057-3.656.154.14.35.317.28.345-.629-.374-.519-.402-.609-.56-.511-.209-.544.016-.882 0-.965-.512-1.15-.458-2.038-.778l.039.188c-.64-.213-.746.08-1.436 0-.042-.032.222-.118.44-.15-.619.082-.59-.12-1.195.023.148-.104.306-.175.465-.263zm.73.24.113-.01.01-.015zm.123-.025c.194-.043.24-.081-.352-.098.177.031.382.055.352.098zm-.433 12.218c-.008.04-.041.073-.026.13a3.886 3.886 0 0 1-1.273-.97c.19.28.395.55.66.762-.45-.152-1.048-1.091-1.223-1.13.775 1.389 3.144 2.437 4.385 1.918-.574.021-1.305.01-1.95-.228-.272-.14-.639-.428-.573-.482zM4.51 6.278c0 .009.003.016.004.023 0-.007-.003-.015-.004-.023zm.004.033c.019.28-.118.453-.124.472.013-.007.07-.058.212-.157.226-.51-.055-.194-.088-.315zm-.371 1.484c-.287.367-.133.447-.163.697.104-.319.123-.512.163-.697zm11.811 2.217c-.04.001-.094.105-.12.219.062.032.113.422.172.182.02-.299-.01-.402-.052-.4zm3.627 1.006-.049.124a5.895 5.895 0 0 1-.58 1.843 5.818 5.818 0 0 0 .63-1.967zm-3.851.28c-.052.197-.161.37-.264.554-.62.39-.058-.232 0-.469-.666.84-.093.505-.117.74a2.15 2.15 0 0 0 .38-.825zm-1.342 1.225c-.269.065-.54.067-.817.042-.331.004.062.17.495.238.12-.094.226-.189.322-.28zm-4.18.042c.073.269.222.5.361.736l-.1-.303c-.116-.128-.184-.28-.261-.433zm-.257.456-.046.23c.218.297.39.617.668.847-.2-.39-.348-.549-.622-1.077z"/></svg>