<svg height="24" width="24" xmlns="http://www.w3.org/2000/svg"><path style="color:#000;fill:gray;stroke-linecap:round;-inkscape-stroke:none;fill-opacity:1" d="M3.25 2A1.27 1.27 0 0 0 2 3.25v2.5C2 6.425 2.575 7 3.25 7h2.5A1.27 1.27 0 0 0 7 5.75v-2.5A1.27 1.27 0 0 0 5.75 2h-2.5zM3 3h3v3H3V3zm7.25-1A1.27 1.27 0 0 0 9 3.25v2.5C9 6.425 9.575 7 10.25 7h2.5A1.27 1.27 0 0 0 14 5.75v-2.5A1.27 1.27 0 0 0 12.75 2zM10 3h3v3h-3zm7.25-1A1.27 1.27 0 0 0 16 3.25v2.5c0 .675.575 1.25 1.25 1.25h2.5A1.27 1.27 0 0 0 21 5.75v-2.5A1.27 1.27 0 0 0 19.75 2zM17 3h3v3h-3zM3.25 9A1.27 1.27 0 0 0 2 10.25v2.5c0 .675.575 1.25 1.25 1.25h2.5A1.27 1.27 0 0 0 7 12.75v-2.5A1.27 1.27 0 0 0 5.75 9zM3 10h3v3H3zm7.25-1A1.27 1.27 0 0 0 9 10.25v2.5c0 .675.575 1.25 1.25 1.25h2.5A1.27 1.27 0 0 0 14 12.75v-2.5A1.27 1.27 0 0 0 12.75 9zM10 10h3v3h-3zm7.25-1A1.27 1.27 0 0 0 16 10.25v2.5c0 .675.575 1.25 1.25 1.25h2.5A1.27 1.27 0 0 0 21 12.75v-2.5A1.27 1.27 0 0 0 19.75 9zM17 10h3v3h-3zM3.25 16A1.27 1.27 0 0 0 2 17.25v2.5c0 .675.575 1.25 1.25 1.25h2.5A1.27 1.27 0 0 0 7 19.75v-2.5A1.27 1.27 0 0 0 5.75 16zM3 17h3v3H3zm7.25-1A1.27 1.27 0 0 0 9 17.25v2.5c0 .675.575 1.25 1.25 1.25h2.5A1.27 1.27 0 0 0 14 19.75v-2.5A1.27 1.27 0 0 0 12.75 16zM10 17h3v3h-3zm7.25-1A1.27 1.27 0 0 0 16 17.25v2.5c0 .675.575 1.25 1.25 1.25h2.5A1.27 1.27 0 0 0 21 19.75v-2.5A1.27 1.27 0 0 0 19.75 16zM17 17h3v3h-3z"/></svg>