<svg height="24" width="24" xmlns="http://www.w3.org/2000/svg"><path style="color:#000;fill:gray;fill-opacity:1" d="M8 2v20h7.5c1.5 0 2.556.05 3.383-.445.413-.248.72-.656.888-1.162.17-.507.229-1.115.229-1.893v-13c0-.778-.06-1.386-.229-1.893-.168-.506-.475-.914-.888-1.162C18.056 1.95 17 2 15.5 2H8zm-1 .004c-1.175.013-2.037.081-2.723.424A2.097 2.097 0 0 0 3.25 3.592C3.059 4.109 3 4.722 3 5.5v13c0 .778.059 1.391.25 1.908.191.517.553.927 1.027 1.164.686.343 1.547.413 2.723.426V2.004zM14.588 12c.44 0 .813.066 1.115.195.311.121.562.293.752.518.19.216.33.475.416.777.086.303.129.632.129.987V18.7a4.912 4.912 0 0 1-.377.092l-.57.09a7.76 7.76 0 0 1-.725.078c-.26.026-.528.039-.805.039a3.94 3.94 0 0 1-.984-.117 2.3 2.3 0 0 1-.777-.363 1.91 1.91 0 0 1-.52-.647c-.12-.268-.181-.592-.181-.973 0-.363.068-.674.207-.933.138-.26.333-.47.584-.635.25-.173.548-.3.894-.377a5.143 5.143 0 0 1 1.129-.117c.121 0 .245.01.375.027.138.009.268.025.389.051.13.017.237.038.324.064a.83.83 0 0 1 .195.053v-.414c0-.233-.018-.458-.053-.674a1.398 1.398 0 0 0-.232-.597 1.146 1.146 0 0 0-.494-.428c-.207-.112-.483-.168-.828-.168-.493 0-.862.034-1.104.103-.242.07-.419.125-.531.168l-.115-.738c.147-.069.371-.135.674-.195.31-.06.68-.09 1.113-.09zm.26 3.564c-.208 0-.424.019-.649.053-.224.026-.43.09-.62.194a1.24 1.24 0 0 0-.468.402c-.12.173-.181.402-.181.687 0 .251.04.462.117.635.086.173.203.31.35.414.155.104.337.183.544.235.216.043.457.064.725.064.328 0 .614-.008.855-.025.251-.026.464-.058.637-.092v-2.36a2.371 2.371 0 0 0-.455-.128 3.665 3.665 0 0 0-.855-.079z"/></svg>