<svg height="24" width="24" xmlns="http://www.w3.org/2000/svg"><path style="color:#000;fill:gray;fill-opacity:1" d="M7.129 2c-1.247.01-2.14.072-2.852.428A2.097 2.097 0 0 0 3.25 3.592C3.059 4.109 3 4.722 3 5.5v13c0 .778.059 1.391.25 1.908.191.517.553.927 1.027 1.164.95.475 2.223.428 4.223.428h7c1.5 0 2.556.05 3.383-.445.413-.248.72-.656.888-1.162.17-.507.229-1.115.229-1.893v-13c0-.778-.06-1.386-.229-1.893-.168-.506-.475-.914-.888-1.162C18.056 1.95 17 2 15.5 2h-7c-.5 0-.956-.003-1.371 0zM8.5 3h7c1.5 0 2.444.05 2.867.305.212.127.343.281.455.619.113.337.178.854.178 1.576v13c0 .722-.065 1.239-.178 1.576-.112.338-.243.492-.455.62C17.944 20.948 17 21 15.5 21h-7c-.563 0-1.057-.004-1.5-.016V3.016C7.443 3.004 7.937 3 8.5 3z"/><path d="M14.589 12c-.432 0-.804.03-1.115.09a3.163 3.163 0 0 0-.674.195l.117.739c.112-.043.29-.1.531-.168.242-.07.61-.104 1.102-.104.346 0 .622.056.83.168.216.104.38.247.492.428.121.173.199.372.233.596.035.217.052.441.052.674v.415a.83.83 0 0 0-.194-.052 2.12 2.12 0 0 0-.324-.064 2.64 2.64 0 0 0-.39-.052 2.84 2.84 0 0 0-.375-.026 5.19 5.19 0 0 0-1.128.116 2.541 2.541 0 0 0-.894.376c-.25.165-.445.376-.583.636-.139.259-.208.57-.208.933 0 .38.06.704.182.972.13.26.302.476.518.648.225.165.484.285.778.363.302.078.63.117.985.117.277 0 .545-.013.804-.039.268-.017.51-.043.726-.078l.57-.09a5.08 5.08 0 0 0 .376-.091v-4.226a3.55 3.55 0 0 0-.13-.985 1.984 1.984 0 0 0-.414-.778 1.832 1.832 0 0 0-.752-.519c-.303-.13-.674-.194-1.115-.194zm.26 3.565c.362 0 .647.026.855.078.207.043.358.086.453.13v2.358a6.965 6.965 0 0 1-.635.091c-.242.017-.527.026-.855.026-.268 0-.51-.022-.726-.065a1.732 1.732 0 0 1-.545-.233 1.097 1.097 0 0 1-.35-.415 1.545 1.545 0 0 1-.116-.635c0-.285.06-.514.181-.687.121-.173.277-.307.467-.402.19-.104.397-.169.622-.194.225-.035.44-.052.648-.052z" style="font-style:normal;font-weight:400;font-size:118.519px;line-height:1000%;font-family:sans-serif;letter-spacing:0;word-spacing:0;display:inline;fill:gray;fill-opacity:1;stroke:none;stroke-width:.30024px;stroke-linecap:butt;stroke-linejoin:miter;stroke-opacity:1;enable-background:new"/></svg>