<svg height="24" width="24" xmlns="http://www.w3.org/2000/svg"><path style="color:#000;fill:gray;fill-opacity:1;-inkscape-stroke:none" d="M19.213 3c-.226-.002-.463.002-.713.002h-13c-.25 0-.487-.002-.713 0-.677.006-1.25.048-1.76.303-.34.17-.63.462-.797.838-.166.375-.23.817-.23 1.359v10c0 .542.064.984.23 1.36.167.375.458.667.797.837.68.34 1.473.303 2.473.303h13c1 0 1.794.037 2.473-.303.34-.17.63-.462.797-.838.166-.375.23-.817.23-1.359v-10c0-.542-.064-.984-.23-1.36a1.72 1.72 0 0 0-.797-.837c-.51-.255-1.083-.3-1.76-.305zM4.35 4.002h15.3c.748 0 1.35.58 1.35 1.3v10.4c0 .72-.602 1.3-1.35 1.3H4.35c-.748 0-1.35-.58-1.35-1.3v-10.4c0-.72.602-1.3 1.35-1.3zm.85 1c-.64 0-1.152.454-1.192 1.03l15.068 9.939c.53-.114.924-.547.924-1.069v-8.8c0-.61-.534-1.1-1.2-1.1H5.2zM4 7.227v7.675c0 .61.534 1.1 1.2 1.1h13.6l.022-.002h-1.521L4 7.227zm1.553 2.775a.5.5 0 0 1 .224.082l6 4A.5.5 0 0 1 11.5 15h-6a.5.5 0 0 1-.5-.5v-4a.5.5 0 0 1 .264-.441.5.5 0 0 1 .17-.055.5.5 0 0 1 .119-.002zM6 11.434V14h3.848L6 11.434z"/><path style="color:#000;fill:gray;fill-opacity:1" d="M9 19v.125C9 21 8.375 21 7.125 21H6v1h12v-1h-1.125C15.625 21 15 21 15 19.125V19z"/></svg>