<svg height="24" width="24" xmlns="http://www.w3.org/2000/svg"><path style="color:#000;fill:gray;stroke-linecap:round;-inkscape-stroke:none" d="M6 12.582v4.605l.113.14s.491.585 1.453 1.13c.963.545 2.43 1.078 4.434 1.078s3.471-.533 4.434-1.078c.962-.545 1.453-1.13 1.453-1.13l.113-.14v-4.605l-1 .334v3.86c-.061.07-.309.386-1.059.81-.83.47-2.113.95-3.941.95-1.828 0-3.112-.48-3.941-.95-.75-.424-.998-.74-1.059-.81v-3.86l-1-.334z"/><path style="color:#000;fill:gray;stroke-linecap:round;-inkscape-stroke:none" d="M12 5.453 1.62 10.066l2.38.795V15.5a.5.5 0 0 0 1 0v-4.9a.499.499 0 0 0-.004-.057.5.5 0 0 0-.338-.518l-.277-.091L12 6.547l7.62 3.387L12 12.473 6.658 10.69a.5.5 0 1 0-.316.95L12 13.527l10.38-3.46z"/></svg>