<svg width="24" height="24" xmlns="http://www.w3.org/2000/svg"><path style="font-variant-ligatures:none;font-variant-position:normal;font-variant-caps:normal;font-variant-numeric:normal;font-variant-alternates:normal;font-feature-settings:normal;text-indent:0;text-decoration-line:none;text-decoration-style:solid;text-decoration-color:#000;text-transform:none;shape-padding:0;isolation:auto;mix-blend-mode:normal;fill:gray;stroke-width:1.25" d="M21 2a54.134 54.134 0 0 0-3.174.818A45.753 45.753 0 0 0 14.74 3.84l1.856 1.857-4.95 4.95.708.707 4.949-4.95 1.853 1.856a53.35 53.35 0 0 0 1.014-3.098c.308-1.07.586-2.124.83-3.162z"/><path style="color:#000;fill:gray" d="M5 6c-.861 0-1.628.295-2.166.834C2.295 7.372 2 8.139 2 9v9c0 .861.295 1.628.834 2.166C3.372 20.705 4.139 21 5 21h10c.108 0 .214-.005.318-.014.731-.064 1.377-.349 1.848-.82.539-.538.834-1.305.834-2.166V9c0-.18-.016-.354-.041-.523l-.656-.659-.444.444A2 2 0 0 1 17 9v9c0 1.108-.892 2-2 2H5c-1.108 0-2-.892-2-2V9c0-1.108.892-2 2-2h8.879l1-1H5zm1 2c-1.108 0-2 .892-2 2v7c0 1.108.892 2 2 2h8c1.108 0 2-.892 2-2v-7a2 2 0 0 0-.14-.738l-2.8 2.799a1 1 0 0 1-1.414 0l-.707-.707a1 1 0 0 1 0-1.415L12.88 8H6z"/></svg>