<svg height="24" width="24" xmlns="http://www.w3.org/2000/svg"><path style="color:#000;fill:gray;fill-opacity:1;-inkscape-stroke:none" d="M12 5c-7.31 0-9.967 6.82-9.967 6.82l-.068.18.068.18S4.69 19 12 19c7.31 0 9.967-6.82 9.967-6.82l.068-.18-.068-.18S19.31 5 12 5zm0 2a5 5 0 0 1 5 5 5 5 0 0 1-5 5 5 5 0 0 1-5-5 5 5 0 0 1 5-5zm0 1a4 4 0 0 0-4 4 4 4 0 0 0 4 4 4 4 0 0 0 4-4 4 4 0 0 0-4-4zm0 1a3 3 0 0 1 .883.133A1.5 1.5 0 0 0 12 10.5a1.5 1.5 0 0 0 1.5 1.5 1.5 1.5 0 0 0 1.367-.883A3 3 0 0 1 15 12a3 3 0 0 1-3 3 3 3 0 0 1-3-3 3 3 0 0 1 3-3z"/></svg>