<svg height="24" width="24" xmlns="http://www.w3.org/2000/svg"><path style="color:#000;fill:gray;stroke-linecap:square;stroke-linejoin:round;-inkscape-stroke:none;fill-opacity:1" d="M12 9a3 3 0 0 0-3 3 3 3 0 0 0 3 3 3 3 0 0 0 3-3 3 3 0 0 0-.133-.883A1.5 1.5 0 0 1 13.5 12a1.5 1.5 0 0 1-1.5-1.5 1.5 1.5 0 0 1 .883-1.367A3 3 0 0 0 12 9z"/><path style="color:#000;fill:gray;stroke-linecap:square;stroke-linejoin:round;-inkscape-stroke:none;fill-opacity:1" d="M12 7a5 5 0 0 0-5 5 5 5 0 0 0 5 5 5 5 0 0 0 5-5 5 5 0 0 0-5-5zm0 1a4 4 0 0 1 4 4 4 4 0 0 1-4 4 4 4 0 0 1-4-4 4 4 0 0 1 4-4z"/><path style="color:#000;fill:gray;-inkscape-stroke:none;fill-opacity:1" d="M12 5c-7.31 0-9.967 6.82-9.967 6.82l-.068.18.068.18S4.69 19 12 19c7.31 0 9.967-6.82 9.967-6.82l.068-.18-.068-.18S19.31 5 12 5zm0 1c6.379 0 8.733 5.477 8.945 6-.212.523-2.566 6-8.945 6-6.379 0-8.733-5.477-8.945-6C3.267 11.477 5.62 6 12 6z"/></svg>