<svg width="24" height="24" xmlns="http://www.w3.org/2000/svg"><path style="fill:gray;fill-opacity:1;stroke-width:1.5;stroke-linecap:square;stroke-linejoin:round" d="M13 16v1h1c1.108 0 2 .892 2 2v3h1v-2.5a.499.499 0 1 1 1 0V22h1v-3c0-1.108.892-2 2-2h1v-1h-9z"/><path style="fill:gray;fill-opacity:1;stroke-width:1.5;stroke-linecap:square;stroke-linejoin:round" d="M2 8v1h1.13A3.86 3.86 0 0 1 7 12.87V20h1v-4.5c0-.831.669-1.5 1.5-1.5s1.5.669 1.5 1.5V20h1v-7.13A3.86 3.86 0 0 1 15.87 9H17V8H2z"/><circle style="fill:gray;stroke-width:1.5;stroke-linecap:square;stroke-linejoin:round;fill-opacity:1" cx="9.5" cy="4.5" r="2.5"/><circle style="fill:gray;fill-opacity:1;stroke-width:1.5;stroke-linecap:square;stroke-linejoin:round" cx="17.5" cy="13.5" r="1.5"/></svg>