<svg height="24" width="24" xmlns="http://www.w3.org/2000/svg"><path style="fill:gray;fill-opacity:1;stroke-width:.5;stroke-linecap:square;stroke-linejoin:round" d="M16.004 12.95a4 4 0 0 0-3.865 3.003 3 3 0 1 0-.135 5.996h7.5A2.5 2.5 0 0 0 20 17a4.32 4.32 0 0 0 .004-.05 4 4 0 0 0-4-4z"/><path style="opacity:1;fill:gray;stroke:none;stroke-width:2;stroke-linecap:round;stroke-linejoin:round" d="M12.707 2.293A7.5 7.5 0 0 1 14 6.5 7.5 7.5 0 0 1 6.5 14a7.5 7.5 0 0 1-4.2-1.299 8.5 8.5 0 0 0 5.72 5.922c.154-1.85 1.613-3.298 3.437-3.562.765-1.835 2.514-3.107 4.545-3.112a1 1 0 0 0 .002 0c.995 0 1.914.3 2.682.81A8.5 8.5 0 0 0 19 10.5a8.5 8.5 0 0 0-6.293-8.207z"/></svg>