<svg height="24" width="24" xmlns="http://www.w3.org/2000/svg"><path style="fill:gray;fill-opacity:1;stroke-width:.5;stroke-linecap:square;stroke-linejoin:round" d="M11 2v3h1V2h-1zM7.184 3.023l-.868.5 1.5 2.598.868-.5-1.5-2.598zm8.632 0-1.5 2.598.868.5 1.5-2.598-.868-.5zM11.5 6A5.5 5.5 0 0 0 6 11.5a5.5 5.5 0 0 0 3.025 4.885c.249-.27.535-.503.85-.698A4.5 4.5 0 0 1 7 11.5 4.5 4.5 0 0 1 11.5 7a4.5 4.5 0 0 1 4.5 4.5 4.5 4.5 0 0 1-.049.502l.047-.002A1 1 0 0 0 16 12c.323 0 .637.032.941.092A5.5 5.5 0 0 0 17 11.5 5.5 5.5 0 0 0 11.5 6zm-7.977.316-.5.868 2.598 1.5.5-.868-2.598-1.5zm15.954 0-2.598 1.5.5.868 2.598-1.5-.5-.868zM2 11v1h3v-1H2zm16 0v1h3v-1h-3zM5.621 14.316l-2.598 1.5.5.868 2.598-1.5-.5-.868zm2.195 2.563-1.5 2.598.868.5.851-1.475a3.82 3.82 0 0 1 .395-1.27l-.614-.353z"/><path style="fill:gray;fill-opacity:1;stroke-width:.5;stroke-linecap:square;stroke-linejoin:round" d="M16 13a4 4 0 0 0-3.865 3.004A3 3 0 1 0 12 22h7.5a2.5 2.5 0 0 0 .496-4.95A4.32 4.32 0 0 0 20 17a4 4 0 0 0-4-4zm0 1a3 3 0 0 1 3 3l-.004.059a3 3 0 0 1-.26 1.152 1.5 1.5 0 0 1 1.12-.168A1.5 1.5 0 0 1 19.5 21H12a2 2 0 1 1 1.021-3.719A2.996 2.996 0 0 1 13 17c.003-.266.04-.53.113-.785A3 3 0 0 1 16 14z"/></svg>