<svg height="24" width="24" xmlns="http://www.w3.org/2000/svg"><path style="fill:gray;stroke:none;stroke-width:2;stroke-linecap:round;stroke-linejoin:round" d="M10.5 3A7.5 7.5 0 0 0 3 10.5a7.5 7.5 0 0 0 1.52 4.51c.105-.19.195-.343.236-.41l.01-.014.1-.15.273-.278A6.5 6.5 0 0 1 4 10.5 6.5 6.5 0 0 1 10.5 4a6.5 6.5 0 0 1 3.588 1.082l.713-.723A7.5 7.5 0 0 0 10.5 3zm0 2A5.5 5.5 0 0 0 5 10.5a5.5 5.5 0 0 0 .861 2.924l7.51-7.615A5.5 5.5 0 0 0 10.5 5zm7.475 5.842-1.164 1.146a6.5 6.5 0 0 1-4.91 4.842l-1.169 1.152a7.5 7.5 0 0 0 4.706-1.837l4.208 4.209.354.353.707-.707-.353-.354-4.21-4.209a7.5 7.5 0 0 0 1.83-4.595zm-3.526 3.476-.146.143a5.5 5.5 0 0 0 .146-.143z"/><path d="m17.297 3.25-.44.45L5.644 15.069l-.037.056c-.077.124-.338.563-.73 1.36A22.81 22.81 0 0 0 3.615 19.6l-.364 1.15 1.15-.364a22.704 22.704 0 0 0 3.115-1.265c.798-.391 1.234-.65 1.36-.73l.056-.036L20.75 6.703zM6.864 15.613l1.522 1.525-.221.218c.009-.006-.474.284-1.201.643-.268.131-.67.277-1.043.422l-.342-.342c.145-.373.291-.775.422-1.043.359-.727.648-1.207.643-1.2z" style="font-weight:400;line-height:125%;-inkscape-font-specification:Ubuntu;text-align:center;fill:gray;stroke-width:.8" font-size="15" font-family="Ubuntu" letter-spacing="0" word-spacing="0" text-anchor="middle"/></svg>