<svg height="24" width="24" xmlns="http://www.w3.org/2000/svg"><path style="color:#000;fill:gray;stroke-linecap:square;stroke-linejoin:round;-inkscape-stroke:none;fill-opacity:1" d="M10.5 3A7.5 7.5 0 0 0 3 10.5a7.5 7.5 0 0 0 1.52 4.51c.105-.19.195-.343.236-.41l.01-.014.1-.15.284-.29A6.5 6.5 0 0 1 4 10.5 6.5 6.5 0 0 1 10.5 4a6.5 6.5 0 0 1 3.59 1.08l.71-.72A7.5 7.5 0 0 0 10.5 3zm7.475 7.842L16.8 12a6.5 6.5 0 0 1-4.895 4.826l-1.174 1.156a7.5 7.5 0 0 0 4.706-1.837l.208.209 4 4 .354.353.707-.707-.353-.354-4-4-.21-.209a7.5 7.5 0 0 0 1.83-4.595z"/><path d="m17.297 3.25-.44.45L5.644 15.069l-.037.056c-.077.124-.338.563-.73 1.36A22.81 22.81 0 0 0 3.615 19.6l-.364 1.15 1.15-.364a22.704 22.704 0 0 0 3.115-1.265c.798-.391 1.234-.65 1.36-.73l.056-.036L20.75 6.703zM6.864 15.613l1.522 1.525-.221.218c.009-.006-.474.284-1.201.643-.268.131-.67.277-1.043.422l-.342-.342c.145-.373.291-.775.422-1.043.359-.727.648-1.207.643-1.2z" style="font-weight:400;line-height:125%;-inkscape-font-specification:Ubuntu;text-align:center;fill:gray;stroke-width:.8" font-size="15" font-family="Ubuntu" letter-spacing="0" word-spacing="0" text-anchor="middle"/></svg>