<svg height="24" width="24" xmlns="http://www.w3.org/2000/svg"><path style="color:#000;fill:gray;fill-opacity:1;stroke-linecap:round;-inkscape-stroke:none" d="M11.5 10a.5.5 0 0 0-.5.5v6c0 2.767 2.2 4.4 2.2 4.4a.5.5 0 0 0 .7-.1.5.5 0 0 0-.1-.7S12 18.733 12 16.5v-6a.5.5 0 0 0-.5-.5zm-4 4a.5.5 0 0 0-.5.5v5a.5.5 0 0 0 .5.5.5.5 0 0 0 .5-.5v-5a.5.5 0 0 0-.5-.5z"/><path style="color:#000;fill:gray;fill-opacity:1;stroke-linecap:round;-inkscape-stroke:none" d="M11.5 6c-1.639 0-2.836.728-3.541 1.785C7.254 8.842 7 10.183 7 11.5a.5.5 0 0 0 .5.5.5.5 0 0 0 .5-.5c0-1.183.246-2.342.791-3.16C9.336 7.522 10.139 7 11.5 7s2.164.522 2.709 1.34c.545.818.791 1.977.791 3.16v4c0 2.767 2.2 4.4 2.2 4.4a.5.5 0 0 0 .7-.1.5.5 0 0 0-.1-.7S16 17.733 16 15.5v-4c0-1.317-.254-2.658-.959-3.715S13.139 6 11.5 6z"/><path style="color:#000;fill:gray;fill-opacity:1;stroke-linecap:round;-inkscape-stroke:none" d="M11.5 2c-1.528 0-2.893.315-4.059.883a.5.5 0 0 0-.23.668.5.5 0 0 0 .668.23C8.899 3.284 10.109 3 11.5 3c2.39 0 4.242.823 5.518 2.158C18.294 6.494 19 8.361 19 10.5v1a.5.5 0 0 0 .5.5.5.5 0 0 0 .5-.5v-1c0-2.36-.789-4.494-2.26-6.033C16.27 2.927 14.122 2 11.5 2zM4.957 5.598a.5.5 0 0 0-.687.164C3.439 7.115 3 8.742 3 10.5v6a.5.5 0 0 0 .5.5.5.5 0 0 0 .5-.5v-6c0-1.592.395-3.032 1.121-4.215a.5.5 0 0 0-.164-.687z"/><path style="color:#000;fill:gray;fill-opacity:1;stroke-width:2;stroke-linecap:round;stroke-linejoin:round;-inkscape-stroke:none" d="M20 13.5a.5.5 0 0 1-.5.5.5.5 0 0 1-.5-.5.5.5 0 0 1 .5-.5.5.5 0 0 1 .5.5z"/></svg>