<svg height="24" width="24" xmlns="http://www.w3.org/2000/svg"><path style="color:#000;fill:gray;stroke-linecap:round;stroke-linejoin:round" d="M6.5 2a.5.5 0 0 0-.5.5V22h1v-8.994c1.92.026 3.121.2 3.889.435.833.256 1.166.55 1.523.903s.75.81 1.498 1.133c.749.323 1.81.515 3.588.523h.002c.5 0 1.064.027 1.598-.24S20 14.86 20 14V8c0-.818-.366-1.436-.889-1.715C18.59 6.006 18.017 6 17.5 6c-1.714 0-2.648-.187-3.209-.428-.561-.24-.793-.53-1.187-.926-.395-.394-.941-.849-1.924-1.154-.908-.281-2.196-.462-4.18-.488V2.5a.5.5 0 0 0-.5-.5z"/></svg>