<svg height="24" width="24" xmlns="http://www.w3.org/2000/svg"><path style="color:#000;fill:gray;stroke-linecap:round;stroke-linejoin:round" d="M6.5 2a.5.5 0 0 0-.5.5V22h1v-8.994c1.92.026 3.121.2 3.889.435.833.256 1.166.55 1.523.903s.75.81 1.498 1.133c.749.323 1.81.515 3.588.523h.002c.5 0 1.064.027 1.598-.24S20 14.86 20 14V8c0-.818-.366-1.436-.889-1.715C18.59 6.006 18.017 6 17.5 6c-1.714 0-2.648-.187-3.209-.428-.561-.24-.793-.53-1.187-.926-.395-.394-.941-.849-1.924-1.154-.908-.281-2.196-.462-4.18-.488V2.5a.5.5 0 0 0-.5-.5zM7 4.05c1.793.038 3.148.167 3.883.395.83.258 1.158.553 1.513.909.356.355.75.814 1.5 1.136.752.322 1.818.51 3.604.51.483 0 .913.044 1.14.166.228.122.36.255.36.834v6c0 .639-.132.757-.348.865-.215.108-.651.135-1.15.135-1.706-.008-2.635-.2-3.195-.441-.561-.243-.794-.533-1.192-.926-.397-.393-.947-.845-1.931-1.147-.88-.27-2.309-.399-4.184-.433V4.05z"/></svg>