<svg height="24" width="24" xmlns="http://www.w3.org/2000/svg"><path style="color:#000;fill:gray;-inkscape-stroke:none;fill-opacity:1" d="M7.787 3c-.677.006-1.25.048-1.76.303-.34.17-.63.462-.797.838C5.064 4.516 5 4.958 5 5.5v13c0 .542.064.984.23 1.36.167.375.458.668.797.837.68.34 1.473.303 2.473.303h7c1 0 1.794.037 2.473-.303.34-.17.63-.462.797-.838.166-.375.23-.817.23-1.359v-8.117l-1-2V5.5c0-.542-.064-.984-.23-1.36a1.72 1.72 0 0 0-.797-.837C16.293 2.963 15.5 3 14.5 3h-6c-.25 0-.487-.002-.713 0zM8.5 4h6c1 0 1.706.037 2.027.197.16.08.245.163.328.35.084.187.145.495.145.953v3.117l1 2V18.5c0 .458-.061.766-.145.953a.615.615 0 0 1-.328.35c-.32.16-1.027.197-2.027.197h-7c-1 0-1.706-.037-2.027-.197a.615.615 0 0 1-.328-.35C6.06 19.266 6 18.958 6 18.5v-13c0-.458.061-.766.145-.953a.615.615 0 0 1 .328-.35C6.793 4.037 7.5 4 8.5 4zM8 6v2h1V6H8zm3 0v2h1V6h-1zm3 0v2h1V6h-1z"/></svg>