<?xml version="1.0" encoding="UTF-8" standalone="no"?>
<svg viewBox="0 0 24 24" height="24" width="24" version="1.1" id="svg8" sodipodi:docname="flip-horizontal.svg" inkscape:version="1.1 (ce6663b3b7, 2021-05-25)"
   xmlns:inkscape="http://www.inkscape.org/namespaces/inkscape"
   xmlns:sodipodi="http://sodipodi.sourceforge.net/DTD/sodipodi-0.dtd"
   xmlns="http://www.w3.org/2000/svg"
   xmlns:svg="http://www.w3.org/2000/svg">
   <defs id="defs12" />
   <sodipodi:namedview id="namedview10" pagecolor="#ffffff" bordercolor="#666666" borderopacity="1.0" inkscape:pageshadow="2" inkscape:pageopacity="0.0" inkscape:pagecheckerboard="0" showgrid="true" inkscape:zoom="28" inkscape:cx="9.5178571" inkscape:cy="9.5714286" inkscape:window-width="1920" inkscape:window-height="1043" inkscape:window-x="1920" inkscape:window-y="0" inkscape:window-maximized="1" inkscape:current-layer="svg8" inkscape:snap-page="true">
      <inkscape:grid type="xygrid" id="grid1005" />
   </sodipodi:namedview>
   <path id="path2" style="color:#000000;line-height:normal;font-variant-ligatures:none;font-variant-position:normal;font-variant-caps:normal;font-variant-numeric:normal;font-variant-alternates:normal;font-feature-settings:normal;text-indent:0;text-align:start;text-decoration-line:none;text-decoration-style:solid;text-decoration-color:#000000;text-transform:none;shape-padding:0;isolation:auto;mix-blend-mode:normal;fill:#808080;stroke-width:1;marker:none" d="M 8 8.375 A 53.5125 53.5125 0 0 0 5.0976562 9.8496094 A 64.44375 64.44375 0 0 0 2.2714844 11.5 A 56 56 0 0 0 5.0976562 13.167969 A 46.21875 46.21875 0 0 0 8 14.625 L 8 12.125 L 8 12 L 16 12 L 16 12.125 L 16 14.625 A 46.21875 46.21875 0 0 0 18.902344 13.167969 A 56 56 0 0 0 21.728516 11.5 A 64.44375 64.44375 0 0 0 18.902344 9.8496094 A 53.5125 53.5125 0 0 0 16 8.375 L 16 11 L 8 11 L 8 8.375 z " />
</svg>
