<?xml version="1.0" encoding="UTF-8" standalone="no"?>
<svg viewBox="0 0 24 24" height="24" width="24" version="1.1" id="svg835" sodipodi:docname="flip-vertical.svg" inkscape:version="1.1 (ce6663b3b7, 2021-05-25)"
   xmlns:inkscape="http://www.inkscape.org/namespaces/inkscape"
   xmlns:sodipodi="http://sodipodi.sourceforge.net/DTD/sodipodi-0.dtd"
   xmlns="http://www.w3.org/2000/svg"
   xmlns:svg="http://www.w3.org/2000/svg">
   <defs id="defs839" />
   <sodipodi:namedview id="namedview837" pagecolor="#ffffff" bordercolor="#666666" borderopacity="1.0" inkscape:pageshadow="2" inkscape:pageopacity="0.0" inkscape:pagecheckerboard="0" showgrid="true" inkscape:zoom="79.19596" inkscape:cx="9.8679276" inkscape:cy="8.535789" inkscape:window-width="1920" inkscape:window-height="1043" inkscape:window-x="1920" inkscape:window-y="0" inkscape:window-maximized="1" inkscape:current-layer="svg835" inkscape:snap-page="true">
      <inkscape:grid type="xygrid" id="grid1005" />
   </sodipodi:namedview>
   <path id="path2" style="color:#000000;line-height:normal;font-variant-ligatures:none;font-variant-position:normal;font-variant-caps:normal;font-variant-numeric:normal;font-variant-alternates:normal;font-feature-settings:normal;text-indent:0;text-align:start;text-decoration-line:none;text-decoration-style:solid;text-decoration-color:#000000;text-transform:none;shape-padding:0;isolation:auto;mix-blend-mode:normal;fill:#808080;stroke-width:1;marker:none" d="m 8.375,16 a 53.5125,53.5125 0 0 0 1.474609,2.902344 64.44375,64.44375 0 0 0 1.650391,2.826172 56,56 0 0 0 1.667969,-2.826172 46.21875,46.21875 0 0 0 1.457031,-2.902344 h -2.5 -0.125 v -8 h 0.125 2.5 a 46.21875,46.21875 0 0 0 -1.457031,-2.902344 56,56 0 0 0 -1.667969,-2.826172 64.44375,64.44375 0 0 0 -1.650391,2.826172 53.5125,53.5125 0 0 0 -1.474609,2.902344 h 2.625 v 8 z" />
</svg>
