<svg height="24" width="24" xmlns="http://www.w3.org/2000/svg"><path style="color:#000;line-height:normal;font-variant-ligatures:none;font-variant-position:normal;font-variant-caps:normal;font-variant-numeric:normal;font-variant-alternates:normal;font-feature-settings:normal;text-indent:0;text-align:start;text-decoration-line:none;text-decoration-style:solid;text-decoration-color:#000;text-transform:none;shape-padding:0;isolation:auto;mix-blend-mode:normal;fill:gray;stroke-width:1;marker:none" d="M8.375 16a53.513 53.513 0 0 0 1.475 2.902 64.444 64.444 0 0 0 1.65 2.827 56 56 0 0 0 1.668-2.827A46.219 46.219 0 0 0 14.625 16H12V8h2.625a46.219 46.219 0 0 0-1.457-2.902A56 56 0 0 0 11.5 2.27a64.444 64.444 0 0 0-1.65 2.827A53.513 53.513 0 0 0 8.375 8H11v8z"/></svg>