<svg height="24" width="24" xmlns="http://www.w3.org/2000/svg"><path style="fill:gray;fill-opacity:1;stroke-width:.5;stroke-linecap:round;stroke-linejoin:round" d="M5.787 3c-.677.006-1.25.048-1.76.303-.34.17-.63.462-.797.838C3.064 4.516 3 4.958 3 5.5v11.207L7.293 21H17.5c1 0 1.794.037 2.473-.303.34-.17.63-.462.797-.838.166-.375.23-.817.23-1.359v-13c0-.542-.064-.984-.23-1.36a1.72 1.72 0 0 0-.797-.837C19.293 2.963 18.5 3 17.5 3h-11c-.25 0-.487-.002-.713 0zM7 13h10v7H7.707L7 19.293V13zm3 1v5h2v-5h-2z"/></svg>