<svg height="24" width="24" xmlns="http://www.w3.org/2000/svg"><path style="fill:gray;stroke-width:.5;stroke-linecap:round;stroke-linejoin:round;fill-opacity:1" d="M5.787 3c-.677.006-1.25.048-1.76.303-.34.17-.63.462-.797.838C3.064 4.516 3 4.958 3 5.5v11.207L7.293 21H17.5c1 0 1.794.037 2.473-.303.34-.17.63-.462.797-.838.166-.375.23-.817.23-1.359v-13c0-.542-.064-.984-.23-1.36a1.72 1.72 0 0 0-.797-.837C19.293 2.963 18.5 3 17.5 3h-11c-.25 0-.487-.002-.713 0zM6.5 4h11c1 0 1.706.037 2.027.197.16.08.245.163.328.35.084.187.145.495.145.953v13c0 .458-.061.766-.145.953a.615.615 0 0 1-.328.35c-.32.16-1.027.197-2.027.197H17v-7H7v6.293l-3-3V5.5c0-.458.061-.766.145-.953a.615.615 0 0 1 .328-.35C4.793 4.037 5.5 4 6.5 4zM10 15h2v4h-2v-4z"/></svg>