<svg height="24" width="24" xmlns="http://www.w3.org/2000/svg"><path style="color:#000;fill:gray;fill-opacity:1;stroke-linecap:round;-inkscape-stroke:none" d="M2 20v1h20v-1zm0-2v1h20v-1zm17.398-5.773zm0 0zM13.5 3a6.51 6.51 0 0 0-6.008 4.023A5.008 5.008 0 0 0 2 12c0 1.126.38 2.163 1.012 3H18.5c.638 0 1.293-.22 1.76-.629.467-.41.77-.992.74-1.853v1c.03.861-.273 1.444-.74 1.853-.408.358-.958.571-1.516.62h-.004c-.08.004-.16.01-.24.01H2v1h16.5c1.927 0 3.5-1.574 3.5-3.5a3.509 3.509 0 0 0-2.053-3.186A6.46 6.46 0 0 0 20 9.5C20 5.916 17.084 3 13.5 3z"/></svg>