<svg height="24" width="24" xmlns="http://www.w3.org/2000/svg"><path style="fill:gray" d="M2 20h20v1H2zm0-2h20v1H2zM13.5 3a6.51 6.51 0 0 0-6.008 4.023A5.008 5.008 0 0 0 2 12c0 1.126.38 2.163 1.012 3h1.345A3.983 3.983 0 0 1 3 12c0-2.215 1.785-4 4-4a4 4 0 0 1 1.16.172A5.492 5.492 0 0 1 13.5 4a5.492 5.492 0 0 1 5.473 6.033 5.505 5.505 0 0 1-.184.985A2.49 2.49 0 0 1 21 13.5a2.492 2.492 0 0 1-2.567 2.5H2v1h16.5c1.927 0 3.5-1.573 3.5-3.5a3.509 3.509 0 0 0-2.053-3.186c.034-.267.053-.538.053-.814C20 5.916 17.084 3 13.5 3zm5.898 9.227z"/></svg>