<svg width="24" height="24" xmlns="http://www.w3.org/2000/svg"><path style="font-style:normal;font-variant:normal;font-weight:500;font-stretch:normal;font-size:17.3333px;line-height:1.25;font-family:Ubuntu;-inkscape-font-specification:'Ubuntu, Medium';font-variant-ligatures:normal;font-variant-caps:normal;font-variant-numeric:normal;font-feature-settings:normal;text-align:start;letter-spacing:0;word-spacing:0;writing-mode:lr-tb;text-anchor:start;fill:gray;fill-opacity:1;stroke:none;stroke-width:.9995" d="M13.399 2a110.84 110.84 0 0 0-1.475 3.247c-.122.282-.25.601-.373.891l1.306 3.423c.234-.635.474-1.294.693-1.868A92.53 92.53 0 0 1 14.698 4.9c.318.736.692 1.66 1.125 2.771.371.952.76 2 1.153 3.079h-3.663l.955 2.5h3.43c.202.606.509 1.42.725 1.997.217.577.428 1.161.63 1.753H22a169.887 169.887 0 0 0-1.626-4.436 147.253 147.253 0 0 0-1.494-3.855A106.034 106.034 0 0 0 15.977 2z"/><path style="color:#000;font-style:normal;font-variant:normal;font-weight:400;font-stretch:normal;font-size:medium;line-height:normal;font-family:sans-serif;font-variant-ligatures:normal;font-variant-position:normal;font-variant-caps:normal;font-variant-numeric:normal;font-variant-alternates:normal;font-variant-east-asian:normal;font-feature-settings:normal;font-variation-settings:normal;text-indent:0;text-align:start;text-decoration:none;text-decoration-line:none;text-decoration-style:solid;text-decoration-color:#000;letter-spacing:normal;word-spacing:normal;text-transform:none;writing-mode:lr-tb;direction:ltr;text-orientation:mixed;dominant-baseline:auto;baseline-shift:baseline;text-anchor:start;white-space:normal;shape-padding:0;shape-margin:0;inline-size:0;clip-rule:nonzero;display:inline;overflow:visible;visibility:visible;isolation:auto;mix-blend-mode:normal;color-interpolation:sRGB;color-interpolation-filters:linearRGB;solid-color:#000;solid-opacity:1;vector-effect:none;fill:gray;fill-opacity:1;fill-rule:nonzero;stroke:none;stroke-width:1px;stroke-linecap:butt;stroke-linejoin:miter;stroke-miterlimit:4;stroke-dasharray:none;stroke-dashoffset:0;stroke-opacity:1;color-rendering:auto;image-rendering:auto;shape-rendering:auto;text-rendering:auto;enable-background:accumulate;stop-color:#000" d="M10.344 7H8.656l-5.21 13.75H2V22h3.75v-1.25h-.97L6.21 17h5.288l1.428 3.75H12V22h5v-1.25h-1.401zm-1.491 3.062 2.168 5.688H6.685z"/></svg>