<svg height="24" width="24" xmlns="http://www.w3.org/2000/svg"><path d="M10.44 3a135.887 135.887 0 0 0-1.768 3.897 181.03 181.03 0 0 0-1.744 4.155 286.685 286.685 0 0 0-1.767 4.625c-.374 1.005-.787 2.172-1.189 3.29L9.44 13.5h-.176c.468-1.29.93-2.541 1.359-3.667.52-1.318.978-2.435 1.377-3.353.363.843.8 1.92 1.29 3.171l2.229-2.23c-.072-.169-.145-.359-.217-.526A132.968 132.968 0 0 0 13.535 3zm10.139 1.482-4.44 4.44-2.27 2.27L11.56 13.5l-3 3-.486.486L4.06 21l-1.515 1.515 1.061 1.06L6.181 21h.464l.249-.713L10.68 16.5h4.92c.241.728.609 1.704.87 2.397.26.692.513 1.393.754 2.103h3.537a203.865 203.865 0 0 0-1.951-5.324 176.7 176.7 0 0 0-1.793-4.625c-.087-.22-.175-.418-.26-.628l4.88-4.88zm-6.133 8.253c.096.255.19.496.287.765h-1.05z" style="font-style:normal;font-variant:normal;font-weight:500;font-stretch:normal;font-size:17.3333px;line-height:1.25;font-family:Ubuntu;-inkscape-font-specification:'Ubuntu, Medium';font-variant-ligatures:normal;font-variant-caps:normal;font-variant-numeric:normal;font-feature-settings:normal;text-align:start;letter-spacing:0;word-spacing:0;writing-mode:lr-tb;text-anchor:start;display:inline;fill:gray;fill-opacity:1;stroke:none;stroke-width:.999501"/></svg>