<svg height="24" width="24" xmlns="http://www.w3.org/2000/svg"><path style="color:#000;fill:gray;-inkscape-stroke:none" d="M7.5 2c-1.774 0-2.92.088-3.666.834S3 4.726 3 6.5v11c0 1.528.101 2.664.816 3.459C4.532 21.754 5.702 22 7.5 22h8c1.774 0 2.92-.088 3.666-.834S20 19.274 20 17.5v-11c0-1.774-.088-2.92-.834-3.666S17.274 2 15.5 2h-8zm0 1h8c1.726 0 2.58.162 2.959.541.38.38.541 1.233.541 2.959v11c0 1.726-.162 2.58-.541 2.959-.38.38-1.233.541-2.959.541h-8c-1.702 0-2.532-.254-2.941-.709C4.149 19.836 4 18.972 4 17.5v-11c0-1.726.162-2.58.541-2.959C4.921 3.161 5.774 3 7.5 3zm-1 2a.5.5 0 0 0-.5.5v5a.5.5 0 0 0 .5.5h10a.5.5 0 0 0 .5-.5v-5a.5.5 0 0 0-.5-.5h-10zM7 6h9v4H7V6zm1.5 7c-.277 0-.5.223-.5.5V15H6.5a.499.499 0 1 0 0 1H8v1.5a.499.499 0 1 0 1 0V16h1.5a.499.499 0 1 0 0-1H9v-1.5c0-.277-.223-.5-.5-.5zm7.5 0a1 1 0 0 0-1 1 1 1 0 0 0 1 1 1 1 0 0 0 1-1 1 1 0 0 0-1-1zm-3 3a1 1 0 0 0-1 1 1 1 0 0 0 1 1 1 1 0 0 0 1-1 1 1 0 0 0-1-1z"/></svg>