<svg height="24" width="24" xmlns="http://www.w3.org/2000/svg"><path style="fill:gray;stroke-width:2;stroke-linecap:round;fill-opacity:1" d="M6.5 9A4.5 4.5 0 0 0 2 13.5 4.5 4.5 0 0 0 6.5 18a4.5 4.5 0 0 0 2.813-1h5.374a4.5 4.5 0 0 0 2.813 1 4.5 4.5 0 0 0 4.5-4.5A4.5 4.5 0 0 0 17.5 9h-11zM6 12h1v1h1v1H7v1H6v-1H5v-1h1v-1zm4.5 0a.5.5 0 0 1 .5.5.5.5 0 0 1-.5.5.5.5 0 0 1-.5-.5.5.5 0 0 1 .5-.5zm3 0a.5.5 0 0 1 .5.5.5.5 0 0 1-.5.5.5.5 0 0 1-.5-.5.5.5 0 0 1 .5-.5zm4 0a.5.5 0 0 1 .5.5.5.5 0 0 1-.5.5.5.5 0 0 1-.5-.5.5.5 0 0 1 .5-.5zm-1 1a.5.5 0 0 1 .5.5.5.5 0 0 1-.5.5.5.5 0 0 1-.5-.5.5.5 0 0 1 .5-.5zm2 0a.5.5 0 0 1 .5.5.5.5 0 0 1-.5.5.5.5 0 0 1-.5-.5.5.5 0 0 1 .5-.5zm-1 1a.5.5 0 0 1 .5.5.5.5 0 0 1-.5.5.5.5 0 0 1-.5-.5.5.5 0 0 1 .5-.5z"/><path style="fill:gray;stroke-width:2;stroke-linecap:butt;fill-opacity:1" d="M11 6h2v3h-2zm0-2h2v1h-2zm0-2h2v1h-2z"/></svg>