<svg height="24" width="24" xmlns="http://www.w3.org/2000/svg"><path style="fill:gray;stroke-width:2;stroke-linecap:round;fill-opacity:1" d="M6.5 9A4.5 4.5 0 0 0 2 13.5 4.5 4.5 0 0 0 6.5 18a4.5 4.5 0 0 0 2.813-1h5.374a4.5 4.5 0 0 0 2.813 1 4.5 4.5 0 0 0 4.5-4.5A4.5 4.5 0 0 0 17.5 9h-11zm0 1h11a3.5 3.5 0 0 1 3.5 3.5 3.5 3.5 0 0 1-3.5 3.5 3.5 3.5 0 0 1-2.445-1H8.946A3.5 3.5 0 0 1 6.5 17 3.5 3.5 0 0 1 3 13.5 3.5 3.5 0 0 1 6.5 10z"/><path style="fill:gray;stroke-width:2;stroke-linecap:butt;fill-opacity:1" d="M6 12h1v3H6z"/><path style="fill:gray;stroke-width:2;stroke-linecap:butt;fill-opacity:1" d="M5 13h3v1H5z"/><circle style="fill:gray;stroke-width:2;stroke-linecap:butt;fill-opacity:1" cx="18.5" cy="13.5" r=".5"/><circle style="fill:gray;stroke-width:2;stroke-linecap:butt;fill-opacity:1" cx="17.5" cy="12.5" r=".5"/><circle style="fill:gray;stroke-width:2;stroke-linecap:butt;fill-opacity:1" cx="16.5" cy="13.5" r=".5"/><circle style="fill:gray;stroke-width:2;stroke-linecap:butt;fill-opacity:1" cx="17.5" cy="14.5" r=".5"/><path style="fill:gray;stroke-width:2;stroke-linecap:butt;fill-opacity:1" d="M11 6h2v3h-2zm0-2h2v1h-2zm0-2h2v1h-2z"/><circle style="fill:gray;stroke-width:2;stroke-linecap:butt;fill-opacity:1" cx="10.5" cy="12.5" r=".5"/><circle style="fill:gray;stroke-width:2;stroke-linecap:butt;fill-opacity:1" cx="13.5" cy="12.5" r=".5"/></svg>