<svg height="24" width="24" xmlns="http://www.w3.org/2000/svg"><path style="opacity:1;fill:gray;stroke:#fff;stroke-width:0;stroke-linecap:square;stroke-linejoin:round;fill-opacity:1" d="M14 9v1.113a5 5 0 0 0-1.375.5l-.715-.851-1.533 1.285.715.851a5 5 0 0 0-.73 1.268l-1.096-.193-.348 1.97 1.092.194a5 5 0 0 0 .256 1.441l-.961.557 1 1.73.955-.552a5 5 0 0 0 1.127.943l-.38 1.04 1.88.684.379-1.037A5 5 0 0 0 15 20a5 5 0 0 0 .734-.057l.38 1.037 1.878-.683-.379-1.041a5 5 0 0 0 1.127-.944l.955.553 1-1.73-.96-.557a5 5 0 0 0 .255-1.441l1.092-.194-.348-1.97-1.086.191a5 5 0 0 0-.734-1.273l.709-.844-1.533-1.285-.707.842A5 5 0 0 0 16 10.102V9h-2zm1 2a4 4 0 0 1 4 4 4 4 0 0 1-4 4 4 4 0 0 1-4-4 4 4 0 0 1 4-4zm0 1a3 3 0 0 0-3 3 3 3 0 0 0 3 3 3 3 0 0 0 3-3 3 3 0 0 0-3-3zM6 2v1.035a3.5 3.5 0 0 0-1.342.492L3.99 2.73l-.765.645.668.795a3.5 3.5 0 0 0-.711 1.238l-1.028-.181-.172.984 1.026.182A3.5 3.5 0 0 0 3 6.5a3.5 3.5 0 0 0 .258 1.295l-.904.521.5.868.902-.522a3.5 3.5 0 0 0 1.092.914l-.358.98.942.344.357-.982A3.5 3.5 0 0 0 6.5 10a3.5 3.5 0 0 0 .71-.082l.358.982.942-.343-.358-.98a3.5 3.5 0 0 0 1.092-.915l.902.522.5-.868-.904-.521A3.5 3.5 0 0 0 10 6.5a3.5 3.5 0 0 0-.002-.11l1.02-.18-.172-.983-1.022.18a3.5 3.5 0 0 0-.715-1.239l.666-.793-.765-.645-.666.795A3.5 3.5 0 0 0 7 3.035V2H6zm.5 2A2.5 2.5 0 0 1 9 6.5 2.5 2.5 0 0 1 6.5 9 2.5 2.5 0 0 1 4 6.5 2.5 2.5 0 0 1 6.5 4zm0 1A1.5 1.5 0 0 0 5 6.5 1.5 1.5 0 0 0 6.5 8 1.5 1.5 0 0 0 8 6.5 1.5 1.5 0 0 0 6.5 5z"/></svg>