<?xml version="1.0" encoding="UTF-8" standalone="no"?>
<svg viewBox="0 0 24 24" height="24" id="svg7384" version="1.1" width="24" sodipodi:docname="application-x-executable-symbolic.svg" inkscape:version="1.1 (ce6663b3b7, 2021-05-25)"
   xmlns:inkscape="http://www.inkscape.org/namespaces/inkscape"
   xmlns:sodipodi="http://sodipodi.sourceforge.net/DTD/sodipodi-0.dtd"
   xmlns="http://www.w3.org/2000/svg"
   xmlns:svg="http://www.w3.org/2000/svg"
   xmlns:rdf="http://www.w3.org/1999/02/22-rdf-syntax-ns#"
   xmlns:cc="http://creativecommons.org/ns#"
   xmlns:dc="http://purl.org/dc/elements/1.1/">
   <sodipodi:namedview pagecolor="#ffffff" bordercolor="#666666" borderopacity="1" objecttolerance="10" gridtolerance="10" guidetolerance="10" inkscape:pageopacity="0" inkscape:pageshadow="2" inkscape:window-width="1920" inkscape:window-height="1016" id="namedview1912" showgrid="true" inkscape:zoom="22.627417" inkscape:cx="7.7118834" inkscape:cy="13.633903" inkscape:window-x="0" inkscape:window-y="27" inkscape:window-maximized="1" inkscape:current-layer="svg7384" inkscape:snap-global="true" inkscape:pagecheckerboard="0" inkscape:snap-bbox="true" inkscape:bbox-paths="true" inkscape:bbox-nodes="true" inkscape:snap-bbox-edge-midpoints="true" inkscape:snap-bbox-midpoints="true" inkscape:object-paths="true" inkscape:snap-intersection-paths="true" inkscape:snap-smooth-nodes="true" inkscape:snap-midpoints="true" inkscape:snap-center="true">
      <inkscape:grid type="xygrid" id="grid2461" />
   </sodipodi:namedview>
   <metadata id="metadata20854">
      <rdf:RDF>
         <cc:Work rdf:about="">
            <dc:format>image/svg+xml</dc:format>
            <dc:type rdf:resource="http://purl.org/dc/dcmitype/StillImage" />
         </cc:Work>
      </rdf:RDF>
   </metadata>
   <defs id="defs7386">
      <linearGradient id="linearGradient5606" inkscape:swatch="solid">
         <stop id="stop5608" offset="0" style="stop-color:#000000;stop-opacity:1;" />
      </linearGradient>
      <linearGradient id="linearGradient4526" inkscape:swatch="solid">
         <stop id="stop4528" offset="0" style="stop-color:#ffffff;stop-opacity:1;" />
      </linearGradient>
      <linearGradient id="linearGradient3600-4" inkscape:swatch="gradient">
         <stop id="stop3602-7" offset="0" style="stop-color:#f4f4f4;stop-opacity:1" />
         <stop id="stop3604-6" offset="1" style="stop-color:#dbdbdb;stop-opacity:1" />
      </linearGradient>
   </defs>
   <g id="layer9" label="status" style="display:inline;fill:#808080;fill-opacity:1" transform="translate(-813.00006,167.00006)" />
   <g id="layer2" style="display:inline;fill:#808080;fill-opacity:1" transform="translate(-571.99986,-199.99994)" />
   <g id="layer4" style="display:inline;fill:#808080;fill-opacity:1" transform="translate(-571.99986,-199.99994)" />
   <g id="g1812" style="display:inline;fill:#808080;fill-opacity:1" transform="translate(-571.99986,-199.99994)" />
   <g id="g6217" style="display:inline;fill:#808080;fill-opacity:1" transform="translate(-571.99986,-199.99994)" />
   <g id="layer3" style="display:inline;fill:#808080;fill-opacity:1" transform="translate(-571.99986,-199.99994)" />
   <g id="layer1" style="display:inline;fill:#808080;fill-opacity:1" transform="translate(-571.99986,-199.99994)" />
   <path id="path1555" style="opacity:1;fill:#808080;fill-rule:evenodd;stroke:#ffffff;stroke-width:0;stroke-linecap:square;stroke-linejoin:round;fill-opacity:1" d="m 14.000032,9.0000005 v 1.1132815 a 5,5 0 0 0 -1.375,0.5 l -0.714844,-0.8515625 -1.533203,1.2851565 0.714844,0.851563 a 5,5 0 0 0 -0.730469,1.267578 l -1.0957033,-0.19336 -0.3476562,1.970703 1.0917975,0.19336 a 5,5 0 0 0 0.255859,1.441406 l -0.9609373,0.556641 1.0000003,1.730468 0.955078,-0.552734 a 5,5 0 0 0 1.126953,0.943359 l -0.378907,1.041016 1.878907,0.683594 0.378906,-1.03711 a 5,5 0 0 0 0.734375,0.05664 5,5 0 0 0 0.734375,-0.05664 l 0.378906,1.03711 1.878907,-0.683594 -0.378907,-1.041016 a 5,5 0 0 0 1.126953,-0.943359 l 0.955078,0.552734 1,-1.730468 -0.960937,-0.556641 a 5,5 0 0 0 0.255859,-1.441406 l 1.091797,-0.19336 -0.347656,-1.970703 -1.085937,0.191406 a 5,5 0 0 0 -0.734376,-1.273437 l 0.708985,-0.84375 -1.533203,-1.2851565 -0.707032,0.8417975 a 5,5 0 0 0 -1.382812,-0.501954 v -1.1015625 z m 1,2.0000005 a 4,4 0 0 1 2.589844,0.951172 4,4 0 0 1 1.410156,3.048828 4,4 0 0 1 -4,4 4,4 0 0 1 -4,-4 4,4 0 0 1 4,-4 z" />
   <path id="path1837" style="opacity:1;fill:#808080;fill-rule:evenodd;stroke:#ffffff;stroke-width:0;stroke-linecap:square;stroke-linejoin:round;fill-opacity:1" d="m 6,2 v 1.0351562 a 3.5,3.5 0 0 0 -1.3417969,0.4921876 l -0.6679687,-0.796875 -0.765625,0.6445312 0.6679687,0.7949219 a 3.5,3.5 0 0 0 -0.7109375,1.2382812 l -1.0273437,-0.1816406 -0.171875,0.984375 1.0253906,0.1816406 a 3.5,3.5 0 0 0 -0.00781,0.1074219 3.5,3.5 0 0 0 0.2578125,1.2949219 l -0.9042969,0.5214843 0.5,0.8671876 0.9023438,-0.5214844 a 3.5,3.5 0 0 0 1.0917968,0.9140625 l -0.3574218,0.9804691 0.9414062,0.34375 0.3574219,-0.9824222 a 3.5,3.5 0 0 0 0.7109375,0.082031 3.5,3.5 0 0 0 0.7109375,-0.082031 l 0.3574219,0.9824222 0.9414062,-0.34375 -0.3574218,-0.9804691 a 3.5,3.5 0 0 0 1.0917968,-0.9140625 l 0.9023434,0.5214844 0.5,-0.8671876 -0.9042965,-0.5214843 a 3.5,3.5 0 0 0 0.2578125,-1.2949219 3.5,3.5 0 0 0 -0.00195,-0.109375 l 1.0195311,-0.1796875 -0.171875,-0.984375 -1.0214842,0.1796875 a 3.5,3.5 0 0 0 -0.7148438,-1.2382812 l 0.6660156,-0.7929688 -0.765625,-0.6445312 -0.6660156,0.7949218 a 3.5,3.5 0 0 0 -1.34375,-0.4902344 v -1.0351562 z m 0.5,2 a 2.5,2.5 0 0 1 1.5917969,0.5703125 l 0.029297,0.027344 a 2.5,2.5 0 0 1 0.8359374,1.4453126 l 0.00977,0.048828 a 2.5,2.5 0 0 1 0.033203,0.4082031 2.5,2.5 0 0 1 -1.6308594,2.34375 l -0.027344,0.00977 a 2.5,2.5 0 0 1 -0.8417969,0.1464844 2.5,2.5 0 0 1 -2.5,-2.5 2.5,2.5 0 0 1 2.5,-2.5 z" />
</svg>
