<?xml version="1.0" encoding="UTF-8" standalone="no"?>
<svg
   viewBox="0 1 24 24"
   height="24"
   id="svg7384"
   version="1.1"
   width="24"
   sodipodi:docname="gears.svg"
   inkscape:version="1.2 (1:1.2.1+202207142221+cd75a1ee6d)"
   xmlns:inkscape="http://www.inkscape.org/namespaces/inkscape"
   xmlns:sodipodi="http://sodipodi.sourceforge.net/DTD/sodipodi-0.dtd"
   xmlns="http://www.w3.org/2000/svg"
   xmlns:svg="http://www.w3.org/2000/svg"
   xmlns:rdf="http://www.w3.org/1999/02/22-rdf-syntax-ns#"
   xmlns:cc="http://creativecommons.org/ns#"
   xmlns:dc="http://purl.org/dc/elements/1.1/">
  <sodipodi:namedview
     id="namedview25"
     pagecolor="#ffffff"
     bordercolor="#666666"
     borderopacity="1.0"
     inkscape:pageshadow="2"
     inkscape:pageopacity="0.0"
     inkscape:pagecheckerboard="0"
     showgrid="true"
     inkscape:zoom="16"
     inkscape:cx="24.34375"
     inkscape:cy="14.5"
     inkscape:window-width="1920"
     inkscape:window-height="1043"
     inkscape:window-x="0"
     inkscape:window-y="0"
     inkscape:window-maximized="1"
     inkscape:current-layer="svg7384"
     inkscape:showpageshadow="2"
     inkscape:deskcolor="#d1d1d1">
    <inkscape:grid
       type="xygrid"
       id="grid27" />
    <inkscape:grid
       type="xygrid"
       id="grid1495"
       dotted="true"
       spacingx="0.5"
       spacingy="0.5"
       empspacing="10" />
  </sodipodi:namedview>
  <metadata
     id="metadata20854">
    <rdf:RDF>
      <cc:Work
         rdf:about="">
        <dc:format>image/svg+xml</dc:format>
        <dc:type
           rdf:resource="http://purl.org/dc/dcmitype/StillImage" />
      </cc:Work>
    </rdf:RDF>
  </metadata>
  <defs
     id="defs7386">
    <linearGradient
       id="linearGradient5606"
       inkscape:swatch="solid">
      <stop
         id="stop5608"
         offset="0"
         style="stop-color:#000000;stop-opacity:1;" />
    </linearGradient>
    <linearGradient
       id="linearGradient4526"
       inkscape:swatch="solid">
      <stop
         id="stop4528"
         offset="0"
         style="stop-color:#ffffff;stop-opacity:1;" />
    </linearGradient>
    <linearGradient
       id="linearGradient3600-4"
       inkscape:swatch="gradient">
      <stop
         id="stop3602-7"
         offset="0"
         style="stop-color:#f4f4f4;stop-opacity:1" />
      <stop
         id="stop3604-6"
         offset="1"
         style="stop-color:#dbdbdb;stop-opacity:1" />
    </linearGradient>
  </defs>
  <path
     id="path806"
     style="color:#000000;fill:#808080;fill-rule:evenodd;stroke-linecap:round;stroke-linejoin:round;-inkscape-stroke:none;opacity:1"
     d="M 9.7460938 3 C 10.529922 3.9502683 11 5.1684778 11 6.5 C 11 9.5434794 8.5434794 12 5.5 12 C 4.1684778 12 2.9502683 11.529922 2 10.746094 L 2 13.140625 L 2.6152344 13.496094 L 3.1542969 12.560547 C 3.5830707 12.727119 4.0330586 12.851392 4.5 12.923828 L 4.5 14 L 6.5 14 L 6.5 12.923828 C 6.9669414 12.851392 7.4169293 12.727119 7.8457031 12.560547 L 8.3847656 13.496094 L 10.115234 12.496094 L 9.5742188 11.558594 C 9.9366362 11.266163 10.266163 10.936636 10.558594 10.574219 L 11.496094 11.115234 L 12.496094 9.3847656 L 11.560547 8.8457031 C 11.727119 8.4169293 11.851392 7.9669414 11.923828 7.5 L 13 7.5 L 13 5.5 L 11.923828 5.5 C 11.851392 5.0330586 11.727119 4.5830707 11.560547 4.1542969 L 12.496094 3.6152344 L 12.140625 3 L 9.7460938 3 z M 16.5 11 L 16.914062 13.074219 C 16.237925 13.166385 15.588321 13.343165 14.976562 13.59375 L 14.298828 11.589844 L 11.701172 13.089844 L 13.101562 14.681641 C 12.571174 15.093758 12.093758 15.571174 11.681641 16.101562 L 10.089844 14.701172 L 8.5898438 17.298828 L 10.59375 17.976562 C 10.343165 18.588321 10.166385 19.237925 10.074219 19.914062 L 8 19.5 L 8 22.5 L 10.074219 22.085938 C 10.116621 22.397002 10.178692 22.70127 10.255859 23 L 11.292969 23 C 11.104805 22.366132 11 21.695733 11 21 C 11 17.128096 14.128096 14 18 14 C 19.489626 14 20.866338 14.465625 22 15.255859 L 22 11.761719 L 21.701172 11.589844 L 21.023438 13.59375 C 20.411679 13.343165 19.762075 13.166385 19.085938 13.074219 L 19.5 11 L 16.5 11 z " />
</svg>
