<svg height="24" width="24" xmlns="http://www.w3.org/2000/svg"><path style="line-height:normal;font-variant-ligatures:normal;font-variant-position:normal;font-variant-caps:normal;font-variant-numeric:normal;font-variant-alternates:normal;font-feature-settings:normal;text-indent:0;text-align:start;text-decoration-line:none;text-decoration-style:solid;text-decoration-color:#000;text-transform:none;shape-padding:0;isolation:auto;mix-blend-mode:normal;stroke-width:.999997;marker:none;fill:gray;fill-opacity:1" d="M12 2A10 10 0 0 0 2 12a10 10 0 0 0 10 10 10 10 0 0 0 10-10A10 10 0 0 0 12 2zm0 1-.055.006-.023.71 1.187.179.727-.704a8.99 8.99 0 0 0-1.365-.18 9 9 0 0 1 1.365.18 9 9 0 0 1 3.893 1.872 9 9 0 0 1 .363.316 9.049 9.049 0 0 0-1.977-1.381l-.234.38.793.702-.793.662.308.793 1.76-.836 1.102.836.027-.088a8.992 8.992 0 0 0-.978-1.06 9 9 0 0 1 .34.332 9 9 0 0 1 .638.728 9 9 0 0 1 .602.865 9 9 0 0 1 .304.54 9 9 0 0 1 .266.556 9 9 0 0 1 .209.528 9.01 9.01 0 0 0-.475-1.084 9.016 9.016 0 0 0-.304-.54l-1.028.19-.66-.705-2.021.133-1.235 1.935.838 2.067 2.727.838.531 3.212.656 1.67.282-.158A9 9 0 0 1 12 21a9 9 0 0 1-9-9 9 9 0 0 1 .47-2.85l.007.024 1.408.394 1.847 1.364.043 1.98 1.19 1.627.701 4.402 1.275.791-.351-1.628 2.156-2.99.924-2.024-2.154-2.026-2.334-1.097-.965.57L6.07 8.82l-.658.31-.572-.968 1.014-.527.964.57 1.674-2.068L10.91 4.64l-.66-1.233-1.979.705-.185-.2a8.985 8.985 0 0 0-.377.192A9 9 0 0 1 12 3zM6.91 4.596a8.99 8.99 0 0 0-.355.256 9 9 0 0 1 .355-.256zm-1.12.91c-.094.09-.187.18-.276.273a9 9 0 0 1 .275-.273zm-.927 1.033a8.632 8.632 0 0 0-.25.344 9 9 0 0 1 .25-.344zm-.79 1.223a9.015 9.015 0 0 0-.157.308 9 9 0 0 1 .156-.308zM20.495 9.04a9 9 0 0 1 .145.45 8.429 8.429 0 0 0-.145-.45zm.176.555a9 9 0 0 1 .137.566 9 9 0 0 1 .097.559 8.986 8.986 0 0 0-.234-1.125zm.248 1.236a9 9 0 0 1 .05.475 9.002 9.002 0 0 0-.05-.475zm.06.592A9 9 0 0 1 21 12c0-.192-.007-.385-.02-.576zm-.082 1.851a9 9 0 0 1-.052.31 9.01 9.01 0 0 0 .052-.31zm-.279 1.256a9 9 0 0 1-.193.569 9 9 0 0 0 .193-.569zm-.424 1.127a9 9 0 0 1-.425.834c.158-.27.297-.55.425-.834z"/></svg>