<svg height="24" width="24" xmlns="http://www.w3.org/2000/svg"><path style="fill:gray;stroke-width:2;stroke-linecap:round;stroke-linejoin:round" d="M12 2A10 10 0 0 0 2 12a10 10 0 0 0 10 10 10 10 0 0 0 10-10A10 10 0 0 0 12 2zm0 1a8.99 8.99 0 0 1 1.836.191l-.727.704-1.187-.178.023-.711L12 3zm-1.75.408.66 1.233-2.418 1.496-1.674 2.068-.964-.57-1.014.527.572.969.658-.31 1.147 1.716.965-.57 2.334 1.097 2.154 2.026-.924 2.023-2.156 2.99.351 1.63-1.275-.792-.701-4.402-1.19-1.627-.043-1.98-1.847-1.364-1.408-.394-.006-.024a8.998 8.998 0 0 1 4.615-5.238l.185.201 1.979-.705zm5.865.59a9.003 9.003 0 0 1 2.963 2.45l-.027.087-1.102-.836-1.76.836-.308-.793.793-.662-.793-.701.234-.381zm1.877 2.799.66.705 1.028-.19A9.004 9.004 0 0 1 21 12a8.998 8.998 0 0 1-1.23 4.494l-.282.158-.656-1.67-.531-3.212-2.727-.838-.838-2.067 1.235-1.935 2.021-.133z"/></svg>