<svg height="24" width="24" xmlns="http://www.w3.org/2000/svg"><path style="fill:gray;fill-opacity:1;fill-rule:nonzero;stroke:none;stroke-width:.16912;stroke-miterlimit:4" d="M18.42 2c-4.161 0-4.94 5.926-2.6 5.926 2.34 0 6.76-5.926 2.6-5.926zm-6.428.727c-.066 0-.136.004-.21.013-2.34.304-1.517 4.375-.27 4.451 1.207.074 2.528-4.457.48-4.464zm-4.057 1.61a1.13 1.13 0 0 0-.406.093c-1.882.776-.285 3.983.77 3.767.972-.198 1.097-3.891-.364-3.86zm-3 2.513c-.164-.006-.339.05-.527.18-1.507 1.04.506 3.555 1.392 3.165.776-.341.28-3.307-.865-3.345zm8.604 1.923c-3.23-.054-7.49 1.567-8.217 4.82C4.535 17.116 8.562 22 12.763 22c2.067 0 4.45-1.867 4.897-4.23.34-1.803-4.008-1.08-3.852.113.187 1.43-1.05 2.134-2.26 1.213-3.853-2.934 6.38-4.398 5.705-8.407-.21-1.247-1.777-1.883-3.714-1.916z"/></svg>