<svg height="24" width="24" xmlns="http://www.w3.org/2000/svg"><path style="font-weight:400;line-height:125%;-inkscape-font-specification:Ubuntu;text-align:center;fill:gray;stroke-width:.8;fill-opacity:1" d="m16.547 2-.442.45-8.71 8.868-.038.057c-.076.124-.337.562-.728 1.36a22.808 22.808 0 0 0-1.266 3.115L5 17l1.15-.363a22.704 22.704 0 0 0 3.116-1.266 15.88 15.88 0 0 0 1.359-.73l.057-.036L20 5.451zm-7.934 9.861 1.524 1.526-.223.218c.009-.006-.474.284-1.201.643-.268.131-.669.277-1.041.422l-.344-.342c.145-.372.293-.775.424-1.043.359-.727.648-1.207.643-1.2z"/><path style="color:#000;fill:gray;-inkscape-stroke:none;fill-opacity:1" d="M6.5 4c-1.5 0-2.61-.053-3.438.61-.414.33-.686.826-.843 1.456C2.06 6.696 2 7.48 2 8.5v9c0 .778.06 1.386.229 1.893.168.506.475.914.888 1.162C3.944 21.05 5 21 6.5 21h11c1.5 0 2.556.05 3.383-.445.413-.248.72-.656.888-1.162.17-.507.229-1.115.229-1.893v-9c0-1.02-.061-1.803-.219-2.434a3.431 3.431 0 0 0-.263-.72l-.77.756c.022.066.045.128.064.207.124.494.188 1.212.188 2.191v9c0 .722-.065 1.239-.178 1.576-.112.338-.243.492-.455.62C19.944 19.948 19 20 17.5 20h-11c-1.5 0-2.444-.05-2.867-.305-.212-.127-.343-.281-.455-.619C3.065 18.74 3 18.222 3 17.5v-9c0-.98.064-1.697.188-2.191.123-.495.289-.75.5-.918C4.109 5.053 5 5 6.5 5h5.697l.983-1H6.5z"/><path style="color:#000;fill:gray;-inkscape-stroke:none;fill-opacity:1" d="M18 11v6H8v1h11v-7z"/></svg>