<svg height="24" width="24" xmlns="http://www.w3.org/2000/svg"><path style="color:#000;fill:gray;fill-opacity:1;-inkscape-stroke:none" d="M5.455 4c-.968.009-1.718.073-2.338.445-.413.248-.72.656-.888 1.162C2.059 6.114 2 6.722 2 7.5v10c0 .778.06 1.386.229 1.893.168.506.475.914.888 1.162C3.944 21.05 5 21 6.5 21h11c1.5 0 2.556.05 3.383-.445.413-.248.72-.656.888-1.162.17-.507.229-1.115.229-1.893v-10c0-.778-.06-1.386-.229-1.893-.168-.506-.475-.914-.888-1.162-.62-.371-1.368-.436-2.334-.445L20 5.451l-9.318 9.154-.057.036c-.126.08-.562.339-1.36.73a22.704 22.704 0 0 1-3.115 1.266L5 17l.363-1.15c.39-1.228.873-2.318 1.266-3.116.391-.797.652-1.235.728-1.359l.038-.057L14.582 4H6.5c-.375 0-.722-.003-1.045 0zM18 11h1v7H8v-1h10v-6zm-9.387.861-.218.225c.005-.008-.284.472-.643 1.2-.131.267-.279.67-.424 1.042l.344.342c.372-.145.773-.29 1.04-.422.728-.359 1.21-.649 1.202-.643l.223-.218-1.524-1.526z"/></svg>