<svg height="24" width="24" xmlns="http://www.w3.org/2000/svg"><path style="color:#000;fill:gray;stroke-linecap:square;-inkscape-stroke:none;fill-opacity:1" d="M12 2c-1.804 0-3.364.288-4.633.92-1.269.632-2.237 1.624-2.797 2.947-1.12 2.647-.681 6.513 1.467 11.82l.188.463 2.414-.646a.998.998 0 0 0 .707-1.225l-1.164-4.347a.997.997 0 0 0-1.225-.707l-1.713.459c-.422-2.315-.306-4.116.248-5.426.471-1.114 1.238-1.904 2.32-2.444C8.896 3.275 10.305 3 12 3c1.696 0 3.105.275 4.188.814 1.082.54 1.849 1.33 2.32 2.444.554 1.31.67 3.111.248 5.426l-1.713-.46a.997.997 0 0 0-1.225.707l-1.164 4.348a.998.998 0 0 0 .707 1.225l1.479.396-.701 2.1H13v-2h-2v2.5a.5.5 0 0 0 .5.5h5a.5.5 0 0 0 .475-.342l1-3 .002-.004c2.136-5.29 2.57-9.145 1.453-11.787-.56-1.323-1.528-2.315-2.797-2.947C15.363 2.288 13.803 2 12 2z"/></svg>