<svg height="24" width="24" xmlns="http://www.w3.org/2000/svg"><path style="color:#000;fill:gray;fill-opacity:1;stroke-linecap:square;-inkscape-stroke:none" d="M12 3C7.623 3 4.724 4.763 3.592 7.893c-1.132 3.13-.58 7.477 1.441 12.785l.178.467 2.898-.778a.998.998 0 0 0 .707-1.224l-1.295-4.829a1 1 0 0 0-1.224-.707l-2.05.55c-.374-2.38-.274-4.376.286-5.925C5.526 5.487 7.877 4 12 4c4.123 0 6.474 1.487 7.467 4.232.56 1.55.66 3.546.287 5.924l-2.05-.549a1 1 0 0 0-1.225.707l-1.295 4.829a.998.998 0 0 0 .707 1.224l2.898.778.178-.467c2.022-5.308 2.573-9.656 1.441-12.785C19.276 4.763 16.378 3 12 3z"/></svg>