<svg height="24" width="24" xmlns="http://www.w3.org/2000/svg"><path style="color:#000;fill:gray;stroke:none;stroke-width:1.25;-inkscape-stroke:none" d="M7.646 2A5.656 5.656 0 0 0 2 7.521v.014c0 1.373.366 2.455.709 3.38l.006.01.004.014.027.061h1.375a14.592 14.592 0 0 1-.244-.54c-.33-.89-.623-1.774-.625-2.917A4.39 4.39 0 0 1 7.646 3.25c1.635 0 3.053.888 3.813 2.205l.541.94.541-.94a4.391 4.391 0 0 1 3.813-2.205 4.39 4.39 0 0 1 4.394 4.293c-.001 1.143-.296 2.028-.627 2.918-.076.18-.16.36-.244.539h1.377l.027-.06.006-.014.004-.012c.343-.924.709-2.006.709-3.379v-.014A5.656 5.656 0 0 0 16.354 2c-1.81 0-3.32.954-4.354 2.283C10.966 2.954 9.458 2 7.648 2h-.002zm.85 3a.5.5 0 0 0-.476.363L6.123 12H4v1h2.5a.5.5 0 0 0 .48-.363l1.532-5.36 2.51 8.368a.5.5 0 0 0 .943.04l1.586-3.966.502 1.004A.5.5 0 0 0 14.5 13H20v-1h-5.191l-.862-1.723a.5.5 0 0 0-.912.037l-1.469 3.67L8.98 5.355A.5.5 0 0 0 8.496 5zm-4.1 9c1.77 2.636 4.242 5.078 7.174 7.83l.43.404.43-.404c2.932-2.752 5.404-5.194 7.174-7.83h-1.547C16.5 16.112 14.432 18.184 12 20.482 9.568 18.184 7.5 16.112 5.943 14H4.396z"/></svg>