<svg height="24" width="24" xmlns="http://www.w3.org/2000/svg"><path style="color:#000;fill:gray;stroke:none;stroke-width:1.25;-inkscape-stroke:none" d="M7.646 2A5.656 5.656 0 0 0 2 7.521v.014c0 1.373.366 2.455.709 3.38l.006.01.004.014c.152.36.32.712.498 1.061h2.906L8.02 5.363A.5.5 0 0 1 8.496 5a.5.5 0 0 1 .483.355l2.587 8.63 1.47-3.67a.5.5 0 0 1 .911-.038L14.81 12h5.974c.177-.349.346-.7.498-1.06l.006-.014.004-.012c.343-.924.709-2.006.709-3.379v-.014A5.656 5.656 0 0 0 16.354 2c-1.81 0-3.32.954-4.354 2.283C10.966 2.954 9.458 2 7.648 2h-.002zm.866 5.277-1.532 5.36A.5.5 0 0 1 6.5 13H3.762c1.786 3.03 4.51 5.733 7.808 8.83l.43.404.43-.404c3.299-3.097 6.022-5.8 7.808-8.83H14.5a.5.5 0 0 1-.447-.277l-.502-1.004-1.586 3.967a.5.5 0 0 1-.944-.041l-2.51-8.368z"/></svg>