<svg height="24" width="24" xmlns="http://www.w3.org/2000/svg"><path style="color:#000;fill:gray;-inkscape-stroke:none" d="M6.883 4.08c-1.521.325-2.534 1.66-2.803 3.402-.538 3.484 1.574 8.779 7.621 13.295L12 21l.299-.223c6.047-4.516 8.159-9.811 7.62-13.295-.268-1.741-1.28-3.077-2.802-3.402-1.436-.306-3.202.342-5.117 1.908-1.915-1.566-3.681-2.214-5.117-1.908zm.209.979c1.077-.23 2.669.225 4.58 1.89l.328.285.328-.285c1.911-1.665 3.503-2.12 4.58-1.89 1.078.23 1.798 1.113 2.024 2.576.442 2.865-1.376 7.77-6.932 12.066-5.556-4.295-7.374-9.2-6.932-12.066.226-1.463.946-2.346 2.024-2.576z"/></svg>