<?xml version="1.0" encoding="UTF-8" standalone="no"?>
<svg
   version="1.1"
   viewBox="0 0 24 24"
   id="svg4"
   sodipodi:docname="hearing-filled.svg"
   width="24"
   height="24"
   inkscape:version="1.2 (1:1.2.1+202207142221+cd75a1ee6d)"
   xmlns:inkscape="http://www.inkscape.org/namespaces/inkscape"
   xmlns:sodipodi="http://sodipodi.sourceforge.net/DTD/sodipodi-0.dtd"
   xmlns="http://www.w3.org/2000/svg"
   xmlns:svg="http://www.w3.org/2000/svg">
  <defs
     id="defs8" />
  <sodipodi:namedview
     id="namedview6"
     pagecolor="#ffffff"
     bordercolor="#666666"
     borderopacity="1.0"
     inkscape:showpageshadow="2"
     inkscape:pageopacity="0.0"
     inkscape:pagecheckerboard="0"
     inkscape:deskcolor="#d1d1d1"
     showgrid="false"
     inkscape:zoom="5.2149125"
     inkscape:cx="-39.885616"
     inkscape:cy="5.3692176"
     inkscape:window-width="1920"
     inkscape:window-height="1011"
     inkscape:window-x="0"
     inkscape:window-y="0"
     inkscape:window-maximized="1"
     inkscape:current-layer="svg4">
    <inkscape:grid
       type="xygrid"
       id="grid183"
       originx="0"
       originy="0" />
    <inkscape:grid
       type="xygrid"
       id="grid451"
       dotted="true"
       spacingx="0.5"
       spacingy="0.5"
       empspacing="10" />
  </sodipodi:namedview>
  <path
     id="path4670"
     style="color:#000000;fill:#808080;fill-rule:evenodd;stroke-linecap:round;-inkscape-stroke:none"
     d="m 11.5,3 c -3.5839142,0 -6.5,2.9160858 -6.5,6.5 v 7 c 0,2.479351 2.0206509,4.5 4.5,4.5 2.479351,0 4.5,-2.020649 4.5,-4.5 0,-1.608554 1.623146,-2.295369 2.369141,-3.167969 0.745991,-0.872599 1.61477,-1.929093 1.630859,-3.8281248 v -0.00195 -0.00195 c 0,-3.5839142 -2.916087,-6.5 -6.5,-6.5 z m 0,4 c 1.380712,0 2.5,1.1192881 2.5,2.5 0,1.380712 -1.119288,2.5 -2.5,2.5 -1.380712,0 -2.5,-1.119288 -2.5,-2.5 0,-1.3807119 1.119288,-2.5 2.5,-2.5 z"
     sodipodi:nodetypes="sccsssccsssssss" />
  <path
     style="color:#000000;fill:#808080;fill-rule:evenodd;stroke-linecap:round;-inkscape-stroke:none"
     d="m 17.802734,3.4902344 a 0.5,0.5 0 0 0 0,0.7070312 c 1.406658,1.4066573 2.197266,3.3134206 2.197266,5.3027344 0,1.989314 -0.790608,3.896077 -2.197266,5.302734 a 0.5,0.5 0 0 0 0,0.707032 0.5,0.5 0 0 0 0.707032,0 c 1.593921,-1.593922 2.490234,-3.75562 2.490234,-6.009766 0,-2.2541459 -0.896313,-4.4158439 -2.490234,-6.0097656 a 0.5,0.5 0 0 0 -0.707032,0 z"
     id="path888" />
</svg>
