<?xml version="1.0" encoding="UTF-8" standalone="no"?>
<svg
   version="1.1"
   viewBox="0 0 24 24"
   id="svg4"
   sodipodi:docname="hearing.svg"
   width="24"
   height="24"
   inkscape:version="1.2 (1:1.2.1+202207142221+cd75a1ee6d)"
   xmlns:inkscape="http://www.inkscape.org/namespaces/inkscape"
   xmlns:sodipodi="http://sodipodi.sourceforge.net/DTD/sodipodi-0.dtd"
   xmlns="http://www.w3.org/2000/svg"
   xmlns:svg="http://www.w3.org/2000/svg">
  <defs
     id="defs8" />
  <sodipodi:namedview
     id="namedview6"
     pagecolor="#ffffff"
     bordercolor="#666666"
     borderopacity="1.0"
     inkscape:showpageshadow="2"
     inkscape:pageopacity="0.0"
     inkscape:pagecheckerboard="0"
     inkscape:deskcolor="#d1d1d1"
     showgrid="false"
     inkscape:zoom="20.85965"
     inkscape:cx="3.6913371"
     inkscape:cy="12.560134"
     inkscape:window-width="1920"
     inkscape:window-height="1011"
     inkscape:window-x="0"
     inkscape:window-y="0"
     inkscape:window-maximized="1"
     inkscape:current-layer="svg4">
    <inkscape:grid
       type="xygrid"
       id="grid183"
       originx="0"
       originy="0" />
    <inkscape:grid
       type="xygrid"
       id="grid451"
       dotted="true"
       spacingx="0.5"
       spacingy="0.5"
       empspacing="10" />
  </sodipodi:namedview>
  <path
     style="color:#000000;fill:#808080;fill-rule:evenodd;stroke-linecap:round;-inkscape-stroke:none"
     d="m 11.5,3 c -3.583925,0 -6.5,2.916075 -6.5,6.5 a 0.5,0.5 0 0 0 0.5,0.5 0.5,0.5 0 0 0 0.5,-0.5 c 0,-3.0434854 2.4565146,-5.5 5.5,-5.5 3.042818,0 5.498924,2.4554852 5.5,5.4980469 -0.01421,1.5209891 -0.645791,2.2252621 -1.394531,3.1230471 -0.749126,0.898247 -1.605469,1.987469 -1.605469,3.878906 0,1.938917 -1.561083,3.5 -3.5,3.5 -1.938917,0 -3.5,-1.561083 -3.5,-3.5 a 0.5,0.5 0 0 0 -0.5,-0.5 0.5,0.5 0 0 0 -0.5,0.5 c 0,2.479357 2.0206434,4.5 4.5,4.5 2.479357,0 4.5,-2.020643 4.5,-4.5 0,-1.60856 0.629623,-2.346872 1.373047,-3.238281 0.743424,-0.89141 1.610736,-1.939066 1.626953,-3.7578127 v -0.00195 -0.00195 c 0,-3.583925 -2.916075,-6.5 -6.5,-6.5 z"
     id="path611" />
  <path
     id="path832"
     style="fill:#808080;fill-rule:evenodd;stroke-linecap:square"
     d="m 13.5,9.5 a 2,2 0 0 1 -2,2 2,2 0 0 1 -2,-2 2,2 0 0 1 2,-2 2,2 0 0 1 2,2 z" />
  <path
     style="color:#000000;fill:#808080;fill-rule:evenodd;stroke-linecap:round;-inkscape-stroke:none"
     d="m 17.802734,3.4902344 a 0.5,0.5 0 0 0 0,0.7070312 c 1.406658,1.4066573 2.197266,3.3134206 2.197266,5.3027344 0,1.989314 -0.790608,3.896077 -2.197266,5.302734 a 0.5,0.5 0 0 0 0,0.707032 0.5,0.5 0 0 0 0.707032,0 c 1.593921,-1.593922 2.490234,-3.75562 2.490234,-6.009766 0,-2.2541459 -0.896313,-4.4158439 -2.490234,-6.0097656 a 0.5,0.5 0 0 0 -0.707032,0 z"
     id="path888" />
</svg>
