<svg width="24" height="24" xmlns="http://www.w3.org/2000/svg"><path style="color:#000;fill:gray;fill-opacity:1;-inkscape-stroke:none" d="m19.646 3.646-2.564 2.565c-1.36-.768-3.037-1.3-5.08-1.3-7.31 0-9.969 6.82-9.969 6.82l-.066.18.066.179s1.181 3.022 4.127 5.043l-2.514 2.513.708.708 2.681-2.682 1.867-1.867.707-.707.72-.72 2.025-2.024.574-.575 2.271-2.271.711-.711 2.04-2.04 2.404-2.403-.708-.708zM12.002 6.91a5 5 0 0 1 3.205 1.176l-.715.715a4 4 0 0 0-2.49-.89 4 4 0 0 0-4.002 4 4 4 0 0 0 .9 2.482l-.71.71A5 5 0 0 1 7 11.91a5 5 0 0 1 5.002-5zm6.742.467-2.281 2.281A5 5 0 0 1 17 11.91a5 5 0 0 1-4.998 5 5 5 0 0 1-2.238-.553L7.99 18.131c1.145.476 2.475.78 4.012.78 7.31 0 9.965-6.821 9.965-6.821l.07-.18-.07-.18s-.935-2.4-3.223-4.353zM12.002 8.91a3 3 0 0 1 .88.133 1.5 1.5 0 0 0-.88 1.367 1.5 1.5 0 0 0 .191.69l-.547.546-2.029 2.03A3 3 0 0 1 9 11.91a3 3 0 0 1 3.002-3zm3.705 1.504-.789.79a3 3 0 0 1 .084.706 3 3 0 0 1-3 3 3 3 0 0 1-.703-.088l-.793.793a4 4 0 0 0 1.496.295 4 4 0 0 0 3.998-4 4 4 0 0 0-.293-1.496z"/></svg>