<svg width="24" height="24" xmlns="http://www.w3.org/2000/svg"><path style="color:#000;fill:gray;fill-opacity:1;stroke-linecap:square;stroke-linejoin:round;-inkscape-stroke:none" d="m19.646 3.646-2.751 2.752c-1.332-.722-2.961-1.218-4.928-1.218C4.657 5.18 2 12 2 12l-.068.18.068.18s1.141 2.93 3.984 4.949l-2.338 2.337.708.708 2.494-2.495.715-.714 1.162-1.163.72-.72.703-.703 2.206-2.205.384-.385 2.323-2.323.71-.71 1.311-1.311.691-.691 2.58-2.58-.707-.708zm-7.68 2.534c1.668 0 3.057.377 4.208.94l-1.131 1.13a5 5 0 0 0-3.076-1.07 5 5 0 0 0-5 5 5 5 0 0 0 1.072 3.074l-1.36 1.36C4.21 14.951 3.16 12.52 3.022 12.18c.213-.524 2.567-6 8.946-6zm6.614 1.36-.676.676c2.009 1.616 2.883 3.654 3.008 3.963-.212.523-2.566 6-8.945 6a9.661 9.661 0 0 1-3.424-.602l-.754.754c1.18.517 2.566.848 4.178.848 7.31 0 9.967-6.82 9.967-6.82l.068-.18-.068-.18S20.96 9.511 18.58 7.54zm-6.613.639a4 4 0 0 1 2.36.787l-2.249 2.248a1.5 1.5 0 0 1-.111-.535 1.5 1.5 0 0 1 .883-1.367 3 3 0 0 0-.883-.133 3 3 0 0 0-3 3 3 3 0 0 0 .512 1.634l-.717.717a4 4 0 0 1-.795-2.351 4 4 0 0 1 4-4zm4.38 1.593-.742.743a4 4 0 0 1 0 .002 4 4 0 0 1 .362 1.662 4 4 0 0 1-4 4 4 4 0 0 1-1.655-.371l-.748.748a5 5 0 0 0 2.403.623 5 5 0 0 0 5-5 5 5 0 0 0-.62-2.407zm-1.513 1.524a1.5 1.5 0 0 1-.736.726l-1.037 1.038-1.971 1.97a3 3 0 0 0 .877.149 3 3 0 0 0 3-3 3 3 0 0 0-.133-.883z"/></svg>