<svg height="24" width="24" xmlns="http://www.w3.org/2000/svg"><path style="fill:gray;stroke-linecap:square;stroke-linejoin:round" d="M11.5 2a9.5 9.5 0 0 0-6.453 2.582l-.059-.059L3.707 3.24a43.093 43.093 0 0 0-.809 2.479 51.944 51.944 0 0 0-.664 2.531 43.154 43.154 0 0 0 2.54-.654 36.394 36.394 0 0 0 2.468-.819L5.875 5.408l-.125-.125A8.5 8.5 0 0 1 11.5 3a8.5 8.5 0 0 1 8.5 8.5 8.5 8.5 0 0 1-8.5 8.5 8.5 8.5 0 0 1-8.46-8H2.034a9.5 9.5 0 0 0 9.465 9 9.5 9.5 0 0 0 9.5-9.5A9.5 9.5 0 0 0 11.5 2z"/><path style="color:#000;fill:gray;-inkscape-stroke:none" d="M11 6v6.188l3.623 4.142.754-.66L12 11.812V6z"/></svg>