<svg height="24" width="24" xmlns="http://www.w3.org/2000/svg"><path style="fill:gray;stroke-width:2;stroke-linecap:square;stroke-linejoin:round" d="M5.5 2a.499.499 0 1 0 0 1h1.354C6.299 3.566 6 4.411 6 5.5v.14L9.912 12 6 18.36v.14c0 1.089.3 1.934.854 2.5H5.5a.499.499 0 1 0 0 1h13a.499.499 0 1 0 0-1h-1.354c.555-.566.854-1.411.854-2.5v-.14L14.086 12 18 5.64V5.5c0-1.089-.3-1.934-.854-2.5H18.5a.499.499 0 1 0 0-1h-13zm5 1h3c1.217 0 2.131.142 2.67.484.516.329.789.854.812 1.905L12.912 12l.162.262 3.908 6.35c-.023 1.05-.296 1.575-.812 1.904-.539.342-1.453.484-2.67.484h-3c-1.217 0-2.131-.142-2.67-.484-.516-.329-.789-.854-.812-1.905L11.088 12l-4.07-6.611c.023-1.051.296-1.576.812-1.905C8.37 3.142 9.283 3 10.5 3zm-1 4 2.5 4 2.5-4h-5zm2.5 6-.447 4.02A4 3 0 0 0 8 20h8a4 3 0 0 0-3.553-2.98L12 13z"/></svg>