<svg height="24" width="24" xmlns="http://www.w3.org/2000/svg"><path style="fill:gray;stroke-width:2;stroke-linecap:square;stroke-linejoin:round" d="M5.5 2a.499.499 0 1 0 0 1h1.354C6.299 3.566 6 4.411 6 5.5v.14L9.912 12 6 18.36v.14c0 1.089.3 1.934.854 2.5H5.5a.499.499 0 1 0 0 1h13a.499.499 0 1 0 0-1h-1.354c.555-.566.854-1.411.854-2.5v-.14L14.086 12 18 5.64V5.5c0-1.089-.3-1.934-.854-2.5H18.5a.499.499 0 1 0 0-1h-13zm4 5h5L12 11 9.5 7zm2.5 6 .447 4.02A4 3 0 0 1 16 20H8a4 3 0 0 1 3.553-2.98L12 13z"/></svg>