<svg height="24" width="24" xmlns="http://www.w3.org/2000/svg"><path style="color:#000;fill:gray;fill-opacity:1" d="M6.455 2c-.969.009-1.718.073-2.338.445-.413.248-.72.656-.888 1.162C3.059 4.114 3 4.722 3 5.5v13c0 .778.059 1.391.25 1.908.191.517.553.927 1.027 1.164.95.475 2.223.428 4.223.428h7c1.5 0 2.556.05 3.383-.445.413-.248.72-.656.888-1.162.17-.507.229-1.115.229-1.893V8h-6V2H7.5c-.375 0-.722-.003-1.045 0zM15 2.293V7h4.707L15 2.293zm-3.047 8.084 1.09.271-1.996 7.975-1.09-.271 1.936-7.733.06-.242zM9.25 11.814v1.264L6.48 14.5l2.77 1.422v1.264L5 15.004v-1.008L8.887 12l.363-.186zm4.5 0L18 13.996v1.008l-4.25 2.182v-1.264l2.77-1.422-2.77-1.422v-1.264z"/></svg>