<svg height="24" width="24" xmlns="http://www.w3.org/2000/svg"><path style="color:#000;fill:gray;stroke-linecap:round;-inkscape-stroke:none" d="M12 3a2.508 2.508 0 0 0-2.5 2.5C9.5 6.875 10.625 8 12 8s2.5-1.125 2.5-2.5S13.375 3 12 3z"/><path style="fill:gray;fill-opacity:1;stroke:none;stroke-linecap:round" d="M3.996 9v1h.5c1.679 0 2.745.355 3.41 1.027.666.673 1.008 1.745 1.026 3.377l.064 6.102V21h.006v.006l.5-.006h.496v-.006H10v-.334l-.002-.166H10V17c0-1.108.892-2 2-2s2 .892 2 2v3.494h.004l-.004.25v.25h.004V21h.494l.5.006V21h.006v-.494l.064-6.102c.018-1.632.36-2.704 1.026-3.377.665-.672 1.731-1.027 3.41-1.027h.5V9H4.498z"/></svg>