<svg height="24" width="24" xmlns="http://www.w3.org/2000/svg"><path style="fill:gray;stroke-width:2;stroke-linecap:square;stroke-linejoin:round;fill-opacity:1" d="M12 2A10 10 0 0 0 2 12a10 10 0 0 0 10 10 10 10 0 0 0 10-10A10 10 0 0 0 12 2zm0 1a9 9 0 0 1 9 9 9 9 0 0 1-9 9 9 9 0 0 1-9-9 9 9 0 0 1 9-9z"/><rect style="fill:gray;stroke-width:2;stroke-linecap:square;stroke-linejoin:round;fill-opacity:1" width="2" height="6" x="11" y="11" rx="0" ry="0"/><circle style="fill:gray;stroke-width:1.99999;stroke-linecap:square;stroke-linejoin:round;fill-opacity:1" cx="12" cy="8" r="1.5"/></svg>