<?xml version="1.0" encoding="UTF-8" standalone="no"?>
<svg viewBox="0 0 24 24" height="24" width="24" version="1.1" id="svg4" sodipodi:docname="kde-logo.svg" inkscape:version="1.2 (1:1.2.1+202207142221+cd75a1ee6d)"
   xmlns:inkscape="http://www.inkscape.org/namespaces/inkscape"
   xmlns:sodipodi="http://sodipodi.sourceforge.net/DTD/sodipodi-0.dtd"
   xmlns="http://www.w3.org/2000/svg"
   xmlns:svg="http://www.w3.org/2000/svg">
   <defs id="defs8" />
   <sodipodi:namedview id="namedview6" pagecolor="#ffffff" bordercolor="#666666" borderopacity="1.0" inkscape:showpageshadow="2" inkscape:pageopacity="0.0" inkscape:pagecheckerboard="0" inkscape:deskcolor="#d1d1d1" showgrid="false" inkscape:zoom="32.833333" inkscape:cx="11.436548" inkscape:cy="12.076142" inkscape:window-width="1850" inkscape:window-height="1016" inkscape:window-x="0" inkscape:window-y="0" inkscape:window-maximized="1" inkscape:current-layer="svg4" />
   <path d="M 13.567719,1.9999981 10.241578,2.3184079 V 16.014092 l 3.290911,-0.495455 V 9.6793168 l 4.423638,6.4765982 3.467956,-1.09728 -4.529774,-6.2286391 4.565236,-5.8747737 -3.53864,-0.8136344 -4.388415,5.87455 z M 6.0281657,5.3375037 c -0.037568,0.00386 -0.073837,0.020485 -0.1020396,0.048858 L 4.6206699,6.6915858 c -0.05489,0.055045 -0.065223,0.1404017 -0.024756,0.2070461 l 1.528407,2.5172769 C 5.8532383,9.8716428 5.6359697,10.363009 5.4806876,10.881363 l -2.8059157,0.583634 c -0.078066,0.01618 -0.1343167,0.08534 -0.1343167,0.165456 v 1.845913 c 0,0.07807 0.053412,0.145682 0.1286323,0.163861 L 5.3925,14.305909 c 0.1452319,0.60034 0.3702837,1.169432 0.66773,1.692502 l -1.5763692,2.403865 c -0.043982,0.06718 -0.034772,0.155682 0.022035,0.212273 l 1.3049996,1.305232 c 0.05489,0.05474 0.1405719,0.06548 0.2075035,0.02521 l 2.4702265,-1.500227 c 0.4852274,0.280002 1.0085218,0.500349 1.5615956,0.649779 l 0.576359,2.771134 c 0.01621,0.07852 0.08563,0.134325 0.165233,0.134325 h 1.846144 c 0.07761,0 0.145342,-0.05296 0.163865,-0.129098 l 0.678863,-2.776817 c 0.570112,-0.15386 1.109316,-0.38318 1.606365,-0.675909 l 2.434316,1.596137 c 0.06694,0.04406 0.155459,0.03526 0.212273,-0.02158 l 1.305457,-1.305232 c 0.05522,-0.0552 0.06511,-0.140564 0.02453,-0.207043 l -0.888639,-1.464549 -0.287504,0.0909 c -0.04191,0.01323 -0.08761,-0.0023 -0.112267,-0.03889 0,0 -0.566819,-0.829768 -1.29887,-1.901134 -0.87511,1.712726 -2.655566,2.885907 -4.711596,2.885907 -2.921083,0 -5.289324,-2.368295 -5.289324,-5.289548 0,-2.148978 1.2817692,-3.9971021 3.1218222,-4.8250003 V 6.5736072 C 9.2623626,6.6907611 8.9386089,6.8320096 8.6311061,6.9995158 8.6308819,6.9993071 8.6306578,6.9987428 8.629792,6.9979696 L 6.1381975,5.3637892 c -0.033562,-0.021959 -0.072446,-0.03069 -0.1100031,-0.026835 z" fill="#fcfcfc" stroke-width="0.204868" id="path6" style="fill:#808080" />
</svg>
