<svg height="24" width="24" xmlns="http://www.w3.org/2000/svg"><path d="m13.568 2-3.326.318v13.696l3.29-.495v-5.84l4.424 6.477 3.468-1.097-4.53-6.229 4.566-5.875-3.54-.813-4.388 5.874zm-7.54 3.338a.168.168 0 0 0-.102.048L4.621 6.692a.169.169 0 0 0-.025.207l1.528 2.517a6.533 6.533 0 0 0-.643 1.465l-2.806.584a.169.169 0 0 0-.135.165v1.846c0 .078.054.146.13.164l2.723.666c.145.6.37 1.17.667 1.692l-1.576 2.404a.169.169 0 0 0 .022.213L5.81 19.92a.17.17 0 0 0 .207.025l2.47-1.5c.486.28 1.01.5 1.562.65l.577 2.77a.169.169 0 0 0 .165.135h1.846a.169.169 0 0 0 .164-.13l.679-2.776a6.505 6.505 0 0 0 1.606-.676l2.434 1.596a.169.169 0 0 0 .213-.021l1.305-1.305a.168.168 0 0 0 .025-.208l-.889-1.464-.288.09a.1.1 0 0 1-.112-.038l-1.299-1.901a5.29 5.29 0 1 1-6.88-7.229V6.574A6.516 6.516 0 0 0 8.632 7l-.001-.002-2.492-1.634a.17.17 0 0 0-.11-.027z" fill="#fcfcfc" style="fill:gray"/></svg>