<svg height="24" width="24" xmlns="http://www.w3.org/2000/svg"><path style="color:#000;fill:gray;fill-opacity:1;-inkscape-stroke:none" d="M4.787 6c-.677.006-1.25.048-1.76.303-.34.17-.63.462-.797.838C2.064 7.516 2 7.958 2 8.5v7c0 .542.064.984.23 1.36.167.375.458.668.797.837.68.34 1.473.303 2.473.303h3c1 0 1.794.037 2.473-.303.34-.17.63-.462.797-.838.166-.375.23-.817.23-1.359V14h2.207l.793-.793 1 1 1-1 .646.647 1.395 1.394 2.629-3.285-.316-.317L19.707 10H12V8.5c0-.542-.064-.984-.23-1.36a1.72 1.72 0 0 0-.797-.837C10.293 5.963 9.5 6 8.5 6h-3c-.25 0-.487-.002-.713 0zM6 11a1 1 0 0 1 1 1 1 1 0 0 1-1 1 1 1 0 0 1-1-1 1 1 0 0 1 1-1z"/></svg>