<svg height="24" width="24" xmlns="http://www.w3.org/2000/svg"><path style="color:#000;fill:gray;-inkscape-stroke:none;fill-opacity:1" d="M5.5 6c-1 0-1.794-.037-2.473.303-.34.17-.63.462-.797.838C2.064 7.516 2 7.958 2 8.5v7c0 .542.064.984.23 1.36.167.375.458.668.797.837.68.34 1.473.303 2.473.303h3c1 0 1.794.037 2.473-.303.34-.17.63-.462.797-.838.166-.375.23-.817.23-1.359V14h2.207l.793-.793 1 1 1-1 .646.647 1.395 1.394 2.629-3.285-.316-.317L19.707 10H12V8.5c0-.542-.064-.984-.23-1.36a1.72 1.72 0 0 0-.797-.837C10.293 5.963 9.5 6 8.5 6zm0 1h3c1 0 1.706.037 2.027.197.16.08.245.163.328.35.084.187.145.495.145.953V11h8.293l1.037 1.037-1.371 1.715-.605-.606L17 11.793l-1 1-1-1L13.793 13H11v2.5c0 .458-.061.766-.145.953a.615.615 0 0 1-.328.35c-.32.16-1.027.197-2.027.197h-3c-1 0-1.706-.037-2.027-.197a.615.615 0 0 1-.328-.35C3.06 16.266 3 15.958 3 15.5v-7c0-.458.061-.766.145-.953a.615.615 0 0 1 .328-.35C3.793 7.037 4.5 7 5.5 7z"/><path style="color:#000;fill:gray;stroke-width:2;stroke-linecap:square;stroke-linejoin:round;-inkscape-stroke:none;fill-opacity:1" d="M7 12a1 1 0 0 1-1 1 1 1 0 0 1-1-1 1 1 0 0 1 1-1 1 1 0 0 1 1 1z"/></svg>