<?xml version="1.0" encoding="UTF-8" standalone="no"?>
<svg viewBox="0 1 24 24" height="24" width="24" version="1.1" id="svg4" sodipodi:docname="key.svg" inkscape:version="1.1 (ce6663b3b7, 2021-05-25)"
   xmlns:inkscape="http://www.inkscape.org/namespaces/inkscape"
   xmlns:sodipodi="http://sodipodi.sourceforge.net/DTD/sodipodi-0.dtd"
   xmlns="http://www.w3.org/2000/svg"
   xmlns:svg="http://www.w3.org/2000/svg">
   <defs id="defs8" />
   <sodipodi:namedview id="namedview6" pagecolor="#ffffff" bordercolor="#666666" borderopacity="1.0" inkscape:pageshadow="2" inkscape:pageopacity="0.0" inkscape:pagecheckerboard="0" showgrid="true" inkscape:snap-page="true" inkscape:zoom="39.59798" inkscape:cx="18.220627" inkscape:cy="11.452604" inkscape:window-width="1920" inkscape:window-height="1016" inkscape:window-x="0" inkscape:window-y="27" inkscape:window-maximized="1" inkscape:current-layer="svg4">
      <inkscape:grid type="xygrid" id="grid6" />
      <inkscape:grid type="xygrid" id="grid823" dotted="true" spacingx="0.5" spacingy="0.5" empspacing="10" />
   </sodipodi:namedview>
   <path style="color:#000000;fill:#808080;-inkscape-stroke:none;fill-opacity:1" d="m 5.5,6 c -0.999999,0 -1.7937715,-0.036708 -2.4726562,0.3027344 -0.3394424,0.1697212 -0.6300053,0.4624336 -0.796875,0.8378906 -0.1668698,0.375457 -0.2304688,0.8177089 -0.2304688,1.359375 v 7 c 0,0.541666 0.063599,0.983918 0.2304688,1.359375 0.1668697,0.375457 0.4574326,0.668169 0.796875,0.837891 0.6788847,0.339442 1.4726572,0.302734 2.4726562,0.302734 h 3 c 0.999999,0 1.793771,0.03671 2.472656,-0.302734 0.339443,-0.169722 0.630005,-0.462434 0.796875,-0.837891 0.16687,-0.375457 0.230469,-0.817709 0.230469,-1.359375 v -1.5 h 2.207031 l 0.792969,-0.792969 1,1 1,-1 0.646484,0.646485 1.394532,1.394531 2.628906,-3.285156 -0.316406,-0.316407 -1.646485,-1.646484 h -7.707031 v -1.5 c 0,-0.5416661 -0.0636,-0.983918 -0.230469,-1.359375 -0.16687,-0.375457 -0.457432,-0.6681694 -0.796875,-0.8378906 -0.678885,-0.3394424 -1.472657,-0.3027344 -2.472656,-0.3027344 z m 0,1 h 3 c 0.999999,0 1.70623,0.036708 2.027344,0.1972656 0.160557,0.080279 0.244995,0.162567 0.328125,0.3496094 0.08313,0.1870424 0.144531,0.4947921 0.144531,0.953125 v 2.5 h 8.292969 l 1.037109,1.037109 -1.371094,1.714844 -0.605468,-0.605469 -1.353516,-1.353515 -1,1 -1,-1 -1.207031,1.207031 h -2.792969 v 2.5 c 0,0.458333 -0.0614,0.766083 -0.144531,0.953125 -0.08313,0.187042 -0.167568,0.269331 -0.328125,0.349609 -0.321114,0.160557 -1.027345,0.197266 -2.027344,0.197266 h -3 c -0.999999,0 -1.7062295,-0.03671 -2.0273437,-0.197266 -0.1605572,-0.08028 -0.2449951,-0.162567 -0.328125,-0.349609 -0.08313,-0.187042 -0.1445313,-0.494792 -0.1445313,-0.953125 v -7 c 0,-0.4583329 0.061401,-0.7660826 0.1445313,-0.953125 0.08313,-0.1870424 0.1675678,-0.2693308 0.328125,-0.3496094 0.3211142,-0.1605571 1.0273447,-0.1972656 2.0273437,-0.1972656 z" id="path858" />
   <path style="color:#000000;fill:#808080;fill-rule:evenodd;stroke-width:2;stroke-linecap:square;stroke-linejoin:round;-inkscape-stroke:none;fill-opacity:1" d="m 7,12 a 1,1 0 0 1 -1,1 1,1 0 0 1 -1,-1 1,1 0 0 1 1,-1 1,1 0 0 1 1,1 z" id="path1209" />
</svg>
