<?xml version="1.0" encoding="UTF-8" standalone="no"?>
<svg
   height="24"
   width="24"
   version="1.1"
   id="svg1251"
   sodipodi:docname="key.svg"
   inkscape:version="1.2 (1:1.2.1+202207142221+cd75a1ee6d)"
   xmlns:inkscape="http://www.inkscape.org/namespaces/inkscape"
   xmlns:sodipodi="http://sodipodi.sourceforge.net/DTD/sodipodi-0.dtd"
   xmlns="http://www.w3.org/2000/svg"
   xmlns:svg="http://www.w3.org/2000/svg">
  <defs
     id="defs1255" />
  <sodipodi:namedview
     id="namedview1253"
     pagecolor="#ffffff"
     bordercolor="#666666"
     borderopacity="1.0"
     inkscape:showpageshadow="2"
     inkscape:pageopacity="0.0"
     inkscape:pagecheckerboard="0"
     inkscape:deskcolor="#d1d1d1"
     showgrid="true"
     inkscape:zoom="13.906433"
     inkscape:cx="-2.58873"
     inkscape:cy="8.4133724"
     inkscape:window-width="1920"
     inkscape:window-height="1011"
     inkscape:window-x="0"
     inkscape:window-y="0"
     inkscape:window-maximized="1"
     inkscape:current-layer="svg1251">
    <inkscape:grid
       type="xygrid"
       id="grid1374" />
    <inkscape:grid
       type="xygrid"
       id="grid1484"
       dotted="true"
       spacingx="0.5"
       spacingy="0.5"
       empspacing="10" />
  </sodipodi:namedview>
  <path
     id="path1541"
     style="color:#000000;fill:#808080;fill-rule:evenodd;stroke-linecap:round;stroke-linejoin:round"
     d="M 7 7 C 4.2445041 7 2 9.2445041 2 12 C 2 14.755496 4.2445041 17 7 17 C 9.0447096 17 10.806418 15.763494 11.580078 14 L 13 14 A 0.50005 0.50005 0 0 0 13.353516 13.853516 L 14 13.207031 L 15.146484 14.353516 A 0.50005 0.50005 0 0 0 15.853516 14.353516 L 17 13.207031 L 18.646484 14.853516 A 0.50005 0.50005 0 0 0 19.353516 14.853516 L 21.853516 12.353516 A 0.50005 0.50005 0 0 0 21.853516 11.646484 L 20.353516 10.146484 A 0.50005 0.50005 0 0 0 20 10 L 11.580078 10 C 10.806418 8.2365056 9.0447096 7 7 7 z M 7 8 C 9.2150569 8 11 9.7849431 11 12 C 11 14.215057 9.2150569 16 7 16 C 4.7849431 16 3 14.215057 3 12 C 3 9.7849431 4.7849431 8 7 8 z M 5 11 C 4.4477159 11 4 11.447716 4 12 C 4 12.552284 4.4477159 13 5 13 C 5.5522841 13 6 12.552284 6 12 C 6 11.447716 5.5522841 11 5 11 z M 11.900391 11 L 19.792969 11 L 20.792969 12 L 19 13.792969 L 17.353516 12.146484 A 0.50005 0.50005 0 0 0 16.646484 12.146484 L 15.5 13.292969 L 14.353516 12.146484 A 0.50005 0.50005 0 0 0 13.646484 12.146484 L 12.792969 13 L 11.900391 13 C 11.966352 12.676766 12 12.342332 12 12 C 12 11.657668 11.966352 11.323234 11.900391 11 z " />
</svg>
