<?xml version="1.0" encoding="UTF-8" standalone="no"?>
<svg viewBox="0 1 24 24" version="1.1" width="24" height="24" id="svg4" sodipodi:docname="keyboard-shortcuts-filled.svg" inkscape:version="1.1.1 (eb90963e84, 2021-10-02)"
   xmlns:inkscape="http://www.inkscape.org/namespaces/inkscape"
   xmlns:sodipodi="http://sodipodi.sourceforge.net/DTD/sodipodi-0.dtd"
   xmlns="http://www.w3.org/2000/svg"
   xmlns:svg="http://www.w3.org/2000/svg">
   <defs id="defs8" />
   <sodipodi:namedview id="namedview6" pagecolor="#ffffff" bordercolor="#666666" borderopacity="1.0" inkscape:pageshadow="2" inkscape:pageopacity="0.0" inkscape:pagecheckerboard="0" showgrid="false" inkscape:zoom="16" inkscape:cx="23.96875" inkscape:cy="23.59375" inkscape:window-width="1920" inkscape:window-height="1016" inkscape:window-x="0" inkscape:window-y="27" inkscape:window-maximized="1" inkscape:current-layer="svg4">
      <inkscape:grid type="xygrid" id="grid333" dotted="false" />
      <inkscape:grid type="xygrid" id="grid1150" dotted="true" spacingx="0.5" spacingy="0.5" empspacing="10" />
   </sodipodi:namedview>
   <path d="m 17.0001,14 v 2 h -2 v 1 h 2 v 2 h 1 v -2 h 2 v -1 h -2 v -2 z" color="#000000" fill="#808080" stroke-width="0.91264" id="path2" sodipodi:nodetypes="ccccccccccccc" />
   <path style="color:#000000;fill:#808080;-inkscape-stroke:none" d="m 15.5,4 c -0.999999,0 -1.793771,-0.036708 -2.472656,0.3027344 -0.339443,0.1697212 -0.630005,0.4624336 -0.796875,0.8378906 -0.16687,0.375457 -0.230469,0.8177089 -0.230469,1.359375 v 3 c 0,0.541666 0.0636,0.983918 0.230469,1.359375 0.16687,0.375457 0.457432,0.668169 0.796875,0.837891 0.678885,0.339442 1.472657,0.302734 2.472656,0.302734 h 1 c 0.999999,0 1.793771,0.03671 2.472656,-0.302734 0.339443,-0.169722 0.630005,-0.462434 0.796875,-0.837891 0.16687,-0.375457 0.230469,-0.817709 0.230469,-1.359375 v -3 c 0,-0.5416661 -0.0636,-0.983918 -0.230469,-1.359375 -0.16687,-0.375457 -0.457432,-0.6681694 -0.796875,-0.8378906 -0.678885,-0.3394424 -1.472657,-0.3027344 -2.472656,-0.3027344 z" id="path1185" sodipodi:nodetypes="sssssssssssssssss" />
   <path style="color:#000000;fill:#808080;-inkscape-stroke:none" d="m 7.5,13 c -0.999999,0 -1.7937715,-0.03671 -2.4726563,0.302734 -0.3394423,0.169722 -0.6300052,0.462434 -0.796875,0.837891 -0.1668697,0.375457 -0.2304687,0.817709 -0.2304687,1.359375 v 2 c 0,0.541666 0.063599,0.983918 0.2304687,1.359375 0.1668698,0.375457 0.4574327,0.668169 0.796875,0.837891 0.6788848,0.339442 1.4726573,0.302734 2.4726563,0.302734 h 3 c 0.999999,0 1.793771,0.03671 2.472656,-0.302734 0.339443,-0.169722 0.630005,-0.462434 0.796875,-0.837891 0.16687,-0.375457 0.230469,-0.817709 0.230469,-1.359375 v -2 c 0,-0.541666 -0.0636,-0.983918 -0.230469,-1.359375 -0.16687,-0.375457 -0.457432,-0.668169 -0.796875,-0.837891 -0.678885,-0.339442 -1.472657,-0.302734 -2.472656,-0.302734 z" id="path2276" sodipodi:nodetypes="sssssssssssssssss" />
   <path style="color:#000000;fill:#808080;-inkscape-stroke:none" d="m 7.5,4 c 0,0 -1.793771,-0.036708 -2.472656,0.3027344 -0.339443,0.1697212 -0.630005,0.4624336 -0.796875,0.8378906 -0.16687,0.375457 -0.230469,0.8177089 -0.230469,1.359375 v 3 c 0,0.541666 0.0636,0.983918 0.230469,1.359375 0.16687,0.375457 0.457432,0.668169 0.796875,0.837891 0.678885,0.339442 2.472656,0.302734 2.472656,0.302734 0,0 1.793771,0.03671 2.472656,-0.302734 0.339443,-0.169722 0.630005,-0.462434 0.796875,-0.837891 0.16687,-0.375457 0.230469,-0.817709 0.230469,-1.359375 v -3 c 0,-0.5416661 -0.0636,-0.983918 -0.230469,-1.359375 -0.16687,-0.375457 -0.457432,-0.6681694 -0.796875,-0.8378906 -0.678885,-0.3394424 -2.472656,-0.3027344 -2.472656,-0.3027344 z" id="path228" sodipodi:nodetypes="ssssssscsssssss" />
</svg>
