<svg height="24" width="24" xmlns="http://www.w3.org/2000/svg"><path style="color:#000;fill:gray;-inkscape-stroke:none" d="M5.455 5c-.969.009-1.718.073-2.338.445-.413.248-.72.656-.888 1.162C2.059 7.114 2 7.722 2 8.5v7c0 .778.06 1.386.229 1.893.168.506.475.914.888 1.162C3.944 19.05 5 19 6.5 19h10c1.5 0 2.556.05 3.383-.445.413-.248.72-.656.888-1.162.17-.507.229-1.115.229-1.893v-7c0-.778-.06-1.386-.229-1.893-.168-.506-.475-.914-.888-1.162C19.056 4.95 18 5 16.5 5h-10c-.375 0-.722-.003-1.045 0zM6.5 6h10c1.5 0 2.444.05 2.867.305.212.127.343.281.455.619.113.337.178.854.178 1.576v7c0 .722-.065 1.239-.178 1.576-.112.338-.243.492-.455.62C18.944 17.948 18 18 16.5 18h-10c-1.5 0-2.444-.05-2.867-.305-.212-.127-.343-.281-.455-.619C3.065 16.74 3 16.222 3 15.5v-7c0-.722.065-1.239.178-1.576.112-.338.243-.492.455-.62C4.056 6.052 5 6 6.5 6zM6 10v1h1v-1H6zm2 0v1h1v-1H8zm2 0v1h1v-1h-1zm2 0v1h1v-1h-1zm2 0v1h1v-1h-1zm2 0v1h1v-1h-1zm-9 2v1h1v-1H7zm2 0v1h1v-1H9zm2 0v1h1v-1h-1zm2 0v1h1v-1h-1zm2 0v1h1v-1h-1zm-9 2v1h1v-1H6zm2 0v1h7v-1H8zm8 0v1h1v-1h-1z"/></svg>