<?xml version="1.0" encoding="UTF-8" standalone="no"?>
<svg viewBox="0 0 24 24" height="24" width="24" version="1.1" id="svg8" sodipodi:docname="keyboard.svg" inkscape:version="1.1 (ce6663b3b7, 2021-05-25)"
   xmlns:inkscape="http://www.inkscape.org/namespaces/inkscape"
   xmlns:sodipodi="http://sodipodi.sourceforge.net/DTD/sodipodi-0.dtd"
   xmlns="http://www.w3.org/2000/svg"
   xmlns:svg="http://www.w3.org/2000/svg">
   <defs id="defs12" />
   <sodipodi:namedview id="namedview10" pagecolor="#ffffff" bordercolor="#666666" borderopacity="1.0" inkscape:pageshadow="2" inkscape:pageopacity="0.0" inkscape:pagecheckerboard="0" showgrid="true" inkscape:snap-page="true" inkscape:zoom="28" inkscape:cx="11.517857" inkscape:cy="9.375" inkscape:window-width="1920" inkscape:window-height="1016" inkscape:window-x="0" inkscape:window-y="27" inkscape:window-maximized="1" inkscape:current-layer="svg8">
      <inkscape:grid type="xygrid" id="grid823" />
      <inkscape:grid type="xygrid" id="grid825" dotted="true" spacingx="0.5" spacingy="0.5" empspacing="10" />
   </sodipodi:namedview>
   <path id="path860" style="color:#000000;fill:#808080;-inkscape-stroke:none" d="M 5.4550781 5 C 4.4864972 5.0089807 3.7372591 5.0732694 3.1171875 5.4453125 C 2.7038064 5.6933412 2.3972496 6.10122 2.2285156 6.6074219 C 2.0597817 7.1136238 2 7.722223 2 8.5 L 2 15.5 C 2 16.277777 2.059782 16.886376 2.2285156 17.392578 C 2.3972496 17.89878 2.7038064 18.306659 3.1171875 18.554688 C 3.9439497 19.050746 5.0000015 19 6.5 19 L 16.5 19 C 17.999998 19 19.05605 19.05074 19.882812 18.554688 C 20.296194 18.306659 20.60275 17.89878 20.771484 17.392578 C 20.940218 16.886376 21 16.277777 21 15.5 L 21 8.5 C 21 7.722223 20.94022 7.1136238 20.771484 6.6074219 C 20.60275 6.10122 20.296194 5.6933412 19.882812 5.4453125 C 19.056051 4.9492552 17.999998 5 16.5 5 L 6.5 5 C 6.1250004 5 5.7779384 4.9970064 5.4550781 5 z M 6.5 6 L 16.5 6 C 17.999998 6 18.943951 6.050746 19.367188 6.3046875 C 19.578806 6.4316585 19.70975 6.5862809 19.822266 6.9238281 C 19.934781 7.2613754 20 7.7777785 20 8.5 L 20 15.5 C 20 16.222221 19.93478 16.738625 19.822266 17.076172 C 19.70975 17.413719 19.578807 17.568342 19.367188 17.695312 C 18.943952 17.949254 17.999999 18 16.5 18 L 6.5 18 C 5.0000015 18 4.056049 17.94925 3.6328125 17.695312 C 3.4211942 17.568342 3.2902501 17.413719 3.1777344 17.076172 C 3.0652186 16.738625 3 16.222221 3 15.5 L 3 8.5 C 3 7.7777785 3.065219 7.2613754 3.1777344 6.9238281 C 3.2902501 6.5862809 3.4211942 6.4316585 3.6328125 6.3046875 C 4.056049 6.0507456 5.0000015 6 6.5 6 z M 6 10 L 6 11 L 7 11 L 7 10 L 6 10 z M 8 10 L 8 11 L 9 11 L 9 10 L 8 10 z M 10 10 L 10 11 L 11 11 L 11 10 L 10 10 z M 12 10 L 12 11 L 13 11 L 13 10 L 12 10 z M 14 10 L 14 11 L 15 11 L 15 10 L 14 10 z M 16 10 L 16 11 L 17 11 L 17 10 L 16 10 z M 7 12 L 7 13 L 8 13 L 8 12 L 7 12 z M 9 12 L 9 13 L 10 13 L 10 12 L 9 12 z M 11 12 L 11 13 L 12 13 L 12 12 L 11 12 z M 13 12 L 13 13 L 14 13 L 14 12 L 13 12 z M 15 12 L 15 13 L 16 13 L 16 12 L 15 12 z M 6 14 L 6 15 L 7 15 L 7 14 L 6 14 z M 8 14 L 8 15 L 15 15 L 15 14 L 8 14 z M 16 14 L 16 15 L 17 15 L 17 14 L 16 14 z " />
</svg>
