<?xml version="1.0" encoding="UTF-8" standalone="no"?>
<svg
   height="24"
   width="24"
   version="1.1"
   id="svg1931"
   sodipodi:docname="keyboard-filled.svg"
   inkscape:version="1.2 (1:1.2.1+202207142221+cd75a1ee6d)"
   xmlns:inkscape="http://www.inkscape.org/namespaces/inkscape"
   xmlns:sodipodi="http://sodipodi.sourceforge.net/DTD/sodipodi-0.dtd"
   xmlns="http://www.w3.org/2000/svg"
   xmlns:svg="http://www.w3.org/2000/svg">
  <defs
     id="defs1935" />
  <sodipodi:namedview
     id="namedview1933"
     pagecolor="#ffffff"
     bordercolor="#666666"
     borderopacity="1.0"
     inkscape:showpageshadow="2"
     inkscape:pageopacity="0.0"
     inkscape:pagecheckerboard="0"
     inkscape:deskcolor="#d1d1d1"
     showgrid="true"
     inkscape:zoom="27.812867"
     inkscape:cx="6.363961"
     inkscape:cy="13.015559"
     inkscape:window-width="1920"
     inkscape:window-height="1011"
     inkscape:window-x="0"
     inkscape:window-y="0"
     inkscape:window-maximized="1"
     inkscape:current-layer="svg1931">
    <inkscape:grid
       type="xygrid"
       id="grid2054" />
  </sodipodi:namedview>
  <path
     id="path1929"
     style="color:#000000;fill:#808080;-inkscape-stroke:none"
     d="M 5.4550781 5 C 4.4860791 5.009 3.7371869 5.0733129 3.1171875 5.4453125 C 2.7041879 5.6933123 2.3965155 6.1014224 2.2285156 6.6074219 C 2.0585158 7.1144214 2 7.7220008 2 8.5 L 2 14.5 C 2 15.277999 2.0595158 15.885579 2.2285156 16.392578 C 2.3965155 16.898578 2.7041879 17.306688 3.1171875 17.554688 C 3.9441867 18.049687 5.0000015 18 6.5 18 L 16.5 18 C 17.999999 18 19.055813 18.049687 19.882812 17.554688 C 20.295812 17.306688 20.603485 16.898578 20.771484 16.392578 C 20.941484 15.885579 21 15.277999 21 14.5 L 21 8.5 C 21 7.7220008 20.940484 7.1144214 20.771484 6.6074219 C 20.603485 6.1014224 20.295812 5.6933123 19.882812 5.4453125 C 19.055813 4.950313 17.999999 5 16.5 5 L 6.5 5 C 6.1250004 5 5.7780778 4.997 5.4550781 5 z M 6 9 L 7 9 L 7 10 L 6 10 L 6 9 z M 8 9 L 9 9 L 9 10 L 8 10 L 8 9 z M 10 9 L 11 9 L 11 10 L 10 10 L 10 9 z M 12 9 L 13 9 L 13 10 L 12 10 L 12 9 z M 14 9 L 15 9 L 15 10 L 14 10 L 14 9 z M 16 9 L 17 9 L 17 10 L 16 10 L 16 9 z M 7 11 L 8 11 L 8 12 L 7 12 L 7 11 z M 9 11 L 10 11 L 10 12 L 9 12 L 9 11 z M 11 11 L 12 11 L 12 12 L 11 12 L 11 11 z M 13 11 L 14 11 L 14 12 L 13 12 L 13 11 z M 15 11 L 16 11 L 16 12 L 15 12 L 15 11 z M 6 13 L 7 13 L 7 14 L 6 14 L 6 13 z M 8 13 L 15 13 L 15 14 L 8 14 L 8 13 z M 16 13 L 17 13 L 17 14 L 16 14 L 16 13 z " />
</svg>
