<svg height="24" width="24" xmlns="http://www.w3.org/2000/svg"><path style="color:#000;fill:gray;-inkscape-stroke:none" d="M5.455 5c-.969.009-1.718.073-2.338.445-.413.248-.72.656-.888 1.162C2.059 7.114 2 7.722 2 8.5v7c0 .778.06 1.386.229 1.893.168.506.475.914.888 1.162C3.944 19.05 5 19 6.5 19h10c1.5 0 2.556.05 3.383-.445.413-.248.72-.656.888-1.162.17-.507.229-1.115.229-1.893v-7c0-.778-.06-1.386-.229-1.893-.168-.506-.475-.914-.888-1.162C19.056 4.95 18 5 16.5 5h-10c-.375 0-.722-.003-1.045 0zM6 10h1v1H6v-1zm2 0h1v1H8v-1zm2 0h1v1h-1v-1zm2 0h1v1h-1v-1zm2 0h1v1h-1v-1zm2 0h1v1h-1v-1zm-9 2h1v1H7v-1zm2 0h1v1H9v-1zm2 0h1v1h-1v-1zm2 0h1v1h-1v-1zm2 0h1v1h-1v-1zm-9 2h1v1H6v-1zm2 0h7v1H8v-1zm8 0h1v1h-1v-1z"/></svg>