<?xml version="1.0" encoding="UTF-8" standalone="no"?>
<!-- Created with Inkscape (http://www.inkscape.org/) -->

<svg
   width="24"
   height="24"
   viewBox="0 0 24 24"
   version="1.1"
   id="svg5"
   inkscape:version="1.2 (1:1.2.1+202207142221+cd75a1ee6d)"
   sodipodi:docname="light-bulb-off.svg"
   xmlns:inkscape="http://www.inkscape.org/namespaces/inkscape"
   xmlns:sodipodi="http://sodipodi.sourceforge.net/DTD/sodipodi-0.dtd"
   xmlns="http://www.w3.org/2000/svg"
   xmlns:svg="http://www.w3.org/2000/svg">
  <sodipodi:namedview
     id="namedview7"
     pagecolor="#ffffff"
     bordercolor="#666666"
     borderopacity="1.0"
     inkscape:showpageshadow="2"
     inkscape:pageopacity="0.0"
     inkscape:pagecheckerboard="0"
     inkscape:deskcolor="#d1d1d1"
     inkscape:document-units="px"
     showgrid="true"
     inkscape:zoom="19.02887"
     inkscape:cx="6.4901384"
     inkscape:cy="11.824139"
     inkscape:window-width="1920"
     inkscape:window-height="1043"
     inkscape:window-x="0"
     inkscape:window-y="0"
     inkscape:window-maximized="1"
     inkscape:current-layer="layer1">
    <inkscape:grid
       type="xygrid"
       id="grid489" />
    <inkscape:grid
       type="xygrid"
       id="grid491"
       dotted="true"
       spacingx="0.5"
       spacingy="0.5"
       empspacing="10" />
  </sodipodi:namedview>
  <defs
     id="defs2" />
  <g
     inkscape:label="Layer 1"
     inkscape:groupmode="layer"
     id="layer1">
    <path
       style="color:#000000;fill:#808080;fill-rule:evenodd;stroke-linecap:round;stroke-linejoin:round;-inkscape-stroke:none"
       d="m 9.5,19 v 0.5 c 0,0.999998 4e-6,1.5 2,1.5 h 1 c 1.999996,0 2,-0.500002 2,-1.5 v -0.5 z"
       id="path503" />
    <path
       style="fill:#808080;fill-opacity:1;fill-rule:evenodd;stroke-width:0.75;stroke-linecap:round;stroke-linejoin:round"
       id="path886"
       cx="7.5"
       cy="5.5"
       r="5.5"
       d="" />
    <path
       style="fill:#808080;fill-opacity:1;fill-rule:evenodd;stroke-width:0.75;stroke-linecap:round;stroke-linejoin:round"
       id="path888"
       cx="7.5"
       cy="5.5"
       r="4.5"
       d="" />
    <path
       id="path290"
       style="color:#000000;fill:#808080;fill-rule:evenodd;stroke-linecap:round;stroke-linejoin:round;-inkscape-stroke:none"
       d="M 12 3 C 8.6922143 3 5.9798537 5.6925211 6 9.0039062 C 6.012557 11.067872 6.7527142 12.046679 7.3710938 12.875 C 7.9894734 13.703321 8.5154177 14.402731 8.5 16.496094 L 8.5 16.5 C 8.5 17.499997 8.500006 18 10.5 18 L 13.5 18 C 15.499994 18 15.5 17.499997 15.5 16.5 C 15.5 14.342597 16.029041 13.669864 16.646484 12.867188 C 17.263928 12.06451 18 11.104163 18 9 C 18 5.6922204 15.30778 3 12 3 z M 12 4 C 14.76734 4 17 6.2326595 17 9 C 17 10.895829 16.486069 11.435491 15.853516 12.257812 C 15.268088 13.018868 14.606983 14.001239 14.511719 16 L 9.4902344 16 C 9.4067489 14.055699 8.7568392 13.060904 8.171875 12.277344 C 7.5381505 11.428468 7.0112551 10.846028 7 8.9960938 C 6.983186 6.2324712 9.2326657 4 12 4 z " />
    <path
       id="path497"
       style="color:#000000;fill:#808080;fill-rule:evenodd;stroke-linecap:round;stroke-linejoin:round;-inkscape-stroke:none"
       d="m 10.503906,10 c -0.124769,-6.951e-4 -0.245289,0.04528 -0.33789,0.128906 -0.2045489,0.184645 -0.2211458,0.499981 -0.03711,0.705078 0,0 0.244745,0.274486 0.576172,0.550782 0.331426,0.276294 0.717111,0.615234 1.294922,0.615234 0.577812,0 0.963496,-0.33894 1.294922,-0.615234 0.331427,-0.276296 0.576172,-0.550782 0.576172,-0.550782 0.184036,-0.205097 0.167439,-0.520433 -0.03711,-0.705078 -0.205097,-0.1840358 -0.520433,-0.1674389 -0.705078,0.03711 0,0 -0.206267,0.225514 -0.474609,0.449218 -0.268342,0.223704 -0.631185,0.384766 -0.654297,0.384766 -0.02311,0 -0.385955,-0.161062 -0.654297,-0.384766 -0.268342,-0.223704 -0.474609,-0.449218 -0.474609,-0.449218 -0.09369,-0.104395 -0.226923,-0.164633 -0.367188,-0.166016 z"
       sodipodi:nodetypes="ccssscccsssccc" />
  </g>
</svg>
