<?xml version="1.0" encoding="UTF-8" standalone="no"?>
<!-- Created with Inkscape (http://www.inkscape.org/) -->

<svg
   width="24"
   height="24"
   viewBox="0 0 24 24"
   version="1.1"
   id="svg5"
   inkscape:version="1.2 (1:1.2.1+202207142221+cd75a1ee6d)"
   sodipodi:docname="light-bulb-on.svg"
   xmlns:inkscape="http://www.inkscape.org/namespaces/inkscape"
   xmlns:sodipodi="http://sodipodi.sourceforge.net/DTD/sodipodi-0.dtd"
   xmlns="http://www.w3.org/2000/svg"
   xmlns:svg="http://www.w3.org/2000/svg">
  <sodipodi:namedview
     id="namedview7"
     pagecolor="#ffffff"
     bordercolor="#666666"
     borderopacity="1.0"
     inkscape:showpageshadow="2"
     inkscape:pageopacity="0.0"
     inkscape:pagecheckerboard="0"
     inkscape:deskcolor="#d1d1d1"
     inkscape:document-units="px"
     showgrid="true"
     inkscape:zoom="26.910886"
     inkscape:cx="4.106145"
     inkscape:cy="16.313101"
     inkscape:window-width="1920"
     inkscape:window-height="1043"
     inkscape:window-x="0"
     inkscape:window-y="0"
     inkscape:window-maximized="1"
     inkscape:current-layer="layer1">
    <inkscape:grid
       type="xygrid"
       id="grid489" />
    <inkscape:grid
       type="xygrid"
       id="grid491"
       dotted="true"
       spacingx="0.5"
       spacingy="0.5"
       empspacing="10" />
  </sodipodi:namedview>
  <defs
     id="defs2" />
  <g
     inkscape:label="Layer 1"
     inkscape:groupmode="layer"
     id="layer1">
    <path
       style="fill:#808080;fill-opacity:1;fill-rule:evenodd;stroke-width:0.75;stroke-linecap:round;stroke-linejoin:round"
       d="m 9.5,19 v 0.5 c 0,0.999999 2e-6,1.5 2,1.5 h 1 c 1.999998,0 2,-0.500001 2,-1.5 v -0.5 z"
       id="path681" />
    <path
       style="fill:#808080;fill-opacity:1;fill-rule:evenodd;stroke-width:0.75;stroke-linecap:round;stroke-linejoin:round"
       d="m 18.3125,12.566406 -0.5,0.867188 2.597656,1.5 0.5,-0.867188 z"
       id="path679" />
    <path
       style="fill:#808080;fill-opacity:1;fill-rule:evenodd;stroke-width:0.75;stroke-linecap:round;stroke-linejoin:round"
       d="m 5.6875,12.566406 -2.5976562,1.5 0.5,0.867188 2.5976562,-1.5 z"
       id="path677" />
    <path
       style="fill:#808080;fill-opacity:1;fill-rule:evenodd;stroke-width:0.75;stroke-linecap:round;stroke-linejoin:round"
       d="m 10.503906,10 c -0.124769,-6.951e-4 -0.245289,0.04528 -0.33789,0.128906 -0.2045489,0.184645 -0.2211458,0.499981 -0.03711,0.705078 0,0 0.244745,0.274486 0.576172,0.550782 0.331426,0.276294 0.717111,0.615234 1.294922,0.615234 0.577812,0 0.963496,-0.33894 1.294922,-0.615234 0.331427,-0.276296 0.576172,-0.550782 0.576172,-0.550782 0.184036,-0.205097 0.167439,-0.520433 -0.03711,-0.705078 -0.205097,-0.1840358 -0.520433,-0.1674389 -0.705078,0.03711 0,0 -0.206267,0.225514 -0.474609,0.449218 -0.268342,0.223704 -0.631185,0.384766 -0.654297,0.384766 -0.02311,0 -0.385955,-0.161062 -0.654297,-0.384766 -0.268342,-0.223704 -0.474609,-0.449218 -0.474609,-0.449218 -0.09369,-0.104395 -0.226923,-0.164633 -0.367188,-0.166016 z"
       id="path675" />
    <path
       style="fill:#808080;fill-opacity:1;fill-rule:evenodd;stroke-width:0.75;stroke-linecap:round;stroke-linejoin:round"
       d="m 19,9 v 1 h 3 v -1 z"
       id="path673" />
    <path
       style="fill:#808080;fill-opacity:1;fill-rule:evenodd;stroke-width:0.75;stroke-linecap:round;stroke-linejoin:round"
       d="m 2,9 v 1 h 3 v -1 z"
       id="path671" />
    <path
       style="fill:#808080;fill-opacity:1;fill-rule:evenodd;stroke-width:0.75;stroke-linecap:round;stroke-linejoin:round"
       d="m 20.410156,3.5664062 -2.597656,1.5 0.5,0.8671876 2.597656,-1.5 z"
       id="path667" />
    <path
       style="fill:#808080;fill-opacity:1;fill-rule:evenodd;stroke-width:0.75;stroke-linecap:round;stroke-linejoin:round"
       d="m 3.5898438,3.5664062 -0.5,0.8671876 2.5976562,1.5 0.5,-0.8671876 z"
       id="path665" />
    <path
       style="fill:#808080;fill-opacity:1;fill-rule:evenodd;stroke-width:0.75;stroke-linecap:round;stroke-linejoin:round"
       id="path886"
       cx="7.5"
       cy="5.5"
       r="5.5"
       d="" />
    <path
       style="fill:#808080;fill-opacity:1;fill-rule:evenodd;stroke-width:0.75;stroke-linecap:round;stroke-linejoin:round"
       id="path888"
       cx="7.5"
       cy="5.5"
       r="4.5"
       d="" />
    <path
       id="path290"
       style="color:#000000;fill:#808080;fill-rule:evenodd;stroke-linecap:round;stroke-linejoin:round;-inkscape-stroke:none"
       d="m 12,3.000006 c -3.3077857,0 -6.0201463,2.6925211 -6,6.003906 0.012557,2.063966 0.7527142,3.042773 1.3710938,3.871094 0.6183796,0.828321 1.1443239,1.527731 1.1289062,3.621094 v 0.0039 c 0,0.999997 6e-6,1.5 2,1.5 h 3 c 1.999994,0 2,-0.500003 2,-1.5 0,-2.157403 0.529041,-2.830136 1.146484,-3.632812 0.617444,-0.802678 1.353516,-1.763025 1.353516,-3.867188 0,-3.3077796 -2.69222,-6 -6,-6 z m 0,1 c 2.76734,0 5,2.23266 5,5 0,1.895829 -0.513931,2.435491 -1.146484,3.257812 -0.585428,0.761056 -1.246533,1.743427 -1.341797,3.742188 h -5.0214846 c -0.083486,-1.944301 -0.7333952,-2.939096 -1.3183594,-3.722656 -0.6337245,-0.848876 -1.1606199,-1.431316 -1.171875,-3.28125 -0.016814,-2.763623 2.2326657,-4.996094 5,-4.996094 z" />
  </g>
</svg>
