<?xml version="1.0" encoding="UTF-8" standalone="no"?>
<!-- Created with Inkscape (http://www.inkscape.org/) -->

<svg
   width="24"
   height="24"
   viewBox="0 0 24 24"
   version="1.1"
   id="svg5"
   inkscape:version="1.3 (1:1.3+202307231459+0e150ed6c4)"
   sodipodi:docname="light-bulb-on.svg"
   xmlns:inkscape="http://www.inkscape.org/namespaces/inkscape"
   xmlns:sodipodi="http://sodipodi.sourceforge.net/DTD/sodipodi-0.dtd"
   xmlns="http://www.w3.org/2000/svg"
   xmlns:svg="http://www.w3.org/2000/svg">
  <sodipodi:namedview
     id="namedview7"
     pagecolor="#ffffff"
     bordercolor="#666666"
     borderopacity="1.0"
     inkscape:showpageshadow="2"
     inkscape:pageopacity="0.0"
     inkscape:pagecheckerboard="0"
     inkscape:deskcolor="#d1d1d1"
     inkscape:document-units="px"
     showgrid="true"
     inkscape:zoom="26.910886"
     inkscape:cx="9.3642402"
     inkscape:cy="13.377486"
     inkscape:window-width="1920"
     inkscape:window-height="1011"
     inkscape:window-x="0"
     inkscape:window-y="0"
     inkscape:window-maximized="1"
     inkscape:current-layer="layer1">
    <inkscape:grid
       type="xygrid"
       id="grid489"
       originx="0"
       originy="0"
       spacingy="1"
       spacingx="1"
       units="px"
       visible="true" />
    <inkscape:grid
       type="xygrid"
       id="grid491"
       dotted="true"
       spacingx="0.5"
       spacingy="0.5"
       empspacing="10"
       originx="0"
       originy="0"
       units="px"
       visible="true" />
  </sodipodi:namedview>
  <defs
     id="defs2" />
  <g
     inkscape:label="Layer 1"
     inkscape:groupmode="layer"
     id="layer1">
    <path
       id="path290"
       style="color:#000000;fill:#808080;fill-rule:evenodd;stroke-linecap:round;stroke-linejoin:round;-inkscape-stroke:none"
       d="M 12 3 C 8.6922176 3 5.9798537 5.6925247 6 9.0039062 C 6.012557 11.06787 6.7527148 12.04668 7.3710938 12.875 C 7.9894727 13.70332 8.5154177 14.402733 8.5 16.496094 L 8.5 16.5 C 8.5 17.499996 8.500008 18 10.5 18 L 13.5 18 C 15.499992 18 15.5 17.499996 15.5 16.5 C 15.5 14.342599 16.029042 13.669863 16.646484 12.867188 C 17.263928 12.06451 18 11.104161 18 9 C 18 5.6922237 15.307777 3 12 3 z M 10.503906 10 C 10.644171 10.001383 10.777404 10.061621 10.871094 10.166016 C 10.871094 10.166016 11.077361 10.391531 11.345703 10.615234 C 11.614045 10.838938 11.97689 11 12 11 C 12.023112 11 12.385955 10.838938 12.654297 10.615234 C 12.922639 10.391531 13.128906 10.166016 13.128906 10.166016 C 13.313551 9.9614669 13.628888 9.9448706 13.833984 10.128906 C 14.038533 10.313551 14.05513 10.628888 13.871094 10.833984 C 13.871094 10.833984 13.626349 11.10847 13.294922 11.384766 C 12.963496 11.661059 12.577811 12 12 12 C 11.42219 12 11.036504 11.661059 10.705078 11.384766 C 10.373651 11.10847 10.128906 10.833984 10.128906 10.833984 C 9.9448706 10.628888 9.9614669 10.313551 10.166016 10.128906 C 10.258617 10.04528 10.379137 9.9993049 10.503906 10 z " />
    <path
       style="fill:#808080;fill-opacity:1;fill-rule:evenodd;stroke-width:0.75;stroke-linecap:round;stroke-linejoin:round"
       d="m 9.5,19 v 0.5 c 0,0.999999 2e-6,1.5 2,1.5 h 1 c 1.999998,0 2,-0.500001 2,-1.5 v -0.5 z"
       id="path681" />
    <path
       style="fill:#808080;fill-opacity:1;fill-rule:evenodd;stroke-width:0.75;stroke-linecap:round;stroke-linejoin:round"
       d="m 18.3125,12.566406 -0.5,0.867188 2.597656,1.5 0.5,-0.867188 z"
       id="path679" />
    <path
       style="fill:#808080;fill-opacity:1;fill-rule:evenodd;stroke-width:0.75;stroke-linecap:round;stroke-linejoin:round"
       d="m 5.6875,12.566406 -2.5976562,1.5 0.5,0.867188 2.5976562,-1.5 z"
       id="path677" />
    <path
       style="fill:#808080;fill-opacity:1;fill-rule:evenodd;stroke-width:0.75;stroke-linecap:round;stroke-linejoin:round"
       d="m 19,9 v 1 h 3 v -1 z"
       id="path673" />
    <path
       style="fill:#808080;fill-opacity:1;fill-rule:evenodd;stroke-width:0.75;stroke-linecap:round;stroke-linejoin:round"
       d="m 2,9 v 1 h 3 v -1 z"
       id="path671" />
    <path
       style="fill:#808080;fill-opacity:1;fill-rule:evenodd;stroke-width:0.75;stroke-linecap:round;stroke-linejoin:round"
       d="m 20.410156,3.5664062 -2.597656,1.5 0.5,0.8671876 2.597656,-1.5 z"
       id="path667" />
    <path
       style="fill:#808080;fill-opacity:1;fill-rule:evenodd;stroke-width:0.75;stroke-linecap:round;stroke-linejoin:round"
       d="m 3.5898438,3.5664062 -0.5,0.8671876 2.5976562,1.5 0.5,-0.8671876 z"
       id="path665" />
    <path
       style="fill:#808080;fill-opacity:1;fill-rule:evenodd;stroke-width:0.75;stroke-linecap:round;stroke-linejoin:round"
       id="path886"
       cx="7.5"
       cy="5.5"
       r="5.5"
       d="" />
    <path
       style="fill:#808080;fill-opacity:1;fill-rule:evenodd;stroke-width:0.75;stroke-linecap:round;stroke-linejoin:round"
       id="path888"
       cx="7.5"
       cy="5.5"
       r="4.5"
       d="" />
  </g>
</svg>
