<svg height="24" width="24" xmlns="http://www.w3.org/2000/svg"><path style="fill:gray;stroke-width:2;stroke-linecap:round;stroke-linejoin:round" d="M11.5 2a9.5 9.5 0 0 0-.875.063 9.5 10.5 0 0 1 .883.517 9.5 10.5 0 0 1 .916-.535A9.5 9.5 0 0 0 11.5 2zm-2.695.393A9.5 9.5 0 0 0 2.035 11h4.996a9.5 10.5 0 0 1 3.65-7.77 8.5 9.5 0 0 0-1.876-.837zm5.412.003a8.5 9.5 0 0 0-1.862.836A9.5 10.5 0 0 1 15.971 11h5.015a9.5 9.5 0 0 0-6.77-8.604zm-2.701 1.438A8.5 9.5 0 0 0 8.03 11h6.94a8.5 9.5 0 0 0-3.455-7.166zM2.036 12a9.5 9.5 0 0 0 6.751 8.602 8.5 9.5 0 0 0 1.877-.848A9.5 10.5 0 0 1 7.031 12H2.035zm5.995 0a8.5 9.5 0 0 0 3.469 7.154A8.5 9.5 0 0 0 14.969 12H8.03zm7.938 0a9.5 10.5 0 0 1-3.633 7.754 8.5 9.5 0 0 0 1.877.848A9.5 9.5 0 0 0 20.965 12h-4.996zM11.5 20.416a9.5 10.5 0 0 1-.887.52A9.5 9.5 0 0 0 11.5 21a9.5 9.5 0 0 0 .887-.064 9.5 10.5 0 0 1-.887-.52z"/></svg>