<svg height="24" width="24" xmlns="http://www.w3.org/2000/svg"><path style="color:#000;fill:gray;stroke-width:2;stroke-linecap:square;stroke-linejoin:round;-inkscape-stroke:none" d="M11.5 2a9.5 9.5 0 1 0 0 19 9.5 9.5 0 0 0 0-19zm1.238 1.094A8.5 8.5 0 0 1 19.984 11h-3.998c-.13-3.02-1.432-5.834-3.576-7.717a8.25 8.25 0 0 1 .328-.19zm-2.47.004c.116.063.229.13.341.199C8.462 5.173 7.152 7.98 7.014 11H3.039a8.5 8.5 0 0 1 7.229-7.902zm1.23.824C13.55 5.57 14.845 8.164 14.986 11H8.014c.14-2.836 1.434-5.43 3.484-7.078zM3.039 12h3.975c.138 3.025 1.454 5.836 3.609 7.713-.107.066-.216.13-.326.191A8.5 8.5 0 0 1 3.039 12zm4.975 0h6.972c-.136 2.836-1.426 5.433-3.474 7.086C9.454 17.438 8.156 14.84 8.014 12zm7.972 0h3.975a8.5 8.5 0 0 1-7.229 7.902 8.24 8.24 0 0 1-.326-.19c2.145-1.882 3.45-4.692 3.58-7.712z"/></svg>