<?xml version="1.0" encoding="UTF-8" standalone="no"?>
<svg
   viewBox="0 1 24 24"
   height="24"
   width="24"
   version="1.1"
   id="svg10"
   sodipodi:docname="in.svg"
   inkscape:version="1.2 (1:1.2.1+202207142221+cd75a1ee6d)"
   xmlns:inkscape="http://www.inkscape.org/namespaces/inkscape"
   xmlns:sodipodi="http://sodipodi.sourceforge.net/DTD/sodipodi-0.dtd"
   xmlns="http://www.w3.org/2000/svg"
   xmlns:svg="http://www.w3.org/2000/svg">
  <defs
     id="defs14" />
  <sodipodi:namedview
     id="namedview12"
     pagecolor="#ffffff"
     bordercolor="#666666"
     borderopacity="1.0"
     inkscape:pageshadow="2"
     inkscape:pageopacity="0.0"
     inkscape:pagecheckerboard="0"
     showgrid="true"
     inkscape:snap-page="true"
     inkscape:zoom="28"
     inkscape:cx="12.285714"
     inkscape:cy="10.160714"
     inkscape:window-width="1920"
     inkscape:window-height="1016"
     inkscape:window-x="0"
     inkscape:window-y="0"
     inkscape:window-maximized="1"
     inkscape:current-layer="svg10"
     inkscape:showpageshadow="2"
     inkscape:deskcolor="#d1d1d1">
    <inkscape:grid
       type="xygrid"
       id="grid912" />
  </sodipodi:namedview>
  <path
     id="path998"
     style="fill:#808080;fill-opacity:1;fill-rule:evenodd;stroke-linecap:round"
     d="m 10.5,3 c -4.1421356,0 -7.5,3.3578644 -7.5,7.5 0,4.142136 3.3578644,7.5 7.5,7.5 1.816205,-2.54e-4 3.570617,-0.659547 4.9375,-1.855469 l 5.208984,5.208985 0.707032,-0.707032 -5.208985,-5.208984 c 1.195922,-1.366883 1.855215,-3.121295 1.855469,-4.9375 0,-4.1421356 -3.357864,-7.5 -7.5,-7.5 z m 0,1 c 3.589851,0 6.5,2.9101491 6.5,6.5 0,3.589851 -2.910149,6.5 -6.5,6.5 -3.5898509,0 -6.5,-2.910149 -6.5,-6.5 0,-3.5898509 2.9101491,-6.5 6.5,-6.5 z"
     sodipodi:nodetypes="ssccccccssssss" />
</svg>
