<?xml version="1.0" encoding="UTF-8" standalone="no"?>
<svg
   viewBox="0 1 24 24"
   height="24"
   width="24"
   version="1.1"
   id="svg8"
   sodipodi:docname="monitor.svg"
   inkscape:version="1.2 (1:1.2.1+202207142221+cd75a1ee6d)"
   xmlns:inkscape="http://www.inkscape.org/namespaces/inkscape"
   xmlns:sodipodi="http://sodipodi.sourceforge.net/DTD/sodipodi-0.dtd"
   xmlns="http://www.w3.org/2000/svg"
   xmlns:svg="http://www.w3.org/2000/svg">
  <defs
     id="defs12" />
  <sodipodi:namedview
     id="namedview10"
     pagecolor="#ffffff"
     bordercolor="#666666"
     borderopacity="1.0"
     inkscape:pageshadow="2"
     inkscape:pageopacity="0.0"
     inkscape:pagecheckerboard="0"
     showgrid="true"
     inkscape:snap-page="true"
     inkscape:zoom="9.8994949"
     inkscape:cx="-0.95964492"
     inkscape:cy="4.747717"
     inkscape:window-width="1920"
     inkscape:window-height="1043"
     inkscape:window-x="0"
     inkscape:window-y="0"
     inkscape:window-maximized="1"
     inkscape:current-layer="svg8"
     inkscape:showpageshadow="2"
     inkscape:deskcolor="#d1d1d1">
    <inkscape:grid
       type="xygrid"
       id="grid823" />
    <inkscape:grid
       type="xygrid"
       id="grid825"
       dotted="true"
       spacingx="0.5"
       spacingy="0.5"
       empspacing="10" />
  </sodipodi:namedview>
  <path
     id="path860"
     style="color:#000000;fill:#808080;-inkscape-stroke:none"
     d="M 5.4550781 5 C 4.4864982 5.00898 3.7372585 5.0732694 3.1171875 5.4453125 C 2.7038068 5.693341 2.3972495 6.1012205 2.2285156 6.6074219 C 2.0597819 7.1136233 2 7.7222238 2 8.5 L 2 17.5 C 2 18.277776 2.0597822 18.886377 2.2285156 19.392578 C 2.3972495 19.89878 2.7038068 20.306659 3.1171875 20.554688 C 3.9439489 21.050745 5.000003 21 6.5 21 L 17.5 21 C 18.999997 21 20.056051 21.050739 20.882812 20.554688 C 21.296194 20.306659 21.602751 19.89878 21.771484 19.392578 C 21.940218 18.886377 22 18.277776 22 17.5 L 22 8.5 C 22 7.7222238 21.94022 7.1136233 21.771484 6.6074219 C 21.602751 6.1012205 21.296194 5.693341 20.882812 5.4453125 C 20.056052 4.9492557 18.999997 5 17.5 5 L 6.5 5 C 6.1250008 5 5.7779381 4.99701 5.4550781 5 z M 6.5 6 L 17.5 6 C 18.999997 6 19.943951 6.0507463 20.367188 6.3046875 C 20.578805 6.4316584 20.70975 6.5862813 20.822266 6.9238281 C 20.934781 7.2613751 21 7.7777792 21 8.5 L 21 14 L 15.337891 14 L 14.464844 11.814453 A 0.50005 0.50005 0 0 0 13.539062 11.806641 L 11.777344 16.017578 L 9.4785156 8.3554688 A 0.50005 0.50005 0 0 0 9.0078125 8 A 0.50005 0.50005 0 0 0 8.5253906 8.3417969 L 6.6386719 14 L 3 14 L 3 8.5 C 3 7.7777792 3.0652191 7.2613751 3.1777344 6.9238281 C 3.29025 6.5862813 3.4211944 6.4316584 3.6328125 6.3046875 C 4.0560486 6.0507459 5.000003 6 6.5 6 z M 8.9746094 10.15625 L 11.220703 17.644531 A 0.50005 0.50005 0 0 0 12.162109 17.693359 L 13.990234 13.322266 L 14.535156 14.685547 A 0.50005 0.50005 0 0 0 15 15 L 21 15 L 21 17.5 C 21 18.22222 20.93478 18.738625 20.822266 19.076172 C 20.70975 19.413719 20.578806 19.568343 20.367188 19.695312 C 19.943952 19.949254 18.999998 20 17.5 20 L 6.5 20 C 5.000003 20 4.0560486 19.94925 3.6328125 19.695312 C 3.4211944 19.568343 3.29025 19.413719 3.1777344 19.076172 C 3.0652187 18.738625 3 18.22222 3 17.5 L 3 15 L 7 15 A 0.50005 0.50005 0 0 0 7.4746094 14.658203 L 8.9746094 10.15625 z " />
</svg>
