<svg height="24" width="24" xmlns="http://www.w3.org/2000/svg"><path style="color:#000;fill:gray;-inkscape-stroke:none" d="M5.455 5c-.969.009-1.718.073-2.338.445-.413.248-.72.656-.888 1.162C2.059 7.114 2 7.722 2 8.5v9c0 .778.06 1.386.229 1.893.168.506.475.914.888 1.162C3.944 21.05 5 21 6.5 21h11c1.5 0 2.556.05 3.383-.445.413-.248.72-.656.888-1.162.17-.507.229-1.115.229-1.893v-9c0-.778-.06-1.386-.229-1.893-.168-.506-.475-.914-.888-1.162C20.056 4.95 19 5 17.5 5h-11c-.375 0-.722-.003-1.045 0zM6.5 6h11c1.5 0 2.444.05 2.867.305.212.127.343.281.455.619.113.337.178.854.178 1.576V14h-5.662l-.873-2.186a.5.5 0 0 0-.926-.007l-1.762 4.21L9.48 8.356A.5.5 0 0 0 9.008 8a.5.5 0 0 0-.483.342L6.64 14H3V8.5c0-.722.065-1.239.178-1.576.112-.338.243-.492.455-.62C4.056 6.052 5 6 6.5 6zm2.475 4.156 2.246 7.489a.5.5 0 0 0 .941.048l1.828-4.37.545 1.363A.5.5 0 0 0 15 15h6v2.5c0 .722-.065 1.239-.178 1.576-.112.338-.243.492-.455.62C19.944 19.948 19 20 17.5 20h-11c-1.5 0-2.444-.05-2.867-.305-.212-.127-.343-.281-.455-.619C3.065 18.74 3 18.222 3 17.5V15h4a.5.5 0 0 0 .475-.342l1.5-4.502z"/></svg>