<svg height="24" width="24" xmlns="http://www.w3.org/2000/svg"><path style="fill:gray;stroke:none;stroke-width:2;fill-opacity:1" d="M11.5 3C9.333 3 7.277 4.053 7.277 4.053l-.207.103-.054.223c-1 4-1.501 5.998-1.756 7.273C5.005 12.927 5 13.5 5 14.5a6.5 6.5 0 0 0 6.5 6.5 6.5 6.5 0 0 0 6.5-6.5c0-1-.005-1.573-.26-2.848s-.756-3.273-1.756-7.273l-.054-.223-.207-.103S13.667 3 11.5 3zM11 4.021V8h1V4.021c1.487.12 2.816.725 3.074.846.934 3.734 1.45 5.797 1.686 6.98.245 1.226.24 1.653.24 2.653a5.5 5.5 0 0 1-5.5 5.5A5.5 5.5 0 0 1 6 14.5c0-1-.005-1.427.24-2.652.237-1.184.752-3.247 1.686-6.98.258-.122 1.587-.726 3.074-.847z"/></svg>