<svg height="24" width="24" xmlns="http://www.w3.org/2000/svg"><path style="fill:gray;fill-opacity:1;stroke-width:2;stroke-linecap:square;stroke-linejoin:round" d="M8.787 3c-.677.006-1.25.048-1.76.303-.34.17-.63.462-.797.838C6.064 4.516 6 4.958 6 5.5v13c0 .542.064.984.23 1.36.167.375.458.668.797.837.68.34 1.473.303 2.473.303h5c1 0 1.794.037 2.473-.303.34-.17.63-.462.797-.838.166-.375.23-.817.23-1.359v-13c0-.542-.064-.984-.23-1.36a1.72 1.72 0 0 0-.797-.837C16.293 2.963 15.5 3 14.5 3h-5c-.25 0-.487-.002-.713 0zM9 6h6v4H9V6zm3 6a3 3 0 0 1 3 3 3 3 0 0 1-3 3 3 3 0 0 1-3-3 3 3 0 0 1 3-3z"/><path style="fill:gray;fill-opacity:1;stroke-width:2;stroke-linecap:square;stroke-linejoin:round" d="M12 13a2 2 0 0 1 2 2 2 2 0 0 1-2 2 2 2 0 0 1-2-2 2 2 0 0 1 2-2z"/></svg>