<svg height="24" width="24" xmlns="http://www.w3.org/2000/svg"><path d="M21.513 6.984a2.807 2.807 0 0 0-.41.016l-7.21 1.125c-.812.082-.9.462-.894.935v9.52c-.413-.272-.855-.465-1.445-.465-.76 0-1.212.29-1.486.674-.274.382-.366.865-.366 1.238 0 .45.156.929.489 1.295.333.366.845.623 1.582.623.831 0 1.415-.232 1.746-.686.26-.357.406-.835.457-1.423.007-.072.011-.146.016-.221.003-.06.002-.102.003-.172h.004V11.74c.023-.62.584-.711.584-.711l5.854-.914c.562-.172.562.523.562.523v6.942c-.413-.272-.855-.465-1.445-.465-.759 0-1.212.29-1.486.674-.274.383-.365.865-.365 1.238 0 .45.155.929.488 1.295.333.366.845.623 1.582.623.832 0 1.415-.232 1.746-.686.26-.357.406-.835.457-1.423.007-.072.011-.146.016-.221.004-.06.003-.102.004-.172H22V7.875c.012-.686-.14-.866-.487-.89z" color="#000" fill="gray" style="font-variant-ligatures:normal;font-variant-position:normal;font-variant-caps:normal;font-variant-numeric:normal;font-variant-alternates:normal;font-feature-settings:normal;text-indent:0;text-decoration-line:none;text-decoration-style:solid;text-decoration-color:#000;text-transform:none;text-orientation:mixed;white-space:normal;shape-padding:0;isolation:auto;mix-blend-mode:normal"/><path d="M2 2v13h1v-1h1v1h8v-1H5V9h7.002c-.001-.266.019-.629.238-1H5V3h9v4.098l1-.157V6h1v.787l1-.156V2h-1v1h-1V2H4v1H3V2zm1 2h1v1H3zm12 0h1v1h-1zM3 6h1v1H3zm0 2h1v1H3zm0 2h1v1H3zm0 2h1v1H3z" style="fill:gray"/></svg>