<svg height="24" width="24" xmlns="http://www.w3.org/2000/svg"><path style="fill:gray;fill-opacity:1;stroke-width:2;stroke-linecap:square;stroke-linejoin:round" d="M8.787 3c-.677.006-1.25.048-1.76.303-.34.17-.63.462-.797.838C6.064 4.516 6 4.958 6 5.5v13c0 .542.064.984.23 1.36.167.375.458.668.797.837.68.34 1.473.303 2.473.303h5c1 0 1.794.037 2.473-.303.34-.17.63-.462.797-.838.166-.375.23-.817.23-1.359v-13c0-.542-.064-.984-.23-1.36a1.72 1.72 0 0 0-.797-.837C16.293 2.963 15.5 3 14.5 3h-5c-.25 0-.487-.002-.713 0zM9.5 4h5c1 0 1.706.037 2.027.197.16.08.245.163.328.35.084.187.145.495.145.953v13c0 .458-.061.766-.145.953a.615.615 0 0 1-.328.35c-.32.16-1.027.197-2.027.197h-5c-1 0-1.706-.037-2.027-.197a.615.615 0 0 1-.328-.35C7.06 19.266 7 18.958 7 18.5v-13c0-.458.061-.766.145-.953a.615.615 0 0 1 .328-.35C7.793 4.037 8.5 4 9.5 4zM9 6v4h6V6H9zm3 6a3 3 0 0 0-3 3 3 3 0 0 0 3 3 3 3 0 0 0 3-3 3 3 0 0 0-3-3zm0 1a2 2 0 0 1 2 2 2 2 0 0 1-2 2 2 2 0 0 1-2-2 2 2 0 0 1 2-2z"/></svg>