<svg height="24" width="24" xmlns="http://www.w3.org/2000/svg"><path style="color:#000;fill:gray;fill-opacity:1;stroke-linecap:round;-inkscape-stroke:none" d="M13.5 3a6.51 6.51 0 0 0-6.008 4.023A5.008 5.008 0 0 0 2 12c0 2.755 2.245 5 5 5h1.563c.232-.38.528-.717.873-1H7c-2.215 0-4-1.785-4-4s1.785-4 4-4a4 4 0 0 1 1.16.172A5.492 5.492 0 0 1 13.5 4a5.492 5.492 0 0 1 5.473 6.033 5.505 5.505 0 0 1-.184.985A2.49 2.49 0 0 1 21 13.5a2.49 2.49 0 0 1-.497 1.498c.15.348.265.715.336 1.098A3.489 3.489 0 0 0 22 13.5a3.509 3.509 0 0 0-2.053-3.186c.034-.267.053-.538.053-.814C20 5.916 17.084 3 13.5 3zm5.898 9.227z"/><path style="fill:gray;fill-opacity:1;stroke-width:.5;stroke-linecap:square;stroke-linejoin:round" d="M16 13a4 4 0 0 0-3.865 3.004A3 3 0 1 0 12 22h7.5a2.5 2.5 0 0 0 .496-4.95A4.32 4.32 0 0 0 20 17a4 4 0 0 0-4-4zm0 1a3 3 0 0 1 3 3l-.004.059a3 3 0 0 1-.26 1.152 1.5 1.5 0 0 1 1.12-.168A1.5 1.5 0 0 1 19.5 21H12a2 2 0 1 1 1.021-3.719A2.996 2.996 0 0 1 13 17c.003-.266.04-.53.113-.785A3 3 0 0 1 16 14z"/></svg>