<svg height="24" width="24" xmlns="http://www.w3.org/2000/svg"><path style="fill:gray;fill-opacity:1;stroke-width:.5;stroke-linecap:square;stroke-linejoin:round" d="M16 13a4 4 0 0 0-3.865 3.004A3 3 0 1 0 12 22h7.5a2.5 2.5 0 0 0 .496-4.95A4.32 4.32 0 0 0 20 17a4 4 0 0 0-4-4z"/><path style="color:#000;fill:gray;fill-opacity:1;stroke-linecap:round;-inkscape-stroke:none" d="M19.398 12.227z"/><path style="color:#000;fill:gray;fill-opacity:1;stroke-linecap:round" d="M13.5 3a6.51 6.51 0 0 0-6.008 4.023A5.008 5.008 0 0 0 2 12c0 2.755 2.245 5 5 5h1.563a4.069 4.069 0 0 1 2.89-1.889c.766-1.834 2.514-3.107 4.545-3.111A1 1 0 0 0 16 12c2.432 0 4.406 1.784 4.838 4.096A3.489 3.489 0 0 0 22 13.5a3.509 3.509 0 0 0-2.053-3.186c.034-.267.053-.538.053-.814C20 5.916 17.084 3 13.5 3z"/></svg>