<svg height="24" width="24" xmlns="http://www.w3.org/2000/svg"><path style="color:#000;fill:gray;fill-opacity:1" d="M4.787 3c-.677.006-1.25.048-1.76.303-.34.17-.63.462-.797.838C2.064 4.516 2 4.958 2 5.5v10c0 .542.064.984.23 1.36.167.375.458.668.797.837.68.34 1.473.303 2.473.303h13c1 0 1.794.037 2.473-.303.34-.17.63-.462.797-.838.166-.375.23-.817.23-1.359v-10c0-.542-.064-.984-.23-1.36a1.72 1.72 0 0 0-.797-.837C20.293 2.963 19.5 3 18.5 3h-13c-.25 0-.487-.002-.713 0zM4.35 4h15.3c.748 0 1.35.58 1.35 1.3v10.4c0 .72-.602 1.3-1.35 1.3H4.35C3.602 17 3 16.42 3 15.7V5.3C3 4.58 3.602 4 4.35 4zm.85 1C4.533 5 4 5.49 4 6.1v8.8c0 .61.534 1.1 1.2 1.1H7V5H5.2zM8 5v3.93C9.041 7.675 10.922 5.984 13.504 6c4.094.025 6.432 4.254 6.432 4.254a.5.5 0 0 1 .064.228V6.1c0-.61-.534-1.1-1.2-1.1H8zM5 6h1v1H5V6zm8.496 1c-3.172-.02-5.123 3.102-5.373 3.512.222.411 1.94 3.488 5.377 3.488 3.434 0 5.151-3.072 5.375-3.486-.252-.41-2.203-3.495-5.379-3.514zM5 8h1v1H5V8zm8.5 0a2.5 2.5 0 0 1 .736.111A1.25 1.25 0 0 0 13.5 9.25a1.25 1.25 0 0 0 1.25 1.25 1.25 1.25 0 0 0 1.139-.736A2.5 2.5 0 0 1 16 10.5a2.5 2.5 0 0 1-2.5 2.5 2.5 2.5 0 0 1-2.5-2.5A2.5 2.5 0 0 1 13.5 8zM5 10h1v1H5v-1zm15 .51a.5.5 0 0 1-.053.213S17.833 15 13.5 15c-2.666 0-4.49-1.617-5.5-2.863V16h10.8c.666 0 1.2-.49 1.2-1.1v-4.39zM5 12h1v1H5v-1zm0 2h1v1H5v-1zm4 4.999v.125c0 1.875-.625 1.875-1.875 1.875H6v1h12v-1h-1.125c-1.25 0-1.875 0-1.875-1.875v-.125z"/></svg>