<svg height="24" width="24" xmlns="http://www.w3.org/2000/svg"><path style="color:#000;fill:gray;fill-opacity:1;-inkscape-stroke:none" d="M5.455 3.002c-.969.009-1.718.073-2.338.445-.413.248-.72.656-.888 1.162C2.059 5.116 2 5.724 2 6.502v8c0 .778.06 1.386.229 1.893.168.506.475.914.888 1.162.62.372 1.37.436 2.338.445.325.003.666.002 1.045.002H9v1.125c0 1.875-.625 1.875-1.875 1.875H6v1h12v-1h-1.125c-1.25 0-1.875 0-1.875-1.875v-1.125h2.5c.379 0 .72.001 1.045-.002.969-.009 1.718-.073 2.338-.445.413-.248.72-.656.888-1.162.17-.507.229-1.115.229-1.893v-8c0-.778-.06-1.386-.229-1.893-.168-.506-.475-.914-.888-1.162-.827-.496-1.883-.445-3.383-.445h-11c-.375 0-.722-.003-1.045 0zm1.045 1h11c1.5 0 2.444.05 2.867.305.212.127.343.281.455.619.113.337.178.854.178 1.576v8c0 .722-.065 1.239-.178 1.576-.112.338-.243.492-.455.62-.423.253-1.367.304-2.867.304h-11c-.184 0-.333-.004-.5-.006v-4.254C7.234 13.78 9.261 15 12 15c4.76 0 7.406-3.709 7.406-3.709a.5.5 0 0 0 .008-.012.5.5 0 0 0 .008-.011.5.5 0 0 0 .03-.055.5.5 0 0 0 .001-.002.5.5 0 0 0 .024-.06.5.5 0 0 0 .003-.012.5.5 0 0 0 .014-.065.5.5 0 0 0 .004-.05.5.5 0 0 0 .002-.028.5.5 0 0 0 0-.002.5.5 0 0 0 0-.002.5.5 0 0 0-.008-.064.5.5 0 0 0 0-.002.5.5 0 0 0 0-.002.5.5 0 0 0 0-.002.5.5 0 0 0 0-.002.5.5 0 0 0 0-.002.5.5 0 0 0-.002-.014.5.5 0 0 0-.015-.062.5.5 0 0 0-.004-.012.5.5 0 0 0-.028-.06.5.5 0 0 0-.006-.012S16.834 6 12 6C9.253 6 7.235 7.528 6 8.85V4.008c.167-.002.316-.006.5-.006zM3.158 5H5v1H3.012c.021-.427.073-.752.146-1zM3 7h2v1H3V7zm9 0c3.527 0 5.778 3.031 6.389 3.965C17.738 11.735 15.522 14 12 14c-3.008 0-5.058-1.65-6-2.611v-.973C6.93 9.186 9.003 7 12 7zM3 9h2v1H3V9zm0 2h1.51a.5.5 0 0 0 .002.037.5.5 0 0 0 .006.086.5.5 0 0 0 .045.1.5.5 0 0 0 .03.068l.014.018a.5.5 0 0 0 .004.005c.02.027.155.208.389.47V12H3v-1zm0 2h2v1H3v-1zm.012 2H5v1H3.156a4.41 4.41 0 0 1-.144-1z"/><path style="fill:gray;stroke-width:.5;stroke-linecap:round;fill-opacity:1" d="M12 8a3 2.5 0 0 0-3 2.5 3 2.5 0 0 0 3 2.5 3 2.5 0 0 0 3-2.5 3 2.5 0 0 0-.123-.71 1.25 1.25 0 0 1-1.127.71 1.25 1.25 0 0 1-1.25-1.25 1.25 1.25 0 0 1 .61-1.07A3 2.5 0 0 0 12 8z"/></svg>