<?xml version="1.0" encoding="UTF-8" standalone="no"?>
<svg
   viewBox="0 1 24 24"
   height="24"
   width="24"
   version="1.1"
   id="svg10"
   sodipodi:docname="paper-clip.svg"
   inkscape:version="1.2 (1:1.2.1+202207142221+cd75a1ee6d)"
   xmlns:inkscape="http://www.inkscape.org/namespaces/inkscape"
   xmlns:sodipodi="http://sodipodi.sourceforge.net/DTD/sodipodi-0.dtd"
   xmlns="http://www.w3.org/2000/svg"
   xmlns:svg="http://www.w3.org/2000/svg">
  <defs
     id="defs14" />
  <sodipodi:namedview
     id="namedview12"
     pagecolor="#ffffff"
     bordercolor="#666666"
     borderopacity="1.0"
     inkscape:pageshadow="2"
     inkscape:pageopacity="0.0"
     inkscape:pagecheckerboard="0"
     showgrid="true"
     inkscape:snap-page="true"
     inkscape:zoom="16"
     inkscape:cx="4.78125"
     inkscape:cy="5.15625"
     inkscape:window-width="1920"
     inkscape:window-height="1016"
     inkscape:window-x="0"
     inkscape:window-y="0"
     inkscape:window-maximized="1"
     inkscape:current-layer="svg10"
     inkscape:showpageshadow="2"
     inkscape:deskcolor="#d1d1d1">
    <inkscape:grid
       type="xygrid"
       id="grid912" />
    <inkscape:grid
       type="xygrid"
       id="grid899"
       dotted="true"
       spacingx="0.5"
       spacingy="0.5"
       empspacing="10" />
  </sodipodi:namedview>
  <path
     id="path772"
     style="fill:#808080;fill-rule:evenodd;stroke-width:2;stroke-linecap:round;stroke-linejoin:round"
     d="m 19.732947,4.3180195 c -1.757359,-1.7573593 -4.606602,-1.7573593 -6.363961,0 l -9.0509666,9.0509665 c -1.7573591,1.757359 -1.7573593,4.606602 0,6.363961 1.7573593,1.757359 4.606602,1.757359 6.3639606,0 l 0.98995,-0.98995 -0.707107,-0.707106 -0.9899494,0.989949 c -1.3668353,1.366835 -3.5829124,1.366835 -4.9497474,0 -1.366835,-1.366835 -1.3668353,-3.582912 0,-4.949747 l 9.0509668,-9.0509667 c 1.366835,-1.366835 3.582912,-1.366835 4.949747,0 1.366835,1.366835 1.366835,3.5829124 0,4.949747 l -5.23259,5.2325907 c -0.781048,0.781048 -2.047379,0.781048 -2.828427,0 -0.781049,-0.781049 -0.781048,-2.047379 0,-2.828428 l 2.12132,-2.12132 -0.707107,-0.7071067 -2.12132,2.1213207 c -1.1715724,1.171572 -1.1715725,3.071067 0,4.24264 1.171573,1.171573 3.071068,1.171573 4.242641,0 l 5.23259,-5.23259 c 1.757359,-1.7573588 1.757359,-4.6066012 0,-6.3639605 z"
     sodipodi:nodetypes="sssssccsssssssssccsssss" />
</svg>
