<svg height="24" width="24" xmlns="http://www.w3.org/2000/svg"><path style="fill:gray;stroke-width:.5;stroke-linecap:round;fill-opacity:1" d="M9 9v13h12V9H9zm3 3h6v1h-6v-1zm0 2h6v1h-6v-1zm0 2h2v1h-2v-1z"/><path style="fill:gray;fill-opacity:1;stroke-width:.5;stroke-linecap:round" d="M11.5 2A2.5 2.5 0 0 0 9 4.5a2.5 2.5 0 0 0 .059.5H8.5c-1.5 0-2.556-.05-3.383.445-.413.248-.72.656-.888 1.162C4.059 7.114 4 7.722 4 8.5v9c0 .778.06 1.386.229 1.893.168.506.475.914.888 1.162.728.436 1.653.448 2.883.445V8h10.99c-.023-.545-.088-1-.219-1.393-.168-.506-.475-.914-.888-1.162C17.056 4.95 16 5 14.5 5h-.559A2.5 2.5 0 0 0 14 4.5 2.5 2.5 0 0 0 11.5 2zm0 1A1.5 1.5 0 0 1 13 4.5 1.5 1.5 0 0 1 11.5 6 1.5 1.5 0 0 1 10 4.5 1.5 1.5 0 0 1 11.5 3z"/></svg>