<svg height="24" width="24" xmlns="http://www.w3.org/2000/svg"><path style="fill:gray;stroke-width:.5;stroke-linecap:round;fill-opacity:1" d="M11.5 2A2.5 2.5 0 0 0 9 4.5a2.5 2.5 0 0 0 .059.5H8.5c-1.5 0-2.556-.05-3.383.445-.413.248-.72.656-.888 1.162C4.059 7.114 4 7.722 4 8.5v9c0 .778.06 1.386.229 1.893.168.506.475.914.888 1.162C5.944 21.05 7 21 8.5 21H9v1h12V9h-2v-.5c0-.778-.06-1.386-.229-1.893-.168-.506-.475-.914-.888-1.162C17.056 4.95 16 5 14.5 5h-.559A2.5 2.5 0 0 0 14 4.5 2.5 2.5 0 0 0 11.5 2zm0 1A1.5 1.5 0 0 1 13 4.5 1.5 1.5 0 0 1 11.5 6 1.5 1.5 0 0 1 10 4.5 1.5 1.5 0 0 1 11.5 3zM8 6.006V7h7v-.994c1.197.013 1.996.076 2.367.299.212.127.343.281.455.619.113.337.178.854.178 1.576V9H9v11h-.5c-1.5 0-2.444-.05-2.867-.305-.212-.127-.343-.281-.455-.619C5.065 18.74 5 18.222 5 17.5v-9c0-.722.065-1.239.178-1.576.112-.338.243-.492.455-.62.371-.222 1.17-.285 2.367-.298zM10 10h10v11H10V10zm2 2v1h6v-1h-6zm0 2v1h6v-1h-6zm0 2v1h2v-1h-2z"/></svg>