<svg height="24" width="24" xmlns="http://www.w3.org/2000/svg"><path style="color:#000;fill:gray;fill-opacity:1" d="M8.787 2c-.677.006-1.25.048-1.76.303-.34.17-.63.462-.797.838C6.064 3.516 6 3.958 6 4.5v15c0 .542.064.984.23 1.36.167.375.458.668.797.837.68.34 1.473.303 2.473.303h5c1 0 1.794.037 2.473-.303.34-.17.63-.462.797-.838.166-.375.23-.817.23-1.359v-5.182l-1 .987V19H7V5h10v3.65l1-1.015V4.5c0-.542-.064-.984-.23-1.36a1.72 1.72 0 0 0-.797-.837C16.293 1.963 15.5 2 14.5 2h-5c-.25 0-.487-.002-.713 0zM10 3h4v1h-4V3zM8 6v12h8v-1.71l-.057.056a1 1 0 0 1-.213.16 16.98 16.98 0 0 1-3.439 1.451 1 1 0 0 1-1.252-1.234c.35-1.212.8-2.364 1.469-3.479a1 1 0 0 1 .146-.187L16 9.664V6H8zm.475 14H9.5a.499.499 0 1 1 0 1h-1a.5.5 0 0 1-.025-1zm3 0H12.5a.499.499 0 1 1 0 1h-1a.5.5 0 0 1-.025-1zm3 0H15.5a.499.499 0 1 1 0 1h-1a.5.5 0 0 1-.025-1z"/><path d="M20.015 7.015c-2.215 2.249-4.432 4.496-6.648 6.744C12.752 14.784 12.333 15.846 12 17a15.947 15.947 0 0 0 3.241-1.366l6.744-6.649zm-5.953 7.054.869.87-.124.123c-.438.265-.815.425-1.283.61l-.195-.196c.152-.456.375-.857.607-1.28z" style="font-style:normal;font-variant:normal;font-weight:400;font-stretch:normal;font-size:15px;line-height:125%;font-family:Ubuntu;-inkscape-font-specification:Ubuntu;text-align:center;letter-spacing:0;word-spacing:0;writing-mode:lr-tb;text-anchor:middle;fill:gray;fill-opacity:1;stroke:none;stroke-width:.249951"/></svg>