<?xml version="1.0" encoding="UTF-8" standalone="no"?>
<svg
   viewBox="0 0 24 24"
   height="24"
   width="24"
   version="1.1"
   id="svg4"
   sodipodi:docname="pda.svg"
   inkscape:version="1.2 (1:1.2.1+202207142221+cd75a1ee6d)"
   xmlns:inkscape="http://www.inkscape.org/namespaces/inkscape"
   xmlns:sodipodi="http://sodipodi.sourceforge.net/DTD/sodipodi-0.dtd"
   xmlns="http://www.w3.org/2000/svg"
   xmlns:svg="http://www.w3.org/2000/svg">
  <defs
     id="defs8" />
  <sodipodi:namedview
     id="namedview6"
     pagecolor="#ffffff"
     bordercolor="#666666"
     borderopacity="1.0"
     inkscape:pageshadow="2"
     inkscape:pageopacity="0.0"
     inkscape:pagecheckerboard="0"
     showgrid="true"
     inkscape:zoom="32"
     inkscape:cx="9.9062501"
     inkscape:cy="5.5625001"
     inkscape:window-width="1920"
     inkscape:window-height="1043"
     inkscape:window-x="0"
     inkscape:window-y="0"
     inkscape:window-maximized="1"
     inkscape:current-layer="svg4"
     inkscape:showpageshadow="2"
     inkscape:deskcolor="#d1d1d1">
    <inkscape:grid
       type="xygrid"
       id="grid6" />
    <inkscape:grid
       type="xygrid"
       id="grid823"
       dotted="true"
       spacingx="0.5"
       spacingy="0.5"
       empspacing="10" />
  </sodipodi:namedview>
  <path
     id="path860"
     style="color:#000000;fill:#808080;fill-opacity:1"
     d="M 8.7871094 2 C 8.1101657 2.0055872 7.5365056 2.0481532 7.0273438 2.3027344 C 6.6879024 2.472455 6.3973379 2.7651692 6.2304688 3.140625 C 6.0635993 3.5160808 6 3.9583354 6 4.5 L 6 19.5 C 6 20.041663 6.0635993 20.483918 6.2304688 20.859375 C 6.3973379 21.234832 6.6879024 21.527544 7.0273438 21.697266 C 7.7062264 22.036705 8.500004 22 9.5 22 L 14.5 22 C 15.499996 22 16.293774 22.036707 16.972656 21.697266 C 17.312099 21.527544 17.602661 21.234832 17.769531 20.859375 C 17.936401 20.483918 18 20.041663 18 19.5 L 18 14.318359 L 17 15.302734 L 17 19 L 7 19 L 7 5 L 17 5 L 17 8.6484375 C 17.333202 8.3104161 17.666841 7.972792 18 7.6347656 L 18 4.5 C 18 3.9583354 17.9364 3.5160808 17.769531 3.140625 C 17.602661 2.7651692 17.312099 2.472455 16.972656 2.3027344 C 16.293774 1.9632929 15.499996 2 14.5 2 L 9.5 2 C 9.2500008 2 9.0127571 1.9981376 8.7871094 2 z M 10 3 L 14 3 L 14 4 L 10 4 L 10 3 z M 8.4746094 20 C 8.483155 19.99957 8.4913438 20 8.5 20 L 9.5 20 C 9.7769988 20 10 20.223 10 20.5 C 10 20.777 9.7769988 21 9.5 21 L 8.5 21 C 8.2230012 21 8 20.777 8 20.5 C 8 20.231657 8.2096959 20.013342 8.4746094 20 z M 11.474609 20 C 11.483155 19.99957 11.491344 20 11.5 20 L 12.5 20 C 12.777 20 13 20.223 13 20.5 C 13 20.777 12.777 21 12.5 21 L 11.5 21 C 11.223 21 11 20.777 11 20.5 C 11 20.231657 11.209698 20.013342 11.474609 20 z M 14.474609 20 C 14.483155 19.99957 14.491344 20 14.5 20 L 15.5 20 C 15.777 20 16 20.223 16 20.5 C 16 20.777 15.777 21 15.5 21 L 14.5 21 C 14.223 21 14 20.777 14 20.5 C 14 20.231657 14.209698 20.013342 14.474609 20 z " />
  <path
     sodipodi:nodetypes="ccccccccccccc"
     inkscape:connector-curvature="0"
     id="path4344"
     d="m 20.015168,7.0154643 c -2.215561,2.2484416 -4.432336,4.4956927 -6.648658,6.7433857 -0.614437,1.025149 -1.033299,2.087257 -1.36651,3.241447 1.197134,-0.363091 2.243626,-0.80604 3.241433,-1.36651 l 6.7434,-6.6486575 z m -5.953571,7.0540207 0.869222,0.869215 -0.12424,0.123555 c -0.437823,0.264641 -0.81475,0.424605 -1.282665,0.609146 l -0.195018,-0.195018 c 0.152558,-0.455893 0.375019,-0.857354 0.607334,-1.280141 z"
     style="font-style:normal;font-variant:normal;font-weight:normal;font-stretch:normal;font-size:15px;line-height:125%;font-family:Ubuntu;-inkscape-font-specification:Ubuntu;text-align:center;letter-spacing:0px;word-spacing:0px;writing-mode:lr-tb;text-anchor:middle;fill:#808080;fill-opacity:1;stroke:none;stroke-width:0.249951" />
</svg>
