<svg width="24" height="24" fill="none" xmlns="http://www.w3.org/2000/svg"><path style="fill:gray;stroke-width:2.9" d="M12 2c-.478 0-.948.035-1.408.1a10 10 0 0 0-.026.004A9.945 9.945 0 0 0 6.6 3.586a10 10 0 0 0-.01.006 9.966 9.966 0 0 0-1.121.838 10 10 0 0 0-.033.029c-.348.303-.674.629-.977.977a10 10 0 0 0-.03.033c-.304.353-.584.728-.837 1.12a10 10 0 0 0-.006.01 9.97 9.97 0 0 0-1.482 3.967 10 10 0 0 0-.004.026 9.958 9.958 0 0 0 0 2.809 10 10 0 0 0 .007.05c.066.447.163.885.286 1.31a10 10 0 0 0 .027.094c.042.142.085.282.133.42l.021-.006a10 10 0 0 0 6.147 6.153l-.018.02c.152.052.306.1.461.146a10 10 0 0 0 .047.014c.433.125.877.222 1.332.289a10 10 0 0 0 .06.01c.457.064.923.099 1.397.099.47 0 .93-.037 1.383-.1a10 10 0 0 0 .07-.007c.196-.03.392-.062.584-.102l.012-.03A10 10 0 0 0 22 12a10 10 0 0 0-1.348-5.008l.002-.002-.023-.039a10 10 0 0 0-.67-1l-.063-.078a10 10 0 0 0-.347-.426 10 10 0 0 0-.022-.025l-.015-.018a10 10 0 0 0-.389-.418 10 10 0 0 0-.033-.035l-.022-.021a10 10 0 0 0-.437-.41 10 10 0 0 0-.008-.008l-.02-.016a10 10 0 0 0-.396-.332 10.044 10.044 0 0 0-.156-.121 10 10 0 0 0-.432-.31 10 10 0 0 0-.012-.01s0-.002-.002-.002a10 10 0 0 0-.515-.326l-.137-.079a10 10 0 0 0-.338-.183 9.952 9.952 0 0 0-.26-.131 10 10 0 0 0-.238-.111 9.91 9.91 0 0 0-.289-.127l-.004-.002a10 10 0 0 0-.469-.182c-.087-.031-.177-.059-.265-.088a10 10 0 0 0-.278-.086 9.898 9.898 0 0 0-.29-.082 10 10 0 0 0-.329-.078c-.073-.016-.145-.034-.218-.049a10 10 0 0 0-.557-.095c-.07-.01-.14-.017-.211-.026a10 10 0 0 0-.396-.04l-.204-.015A10 10 0 0 0 12 2zm8.078 6.035A9 9 0 0 1 21 12a9 9 0 0 1-6.488 8.623l3.87-9.514-8.91 9.51a9 9 0 0 1-5.933-5.603l14.844-3.907z"/></svg>