<?xml version="1.0" encoding="UTF-8" standalone="no"?>
<svg width="24" height="24" viewBox="0 0 24 24" fill="none" version="1.1" id="svg19" sodipodi:docname="placeholder-icon-filled.svg" inkscape:version="1.2 (1:1.2.1+202207142221+cd75a1ee6d)"
   xmlns:inkscape="http://www.inkscape.org/namespaces/inkscape"
   xmlns:sodipodi="http://sodipodi.sourceforge.net/DTD/sodipodi-0.dtd"
   xmlns="http://www.w3.org/2000/svg"
   xmlns:svg="http://www.w3.org/2000/svg">
   <sodipodi:namedview id="namedview21" pagecolor="#ffffff" bordercolor="#666666" borderopacity="1.0" inkscape:showpageshadow="2" inkscape:pageopacity="0.0" inkscape:pagecheckerboard="0" inkscape:deskcolor="#d1d1d1" showgrid="true" inkscape:zoom="22.627418" inkscape:cx="25.013901" inkscape:cy="8.6399606" inkscape:window-width="1920" inkscape:window-height="1016" inkscape:window-x="0" inkscape:window-y="0" inkscape:window-maximized="1" inkscape:current-layer="svg19">
      <inkscape:grid type="xygrid" id="grid250" />
   </sodipodi:namedview>
   <path id="path292" style="fill:#808080;stroke-width:2.9" d="m 12,2 c -0.478107,0 -0.947995,0.03473 -1.408203,0.099609 a 10,10 0 0 0 -0.02539,0.00391 c -0.472368,0.067826 -0.9341804,0.1693405 -1.3828122,0.3007813 -0.4609713,0.1350559 -0.9071452,0.3029473 -1.3378907,0.5 -0.4330563,0.1981098 -0.8488947,0.4261733 -1.2460937,0.6816406 a 10,10 0 0 0 -0.00977,0.00586 c -0.3932938,0.2535879 -0.7682534,0.5332226 -1.1210938,0.8378906 a 10,10 0 0 0 -0.033203,0.029297 c -0.3477129,0.3029209 -0.6736416,0.6288496 -0.9765625,0.9765625 a 10,10 0 0 0 -0.029297,0.033203 c -0.304668,0.3528404 -0.5843027,0.7278 -0.8378906,1.1210938 a 10,10 0 0 0 -0.00586,0.00977 c -0.2554673,0.397199 -0.4835308,0.8130374 -0.6816406,1.2460937 -0.1970527,0.4307455 -0.3649441,0.8769194 -0.5,1.3378907 -0.1314408,0.4486318 -0.2329555,0.9104442 -0.3007813,1.3828122 a 10,10 0 0 0 -0.00391,0.02539 c -0.06488,0.460208 -0.099609,0.930096 -0.099609,1.408203 0,0.47574 0.034668,0.942684 0.099609,1.400391 a 10,10 0 0 0 0.00781,0.05078 c 0.065794,0.447129 0.162459,0.884546 0.2851562,1.310547 a 10,10 0 0 0 0.027344,0.09375 c 0.042109,0.141044 0.084827,0.281513 0.1328125,0.419922 l 0.021484,-0.0059 a 10,10 0 0 0 6.1464843,6.152344 l -0.017578,0.01953 c 0.1518138,0.05302 0.3059277,0.100611 0.4609375,0.146485 a 10,10 0 0 0 0.046875,0.01367 c 0.4329458,0.125841 0.8771225,0.222199 1.3320315,0.289063 a 10,10 0 0 0 0.06055,0.0098 c 0.456233,0.06419 0.922446,0.09961 1.396484,0.09961 0.469697,0 0.930377,-0.03656 1.382812,-0.09961 a 10,10 0 0 0 0.07031,-0.0078 c 0.196248,-0.02875 0.391597,-0.06174 0.583984,-0.101562 l 0.01172,-0.0293 a 10,10 0 0 0 7.951172,-9.761719 10,10 0 0 0 -1.347656,-5.0078125 l 0.002,-0.00195 c -0.0076,-0.013167 -0.01574,-0.025934 -0.02344,-0.039063 a 10,10 0 0 0 -0.669921,-1 c -0.02019,-0.026527 -0.04206,-0.051807 -0.0625,-0.078125 a 10,10 0 0 0 -0.347657,-0.4257813 10,10 0 0 0 -0.02148,-0.025391 c -0.0052,-0.0059 -0.01045,-0.011689 -0.01563,-0.017578 a 10,10 0 0 0 -0.388672,-0.4179688 10,10 0 0 0 -0.0332,-0.035156 c -0.0071,-0.0072 -0.01431,-0.01431 -0.02148,-0.021484 a 10,10 0 0 0 -0.4375,-0.4101563 10,10 0 0 0 -0.0078,-0.00781 c -0.0062,-0.00552 -0.01329,-0.010121 -0.01953,-0.015625 a 10,10 0 0 0 -0.396485,-0.3320313 c -0.05161,-0.040973 -0.10382,-0.081126 -0.15625,-0.1210937 a 10,10 0 0 0 -0.43164,-0.3105469 10,10 0 0 0 -0.01172,-0.00977 c -7.42e-4,-5.043e-4 -0.0012,-0.00145 -0.002,-0.00195 a 10,10 0 0 0 -0.515625,-0.3261719 c -0.04509,-0.026755 -0.09118,-0.052063 -0.136719,-0.078125 a 10,10 0 0 0 -0.33789,-0.1835937 c -0.08589,-0.044851 -0.172432,-0.088454 -0.259766,-0.1308594 a 10,10 0 0 0 -0.238281,-0.1113281 c -0.09584,-0.043445 -0.191635,-0.086473 -0.289063,-0.1269531 -0.0013,-5.551e-4 -0.0026,-0.0014 -0.0039,-0.00195 a 10,10 0 0 0 -0.46875,-0.1816407 c -0.08757,-0.031239 -0.176948,-0.059045 -0.265625,-0.087891 a 10,10 0 0 0 -0.277344,-0.085937 c -0.0966,-0.028325 -0.193227,-0.05657 -0.291015,-0.082031 a 10,10 0 0 0 -0.328126,-0.078125 c -0.073,-0.016376 -0.145155,-0.034059 -0.21875,-0.048828 a 10,10 0 0 0 -0.55664,-0.095703 c -0.06992,-0.00996 -0.140559,-0.01689 -0.210938,-0.025391 a 10,10 0 0 0 -0.396484,-0.041016 c -0.06767,-0.00545 -0.135081,-0.00957 -0.203125,-0.013672 a 10,10 0 0 0 -0.609375,-0.021484 z m 8.078125,6.0351562 a 9,9 0 0 1 0.921875,3.9648438 9,9 0 0 1 -6.488281,8.623047 l 3.871093,-9.513672 -8.9101558,9.509766 a 9,9 0 0 1 -5.9335937,-5.603516 l 14.8437495,-3.90625 z" />
   <defs id="defs409" />
</svg>
