<?xml version="1.0" encoding="UTF-8" standalone="no"?>
<svg width="24" height="24" viewBox="0 1 24 24" fill="none" version="1.1" id="svg19" sodipodi:docname="placeholder-icon.svg" inkscape:version="1.2 (1:1.2.1+202207142221+cd75a1ee6d)"
   xmlns:inkscape="http://www.inkscape.org/namespaces/inkscape"
   xmlns:sodipodi="http://sodipodi.sourceforge.net/DTD/sodipodi-0.dtd"
   xmlns="http://www.w3.org/2000/svg"
   xmlns:svg="http://www.w3.org/2000/svg">
   <sodipodi:namedview id="namedview21" pagecolor="#ffffff" bordercolor="#666666" borderopacity="1.0" inkscape:showpageshadow="2" inkscape:pageopacity="0.0" inkscape:pagecheckerboard="0" inkscape:deskcolor="#d1d1d1" showgrid="false" inkscape:zoom="11.313709" inkscape:cx="23.511299" inkscape:cy="1.1932426" inkscape:window-width="1920" inkscape:window-height="1016" inkscape:window-x="0" inkscape:window-y="0" inkscape:window-maximized="1" inkscape:current-layer="svg19">
      <inkscape:grid type="xygrid" id="grid250" />
   </sodipodi:namedview>
   <path id="path8" style="fill:#808080;stroke-width:2.9" d="m 12,2 c -5.5228475,0 -10,4.4771525 -10,10 0,5.522847 4.4771525,10 10,10 5.522847,0 10,-4.477153 10,-10 0,-5.5228475 -4.477153,-10 -10,-10 z m 0,1 c 3.43258,5.644e-4 6.565943,1.953613 8.078125,5.0351562 l -1.695313,3.0742188 -3.86914,9.513672 c -0.815839,0.243933 -1.662168,0.370849 -2.513672,0.376953 -0.856276,-0.0061 -1.707304,-0.134321 -2.5273438,-0.380859 l 8.9101558,-9.509766 -14.8437495,3.90625 c -0.350701,-0.967016 -0.5330292,-1.986997 -0.5390625,-3.015625 0,-4.9705627 4.0294373,-9 9,-9 z" sodipodi:nodetypes="ssssscccccccccc" />
   <defs id="defs409" />
</svg>
