<?xml version="1.0" encoding="UTF-8" standalone="no"?>
<svg
   width="24"
   height="24"
   viewBox="0 0 24 24"
   fill="none"
   version="1.1"
   id="svg19"
   sodipodi:docname="placeholder-icon.svg"
   inkscape:version="1.2 (1:1.2.1+202207142221+cd75a1ee6d)"
   xmlns:inkscape="http://www.inkscape.org/namespaces/inkscape"
   xmlns:sodipodi="http://sodipodi.sourceforge.net/DTD/sodipodi-0.dtd"
   xmlns="http://www.w3.org/2000/svg"
   xmlns:svg="http://www.w3.org/2000/svg">
  <sodipodi:namedview
     id="namedview21"
     pagecolor="#ffffff"
     bordercolor="#666666"
     borderopacity="1.0"
     inkscape:showpageshadow="2"
     inkscape:pageopacity="0.0"
     inkscape:pagecheckerboard="0"
     inkscape:deskcolor="#d1d1d1"
     showgrid="true"
     inkscape:zoom="22.627418"
     inkscape:cx="24.969707"
     inkscape:cy="8.6178635"
     inkscape:window-width="1920"
     inkscape:window-height="1043"
     inkscape:window-x="0"
     inkscape:window-y="0"
     inkscape:window-maximized="1"
     inkscape:current-layer="svg19">
    <inkscape:grid
       type="xygrid"
       id="grid250" />
  </sodipodi:namedview>
  <path
     id="path292"
     style="fill:#808080;stroke-width:2.9"
     d="M 12 1 C 11.521893 1 11.052005 1.0347296 10.591797 1.0996094 A 10 10 0 0 0 10.566406 1.1035156 C 10.094038 1.1713414 9.6322256 1.2728561 9.1835938 1.4042969 C 8.7226225 1.5393528 8.2764486 1.7072442 7.8457031 1.9042969 C 7.4126468 2.1024067 6.9968084 2.3304702 6.5996094 2.5859375 A 10 10 0 0 0 6.5898438 2.5917969 C 6.19655 2.8453848 5.8215904 3.1250195 5.46875 3.4296875 A 10 10 0 0 0 5.4355469 3.4589844 C 5.087834 3.7619053 4.7619053 4.087834 4.4589844 4.4355469 A 10 10 0 0 0 4.4296875 4.46875 C 4.1250195 4.8215904 3.8453848 5.19655 3.5917969 5.5898438 A 10 10 0 0 0 3.5859375 5.5996094 C 3.3304702 5.9968084 3.1024067 6.4126468 2.9042969 6.8457031 C 2.7072442 7.2764486 2.5393528 7.7226225 2.4042969 8.1835938 C 2.2728561 8.6322256 2.1713414 9.0940379 2.1035156 9.5664062 A 10 10 0 0 0 2.0996094 9.5917969 C 2.0347296 10.052005 2 10.521893 2 11 C 2 11.47574 2.0346685 11.942684 2.0996094 12.400391 A 10 10 0 0 0 2.1074219 12.451172 C 2.1732155 12.898301 2.2698809 13.335718 2.3925781 13.761719 A 10 10 0 0 0 2.4199219 13.855469 C 2.4620308 13.996513 2.5047485 14.136982 2.5527344 14.275391 L 2.5742188 14.269531 A 10 10 0 0 0 8.7207031 20.421875 L 8.703125 20.441406 C 8.8549388 20.494422 9.0090527 20.542017 9.1640625 20.587891 A 10 10 0 0 0 9.2109375 20.601562 C 9.6438833 20.727403 10.08806 20.823761 10.542969 20.890625 A 10 10 0 0 0 10.603516 20.900391 C 11.059749 20.964582 11.525962 21 12 21 C 12.469697 21 12.930377 20.963438 13.382812 20.900391 A 10 10 0 0 0 13.453125 20.892578 C 13.649373 20.863827 13.844722 20.830834 14.037109 20.791016 L 14.048828 20.761719 A 10 10 0 0 0 22 11 A 10 10 0 0 0 20.652344 5.9921875 L 20.654297 5.9902344 C 20.646658 5.9770678 20.638557 5.9643004 20.630859 5.9511719 A 10 10 0 0 0 19.960938 4.9511719 C 19.940752 4.9246448 19.918881 4.8993654 19.898438 4.8730469 A 10 10 0 0 0 19.550781 4.4472656 A 10 10 0 0 0 19.529297 4.421875 C 19.524139 4.4159733 19.518844 4.4101863 19.513672 4.4042969 A 10 10 0 0 0 19.125 3.9863281 A 10 10 0 0 0 19.091797 3.9511719 C 19.084648 3.9439756 19.077483 3.9368621 19.070312 3.9296875 A 10 10 0 0 0 18.632812 3.5195312 A 10 10 0 0 0 18.625 3.5117188 C 18.618768 3.506199 18.611714 3.5015982 18.605469 3.4960938 A 10 10 0 0 0 18.208984 3.1640625 C 18.157375 3.1230893 18.105164 3.0829365 18.052734 3.0429688 A 10 10 0 0 0 17.621094 2.7324219 A 10 10 0 0 0 17.609375 2.7226562 C 17.608633 2.7221519 17.608164 2.7212072 17.607422 2.7207031 A 10 10 0 0 0 17.091797 2.3945312 C 17.046707 2.3677766 17.000621 2.3424686 16.955078 2.3164062 A 10 10 0 0 0 16.617188 2.1328125 C 16.531296 2.0879613 16.444756 2.0443587 16.357422 2.0019531 A 10 10 0 0 0 16.119141 1.890625 C 16.023298 1.84718 15.927506 1.8041516 15.830078 1.7636719 C 15.828742 1.7631168 15.827508 1.7622733 15.826172 1.7617188 A 10 10 0 0 0 15.357422 1.5800781 C 15.269853 1.5488392 15.180474 1.5210331 15.091797 1.4921875 A 10 10 0 0 0 14.814453 1.40625 C 14.717854 1.3779247 14.621226 1.3496804 14.523438 1.3242188 A 10 10 0 0 0 14.195312 1.2460938 C 14.122312 1.2297176 14.050157 1.2120345 13.976562 1.1972656 A 10 10 0 0 0 13.419922 1.1015625 C 13.350003 1.0916061 13.279363 1.0846729 13.208984 1.0761719 A 10 10 0 0 0 12.8125 1.0351562 C 12.744831 1.0297044 12.677419 1.0255812 12.609375 1.0214844 A 10 10 0 0 0 12 1 z M 20.078125 7.0351562 A 9 9 0 0 1 21 11 A 9 9 0 0 1 14.511719 19.623047 L 18.382812 10.109375 L 9.4726562 19.619141 A 9 9 0 0 1 3.5390625 14.015625 L 18.382812 10.109375 L 20.078125 7.0351562 z " />
  <defs
     id="defs409" />
</svg>
