<?xml version="1.0" encoding="UTF-8" standalone="no"?>
<svg
   version="1.1"
   viewBox="0 1 24 24"
   id="svg14"
   sodipodi:docname="podcast-filled.svg"
   width="24"
   height="24"
   inkscape:version="1.2 (1:1.2.1+202207142221+cd75a1ee6d)"
   xmlns:inkscape="http://www.inkscape.org/namespaces/inkscape"
   xmlns:sodipodi="http://sodipodi.sourceforge.net/DTD/sodipodi-0.dtd"
   xmlns="http://www.w3.org/2000/svg"
   xmlns:svg="http://www.w3.org/2000/svg">
  <defs
     id="defs18" />
  <sodipodi:namedview
     id="namedview16"
     pagecolor="#ffffff"
     bordercolor="#666666"
     borderopacity="1.0"
     inkscape:showpageshadow="2"
     inkscape:pageopacity="0.0"
     inkscape:pagecheckerboard="0"
     inkscape:deskcolor="#d1d1d1"
     showgrid="true"
     inkscape:zoom="28.603001"
     inkscape:cx="3.2688878"
     inkscape:cy="10.803062"
     inkscape:window-width="1920"
     inkscape:window-height="1043"
     inkscape:window-x="0"
     inkscape:window-y="0"
     inkscape:window-maximized="1"
     inkscape:current-layer="svg14">
    <inkscape:grid
       type="xygrid"
       id="grid247"
       originx="0"
       originy="0" />
    <inkscape:grid
       type="xygrid"
       id="grid409"
       dotted="true"
       spacingx="0.5"
       spacingy="0.5"
       empspacing="10" />
  </sodipodi:namedview>
  <path
     style="color:#000000;fill:#808080;stroke-linecap:round;stroke-linejoin:round;-inkscape-stroke:none"
     d="m 12,11 c -0.59436,0 -1.116246,0.325567 -1.460937,0.785156 c -0.344692,0.459589 -0.539063,1.061227 -0.539063,1.714844 c 0,0.653617 0.194371,1.255255 0.539063,1.714844 c 0.344691,0.459589 0.866577,0.785156 1.460937,0.785156 c 0.59436,0 1.116246,-0.325567 1.460938,-0.785156 c 0.344691,-0.459589 0.539062,-1.061227 0.539062,-1.714844 c 0,-0.653617 -0.194371,-1.255255 -0.539062,-1.714844 c -0.344692,-0.459589 -0.866578,-0.785156 -1.460938,-0.785156 z"
     id="path1123" />
  <path
     style="color:#000000;fill:#808080;stroke-linecap:round;stroke-linejoin:round;-inkscape-stroke:none"
     d="m 12,17 c -2.1690119,0 -4,1.524927 -4,3.5 a 0.50005,0.50005 0 0 0 0.5,0.5 h 7 a 0.50005,0.50005 0 0 0 0.5,-0.5 c 0,-1.975073 -1.830988,-3.5 -4,-3.5 z"
     id="rect1129" />
  <path
     style="color:#000000;fill:#808080;stroke-linejoin:round;-inkscape-stroke:none"
     d="m 12,8.252 c -1.216153,0 -2.4329277,0.4622246 -3.359375,1.3886719 -1.8528947,1.8528951 -1.8528947,4.8658551 0,6.7187501 l 0.3535156,-0.353516 c -1.6618204,-1.66182 -1.6618204,-4.349898 0,-6.0117185 1.6618204,-1.6618204 4.3498984,-1.6618204 6.0117184,0 1.661821,1.6618205 1.661821,4.3498985 0,6.0117185 l 0.353516,0.353516 c 1.852895,-1.852895 1.852895,-4.865855 0,-6.7187501 -0.926447,-0.9264473 -2.143222,-1.3886719 -3.359375,-1.3886719 z"
     id="path1243" />
  <path
     style="color:#000000;fill:#808080;stroke-linejoin:round;-inkscape-stroke:none"
     d="m 12,6.252 c -1.727997,0 -3.4564663,0.6576382 -4.7734375,1.9746094 -2.6339425,2.6339426 -2.6339424,6.9129326 0,9.5468746 l 0.3535156,-0.353515 c -2.4428682,-2.442868 -2.4428682,-6.396976 0,-8.839844 2.4428679,-2.4428682 6.3969759,-2.4428682 8.8398439,0 2.442868,2.442868 2.442868,6.396976 0,8.839844 l 0.353515,0.353515 c 2.633943,-2.633942 2.633943,-6.912932 0,-9.5468746 -1.316971,-1.3169712 -3.04544,-1.9746094 -4.773437,-1.9746094 z"
     id="path1245" />
  <path
     style="color:#000000;fill:#808080;stroke-linejoin:round;-inkscape-stroke:none"
     d="m 12,4.252 c -2.2398415,0 -4.4800049,0.8530518 -6.1875,2.5605469 -3.4149903,3.4149901 -3.4149902,8.9600101 0,12.3750001 l 0.3535156,-0.353516 c -3.223916,-3.223916 -3.223916,-8.444052 0,-11.6679685 3.2239161,-3.223916 8.4440524,-3.223916 11.6679684,0 3.223916,3.2239165 3.223916,8.4440525 0,11.6679685 l 0.353516,0.353516 c 3.41499,-3.41499 3.41499,-8.96001 0,-12.3750001 -1.707495,-1.7074951 -3.947659,-2.5605469 -6.1875,-2.5605469 z"
     id="path1247" />
</svg>
