<svg width="24" height="24" xmlns="http://www.w3.org/2000/svg"><path style="color:#000;fill:gray;stroke-linecap:round;stroke-linejoin:round;-inkscape-stroke:none" d="M12 11c-.594 0-1.116.326-1.46.785-.346.46-.54 1.061-.54 1.715 0 .654.194 1.255.54 1.715.344.46.866.785 1.46.785s1.116-.326 1.46-.785c.346-.46.54-1.061.54-1.715 0-.654-.194-1.255-.54-1.715-.344-.46-.866-.785-1.46-.785zm0 6c-2.169 0-4 1.525-4 3.5a.5.5 0 0 0 .5.5h7a.5.5 0 0 0 .5-.5c0-1.975-1.831-3.5-4-3.5z"/><path style="color:#000;fill:gray;stroke-linejoin:round;-inkscape-stroke:none" d="M12 8.252a4.736 4.736 0 0 0-3.36 1.389 4.755 4.755 0 0 0 0 6.718l.354-.353a4.248 4.248 0 0 1 0-6.012 4.248 4.248 0 0 1 6.012 0 4.248 4.248 0 0 1 0 6.012l.353.353a4.755 4.755 0 0 0 0-6.718A4.736 4.736 0 0 0 12 8.252z"/><path style="color:#000;fill:gray;stroke-linejoin:round;-inkscape-stroke:none" d="M12 6.252a6.73 6.73 0 0 0-4.773 1.975 6.755 6.755 0 0 0 0 9.546l.353-.353a6.247 6.247 0 0 1 0-8.84 6.247 6.247 0 0 1 8.84 0 6.247 6.247 0 0 1 0 8.84l.353.353a6.755 6.755 0 0 0 0-9.546A6.73 6.73 0 0 0 12 6.252z"/><path style="color:#000;fill:gray;stroke-linejoin:round;-inkscape-stroke:none" d="M12 4.252c-2.24 0-4.48.853-6.188 2.56-3.414 3.416-3.414 8.96 0 12.376l.354-.354a8.247 8.247 0 0 1 0-11.668 8.247 8.247 0 0 1 11.668 0 8.247 8.247 0 0 1 0 11.668l.354.354c3.414-3.415 3.414-8.96 0-12.375A8.723 8.723 0 0 0 12 4.252z"/></svg>