<?xml version="1.0" encoding="UTF-8" standalone="no"?>
<svg viewBox="0 0 24 24" height="24" id="svg7384" version="1.1" width="24" sodipodi:docname="power.svg" inkscape:version="1.1 (ce6663b3b7, 2021-05-25)"
   xmlns:inkscape="http://www.inkscape.org/namespaces/inkscape"
   xmlns:sodipodi="http://sodipodi.sourceforge.net/DTD/sodipodi-0.dtd"
   xmlns="http://www.w3.org/2000/svg"
   xmlns:svg="http://www.w3.org/2000/svg"
   xmlns:rdf="http://www.w3.org/1999/02/22-rdf-syntax-ns#"
   xmlns:cc="http://creativecommons.org/ns#"
   xmlns:dc="http://purl.org/dc/elements/1.1/">
   <sodipodi:namedview id="namedview22" pagecolor="#ffffff" bordercolor="#666666" borderopacity="1.0" inkscape:pageshadow="2" inkscape:pageopacity="0.0" inkscape:pagecheckerboard="0" showgrid="true" inkscape:snap-page="true" inkscape:zoom="28" inkscape:cx="7.8392857" inkscape:cy="10.839286" inkscape:window-width="1920" inkscape:window-height="1016" inkscape:window-x="0" inkscape:window-y="27" inkscape:window-maximized="1" inkscape:current-layer="svg7384">
      <inkscape:grid type="xygrid" id="grid838" />
   </sodipodi:namedview>
   <metadata id="metadata20854">
      <rdf:RDF>
         <cc:Work rdf:about="">
            <dc:format>image/svg+xml</dc:format>
            <dc:type rdf:resource="http://purl.org/dc/dcmitype/StillImage" />
         </cc:Work>
      </rdf:RDF>
   </metadata>
   <defs id="defs7386">
      <linearGradient id="linearGradient5606" inkscape:swatch="solid">
         <stop id="stop5608" offset="0" style="stop-color:#000000;stop-opacity:1;" />
      </linearGradient>
      <linearGradient id="linearGradient4526" inkscape:swatch="solid">
         <stop id="stop4528" offset="0" style="stop-color:#ffffff;stop-opacity:1;" />
      </linearGradient>
      <linearGradient id="linearGradient3600-4" inkscape:swatch="gradient">
         <stop id="stop3602-7" offset="0" style="stop-color:#f4f4f4;stop-opacity:1" />
         <stop id="stop3604-6" offset="1" style="stop-color:#dbdbdb;stop-opacity:1" />
      </linearGradient>
   </defs>
   <g id="layer9" label="status" style="display:inline;stroke-width:0.8;fill:#808080;fill-opacity:1" transform="matrix(1.25,0,0,1.25,-964.2503,235.75)" />
   <g id="layer2" style="display:inline;stroke-width:0.8;fill:#808080;fill-opacity:1" transform="matrix(1.25,0,0,1.25,-663.00005,-223)" />
   <g id="layer4" style="display:inline;stroke-width:0.8;fill:#808080;fill-opacity:1" transform="matrix(1.25,0,0,1.25,-663.00005,-223)" />
   <g id="g1812" style="display:inline;stroke-width:0.8;fill:#808080;fill-opacity:1" transform="matrix(1.25,0,0,1.25,-663.00005,-223)" />
   <g id="g6217" style="display:inline;stroke-width:0.8;fill:#808080;fill-opacity:1" transform="matrix(1.25,0,0,1.25,-663.00005,-223)" />
   <g id="layer3" style="display:inline;stroke-width:0.8;fill:#808080;fill-opacity:1" transform="matrix(1.25,0,0,1.25,-663.00005,-223)" />
   <g id="layer1" style="display:inline;stroke-width:0.8;fill:#808080;fill-opacity:1" transform="matrix(1.25,0,0,1.25,-663.00005,-223)" />
   <path id="path862" style="fill:#808080;fill-rule:evenodd;stroke-width:1.5;stroke-linecap:square;stroke-linejoin:round;fill-opacity:1" d="M 11.5 2 A 9.5 9.5 0 0 0 2 11.5 A 9.5 9.5 0 0 0 11.5 21 A 9.5 9.5 0 0 0 21 11.5 A 9.5 9.5 0 0 0 11.5 2 z M 11.5 3 A 8.5 8.5 0 0 1 20 11.5 A 8.5 8.5 0 0 1 11.5 20 A 8.5 8.5 0 0 1 3 11.5 A 8.5 8.5 0 0 1 11.5 3 z " />
   <path style="fill:#808080;fill-opacity:1;stroke:none;stroke-width:1px;stroke-linecap:butt;stroke-linejoin:miter" d="m 12,6 -3,6 h 2 v 5 l 3,-6 h -2 z" id="path1250" sodipodi:nodetypes="ccccccc" />
</svg>
