<svg height="24" width="24" xmlns="http://www.w3.org/2000/svg"><path style="color:#000;fill:gray;fill-opacity:1;-inkscape-stroke:none" d="M12 6C6.318 6 2.2 9.1 2.2 9.1l-.2.15v6.457l.146.147S4.233 18 7 18c1.383 0 2.292-.585 2.998-1.094C10.704 16.397 11.195 16 12 16c.805 0 1.296.397 2.002.906C14.708 17.416 15.617 18 17 18c2.767 0 4.854-2.146 4.854-2.146l.146-.147V9.25l-.2-.15S17.683 6 12 6zm-4.5 4.875c1.25 0 2.5.375 3.5 1.125-2 1.5-5 1.5-7 0 1-.75 2.25-1.125 3.5-1.125zm9 0c1.25 0 2.5.375 3.5 1.125-2 1.5-5 1.5-7 0 1-.75 2.25-1.125 3.5-1.125z"/></svg>