<svg height="24" width="24" xmlns="http://www.w3.org/2000/svg"><path d="M12.283 5.751c-.555 0-1.08.064-1.575.191-.45.118-.85.278-1.217.464l.375 1.04c.718-.363 1.453-.562 2.205-.562.633 0 1.134.166 1.48.512.34.328.513.767.513 1.288 0 .324-.075.626-.225.904a3.54 3.54 0 0 1-.53.766c-.213.237-.438.474-.675.71h-.003a6.75 6.75 0 0 0-.658.73l-.002.002a3.82 3.82 0 0 0-.512.819 2.49 2.49 0 0 0-.184.974c0 .217.025.42.059.618h1.132c0-.025-.006-.046-.006-.07v-.195c0-.403.08-.77.241-1.095a4.06 4.06 0 0 1 .582-.89v-.002c.228-.275.478-.538.752-.788.267-.242.51-.497.73-.762.217-.264.4-.545.549-.841.143-.3.217-.639.217-1.024 0-.304-.05-.621-.154-.953v-.005a2.129 2.129 0 0 0-.5-.9 2.701 2.701 0 0 0-.998-.658h-.004l-.003-.003c-.4-.177-.932-.271-1.59-.271zM12 16.13c-.338 0-.585.102-.774.313a1.067 1.067 0 0 0-.286.747c0 .29.092.532.287.747.188.21.434.313.773.313.338 0 .585-.103.775-.313a1.069 1.069 0 0 0 .285-.747 1.067 1.067 0 0 0-.286-.748c-.188-.21-.435-.312-.774-.312z" style="line-height:125%;-inkscape-font-specification:'Ubuntu Medium';text-align:center;fill:gray;stroke-width:.8" font-weight="500" font-size="72.036" font-family="Ubuntu" letter-spacing="0" word-spacing="0" text-anchor="middle"/><path style="fill:gray;stroke-width:1.5;stroke-linecap:square;stroke-linejoin:round" d="M12 2A10 10 0 0 0 2 12a10 10 0 0 0 10 10 10 10 0 0 0 10-10A10 10 0 0 0 12 2zm0 1a9 9 0 0 1 9 9 9 9 0 0 1-9 9 9 9 0 0 1-9-9 9 9 0 0 1 9-9z"/></svg>