<svg height="24" width="24" xmlns="http://www.w3.org/2000/svg"><path style="fill:gray;stroke-width:1" d="M12 2C6.477 2 2 6.477 2 12s4.477 10 10 10 10-4.477 10-10S17.523 2 12 2zm.281 3.75c.659 0 1.19.094 1.592.271l.002.002h.004a2.701 2.701 0 0 1 .998.659 2.129 2.129 0 0 1 .5.9v.006c.104.331.154.647.154.951 0 .385-.073.725-.217 1.025a4.468 4.468 0 0 1-.548.84c-.22.265-.463.521-.73.764-.275.25-.525.512-.753.787v.002a4.066 4.066 0 0 0-.582.89 2.44 2.44 0 0 0-.24 1.096v.194c0 .025.006.045.006.07h-1.133a3.65 3.65 0 0 1-.059-.62c0-.36.063-.683.184-.972.137-.296.307-.568.512-.818l.002-.004a6.72 6.72 0 0 1 .658-.729h.002c.237-.236.463-.473.676-.71.217-.243.394-.499.529-.766.15-.278.226-.58.226-.904 0-.522-.173-.96-.513-1.288-.346-.346-.848-.513-1.48-.513-.753 0-1.486.199-2.204.562l-.375-1.039a6.03 6.03 0 0 1 1.215-.463 6.303 6.303 0 0 1 1.576-.191l-.002-.002zM12 16.13c.339 0 .586.103.773.313a1.067 1.067 0 0 1 .288.746 1.069 1.069 0 0 1-.286.748c-.19.21-.438.313-.775.313-.339 0-.586-.102-.773-.313a1.063 1.063 0 0 1-.288-.748 1.067 1.067 0 0 1 .288-.746c.188-.21.435-.312.773-.312z"/></svg>