<?xml version="1.0" encoding="UTF-8" standalone="no"?>
<svg
   viewBox="0 0 24 24"
   height="24"
   width="24"
   version="1.1"
   id="svg4"
   sodipodi:docname="radio.svg"
   inkscape:version="1.2.2 (1:1.2.2+202212051551+b0a8486541)"
   xmlns:inkscape="http://www.inkscape.org/namespaces/inkscape"
   xmlns:sodipodi="http://sodipodi.sourceforge.net/DTD/sodipodi-0.dtd"
   xmlns="http://www.w3.org/2000/svg"
   xmlns:svg="http://www.w3.org/2000/svg">
  <defs
     id="defs8" />
  <sodipodi:namedview
     id="namedview6"
     pagecolor="#ffffff"
     bordercolor="#666666"
     borderopacity="1.0"
     inkscape:pageshadow="2"
     inkscape:pageopacity="0.0"
     inkscape:pagecheckerboard="0"
     showgrid="true"
     inkscape:snap-page="true"
     inkscape:zoom="33.927763"
     inkscape:cx="7.5749174"
     inkscape:cy="14.958251"
     inkscape:window-width="1850"
     inkscape:window-height="1016"
     inkscape:window-x="0"
     inkscape:window-y="0"
     inkscape:window-maximized="1"
     inkscape:current-layer="svg4"
     inkscape:showpageshadow="2"
     inkscape:deskcolor="#d1d1d1">
    <inkscape:grid
       type="xygrid"
       id="grid6" />
    <inkscape:grid
       type="xygrid"
       id="grid823"
       dotted="true"
       spacingx="0.5"
       spacingy="0.5"
       empspacing="10" />
  </sodipodi:namedview>
  <path
     id="path1652"
     style="color:#000000;fill:#808080;-inkscape-stroke:none"
     d="M 19.5 1.75 C 19.099036 1.75 18.768315 2.0714853 18.751953 2.46875 L 7.0214844 6.078125 A 1.5 1.25 0 0 0 6.5 6 A 1.5 1.25 0 0 0 5.0234375 7.0449219 C 4.0567681 7.1208581 3.347268 7.3207027 2.8339844 7.8339844 C 2.0881611 8.5798044 2 9.7261994 2 11.5 L 2 17.5 C 2 19.2738 2.0881621 20.420194 2.8339844 21.166016 C 3.5798076 21.911839 4.7262008 22 6.5 22 L 17.5 22 C 18.165175 22 18.741511 21.988424 19.242188 21.933594 C 19.575972 21.897044 19.876948 21.840972 20.146484 21.757812 C 20.550787 21.633066 20.886333 21.445697 21.166016 21.166016 C 21.445698 20.886333 21.633064 20.550789 21.757812 20.146484 C 21.840983 19.87695 21.897044 19.575972 21.933594 19.242188 C 21.988424 18.741511 22 18.165174 22 17.5 L 22 11.5 C 22 10.834825 21.988424 10.25849 21.933594 9.7578125 C 21.897042 9.4240279 21.840982 9.1230516 21.757812 8.8535156 C 21.633064 8.4492122 21.445698 8.1136669 21.166016 7.8339844 C 20.886333 7.5543018 20.550787 7.3669356 20.146484 7.2421875 C 19.876948 7.1590223 19.575972 7.1029582 19.242188 7.0664062 C 18.741511 7.0115793 18.165175 7 17.5 7 L 7.96875 7 A 1.5 1.25 0 0 0 7.6171875 6.4179688 L 18.900391 2.9453125 L 18.900391 2.9472656 C 19.03772 3.130379 19.255819 3.25 19.5 3.25 C 19.911252 3.25 20.25 2.9112516 20.25 2.5 C 20.25 2.0887484 19.911252 1.75 19.5 1.75 z M 6.5 8 L 17.5 8 C 18.578864 8 19.316177 8.0631392 19.810547 8.203125 C 19.909421 8.231122 19.999918 8.262628 20.080078 8.296875 C 20.240398 8.3653687 20.364194 8.4462217 20.458984 8.5410156 C 20.790761 8.8727931 20.956028 9.5675997 20.992188 10.892578 C 20.997287 11.081861 21 11.284227 21 11.5 L 21 17.5 C 21 17.715773 20.997387 17.918139 20.992188 18.107422 C 20.956027 19.432401 20.790761 20.127208 20.458984 20.458984 C 20.36419 20.553774 20.240398 20.634635 20.080078 20.703125 C 19.999918 20.737375 19.909417 20.768875 19.810547 20.796875 C 19.316177 20.93686 18.578864 21 17.5 21 L 6.5 21 C 4.7738187 21 3.9201872 20.838159 3.5410156 20.458984 C 3.16184 20.079811 3 19.226181 3 17.5 L 3 11.5 C 3 9.7738182 3.16184 8.9201897 3.5410156 8.5410156 C 3.9201872 8.1618416 4.7738187 8 6.5 8 z M 6 9 C 4.9006508 9 4 9.9006508 4 11 L 4 12 C 4 13.099349 4.9006508 14 6 14 L 18 14 C 19.099349 14 20 13.099349 20 12 L 20 11 C 20 9.9006508 19.099349 9 18 9 L 6 9 z M 6 10 L 6 11 L 7 11 L 7 10 L 8 10 L 8 11 L 9 11 L 9 10 L 10 10 L 10 11 L 11 11 L 11 10 L 12 10 L 12 11 L 13 11 L 13 10 L 14 10 L 14 11 L 15 11 L 15 10 L 16 10 L 16 11 L 17 11 L 17 10 L 18 10 C 18.562647 10 19 10.437353 19 11 L 19 12 C 19 12.562647 18.562647 13 18 13 L 15.75 13 L 15.75 11 L 15.25 11 L 15.25 13 L 6 13 C 5.4373525 13 5 12.562647 5 12 L 5 11 C 5 10.437353 5.4373525 10 6 10 z M 5.0742188 15.074219 L 5.0742188 15.925781 L 5.9257812 15.925781 L 5.9257812 15.074219 L 5.0742188 15.074219 z M 7.0742188 15.074219 L 7.0742188 15.925781 L 7.9257812 15.925781 L 7.9257812 15.074219 L 7.0742188 15.074219 z M 9.0742188 15.074219 L 9.0742188 15.925781 L 9.9257812 15.925781 L 9.9257812 15.074219 L 9.0742188 15.074219 z M 11.074219 15.074219 L 11.074219 15.925781 L 11.925781 15.925781 L 11.925781 15.074219 L 11.074219 15.074219 z M 16.5 15.125 C 15.192768 15.125 14.125 16.192768 14.125 17.5 C 14.125 18.807232 15.192768 19.875 16.5 19.875 C 17.807232 19.875 18.875 18.807232 18.875 17.5 C 18.875 16.192768 17.807232 15.125 16.5 15.125 z M 16.5 15.875 C 17.401903 15.875 18.125 16.598097 18.125 17.5 C 18.125 18.401903 17.401903 19.125 16.5 19.125 C 15.598097 19.125 14.875 18.401903 14.875 17.5 C 14.875 16.598097 15.598097 15.875 16.5 15.875 z M 16.5 16.75 C 16.088748 16.75 15.75 17.088748 15.75 17.5 C 15.75 17.911252 16.088748 18.25 16.5 18.25 C 16.911252 18.25 17.25 17.911252 17.25 17.5 C 17.25 17.088748 16.911252 16.75 16.5 16.75 z M 5.0742188 17.074219 L 5.0742188 17.925781 L 5.9257812 17.925781 L 5.9257812 17.074219 L 5.0742188 17.074219 z M 7.0742188 17.074219 L 7.0742188 17.925781 L 7.9257812 17.925781 L 7.9257812 17.074219 L 7.0742188 17.074219 z M 9.0742188 17.074219 L 9.0742188 17.925781 L 9.9257812 17.925781 L 9.9257812 17.074219 L 9.0742188 17.074219 z M 11.074219 17.074219 L 11.074219 17.925781 L 11.925781 17.925781 L 11.925781 17.074219 L 11.074219 17.074219 z M 16.5 17.25 C 16.641032 17.25 16.75 17.358968 16.75 17.5 C 16.75 17.641032 16.641032 17.75 16.5 17.75 C 16.358968 17.75 16.25 17.641032 16.25 17.5 C 16.25 17.358968 16.358968 17.25 16.5 17.25 z M 5.0742188 19.074219 L 5.0742188 19.925781 L 5.9257812 19.925781 L 5.9257812 19.074219 L 5.0742188 19.074219 z M 7.0742188 19.074219 L 7.0742188 19.925781 L 7.9257812 19.925781 L 7.9257812 19.074219 L 7.0742188 19.074219 z M 9.0742188 19.074219 L 9.0742188 19.925781 L 9.9257812 19.925781 L 9.9257812 19.074219 L 9.0742188 19.074219 z M 11.074219 19.074219 L 11.074219 19.925781 L 11.925781 19.925781 L 11.925781 19.074219 L 11.074219 19.074219 z " />
</svg>
