<svg height="24" width="24" xmlns="http://www.w3.org/2000/svg"><path style="color:#000;fill:gray;-inkscape-stroke:none" d="M19.5 1.75a.752.752 0 0 0-.748.719l-11.73 3.61A1.5 1.25 0 0 0 6.5 6a1.5 1.25 0 0 0-1.477 1.045c-.966.076-1.676.276-2.189.789C2.088 8.58 2 9.726 2 11.5v6c0 1.774.088 2.92.834 3.666S4.726 22 6.5 22h11c.665 0 1.242-.012 1.742-.066.334-.037.635-.093.904-.176.405-.125.74-.312 1.02-.592.28-.28.467-.615.592-1.02.083-.269.139-.57.176-.904.054-.5.066-1.077.066-1.742v-6c0-.665-.012-1.242-.066-1.742a4.877 4.877 0 0 0-.176-.904 2.393 2.393 0 0 0-.592-1.02 2.393 2.393 0 0 0-1.02-.592 4.928 4.928 0 0 0-.904-.176C18.742 7.012 18.165 7 17.5 7H7.969a1.5 1.25 0 0 0-.352-.582L18.9 2.945v.002a.75.75 0 0 0 .6.303c.411 0 .75-.339.75-.75a.754.754 0 0 0-.75-.75zM6.5 8h11c1.079 0 1.816.063 2.31.203.1.028.19.06.27.094.16.068.284.15.379.244.332.332.497 1.027.533 2.352.005.189.008.391.008.607v6c0 .216-.003.418-.008.607-.036 1.325-.201 2.02-.533 2.352a1.181 1.181 0 0 1-.379.244c-.08.034-.17.066-.27.094-.494.14-1.231.203-2.31.203h-11c-1.726 0-2.58-.162-2.959-.541C3.161 20.079 3 19.226 3 17.5v-6c0-1.726.162-2.58.541-2.959C3.921 8.161 4.774 8 6.5 8zM6 9c-1.1 0-2 .9-2 2v1c0 1.1.9 2 2 2h12c1.1 0 2-.9 2-2v-1c0-1.1-.9-2-2-2H6zm0 1v1h1v-1h1v1h1v-1h1v1h1v-1h1v1h1v-1h1v1h1v-1h1v1h1v-1h1c.563 0 1 .437 1 1v1c0 .563-.437 1-1 1h-2.25v-2h-.5v2H6c-.563 0-1-.437-1-1v-1c0-.563.437-1 1-1zm-.926 5.074v.852h.852v-.852h-.852zm2 0v.852h.852v-.852h-.852zm2 0v.852h.852v-.852h-.852zm2 0v.852h.852v-.852h-.852zm5.426.051a2.38 2.38 0 0 0-2.375 2.375 2.38 2.38 0 0 0 2.375 2.375 2.38 2.38 0 0 0 2.375-2.375 2.38 2.38 0 0 0-2.375-2.375zm0 .75a1.62 1.62 0 0 1 1.625 1.625 1.62 1.62 0 0 1-1.625 1.625 1.62 1.62 0 0 1-1.625-1.625 1.62 1.62 0 0 1 1.625-1.625zm0 .875a.754.754 0 0 0-.75.75c0 .411.339.75.75.75s.75-.339.75-.75a.754.754 0 0 0-.75-.75zm-11.426.324v.852h.852v-.852h-.852zm2 0v.852h.852v-.852h-.852zm2 0v.852h.852v-.852h-.852zm2 0v.852h.852v-.852h-.852zm5.426.176c.141 0 .25.109.25.25 0 .141-.109.25-.25.25a.246.246 0 0 1-.25-.25c0-.141.109-.25.25-.25zM5.074 19.074v.852h.852v-.852h-.852zm2 0v.852h.852v-.852h-.852zm2 0v.852h.852v-.852h-.852zm2 0v.852h.852v-.852h-.852z"/></svg>