<svg height="24" width="24" xmlns="http://www.w3.org/2000/svg"><path style="color:#000;fill:gray;-inkscape-stroke:none" d="M19.5 1.75a.752.752 0 0 0-.748.719l-11.73 3.61A1.5 1.25 0 0 0 6.5 6a1.5 1.25 0 0 0-1.477 1.045c-.966.076-1.676.276-2.189.789C2.088 8.58 2 9.726 2 11.5v6c0 1.774.088 2.92.834 3.666S4.726 22 6.5 22h11c.665 0 1.242-.012 1.742-.066.334-.037.635-.093.904-.176.405-.125.74-.312 1.02-.592.28-.28.467-.615.592-1.02.083-.269.139-.57.176-.904.054-.5.066-1.077.066-1.742v-6c0-.665-.012-1.242-.066-1.742a4.877 4.877 0 0 0-.176-.904 2.393 2.393 0 0 0-.592-1.02 2.393 2.393 0 0 0-1.02-.592 4.912 4.912 0 0 0-.904-.176C18.742 7.012 18.165 7 17.5 7H7.969a1.5 1.25 0 0 0-.352-.582L18.9 2.945v.002a.75.75 0 0 0 .6.303c.411 0 .75-.339.75-.75a.754.754 0 0 0-.75-.75zM6 9h12c1.1 0 2 .9 2 2v1c0 1.1-.9 2-2 2H6c-1.1 0-2-.9-2-2v-1c0-1.1.9-2 2-2zm0 1c-.563 0-1 .437-1 1v1c0 .563.437 1 1 1h9.25v-2h.5v2H18c.563 0 1-.437 1-1v-1c0-.563-.437-1-1-1h-1v1h-1v-1h-1v1h-1v-1h-1v1h-1v-1h-1v1h-1v-1H9v1H8v-1H7v1H6v-1zm-.926 5.074h.852v.852h-.852v-.852zm2 0h.852v.852h-.852v-.852zm2 0h.852v.852h-.852v-.852zm2 0h.852v.852h-.852v-.852zm5.426.051a2.38 2.38 0 0 1 2.375 2.375 2.38 2.38 0 0 1-2.375 2.375 2.38 2.38 0 0 1-2.375-2.375 2.38 2.38 0 0 1 2.375-2.375zm0 .75a1.62 1.62 0 0 0-1.625 1.625 1.62 1.62 0 0 0 1.625 1.625 1.62 1.62 0 0 0 1.625-1.625 1.62 1.62 0 0 0-1.625-1.625zm0 .875c.411 0 .75.339.75.75s-.339.75-.75.75a.754.754 0 0 1-.75-.75c0-.411.339-.75.75-.75zm-11.426.324h.852v.852h-.852v-.852zm2 0h.852v.852h-.852v-.852zm2 0h.852v.852h-.852v-.852zm2 0h.852v.852h-.852v-.852zm-6 2h.852v.852h-.852v-.852zm2 0h.852v.852h-.852v-.852zm2 0h.852v.852h-.852v-.852zm2 0h.852v.852h-.852v-.852z"/></svg>