<?xml version="1.0" encoding="UTF-8" standalone="no"?>
<svg
   viewBox="0 0 24 24"
   height="24"
   width="24"
   version="1.1"
   id="svg8"
   sodipodi:docname="rain-filled.svg"
   inkscape:version="1.2 (1:1.2.1+202207142221+cd75a1ee6d)"
   xmlns:inkscape="http://www.inkscape.org/namespaces/inkscape"
   xmlns:sodipodi="http://sodipodi.sourceforge.net/DTD/sodipodi-0.dtd"
   xmlns="http://www.w3.org/2000/svg"
   xmlns:svg="http://www.w3.org/2000/svg">
  <defs
     id="defs12" />
  <sodipodi:namedview
     id="namedview10"
     pagecolor="#ffffff"
     bordercolor="#666666"
     borderopacity="1.0"
     inkscape:pageshadow="2"
     inkscape:pageopacity="0.0"
     inkscape:pagecheckerboard="0"
     showgrid="true"
     inkscape:snap-page="true"
     inkscape:zoom="22.627417"
     inkscape:cx="7.9549513"
     inkscape:cy="13.479223"
     inkscape:window-width="1920"
     inkscape:window-height="1043"
     inkscape:window-x="0"
     inkscape:window-y="0"
     inkscape:window-maximized="1"
     inkscape:current-layer="svg8"
     inkscape:showpageshadow="2"
     inkscape:deskcolor="#d1d1d1">
    <inkscape:grid
       type="xygrid"
       id="grid934" />
  </sodipodi:namedview>
  <g
     id="layer9"
     label="status"
     style="display:inline;fill:#808080;fill-opacity:1"
     transform="translate(-790.9998,187.00025)" />
  <g
     id="layer2"
     style="display:inline;fill:#808080;fill-opacity:1"
     transform="translate(-549.9996,-179.99975)" />
  <g
     id="layer4"
     style="display:inline;fill:#808080;fill-opacity:1"
     transform="translate(-549.9996,-179.99975)" />
  <g
     id="g1812"
     style="display:inline;fill:#808080;fill-opacity:1"
     transform="translate(-549.9996,-179.99975)" />
  <g
     id="g6217"
     style="display:inline;fill:#808080;fill-opacity:1"
     transform="translate(-549.9996,-179.99975)" />
  <g
     id="layer3"
     style="display:inline;fill:#808080;fill-opacity:1"
     transform="translate(-549.9996,-179.99975)" />
  <g
     id="layer1"
     style="display:inline;fill:#808080;fill-opacity:1"
     transform="translate(-549.9996,-179.99975)" />
  <path
     style="color:#000000;fill:#808080;fill-opacity:1;fill-rule:evenodd;stroke-linecap:round;-inkscape-stroke:none"
     d="m 7,16 c 0,0 -1,2 -1,3 0,0.552285 0.4477153,1 1,1 0.5522847,0 1,-0.447715 1,-1 -2.521e-4,-0.01629 -9.023e-4,-0.03257 -0.00195,-0.04883 -0.030891,-1.01469 -0.9980469,-2.951172 -0.9980469,-2.951172 z"
     id="path42"
     sodipodi:nodetypes="csscccc" />
  <path
     id="path301"
     style="fill:#808080;fill-opacity:1;fill-rule:evenodd"
     d="M 13 2 C 10.456336 2.0059 8.192822 3.6150944 7.3515625 6.015625 C 7.2346611 6.005262 7.1173599 6.000048 7 6 C 4.7908632 6 3 7.7908632 3 10 C 3 12.209137 4.7908632 14 7 14 L 18 14 C 19.656852 14 21 12.656852 21 11 C 20.999782 9.7242803 20.192792 8.5882253 18.988281 8.1679688 C 18.992981 8.1120388 18.99688 8.0560419 19 8 C 19 4.6862948 16.313705 2 13 2 z " />
  <path
     id="path169"
     style="fill:#808080;fill-opacity:1;fill-rule:evenodd"
     d="m 12,15 c 0,0 -2,3 -2,5 0,1.104569 0.895431,2 2,2 1.104569,0 2,-0.895431 2,-2 -1.18e-4,-0.03974 -0.0014,-0.07947 -0.0039,-0.119141 -0.07555,-1.997713 -1.996094,-4.880859 -1.996094,-4.880859 z"
     sodipodi:nodetypes="cssccc" />
  <path
     id="path822"
     style="fill:#808080;fill-opacity:1;fill-rule:evenodd;stroke:none"
     d="m 17,16 c 0,0 -1,2 -1,3 c 0,0.552285 0.447715,1 1,1 c 0.552285,0 1,-0.447715 1,-1 c -2.53e-4,-0.01629 -9.04e-4,-0.03257 -0.002,-0.04883 c -0.03089,-1.01469 -0.998047,-2.951172 -0.998047,-2.951172 z"
     sodipodi:nodetypes="cssccc" />
  <path
     id="path1405"
     style="fill:#808080;fill-opacity:1;fill-rule:evenodd;stroke:none"
     d="m 7,16 c 0,0 -1,2 -1,3 0,0.552285 0.4477153,1 1,1 0.5522847,0 1,-0.447715 1,-1 -2.521e-4,-0.01629 -9.023e-4,-0.03257 -0.00195,-0.04883 -0.030891,-1.01469 -0.998047,-2.951172 -0.998047,-2.951172 z"
     sodipodi:nodetypes="csscccc" />
</svg>
