<svg height="24" width="24" xmlns="http://www.w3.org/2000/svg"><path style="color:#000;fill:gray;fill-opacity:1;stroke-linecap:round;-inkscape-stroke:none" d="M7 16s-1 2-1 3a1 1 0 1 0 1.998-.049C7.968 17.936 7 16 7 16z"/><path style="fill:gray;fill-opacity:1" d="M13 2a6 6 0 0 0-5.648 4.016A4 4 0 1 0 7 14h11a3 3 0 0 0 .988-5.832L19 8a6 6 0 0 0-6-6zm0 1a5 5 0 0 1 5 5c-.005.34-.044.678-.117 1.01.039-.005.078-.008.117-.01a2 2 0 0 1 0 4H7a3 3 0 1 1 1.068-5.803 5 5 0 0 1 .27-.967A5 5 0 0 1 13 3zm-1 12s-2 3-2 5a2 2 0 1 0 3.996-.12C13.921 17.884 12 15 12 15z"/><path style="fill:gray;fill-opacity:1;stroke:none" d="M17 16s-1 2-1 3a1 1 0 1 0 1.998-.049C17.968 17.936 17 16 17 16zM7 16s-1 2-1 3a1 1 0 1 0 1.998-.049C7.968 17.936 7 16 7 16z"/></svg>