<svg height="24" width="24" xmlns="http://www.w3.org/2000/svg"><path style="color:#000;fill:gray;stroke-width:.8;marker:none" d="M9.488 2.893a60.642 60.642 0 0 0-2.959.775 50.373 50.373 0 0 0-2.894.945L5.35 6.328a8.758 8.758 0 0 0-2.1 5.545A8.754 8.754 0 0 0 12 20.75a8.754 8.754 0 0 0 8.346-6.12 8.756 8.756 0 0 0-3.326-9.798l-.512-.36-.719 1.026.512.36a7.495 7.495 0 0 1 2.853 8.398A7.495 7.495 0 0 1 12 19.5a7.495 7.495 0 0 1-7.154-5.244A7.495 7.495 0 0 1 6.244 7.22l1.524 1.523c.34-.915.658-1.875.955-2.883.288-1 .545-1.99.765-2.968z"/></svg>