<?xml version="1.0" encoding="UTF-8" standalone="no"?>
<svg
   viewBox="0 0 24 24"
   height="24"
   width="24"
   version="1.1"
   id="svg8"
   sodipodi:docname="reboot.svg"
   inkscape:version="1.2 (1:1.2.1+202207142221+cd75a1ee6d)"
   xmlns:inkscape="http://www.inkscape.org/namespaces/inkscape"
   xmlns:sodipodi="http://sodipodi.sourceforge.net/DTD/sodipodi-0.dtd"
   xmlns="http://www.w3.org/2000/svg"
   xmlns:svg="http://www.w3.org/2000/svg">
  <defs
     id="defs12" />
  <sodipodi:namedview
     id="namedview10"
     pagecolor="#ffffff"
     bordercolor="#666666"
     borderopacity="1.0"
     inkscape:pageshadow="2"
     inkscape:pageopacity="0.0"
     inkscape:pagecheckerboard="0"
     showgrid="true"
     inkscape:snap-page="true"
     inkscape:zoom="28"
     inkscape:cx="4.7142857"
     inkscape:cy="9.1071429"
     inkscape:window-width="1920"
     inkscape:window-height="1043"
     inkscape:window-x="0"
     inkscape:window-y="0"
     inkscape:window-maximized="1"
     inkscape:current-layer="svg8"
     inkscape:showpageshadow="2"
     inkscape:deskcolor="#d1d1d1">
    <inkscape:grid
       type="xygrid"
       id="grid648" />
  </sodipodi:namedview>
  <g
     color="#000000"
     fill="#808080"
     id="g6"
     transform="matrix(0,-1.25,1.25,0,2,22)"
     style="stroke-width:0.8"
     inkscape:transform-center-x="0.00072116713"
     inkscape:transform-center-y="-0.17875">
    <path
       d="m 13.909,1.307 -3.304,3.307 c 0.732,0.273 1.5,0.527 2.306,0.764 0.8,0.231 1.592,0.436 2.375,0.612 a 48.514,48.514 0 0 0 -0.621,-2.366 40.298,40.298 0 0 0 -0.756,-2.316 z"
       style="stroke-width:0.64;marker:none"
       overflow="visible"
       id="path2" />
    <path
       d="m 8.102,1 a 7.003,7.003 0 0 0 -7.102,7 7.003,7.003 0 0 0 4.895,6.676 7.005,7.005 0 0 0 7.84,-2.66 l 0.287,-0.41 -0.82,-0.575 -0.288,0.41 a 5.996,5.996 0 0 1 -6.719,2.282 5.996,5.996 0 0 1 -4.195,-5.723 5.996,5.996 0 0 1 4.195,-5.723 5.996,5.996 0 0 1 6.72,2.282 l 0.286,0.41 0.82,-0.574 -0.287,-0.41 a 7.006,7.006 0 0 0 -5.632,-2.985 z"
       style="line-height:normal;font-variant-ligatures:normal;font-variant-position:normal;font-variant-caps:normal;font-variant-numeric:normal;font-variant-alternates:normal;font-feature-settings:normal;text-indent:0;text-align:start;text-decoration-line:none;text-decoration-style:solid;text-decoration-color:#000000;text-transform:none;text-orientation:mixed;shape-padding:0;isolation:auto;mix-blend-mode:normal;stroke-width:0.64"
       font-weight="400"
       font-family="sans-serif"
       white-space="normal"
       overflow="visible"
       id="path4" />
  </g>
</svg>
