<?xml version="1.0" encoding="UTF-8" standalone="no"?>
<svg
   viewBox="0 0 24 24"
   height="24"
   width="24"
   version="1.1"
   id="svg4"
   sodipodi:docname="redo.svg"
   inkscape:version="1.2 (1:1.2.1+202207142221+cd75a1ee6d)"
   xmlns:inkscape="http://www.inkscape.org/namespaces/inkscape"
   xmlns:sodipodi="http://sodipodi.sourceforge.net/DTD/sodipodi-0.dtd"
   xmlns="http://www.w3.org/2000/svg"
   xmlns:svg="http://www.w3.org/2000/svg">
  <defs
     id="defs8" />
  <sodipodi:namedview
     id="namedview6"
     pagecolor="#ffffff"
     bordercolor="#666666"
     borderopacity="1.0"
     inkscape:pageshadow="2"
     inkscape:pageopacity="0.0"
     inkscape:pagecheckerboard="0"
     showgrid="true"
     inkscape:snap-page="true"
     inkscape:zoom="19.79899"
     inkscape:cx="9.7984797"
     inkscape:cy="13.207745"
     inkscape:window-width="1920"
     inkscape:window-height="1016"
     inkscape:window-x="0"
     inkscape:window-y="0"
     inkscape:window-maximized="1"
     inkscape:current-layer="svg4"
     inkscape:showpageshadow="2"
     inkscape:deskcolor="#d1d1d1">
    <inkscape:grid
       type="xygrid"
       id="grid129" />
  </sodipodi:namedview>
  <g
     id="g291"
     transform="matrix(1,0,0,-1,0,24)">
    <path
       d="m 12,17 a 8.75,8.75 0 0 0 7.87875,-4.96125 l 1.49875,0.96 c 0.1175,-0.8275 0.21,-1.69 0.27375,-2.58625 0.05875,-0.88875 0.09125,-1.7625 0.0975,-2.61875 a 43.10375,43.10375 0 0 0 -4.58,2.505 v 0.0025 l 1.6475,1.05625 a 7.5,7.5 0 0 1 -6.81625,4.3925 7.5,7.5 0 0 1 -7.5,-7.5 h -1.25 a 8.75,8.75 0 0 0 8.75,8.75 z"
       fill="#808080"
       id="path2"
       style="stroke-width:1" />
  </g>
</svg>
