<svg height="24" width="24" xmlns="http://www.w3.org/2000/svg"><path style="color:#000;fill:gray;stroke-width:.8;marker:none" d="M12.127 3.25A8.754 8.754 0 0 0 3.25 12a8.754 8.754 0 0 0 6.12 8.346 8.756 8.756 0 0 0 9.798-3.326l.36-.512-1.026-.719-.36.512a7.495 7.495 0 0 1-8.398 2.853A7.495 7.495 0 0 1 4.5 12a7.495 7.495 0 0 1 5.244-7.154 7.495 7.495 0 0 1 7.035 1.398l-1.523 1.524c.915.34 1.875.658 2.883.955 1 .288 1.99.545 2.968.765a60.642 60.642 0 0 0-.775-2.959 50.373 50.373 0 0 0-.945-2.894L17.672 5.35a8.758 8.758 0 0 0-5.545-2.1z"/></svg>