<svg height="24" width="24" xmlns="http://www.w3.org/2000/svg"><path style="color:#000;fill:gray;stroke-width:.8;marker:none" d="M16 6v5.5c0 1.389-.423 2.188-1.166 2.719-.743.53-1.89.781-3.334.781H8v-2.65h-.002a53.855 53.855 0 0 0-2.904 1.474 65.913 65.913 0 0 0-2.824 1.65 56.02 56.02 0 0 0 2.824 1.669A47.045 47.045 0 0 0 7.998 18.6L8 16h8.5c1.556 0 2.91-.25 3.916-.969C21.423 14.312 22 13.111 22 11.5V6h-1v5.5c0 1.389-.423 2.188-1.166 2.719-.743.53-1.89.781-3.334.781h-1.043c.981-.722 1.543-1.911 1.543-3.5V6h-1z"/></svg>