<svg height="24" width="24" xmlns="http://www.w3.org/2000/svg"><path style="fill:gray;stroke:none;stroke-linecap:square;stroke-linejoin:round" d="M6 2v19h6V2H6zm8.5 0c-.25 0-.444-.001-.633.02-.189.02-.415.071-.596.251-.18.18-.23.407-.251.596-.021.19-.02.383-.02.633v12.096l2.5 6.25 2.5-6.25V3.5c0-.25.001-.444-.02-.633-.02-.189-.071-.415-.251-.596-.18-.18-.407-.23-.596-.251-.19-.021-.383-.02-.633-.02h-2zM7 3h4v1h-1v1h1v1h-1v1h1v1h-1v1h1v1h-1v1h1v1h-1v1h1v1h-1v1h1v1h-1v1h1v1h-1v1h1v1H7V3zm7.5 0h2c.233 0 .391.003.488.012.009.097.012.255.012.488V6h-3V3.5a6.4 6.4 0 0 1 .012-.488c.097-.009.255-.012.488-.012zm-.262 13h2.524L15.5 19.152 14.238 16z"/></svg>