<svg height="24" width="24" xmlns="http://www.w3.org/2000/svg"><path style="color:#000;fill:gray;fill-opacity:1" d="M6.787 2c-.677.006-1.25.048-1.76.303-.34.17-.63.462-.797.838C4.064 3.516 4 3.958 4 4.5v15c0 .542.064.984.23 1.36.167.375.458.668.797.837.68.34 1.473.303 2.473.303h9c1 0 1.794.037 2.473-.303.34-.17.63-.462.797-.838.166-.375.23-.817.23-1.359v-15c0-.542-.064-.984-.23-1.36a1.72 1.72 0 0 0-.797-.837c-.51-.255-1.083-.297-1.76-.303-.226-.002-.463 0-.713 0h-9c-.25 0-.487-.002-.713 0zM7.5 3h9c1 0 1.706.037 2.027.197.16.08.245.163.328.35.084.187.145.495.145.953V11H5V4.5c0-.458.061-.766.145-.953a.615.615 0 0 1 .328-.35C5.793 3.037 6.5 3 7.5 3zm1.9 1L7.24 9.4H7v.6h1.8v-.6h-.36l.48-1.2h2.16l.48 1.2h-.36v.6H13v-.6h-.24L10.6 4H9.4zm.6 1.498.84 2.102H9.16L10 5.498zM5 12h14v7.5c0 .458-.061.766-.145.953a.615.615 0 0 1-.328.35c-.32.16-1.027.197-2.027.197h-9c-1 0-1.706-.037-2.027-.197a.615.615 0 0 1-.328-.35C5.06 20.266 5 19.958 5 19.5V12zm2 2.25v.5h10v-.5H7zm0 2v.5h10v-.5H7zm0 2v.5h10v-.5H7z"/></svg>