<svg height="24" width="24" xmlns="http://www.w3.org/2000/svg"><path style="color:#000;fill:gray;fill-opacity:1" d="M6.787 2c-.677.006-1.25.048-1.76.303-.34.17-.63.462-.797.838C4.064 3.516 4 3.958 4 4.5V11h16V4.5c0-.542-.064-.984-.23-1.36a1.72 1.72 0 0 0-.797-.837c-.51-.255-1.083-.297-1.76-.303-.226-.002-.463 0-.713 0h-9c-.25 0-.487-.002-.713 0zM9.4 4h1.2l2.16 5.4H13v.6h-1.8v-.6h.36l-.48-1.2H8.92l-.48 1.2h.36v.6H7v-.6h.24L9.4 4zm.6 1.498L9.16 7.6h1.68L10 5.498zM4 12v7.5c0 .542.064.984.23 1.36.167.375.458.668.797.837.68.34 1.473.303 2.473.303h9c1 0 1.794.037 2.473-.303.34-.17.63-.462.797-.838.166-.375.23-.817.23-1.359V12H4zm3 2.25h10v.5H7v-.5zm0 2h10v.5H7v-.5zm0 2h10v.5H7v-.5z"/></svg>