<svg width="24" height="24" xmlns="http://www.w3.org/2000/svg"><path style="color:#000;fill:gray;fill-opacity:1;-inkscape-stroke:none" d="M4.787 3c-.677.006-1.25.048-1.76.303-.34.17-.63.462-.797.838C2.064 4.516 2 4.958 2 5.5v10c0 .542.064.984.23 1.36.167.375.458.668.797.837.68.34 1.473.303 2.473.303h13c1 0 1.794.037 2.473-.303.34-.17.63-.462.797-.838.166-.375.23-.817.23-1.359v-10c0-.542-.064-.984-.23-1.36a1.72 1.72 0 0 0-.797-.837C20.293 2.963 19.5 3 18.5 3h-13c-.25 0-.487-.002-.713 0zM4.35 4h15.3c.748 0 1.35.58 1.35 1.3v10.4c0 .72-.602 1.3-1.35 1.3H4.35C3.602 17 3 16.42 3 15.7V5.3C3 4.58 3.602 4 4.35 4zm.85 1C4.533 5 4 5.49 4 6.1v8.8c0 .61.534 1.1 1.2 1.1h13.6c.666 0 1.2-.49 1.2-1.1V6.1c0-.61-.534-1.1-1.2-1.1H5.2zm1.282 1.482 1.768.89 1.768-.89-.89 1.768.89 1.768-1.768-.89-1.768.89.89-1.768-.89-1.768zm7.6.518A3.791 3.791 0 0 1 17 10.7a3.801 3.801 0 0 1-3.8 3.8 3.791 3.791 0 0 1-3.7-2.918 3.242 3.242 0 0 0 2.07.746 3.258 3.258 0 0 0 3.256-3.258c0-.787-.279-1.508-.744-2.07z"/><path style="color:#000;fill:gray;fill-opacity:1" d="M9 18.999v.125c0 1.875-.625 1.875-1.875 1.875H6v1h12v-1h-1.125c-1.25 0-1.875 0-1.875-1.875v-.125z"/></svg>