<?xml version="1.0" encoding="UTF-8" standalone="no"?>
<svg
   viewBox="0 0 24 24"
   version="1.1"
   id="svg8"
   sodipodi:docname="screensaver-filled.svg"
   inkscape:version="1.2 (1:1.2.1+202207142221+cd75a1ee6d)"
   width="24"
   height="24"
   xmlns:inkscape="http://www.inkscape.org/namespaces/inkscape"
   xmlns:sodipodi="http://sodipodi.sourceforge.net/DTD/sodipodi-0.dtd"
   xmlns="http://www.w3.org/2000/svg"
   xmlns:svg="http://www.w3.org/2000/svg"
   xmlns:rdf="http://www.w3.org/1999/02/22-rdf-syntax-ns#"
   xmlns:cc="http://creativecommons.org/ns#"
   xmlns:dc="http://purl.org/dc/elements/1.1/">
  <metadata
     id="metadata14">
    <rdf:RDF>
      <cc:Work
         rdf:about="">
        <dc:format>image/svg+xml</dc:format>
        <dc:type
           rdf:resource="http://purl.org/dc/dcmitype/StillImage" />
      </cc:Work>
    </rdf:RDF>
  </metadata>
  <defs
     id="defs12" />
  <sodipodi:namedview
     pagecolor="#ffffff"
     bordercolor="#666666"
     borderopacity="1"
     objecttolerance="10"
     gridtolerance="10"
     guidetolerance="10"
     inkscape:pageopacity="0"
     inkscape:pageshadow="2"
     inkscape:window-width="1920"
     inkscape:window-height="1043"
     id="namedview10"
     showgrid="true"
     inkscape:snap-center="true"
     inkscape:zoom="27.5"
     inkscape:cx="8.8727273"
     inkscape:cy="10.8"
     inkscape:window-x="0"
     inkscape:window-y="0"
     inkscape:window-maximized="1"
     inkscape:current-layer="svg8"
     inkscape:pagecheckerboard="0"
     inkscape:showpageshadow="2"
     inkscape:deskcolor="#d1d1d1">
    <inkscape:grid
       type="xygrid"
       id="grid848" />
    <inkscape:grid
       type="xygrid"
       id="grid1766"
       dotted="true"
       spacingx="0.5"
       spacingy="0.5"
       empspacing="10" />
  </sodipodi:namedview>
  <path
     id="path861"
     style="color:#000000;fill:#808080;fill-opacity:1;-inkscape-stroke:none"
     d="M 4.7871094 3 C 4.1101651 3.00559 3.5365062 3.0481532 3.0273438 3.3027344 C 2.6879021 3.4724552 2.3973376 3.7651688 2.2304688 4.140625 C 2.0635989 4.5160809 2 4.9583345 2 5.5 L 2 15.5 C 2 16.041664 2.0635999 16.483918 2.2304688 16.859375 C 2.3973376 17.234832 2.6879021 17.527544 3.0273438 17.697266 C 3.7062271 18.036706 4.500003 18 5.5 18 L 18.5 18 C 19.499997 18 20.293773 18.036709 20.972656 17.697266 C 21.312099 17.527544 21.602661 17.234832 21.769531 16.859375 C 21.936401 16.483918 22 16.041664 22 15.5 L 22 5.5 C 22 4.9583345 21.9364 4.5160809 21.769531 4.140625 C 21.602661 3.7651688 21.312099 3.4724552 20.972656 3.3027344 C 20.293773 2.9632926 19.499997 3 18.5 3 L 5.5 3 C 5.2500003 3 5.0127581 2.99814 4.7871094 3 z M 4.3496094 4 L 19.650391 4 C 20.398288 4 21 4.580584 21 5.3007812 L 21 15.699219 C 21 16.419416 20.398288 17 19.650391 17 L 4.3496094 17 C 3.6017121 17 3 16.419416 3 15.699219 L 3 5.3007812 C 3 4.580583 3.6017121 4 4.3496094 4 z M 5.1992188 5 C 4.5344204 5 4 5.490211 4 6.0996094 L 4 14.900391 C 4 15.509788 4.5344204 16 5.1992188 16 L 18.800781 16 C 19.46558 16 20 15.509788 20 14.900391 L 20 6.0996094 C 20 5.490211 19.46558 5 18.800781 5 L 5.1992188 5 z M 6.4824219 6.4824219 L 8.25 7.3710938 L 10.017578 6.4824219 L 9.1289062 8.25 L 10.017578 10.017578 L 8.25 9.1289062 L 6.4824219 10.017578 L 7.3710938 8.25 L 6.4824219 6.4824219 z M 14.082031 7 A 3.7912436 3.7912436 0 0 1 17 10.699219 A 3.8009936 3.8009936 0 0 1 13.199219 14.5 A 3.7912436 3.7912436 0 0 1 9.5 11.582031 C 10.062498 12.04628 10.782816 12.328125 11.570312 12.328125 A 3.2579945 3.2579945 0 0 0 14.826172 9.0703125 C 14.826172 8.2828154 14.547031 7.5624978 14.082031 7 z " />
  <path
     style="color:#000000;fill:#808080;fill-opacity:1"
     d="m 9,18.998839 v 0.125 c 0,1.874992 -0.6250049,1.875 -1.875,1.875 h -1.125 v 1 h 12 v -1 h -1.125 c -1.249995,0 -1.875,-8e-6 -1.875,-1.875 v -0.125 z"
     id="path790" />
</svg>
