<svg height="24" width="24" xmlns="http://www.w3.org/2000/svg"><path style="color:#000;fill:gray;-inkscape-stroke:none;fill-opacity:1" d="M6.455 2c-.969.009-1.718.073-2.338.445-.413.248-.72.656-.888 1.162C3.059 4.114 3 4.722 3 5.5v13c0 .778.059 1.391.25 1.908.191.517.553.927 1.027 1.164.95.475 2.223.428 4.223.428h7c1.5 0 2.556.05 3.383-.445.413-.248.72-.656.888-1.162.17-.507.229-1.115.229-1.893V7.293L14.707 2H7.5c-.375 0-.722-.003-1.045 0zM7.5 3H14v5h5v10.5c0 .722-.065 1.239-.178 1.576-.112.338-.243.492-.455.62C17.944 20.948 17 21 15.5 21h-7c-2 0-3.226-.047-3.777-.322-.276-.138-.414-.29-.535-.617C4.066 19.734 4 19.222 4 18.5v-13c0-.722.065-1.239.178-1.576.112-.338.243-.492.455-.62C5.056 3.052 6 3 7.5 3zm-.02 7a.5.5 0 0 0-.396.223.5.5 0 0 0 .139.693L9.598 12.5l-2.375 1.584a.5.5 0 0 0-.139.693.5.5 0 0 0 .693.139l3-2a.5.5 0 0 0 0-.832l-3-2A.5.5 0 0 0 7.48 10zM11 15v1h4v-1h-4z"/></svg>