<svg height="24" width="24" xmlns="http://www.w3.org/2000/svg"><path style="line-height:normal;font-variant-ligatures:none;font-variant-position:normal;font-variant-caps:normal;font-variant-numeric:normal;font-variant-alternates:normal;font-feature-settings:normal;text-indent:0;text-align:start;text-decoration-line:none;text-decoration-style:solid;text-decoration-color:#000;text-transform:none;shape-padding:0;isolation:auto;mix-blend-mode:normal;fill:gray;marker:none" d="M10 3a6 6 0 0 0-6 6 6 6 0 0 0 1.27 3.668l-2.86 2.86 1.063 1.062 2.859-2.86A6 6 0 0 0 10 15a6 6 0 0 0 .195-.016 6.5 6.5 0 0 1 .352-1.023A5 5 0 0 1 10 14a5 5 0 0 1-5-5 5 5 0 0 1 5-5 5 5 0 0 1 5 5 5 5 0 0 1-.168 1.244 6.5 6.5 0 0 1 1.068-.201A6 6 0 0 0 16 9a6 6 0 0 0-6-6zm0 2a4 4 0 0 0-4 4 4 4 0 0 0 4 4 4 4 0 0 0 1.182-.182 6.5 6.5 0 0 1 2.425-2.103A4 4 0 0 0 14 9a4 4 0 0 0-4-4z"/><path style="fill:gray;stroke:none;stroke-width:2;stroke-linecap:round;stroke-linejoin:round;stroke-dasharray:2,4" d="M16.5 11a5.5 5.5 0 0 0-5.5 5.5 5.5 5.5 0 0 0 5.5 5.5 5.5 5.5 0 0 0 5.5-5.5 5.5 5.5 0 0 0-5.5-5.5zm-.5 2h1v3.793l1.354 1.353.353.354-.707.707-.354-.353L16 17.207V13.5z"/></svg>