<svg height="24" width="24" xmlns="http://www.w3.org/2000/svg"><path style="fill:gray;stroke-width:1.5;stroke-linecap:square;stroke-linejoin:round;fill-opacity:1" d="M4 6c-.237 0-.463.044-.674.12l.906.905A1.58 1.58 0 0 1 4.5 7H6V6H4zm3 0v1h1V6H7zm-4.514.693A1.99 1.99 0 0 0 2 8v1h1v-.5c0-.363.127-.694.34-.953l-.854-.854zM2 10v2h1v-2H2zm0 3v2h1v-2H2zm0 3v2h1v-2H2zm15 0v2h1v-2h-1zM2 19v1c0 .237.044.463.12.674l.905-.906A1.515 1.515 0 0 1 3 19.5V19H2zm15 0v.5c0 .092-.01.18-.025.268l.906.906c.075-.211.119-.437.119-.674v-1h-1zM3.547 20.66l-.854.854C3.043 21.816 3.5 22 4 22h2v-1H4.5c-.363 0-.694-.127-.953-.34zm12.906 0c-.259.213-.59.34-.953.34H13v1h3a1.99 1.99 0 0 0 1.307-.486l-.854-.854zM7 21v1h2v-1H7zm3 0v1h2v-1h-2zm0-19c-1.108 0-2 .892-2 2v2h1v1H8v7c0 1.108.892 2 2 2h10c1.108 0 2-.892 2-2V4c0-1.108-.892-2-2-2H10zm0 4h2v1h-2V6zm3 0h3c.237 0 .463.044.674.12l-.906.905A1.515 1.515 0 0 0 15.5 7H13V6zm4.514.693C17.816 7.043 18 7.5 18 8v1h-1v-.5c0-.363-.127-.694-.34-.953l.854-.854zM17 10h1v2h-1v-2zm0 3h1v2h-1v-2z"/></svg>