<svg height="24" width="24" xmlns="http://www.w3.org/2000/svg"><path style="color:#000;fill:gray;stroke-width:.8;marker:none" d="M5 11v2.5c0 1.611.577 2.812 1.584 3.531 1.007.72 2.36.969 3.916.969H16v-1h-5.5c-1.444 0-2.59-.25-3.334-.781-.743-.531-1.11-1.331-1.166-2.719V11zm11 6 .002 3.6c.95-.435 1.92-.921 2.904-1.457a56.02 56.02 0 0 0 2.825-1.668 65.913 65.913 0 0 0-2.825-1.65 53.855 53.855 0 0 0-2.904-1.475H16zm3-4v-2.5c0-1.611-.577-2.812-1.584-3.531C16.409 6.249 15.056 6 13.5 6H8v1h5.5c1.444 0 2.59.25 3.334.781.743.531 1.11 1.331 1.166 2.719V13zM8 7l-.002-3.6c-.95.435-1.92.921-2.904 1.457a56.02 56.02 0 0 0-2.825 1.668 65.913 65.913 0 0 0 2.825 1.65A53.44 53.44 0 0 0 7.998 9.65H8z"/></svg>