<svg height="24" width="24" xmlns="http://www.w3.org/2000/svg"><path style="color:#000;opacity:1;fill:gray;fill-opacity:1;-inkscape-stroke:none" d="M6.5 15.001c-1 0-1.794-.037-2.473.303-.34.17-.63.462-.797.838-.166.375-.23.817-.23 1.36v1c0 .54.064.983.23 1.359.167.375.458.668.797.837.68.34 1.473.303 2.473.303h11c1 0 1.794.037 2.473-.303.34-.17.63-.462.797-.837.166-.376.23-.818.23-1.36v-1c0-.542-.064-.984-.23-1.36a1.72 1.72 0 0 0-.797-.837C19.293 14.964 18.5 15 17.5 15zm0 1h11c1 0 1.706.037 2.027.197.16.08.245.163.328.35.084.187.145.495.145.953v1c0 .458-.061.766-.145.953a.615.615 0 0 1-.328.35c-.32.16-1.027.197-2.027.197h-11c-1 0-1.706-.037-2.027-.197a.615.615 0 0 1-.328-.35C4.06 19.267 4 18.96 4 18.501v-1c0-.458.061-.766.145-.953a.615.615 0 0 1 .328-.35c.32-.16 1.027-.197 2.027-.197z"/><path style="opacity:1;fill:gray;stroke-width:1.5;stroke-linecap:square;stroke-linejoin:round" d="M15 18.001h3v1h-3z"/><path style="color:#000;opacity:1;fill:gray;fill-opacity:1;-inkscape-stroke:none" d="M5.787 9.001c-.677.006-1.25.048-1.76.303-.34.17-.63.462-.797.838-.166.375-.23.817-.23 1.36v3.5h.025a2.75 2.75 0 0 1 .205-.86A1.72 1.72 0 0 1 4 13.32V11.5c0-.458.061-.766.145-.953a.615.615 0 0 1 .328-.35C4.793 10.037 5.5 10 6.5 10h11c1 0 1.706.037 2.027.197.16.08.245.163.328.35.084.187.145.495.145.953v1.819c.327.171.607.457.77.822.112.252.174.537.205.86H21v-3.5c0-.543-.064-.985-.23-1.36a1.72 1.72 0 0 0-.797-.838C19.293 8.964 18.5 9 17.5 9h-11c-.25 0-.487-.002-.713 0z"/><path style="opacity:1;fill:gray;stroke-width:1.5;stroke-linecap:square;stroke-linejoin:round" d="M15 12.001h3v1h-3z"/><path style="color:#000;opacity:1;fill:gray;fill-opacity:1;-inkscape-stroke:none" d="M5.787 3.001c-.677.006-1.25.048-1.76.303-.34.17-.63.462-.797.838-.166.375-.23.817-.23 1.36v3.5h.025a2.75 2.75 0 0 1 .205-.86A1.72 1.72 0 0 1 4 7.32V5.5c0-.458.061-.766.145-.953a.615.615 0 0 1 .328-.35C4.793 4.037 5.5 4 6.5 4h11c1 0 1.706.037 2.027.197.16.08.245.163.328.35.084.187.145.495.145.953v1.82c.327.171.607.457.77.822.112.252.174.537.205.86H21v-3.5c0-.543-.064-.985-.23-1.36a1.72 1.72 0 0 0-.797-.838C19.293 2.964 18.5 3 17.5 3h-11c-.25 0-.487-.002-.713 0z"/><path style="opacity:1;fill:gray;stroke-width:1.5;stroke-linecap:square;stroke-linejoin:round" d="M15 6.001h3v1h-3z"/></svg>