<svg height="24" width="24" xmlns="http://www.w3.org/2000/svg"><path style="color:#000;opacity:1;fill:gray;fill-opacity:1" d="M5.787 15c-.677.006-1.25.05-1.76.305-.34.17-.63.462-.797.838-.166.375-.23.817-.23 1.359v1c0 .542.064.984.23 1.36.167.375.458.667.797.837.68.34 1.473.303 2.473.303h11c1 0 1.794.037 2.473-.303.34-.17.63-.462.797-.838.166-.375.23-.817.23-1.359v-1c0-.542-.064-.984-.23-1.36a1.72 1.72 0 0 0-.797-.837c-.68-.34-1.473-.303-2.473-.303h-11c-.25 0-.487-.004-.713-.002zM15 18.002h3v1h-3v-1zM5.787 8.998c-.677.006-1.25.05-1.76.305-.34.17-.63.462-.797.838-.166.375-.23.817-.23 1.359v1c0 .542.064.984.23 1.36.093.207.223.388.377.538.728-.355 1.465-.392 2.172-.398.243-.002.481.002.721.002h11c.244 0 .486-.006.729-.006.718 0 1.435.046 2.164.402.154-.15.284-.331.377-.539.166-.375.23-.817.23-1.359v-1c0-.542-.064-.984-.23-1.36a1.72 1.72 0 0 0-.797-.837C19.293 8.963 18.5 9 17.5 9h-11c-.25 0-.487-.004-.713-.002zM15 12h3v1h-3v-1zM5.787 2.998c-.677.006-1.25.05-1.76.305-.34.17-.63.462-.797.838C3.064 4.516 3 4.958 3 5.5v1c0 .542.064.984.23 1.36.092.206.223.387.377.536.728-.355 1.465-.392 2.172-.398.243-.002.481.002.721.002h11c.244 0 .486-.006.729-.006.718 0 1.435.046 2.164.402.154-.15.285-.33.377-.537.166-.375.23-.817.23-1.359v-1c0-.542-.064-.984-.23-1.36a1.72 1.72 0 0 0-.797-.837C19.293 2.963 18.5 3 17.5 3h-11c-.25 0-.487-.004-.713-.002zM15 6h3v1h-3V6z"/></svg>