<svg height="24" width="24" xmlns="http://www.w3.org/2000/svg"><path style="fill:gray;stroke-width:1.5;stroke-linecap:square;stroke-linejoin:round;fill-opacity:1" d="M18 3a3 3 0 0 0-3 3 3 3 0 0 0 3 3 3 3 0 0 0 3-3 3 3 0 0 0-3-3zm0 1a2 2 0 0 1 2 2 2 2 0 0 1-2 2 2 2 0 0 1-2-2 2 2 0 0 1 2-2zm-3.764 3.324L8.422 10.23A3 3 0 0 0 6 9a3 3 0 0 0-3 3 3 3 0 0 0 3 3 3 3 0 0 0 2.416-1.234l5.82 2.91a4 4 0 0 1 .442-.895l-5.81-2.906A3 3 0 0 0 9 12a3 3 0 0 0-.13-.877l5.808-2.904a4 4 0 0 1-.442-.895zM6 10a2 2 0 0 1 2 2 2 2 0 0 1-2 2 2 2 0 0 1-2-2 2 2 0 0 1 2-2zm2.861 2.89a2.84 2.84 0 0 1-.105.284 3 3 0 0 0 .105-.283zm-.168.42a2.828 2.828 0 0 1-.113.21 3 3 0 0 0 .113-.21zM18 15a3 3 0 0 0-3 3 3 3 0 0 0 3 3 3 3 0 0 0 3-3 3 3 0 0 0-3-3zm0 1a2 2 0 0 1 2 2 2 2 0 0 1-2 2 2 2 0 0 1-2-2 2 2 0 0 1 2-2z"/></svg>