<svg height="24" width="24" xmlns="http://www.w3.org/2000/svg"><path style="opacity:1;fill:gray;stroke:none;stroke-width:3;stroke-linejoin:round;stroke-dasharray:3,3" d="M10 2v3h1V2zm-3.316.889-.868.5 1.5 2.597.868-.5zm7.632 0-1.5 2.597.868.5 1.5-2.597zM3.39 5.816l-.5.868 2.597 1.5.5-.868zm14.222 0-2.597 1.5.416.723a4.95 4.95 0 0 1 .388-.031l2.293-1.324zM2 10v1h3v-1zm3.486 2.816-2.597 1.5.5.868 2.597-1.5zm1.83 2.198-1.5 2.597.868.5 1.382-2.394a3.959 3.959 0 0 1-.043-.295z"/><path style="fill:gray;fill-opacity:1;stroke-width:.5;stroke-linecap:square;stroke-linejoin:round" d="M16 9a4 4 0 0 0-3.865 3.004A3 3 0 1 0 12 18h.896c.122-.267.21-.447.21-.447l.277-.553.617-1.236.617 1.236.278.553s.084.17.2.426c.004.006.007.014.01.021h.791c.122-.267.21-.447.21-.447l.277-.553.617-1.236.617 1.236.278.553s.084.17.2.426c.004.006.007.014.01.021H19.5a2.5 2.5 0 0 0 .496-4.95A4.32 4.32 0 0 0 20 13a4 4 0 0 0-4-4z"/><path style="fill:gray;fill-opacity:1;stroke:none" d="M14 18s-1 2-1 3a1 1 0 1 0 1.998-.049C14.968 19.936 14 18 14 18zm3 0s-1 2-1 3a1 1 0 1 0 1.998-.049C17.968 19.936 17 18 17 18z"/><path style="fill:gray;stroke:none;stroke-width:2;stroke-linecap:round;stroke-linejoin:round" d="M10.5 6A4.5 4.5 0 0 0 6 10.5a4.5 4.5 0 0 0 2.066 3.785c.313-1.66 1.693-2.928 3.387-3.174.556-1.332 1.632-2.365 2.957-2.834A4.5 4.5 0 0 0 10.5 6z"/></svg>