<svg height="24" width="24" xmlns="http://www.w3.org/2000/svg"><path style="fill:gray;fill-opacity:1;stroke-width:.5;stroke-linecap:square;stroke-linejoin:round" d="M16 9a4 4 0 0 0-3.865 3.004A3 3 0 1 0 12 18h.896c.122-.267.21-.447.21-.447l.277-.553H12a2 2 0 1 1 1.021-3.719A2.996 2.996 0 0 1 13 13c.003-.266.04-.53.113-.785A3 3 0 0 1 16 10a3 3 0 0 1 3 3l-.004.059a3 3 0 0 1-.26 1.152 1.5 1.5 0 0 1 1.12-.168A1.5 1.5 0 0 1 19.5 17h-1.883l.278.553s.089.18.21.447H19.5a2.5 2.5 0 0 0 .496-4.95A4.32 4.32 0 0 0 20 13a4 4 0 0 0-4-4zm-1.383 8 .278.553s.089.18.21.447h.791c.122-.267.21-.447.21-.447l.277-.553h-1.766z"/><path style="fill:gray;fill-opacity:1;stroke:none" d="M14 18s-1 2-1 3a1 1 0 1 0 1.998-.049C14.968 19.936 14 18 14 18zm3 0s-1 2-1 3a1 1 0 1 0 1.998-.049C17.968 19.936 17 18 17 18z"/><path style="color:#000;fill:gray;stroke-linecap:square;stroke-linejoin:round;-inkscape-stroke:none" d="M11.086 2.17A6.502 6.502 0 0 1 12 5.5C12 9.096 9.096 12 5.5 12a6.502 6.502 0 0 1-3.33-.914c.1.459.239.902.418 1.326a7.522 7.522 0 0 0 5.914 4.522 3.973 3.973 0 0 1-.41-1.088 6.497 6.497 0 0 1-4.178-3.016A7.5 7.5 0 0 0 5.5 13C9.636 13 13 9.636 13 5.5a7.5 7.5 0 0 0-.17-1.586 6.495 6.495 0 0 1 2.994 4.094c.058-.002.116-.008.174-.008H16c.295 0 .583.028.863.078a7.528 7.528 0 0 0-4.45-5.49 7.43 7.43 0 0 0-1.327-.418z"/></svg>