<svg height="24" width="24" xmlns="http://www.w3.org/2000/svg"><path style="color:#000;fill:gray;stroke-linecap:square;stroke-linejoin:round;-inkscape-stroke:none" d="M11.086 2.17A6.502 6.502 0 0 1 12 5.5C12 9.096 9.096 12 5.5 12a6.502 6.502 0 0 1-3.33-.914c.1.459.239.902.418 1.326a7.522 7.522 0 0 0 5.914 4.522A3.962 3.962 0 0 1 8 15c0-2.004 1.523-3.61 3.453-3.889.766-1.834 2.514-3.107 4.545-3.111A1 1 0 0 0 16 8c.295 0 .584.026.863.076a7.528 7.528 0 0 0-4.45-5.488 7.43 7.43 0 0 0-1.327-.418z"/><path style="fill:gray;fill-opacity:1;stroke-width:.5;stroke-linecap:square;stroke-linejoin:round" d="M16 9a4 4 0 0 0-3.865 3.004A3 3 0 1 0 12 18h.896c.122-.267.21-.447.21-.447l.277-.553.617-1.236.617 1.236.278.553s.084.17.2.426c.004.006.007.014.01.021h.792c.121-.267.209-.447.209-.447l.277-.553.617-1.236.617 1.236.278.553s.084.17.2.426c.004.006.007.014.01.021H19.5a2.5 2.5 0 0 0 .496-4.95A4.32 4.32 0 0 0 20 13a4 4 0 0 0-4-4z"/><path style="fill:gray;fill-opacity:1;stroke:none" d="M14 18s-1 2-1 3a1 1 0 1 0 1.998-.049C14.968 19.936 14 18 14 18zm3 0s-1 2-1 3a1 1 0 1 0 1.998-.049C17.968 19.936 17 18 17 18z"/></svg>