<svg height="24" width="24" xmlns="http://www.w3.org/2000/svg"><path style="color:#000;fill:gray" d="m1.998 19 .004-1c2.152.007 3.42-.667 4.371-1.701.951-1.034 1.562-2.477 2.184-3.979.621-1.501 1.252-3.06 2.361-4.277C12.027 6.826 13.638 6 16 6v1c-2.139 0-3.396.679-4.342 1.717-.946 1.038-1.556 2.484-2.178 3.986-.621 1.502-1.257 3.06-2.373 4.274C5.991 18.19 4.371 19.008 1.998 19zm0-13 .004 1c2.152-.007 3.42.667 4.371 1.701.637.693 1.122 1.57 1.559 2.524.166-.397.338-.798.53-1.202-.372-.718-.804-1.4-1.355-2C5.991 6.81 4.371 5.992 1.998 6zm8.117 7.773c-.167.399-.337.8-.531 1.206.368.71.793 1.385 1.334 1.978C12.027 18.174 13.638 19 16 19v-1c-2.139 0-3.396-.679-4.342-1.717-.629-.69-1.109-1.562-1.543-2.51zM16 21.625a53.855 53.855 0 0 0 2.904-1.475 65.913 65.913 0 0 0 2.825-1.65 56.02 56.02 0 0 0-2.825-1.668A47.045 47.045 0 0 0 16 15.375zm0-12a53.855 53.855 0 0 0 2.904-1.475A65.913 65.913 0 0 0 21.73 6.5a56.02 56.02 0 0 0-2.825-1.668A47.045 47.045 0 0 0 16 3.375z"/></svg>