<?xml version="1.0" encoding="UTF-8" standalone="no"?>
<svg
   viewBox="0 0 24 24"
   height="24"
   width="24"
   version="1.1"
   id="svg8"
   sodipodi:docname="shuffle.svg"
   inkscape:version="1.2 (1:1.2.1+202207142221+cd75a1ee6d)"
   xmlns:inkscape="http://www.inkscape.org/namespaces/inkscape"
   xmlns:sodipodi="http://sodipodi.sourceforge.net/DTD/sodipodi-0.dtd"
   xmlns="http://www.w3.org/2000/svg"
   xmlns:svg="http://www.w3.org/2000/svg">
  <defs
     id="defs12" />
  <sodipodi:namedview
     id="namedview10"
     pagecolor="#ffffff"
     bordercolor="#666666"
     borderopacity="1.0"
     inkscape:pageshadow="2"
     inkscape:pageopacity="0.0"
     inkscape:pagecheckerboard="0"
     showgrid="true"
     inkscape:snap-page="true"
     inkscape:zoom="28"
     inkscape:cx="1.1428571"
     inkscape:cy="14.875"
     inkscape:window-width="1920"
     inkscape:window-height="1016"
     inkscape:window-x="0"
     inkscape:window-y="0"
     inkscape:window-maximized="1"
     inkscape:current-layer="svg8"
     inkscape:showpageshadow="2"
     inkscape:deskcolor="#d1d1d1">
    <inkscape:grid
       type="xygrid"
       id="grid911" />
    <inkscape:grid
       type="xygrid"
       id="grid463"
       dotted="true"
       spacingx="0.5"
       spacingy="0.5"
       empspacing="10" />
  </sodipodi:namedview>
  <path
     id="path4-3"
     style="color:#000000;fill:#808080;stroke-width:0.8;marker:none"
     d="m 16,21.625 c 0.982744,-0.462142 1.951288,-0.953903 2.904297,-1.47461 0.976249,-0.538749 1.91672,-1.089141 2.824219,-1.65039 -0.907499,-0.5725 -1.84797,-1.129219 -2.824219,-1.667969 -0.984999,-0.536249 -1.954298,-1.022032 -2.904297,-1.457031 z"
     sodipodi:nodetypes="cccccc" />
  <path
     id="path465"
     style="color:#000000;fill:#808080;stroke-width:0.8;marker:none"
     d="m 16,9.625 c 0.982744,-0.462142 1.951288,-0.953903 2.904297,-1.47461 0.976249,-0.538749 1.91672,-1.089141 2.824219,-1.65039 -0.907499,-0.5725 -1.84797,-1.129219 -2.824219,-1.667969 -0.984999,-0.536249 -1.954298,-1.022032 -2.904297,-1.457031 z"
     sodipodi:nodetypes="cccccc" />
  <path
     id="path532"
     style="color:#000000;fill:#808080"
     d="M 1.9980469 6 L 2.0019531 7 C 4.1540761 6.99274 5.4218044 7.6671737 6.3730469 8.7011719 C 7.0100209 9.3935611 7.4945243 10.270667 7.9316406 11.224609 C 8.0978787 10.827523 8.269957 10.427107 8.4628906 10.023438 C 8.0901288 9.3047785 7.6582827 8.6222219 7.1074219 8.0234375 C 5.9913815 6.8103044 4.3714449 5.9919884 1.9980469 6 z M 10.115234 13.773438 C 9.9484049 14.171855 9.7777234 14.573414 9.5839844 14.978516 C 9.951772 15.688382 10.37721 16.363565 10.917969 16.957031 C 12.026741 18.173874 13.63861 19 16 19 L 16 18 C 13.861398 18 12.603949 17.32113 11.658203 16.283203 C 11.029282 15.592982 10.549466 14.721159 10.115234 13.773438 z " />
  <g
     id="use539"
     transform="matrix(1,0,0,-1,0,25.000248)"
     style="fill:#808080">
    <path
       style="color:#000000;fill:#808080;-inkscape-stroke:none"
       d="m 1.9980469,6 0.00391,1 c 2.1521251,-0.00726 3.4198504,0.6671727 4.3710938,1.7011719 0.9512433,1.0339991 1.5619299,2.4769561 2.1835937,3.9785161 0.6216639,1.501559 1.252555,3.060499 2.3613284,4.277343 1.108773,1.216844 2.720639,2.042969 5.082031,2.042969 v -1 c -2.138604,0 -3.39605,-0.678869 -4.341797,-1.716797 -0.945747,-1.037927 -1.555782,-2.484071 -2.1777342,-3.986328 -0.6219525,-1.502257 -1.2570055,-3.0603032 -2.3730469,-4.2734375 -1.1160415,-1.2131343 -2.7359746,-2.0314491 -5.109375,-2.0234375 z"
       id="path541" />
  </g>
</svg>
