<svg height="24" width="24" xmlns="http://www.w3.org/2000/svg"><path style="fill:gray;stroke-width:1.5;stroke-linecap:square;stroke-linejoin:round;fill-opacity:1" d="M6.828 4.406A8.5 8.5 0 0 0 3 11.5a8.5 8.5 0 0 0 8.5 8.5 8.5 8.5 0 0 0 8.5-8.5 8.5 8.5 0 0 0-3.79-7.076l-.505.869A7.5 7.5 0 0 1 19 11.5a7.5 7.5 0 0 1-7.5 7.5A7.5 7.5 0 0 1 4 11.5a7.5 7.5 0 0 1 3.334-6.217l-.506-.877z"/><path style="fill:gray;stroke-width:1.5;stroke-linecap:square;stroke-linejoin:round;fill-opacity:1" d="M11 3h1v10h-1z"/></svg>