<?xml version="1.0" encoding="UTF-8" standalone="no"?>
<svg
   viewBox="0 0 24 24"
   height="24"
   width="24"
   version="1.1"
   id="svg8"
   sodipodi:docname="snow-filled.svg"
   inkscape:version="1.2 (1:1.2.1+202207142221+cd75a1ee6d)"
   xmlns:inkscape="http://www.inkscape.org/namespaces/inkscape"
   xmlns:sodipodi="http://sodipodi.sourceforge.net/DTD/sodipodi-0.dtd"
   xmlns="http://www.w3.org/2000/svg"
   xmlns:svg="http://www.w3.org/2000/svg">
  <defs
     id="defs12" />
  <sodipodi:namedview
     id="namedview10"
     pagecolor="#ffffff"
     bordercolor="#666666"
     borderopacity="1.0"
     inkscape:pageshadow="2"
     inkscape:pageopacity="0.0"
     inkscape:pagecheckerboard="0"
     showgrid="true"
     inkscape:snap-page="true"
     inkscape:zoom="32"
     inkscape:cx="18.4375"
     inkscape:cy="15.34375"
     inkscape:window-width="1920"
     inkscape:window-height="1043"
     inkscape:window-x="0"
     inkscape:window-y="0"
     inkscape:window-maximized="1"
     inkscape:current-layer="svg8"
     inkscape:showpageshadow="2"
     inkscape:deskcolor="#d1d1d1">
    <inkscape:grid
       type="xygrid"
       id="grid8" />
  </sodipodi:namedview>
  <path
     id="path141"
     style="fill:#808080;fill-rule:evenodd;fill-opacity:1"
     d="M 13 2 C 10.456336 2.0059 8.192822 3.6150944 7.3515625 6.015625 C 7.2346611 6.005262 7.1173599 6.000048 7 6 C 4.7908632 6 3 7.7908632 3 10 C 3 12.209137 4.7908632 14 7 14 L 18 14 C 19.656852 14 21 12.656852 21 11 C 20.999782 9.7242803 20.192792 8.5882252 18.988281 8.1679688 C 18.992981 8.1120368 18.99688 8.0560416 19 8 C 19 4.6862948 16.313705 2 13 2 z " />
  <path
     style="fill:#808080;fill-rule:evenodd;fill-opacity:1"
     d="m 12,17 v 1.632812 l -1.416016,-0.816406 -0.5,0.867188 1.414063,0.816406 -1.414063,0.816406 0.5,0.867188 1.416016,-0.816406 v 1.632812 h 1 v -1.632812 l 1.416016,0.816406 0.5,-0.867188 -1.414063,-0.816406 1.414063,-0.816406 -0.5,-0.867188 -1.416016,0.816406 v -1.632812 z"
     id="rect2195" />
  <path
     style="fill:#808080;fill-rule:evenodd;fill-opacity:1"
     d="m 18,15 v 1.632812 l -1.416016,-0.816406 -0.5,0.867188 1.414063,0.816406 -1.414063,0.816406 0.5,0.867188 1.416016,-0.816406 v 1.632812 h 1 v -1.632812 l 1.416016,0.816406 0.5,-0.867188 -1.414063,-0.816406 1.414063,-0.816406 -0.5,-0.867188 -1.416016,0.816406 v -1.632812 z"
     id="path2284" />
  <path
     style="fill:#808080;fill-rule:evenodd;fill-opacity:1"
     d="m 6,16 v 1.632812 l -1.416016,-0.816406 -0.5,0.867188 1.414063,0.816406 -1.414063,0.816406 0.5,0.867188 1.416016,-0.816406 v 1.632812 h 1 v -1.632812 l 1.416016,0.816406 0.5,-0.867188 -1.414063,-0.816406 1.414063,-0.816406 -0.5,-0.867188 -1.416016,0.816406 v -1.632812 z"
     id="path2474" />
</svg>
