<svg height="24" width="24" xmlns="http://www.w3.org/2000/svg"><path style="fill:gray;fill-opacity:1" d="M13 2a6 6 0 0 0-5.648 4.016A4 4 0 1 0 7 14h11a3 3 0 0 0 .988-5.832L19 8a6 6 0 0 0-6-6zm-1 15v1.633l-1.416-.817-.5.868 1.414.816-1.414.816.5.868L12 20.367V22h1v-1.633l1.416.817.5-.868-1.414-.816 1.414-.816-.5-.868-1.416.817V17zm6-2v1.633l-1.416-.817-.5.868 1.414.816-1.414.816.5.868L18 18.367V20h1v-1.633l1.416.817.5-.868-1.414-.816 1.414-.816-.5-.868-1.416.817V15zM6 16v1.633l-1.416-.817-.5.868 1.414.816-1.414.816.5.868L6 19.367V21h1v-1.633l1.416.817.5-.868-1.414-.816 1.414-.816-.5-.868L7 17.633V16z"/></svg>