<svg height="24" width="24" xmlns="http://www.w3.org/2000/svg"><path style="fill:gray;fill-opacity:1" d="M13 2a6 6 0 0 0-5.648 4.016A4 4 0 1 0 7 14h11a3 3 0 0 0 .988-5.832L19 8a6 6 0 0 0-6-6zm0 1a5 5 0 0 1 5 5c-.005.34-.044.678-.117 1.01.039-.005.078-.008.117-.01a2 2 0 0 1 0 4H7a3 3 0 1 1 1.068-5.803 5 5 0 0 1 .27-.967A5 5 0 0 1 13 3zm-1 14v1.633l-1.416-.817-.5.868 1.414.816-1.414.816.5.868L12 20.367V22h1v-1.633l1.416.817.5-.868-1.414-.816 1.414-.816-.5-.868-1.416.817V17h-1zm6-2v1.633l-1.416-.817-.5.868 1.414.816-1.414.816.5.868L18 18.367V20h1v-1.633l1.416.817.5-.868-1.414-.816 1.414-.816-.5-.868-1.416.817V15zM6 16v1.633l-1.416-.817-.5.868 1.414.816-1.414.816.5.868L6 19.367V21h1v-1.633l1.416.817.5-.868-1.414-.816 1.414-.816-.5-.868L7 17.633V16z"/></svg>