<?xml version="1.0" encoding="UTF-8" standalone="no"?>
<svg viewBox="0 0 24 24" height="24" id="svg7384" version="1.1" width="24" sodipodi:docname="stopwatch-filled.svg" inkscape:version="1.1 (ce6663b3b7, 2021-05-25)"
   xmlns:inkscape="http://www.inkscape.org/namespaces/inkscape"
   xmlns:sodipodi="http://sodipodi.sourceforge.net/DTD/sodipodi-0.dtd"
   xmlns="http://www.w3.org/2000/svg"
   xmlns:svg="http://www.w3.org/2000/svg"
   xmlns:rdf="http://www.w3.org/1999/02/22-rdf-syntax-ns#"
   xmlns:cc="http://creativecommons.org/ns#"
   xmlns:dc="http://purl.org/dc/elements/1.1/">
   <sodipodi:namedview id="namedview24" pagecolor="#ffffff" bordercolor="#666666" borderopacity="1.0" inkscape:pageshadow="2" inkscape:pageopacity="0.0" inkscape:pagecheckerboard="0" showgrid="false" inkscape:zoom="6.9997355" inkscape:cx="-21.500812" inkscape:cy="4.6430326" inkscape:window-width="1920" inkscape:window-height="1016" inkscape:window-x="0" inkscape:window-y="27" inkscape:window-maximized="1" inkscape:current-layer="svg7384" />
   <metadata id="metadata20854">
      <rdf:RDF>
         <cc:Work rdf:about="">
            <dc:format>image/svg+xml</dc:format>
            <dc:type rdf:resource="http://purl.org/dc/dcmitype/StillImage" />
         </cc:Work>
      </rdf:RDF>
   </metadata>
   <defs id="defs7386">
      <linearGradient id="linearGradient5606" inkscape:swatch="solid">
         <stop id="stop5608" offset="0" style="stop-color:#000000;stop-opacity:1;" />
      </linearGradient>
      <linearGradient id="linearGradient4526" inkscape:swatch="solid">
         <stop id="stop4528" offset="0" style="stop-color:#ffffff;stop-opacity:1;" />
      </linearGradient>
      <linearGradient id="linearGradient3600-4" inkscape:swatch="gradient">
         <stop id="stop3602-7" offset="0" style="stop-color:#f4f4f4;stop-opacity:1" />
         <stop id="stop3604-6" offset="1" style="stop-color:#dbdbdb;stop-opacity:1" />
      </linearGradient>
   </defs>
   <path id="path112" style="color:#000000;fill:#808080;fill-rule:evenodd;stroke-linecap:square;-inkscape-stroke:none" d="M 9.75 2 C 9.3345 2 9 2.3345 9 2.75 L 9 3.25 C 9 3.6655 9.3345 4 9.75 4 L 13.25 4 C 13.6655 4 14 3.6655 14 3.25 L 14 2.75 C 14 2.3345 13.6655 2 13.25 2 L 9.75 2 z M 11.5 5 A 8.5 8.5 0 0 0 3 13.5 A 8.5 8.5 0 0 0 11.5 22 A 8.5 8.5 0 0 0 20 13.5 A 8.5 8.5 0 0 0 18.226562 8.3085938 C 18.340211 8.0541187 18.39942 7.778699 18.400391 7.5 C 18.400391 6.395431 17.50496 5.5 16.400391 5.5 C 15.986283 5.5018 15.58296 5.6321949 15.246094 5.8730469 A 8.5 8.5 0 0 0 11.5 5 z M 11.199219 8 L 11.800781 8 L 11.962891 12.074219 A 1.5 1.5 0 0 1 13 13.5 A 1.5 1.5 0 0 1 11.5 15 A 1.5 1.5 0 0 1 10 13.5 A 1.5 1.5 0 0 1 11.037109 12.076172 L 11.199219 8 z " />
</svg>
