<svg width="24" height="24" xmlns="http://www.w3.org/2000/svg"><path style="color:#000;fill:gray;fill-opacity:1;-inkscape-stroke:none" d="M19.213 3c-.226-.002-.463.002-.713.002h-13c-.25 0-.487-.002-.713 0-.677.006-1.25.048-1.76.303-.34.17-.63.462-.797.838-.166.375-.23.817-.23 1.359v10c0 .542.064.984.23 1.36.167.375.458.667.797.837.68.34 1.473.303 2.473.303h6.77l3.23 3.768 3.258-3.8c.858.004 1.607.033 2.215-.27.34-.17.63-.463.797-.839.166-.375.23-.817.23-1.359v-10c0-.542-.064-.984-.23-1.36a1.72 1.72 0 0 0-.797-.837c-.51-.255-1.083-.3-1.76-.305zM6.25 10.002h6.5a.25.25 0 0 1 .25.25v.5a.25.25 0 0 1-.25.25h-6.5a.25.25 0 0 1-.25-.25v-.5a.25.25 0 0 1 .25-.25zm7.975 0h1.525a.25.25 0 0 1 .25.25v.5a.25.25 0 0 1-.25.25h-1.5a.25.25 0 0 1-.25-.25v-.5a.25.25 0 0 1 .225-.25zm3 0h.525a.25.25 0 0 1 .25.25v.5a.25.25 0 0 1-.25.25h-.5a.25.25 0 0 1-.25-.25v-.5a.25.25 0 0 1 .225-.25zm-11 2h4.525a.25.25 0 0 1 .25.25v.5a.25.25 0 0 1-.25.25h-4.5a.25.25 0 0 1-.25-.25v-.5a.25.25 0 0 1 .225-.25zm6.025 0h5.5a.25.25 0 0 1 .25.25v.5a.25.25 0 0 1-.25.25h-5.5a.25.25 0 0 1-.25-.25v-.5a.25.25 0 0 1 .25-.25zm-6.025 2H7.75a.25.25 0 0 1 .25.25v.5a.25.25 0 0 1-.25.25h-1.5a.25.25 0 0 1-.25-.25v-.5a.25.25 0 0 1 .225-.25zm3 0h4.525a.25.25 0 0 1 .25.25v.5a.25.25 0 0 1-.25.25h-4.5a.25.25 0 0 1-.25-.25v-.5a.25.25 0 0 1 .225-.25zm6 0h2.525a.25.25 0 0 1 .25.25v.5a.25.25 0 0 1-.25.25h-2.5a.25.25 0 0 1-.25-.25v-.5a.25.25 0 0 1 .225-.25z"/></svg>