<svg height="24" width="24" xmlns="http://www.w3.org/2000/svg"><path style="fill:gray;stroke-width:.5;stroke-linecap:square;stroke-linejoin:round;fill-opacity:1" d="M11 2v3h1V2h-1zM7.184 3.023l-.868.5 1.5 2.598.868-.5-1.5-2.598zm8.632 0-1.5 2.598.868.5 1.5-2.598-.868-.5zM11.5 6A5.5 5.5 0 0 0 6 11.5a5.5 5.5 0 0 0 5.5 5.5 5.5 5.5 0 0 0 5.5-5.5A5.5 5.5 0 0 0 11.5 6zm-7.977.316-.5.868 2.598 1.5.5-.868-2.598-1.5zm15.954 0-2.598 1.5.5.868 2.598-1.5-.5-.868zM2 11v1h3v-1H2zm16 0v1h3v-1h-3zM5.621 14.316l-2.598 1.5.5.868 2.598-1.5-.5-.868zm11.758 0-.5.868 2.598 1.5.5-.868-2.598-1.5zM7.816 16.88l-1.5 2.598.868.5 1.5-2.598-.868-.5zm7.368 0-.868.5 1.5 2.598.868-.5-1.5-2.598zM11 18v3h1v-3h-1z"/></svg>