<svg height="24" width="24" xmlns="http://www.w3.org/2000/svg"><path style="opacity:1;vector-effect:none;fill:gray;fill-opacity:1;stroke:none;stroke-width:1.25;stroke-linecap:round;stroke-linejoin:round;stroke-miterlimit:4;stroke-dasharray:none;stroke-dashoffset:0;stroke-opacity:1" d="M6.486 2c-1.077.002-1.974.281-2.59.896C3.28 3.514 3 4.416 3 5.5v13c0 1.083.279 1.986.896 2.604.618.617 1.52.896 2.604.896h2c1.083 0 1.986-.279 2.604-.896.617-.618.896-1.52.896-2.604v-5.25c1.25.625 3.882 2.938 7.5 3.75-1.141-4.364-4.375-6.875-7.5-8.75V7h3.75v-.307c0-1.385.558-2.193 1.25-2.193s1.25.808 1.25 2.193V7c1.385 0 2.5-1.74 2.5-3.125S19.635 2 18.25 2H6.486zM6.5 3h2c.917 0 1.514.221 1.896.604.383.382.604.98.604 1.896v13c0 .917-.221 1.514-.604 1.896-.382.383-.98.604-1.896.604h-2c-.917 0-1.514-.221-1.896-.604C4.22 20.014 4 19.416 4 18.5v-13c0-.917.221-1.514.604-1.896C4.986 3.22 5.584 3 6.5 3zm1 2A1.5 1.5 0 0 0 6 6.5 1.5 1.5 0 0 0 7.5 8 1.5 1.5 0 0 0 9 6.5 1.5 1.5 0 0 0 7.5 5zm0 1a.5.5 0 0 1 .5.5.5.5 0 0 1-.5.5.5.5 0 0 1-.5-.5.5.5 0 0 1 .5-.5zm7.625 6c.345 0 .87.596 1.094.86 1.569 2.801-.69.67-1.719-.235 0-.345.28-.625.625-.625z"/></svg>