<svg height="24" width="24" xmlns="http://www.w3.org/2000/svg"><path style="opacity:1;vector-effect:none;fill:gray;fill-opacity:1;stroke:none;stroke-width:1.25;stroke-linecap:round;stroke-linejoin:round;stroke-miterlimit:4;stroke-dasharray:none;stroke-dashoffset:0;stroke-opacity:1" d="M6.486 2c-1.077.002-1.974.281-2.59.896C3.28 3.514 3 4.416 3 5.5v13c0 1.083.279 1.986.896 2.604.618.617 1.52.896 2.604.896h1.986c1.084 0 1.986-.279 2.604-.896.618-.618.896-1.52.896-2.604v-13c0-1.083-.278-1.986-.896-2.604-.615-.615-1.513-.894-2.59-.896H6.486zm5.104 0c.07.06.14.123.207.19.856.855 1.19 2.055 1.19 3.31V7h2.763v-.307c0-1.385.558-2.193 1.25-2.193s1.25.808 1.25 2.193V7c1.385 0 2.5-1.74 2.5-3.125S19.635 2 18.25 2h-6.66zM7.5 5A1.5 1.5 0 0 1 9 6.5 1.5 1.5 0 0 1 7.5 8 1.5 1.5 0 0 1 6 6.5 1.5 1.5 0 0 1 7.5 5zm-.025 1A.5.5 0 1 0 7.5 6h-.025zm5.511 2.865v4.989c1.433.943 3.66 2.506 6.514 3.146-1.021-3.905-3.719-6.325-6.514-8.135zM15.125 12c.345 0 .87.596 1.094.86 1.569 2.801-.69.67-1.719-.235 0-.345.28-.625.625-.625z"/></svg>