<?xml version="1.0" encoding="UTF-8" standalone="no"?>
<svg
   width="24"
   height="24"
   version="1.1"
   id="svg1"
   sodipodi:docname="character-map.svg"
   inkscape:version="1.3 (1:1.3+202307231459+0e150ed6c4)"
   xmlns:inkscape="http://www.inkscape.org/namespaces/inkscape"
   xmlns:sodipodi="http://sodipodi.sourceforge.net/DTD/sodipodi-0.dtd"
   xmlns="http://www.w3.org/2000/svg"
   xmlns:svg="http://www.w3.org/2000/svg">
  <defs
     id="defs1" />
  <sodipodi:namedview
     id="namedview1"
     pagecolor="#ffffff"
     bordercolor="#666666"
     borderopacity="1.0"
     inkscape:showpageshadow="2"
     inkscape:pageopacity="0.0"
     inkscape:pagecheckerboard="0"
     inkscape:deskcolor="#d1d1d1"
     showgrid="true"
     inkscape:zoom="16.833333"
     inkscape:cx="5.4059407"
     inkscape:cy="9.0297031"
     inkscape:window-width="1920"
     inkscape:window-height="1011"
     inkscape:window-x="0"
     inkscape:window-y="0"
     inkscape:window-maximized="1"
     inkscape:current-layer="svg1">
    <inkscape:grid
       id="grid1"
       units="px"
       originx="0"
       originy="0"
       spacingx="1"
       spacingy="1"
       empcolor="#0099e5"
       empopacity="0.30196078"
       color="#0099e5"
       opacity="0.14901961"
       empspacing="5"
       dotted="false"
       gridanglex="30"
       gridanglez="30"
       visible="true" />
    <sodipodi:guide
       position="-2,12"
       orientation="0,24"
       id="guide2"
       inkscape:locked="false" />
    <sodipodi:guide
       position="12,30"
       orientation="-24,0"
       id="guide5"
       inkscape:locked="false" />
    <sodipodi:guide
       position="5,22"
       orientation="0,24"
       id="guide6"
       inkscape:locked="false" />
    <sodipodi:guide
       position="22,9.5537558"
       orientation="24,0"
       id="guide7"
       inkscape:locked="false" />
    <sodipodi:guide
       position="8,2"
       orientation="0,-24"
       id="guide8"
       inkscape:locked="false" />
    <sodipodi:guide
       position="2,20"
       orientation="-24,0"
       id="guide9"
       inkscape:locked="false" />
    <inkscape:grid
       id="grid9"
       units="px"
       originx="0"
       originy="0"
       spacingx="0.5"
       spacingy="0.5"
       empcolor="#0099e5"
       empopacity="0.30196078"
       color="#0099e5"
       opacity="0.14901961"
       empspacing="10"
       dotted="true"
       gridanglex="30"
       gridanglez="30"
       visible="true" />
  </sodipodi:namedview>
  <path
     style="color:#000000;fill:#808080;stroke-linejoin:round;-inkscape-stroke:none"
     d="m 18,2 v 4.502 c -0.432045,-0.3261154 -0.958692,-0.5023669 -1.5,-0.502 c -1.378889,0.00439 -2.495609,1.1211112 -2.5,2.5 c 0,1.375 1.125,2.5 2.5,2.5 c 1.375,0 2.5,-1.125 2.5,-2.5 v -4.5 h 3 v -2 z m -1.5,5 c 0.834,0 1.5,0.666 1.5,1.5 c 0,0.834 -0.666,1.5 -1.5,1.5 c -0.834,0 -1.5,-0.666 -1.5,-1.5 c 0,-0.834 0.666,-1.5 1.5,-1.5 z"
     id="path2"
     sodipodi:nodetypes="ccccssccccsssss" />
  <path
     style="color:#000000;fill:#808080;stroke-linecap:round;stroke-linejoin:round;-inkscape-stroke:none"
     d="m 6.5,2 c -0.7111104,0 -1.2874953,0.286076 -1.5605469,0.7597656 c -0.2730516,0.4736897 -0.2546086,1.0105431 -0.1542969,1.5117188 c 0.057156,0.2855613 0.1859613,0.5330661 0.2910157,0.7988281 c -0.2673237,-0.1044184 -0.5176296,-0.2323948 -0.8046875,-0.2890625 c -0.5017343,-0.099047 -1.0380332,-0.1169614 -1.5117188,0.15625 c -0.4736855,0.2732114 -0.7597656,0.8513896 -0.7597656,1.5625 c 0,0.7111104 0.2856996,1.2875998 0.7597656,1.5605469 c 0.474066,0.2729471 1.0115187,0.2547275 1.5136719,0.1542969 c 0.286297,-0.05726 0.5358834,-0.1858055 0.8027344,-0.2910157 c -0.1052102,0.266851 -0.2337562,0.5164374 -0.2910157,0.8027344 c -0.1004306,0.5021531 -0.1186502,1.0396059 0.1542969,1.5136715 c 0.2729471,0.474066 0.8494365,0.759766 1.5605469,0.759766 c 0.7111104,0 1.2892886,-0.28608 1.5625,-0.759766 c 0.2732114,-0.4736852 0.2552966,-1.0099841 0.15625,-1.5117184 c -0.056668,-0.2870579 -0.1846441,-0.5373638 -0.2890625,-0.8046875 c 0.265762,0.1050544 0.5132667,0.2338597 0.7988281,0.2910157 c 0.5011757,0.1003117 1.0380291,0.1187547 1.5117184,-0.1542969 c 0.47369,-0.2730516 0.759766,-0.8494365 0.759766,-1.5605469 c 0,-0.7111104 -0.286457,-1.2872313 -0.759766,-1.5605469 c -0.4733085,-0.2733155 -1.0090096,-0.2571296 -1.5097652,-0.1582031 c -0.2856091,0.056423 -0.5331817,0.1831871 -0.7988282,0.2871094 c 0.1039223,-0.2656464 0.2306861,-0.5132191 0.2871094,-0.7988282 c 0.098926,-0.5007555 0.1151125,-1.0364568 -0.1582031,-1.5097656 c -0.2733156,-0.4733088 -0.8494365,-0.7597656 -1.5605469,-0.7597656 z m 0,1 c 0.4888884,0 0.6117118,0.1149917 0.6953125,0.2597656 c 0.083601,0.1447739 0.1144223,0.4448294 0.041016,0.8164063 c -0.073407,0.3715768 -0.2364508,0.7912419 -0.4140625,1.140625 c -0.1233558,0.2426554 -0.2206358,0.3614383 -0.3164062,0.4921875 c -0.097455,-0.130397 -0.197116,-0.2490533 -0.3222657,-0.4921875 c -0.179773,-0.3492537 -0.3436139,-0.771088 -0.4179687,-1.1425782 c -0.074355,-0.3714901 -0.044219,-0.6719298 0.039063,-0.8164062 c 0.083281,-0.1444764 0.2064241,-0.2578125 0.6953116,-0.2578125 z m -2.421875,2.7636719 c 0.3729315,0.07362 0.7959988,0.2377312 1.1484375,0.4160156 c 0.2401537,0.121484 0.3569144,0.2171261 0.4921875,0.3144531 c -0.1349068,0.09905 -0.253283,0.1969464 -0.4941406,0.3203125 c -0.3523111,0.180452 -0.7755916,0.3453527 -1.1484375,0.4199219 c -0.372846,0.074569 -0.6717229,0.04424 -0.8164063,-0.039063 c -0.1446834,-0.083303 -0.2597656,-0.2064241 -0.2597656,-0.6953125 c 0,-0.4888884 0.1147851,-0.6116909 0.2597656,-0.6953125 c 0.1449805,-0.083622 0.4454279,-0.1146355 0.8183594,-0.041015 z m 4.8457031,0 c 0.3715769,-0.073407 0.6716323,-0.042585 0.8164063,0.041016 c 0.1447739,0.083601 0.2597656,0.2064241 0.2597656,0.6953125 c 0,0.4888884 -0.1133361,0.6120311 -0.2578125,0.6953125 c -0.1444764,0.083281 -0.4449161,0.1134173 -0.8164062,0.039063 c -0.3714902,-0.074355 -0.7933245,-0.2381957 -1.1425782,-0.4179688 c -0.2431342,-0.1251496 -0.3617905,-0.2248105 -0.4921875,-0.3222656 c 0.1307492,-0.09577 0.2495321,-0.1930504 0.4921875,-0.3164062 c 0.3493831,-0.1776117 0.7690481,-0.3406559 1.140625,-0.4140634 z m -2.4179687,1.5175781 c 0.097327,0.1352731 0.1929691,0.2520338 0.3144531,0.4921875 c 0.1782844,0.3524387 0.3423958,0.7755061 0.4160156,1.1484375 c 0.07362,0.3729314 0.042606,0.6733789 -0.041016,0.8183594 c -0.083621,0.1449804 -0.2064241,0.2597656 -0.6953125,0.2597656 c -0.4888884,0 -0.61201,-0.1150823 -0.6953125,-0.2597656 c -0.083303,-0.1446834 -0.1136317,-0.4435604 -0.039063,-0.8164063 c 0.074569,-0.3728459 0.2394699,-0.7961264 0.4199219,-1.1484375 c 0.1233661,-0.2408576 0.2212623,-0.3592338 0.3203134,-0.4941406 z"
     id="path17"
     sodipodi:nodetypes="ssscssssscssssscssssscssssssscsssssscsssssssssssscsscsssssssc" />
  <path
     style="color:#000000;fill:none;stroke:#808080;stroke-width:1;-inkscape-stroke:none"
     d="m 15.091116,13.534724 c -0.716027,0.152997 -1.192908,0.781463 -1.319543,1.601529 c -0.253269,1.640131 0.740978,4.132811 3.58767,6.258767 l 0.140757,0.10498 l 0.140758,-0.10498 c 2.846691,-2.125956 3.840938,-4.618636 3.587198,-6.258767 c -0.126164,-0.819595 -0.602574,-1.448532 -1.319072,-1.601529 c -0.676013,-0.144053 -1.507377,0.361064 -2.408884,1.098276 c -0.901507,-0.737212 -1.732871,-1.242329 -2.408884,-1.098276 z"
     id="path1-7"
     sodipodi:nodetypes="csccccccc" />
  <path
     d="m 3.6071428,13 c -0.8867207,0.0021 -1.6050224,0.720422 -1.6071428,1.607143 v 5.785714 c 0,0.884572 0.7225714,1.607143 1.6071428,1.607143 h 5.7857143 c 0.8845719,0 1.6071429,-0.722571 1.6071429,-1.607143 v -5.785714 c 0,-0.884572 -0.722571,-1.607143 -1.6071429,-1.607143 z m 0.3571429,1 h 5.0714284 c 0.54,0 0.9642859,0.424286 0.9642859,0.964286 v 5.071428 c 0,0.54 -0.4242859,0.964286 -0.9642859,0.964286 h -5.0714284 c -0.54,0 -0.9642857,-0.424286 -0.9642857,-0.964286 v -5.071428 c 0,-0.54 0.4242857,-0.964286 0.9642857,-0.964286 z"
     style="line-height:normal;font-variant-ligatures:normal;font-variant-position:normal;font-variant-caps:normal;font-variant-numeric:normal;font-variant-alternates:normal;font-feature-settings:normal;text-indent:0;text-align:start;text-decoration:none;text-decoration-line:none;text-decoration-style:solid;text-decoration-color:#000000;text-transform:none;text-orientation:mixed;shape-padding:0;display:inline;isolation:auto;mix-blend-mode:normal;fill:#808080;fill-opacity:1;stroke-width:1;marker:none"
     color="#000000"
     font-weight="400"
     font-family="sans-serif"
     overflow="visible"
     fill="#474747"
     id="path2-2"
     sodipodi:nodetypes="ccsssssscsssssssss" />
  <path
     style="display:inline;fill:#808080;fill-rule:evenodd;stroke-width:0.5;stroke-linecap:square"
     d="m 8.9619178,15.149419 l 0.7070272,0.707027 l -3.9873022,3.987302 l -2.3984357,-2.399413 l 0.7070272,-0.707027 l 1.6914085,1.691402 z"
     id="path1489" />
</svg>
