<?xml version="1.0" encoding="UTF-8" standalone="no"?>
<svg
   width="24"
   height="24"
   version="1.1"
   id="svg1"
   sodipodi:docname="character-map-filled.svg"
   inkscape:version="1.3 (1:1.3+202307231459+0e150ed6c4)"
   xmlns:inkscape="http://www.inkscape.org/namespaces/inkscape"
   xmlns:sodipodi="http://sodipodi.sourceforge.net/DTD/sodipodi-0.dtd"
   xmlns="http://www.w3.org/2000/svg"
   xmlns:svg="http://www.w3.org/2000/svg">
  <defs
     id="defs1" />
  <sodipodi:namedview
     id="namedview1"
     pagecolor="#ffffff"
     bordercolor="#666666"
     borderopacity="1.0"
     inkscape:showpageshadow="2"
     inkscape:pageopacity="0.0"
     inkscape:pagecheckerboard="0"
     inkscape:deskcolor="#d1d1d1"
     showgrid="true"
     inkscape:zoom="16.833333"
     inkscape:cx="5.4059407"
     inkscape:cy="9.0297031"
     inkscape:window-width="1920"
     inkscape:window-height="1011"
     inkscape:window-x="0"
     inkscape:window-y="0"
     inkscape:window-maximized="1"
     inkscape:current-layer="svg1">
    <inkscape:grid
       id="grid1"
       units="px"
       originx="0"
       originy="0"
       spacingx="1"
       spacingy="1"
       empcolor="#0099e5"
       empopacity="0.30196078"
       color="#0099e5"
       opacity="0.14901961"
       empspacing="5"
       dotted="false"
       gridanglex="30"
       gridanglez="30"
       visible="true" />
    <sodipodi:guide
       position="-2,12"
       orientation="0,24"
       id="guide2"
       inkscape:locked="false" />
    <sodipodi:guide
       position="12,30"
       orientation="-24,0"
       id="guide5"
       inkscape:locked="false" />
    <sodipodi:guide
       position="5,22"
       orientation="0,24"
       id="guide6"
       inkscape:locked="false" />
    <sodipodi:guide
       position="22,9.5537558"
       orientation="24,0"
       id="guide7"
       inkscape:locked="false" />
    <sodipodi:guide
       position="8,2"
       orientation="0,-24"
       id="guide8"
       inkscape:locked="false" />
    <sodipodi:guide
       position="2,20"
       orientation="-24,0"
       id="guide9"
       inkscape:locked="false" />
    <inkscape:grid
       id="grid9"
       units="px"
       originx="0"
       originy="0"
       spacingx="0.5"
       spacingy="0.5"
       empcolor="#0099e5"
       empopacity="0.30196078"
       color="#0099e5"
       opacity="0.14901961"
       empspacing="10"
       dotted="true"
       gridanglex="30"
       gridanglez="30"
       visible="true" />
  </sodipodi:namedview>
  <path
     id="path2-2"
     style="line-height:normal;font-variant-ligatures:normal;font-variant-position:normal;font-variant-caps:normal;font-variant-numeric:normal;font-variant-alternates:normal;font-feature-settings:normal;text-indent:0;text-align:start;text-decoration:none;text-decoration-line:none;text-decoration-style:solid;text-decoration-color:#000000;text-transform:none;text-orientation:mixed;shape-padding:0;display:inline;isolation:auto;mix-blend-mode:normal;fill:#808080;fill-opacity:1;stroke-width:1;marker:none"
     d="M 3.6074219 13 C 2.7207021 13.0021 2.0021204 13.720702 2 14.607422 L 2 20.392578 C 2 21.277149 2.7228514 22 3.6074219 22 L 9.3925781 22 C 10.277149 22 11 21.277149 11 20.392578 L 11 14.607422 C 11 13.722851 10.277149 13 9.3925781 13 L 3.6074219 13 z M 8.9628906 15.150391 L 9.6679688 15.857422 L 5.6816406 19.84375 L 3.2832031 17.443359 L 3.9902344 16.738281 L 5.6816406 18.427734 L 8.9628906 15.150391 z " />
  <path
     id="path6"
     style="color:#000000;fill:#808080;stroke-linejoin:round;-inkscape-stroke:none"
     d="M 18 2 L 18 6.5019531 C 17.567955 6.1758381 17.041307 5.9996331 16.5 6 C 15.121112 6.00439 14.004391 7.1211126 14 8.5 C 14 9.8749986 15.125001 11 16.5 11 C 17.874999 11 19 9.8749986 19 8.5 L 19 4 L 22 4 L 22 2 L 18 2 z " />
  <path
     id="path5"
     style="color:#000000;fill:#808080;-inkscape-stroke:none"
     d="M 15.357422 13.009766 C 15.234617 13.008223 15.110172 13.018532 14.986328 13.044922 C 14.041047 13.246905 13.426992 14.091454 13.277344 15.060547 C 12.982295 16.971235 14.108452 19.590249 17.060547 21.794922 L 17.5 22.123047 L 17.939453 21.794922 C 20.891547 19.590249 22.01827 16.97134 21.722656 15.060547 C 21.573548 14.0919 20.959571 13.246904 20.013672 13.044922 C 19.518295 12.939361 19.028444 13.076052 18.566406 13.304688 C 18.210003 13.481049 17.856458 13.757114 17.5 14.03125 C 17.143542 13.757114 16.789997 13.481049 16.433594 13.304688 C 16.087066 13.133212 15.725837 13.014394 15.357422 13.009766 z " />
  <path
     style="fill:#808080;fill-opacity:1;stroke:none;stroke-width:1;stroke-linecap:round;stroke-linejoin:round"
     d="m 6.4999996,2.0000006 c -2.6999998,0 -0.9,3.5999997 -0.2280001,4.2539996 c -0.6719999,-0.6539999 -4.2719995,-2.4539998 -4.2719995,0.246 c 0,2.6999997 3.5999996,0.8999999 4.2749996,0.225 c -0.675,0.6749999 -2.4749998,4.2749988 0.225,4.2749988 c 2.6999997,0 0.8999999,-3.5999989 0.246,-4.2719988 c 0.6539999,0.6719999 4.2539994,2.4719997 4.2539994,-0.228 c 0,-2.6999998 -3.5999995,-0.8999999 -4.2509995,-0.249 c 0.651,-0.6509999 2.4509998,-4.2509996 -0.2489999,-4.2509996 z"
     id="path17" />
</svg>
