<svg height="24" width="24" xmlns="http://www.w3.org/2000/svg"><path style="color:#000;fill:gray;stroke-linecap:square;-inkscape-stroke:none;fill-opacity:1" d="M6.787 6c-.677.006-1.25.048-1.76.303-.34.17-.63.462-.797.838C4.064 7.516 4 7.958 4 8.5V17H2v1h3V8.5c0-.458.061-.766.145-.953a.615.615 0 0 1 .328-.35C5.793 7.037 6.5 7 7.5 7h8c1 0 1.706.037 2.027.197.16.08.245.163.328.35.084.187.145.495.145.953V18h3v-1h-2V8.5c0-.542-.064-.984-.23-1.36a1.72 1.72 0 0 0-.797-.837C17.293 5.963 16.5 6 15.5 6h-8c-.25 0-.487-.002-.713 0zM11 10v2H9v1h2v2h1v-2h2v-1h-2v-2h-1z"/></svg>