<svg height="24" width="24" xmlns="http://www.w3.org/2000/svg"><path style="color:#000;fill:gray;fill-opacity:1;-inkscape-stroke:none" d="M2 16.213c.006.677.048 1.25.303 1.76.17.34.462.63.838.797.375.166.817.23 1.359.23h15c.542 0 .984-.064 1.36-.23a1.72 1.72 0 0 0 .837-.797c.34-.68.303-1.473.303-2.473v-7c0-1 .037-1.794-.303-2.473a1.72 1.72 0 0 0-.838-.797C20.484 5.064 20.042 5 19.5 5h-15c-.542 0-.984.064-1.36.23a1.72 1.72 0 0 0-.837.797C1.963 6.707 2 7.5 2 8.5v7c0 .25-.002.487 0 .713zM5 18V6h14v12z"/></svg>