<svg height="24" width="24" xmlns="http://www.w3.org/2000/svg"><path style="color:#000;fill:gray;stroke-linejoin:round;-inkscape-stroke:none" d="M5.5 2c-1.083 0-1.986.279-2.604.896C2.28 3.514 2 4.416 2 5.5v4c0 1-.007 1.603.303 2.223.31.619.843 1.13 1.843 2.13l6 6c.79.79 1.529 1.272 2.354 1.272.825 0 1.564-.482 2.354-1.271l5-5c.789-.79 1.271-1.529 1.271-2.354 0-.825-.482-1.564-1.271-2.354l-6-6c-1-1-1.512-1.534-2.131-1.843C11.103 1.993 10.5 2 9.5 2h-4zm0 1h4c1 0 1.397.007 1.777.197.381.19.87.657 1.87 1.657l6 6c.71.71.978 1.221.978 1.646 0 .425-.268.936-.979 1.646l-5 5c-.71.711-1.221.979-1.646.979-.425 0-.936-.268-1.646-.979l-6-6c-1-1-1.466-1.488-1.657-1.869C3.007 10.897 3 10.5 3 9.5v-4c0-.917.221-1.514.604-1.896C3.986 3.22 4.584 3 5.5 3zm1 2A1.5 1.5 0 0 0 5 6.5 1.5 1.5 0 0 0 6.5 8 1.5 1.5 0 0 0 8 6.5 1.5 1.5 0 0 0 6.5 5z"/></svg>