<svg height="24" width="24" xmlns="http://www.w3.org/2000/svg"><path style="color:#000;fill:gray;stroke-linecap:square;stroke-linejoin:round;-inkscape-stroke:none" d="M9 3.293 8.293 4l.353.354L11.293 7H5.5c-.655 0-1.255.194-1.715.54C3.325 7.883 3 8.405 3 9v9c0 .594.326 1.116.785 1.46.46.346 1.06.54 1.715.54h13c.655 0 1.255-.194 1.715-.54.46-.344.785-.866.785-1.46V9c0-.594-.326-1.116-.785-1.46-.46-.346-1.06-.54-1.715-.54h-5.793l2.647-2.646.353-.354L15 3.293l-.354.353L12 6.293 9.354 3.646 9 3.293zM5.5 8h11c.453 0 .852.14 1.115.338.264.197.385.425.385.662v9c0 .237-.121.465-.385.662-.263.198-.662.338-1.115.338h-11c-.453 0-.852-.14-1.115-.338C4.12 18.465 4 18.237 4 18V9c0-.237.121-.465.385-.662C4.648 8.14 5.047 8 5.5 8zm14 2a.5.5 0 0 1 .5.5.5.5 0 0 1-.5.5.5.5 0 0 1-.5-.5.5.5 0 0 1 .5-.5zm0 2a.5.5 0 0 1 .5.5.5.5 0 0 1-.5.5.5.5 0 0 1-.5-.5.5.5 0 0 1 .5-.5z"/></svg>