<?xml version="1.0" encoding="UTF-8" standalone="no"?>
<svg
   viewBox="0 1 24 24"
   height="24"
   width="24"
   version="1.1"
   id="svg8"
   sodipodi:docname="terminal.svg"
   inkscape:version="1.2 (1:1.2.1+202207142221+cd75a1ee6d)"
   xmlns:inkscape="http://www.inkscape.org/namespaces/inkscape"
   xmlns:sodipodi="http://sodipodi.sourceforge.net/DTD/sodipodi-0.dtd"
   xmlns="http://www.w3.org/2000/svg"
   xmlns:svg="http://www.w3.org/2000/svg">
  <defs
     id="defs12" />
  <sodipodi:namedview
     id="namedview10"
     pagecolor="#ffffff"
     bordercolor="#666666"
     borderopacity="1.0"
     inkscape:pageshadow="2"
     inkscape:pageopacity="0.0"
     inkscape:pagecheckerboard="0"
     showgrid="true"
     inkscape:snap-page="true"
     inkscape:zoom="19.79899"
     inkscape:cx="14.243151"
     inkscape:cy="8.6873118"
     inkscape:window-width="1920"
     inkscape:window-height="1043"
     inkscape:window-x="0"
     inkscape:window-y="0"
     inkscape:window-maximized="1"
     inkscape:current-layer="svg8"
     inkscape:showpageshadow="2"
     inkscape:deskcolor="#d1d1d1">
    <inkscape:grid
       type="xygrid"
       id="grid823" />
    <inkscape:grid
       type="xygrid"
       id="grid825"
       dotted="true"
       spacingx="0.5"
       spacingy="0.5"
       empspacing="10" />
  </sodipodi:namedview>
  <path
     id="path860"
     style="color:#000000;fill:#808080"
     d="m 5.4550781,4.0014637 c -0.9685779,0.00898 -1.7178208,0.07327 -2.3378906,0.4453125 -0.4133799,0.2480281 -0.7199382,0.655909 -0.8886719,1.1621094 -0.1687333,0.5062004 -0.2285156,1.1148035 -0.2285156,1.8925781 v 9.0000003 c 0,0.777774 0.059782,1.386379 0.2285156,1.892578 0.1687337,0.506202 0.475292,0.914081 0.8886719,1.16211 0.8267598,0.496055 1.8828185,0.445312 3.3828125,0.445312 h 11 c 1.499995,0 2.556053,0.05074 3.382812,-0.445312 0.413382,-0.248029 0.719941,-0.655908 0.888672,-1.16211 0.168734,-0.506199 0.228516,-1.114804 0.228516,-1.892578 v -9.0000003 c 0,-0.7777746 -0.05978,-1.3863777 -0.228516,-1.8925781 -0.168731,-0.5062004 -0.47529,-0.9140813 -0.888672,-1.1621094 -0.826758,-0.4960558 -1.882817,-0.4453125 -3.382812,-0.4453125 h -11 c -0.3749984,0 -0.7220625,-0.00299 -1.0449219,0 z m 1.0449219,1 h 11 c 1.499995,0 2.443951,0.050747 2.867188,0.3046875 0.211615,0.1269707 0.342562,0.2815946 0.455078,0.6191406 0.112515,0.3375464 0.177734,0.8539525 0.177734,1.5761719 v 9.0000003 c 0,0.722218 -0.06522,1.238625 -0.177734,1.576172 -0.112516,0.337547 -0.243462,0.492173 -0.455078,0.61914 -0.423236,0.253942 -1.367192,0.304688 -2.867188,0.304688 h -11 c -1.499994,0 -2.4439522,-0.05075 -2.8671875,-0.304688 -0.2116177,-0.126967 -0.3425627,-0.281593 -0.4550781,-0.61914 -0.1125155,-0.337547 -0.1777344,-0.853954 -0.1777344,-1.576172 v -9.0000003 c 0,-0.7222194 0.065219,-1.2386255 0.1777344,-1.5761719 0.1125154,-0.337546 0.2434604,-0.4921699 0.4550781,-0.6191406 0.4232353,-0.253941 1.3671935,-0.3046875 2.8671875,-0.3046875 z m -0.019531,3 a 0.5,0.5 0 0 0 -0.3964844,0.2226562 0.5,0.5 0 0 0 0.1386718,0.6933594 l 2.375,1.5839847 -2.375,1.583984 a 0.5,0.5 0 0 0 -0.1386718,0.69336 0.5,0.5 0 0 0 0.6933594,0.138672 l 3,-2 a 0.50005,0.50005 0 0 0 0,-0.832032 l -3,-1.9999999 a 0.5,0.5 0 0 0 -0.296875,-0.083984 z m 3.5195312,5.0000003 v 1 h 4 v -1 z" />
</svg>
