<svg height="24" width="24" xmlns="http://www.w3.org/2000/svg"><path style="color:#000;fill:gray" d="M5.455 4.002c-.968.009-1.718.073-2.338.445-.413.248-.72.656-.888 1.162C2.059 6.116 2 6.724 2 7.502v9c0 .778.06 1.386.229 1.893.168.506.475.914.888 1.162.827.496 1.883.445 3.383.445h11c1.5 0 2.556.05 3.383-.445.413-.248.72-.656.888-1.162.17-.507.229-1.115.229-1.893v-9c0-.778-.06-1.386-.229-1.893-.168-.506-.475-.914-.888-1.162-.827-.496-1.883-.445-3.383-.445h-11c-.375 0-.722-.003-1.045 0zm1.025 4a.5.5 0 0 1 .297.084l3 2a.5.5 0 0 1 0 .832l-3 2a.5.5 0 0 1-.693-.139.5.5 0 0 1 .139-.693l2.375-1.584-2.375-1.584a.5.5 0 0 1-.139-.693.5.5 0 0 1 .396-.223zm3.52 5h4v1h-4v-1z"/></svg>