<svg height="24" width="24" xmlns="http://www.w3.org/2000/svg"><path style="color:#000;fill:gray;fill-opacity:1;-inkscape-stroke:none" d="M5.787 2c-.677.006-1.25.048-1.76.303-.34.17-.63.462-.797.838C3.064 3.516 3 3.958 3 4.5v15c0 .542.064.984.23 1.36.167.375.458.668.797.837.68.34 1.473.303 2.473.303h10c1 0 1.794.037 2.473-.303.34-.17.63-.462.797-.838.166-.375.23-.817.23-1.359v-15c0-.542-.064-.984-.23-1.36a1.72 1.72 0 0 0-.797-.837C18.293 1.963 17.5 2 16.5 2h-10c-.25 0-.487-.002-.713 0zM6 6h11v1H6zm0 2h7v1H6zm10.125 1 3.125 3.125L12.375 19 8 20.25l1.25-4.375zM6 10h4v1H6zm3.875 6.5L9.25 19l2.5-.625z"/></svg>