<svg width="24" height="24" xmlns="http://www.w3.org/2000/svg"><path style="fill:gray;fill-opacity:1" d="M3.5 3c-.277 0-.5.212-.5.475v.05c0 .263.223.475.5.475h1a.499.499 0 1 0 0 1h1a.499.499 0 1 0 0 1h1c-.277 0-.5.212-.5.475v.05c0 .263.223.475.5.475h-2c-.277 0-.5.212-.5.475v.05c0 .263.223.475.5.475h4c-.277 0-.5.212-.5.475v.05c0 .263.223.475.5.475h-1c-.277 0-.5.212-.5.475v.05c0 .263.223.475.5.475h-1c-.277 0-.5.212-.5.475v.05c0 .263.223.475.5.475h2c-.277 0-.5.212-.5.475v.05c0 .263.223.475.5.475h-1c-.277 0-.5.212-.5.475v.05c0 .263.223.475.5.475h2c-.277 0-.5.212-.5.475v.05c0 .263.223.475.5.475h-1c-.277 0-.5.212-.5.475v.05c0 .263.223.475.5.475h2c-.277 0-.5.212-.5.475v.05c0 .263.223.475.5.475-.277 0-.5.212-.5.475v.05c0 .263.223.475.5.475h-1c-.277 0-.5.212-.5.475v.05c0 .263.223.475.5.475h1c-.277 0-.5.211-.5.473v.054c0 .254.21.46.475.473a.485.485 0 0 0-.475.473v.054c0 .262.223.473.5.473h1c.277 0 .5-.211.5-.473v-.054c0-.254-.21-.46-.475-.473h.975c.277 0 .5-.211.5-.473v-.054a.486.486 0 0 0-.5-.473h-1c.277 0 .5-.212.5-.475v-.05a.487.487 0 0 0-.5-.475h1c.277 0 .5-.212.5-.475v-.05a.487.487 0 0 0-.5-.475h1c.277 0 .5-.212.5-.475v-.05a.487.487 0 0 0-.5-.475h-1c.277 0 .5-.212.5-.475v-.05a.487.487 0 0 0-.5-.475h1c.277 0 .5-.212.5-.475v-.05a.487.487 0 0 0-.5-.475h-1c.277 0 .5-.212.5-.475v-.05a.487.487 0 0 0-.5-.475h1c.277 0 .5-.212.5-.475v-.05a.487.487 0 0 0-.5-.475h1c.277 0 .5-.212.5-.475v-.05a.487.487 0 0 0-.5-.475h1c.277 0 .5-.212.5-.475v-.05A.487.487 0 0 0 15.5 9h1c.277 0 .5-.212.5-.475v-.05A.487.487 0 0 0 16.5 8h1c.277 0 .5-.212.5-.475v-.05A.487.487 0 0 0 17.5 7h2c.277 0 .5-.212.5-.475v-.05A.487.487 0 0 0 19.5 6h-2a.499.499 0 1 0 0-1h-1a.499.499 0 1 0 0-1h1c.277 0 .5-.212.5-.475v-.05A.487.487 0 0 0 17.5 3h-14z"/></svg>