<?xml version="1.0" encoding="UTF-8" standalone="no"?>
<svg
   height="24"
   width="24"
   version="1.1"
   id="svg2063"
   sodipodi:docname="trowel-filled.svg"
   inkscape:version="1.2 (1:1.2.1+202207142221+cd75a1ee6d)"
   xmlns:inkscape="http://www.inkscape.org/namespaces/inkscape"
   xmlns:sodipodi="http://sodipodi.sourceforge.net/DTD/sodipodi-0.dtd"
   xmlns="http://www.w3.org/2000/svg"
   xmlns:svg="http://www.w3.org/2000/svg">
  <defs
     id="defs2067" />
  <sodipodi:namedview
     id="namedview2065"
     pagecolor="#ffffff"
     bordercolor="#666666"
     borderopacity="1.0"
     inkscape:showpageshadow="2"
     inkscape:pageopacity="0.0"
     inkscape:pagecheckerboard="0"
     inkscape:deskcolor="#d1d1d1"
     showgrid="true"
     inkscape:zoom="17.143047"
     inkscape:cx="1.8083133"
     inkscape:cy="-0.99165567"
     inkscape:window-width="1920"
     inkscape:window-height="1011"
     inkscape:window-x="0"
     inkscape:window-y="0"
     inkscape:window-maximized="1"
     inkscape:current-layer="svg2063">
    <inkscape:grid
       type="xygrid"
       id="grid2186" />
    <inkscape:grid
       type="xygrid"
       id="grid2190"
       dotted="true"
       spacingx="0.5"
       spacingy="0.5"
       empspacing="10" />
  </sodipodi:namedview>
  <path
     id="path7013"
     style="color:#000000;fill:#808080;fill-rule:evenodd;stroke-linecap:round;stroke-linejoin:round;-inkscape-stroke:none"
     d="M 18.003906 3 C 17.491139 3 16.978522 3.1933526 16.589844 3.5820312 L 13.761719 6.4101562 C 13.131199 7.0406756 13.01198 7.9980684 13.404297 8.7519531 C 13.249398 8.88632 13.129426 9.0411254 13.050781 9.1992188 C 12.920716 9.4606789 12.884226 9.7046354 12.839844 9.9140625 C 12.765853 10.263219 12.713644 10.53716 12.382812 10.875 C 11.93709 10.508013 11.482511 10.260442 11.035156 10.125 C 10.453299 9.9488366 9.8823161 9.9617043 9.3554688 10.148438 C 8.3017738 10.521898 7.481749 11.456155 6.7890625 12.564453 C 5.4036896 14.78105 4.5247482 17.805302 4.1640625 19.248047 A 0.50005 0.50005 0 0 0 4.78125 19.853516 C 6.1376193 19.485756 9.1653828 18.605704 11.398438 17.224609 C 12.514964 16.534062 13.462523 15.719239 13.849609 14.667969 C 14.198941 13.719235 13.977432 12.622744 13.089844 11.576172 C 13.580492 11.052494 13.736053 10.500264 13.816406 10.121094 C 13.864026 9.8963997 13.901136 9.7372673 13.947266 9.6445312 C 13.978129 9.5824869 14.005409 9.5381086 14.070312 9.4902344 C 14.8459 10.00369 15.908332 9.9217465 16.589844 9.2402344 L 19.417969 6.4101562 C 20.195326 5.6327989 20.195326 4.3593884 19.417969 3.5820312 C 19.029291 3.1933527 18.516673 3 18.003906 3 z " />
</svg>
