<svg height="24" width="24" xmlns="http://www.w3.org/2000/svg"><path style="fill:gray;stroke:none;stroke-width:1px;stroke-linecap:butt;stroke-linejoin:miter" d="M19.334 2.01a1.5 1.5 0 0 0-.893.43l-4.501 4.5a1.5 1.5 0 0 0-.404 1.342c-.367.187-.53.445-.525.705-.01 1.722-.377 2.336-1.108 2.34-2.048-.299-3.679.498-4.402 1.172-1.552 1.446-5 9-5 9S14 17 15 16c.392-.392 1.399-1.706.37-2.979-.37-.52-.87-1.02-.87-2.507 0-.813.017-1.026.266-1.037a1.5 1.5 0 0 0 .181.015l.05.008v-.008a1.5 1.5 0 0 0 1.064-.43l4.502-4.501a1.5 1.5 0 0 0 0-2.122 1.5 1.5 0 0 0-1.229-.43z"/></svg>