<svg height="24" width="24" xmlns="http://www.w3.org/2000/svg"><path style="line-height:1000%;-inkscape-font-specification:Ubuntu;text-align:center;fill:gray;stroke-width:.666278" d="M11.947 18.988c-1.031 0-1.922-.142-2.671-.425-.75-.296-1.371-.699-1.866-1.208a5.123 5.123 0 0 1-1.08-1.843 7.897 7.897 0 0 1-.34-2.375V3h3.307v9.861c0 .594.063 1.102.19 1.527.143.41.326.749.551 1.017.24.254.523.438.848.551.34.113.708.17 1.103.17.806 0 1.456-.248 1.952-.742.508-.495.762-1.336.762-2.523V3h3.307v10.137a7.48 7.48 0 0 1-.36 2.375 4.949 4.949 0 0 1-1.102 1.864c-.496.51-1.125.905-1.887 1.187-.763.283-1.668.425-2.714.425z"/><path style="fill:gray;stroke-width:1" d="M2.995 20v1h18.01v-1z"/></svg>