<svg height="24" width="24" xmlns="http://www.w3.org/2000/svg"><path style="fill:gray;stroke-width:.5;stroke-linecap:round;stroke-linejoin:round;fill-opacity:1" d="M8 2v4h1V3h6v3h1V2H8zm2 2v1h1V4h-1zm3 0v1h1V4h-1zM7.787 7c-.677.006-1.25.048-1.76.303-.34.17-.63.462-.797.838C5.064 8.516 5 8.958 5 9.5v10c0 .542.064.984.23 1.36.167.375.458.668.797.837.68.34 1.473.303 2.473.303h7c1 0 1.794.037 2.473-.303.34-.17.63-.462.797-.838.166-.375.23-.817.23-1.359v-10c0-.542-.064-.984-.23-1.36a1.72 1.72 0 0 0-.797-.837C17.293 6.963 16.5 7 15.5 7h-7c-.25 0-.487-.002-.713 0zM8.5 8h7c1 0 1.706.037 2.027.197.16.08.245.163.328.35.084.187.145.495.145.953v10c0 .458-.061.766-.145.953a.615.615 0 0 1-.328.35c-.32.16-1.027.197-2.027.197h-7c-1 0-1.706-.037-2.027-.197a.615.615 0 0 1-.328-.35C6.06 20.266 6 19.958 6 19.5v-10c0-.458.061-.766.145-.953a.615.615 0 0 1 .328-.35C6.793 8.037 7.5 8 8.5 8z"/></svg>