<svg height="24" width="24" xmlns="http://www.w3.org/2000/svg"><path d="M16 1.998 8 2v4.998h8v-5zM10 4h1v1h-1V4zm3 0h1v1h-1V4zM7.787 7.998c-.677.006-1.25.048-1.76.303-.34.17-.63.462-.797.838-.166.375-.23.817-.23 1.359v9c0 .542.064.984.23 1.36.167.375.458.668.797.838.68.34 1.473.302 2.473.302h7c1 0 1.794.037 2.473-.302.34-.17.63-.463.797-.838.166-.376.23-.818.23-1.36v-9c0-.542-.064-.984-.23-1.36a1.72 1.72 0 0 0-.797-.837c-.68-.34-1.473-.303-2.473-.303h-7c-.25 0-.487-.002-.713 0z" style="fill:gray"/></svg>