<svg height="24" width="24" xmlns="http://www.w3.org/2000/svg"><path style="color:#000;fill:gray;-inkscape-stroke:none" d="M14.5 7a3.5 4 0 0 0-3.5 4 3.5 4 0 0 0 3.5 4 3.5 4 0 0 0 3.5-4 3.5 4 0 0 0-3.5-4zm0 1a2.5 3 0 0 1 2.5 3 2.5 3 0 0 1-2.5 3 2.5 3 0 0 1-2.5-3 2.5 3 0 0 1 2.5-3zm0 8c-3.327 0-5.228.77-6.291 1.834C7.146 18.897 7 20.194 7 21h1c0-.694.104-1.647.916-2.459S11.326 17 14.5 17c3.173 0 4.772.73 5.584 1.541.812.812.916 1.765.916 2.459h1c0-.806-.146-2.103-1.209-3.166C19.728 16.771 17.827 16 14.5 16zm-5-4c-3.327 0-5.228.77-6.291 1.834C2.146 14.897 2 16.194 2 17h1c0-.694.104-1.647.916-2.459S6.326 13 9.5 13c.321 0 .622.01.912.023a5.123 5.123 0 0 1-.314-1.013c-.194-.006-.393-.01-.598-.01z"/><path style="fill:gray;stroke:none;stroke-linecap:square;stroke-linejoin:round" d="M9.5 3A3.5 4 0 0 0 6 7a3.5 4 0 0 0 3.5 4 3.5 4 0 0 0 .502-.041c.003-.363.043-.717.113-1.06A2.5 3 0 0 1 9.5 10 2.5 3 0 0 1 7 7a2.5 3 0 0 1 2.5-3 2.5 3 0 0 1 2.496 2.846c.294-.22.612-.403.951-.541A3.5 4 0 0 0 9.5 3z"/></svg>