<svg height="24" width="24" xmlns="http://www.w3.org/2000/svg"><path style="color:#000;fill:gray" d="M9.5 3C7.567 3 6 4.79 6 7s1.567 4 3.5 4c.171 0 .337-.02.502-.047.018-2.084 1.21-3.94 2.943-4.648C12.657 4.428 11.225 3 9.5 3zm0 9c-3.327 0-5.228.77-6.291 1.834C2.146 14.897 2 16.194 2 17h5.637c.998-.903 2.64-1.431 4.681-1.71a5.04 5.04 0 0 1-2.22-3.28A20.21 20.21 0 0 0 9.5 12zm7.21 3.27-.028.02.04.005c-.002-.009-.008-.017-.011-.025z"/><path style="color:#000;fill:gray;-inkscape-stroke:none" d="M14.5 7C12.567 7 11 8.79 11 11s1.567 4 3.5 4 3.5-1.79 3.5-4-1.567-4-3.5-4zm0 9c-3.327 0-5.228.77-6.291 1.834C7.146 18.897 7 20.194 7 21h15c0-.806-.146-2.103-1.209-3.166C19.728 16.771 17.827 16 14.5 16z"/></svg>