<svg height="24" width="24" xmlns="http://www.w3.org/2000/svg"><path style="fill:gray;fill-opacity:1;stroke-width:.5;stroke-linecap:square;stroke-linejoin:round" d="M9.805 3.805 8.537 6H6v2.537L3.805 9.805 5.072 12l-1.267 2.195L6 15.463V18h2.537l1.268 2.195 2.076-1.199C9.738 18.932 8 17.157 8 15c0-2.004 1.523-3.61 3.453-3.889.766-1.834 2.514-3.107 4.545-3.111H16c.715 0 1.391.155 2 .432V6h-2.537l-1.268-2.195L12 5.072 9.805 3.805z"/><path style="fill:gray;fill-opacity:1;stroke-width:.5;stroke-linecap:square;stroke-linejoin:round" d="M16 10a3 3 0 0 1 3 3l-.004.059a3 3 0 0 1-.26 1.152 1.5 1.5 0 0 1 1.12-.168A1.5 1.5 0 0 1 19.5 17H12a2 2 0 1 1 1.021-3.719A2.996 2.996 0 0 1 13 13c.003-.266.04-.53.113-.785A3 3 0 0 1 16 10z"/><path style="fill:gray;fill-opacity:1;stroke-width:.5;stroke-linecap:square;stroke-linejoin:round" d="M16 9a4 4 0 0 0-3.865 3.004A3 3 0 1 0 12 18h7.5a2.5 2.5 0 0 0 .496-4.95A4.32 4.32 0 0 0 20 13a4 4 0 0 0-4-4z"/></svg>