<?xml version="1.0" encoding="UTF-8" standalone="no"?>
<svg viewBox="0 0 24 24" height="24" width="24" version="1.1" id="svg6" sodipodi:docname="severe-alert.svg" inkscape:version="1.1 (ce6663b3b7, 2021-05-25)"
   xmlns:inkscape="http://www.inkscape.org/namespaces/inkscape"
   xmlns:sodipodi="http://sodipodi.sourceforge.net/DTD/sodipodi-0.dtd"
   xmlns="http://www.w3.org/2000/svg"
   xmlns:svg="http://www.w3.org/2000/svg">
   <defs id="defs10" />
   <sodipodi:namedview id="namedview8" pagecolor="#ffffff" bordercolor="#666666" borderopacity="1.0" inkscape:pageshadow="2" inkscape:pageopacity="0.0" inkscape:pagecheckerboard="0" showgrid="true" inkscape:zoom="39.59798" inkscape:cx="12.386996" inkscape:cy="13.005714" inkscape:window-width="1920" inkscape:window-height="1043" inkscape:window-x="1920" inkscape:window-y="0" inkscape:window-maximized="1" inkscape:current-layer="svg6" inkscape:snap-page="true">
      <inkscape:grid type="xygrid" id="grid931" />
   </sodipodi:namedview>
   <g id="layer9" label="status" style="display:inline;fill:#808080;fill-opacity:1" transform="translate(-790.9998,188.00025)" />
   <g id="layer2" style="display:inline;fill:#808080;fill-opacity:1" transform="translate(-549.9996,-178.99975)" />
   <g id="layer4" style="display:inline;fill:#808080;fill-opacity:1" transform="translate(-549.9996,-178.99975)" />
   <g id="g1812" style="display:inline;fill:#808080;fill-opacity:1" transform="translate(-549.9996,-178.99975)" />
   <g id="g6217" style="display:inline;fill:#808080;fill-opacity:1" transform="translate(-549.9996,-178.99975)" />
   <g id="layer3" style="display:inline;fill:#808080;fill-opacity:1" transform="translate(-549.9996,-178.99975)" />
   <g id="layer1" style="display:inline;fill:#808080;fill-opacity:1" transform="translate(-549.9996,-178.99975)" />
   <path id="circle1109" style="color:#000000;fill:#808080;fill-opacity:1;fill-rule:evenodd;stroke-linecap:round;-inkscape-stroke:none" d="m 13.5,3 c -2.707144,0 -5.0317121,1.6647593 -6.0078125,4.0234375 -0.1621411,-0.015958 -0.3259458,-0.023437 -0.4921875,-0.023437 -2.7554987,0 -5,2.2445012 -5,4.9999995 0,2.755499 2.2445013,5 5,5 h 3 v -1 h -0.00586 -2.9941406 c -2.2150591,0 -4,-1.784941 -4,-4 0,-2.2150583 1.7849409,-3.9999995 4,-3.9999995 0.058781,0 0.1176318,0.00337 0.1757812,0.00586 0.3415364,0.01462 0.670614,0.071551 0.984375,0.1660156 0.081027,-0.3282474 0.1932297,-0.6434584 0.3300782,-0.9453125 0.8634156,-1.9044824 2.7781252,-3.2265625 5.0097652,-3.2265625 3.043485,0 5.5,2.4565144 5.5,5.5 0,0.180249 -0.0105,0.3574604 -0.02734,0.5332029 -0.03236,0.337663 -0.09323,0.667535 -0.183594,0.984375 0.342212,0.039 0.662071,0.14676 0.947266,0.308594 0.755583,0.428755 1.263672,1.2383 1.263672,2.173828 0,1.386633 -1.113367,2.5 -2.5,2.5 -0.09196,0 -0.182155,-0.0041 -0.271484,-0.01367 0.067,0.0072 0.134615,0.01185 0.203125,0.01367 h -4.431682 v 1 h 4.5 c 1.927072,0 3.5,-1.572928 3.5,-3.5 0,-1.4115 -0.843931,-2.632974 -2.052734,-3.185547 0.03355,-0.267022 0.05273,-0.5384849 0.05273,-0.8144529 0,-3.5839248 -2.916075,-6.5 -6.5,-6.5 z m -2.5,6 v 6 l 0.4,3 h 1.2 l 0.4,-3 v -6 z m 1,11 c -0.552285,0 -1,0.447715 -1,1 0,0.552285 0.447715,1 1,1 0.552285,0 1,-0.447715 1,-1 0,-0.552285 -0.447715,-1 -1,-1 z" sodipodi:nodetypes="ccssscccsssccsssccsssccccsscssccccccccsssss" />
</svg>
