<svg height="24" width="24" xmlns="http://www.w3.org/2000/svg"><path style="fill:gray;fill-opacity:1" d="M12.5 6c-.583 0-1.07.145-1.426.412-.356.268-.574.671-.574 1.088a.5.5 0 0 0 .5.5.5.5 0 0 0 .5-.5c0-.083.032-.18.176-.287.143-.108.407-.213.824-.213s.64.096.771.229c.133.132.229.354.229.771 0 .417-.096.64-.229.771-.132.133-.354.229-.771.229h-6a.499.499 0 1 0 0 1h6c.583 0 1.11-.154 1.479-.521.367-.368.521-.896.521-1.479 0-.583-.154-1.11-.521-1.479C13.61 6.154 13.083 6 12.5 6zM19 6c-1.722 0-3 1.167-3 2.5a.5.5 0 0 0 .5.5.5.5 0 0 0 .5-.5c0-.667.722-1.5 2-1.5.639 0 1.122.205 1.459.541.336.337.541.82.541 1.459 0 .639-.205 1.123-.541 1.459-.337.336-.82.541-1.459.541H4a2 2 0 0 0-2 2 2 2 0 0 0 2 2h11c.417 0 .64.096.771.229.133.132.229.354.229.771 0 .417-.096.64-.229.771-.132.133-.354.229-.771.229-.417 0-.68-.105-.824-.213-.144-.107-.176-.204-.176-.287a.5.5 0 0 0-.5-.5.5.5 0 0 0-.5.5c0 .417.218.82.574 1.088.357.267.843.412 1.426.412s1.11-.154 1.479-.521c.367-.368.521-.896.521-1.479 0-.583-.154-1.11-.521-1.479C16.11 14.154 15.583 14 15 14H4a1 1 0 0 1-1-1 1 1 0 0 1 1-1h15c.861 0 1.628-.295 2.166-.834C21.705 10.628 22 9.861 22 9s-.295-1.628-.834-2.166C20.628 6.295 19.861 6 19 6z"/></svg>