<svg height="24" width="24" xmlns="http://www.w3.org/2000/svg"><path style="color:#000;font-style:normal;font-variant:normal;font-weight:400;font-stretch:normal;font-size:medium;line-height:normal;font-family:Sans;-inkscape-font-specification:Sans;text-indent:0;text-align:start;text-decoration:none;text-decoration-line:none;letter-spacing:normal;word-spacing:normal;text-transform:none;writing-mode:lr-tb;direction:ltr;text-anchor:start;display:inline;overflow:visible;visibility:visible;fill:gray;fill-opacity:1;fill-rule:nonzero;stroke:none;stroke-width:3.74424;marker:none;enable-background:accumulate" d="M17.56 2.113a4.32 4.32 0 0 0-4.326 4.315c0 .495.114.973.268 1.416l-5.637 5.633c-.446-.156-.93-.27-1.43-.27a4.32 4.32 0 0 0-4.326 4.314c0 .456.102.897.233 1.31l2.433-2.427c.242-.241.573-.386.89-.386.315 0 .646.145.888.386l.85.848a1.262 1.262 0 0 1 0 1.771L4.89 21.527a4.379 4.379 0 0 0 1.545.307 4.319 4.319 0 0 0 4.326-4.313c0-.497-.114-.98-.27-1.425l4.162-4.16h.01l1.467-1.463c.446.155.93.27 1.43.27a4.32 4.32 0 0 0 4.326-4.315c0-.498-.116-.981-.272-1.426l-2.355 2.35a1.224 1.224 0 0 1-1.739 0l-.888-.887a1.215 1.215 0 0 1 0-1.733l2.355-2.35c-.446-.154-.928-.269-1.427-.269z"/></svg>