<?xml version="1.0" encoding="UTF-8" standalone="no"?>
<svg
   height="24"
   width="24"
   version="1.1"
   id="svg184"
   sodipodi:docname="wrench.svg"
   inkscape:version="1.2 (1:1.2.1+202207142221+cd75a1ee6d)"
   xmlns:inkscape="http://www.inkscape.org/namespaces/inkscape"
   xmlns:sodipodi="http://sodipodi.sourceforge.net/DTD/sodipodi-0.dtd"
   xmlns="http://www.w3.org/2000/svg"
   xmlns:svg="http://www.w3.org/2000/svg">
  <defs
     id="defs188" />
  <sodipodi:namedview
     id="namedview186"
     pagecolor="#ffffff"
     bordercolor="#666666"
     borderopacity="1.0"
     inkscape:showpageshadow="2"
     inkscape:pageopacity="0.0"
     inkscape:pagecheckerboard="0"
     inkscape:deskcolor="#d1d1d1"
     showgrid="true"
     inkscape:zoom="22.627417"
     inkscape:cx="6.8059028"
     inkscape:cy="11.313708"
     inkscape:window-width="1920"
     inkscape:window-height="1011"
     inkscape:window-x="0"
     inkscape:window-y="0"
     inkscape:window-maximized="1"
     inkscape:current-layer="svg184">
    <inkscape:grid
       type="xygrid"
       id="grid179" />
  </sodipodi:namedview>
  <path
     id="path1298"
     style="color:#000000;fill:#808080;fill-rule:evenodd;stroke-width:3.77953;stroke-linecap:round;stroke-linejoin:round;-inkscape-stroke:none"
     inkscape:transform-center-x="-1.5849807"
     inkscape:transform-center-y="-1.5857132"
     d="M 15.832031 4.0175781 C 14.860322 4.0553819 13.898959 4.4428382 13.160156 5.1816406 C 12.117063 6.2247333 11.776456 7.7084658 12.130859 9.0429688 L 4.7070312 16.466797 C 4.6617183 16.504627 4.6186578 16.545404 4.5761719 16.587891 C 3.7993138 17.364749 3.7973599 18.641111 4.5742188 19.417969 C 5.3510768 20.194827 6.6274389 20.192893 7.4042969 19.416016 C 7.4056969 19.414616 7.4068031 19.413609 7.4082031 19.412109 L 7.4140625 19.416016 L 14.957031 11.873047 C 16.291628 12.227503 17.774857 11.883351 18.818359 10.839844 C 20.132838 9.525365 20.33925 7.5120253 19.435547 5.9785156 L 17.400391 8.0097656 L 15.988281 6.5976562 L 17.048828 5.5371094 L 18.021484 4.5644531 C 17.350775 4.1701743 16.587805 3.9881752 15.832031 4.0175781 z M 15.849609 5.0117188 C 15.952532 5.0071915 16.055313 5.0076257 16.158203 5.0136719 L 14.574219 6.5976562 L 15.28125 7.3046875 L 16.695312 8.71875 L 17.402344 9.4257812 L 17.404297 9.4257812 L 18.988281 7.84375 C 19.033631 8.6642404 18.739914 9.5003193 18.109375 10.130859 C 17.181397 11.058837 15.809158 11.258064 14.693359 10.722656 L 14.572266 10.841797 L 14.570312 10.839844 L 7.921875 17.490234 C 7.8353501 17.158317 7.6626254 16.846217 7.4042969 16.587891 C 7.1483286 16.331926 6.8402667 16.159555 6.5117188 16.072266 L 12.542969 10.039062 L 12.544922 10.041016 L 13.277344 9.3066406 C 12.741619 8.1894761 12.93795 6.8140026 13.865234 5.8867188 C 14.417751 5.3342024 15.129149 5.0434092 15.849609 5.0117188 z M 14.570312 8.21875 C 14.441739 8.21875 14.314583 8.2686326 14.216797 8.3671875 C 14.024888 8.5636396 14.025758 8.8788443 14.220703 9.0722656 L 14.925781 9.7753906 C 15.119206 9.9703536 15.434405 9.9731572 15.630859 9.78125 C 15.827969 9.5856748 15.82797 9.2678382 15.630859 9.0722656 L 14.925781 8.3671875 C 14.827994 8.2686326 14.698886 8.21875 14.570312 8.21875 z M 6 17 A 1 1 0 0 1 7 18 A 1 1 0 0 1 6 19 A 1 1 0 0 1 5 18 A 1 1 0 0 1 6 17 z " />
</svg>
