<?xml version="1.0" encoding="UTF-8" standalone="no"?>
<svg
   height="24"
   width="24"
   version="1.1"
   id="svg184"
   sodipodi:docname="wrench-filled.svg"
   inkscape:version="1.2 (1:1.2.1+202207142221+cd75a1ee6d)"
   xmlns:inkscape="http://www.inkscape.org/namespaces/inkscape"
   xmlns:sodipodi="http://sodipodi.sourceforge.net/DTD/sodipodi-0.dtd"
   xmlns="http://www.w3.org/2000/svg"
   xmlns:svg="http://www.w3.org/2000/svg">
  <defs
     id="defs188" />
  <sodipodi:namedview
     id="namedview186"
     pagecolor="#ffffff"
     bordercolor="#666666"
     borderopacity="1.0"
     inkscape:showpageshadow="2"
     inkscape:pageopacity="0.0"
     inkscape:pagecheckerboard="0"
     inkscape:deskcolor="#d1d1d1"
     showgrid="false"
     inkscape:zoom="9.8333333"
     inkscape:cx="12"
     inkscape:cy="12"
     inkscape:window-width="1920"
     inkscape:window-height="1043"
     inkscape:window-x="0"
     inkscape:window-y="0"
     inkscape:window-maximized="1"
     inkscape:current-layer="svg184" />
  <path
     id="path1298"
     style="color:#000000;fill:#808080;fill-rule:evenodd;stroke-width:3.77953;stroke-linecap:round;stroke-linejoin:round;-inkscape-stroke:none"
     inkscape:transform-center-y="-1.5857097"
     d="m 17.549872,4.328809 c -0.495963,-0.2088983 -1.024967,-0.3142715 -1.555082,-0.3148838 -1.026342,-0.00118 -2.054107,0.3885388 -2.833951,1.1683831 -1.04309,1.0430907 -1.38468,2.5269665 -1.030277,3.8614663 l -7.4232405,7.4232404 c -0.045313,0.03783 -0.088724,0.07766 -0.1312101,0.120147 -0.7768558,0.776856 -0.7796175,2.054334 -0.00276,2.831189 0.7768559,0.776856 2.0543339,0.774094 2.8311894,-0.0028 0.0014,-0.0014 0.00276,-0.0027 0.00416,-0.0042 l 0.00552,0.0055 7.5433922,-7.543393 c 1.334592,0.354456 2.816586,0.0091 3.860085,-1.03442 1.18374,-1.1837396 1.468482,-2.9325943 0.8535,-4.3890337 l -1.296823,1.2968228 -0.707106,0.7071069 -0.353552,0.3535521 -2.121321,-2.1213203 0.353553,-0.3535522 0.707106,-0.7071069 z m -2.624029,4.0382427 0.705726,0.7057255 c 0.19711,0.1955716 0.195727,0.5129144 -0.0014,0.7084879 -0.196452,0.1919093 -0.510918,0.1894413 -0.704345,-0.00552 l -0.705726,-0.7029638 c -0.194963,-0.1934211 -0.196063,-0.5092732 -0.0042,-0.7057255 0.09779,-0.098555 0.226356,-0.1477757 0.354931,-0.1477757 0.128572,0 0.257148,0.049221 0.354936,0.1477757 z m -8.2270215,8.9230803 c 0.3932893,0.393288 0.3959682,1.022002 0.00552,1.416975 -0.00141,0.0014 -0.00272,0.0027 -0.00416,0.0042 -0.39471,0.39471 -1.0208852,0.390567 -1.4155948,-0.0042 -0.3947101,-0.39471 -0.393329,-1.01536 0.00138,-1.41007 0.00142,-0.0014 0.00271,-0.0027 0.00416,-0.0042 l 0.031748,-0.03175 c 0.1855635,-0.168189 0.4144978,-0.255908 0.6463393,-0.262405 0.2627528,-0.0074 0.5274474,0.08827 0.7305842,0.291406 z"
     inkscape:transform-center-x="-1.5846654" />
</svg>
