<svg height="24" width="24" xmlns="http://www.w3.org/2000/svg"><path style="fill:gray;stroke:none;stroke-width:2;stroke-linecap:round;stroke-linejoin:round" d="M4 3v18h14v-6.818c-.204.115-.409.23-.615.343a1 1 0 0 1-.004.004 54.85 54.85 0 0 1-2.957 1.502A1 1 0 0 1 13 15.125v-6.25a1 1 0 0 1 .857-.99 1 1 0 0 1 .559.08c.973.445 1.96.94 2.965 1.488a1 1 0 0 1 .004.004c.207.114.41.23.615.346V3z"/><path style="color:#000;font-style:normal;font-variant:normal;font-weight:400;font-stretch:normal;font-size:medium;line-height:normal;font-family:sans-serif;font-variant-ligatures:none;font-variant-position:normal;font-variant-caps:normal;font-variant-numeric:normal;font-variant-alternates:normal;font-feature-settings:normal;text-indent:0;text-align:start;text-decoration:none;text-decoration-line:none;text-decoration-style:solid;text-decoration-color:#000;letter-spacing:normal;word-spacing:normal;text-transform:none;writing-mode:lr-tb;direction:ltr;baseline-shift:baseline;text-anchor:start;white-space:normal;shape-padding:0;clip-rule:nonzero;display:inline;overflow:visible;visibility:visible;isolation:auto;mix-blend-mode:normal;color-interpolation:sRGB;color-interpolation-filters:linearRGB;solid-color:#000;solid-opacity:1;fill:gray;fill-opacity:1;fill-rule:nonzero;stroke:none;stroke-width:4;stroke-linecap:butt;stroke-linejoin:round;stroke-miterlimit:4;stroke-dasharray:none;stroke-dashoffset:0;stroke-opacity:1;marker:none;color-rendering:auto;image-rendering:auto;shape-rendering:auto;text-rendering:auto;enable-background:accumulate" d="M14 8.875v6.25c.95-.446 1.917-.937 2.902-1.475A64.897 64.897 0 0 0 19.727 12a55.141 55.141 0 0 0-2.825-1.668A46.174 46.174 0 0 0 14 8.875z"/></svg>