<?xml version="1.0" encoding="UTF-8" standalone="no"?>
<svg viewBox="0 0 24 24" height="24" width="24" version="1.1" id="svg4" sodipodi:docname="_.svg" inkscape:version="1.1 (ce6663b3b7, 2021-05-25)"
   xmlns:inkscape="http://www.inkscape.org/namespaces/inkscape"
   xmlns:sodipodi="http://sodipodi.sourceforge.net/DTD/sodipodi-0.dtd"
   xmlns="http://www.w3.org/2000/svg"
   xmlns:svg="http://www.w3.org/2000/svg">
   <defs id="defs8" />
   <sodipodi:namedview id="namedview6" pagecolor="#ffffff" bordercolor="#666666" borderopacity="1.0" inkscape:pageshadow="2" inkscape:pageopacity="0.0" inkscape:pagecheckerboard="0" showgrid="true" inkscape:zoom="27.998251" inkscape:cx="26.626663" inkscape:cy="12.41149" inkscape:window-width="1920" inkscape:window-height="1016" inkscape:window-x="0" inkscape:window-y="27" inkscape:window-maximized="1" inkscape:current-layer="svg4">
      <inkscape:grid type="xygrid" id="grid821" />
      <inkscape:grid type="xygrid" id="grid921" dotted="true" spacingx="0.5" spacingy="0.5" empspacing="10" />
   </sodipodi:namedview>
   <path id="rect919" style="color:#000000;fill:#808080;fill-opacity:1;fill-rule:evenodd;stroke-width:0.5;stroke-linecap:square;stroke-linejoin:round;-inkscape-stroke:none" d="m 11.5,2 c -0.805555,0 -1.371514,0.1345433 -1.7480469,0.2851562 -0.3765325,0.150613 -0.6054687,0.3613282 -0.6054687,0.3613282 l -0.1464844,0.1464844 v 1.4511718 c -2.2798099,0.440785 -3.7578125,1.3261719 -3.7578125,1.3261719 l -0.2421875,0.1464844 v 1.2832031 h -1 v 1 h 1 v 10.5 c 0,0.999999 -0.036708,1.793771 0.3027344,2.472656 0.1697212,0.339443 0.4624336,0.630005 0.8378906,0.796875 0.375457,0.16687 0.8177089,0.230469 1.359375,0.230469 h 8 c 0.541666,0 0.983918,-0.0636 1.359375,-0.230469 0.375457,-0.16687 0.668169,-0.457432 0.837891,-0.796875 0.339442,-0.678885 0.302734,-1.472657 0.302734,-2.472656 v -8.5 h -1 v 8.5 c 0,0.999999 -0.03671,1.70623 -0.197266,2.027344 -0.08028,0.160557 -0.162567,0.244995 -0.349609,0.328125 -0.187042,0.08313 -0.494792,0.144531 -0.953125,0.144531 h -8 c -0.4583329,0 -0.7660826,-0.0614 -0.953125,-0.144531 -0.1870424,-0.08313 -0.2693308,-0.167568 -0.3496094,-0.328125 -0.1605571,-0.321114 -0.1972656,-1.027345 -0.1972656,-2.027344 v -10.5 h 13 v -1 h -1 v -1.2832031 l -0.242188,-0.1464844 c 0,0 -1.478002,-0.8853869 -3.757812,-1.3261719 v -1.4511718 l -0.146484,-0.1464844 c 0,0 -0.228937,-0.2107153 -0.605469,-0.3613282 -0.376533,-0.1506129 -0.942492,-0.2851562 -1.748047,-0.2851562 z m 0,1 c 0.694444,0 1.128486,0.115457 1.376953,0.2148438 0.113128,0.045251 0.0847,0.040057 0.123047,0.0625 v 0.8125 c -0.475908,-0.055436 -0.977027,-0.089844 -1.5,-0.089844 -0.522973,0 -1.024092,0.034408 -1.5,0.089844 v -0.8125 c 0.03835,-0.022443 0.0099,-0.017249 0.123047,-0.0625 0.248467,-0.099387 0.682509,-0.2148438 1.376953,-0.2148438 z m -2.5,7 v 7 h 1 v -7 z m 2,0 v 7 h 1 v -7 z m 2,0 v 7 h 1 v -7 z" sodipodi:nodetypes="sscccccccccssssssssccsssssssscccccccccssssccscccsccccccccccccccc" />
</svg>
