<svg height="24" width="24" xmlns="http://www.w3.org/2000/svg"><path style="color:#000;fill:gray;fill-opacity:1;stroke-width:.5;stroke-linecap:square;stroke-linejoin:round" d="M11.5 2c-.806 0-1.372.135-1.748.285-.377.15-.606.361-.606.361L9 2.793v1.451c-2.28.44-3.758 1.326-3.758 1.326L5 5.717V7H4v1h15V7h-1V5.717l-.242-.147S16.28 4.685 14 4.244V2.793l-.146-.147s-.23-.21-.606-.36C12.872 2.134 12.306 2 11.5 2zm0 1c.694 0 1.128.115 1.377.215.113.045.085.04.123.062v.813c-.476-.056-.977-.09-1.5-.09s-1.024.034-1.5.09v-.813c.038-.022.01-.017.123-.062.249-.1.683-.215 1.377-.215zM5 9v9.5c0 1-.037 1.794.303 2.473.17.34.462.63.838.797.375.166.817.23 1.359.23h8c.542 0 .984-.064 1.36-.23a1.72 1.72 0 0 0 .837-.797c.34-.68.303-1.473.303-2.473V9zm4 2h1v7H9zm2 0h1v7h-1zm2 0h1v7h-1z"/></svg>