<svg height="24" width="24" xmlns="http://www.w3.org/2000/svg"><path style="color:#000;fill:gray;fill-opacity:1;stroke-width:.5;stroke-linecap:square;stroke-linejoin:round" d="M11.5 2c-.806 0-1.372.135-1.748.285a2.15 2.15 0 0 0-.606.361L9 2.793v1.451c-2.28.44-3.758 1.326-3.758 1.326L5 5.717V7H4v1h15V7h-1V5.717l-.242-.147S16.28 4.685 14 4.244V2.793l-.146-.147s-.23-.21-.606-.36C12.872 2.134 12.306 2 11.5 2zm0 1c.694 0 1.128.115 1.377.215.113.045.085.04.123.062v.813c-.476-.056-.977-.09-1.5-.09s-1.024.034-1.5.09v-.813c.038-.022.01-.017.123-.062.249-.1.683-.215 1.377-.215zM5 9v9.5c0 1-.037 1.794.303 2.473.17.34.462.63.838.797.375.166.817.23 1.359.23h7.12a4.083 4.083 0 0 1-1.612-2.842A2.9 2.9 0 0 1 13.12 18H13v-7h1v5.414c.469-.62 1.05-1.171 1.623-1.7l.008-.007c-.532-.388-.733-1.097-.563-1.648.174-.562.753-1.056 1.428-1.059H18V9H5zm4 2h1v7H9v-7zm2 0h1v7h-1v-7z"/><path style="color:#000;fill:gray;stroke-linejoin:round;-inkscape-stroke:none;fill-opacity:1" d="M16.5 13a.5.5 0 0 0-.281.912s.668.541.972.764c-.284.23-.303.206-.601.47-.653.58-1.303 1.223-1.795 1.874-.492.65-.87 1.311-.793 2.033a3.037 3.037 0 0 0 1.541 2.361c.778.443 1.676.586 2.457.586.781 0 1.68-.143 2.457-.586a3.037 3.037 0 0 0 1.541-2.361c.077-.722-.3-1.383-.793-2.033-.492-.651-1.142-1.295-1.795-1.874-.298-.264-.317-.24-.601-.47.304-.223.972-.764.972-.764A.5.5 0 0 0 19.5 13h-3z"/></svg>