<?xml version="1.0" encoding="UTF-8" standalone="no"?>
<svg
   viewBox="0 0 24 24"
   height="24"
   width="24"
   version="1.1"
   id="svg8"
   sodipodi:docname="full-filled.svg"
   inkscape:version="1.2 (1:1.2.1+202207142221+cd75a1ee6d)"
   xmlns:inkscape="http://www.inkscape.org/namespaces/inkscape"
   xmlns:sodipodi="http://sodipodi.sourceforge.net/DTD/sodipodi-0.dtd"
   xmlns="http://www.w3.org/2000/svg"
   xmlns:svg="http://www.w3.org/2000/svg">
  <defs
     id="defs12" />
  <sodipodi:namedview
     id="namedview10"
     pagecolor="#ffffff"
     bordercolor="#666666"
     borderopacity="1.0"
     inkscape:pageshadow="2"
     inkscape:pageopacity="0.0"
     inkscape:pagecheckerboard="0"
     showgrid="true"
     inkscape:zoom="27.998251"
     inkscape:cx="18.35829"
     inkscape:cy="13.357977"
     inkscape:window-width="1920"
     inkscape:window-height="1043"
     inkscape:window-x="0"
     inkscape:window-y="0"
     inkscape:window-maximized="1"
     inkscape:current-layer="svg8"
     inkscape:showpageshadow="2"
     inkscape:deskcolor="#d1d1d1">
    <inkscape:grid
       type="xygrid"
       id="grid33" />
    <inkscape:grid
       type="xygrid"
       id="grid1020"
       dotted="true"
       spacingx="0.5"
       spacingy="0.5"
       empspacing="10" />
  </sodipodi:namedview>
  <path
     id="rect919"
     style="color:#000000;fill:#808080;fill-opacity:1;fill-rule:evenodd;stroke-width:0.5;stroke-linecap:square;stroke-linejoin:round"
     d="M 11.5 2 C 10.69445 2 10.128486 2.1345444 9.7519531 2.2851562 C 9.3754225 2.4357691 9.1464844 2.6464844 9.1464844 2.6464844 L 9 2.7929688 L 9 4.2441406 C 6.7202016 4.6849236 5.2421875 5.5703125 5.2421875 5.5703125 L 5 5.7167969 L 5 7 L 4 7 L 4 8 L 5 8 L 18 8 L 19 8 L 19 7 L 18 7 L 18 5.7167969 L 17.757812 5.5703125 C 17.757812 5.5703125 16.2798 4.6849236 14 4.2441406 L 14 2.7929688 L 13.853516 2.6464844 C 13.853516 2.6464844 13.624574 2.4357691 13.248047 2.2851562 C 12.871514 2.1345444 12.30555 2 11.5 2 z M 11.5 3 C 12.194439 3 12.628486 3.115457 12.876953 3.2148438 C 12.990081 3.2600947 12.961653 3.2549008 13 3.2773438 L 13 4.0898438 C 12.524092 4.0344078 12.022968 4 11.5 4 C 10.977032 4 10.475908 4.0344078 10 4.0898438 L 10 3.2773438 C 10.03835 3.2549008 10.0099 3.2600947 10.123047 3.2148438 C 10.371514 3.1154568 10.805561 3 11.5 3 z M 5 9 L 5 18.5 C 5 19.499994 4.9632933 20.293776 5.3027344 20.972656 C 5.4724546 21.312099 5.76517 21.602661 6.140625 21.769531 C 6.51608 21.936401 6.9583364 22 7.5 22 L 14.619141 22 C 13.795082 21.379231 13.140317 20.399243 13.007812 19.158203 C 12.963329 18.741566 13.013575 18.356309 13.121094 18 L 13 18 L 13 11 L 14 11 L 14 16.414062 C 14.468818 15.794834 15.049833 15.242805 15.623047 14.714844 C 15.625747 14.712344 15.628159 14.709531 15.630859 14.707031 C 15.09868 14.319119 14.898443 13.609646 15.068359 13.058594 C 15.241569 12.496865 15.821383 12.0028 16.496094 12 C 16.497394 11.999997 16.4987 11.999997 16.5 12 L 18 12 L 18 10 L 18 9 L 5 9 z M 9 11 L 10 11 L 10 18 L 9 18 L 9 11 z M 11 11 L 12 11 L 12 18 L 11 18 L 11 11 z " />
  <path
     id="path632"
     style="color:#000000;fill:#808080;stroke-linejoin:round;-inkscape-stroke:none;fill-opacity:1"
     d="M 16.5 13 C 16.009981 13.002 15.814949 13.634499 16.21875 13.912109 C 16.21875 13.912109 16.886693 14.453003 17.191406 14.675781 C 16.907062 14.906117 16.888387 14.881642 16.589844 15.146484 C 15.937317 15.725352 15.287112 16.368899 14.794922 17.019531 C 14.30273 17.670165 13.924914 18.331183 14.001953 19.052734 C 14.121955 20.17667 14.765327 20.970673 15.542969 21.414062 C 16.320611 21.857453 17.218583 22 18 22 C 18.781417 22 19.679389 21.857453 20.457031 21.414062 C 21.234673 20.970673 21.878045 20.17667 21.998047 19.052734 C 22.075087 18.331183 21.69727 17.670165 21.205078 17.019531 C 20.712888 16.368899 20.062683 15.725352 19.410156 15.146484 C 19.111613 14.881642 19.092938 14.906117 18.808594 14.675781 C 19.113307 14.453003 19.78125 13.912109 19.78125 13.912109 C 20.185051 13.634499 19.990019 13.002 19.5 13 L 16.5 13 z " />
</svg>
