<svg height="24" width="24" xmlns="http://www.w3.org/2000/svg"><path style="fill:gray;fill-opacity:1;stroke-width:15.1181;stroke-linecap:round;stroke-linejoin:round" d="M10.268 2a147.78 147.78 0 0 0-1.961 4.328 200.412 200.412 0 0 0-1.934 4.62c-.384.978-.779 2.003-1.178 3.052H3.5c-.831 0-1.5.669-1.5 1.5S2.669 17 3.5 17h.574a347.01 347.01 0 0 0-1.8 5h3.78l.81-2.309c.288-.788.566-1.588.835-2.396L7.791 17h8.258l.252.785c.217.635.435 1.267.664 1.877.288.77.566 1.55.836 2.338h3.926c-.63-1.79-1.236-3.44-1.825-5h.598c.831 0 1.5-.669 1.5-1.5s-.669-1.5-1.5-1.5h-1.73a184.03 184.03 0 0 0-1.2-3.053A141.782 141.782 0 0 0 13.703 2h-3.435zm1.646 3.867c.423.981.923 2.212 1.5 3.694A193.1 193.1 0 0 1 15.074 14H8.752a262.242 262.242 0 0 1 1.633-4.41 122.993 122.993 0 0 1 1.53-3.723zM3.5 15h17a.499.499 0 1 1 0 1h-17a.499.499 0 1 1 0-1z"/></svg>