<svg width="24" height="24" fill="gray" xmlns="http://www.w3.org/2000/svg"><path style="color:#000;fill:gray;stroke-linecap:round;stroke-linejoin:round;-inkscape-stroke:none" d="M12 2C9.748 2 7.898 3.748 7.557 6H5C3.347 6 2 7.347 2 9v10c0 1.653 1.347 3 3 3h14c1.653 0 3-1.347 3-3V9c0-1.653-1.347-3-3-3h-2.557c-.34-2.252-2.191-4-4.443-4zm0 1c1.686 0 3.106 1.274 3.43 3H8.57c.324-1.726 1.744-3 3.43-3zm-1.04 5h2.061a84.922 84.922 0 0 1 2.32 5.367c.214.526.429 1.073.645 1.633h.514c.831 0 1.5.669 1.5 1.5 0 .627-.382 1.162-.926 1.387.249.675.502 1.372.762 2.113H15.48a50.12 50.12 0 0 0-.501-1.402 39.066 39.066 0 0 1-.22-.598H9.14c-.073.206-.146.412-.221.615L8.434 20h-2.27c.26-.741.51-1.44.756-2.115A1.498 1.498 0 0 1 6 16.5c0-.831.669-1.5 1.5-1.5h.492c.214-.56.424-1.107.631-1.633.393-.97.78-1.892 1.16-2.77.381-.877.774-1.743 1.178-2.597zm.987 2.32a74.37 74.37 0 0 0-.916 2.235A155.71 155.71 0 0 0 10.125 15h3.646c-.315-.869-.625-1.697-.923-2.463a69.025 69.025 0 0 0-.9-2.217zM7.5 16a.499.499 0 1 0 0 1h9a.499.499 0 1 0 0-1h-9z"/></svg>