<svg width="24" height="24" fill="gray" xmlns="http://www.w3.org/2000/svg"><path style="color:#000;fill:gray;stroke-linecap:round;stroke-linejoin:round;-inkscape-stroke:none" d="M12 2C9.748 2 7.898 3.748 7.557 6H5C3.347 6 2 7.347 2 9v10c0 1.653 1.347 3 3 3h14c1.653 0 3-1.347 3-3V9c0-1.653-1.347-3-3-3h-2.557c-.34-2.252-2.191-4-4.443-4zm0 1c1.686 0 3.106 1.274 3.43 3H8.57c.324-1.726 1.744-3 3.43-3zM5 7h14c1.117 0 2 .883 2 2v10c0 1.117-.883 2-2 2H5c-1.117 0-2-.883-2-2V9c0-1.117.883-2 2-2z"/><path style="font-style:normal;font-variant:normal;font-weight:500;font-stretch:normal;font-size:17.316px;line-height:1.25;font-family:Ubuntu;-inkscape-font-specification:'Ubuntu, Medium';font-variant-ligatures:normal;font-variant-caps:normal;font-variant-numeric:normal;font-variant-east-asian:normal;letter-spacing:0;word-spacing:0;fill:gray;stroke-width:1" d="M10.96 8c-.403.854-.796 1.72-1.177 2.598-.38.877-.767 1.8-1.16 2.77-.207.525-.417 1.072-.63 1.632H7.5c-.831 0-1.5.669-1.5 1.5 0 .625.379 1.159.92 1.385-.245.675-.495 1.374-.756 2.115h2.27l.484-1.385c.075-.203.148-.41.22-.615h5.622c.071.201.145.4.219.598.173.461.34.929.501 1.402h2.356c-.26-.74-.513-1.438-.762-2.113.544-.225.926-.76.926-1.387 0-.831-.669-1.5-1.5-1.5h-.514a109.75 109.75 0 0 0-.644-1.633A84.92 84.92 0 0 0 13.022 8H10.96zm.987 2.32c.254.59.554 1.328.9 2.217.3.766.609 1.594.924 2.463h-3.646c.314-.867.618-1.69.906-2.445.347-.878.65-1.623.916-2.235zM7.5 16h9a.499.499 0 1 1 0 1h-9a.499.499 0 1 1 0-1z"/></svg>